<?xml version="1.0" encoding="UTF-8"?> <svg xmlns="http://www.w3.org/2000/svg" xmlns:xlink="http://www.w3.org/1999/xlink" version="1.1" id="Layer_1" x="0px" y="0px" viewBox="0 0 75.9 77" style="enable-background:new 0 0 75.9 77;" xml:space="preserve"> <style type="text/css"> .st0{fill:#ffffff;} </style> <g transform="translate(-777 -198)"> <path class="st0" d="M815.3,218.4c0.6,0,1.1-0.5,1.1-1.1c0-0.2,0-0.3-0.1-0.4c-0.8-1.8-0.8-4,0-5.8l0,0c0.3-0.5,0-1.2-0.5-1.4 c-0.5-0.3-1.2,0-1.4,0.5c0,0,0,0,0,0l0,0c-1.1,2.4-1.1,5.2,0,7.6C814.5,218.1,814.9,218.4,815.3,218.4z" fill="#000000"></path> <path class="st0" d="M799.8,246.6l-2.1-0.9c-0.5-0.2-1.2,0-1.4,0.6c-0.2,0.5,0,1.2,0.6,1.4l2.1,0.9c1.1,0.5,2,1.4,2.3,2.6 c0.2,0.6,0.8,0.9,1.4,0.7c0.6-0.2,0.9-0.8,0.7-1.4C802.8,248.8,801.5,247.3,799.8,246.6z" fill="#000000"></path> <path class="st0" d="M822.7,232.3c0.3,0,0.5-0.1,0.7-0.3c1.2-1.1,1.9-2.7,1.9-4.4v-2.7c0-0.6-0.5-1.1-1.1-1.1 c-0.6,0-1.1,0.5-1.1,1.1v2.7c0,1.1-0.4,2.1-1.2,2.8c-0.4,0.4-0.5,1.1,0,1.5C822.1,232.2,822.4,232.3,822.7,232.3z" fill="#000000"></path> <path class="st0" d="M833.2,267.5l-10-13.1l1.7-4.9c0.9-2.5,0.6-5.3-0.8-7.5l-2-3.4c-0.3-0.5-1-0.7-1.5-0.4 c-0.2,0.1-0.4,0.3-0.4,0.5l-0.8,1.9c-0.1-0.4-0.1-0.7-0.1-1.1l-0.3-4.9c0-0.2-0.1-0.4-0.2-0.6c-2.7-3.8-5.1-7.8-7.2-12 c-0.3-0.5-0.9-0.7-1.4-0.5l-1.1,0.5l1.1-2c0.2-0.3,0.2-0.7,0-1c-0.2-0.4-0.4-0.8-0.5-1.2l-3.9-8.9c-1.8-4.2-6.7-6.1-10.9-4.2 c-0.1,0-0.2,0.1-0.3,0.1c-3.9,1.9-5.6,6.5-4,10.5l2.8,7c0.1,0.3,0.4,0.5,0.6,0.6l1.9,0.7l-0.8,0.4c-0.5,0.3-0.7,0.9-0.5,1.4 c2.5,6.1,5.7,12,9.4,17.4c0.1,0.2,0.3,0.3,0.5,0.4l3.1,1.3l-0.6,0.3c-0.5,0.3-0.8,0.9-0.5,1.5c0,0.1,0.1,0.1,0.1,0.2 c0.1,0.2,0.3,0.3,0.4,0.5l3.5,4.6c1.6,2.1,4,3.3,6.5,3.5l4.4,0.3l10.2,13.4c0.4,0.5,1,0.6,1.5,0.2 C833.5,268.7,833.6,268,833.2,267.5L833.2,267.5z M817.1,239.7c0.1,1.6,0.5,3.1,1.2,4.5c0.3,0.5,0.9,0.8,1.5,0.5 c0.2-0.1,0.4-0.3,0.5-0.6l1.1-2.6l0.9,1.6c1,1.7,1.3,3.8,0.6,5.7l-1.2,3.6l-7.2-9.5c-0.2-0.3-0.5-0.6-0.7-1l2.2-8.2 c0.3,0.4,0.6,0.9,0.9,1.3L817.1,239.7z M807.6,218.9c0.1,0.2,0.2,0.5,0.3,0.7l-2.5,4.5c-0.3,0.5-0.1,1.2,0.4,1.5 c0.3,0.2,0.7,0.2,1,0l3.3-1.6c1.3,2.5,2.7,4.9,4.2,7.3l-2.2,8.3c-4-5.8-7.4-12-10-18.6l-1.2-3l3.2-7.4L807.6,218.9z M800.2,206.8 c1,0.3,1.8,0.9,2.5,1.7c-0.1,0.1-0.1,0.1-0.1,0.2l-2.9,6.6l-3.5-8.6C797.5,206.3,798.9,206.3,800.2,206.8L800.2,206.8z M798.9,222.6l-3.9-1.3l-2.6-6.5c-1-2.5-0.2-5.3,1.8-7l4.3,10.8c0,0,0,0,0,0l1.3,3.4c1.6,4,3.5,7.9,5.6,11.6l-5.3-0.7 c-1.2-2.3-2.4-4.7-3.4-7.1l2.2-1.1c0.5-0.3,0.8-0.9,0.5-1.5C799.4,222.9,799.2,222.7,798.9,222.6L798.9,222.6z M817,253 c-2-0.1-3.8-1.1-5-2.7l-3.1-4l1.5-0.8c0.5-0.3,0.8-0.9,0.5-1.5c-0.1-0.2-0.3-0.4-0.6-0.5l-5-2.1c-1.4-2.1-2.7-4.2-3.9-6.3l5.4,0.7 c1.8,2.9,3.7,5.7,5.7,8.4l6.8,8.9L817,253z" fill="#000000"></path> </g> </svg> 