<?xml version="1.0" encoding="UTF-8"?> <svg xmlns="http://www.w3.org/2000/svg" xmlns:xlink="http://www.w3.org/1999/xlink" version="1.1" id="Layer_1" x="0px" y="0px" viewBox="0 0 95 97.3" style="enable-background:new 0 0 95 97.3;" xml:space="preserve"> <style type="text/css"> .st0{fill:#ffffff;} </style> <g> <path class="st0" d="M17.5,42.2c0.3-1.9,1.3-3.7,1.1-5.7c-0.1-0.7-0.2-1.5-0.2-2.2c-0.2-2.4,1.6-4.1,4-3.7c4.2,0.8,8.5,1.5,12.8,2 c5.8,0.6,11.6,0.8,17.5,0.4c3.3-0.2,6.5-0.6,9.8-0.9c0.6-0.1,1,0.2,1.1,0.7c0.1,0.5-0.2,0.9-0.9,1c-6.1,0.8-12.2,1.3-18.3,1 c-4-0.2-8.1-0.4-12.1-0.9c-3.4-0.4-6.7-1.1-10-1.6c-0.5-0.1-1.1-0.2-1.6,0.2c-0.6,0.4-0.7,1-0.7,1.6c0.1,1.4,0.2,2.9,0.1,4.3 c0,0.8-0.3,1.5-0.6,2.3c-0.6,1.7-0.6,3.5,0,5.2c0.9,2.5,0.9,5,0,7.6c-0.6,1.7-0.6,3.4,0,5.2c0.1,0.3,0.2,0.6,0.3,0.9 c0.2,0.5,0,1-0.5,1.1c-0.5,0.2-0.9,0-1.1-0.6c-0.3-0.9-0.5-1.7-0.7-2.6c0-0.1-0.1-0.1-0.1-0.2c0-0.8,0-1.6,0-2.4 c0.2-0.8,0.5-1.7,0.7-2.6c0.2-0.9,0.4-1.7,0.4-2.6c0.2-1.9-0.8-3.5-1.1-5.3C17.5,43.8,17.5,43,17.5,42.2z" fill="#000000"></path> <path class="st0" d="M17.5,44.6c0.3,1.8,1.3,3.4,1.1,5.3c-0.1,0.9-0.2,1.7-0.4,2.6c-0.2,0.9-0.5,1.7-0.7,2.6 C17.5,51.5,17.5,48.1,17.5,44.6z" fill="#000000"></path> <path class="st0" d="M18.4,65.5c0.1-0.6,0.1-1.4,0.2-2.1c0.1-0.5,0.4-0.8,0.9-0.8c0.5,0,0.8,0.4,0.8,0.9c0,0.6-0.1,1.2-0.2,1.8 c-0.1,1.4,0.7,2.2,2.1,1.9c3.6-0.6,7.1-1.2,10.7-1.7c5.6-0.7,11.3-1,16.9-0.8c5.6,0.1,11.1,0.7,16.7,1.6c1.5,0.3,2.9,0.6,4.4,0.8 c1.3,0.3,2.1-0.5,2.1-1.8c-0.1-1.4-0.2-2.9-0.1-4.3c0-0.8,0.4-1.6,0.6-2.3c0.5-1.7,0.6-3.4,0-5.1c-0.9-2.6-0.9-5.1,0-7.7 c0.6-1.7,0.6-3.4,0-5.1c-0.8-2.1-0.9-4.2-0.5-6.4c0.1-0.5,0-1-0.2-1.5c-0.3-0.6-1-0.8-1.7-0.7c-1.4,0.3-2.8,0.5-4.2,0.8 c-0.1,0-0.2,0-0.3,0.1c-0.7,0.1-1.1-0.1-1.2-0.7c-0.1-0.5,0.3-0.9,0.9-1c0.8-0.2,1.7-0.3,2.5-0.5c0.6-0.1,1.3-0.3,1.9-0.4 c2.1-0.4,4,1.2,3.9,3.4c0,0.9-0.2,1.8-0.2,2.6c-0.1,1.1,0.1,2.1,0.5,3.2c0.9,2.3,0.9,4.7,0,7c-0.7,1.9-0.7,3.8,0,5.7 c0.9,2.4,0.9,4.7,0,7.1c-0.6,1.7-0.6,3.4-0.3,5.1c0.3,2.1-0.7,3.8-2.6,4.1c-0.7,0.1-1.5,0-2.2-0.2c-8.7-1.8-17.5-2.5-26.4-2.3 c-7,0.2-13.9,1.1-20.8,2.5C20.3,69.4,18.4,67.8,18.4,65.5z" fill="#000000"></path> <path class="st0" d="M63.6,50.7c-0.4,0-0.6,0-0.8,0c-3.2,0-6.5,0-9.7,0c-0.9,0-1.3-0.3-1.3-0.9c0-0.6,0.4-0.8,1.3-0.8 c3.2,0,6.5,0,9.7,0c0.2,0,0.4,0,0.7,0c-0.3-0.3-0.4-0.5-0.6-0.7c-0.3-0.4-0.3-0.9,0-1.2c0.3-0.3,0.9-0.3,1.2,0.1 c0.6,0.7,1.3,1.4,1.9,2.1c0.3,0.4,0.3,0.8,0,1.1c-0.6,0.7-1.2,1.4-1.8,2.1c-0.4,0.4-0.9,0.4-1.2,0.1c-0.4-0.3-0.4-0.8,0-1.3 C63.1,51.1,63.3,51,63.6,50.7z" fill="#000000"></path> <path class="st0" d="M29.5,49c0.4,0,0.6,0,0.8,0c3.2,0,6.5,0,9.7,0c0.2,0,0.4,0,0.6,0c0.4,0.1,0.7,0.4,0.7,0.8 c0,0.4-0.2,0.8-0.7,0.9c-0.2,0-0.4,0-0.7,0c-3.2,0-6.5,0-9.7,0c-0.2,0-0.4,0-0.7,0c0.3,0.3,0.5,0.5,0.6,0.7 c0.3,0.4,0.2,0.9-0.1,1.2c-0.4,0.3-0.8,0.3-1.1-0.1c-0.7-0.7-1.3-1.4-2-2.2c-0.3-0.3-0.3-0.7,0-1.1c0.6-0.7,1.2-1.4,1.9-2.1 c0.3-0.4,0.8-0.4,1.2-0.1c0.4,0.3,0.4,0.8,0.1,1.2C30,48.5,29.8,48.6,29.5,49z" fill="#000000"></path> </g> </svg> 