<?xml version="1.0" encoding="UTF-8"?> <svg xmlns="http://www.w3.org/2000/svg" xmlns:xlink="http://www.w3.org/1999/xlink" version="1.1" id="Layer_1" x="0px" y="0px" viewBox="0 0 95 97.3" style="enable-background:new 0 0 95 97.3;" xml:space="preserve"> <style type="text/css"> .st0{fill:#ffffff;} </style> <g> <g> <path class="st0" d="M31.7,63.7c-1.8-1.1-4.2-0.4-5.3,1.4c-1.1,1.8-0.4,4.2,1.4,5.3c0.6,0.4,1.3,0.5,1.9,0.5 c1.3,0,2.6-0.7,3.4-1.9C34.2,67.2,33.5,64.8,31.7,63.7z M31,67.8c-0.4,0.7-1.3,0.9-2,0.5c-0.7-0.4-0.9-1.3-0.5-2 c0.3-0.5,0.8-0.7,1.3-0.7c0.2,0,0.5,0.1,0.7,0.2C31.2,66.2,31.4,67.1,31,67.8z" fill="#000000"></path> </g> </g> <g> <g> <path class="st0" d="M69.3,53.8c0.9-0.8,1.6-1.9,1.9-3.1c0.4-1.6,0.2-3.3-0.6-4.7l-4.7-8.2c-0.8-1.4-2.2-2.5-3.8-2.9 c-1.2-0.3-2.4-0.3-3.6,0.1c0.9-2.8-0.2-5.9-2.8-7.4l-8.2-4.7c-1.4-0.8-3.1-1.1-4.7-0.6c-1.6,0.4-3,1.5-3.8,2.9L34.5,33 c-0.3,0.5-0.1,1.2,0.4,1.5c0.2,0.1,0.4,0.1,0.6,0.1c0.4,0,0.8-0.2,1-0.6l1.2-2l12.9,7.4L42,44.4l-9.6-5.6 c-0.5-0.3-1.2-0.1-1.5,0.4L18.3,61.1c-1.7,2.9-0.7,6.6,2.1,8.4c0.1,3.4,2.8,6.1,6.2,6.1H68c0,0,0,0,0,0c3.4,0,6.3-2.8,6.3-6.3 v-9.4C74.2,56.9,72.1,54.4,69.3,53.8z M20.3,66.4c-0.8-1.2-0.9-2.9-0.1-4.2l0.1-0.2V66.4z M38.7,30.1l2.2-3.8 c0.5-0.9,1.4-1.6,2.4-1.9c1-0.3,2.1-0.1,3.1,0.4l8.2,4.7c1.9,1.1,2.6,3.6,1.5,5.5L55,36.9l-2.3,1.3L38.7,30.1z M52.7,40.8 l7.4,12.9h-9.8c0,0,0,0,0,0l-5-8.7L52.7,40.8z M43.4,46.1l4.4,7.6H38l-1.9-3.3L43.4,46.1z M32.2,41.3l7.6,4.4l-8.5,4.9L28,48.6 L32.2,41.3z M35.4,53.7h-5.1l3.8-2.2L35.4,53.7z M26.9,50.5l2.2,1.3l-3.3,1.9c-0.3,0-0.6,0.1-0.8,0.2L26.9,50.5z M40,73.4H26.6 c-2.2,0-4-1.8-4-4v-9.4c0-2.2,1.8-4,4-4H40L40,73.4L40,73.4z M50.7,73.4h-8.5V55.9h8.5V73.4z M61.3,73.4h-8.5V55.9h8.5V73.4z M54.6,39.7C54.6,39.7,54.6,39.7,54.6,39.7l3.8-2.2c0.9-0.5,2-0.7,3.1-0.4c1,0.3,1.9,0.9,2.4,1.9l4.7,8.2c0.5,0.9,0.7,2,0.4,3.1 c-0.3,1-0.9,1.9-1.9,2.4l-1.9,1.1h-2.6L54.6,39.7z M72,69.4c0,2.2-1.8,4-4,4h-4.4V55.9H68c2.2,0,4,1.8,4,4V69.4z" fill="#000000"></path> </g> </g> <g> <g> <path class="st0" d="M35.8,35.4c-0.6-0.3-1.3-0.1-1.6,0.4l0,0c-0.3,0.6-0.1,1.3,0.4,1.6c0.2,0.1,0.4,0.2,0.6,0.2 c0.4,0,0.8-0.2,1-0.6l0,0C36.6,36.5,36.4,35.7,35.8,35.4z" fill="#000000"></path> </g> </g> <g> <g> <path class="st0" d="M39,65.1c-0.7,0-1.2,0.5-1.2,1.2v0c0,0.7,0.5,1.2,1.2,1.2s1.2-0.5,1.2-1.2v0C40.2,65.7,39.6,65.1,39,65.1z" fill="#000000"></path> </g> </g> <g> <g> <path class="st0" d="M39,68.6c-0.7,0-1.2,0.5-1.2,1.2v3.7c0,0.7,0.5,1.2,1.2,1.2s1.2-0.5,1.2-1.2v-3.7 C40.2,69.2,39.6,68.6,39,68.6z" fill="#000000"></path> </g> </g> </svg> 