<?xml version="1.0" encoding="UTF-8"?> <svg xmlns="http://www.w3.org/2000/svg" xmlns:xlink="http://www.w3.org/1999/xlink" version="1.1" id="Capa_1" x="0px" y="0px" viewBox="0 0 111 124" style="enable-background:new 0 0 111 124;" xml:space="preserve"> <style type="text/css"> .st0{fill:#FB877F;} </style> <g> <path class="st0" d="M78.9,94.1c-4.4,0-8-3.6-8-8s3.6-8,8-8s8,3.6,8,8S83.3,94.1,78.9,94.1z M78.9,81.4c-2.6,0-4.8,2.1-4.8,4.8 s2.1,4.8,4.8,4.8s4.8-2.1,4.8-4.8S81.5,81.4,78.9,81.4z"></path> <path class="st0" d="M81.3,106.9h-4.9c-1.6,0-3-1.2-3.1-2.9l-0.4-4.1c-0.9-0.4-1.8-1-2.6-1.6l-3.6,1.7c-1.5,0.7-3.2,0.1-4-1.3 l-2.5-4.4c-0.8-1.4-0.4-3.2,0.9-4.2l3.2-2.4c-0.1-0.5-0.1-1-0.1-1.6s0-1.1,0.1-1.6L61,82.2c-1.3-1-1.7-2.7-0.9-4.2l2.5-4.4 c0.8-1.4,2.5-2,4-1.3l3.6,1.7c0.8-0.6,1.7-1.2,2.6-1.6l0.4-4.1c0.2-1.6,1.5-2.9,3.1-2.9h4.9c1.6,0,3,1.2,3.1,2.9l0.4,4.1 c0.9,0.4,1.8,1,2.6,1.6l3.6-1.7c1.5-0.7,3.2-0.1,4,1.3l2.5,4.4c0.8,1.4,0.4,3.2-0.9,4.2l-3.2,2.4c0.1,0.5,0.1,1,0.1,1.6 c0,0.6,0,1.1-0.1,1.6l3.2,2.4c1.3,1,1.7,2.7,0.9,4.2l-2.5,4.4c-0.8,1.4-2.5,2-4,1.3l-3.6-1.7c-0.8,0.6-1.7,1.2-2.6,1.6l-0.4,4.1 C84.3,105.6,83,106.9,81.3,106.9z M70.5,94.9c0.4,0,0.7,0.1,1,0.4c1,0.9,2.2,1.6,3.4,2.1c0.6,0.2,1,0.7,1,1.3l0.5,5l4.9,0l0.4-5 c0.1-0.6,0.5-1.1,1-1.3c1.2-0.5,2.4-1.1,3.4-2.1c0.5-0.4,1.1-0.5,1.7-0.2l4.5,2.1l2.4-4.4l-3.9-3c-0.5-0.4-0.7-1-0.6-1.5 c0.1-0.7,0.2-1.4,0.2-2.1c0-0.7-0.1-1.4-0.2-2.1c-0.1-0.6,0.1-1.2,0.6-1.5l4-2.9l-2.5-4.4L88,77.3c-0.6,0.3-1.2,0.2-1.7-0.2 c-1-0.9-2.2-1.6-3.4-2.1c-0.6-0.2-1-0.7-1-1.3l-0.5-5l-4.9,0l-0.4,5c-0.1,0.6-0.5,1.1-1,1.3c-1.2,0.5-2.4,1.1-3.4,2.1 c-0.5,0.4-1.1,0.5-1.7,0.2l-4.5-2.1L63,79.6l3.9,3c0.5,0.4,0.7,1,0.6,1.5c-0.1,0.7-0.2,1.4-0.2,2.1c0,0.7,0.1,1.4,0.2,2.1 c0.1,0.6-0.1,1.2-0.6,1.5l-4,2.9l2.5,4.4l4.4-2.1C70,95,70.2,94.9,70.5,94.9L70.5,94.9z"></path> <path class="st0" d="M51.8,97.3H29.5c-4.4,0-8-3.6-8-8V44.7c0-4.4,3.6-8,8-8h1.6v-1.6c0-2.6,2.1-4.8,4.8-4.8h15.9 c2.6,0,4.8,2.1,4.8,4.8v1.6h1.6c4.4,0,8,3.6,8,8v15.9c0,0.9-0.7,1.6-1.6,1.6c-0.9,0-1.6-0.7-1.6-1.6V44.7c0-2.6-2.1-4.8-4.8-4.8H55 c-0.9,0-1.6-0.7-1.6-1.6v-3.2c0-0.9-0.7-1.6-1.6-1.6H35.8c-0.9,0-1.6,0.7-1.6,1.6v3.2c0,0.9-0.7,1.6-1.6,1.6h-3.2 c-2.6,0-4.8,2.1-4.8,4.8v44.6c0,2.6,2.1,4.8,4.8,4.8h22.3c0.9,0,1.6,0.7,1.6,1.6C53.4,96.6,52.7,97.3,51.8,97.3z"></path> <path class="st0" d="M42.2,78.2c-0.3,0-0.6-0.1-0.9-0.3c-0.7-0.5-0.9-1.5-0.4-2.2l4.7-7.1H39c-0.6,0-1.1-0.3-1.4-0.8 c-0.3-0.5-0.2-1.1,0.1-1.6l6.4-9.6c0.5-0.7,1.5-0.9,2.2-0.4c0.7,0.5,0.9,1.5,0.4,2.2L42,65.4h6.6c0.6,0,1.1,0.3,1.4,0.8 c0.3,0.5,0.2,1.1-0.1,1.6l-6.4,9.6C43.2,77.9,42.7,78.2,42.2,78.2L42.2,78.2z"></path> </g> </svg> 