<?xml version="1.0" encoding="UTF-8"?> <svg xmlns="http://www.w3.org/2000/svg" xmlns:xlink="http://www.w3.org/1999/xlink" version="1.1" id="Capa_1" x="0px" y="0px" viewBox="0 0 79 81" style="enable-background:new 0 0 79 81;" xml:space="preserve"> <style type="text/css"> .st0{fill:#FFFFFF;} </style> <g> <g> <g> <path class="st0" d="M20.9,17.8L20.9,17.8c-2.2,0-3.9,1.8-3.9,4v5.7h-5.8c-0.5,0-0.9,0.4-0.9,0.9c0,0.5,0.4,0.9,0.9,0.9h5.8v4.6 h-5.8c-0.5,0-0.9,0.4-0.9,0.9c0,0.5,0.4,0.9,0.9,0.9h5.8v4.6h-5.8c-0.5,0-0.9,0.4-0.9,0.9c0,0.5,0.4,0.9,0.9,0.9h5.8v4.6h-5.8 c-0.5,0-0.9,0.4-0.9,0.9s0.4,0.9,0.9,0.9h5.8v4.6h-5.8c-0.5,0-0.9,0.4-0.9,0.9s0.4,0.9,0.9,0.9h5.8v3c0,0.5,0.4,0.9,0.9,0.9 c0.5,0,0.9-0.4,0.9-0.9V21.7c0-1.2,1-2.2,2.2-2.2c0.5,0,0.9-0.4,0.9-0.9C21.7,18.2,21.3,17.8,20.9,17.8z"></path> </g> </g> <g> <g> <path class="st0" d="M57.9,62h-37c-0.9,0-1.7-0.5-2-1.4c-0.2-0.4-0.7-0.7-1.1-0.5c-0.4,0.2-0.7,0.7-0.5,1.1 c0.6,1.5,2,2.5,3.7,2.5h5.5v6c0,0.5,0.4,0.9,0.9,0.9s0.9-0.4,0.9-0.9v-6h4.6v6c0,0.5,0.4,0.9,0.9,0.9c0.5,0,0.9-0.4,0.9-0.9v-6 h4.6v6c0,0.5,0.4,0.9,0.9,0.9c0.5,0,0.9-0.4,0.9-0.9v-6h4.6v6c0,0.5,0.4,0.9,0.9,0.9c0.5,0,0.9-0.4,0.9-0.9v-6h4.6v6 c0,0.5,0.4,0.9,0.9,0.9s0.9-0.4,0.9-0.9v-6h4.3c0.5,0,0.9-0.4,0.9-0.9C58.7,62.4,58.3,62,57.9,62z"></path> </g> </g> <g> <g> <path class="st0" d="M51.8,26.1H28.1c-1.5,0-2.8,1.3-2.8,2.8v23.7c0,1.5,1.3,2.8,2.8,2.8h23.7c1.5,0,2.8-1.3,2.8-2.8V28.9 C54.6,27.4,53.4,26.1,51.8,26.1z M27,28.9c0-0.6,0.5-1,1-1h18.1V37c-1.6,0.3-2.8,1.6-3.2,3.2h-6.4v-4.5c1.7-0.3,2.9-1.8,2.9-3.5 c0-2-1.6-3.6-3.6-3.6c-1.7,0-3.2,1.3-3.5,2.9H27L27,28.9L27,28.9z M47.1,38.7c1.3,0,2.4,1.1,2.4,2.4c0,1.3-1.1,2.4-2.4,2.4 c-1.3,0-2.4-1.1-2.4-2.4C44.7,39.7,45.7,38.7,47.1,38.7z M35.9,34c-1,0-1.8-0.8-1.8-1.8c0-1,0.8-1.8,1.8-1.8c1,0,1.8,0.8,1.8,1.8 C37.7,33.2,36.9,34,35.9,34z M32.1,48.3c-0.5-0.3-0.9-0.8-0.9-1.5c0-0.9,0.7-1.7,1.7-1.7s1.7,0.7,1.7,1.7 C34.6,48.1,33.2,48.9,32.1,48.3z M39.2,53.7h-5.9v-3.4c1.7-0.2,3-1.6,3-3.4c0-1.9-1.5-3.4-3.4-3.4c-1.9,0-3.4,1.5-3.4,3.4 c0,1.4,0.8,2.6,2.1,3.1v3.7h-3.5c-0.6,0-1-0.5-1-1V33.2h5.4c0,0,0.5,1.8,2.4,2.4v5.5c0,0.5,0.4,0.9,0.9,0.9h3.5L39.2,53.7 L39.2,53.7z M52.9,52.7c0,0.6-0.5,1-1,1H40.9v-3.8h11.9V52.7z M52.9,48.2H40.9v-6.2H43c0.4,1.9,2.1,3.3,4,3.3 c2.3,0,4.1-1.9,4.1-4.1c0-2-1.4-3.6-3.3-4c0,0,0,0,0,0v-9.1h3.9c0.6,0,1,0.5,1,1L52.9,48.2L52.9,48.2z"></path> </g> </g> <g> <g> <path class="st0" d="M68.8,35.5c0.5,0,0.9-0.4,0.9-0.9c0-0.5-0.4-0.9-0.9-0.9H63v-4.6h5.8c0.5,0,0.9-0.4,0.9-0.9 c0-0.5-0.4-0.9-0.9-0.9H63v-5.7c0-2.2-1.8-4-4-4h-5.5v-5.7c0-0.5-0.4-0.9-0.9-0.9s-0.9,0.4-0.9,0.9v5.7h-4.6v-5.7 c0-0.5-0.4-0.9-0.9-0.9s-0.9,0.4-0.9,0.9v5.7h-4.6v-5.7c0-0.5-0.4-0.9-0.9-0.9s-0.9,0.4-0.9,0.9v5.7h-4.6v-5.7 c0-0.5-0.4-0.9-0.9-0.9c-0.5,0-0.9,0.4-0.9,0.9v5.7h-4.6v-5.7c0-0.5-0.4-0.9-0.9-0.9s-0.9,0.4-0.9,0.9v5.7h-2 c-0.5,0-0.9,0.4-0.9,0.9c0,0.5,0.4,0.9,0.9,0.9c4.6,0,31,0,34.6,0c1.2,0,2.2,1,2.2,2.2v38.1c0,0.6-0.2,1.2-0.7,1.6 c-0.3,0.3-0.4,0.9,0,1.2c0.2,0.2,0.4,0.3,0.6,0.3c0.2,0,0.4-0.1,0.6-0.2c0.8-0.8,1.2-1.8,1.2-2.9v-5.3h5.8c0.5,0,0.9-0.4,0.9-0.9 s-0.4-0.9-0.9-0.9H63v-4.6h5.8c0.5,0,0.9-0.4,0.9-0.9s-0.4-0.9-0.9-0.9H63v-4.6h5.8c0.5,0,0.9-0.4,0.9-0.9s-0.4-0.9-0.9-0.9H63 v-4.6L68.8,35.5L68.8,35.5z"></path> </g> </g> </g> </svg> 