<?xml version="1.0" encoding="UTF-8"?> <svg xmlns="http://www.w3.org/2000/svg" xmlns:xlink="http://www.w3.org/1999/xlink" version="1.1" id="Layer_1" x="0px" y="0px" viewBox="0 0 45 45" style="enable-background:new 0 0 45 45;" xml:space="preserve"> <style type="text/css"> .st0{fill:#41C59D;} .st1{fill:none;} </style> <rect x="0.1" y="-0.1" class="st0" width="45" height="45.1"></rect> <rect x="0.3" y="0.2" class="st1" width="44.8" height="44.8"></rect> <g> <path d="M14.3,36.3l7-7c0.4-0.4,0.8-0.6,1.3-0.6c0.6,0,0.9,0.2,1.3,0.6l7,7c0.4,0.4,0.8,0.6,1.3,0.6c0.6,0,0.9-0.2,1.3-0.6l2.3-2.3 c0.4-0.4,0.6-0.8,0.6-1.3c0-0.6-0.2-0.9-0.6-1.3l-7-7c-0.4-0.4-0.6-0.8-0.6-1.3c0-0.6,0.2-0.9,0.6-1.3l7.3-7.3 c0.4-0.4,0.6-0.8,0.6-1.3c0-0.6-0.2-0.9-0.6-1.3l-2.3-2.3c-0.4-0.4-0.8-0.6-1.3-0.6c-0.6,0-0.9,0.2-1.3,0.6l-7,7 c-0.4,0.4-0.8,0.6-1.3,0.6c-0.6,0-0.9-0.2-1.3-0.6l-7.1-7.1C14.1,9.2,13.6,9,13.1,9c-0.6,0-0.9,0.2-1.3,0.6l-2.3,2.3 C9.2,12.2,9,12.7,9,13.1c0,0.6,0.2,0.9,0.6,1.3l7,7c0.4,0.4,0.6,0.8,0.6,1.3c0,0.6-0.2,0.9-0.6,1.3l-7,7C9.2,31.3,9,31.8,9,32.2 c0,0.6,0.2,0.9,0.6,1.3l2.3,2.3c0.4,0.4,0.8,0.6,1.3,0.6C13.5,36.8,14,36.5,14.3,36.3z M21.3,26.2l-2-2c-0.4-0.4-0.6-0.8-0.6-1.3 c0-0.6,0.2-0.9,0.6-1.3l2-2c0.4-0.4,0.8-0.6,1.3-0.6c0.6,0,0.9,0.2,1.3,0.6l2,2c0.4,0.4,0.6,0.8,0.6,1.3c-0.1,0.5-0.2,0.9-0.6,1.3 l-2,2c-0.4,0.4-0.8,0.6-1.3,0.6S21.7,26.6,21.3,26.2z"></path> </g> </svg> 