<?xml version="1.0" encoding="UTF-8"?> <svg xmlns="http://www.w3.org/2000/svg" xmlns:xlink="http://www.w3.org/1999/xlink" version="1.1" id="Layer_1" x="0px" y="0px" viewBox="0 0 54.1 55.3" style="enable-background:new 0 0 54.1 55.3;" xml:space="preserve"> <style type="text/css"> .st0{fill-rule:evenodd;clip-rule:evenodd;fill:#4FBE9B;} </style> <g transform="translate(-500 -890)"> <path class="st0" d="M530.1,940.6c-0.3,0-0.6-0.3-0.6-0.7v-1.7c0-0.2-0.2-0.4-0.4-0.4h-1.7c-0.2,0-0.4,0.2-0.4,0.4v1.7 c0,0.3-0.3,0.7-0.6,0.7s-0.6-0.3-0.6-0.7v-1.7c0-0.9,0.8-1.7,1.7-1.7h1.6c0.9,0,1.7,0.8,1.7,1.7v1.7 C530.7,940.3,530.4,940.6,530.1,940.6L530.1,940.6z"></path> <path class="st0" d="M534.3,917c-0.2-0.3-0.7-0.3-0.9-0.1c-0.3,0.2-0.3,0.7-0.1,0.9l3.3,4.4c0.3,0.5,0.3,1.2-0.1,1.7l-3.4,3.9h-9.9 l-3.4-3.9c-0.4-0.4-0.4-1.2-0.1-1.7l6.5-8.6v4.9c-0.9,0.7-1.2,1.6-1.2,2.6c0,1.9,1.5,3.3,3.3,3.3s3.3-1.5,3.3-3.3 c0-1-0.4-2-1.2-2.6v-4.9l1.5,2c0.2,0.3,0.7,0.3,0.9,0.1s0.3-0.7,0.1-0.9l-2.8-3.7c-0.4-0.7-1.2-0.9-1.7-0.9c-0.7,0-1.4,0.3-1.7,0.9 l-7.7,10.4c-0.7,0.9-0.7,2.4,0.1,3.3l2.9,3.3c-0.7,0.3-1.2,1-1.2,1.9v3.1c0,0.9,0.7,1.7,1.5,2l0.2,5.1c0,0.3,0.3,0.7,0.7,0.7l0,0 c0.3,0,0.7-0.3,0.7-0.7l-0.2-5h9.9l-0.2,5c0,0.3,0.3,0.7,0.7,0.7l0,0c0.3,0,0.7-0.3,0.7-0.7l0.2-5.2c0.9-0.3,1.4-1,1.4-2v-3.1 c0-0.9-0.5-1.6-1.2-1.9l2.9-3.3c0.9-0.9,0.9-2.3,0.1-3.3L534.3,917z M528,911.4c0.3,0,0.5,0.1,0.7,0.4l0.1,0.1v7 c0,0.2,0.1,0.4,0.3,0.5c0.5,0.4,0.9,1,0.9,1.7c0,1.2-0.9,2-2,2c-1,0-2.1-0.9-2.1-2c0-0.7,0.3-1.4,0.9-1.7c0.2-0.1,0.3-0.3,0.3-0.5 v-7C527.5,911.4,527.8,911.4,528,911.4L528,911.4z M534.4,932.9c0,0.4-0.4,0.9-0.9,0.9h-11c-0.4,0-0.9-0.4-0.9-0.9v-3.1 c0-0.4,0.4-0.8,0.9-0.8h11.1c0.4,0,0.9,0.4,0.9,0.8L534.4,932.9L534.4,932.9z"></path> <path class="st0" d="M515.2,917.1c0.1-2.1,0.6-4.1,1.6-5.8c0.2-0.3,0.1-0.7-0.2-0.9c-0.3-0.2-0.7-0.1-0.9,0.2 c-1.1,2-1.7,4.2-1.8,6.4c-1.1,0.3-2,1.4-2,2.5c0,1.5,1.1,2.6,2.5,2.6c1.5,0,2.5-1.2,2.5-2.6C517,918.5,516.2,917.4,515.2,917.1 L515.2,917.1z M514.5,920.9c-0.7,0-1.2-0.7-1.2-1.2c0-0.7,0.6-1.2,1.2-1.2c0.7,0,1.2,0.7,1.2,1.2 C515.8,920.3,515.2,920.9,514.5,920.9z"></path> <path class="st0" d="M548.8,901.8h-2.1c-0.7,0-1.4,0.7-1.4,1.4v0.4h-14.9v-0.4c0-0.7-0.7-1.4-1.4-1.4H527c-0.7,0-1.4,0.7-1.4,1.4 v0.4h-14.9v-0.4c0-0.7-0.7-1.4-1.4-1.4h-2.1c-0.7,0-1.4,0.7-1.4,1.4v2c0,0.7,0.7,1.4,1.4,1.4h2.1c0.7,0,1.4-0.7,1.4-1.4v-0.4H522 c-1.7,0.8-3.4,2-4.8,3.5c-0.2,0.3-0.2,0.7,0.1,0.9c0.1,0.1,0.3,0.2,0.4,0.2c0.2,0,0.3-0.1,0.5-0.2c1.9-2.2,4.4-3.6,7.4-4.1v0.2 c0,0.7,0.7,1.4,1.4,1.4h2.1c0.7,0,1.4-0.7,1.4-1.4v-0.2c5.9,1.2,10.2,6.2,10.6,12.1c-1.2,0.3-2,1.4-2,2.5c0,1.5,1.2,2.6,2.6,2.6 s2.6-1.2,2.6-2.6c0-1.2-0.8-2.2-2-2.5c-0.2-5.4-3.5-10.1-8.3-12.3h11.3v0.4c0,0.7,0.7,1.4,1.4,1.4h2.1c0.7,0,1.4-0.7,1.4-1.4v-2 C550.2,902.4,549.5,901.8,548.8,901.8L548.8,901.8z M509.6,905.2C509.6,905.2,509.6,905.3,509.6,905.2l-2.2,0.1c0,0-0.1,0-0.1-0.1 v-2c0,0,0-0.1,0.1-0.1h2.1c0,0,0.1,0,0.1,0.1V905.2z M543,919.6c0,0.7-0.7,1.2-1.2,1.2c-0.7,0-1.4-0.5-1.4-1.2 c0-0.7,0.7-1.2,1.2-1.2C542.3,918.4,543,918.9,543,919.6z M529.2,905.2C529.2,905.2,529.2,905.3,529.2,905.2l-2.2,0.1 c0,0-0.1,0-0.1-0.1v-2c0,0,0-0.1,0.1-0.1h2.1c0,0,0.1,0,0.1,0.1V905.2z M548.8,905.2C548.8,905.2,548.8,905.3,548.8,905.2l-2.2,0.1 c0,0-0.1,0-0.1-0.1v-2c0,0,0-0.1,0.1-0.1h2.1c0,0,0.1,0,0.1,0.1V905.2z"></path> </g> </svg> 