<?xml version="1.0" encoding="UTF-8"?> <svg xmlns="http://www.w3.org/2000/svg" xmlns:xlink="http://www.w3.org/1999/xlink" version="1.1" id="Layer_1" x="0px" y="0px" viewBox="0 0 73.9 78.3" style="enable-background:new 0 0 73.9 78.3;" xml:space="preserve"> <style type="text/css"> .st0{fill:#FFFFFF;} </style> <g id="Page-1"> <g id="_x30_48---Money" transform="translate(-1)"> <path id="Shape" class="st0" d="M49.7,36.7c-0.3,0.7-0.2,1.6,0.4,2.1l8.3,8.8c0.4,0.4,0.9,0.6,1.4,0.6c0.5,0,1.1-0.2,1.4-0.6 l8.3-8.8c0.5-0.6,0.7-1.4,0.3-2.1c-0.3-0.7-1-1.2-1.8-1.2h-5.3c-1.4-8.2-6.7-15.3-14.2-18.9s-16.3-3.5-23.6,0.4 c-0.5,0.3-0.6,0.8-0.4,1.3c0.3,0.5,0.8,0.7,1.3,0.4c3.5-1.9,7.4-2.8,11.3-2.8c12,0,22.1,8.9,23.8,20.7c0.1,0.5,0.5,0.8,1,0.8 l6.1,0l-8.4,8.8l-8.3-8.8h5.6c0.3,0,0.6-0.1,0.7-0.3c0.2-0.2,0.3-0.5,0.2-0.8c-1.7-9.9-10.2-17.2-20.2-17.5 C27.8,18.6,19,25.5,16.7,35.3s2.8,19.8,12,23.9s20,1.2,25.8-7c0.3-0.4,0.7-0.6,1.1-0.6c0.4,0,0.9,0.1,1.2,0.4 c0.3,0.3,0.4,0.7,0.4,1.1c0,0.3-0.1,0.6-0.3,0.8c-5.4,7.6-14.6,11.4-23.8,9.8s-16.6-8.4-19-17.4s0.6-18.6,7.7-24.6 c0.4-0.3,0.5-1,0.1-1.4c-0.3-0.4-1-0.5-1.4-0.1c-8,6.7-11.1,17.5-8,27.5s11.8,17.1,22.1,18.2c0.9,0.1,1.7,0.1,2.6,0.1 c8.4,0,16.4-4.1,21.3-11c0.4-0.6,0.6-1.2,0.6-1.9c0-0.9-0.4-1.8-1-2.4c-0.7-0.7-1.7-1.1-2.7-1c-1,0.1-1.9,0.6-2.5,1.4 c-3.6,5-9.4,8-15.6,8.1c-5.3,0-10.3-2.2-13.9-6c-3.6-3.8-5.5-8.9-5.2-14.2c0.5-9.5,7.9-17.1,17.4-18s18.1,5.4,20.3,14.6h-4.4 C50.7,35.5,50,36,49.7,36.7L49.7,36.7z"></path> <path id="Shape_00000057838259616312805260000011650839759044769711_" class="st0" d="M43.7,34.1c0,0.5,0.4,1,1,1c0.5,0,1-0.4,1-1 c0-3.2-3-5.9-6.9-6.3v-1c0-0.5-0.4-1-1-1c-0.5,0-1,0.4-1,1v1C33,28.2,30,30.8,30,34.1s3,5.9,6.9,6.3v8.8c-2.8-0.4-4.9-2.2-4.9-4.3 c0-0.5-0.4-1-1-1s-1,0.4-1,1c0,3.2,3,5.9,6.9,6.3v1c0,0.5,0.4,1,1,1c0.5,0,1-0.4,1-1v-1c3.9-0.4,6.9-3.1,6.9-6.3 c0-3.2-3-5.9-6.9-6.3v-8.8C41.6,30.1,43.7,31.9,43.7,34.1z M31.9,34.1c0-2.2,2.1-4,4.9-4.3v8.7C34,38.1,31.9,36.3,31.9,34.1z M43.7,44.9c0,2.2-2.1,4-4.9,4.3v-8.7C41.6,40.9,43.7,42.7,43.7,44.9z"></path> </g> </g> </svg> 