<?xml version="1.0" encoding="UTF-8"?> <svg xmlns="http://www.w3.org/2000/svg" xmlns:xlink="http://www.w3.org/1999/xlink" version="1.1" id="Layer_1" x="0px" y="0px" viewBox="0 0 45 45" style="enable-background:new 0 0 45 45;" xml:space="preserve"> <style type="text/css"> .st0{fill:#08293B;} .st1{fill:none;} .st2{fill:#FBF7EB;} </style> <rect x="-0.1" y="0" class="st0" width="45.1" height="45.3"></rect> <rect x="0.2" y="0.1" class="st1" width="44.8" height="44.8"></rect> <g> <path class="st2" d="M22.5,39.4c-2.4-0.1-4.3-1.2-5.4-3.5s-0.8-4.6,0.9-6.6c4.3-5.3,4.3-8.3,0-13.4c-2.1-2.5-1.9-6.2,0.4-8.4 s6.2-2.2,8.5,0s2.5,6,0.4,8.5c-4.3,5-4.3,8.4,0,13.4c1.7,2,2,4.3,0.9,6.6C27.1,38.2,25.2,39.3,22.5,39.4z"></path> <path class="st2" d="M18.1,22.6c0,3.5-2.9,6.2-6.3,6.1c-3.3-0.1-6-2.9-6-6.2c0-3.4,2.9-6.1,6.3-6.1C15.6,16.5,18.1,19.2,18.1,22.6z "></path> <path class="st2" d="M33.4,16.4c3.4,0,6,2.7,6,6.1s-2.8,6.3-6.2,6.2c-3.3-0.1-6.1-2.8-6.1-6.1C27.1,19.2,30,16.4,33.4,16.4z"></path> </g> </svg> 