<?xml version="1.0" encoding="UTF-8"?> <svg xmlns="http://www.w3.org/2000/svg" xmlns:xlink="http://www.w3.org/1999/xlink" version="1.1" id="Layer_1" x="0px" y="0px" viewBox="0 0 45 45" style="enable-background:new 0 0 45 45;" xml:space="preserve"> <style type="text/css"> .st0{fill:#08293B;} .st1{fill:none;} .st2{fill:#FBF7EB;} </style> <rect x="-0.1" y="0" class="st0" width="45.1" height="45.3"></rect> <rect x="0.2" y="0.1" class="st1" width="44.8" height="44.8"></rect> <g> <path class="st2" d="M39.4,22.7c-0.1,2.4-1.2,4.3-3.5,5.4s-4.6,0.8-6.6-0.9c-5.3-4.3-8.3-4.3-13.4,0c-2.5,2.1-6.2,1.9-8.4-0.4 s-2.2-6.2,0-8.5s6-2.5,8.5-0.4c5,4.3,8.4,4.3,13.4,0c2-1.7,4.3-2,6.6-0.9C38.2,18.1,39.3,20,39.4,22.7z"></path> <path class="st2" d="M22.6,27.1c3.5,0,6.2,2.9,6.1,6.3c-0.1,3.3-2.9,6-6.2,6c-3.4,0-6.1-2.9-6.1-6.3C16.5,29.6,19.2,27.1,22.6,27.1 z"></path> <path class="st2" d="M16.4,11.8c0-3.4,2.7-6,6.1-6s6.3,2.8,6.2,6.2c-0.1,3.3-2.8,6.1-6.1,6.1C19.2,18.1,16.4,15.2,16.4,11.8z"></path> </g> </svg> 