<?xml version="1.0" encoding="UTF-8"?> <svg xmlns="http://www.w3.org/2000/svg" xmlns:xlink="http://www.w3.org/1999/xlink" version="1.1" id="Layer_1" x="0px" y="0px" viewBox="0 0 58.4 64.9" style="enable-background:new 0 0 58.4 64.9;" xml:space="preserve"> <style type="text/css"> .st0{fill:#FFFFFF;} </style> <g transform="translate(-777 -198)"> <g> <g> <path class="st0" d="M807.8,216.2c0.5,0,1-0.4,1-1c0-0.1,0-0.3-0.1-0.4c-0.7-1.6-0.7-3.5,0-5.1l0,0c0.2-0.5,0-1-0.5-1.3 c-0.5-0.2-1,0-1.3,0.5c0,0,0,0,0,0l0,0c-0.9,2.1-0.9,4.5,0,6.7C807.1,216,807.5,216.2,807.8,216.2z"></path> </g> <g> <path class="st0" d="M794.2,241l-1.8-0.8c-0.5-0.2-1,0-1.3,0.5c-0.2,0.5,0,1,0.5,1.3l1.8,0.8c1,0.4,1.7,1.3,2,2.3 c0.2,0.5,0.7,0.8,1.2,0.6c0.5-0.2,0.8-0.7,0.6-1.2C796.8,242.9,795.7,241.6,794.2,241z"></path> </g> <g> <path class="st0" d="M814.3,228.4c0.2,0,0.5-0.1,0.7-0.3c1.1-1,1.6-2.4,1.7-3.8v-2.4c0-0.5-0.4-1-1-1c-0.5,0-1,0.4-1,1v2.4 c0,0.9-0.4,1.8-1.1,2.4c-0.4,0.4-0.4,1,0,1.3C813.8,228.3,814,228.4,814.3,228.4z"></path> </g> <g> <path class="st0" d="M823.6,259.4l-8.8-11.5l1.5-4.3c0.8-2.2,0.5-4.6-0.7-6.6l-1.8-3c-0.3-0.5-0.9-0.6-1.3-0.3 c-0.2,0.1-0.3,0.3-0.4,0.5l-0.7,1.6c-0.1-0.3-0.1-0.6-0.1-0.9l-0.3-4.3c0-0.2-0.1-0.3-0.2-0.5c-2.4-3.3-4.5-6.9-6.3-10.5 c-0.2-0.5-0.8-0.7-1.3-0.4l-1,0.5l1-1.7c0.1-0.3,0.2-0.6,0-0.9c-0.2-0.3-0.3-0.7-0.5-1.1l-3.4-7.8c-1.6-3.7-5.9-5.3-9.6-3.7 c-0.1,0-0.2,0.1-0.3,0.1c-3.4,1.7-4.9,5.7-3.5,9.2l2.4,6.1c0.1,0.3,0.3,0.5,0.6,0.5l1.6,0.6l-0.7,0.3c-0.5,0.2-0.7,0.8-0.5,1.2 c2.2,5.4,5,10.5,8.2,15.3c0.1,0.2,0.2,0.3,0.4,0.3l2.7,1.2l-0.5,0.3c-0.5,0.2-0.7,0.8-0.4,1.3c0,0.1,0.1,0.1,0.1,0.2 c0.1,0.1,0.2,0.3,0.3,0.4l3.1,4c1.4,1.8,3.5,2.9,5.7,3.1l3.8,0.2l9,11.8c0.3,0.4,0.9,0.5,1.3,0.2 C823.8,260.4,823.9,259.8,823.6,259.4L823.6,259.4z M809.4,234.9c0.1,1.4,0.5,2.7,1.1,4c0.2,0.5,0.8,0.7,1.3,0.4 c0.2-0.1,0.4-0.3,0.5-0.5l0.9-2.2l0.8,1.4c0.9,1.5,1.1,3.3,0.5,5l-1.1,3.1l-6.4-8.3c-0.2-0.3-0.4-0.6-0.6-0.8l1.9-7.2 c0.3,0.4,0.5,0.8,0.8,1.2L809.4,234.9z M801.1,216.7c0.1,0.2,0.2,0.4,0.3,0.6l-2.2,4c-0.3,0.5-0.1,1,0.4,1.3 c0.3,0.2,0.6,0.2,0.9,0l2.9-1.4c1.1,2.2,2.4,4.3,3.7,6.4l-2,7.3c-3.6-5.1-6.5-10.6-8.8-16.3l-1-2.6l2.8-6.5L801.1,216.7z M794.6,206c0.8,0.3,1.6,0.8,2.2,1.5c0,0.1-0.1,0.1-0.1,0.2l-2.5,5.8l-3-7.6C792.2,205.6,793.4,205.6,794.6,206L794.6,206z M793.5,219.9l-3.4-1.2l-2.3-5.7c-0.9-2.2-0.2-4.7,1.6-6.2l3.8,9.5c0,0,0,0,0,0l1.2,2.9c1.4,3.5,3,6.9,4.9,10.2l-4.7-0.6 c-1.1-2-2.1-4.1-3-6.2l1.9-0.9c0.5-0.2,0.7-0.8,0.4-1.3C793.9,220.2,793.7,220,793.5,219.9L793.5,219.9z M809.3,246.6 c-1.7-0.1-3.3-1-4.4-2.3l-2.7-3.5l1.4-0.7c0.5-0.2,0.7-0.8,0.4-1.3c-0.1-0.2-0.3-0.4-0.5-0.5l-4.4-1.9c-1.2-1.8-2.4-3.7-3.5-5.6 l4.8,0.6c1.5,2.5,3.2,5,5,7.3l6,7.8L809.3,246.6z"></path> </g> </g> </g> </svg> 