<?xml version="1.0" encoding="UTF-8"?> <svg xmlns="http://www.w3.org/2000/svg" xmlns:xlink="http://www.w3.org/1999/xlink" version="1.1" id="Capa_1" x="0px" y="0px" viewBox="0 0 57.8 65.4" style="enable-background:new 0 0 57.8 65.4;" xml:space="preserve"> <style type="text/css"> .st0{fill:#FFFFFF;} </style> <g transform="translate(-189 -571)"> <path class="st0" d="M235.4,585.5l-14.3-4.4c-1.1-0.3-2.3-0.3-3.4,0l-14.3,4.4c-1.1,0.3-1.8,1.3-1.8,2.5v12.2 c0,5.7,1.6,11.1,4.7,15.7c3,4.5,7.2,8,12.2,10.1c0.3,0.1,0.6,0.2,0.9,0.2c0.3,0,0.6-0.1,0.9-0.2c4.9-2.1,9.1-5.6,12.2-10.1 c3.1-4.6,4.7-10.1,4.7-15.7V588C237.2,586.9,236.5,585.8,235.4,585.5z M235.2,600.2c0,5.2-1.5,10.3-4.4,14.6 c-2.8,4.2-6.7,7.4-11.3,9.3c-0.1,0.1-0.3,0.1-0.4,0c-4.6-1.9-8.5-5.1-11.3-9.3c-2.9-4.3-4.4-9.3-4.4-14.6V588 c0-0.2,0.1-0.4,0.4-0.5l14.3-4.4c0.4-0.1,0.8-0.2,1.1-0.2c0.4,0,0.8,0.1,1.1,0.2l14.3,4.4c0.2,0.1,0.4,0.3,0.4,0.5V600.2z"></path> <path class="st0" d="M230.5,590.1l-10.7-3.2c-0.3-0.1-0.6-0.1-0.9,0l-10.7,3.2c-0.6,0.2-1.1,0.8-1.1,1.5v8.6 c0,4.6,1.3,8.9,3.9,12.7c2,2.9,4.6,5.3,7.6,6.9c0.2,0.1,0.5,0.2,0.7,0.2c0.2,0,0.5-0.1,0.7-0.2c3-1.6,5.6-4,7.6-6.9 c2.5-3.7,3.9-8.1,3.9-12.7v-8.6C231.6,590.9,231.1,590.3,230.5,590.1z M229.6,600.2c0,4.1-1.2,8.1-3.5,11.5c-1.7,2.5-4,4.7-6.7,6.1 c-2.6-1.5-4.9-3.6-6.7-6.1c-2.3-3.4-3.5-7.3-3.5-11.5V592l10.2-3.1l10.2,3.1V600.2z"></path> </g> </svg> 