<?xml version="1.0" encoding="UTF-8"?> <svg xmlns="http://www.w3.org/2000/svg" xmlns:xlink="http://www.w3.org/1999/xlink" version="1.1" id="Capa_1" x="0px" y="0px" viewBox="0 0 106 101" style="enable-background:new 0 0 106 101;" xml:space="preserve"> <style type="text/css"> .st0{fill:none;} .st1{fill:#5BC89E;} </style> <rect x="22.3" y="16.3" class="st0" width="71.6" height="71.6"></rect> <g transform="translate(-577 -143)"> <path class="st1" d="M657.5,230.9h-44.8c-0.8,0-1.5-0.7-1.5-1.5c0-0.8,0.7-1.5,1.5-1.5h44.8c5.8,0,10.4-4.7,10.4-10.4v-14.9 c0-2.5-2-4.5-4.5-4.5h-32.8c-2.5,0-4.5,2-4.5,4.5c0,0.8-0.7,1.5-1.5,1.5c-0.8,0-1.5-0.7-1.5-1.5c0-4.1,3.3-7.5,7.5-7.5h32.8 c4.1,0,7.5,3.3,7.5,7.5v14.9C670.9,224.9,664.9,230.9,657.5,230.9z"></path> <path class="st1" d="M612.7,230.9c-7.4,0-13.4-6-13.4-13.4v-50.7c0-4.1,3.3-7.5,7.5-7.5h32.8c4.1,0,7.5,3.3,7.5,7.5v29.8 c0,0.8-0.7,1.5-1.5,1.5c-0.8,0-1.5-0.7-1.5-1.5v-29.8c0-2.5-2-4.5-4.5-4.5h-32.8c-2.5,0-4.5,2-4.5,4.5v50.7 c0,5.8,4.7,10.4,10.4,10.4c5.8,0,10.4-4.7,10.4-10.4v-14.9c0-0.8,0.7-1.5,1.5-1.5c0.8,0,1.5,0.7,1.5,1.5v14.9 C626.1,224.9,620.1,230.9,612.7,230.9z"></path> <path class="st1" d="M623.2,180.2c-3.3,0-6-2.7-6-6c0-3.3,2.7-6,6-6c3.3,0,6,2.7,6,6C629.1,177.5,626.5,180.2,623.2,180.2z M623.2,171.3c-1.6,0-3,1.3-3,3c0,1.6,1.3,3,3,3s3-1.3,3-3C626.1,172.6,624.8,171.3,623.2,171.3z"></path> <path class="st1" d="M653,204.1h-11.9c-2.5,0-4.5-2-4.5-4.5c0-0.8-0.7-1.5-1.5-1.5h-3c-0.8,0-1.5-0.7-1.5-1.5 c0-0.8,0.7-1.5,1.5-1.5h3c2.5,0,4.5,2,4.5,4.5c0,0.8,0.7,1.5,1.5,1.5H653c0.8,0,1.5-0.7,1.5-1.5c0-2.5,2-4.5,4.5-4.5h3 c0.8,0,1.5,0.7,1.5,1.5c0,0.8-0.7,1.5-1.5,1.5h-3c-0.8,0-1.5,0.7-1.5,1.5C657.5,202.1,655.5,204.1,653,204.1z"></path> </g> </svg> 