<?xml version="1.0" encoding="UTF-8"?> <svg xmlns="http://www.w3.org/2000/svg" xmlns:xlink="http://www.w3.org/1999/xlink" version="1.1" id="Capa_1" x="0px" y="0px" viewBox="0 0 57.8 65.4" style="enable-background:new 0 0 57.8 65.4;" xml:space="preserve"> <style type="text/css"> .st0{fill:#40C29A;} </style> <g> <g> <path class="st0" d="M10.4,26.2c0-0.3,0-0.6,0-0.9c0.2-0.7,0.5-1.3,1-1.8c0.3-0.3,0.3-0.9,0-1.2c-0.5-0.5-0.8-1.1-1-1.8 c0-0.3,0-0.6,0-0.9c0-0.1,0.1-0.2,0.1-0.3c0.6-2.3,3.3-3.2,5-1.7c0.7,0.6,1.1,0.6,1.7,0c1.2-1,2.9-1,4,0c0.7,0.6,1.1,0.6,1.8,0 c1.2-1,2.9-1,4,0c0.7,0.6,1.1,0.6,1.7,0c1.2-1,2.9-1,4,0c0.7,0.6,1.1,0.6,1.8,0c1-0.8,2.1-1,3.2-0.5c1.2,0.5,1.8,1.5,1.9,2.7 c0.1,0.9-0.3,1.6-0.8,2.2c-0.4,0.5-0.5,1,0,1.5c0.5,0.5,1,0.5,1.6,0c0.8-0.7,1.6-1,2.6-0.8c1.2,0.2,2,0.9,2.4,2.1 c0.4,1.1,0.1,2.2-0.6,3.1c-0.5,0.6-0.5,1,0,1.6c1.1,1.2,1.1,2.9,0,4.2c-0.5,0.6-0.5,1,0,1.6c1.1,1.2,1.1,2.9,0,4.2 c-0.5,0.6-0.5,1.1,0,1.7c1.1,1.2,1.1,2.9,0,4.1c-0.6,0.6-0.6,1.1,0,1.7c1.5,1.7,0.8,4.3-1.4,5c-0.2,0.1-0.3,0.1-0.5,0.2 c-0.3,0-0.5,0-0.8,0c-0.7-0.2-1.3-0.5-1.9-1c-0.3-0.3-0.9-0.3-1.2,0c-0.5,0.5-1.1,0.8-1.8,1c-0.3,0-0.5,0-0.8,0 c-0.7-0.2-1.3-0.5-1.9-1c-0.3-0.3-0.9-0.3-1.2,0c-0.5,0.5-1.2,0.8-1.9,1c-0.3,0-0.5,0-0.8,0c-0.7-0.2-1.3-0.5-1.9-1 c-0.3-0.3-0.9-0.3-1.2,0c-0.5,0.5-1.2,0.8-1.9,1c-0.3,0-0.5,0-0.8,0c-0.7-0.2-1.3-0.5-1.9-1c-0.3-0.3-0.9-0.3-1.2,0 c-0.5,0.5-1.2,0.8-1.9,1c-0.3,0-0.5,0-0.8,0c-0.3-0.1-0.6-0.1-0.8-0.3c-2-0.8-2.5-3.3-1.1-4.9c0.2-0.2,0.3-0.5,0.4-0.7 c0.1-0.4-0.2-0.9-0.6-1.1c-0.5-0.2-0.9-0.1-1.2,0.3c-1.8,1.6-4.5,0.7-5.1-1.6c0-0.1-0.1-0.2-0.1-0.3c0-0.3,0-0.6,0-0.9 c0.2-0.7,0.5-1.3,1-1.8c0.3-0.3,0.3-0.9,0-1.2c-0.5-0.5-0.8-1.2-1-1.9c0-0.3,0-0.5,0-0.8c0.2-0.7,0.5-1.3,1-1.8 c0.3-0.3,0.3-0.9,0-1.2c-0.5-0.5-0.8-1.2-1-1.9c0-0.3,0-0.5,0-0.8c0.2-0.7,0.5-1.3,1-1.8c0.3-0.3,0.3-0.9,0-1.2 C10.9,27.5,10.6,26.9,10.4,26.2z M36.6,44.1c0.3-0.1,0.5-0.2,0.7-0.3c0.5-0.4,0.6-1.1,0-1.6c-1.1-1.2-1.1-2.9,0-4.1 c0.5-0.6,0.5-1,0-1.7c-1.1-1.2-1.1-2.9,0-4.1c0.6-0.6,0.6-1.1,0-1.7c-1-1.2-1-2.9,0-4.1c0.6-0.7,0.6-1.1,0-1.7 c-0.5-0.6-0.8-1.3-0.8-2.1c0-0.8,0.3-1.5,0.9-2.1c0.6-0.6,0.3-1.5-0.5-1.7c-0.4-0.1-0.7,0.1-1.1,0.4c-1.2,1.1-2.9,1.1-4.2,0 c-0.6-0.5-1-0.5-1.6,0c-1.3,1.1-2.9,1.1-4.2,0c-0.5-0.5-1-0.5-1.5,0c-1.3,1.1-2.9,1.1-4.3,0c-0.5-0.4-1-0.4-1.5,0 c-1.3,1.2-2.9,1.2-4.3,0c-0.5-0.4-1.1-0.4-1.5,0c-0.4,0.4-0.4,1,0,1.4c1.2,1.4,1.2,2.9,0,4.3c-0.4,0.5-0.4,1,0,1.5 c1.2,1.3,1.2,2.9,0,4.3c-0.4,0.5-0.4,1,0,1.5c1.2,1.3,1.2,2.9,0,4.3c-0.5,0.5-0.5,1,0,1.5c1.1,1.3,1.1,2.9,0,4.2 c-0.5,0.5-0.5,1.1,0,1.5c0.4,0.4,1,0.4,1.5-0.1c0.3-0.2,0.6-0.5,1-0.6c1.2-0.4,2.2-0.2,3.2,0.6c0.6,0.5,1.1,0.5,1.5,0.1 c1.2-1.2,3.1-1.2,4.3,0c0.5,0.5,1,0.4,1.5,0c0.3-0.2,0.5-0.4,0.8-0.6c1.1-0.6,2.4-0.4,3.4,0.5c0.5,0.5,1,0.5,1.5,0.1 c1.4-1.2,2.9-1.2,4.3,0C36.1,43.9,36.3,44,36.6,44.1z M39.7,26c-0.1,0.8-0.4,1.4-0.9,1.9c-0.4,0.4-0.4,1,0,1.4 c1.2,1.3,1.2,3,0,4.3c-0.5,0.5-0.4,1,0,1.5c1.1,1.3,1.1,2.9,0,4.2c-0.5,0.5-0.5,1,0,1.6c1.1,1.3,1.1,3.1-0.1,4.3 c-1.2,1.2-3,1.2-4.3,0.1c-0.5-0.5-1-0.5-1.6,0c-1.3,1.1-3,1.1-4.2,0c-0.5-0.5-1-0.4-1.5,0c-0.3,0.2-0.6,0.5-1,0.6 c-1.2,0.5-2.3,0.3-3.3-0.6c-0.5-0.4-1-0.5-1.4-0.1c-0.6,0.5-1.2,0.9-2,1c0,0.8-0.4,1.5-0.9,2.1c-0.3,0.3-0.4,0.8-0.2,1.1 c0.2,0.4,0.6,0.6,1,0.6c0.3-0.1,0.5-0.2,0.8-0.4c1.2-1,2.9-1,4.1,0c0.6,0.5,1,0.5,1.7,0c1.2-1,2.9-1,4.1,0c0.6,0.6,1.1,0.6,1.7,0 c1.2-1.1,2.9-1.1,4.1,0c0.6,0.5,1,0.5,1.6,0c0.3-0.3,0.7-0.5,1-0.6c1.1-0.4,2.2-0.2,3.1,0.6c0.3,0.3,0.6,0.5,1,0.4 c0.8-0.2,1.1-1.1,0.5-1.8c-1.1-1.3-1.1-2.9,0-4.2c0.5-0.5,0.5-1,0-1.6c-1.1-1.2-1.1-2.9,0-4.2c0.5-0.6,0.5-1,0-1.6 c-1.1-1.2-1.1-2.9,0-4.1c0.5-0.6,0.5-1.1,0-1.7c-0.5-0.6-0.8-1.3-0.8-2.1c0-0.8,0.4-1.5,0.9-2.1c0.4-0.5,0.4-1-0.1-1.4 c-0.4-0.4-1-0.4-1.4,0C41.2,25.6,40.5,26,39.7,26z"></path> </g> </g> </svg> 