<?xml version="1.0" encoding="UTF-8"?> <svg xmlns="http://www.w3.org/2000/svg" xmlns:xlink="http://www.w3.org/1999/xlink" version="1.1" id="Capa_1" x="0px" y="0px" viewBox="0 0 76 80" style="enable-background:new 0 0 76 80;" xml:space="preserve"> <style type="text/css"> .st0{fill:#40C29A;} </style> <g> <path class="st0" d="M48.7,45.9c-0.7,0-1.2-0.5-1.2-1.2v-3.6c0-0.7,0.5-1.2,1.2-1.2s1.2,0.5,1.2,1.2v3.6 C49.9,45.4,49.4,45.9,48.7,45.9z"></path> <path class="st0" d="M42.8,44.7c-0.7,0-1.2-0.5-1.2-1.2v-4.8c0-0.7,0.5-1.2,1.2-1.2S44,38,44,38.7v4.8 C43.9,44.2,43.4,44.7,42.8,44.7z"></path> <path class="st0" d="M36.8,44.7L36.8,44.7c-0.7,0-1.2-0.5-1.2-1.2v-8.4c0-0.7,0.5-1.2,1.2-1.2l0,0c0.7,0,1.2,0.5,1.2,1.2v8.4 C38,44.2,37.4,44.7,36.8,44.7z"></path> <path class="st0" d="M49.3,67.4H34.5c-1.6,0-2.7-0.7-3.2-2c-0.4-0.9-0.4-2-0.4-2.8v-0.5c-1.8-0.9-5.9-3.8-5.9-10.3 c0-3-0.8-8.3-2.6-10.7c-2.1-2.9-0.5-4.6,0-5.1c1.6-1.3,4.5-1.2,5.9,0.2c0.5,0.5,0.9,1.1,1.3,2V24.4c0-1.3,0.5-2.7,1.5-3.6 c0.7-0.7,1.7-1.1,2.7-1.1c2.5,0,4.2,2.5,4.2,4.8v7.6c0.5-0.3,1.1-0.5,1.8-0.5c1.9,0,3.3,1.4,3.9,3c0.6-0.4,1.3-0.7,2-0.7 c2.3,0,3.9,2,4.2,4.1c0.5-0.3,1.1-0.5,1.8-0.5c2.5,0,4.2,2.5,4.2,4.8v10.5c0,5.5,0,5.9-2.1,8.6l-0.4,0.3v0.8 C53.5,64,53.4,67.4,49.3,67.4L49.3,67.4z M25.1,37.6c-0.5,0-0.9,0.1-1.3,0.4c-0.5,0.4-0.1,1.2,0.4,1.8c2.2,3,3,9,3,12.1 c0,6.4,5,8.4,5.2,8.4c0.5,0.2,0.8,0.6,0.8,1.1v1.2c0,0.6,0,1.3,0.2,1.8c0.1,0.3,0.3,0.5,1.1,0.5h14.8c1.6,0,1.8-0.6,1.8-2.3v-1.3 c0-0.3,0.1-0.5,0.3-0.7l0.5-0.7c1.6-2.2,1.6-2.2,1.6-7.1V42.4c0-0.9-0.7-2.4-1.8-2.4c-1,0-1.8,1.4-1.8,2.4c0,0.7-0.5,1.2-1.2,1.2 s-1.2-0.5-1.2-1.2v-3.6c0-0.9-0.7-2.4-1.9-2.4c-0.9,0-1.7,1.3-1.7,2.4c0,0.7-0.5,1.2-1.2,1.2l0,0c-0.7,0-1.2-0.5-1.2-1.2v-2.4l0,0 c0-0.9-0.7-2.4-1.8-2.4c-0.9,0-1.8,1.3-1.8,2.4c0,0.7-0.5,1.2-1.2,1.2s-1.2-0.5-1.2-1.2V24.5c0-1.1-0.7-2.4-1.8-2.4 c-0.3,0-0.7,0.1-1,0.5c-0.5,0.5-0.7,1.2-0.7,1.9V46c0,0.6-0.5,1.1-1.1,1.2c-0.5,0-1.1-0.1-1.3-1.1c-1.2-5.7-2.6-7.4-3-7.9 C26.2,37.7,25.6,37.6,25.1,37.6L25.1,37.6z"></path> <path class="st0" d="M41.5,29.2c-0.7,0-1.2-0.5-1.2-1.2v-4.2c0-3.6-3-6.5-6.5-6.5s-6.6,3-6.6,6.5V28c0,0.7-0.5,1.2-1.2,1.2 s-1.2-0.5-1.2-1.2v-4.2c0-4.9,4-9,9-9s9,4,9,9V28C42.8,28.7,42.2,29.2,41.5,29.2z"></path> <path class="st0" d="M46.3,24.4c-0.7,0-1.2-0.5-1.2-1.2c0-6.1-4.9-10.7-11.3-10.7s-11.3,4.7-11.3,10.8c0,0.7-0.5,1.2-1.2,1.2 S20,23.9,20,23.3c0-7.4,6-13.2,13.8-13.2c7.7,0,13.8,5.8,13.8,13.2C47.5,23.9,47,24.4,46.3,24.4z"></path> </g> </svg> 