<?xml version="1.0" encoding="UTF-8"?> <svg xmlns="http://www.w3.org/2000/svg" xmlns:xlink="http://www.w3.org/1999/xlink" version="1.1" id="Capa_1" x="0px" y="0px" viewBox="0 0 76 80" style="enable-background:new 0 0 76 80;" xml:space="preserve"> <style type="text/css"> .st0{fill:#FFFFFF;} </style> <g> <g> <g> <path class="st0" d="M21.3,18.7L21.3,18.7c-1.9,0-3.4,1.6-3.4,3.5v5h-5.1c-0.4,0-0.8,0.3-0.8,0.8s0.3,0.8,0.8,0.8h5.1v4h-5.1 c-0.4,0-0.8,0.3-0.8,0.8s0.3,0.8,0.8,0.8h5.1v4h-5.1c-0.4,0-0.8,0.3-0.8,0.8s0.3,0.8,0.8,0.8h5.1v4h-5.1c-0.4,0-0.8,0.3-0.8,0.8 s0.3,0.8,0.8,0.8h5.1v4h-5.1c-0.4,0-0.8,0.3-0.8,0.8s0.3,0.8,0.8,0.8h5.1v2.6c0,0.4,0.3,0.8,0.8,0.8s0.8-0.3,0.8-0.8V22.1 c0-1,0.9-1.9,1.9-1.9c0.4,0,0.8-0.3,0.8-0.8C22,19.1,21.7,18.7,21.3,18.7z"></path> </g> </g> <g> <g> <path class="st0" d="M53.6,57.3H21.3c-0.8,0-1.5-0.4-1.7-1.2c-0.2-0.3-0.6-0.6-1-0.4c-0.3,0.2-0.6,0.6-0.4,1 c0.5,1.3,1.7,2.2,3.2,2.2h4.8V64c0,0.4,0.3,0.8,0.8,0.8s0.8-0.3,0.8-0.8v-5.2h4V64c0,0.4,0.3,0.8,0.8,0.8s0.8-0.3,0.8-0.8v-5.2h4 V64c0,0.4,0.3,0.8,0.8,0.8S39,64.4,39,64v-5.2h4V64c0,0.4,0.3,0.8,0.8,0.8s0.8-0.3,0.8-0.8v-5.2h4V64c0,0.4,0.3,0.8,0.8,0.8 s0.8-0.3,0.8-0.8v-5.2h3.8c0.4,0,0.8-0.3,0.8-0.8C54.3,57.6,54,57.3,53.6,57.3z"></path> </g> </g> <g> <g> <path class="st0" d="M48.3,26H27.6c-1.3,0-2.4,1.1-2.4,2.4v20.7c0,1.3,1.1,2.4,2.4,2.4h20.7c1.3,0,2.4-1.1,2.4-2.4V28.4 C50.7,27.1,49.7,26,48.3,26z M26.7,28.4c0-0.5,0.4-0.9,0.9-0.9h15.8v7.9c-1.4,0.3-2.4,1.4-2.8,2.8h-5.6v-3.9 c1.5-0.3,2.5-1.6,2.5-3.1c0-1.7-1.4-3.1-3.1-3.1c-1.5,0-2.8,1.1-3.1,2.5h-4.6V28.4L26.7,28.4z M44.2,36.9c1.1,0,2.1,1,2.1,2.1 c0,1.1-1,2.1-2.1,2.1s-2.1-1-2.1-2.1C42.1,37.8,43,36.9,44.2,36.9z M34.4,32.8c-0.9,0-1.6-0.7-1.6-1.6s0.7-1.6,1.6-1.6 s1.6,0.7,1.6,1.6S35.3,32.8,34.4,32.8z M31.1,45.3c-0.4-0.3-0.8-0.7-0.8-1.3c0-0.8,0.6-1.5,1.5-1.5s1.5,0.6,1.5,1.5 C33.3,45.1,32.1,45.8,31.1,45.3z M37.3,50h-5.1v-3c1.5-0.2,2.6-1.4,2.6-3c0-1.7-1.3-3-3-3c-1.7,0-3,1.3-3,3 c0,1.2,0.7,2.3,1.8,2.7V50h-3.1c-0.5,0-0.9-0.4-0.9-0.9v-17h4.7c0,0,0.4,1.6,2.1,2.1V39c0,0.4,0.3,0.8,0.8,0.8h3.1L37.3,50 L37.3,50z M49.3,49.2c0,0.5-0.4,0.9-0.9,0.9h-9.6v-3.3h10.4L49.3,49.2L49.3,49.2z M49.3,45.2H38.8v-5.4h1.8 c0.3,1.7,1.8,2.9,3.5,2.9c2,0,3.6-1.7,3.6-3.6c0-1.7-1.2-3.1-2.9-3.5l0,0v-7.9h3.4c0.5,0,0.9,0.4,0.9,0.9L49.3,45.2L49.3,45.2z"></path> </g> </g> <g> <g> <path class="st0" d="M63.1,34.2c0.4,0,0.8-0.3,0.8-0.8s-0.3-0.8-0.8-0.8h-5.1v-4h5.1c0.4,0,0.8-0.3,0.8-0.8S63.6,27,63.1,27h-5.1 v-5c0-1.9-1.6-3.5-3.5-3.5h-4.8v-5c0-0.4-0.3-0.8-0.8-0.8s-0.8,0.3-0.8,0.8v5h-4v-5c0-0.4-0.3-0.8-0.8-0.8s-0.8,0.3-0.8,0.8v5h-4 v-5c0-0.4-0.3-0.8-0.8-0.8S37,13.1,37,13.6v5h-4v-5c0-0.4-0.3-0.8-0.8-0.8c-0.4,0-0.8,0.3-0.8,0.8v5h-4v-5c0-0.4-0.3-0.8-0.8-0.8 s-0.8,0.3-0.8,0.8v5h-1.7c-0.4,0-0.8,0.3-0.8,0.8s0.3,0.8,0.8,0.8c4,0,27,0,30.2,0c1,0,1.9,0.9,1.9,1.9v33.2c0,0.5-0.2,1-0.6,1.4 c-0.3,0.3-0.3,0.8,0,1c0.2,0.2,0.3,0.3,0.5,0.3c0.2,0,0.3-0.1,0.5-0.2c0.7-0.7,1-1.6,1-2.5v-4.6h5.1c0.4,0,0.8-0.3,0.8-0.8 c0-0.4-0.3-0.8-0.8-0.8h-4.7v-4h5.1c0.4,0,0.8-0.3,0.8-0.8s-0.3-0.8-0.8-0.8h-5.1v-4h5.1c0.4,0,0.8-0.3,0.8-0.8s-0.3-0.8-0.8-0.8 h-5.1v-4L63.1,34.2L63.1,34.2z"></path> </g> </g> </g> </svg> 