<?xml version="1.0" encoding="UTF-8"?> <svg xmlns="http://www.w3.org/2000/svg" xmlns:xlink="http://www.w3.org/1999/xlink" version="1.1" id="Capa_1" x="0px" y="0px" viewBox="0 0 111 124" style="enable-background:new 0 0 111 124;" xml:space="preserve"> <style type="text/css"> .st0{fill:#FB877F;} </style> <g> <path class="st0" d="M68.9,73.4c-1,0-1.8-0.8-1.8-1.8v-5.3c0-1,0.8-1.8,1.8-1.8c1,0,1.8,0.8,1.8,1.8v5.3 C70.7,72.6,69.9,73.4,68.9,73.4z"></path> <path class="st0" d="M60.1,71.6c-1,0-1.8-0.8-1.8-1.8v-7.1c0-1,0.8-1.8,1.8-1.8c1,0,1.8,0.8,1.8,1.8v7.1 C61.8,70.8,61,71.6,60.1,71.6z"></path> <path class="st0" d="M51.2,71.6L51.2,71.6c-1,0-1.8-0.8-1.8-1.8l0-12.4c0-1,0.8-1.8,1.8-1.8h0c1,0,1.8,0.8,1.8,1.8l0,12.4 C53,70.8,52.2,71.6,51.2,71.6z"></path> <path class="st0" d="M69.8,105.3h-22c-2.3,0-4-1.1-4.8-3c-0.6-1.4-0.6-3-0.6-4.1v-0.7c-2.6-1.4-8.8-5.6-8.8-15.3 c0-4.4-1.2-12.3-3.8-15.9c-3.1-4.3-0.8-6.8,0-7.5c2.3-2,6.6-1.8,8.8,0.3c0.7,0.7,1.4,1.7,2,3V41.5c0-2,0.8-4,2.2-5.3 c1.1-1.1,2.5-1.7,4-1.7c3.7,0,6.2,3.7,6.2,7.1l0,11.3c0.8-0.4,1.6-0.7,2.6-0.7c2.8,0,4.9,2.1,5.8,4.5c0.9-0.6,1.9-1,3-1 c3.4,0,5.8,3,6.3,6.1c0.8-0.5,1.7-0.7,2.7-0.7c3.7,0,6.3,3.7,6.3,7.1l0,15.6c0,8.2,0,8.7-3.1,12.8L76,97v1.2 C76,100.2,75.9,105.3,69.8,105.3L69.8,105.3z M33.9,61c-0.7,0-1.4,0.2-1.9,0.6c-0.7,0.6-0.1,1.8,0.6,2.7c3.2,4.5,4.4,13.4,4.4,18 c0,9.5,7.4,12.4,7.7,12.5c0.7,0.3,1.2,0.9,1.2,1.7v1.8c0,0.9,0,2,0.3,2.7c0.2,0.4,0.4,0.8,1.6,0.8h22c2.4,0,2.6-0.9,2.6-3.4v-1.9 c0-0.4,0.1-0.8,0.4-1.1l0.8-1.1C76,91.1,76,91.1,76,83.7l0-15.6c0-1.4-1.1-3.5-2.7-3.5c-1.5,0-2.6,2.1-2.6,3.5c0,1-0.8,1.8-1.8,1.8 c-1,0-1.8-0.8-1.8-1.8v-5.3c0-1.4-1.1-3.5-2.8-3.5c-1.3,0-2.5,2-2.5,3.5c0,1-0.8,1.8-1.8,1.8c0,0,0,0,0,0c-1,0-1.8-0.8-1.8-1.8 l0-3.5c0,0,0,0,0,0c0-1.4-1.1-3.5-2.7-3.5c-1.4,0-2.6,1.9-2.6,3.5c0,1-0.8,1.8-1.8,1.8c-1,0-1.8-0.8-1.8-1.8l0-17.7 c0-1.7-1.1-3.5-2.7-3.5c-0.5,0-1,0.2-1.5,0.7c-0.7,0.7-1.1,1.8-1.1,2.8v31.9c0,0.9-0.7,1.7-1.7,1.8c-0.7,0-1.6-0.2-1.9-1.7 c-1.8-8.4-3.8-11-4.5-11.7C35.6,61.2,34.7,61,33.9,61L33.9,61z"></path> <path class="st0" d="M58.3,48.6c-1,0-1.8-0.8-1.8-1.8v-6.2c0-5.4-4.4-9.7-9.7-9.7S37,35.3,37,40.6v6.2c0,1-0.8,1.8-1.8,1.8 c-1,0-1.8-0.8-1.8-1.8v-6.2c0-7.3,6-13.3,13.3-13.3c7.3,0,13.3,6,13.3,13.3v6.2C60.1,47.8,59.3,48.6,58.3,48.6z"></path> <path class="st0" d="M65.4,41.5c-1,0-1.8-0.8-1.8-1.8c0-9.1-7.2-15.9-16.8-15.9S30,30.7,30,39.8c0,1-0.8,1.8-1.8,1.8 c-1,0-1.8-0.8-1.8-1.8c0-10.9,8.9-19.5,20.4-19.5c11.4,0,20.4,8.6,20.4,19.5C67.2,40.7,66.4,41.5,65.4,41.5z"></path> </g> </svg> 