<?xml version="1.0" encoding="UTF-8"?> <svg xmlns="http://www.w3.org/2000/svg" xmlns:xlink="http://www.w3.org/1999/xlink" version="1.1" id="Layer_1" x="0px" y="0px" viewBox="0 0 115.4 102.1" style="enable-background:new 0 0 115.4 102.1;" xml:space="preserve"> <style type="text/css"> .st0{fill:#F48780;} </style> <g> <path class="st0" d="M67.8,44L67.8,44c-2.3-2.3-5.9-2.3-8.2-0.1C58.6,45,58,46.4,58,48c0,1.5,0.6,3,1.7,4l0.1,0.1c2,2,3,4.6,3,7.3 s-1.1,5.4-3,7.3L50,76.5c-0.5,0.5-0.5,1.3,0,1.8c0.5,0.5,1.3,0.5,1.8,0l9.8-9.8c2.4-2.4,3.8-5.7,3.8-9.1c0-3.4-1.3-6.7-3.8-9.1 l-0.1-0.1c-0.6-0.6-0.9-1.4-0.9-2.2c0-0.9,0.3-1.6,0.9-2.3c1.2-1.2,3.3-1.2,4.5,0l0.1,0.1c7.5,7.5,7.5,19.7,0,27.2L50.5,88.5 c-7.5,7.5-19.7,7.5-27.2,0c-3.6-3.6-5.6-8.5-5.6-13.6c0-5.1,2-10,5.6-13.6l15.6-15.6c0.5-0.5,0.5-1.3,0-1.8c-0.5-0.5-1.3-0.5-1.8,0 L21.5,59.5c-4.1,4.1-6.4,9.6-6.4,15.4c0,5.8,2.3,11.3,6.4,15.4c4.2,4.2,9.8,6.4,15.4,6.4c5.6,0,11.2-2.1,15.4-6.4l15.5-15.5 C76.3,66.3,76.3,52.5,67.8,44L67.8,44z"></path> <path class="st0" d="M37.8,55.8L27.8,65.8C25.3,68.3,24,71.5,24,75c0,3.5,1.4,6.7,3.9,9.2c2.5,2.4,5.7,3.6,8.9,3.6 c3.4,0,6.7-1.3,9.3-3.8l1.8-1.8c0.5-0.5,0.5-1.3,0-1.8c-0.5-0.5-1.3-0.5-1.8,0l-1.8,1.8c-4.1,4-10.6,4.2-14.7,0.2 c-2-1.9-3.1-4.6-3.1-7.4c0-2.8,1.1-5.4,3-7.4l10.1-10.1c0.5-0.5,0.5-1.3,0-1.8C39.1,55.3,38.3,55.3,37.8,55.8L37.8,55.8z"></path> <path class="st0" d="M94,17.4c-4.1-4.1-9.6-6.4-15.4-6.4c-5.8,0-11.3,2.3-15.4,6.4l-0.9,0.9c-0.5,0.5-0.5,1.3,0,1.8 c0.5,0.5,1.3,0.5,1.8,0l0.9-0.9c3.6-3.6,8.5-5.6,13.6-5.6s10,2,13.6,5.6c7.5,7.5,7.5,19.7,0,27.2L76.6,62c-0.5,0.5-0.5,1.3,0,1.8 c0.2,0.2,0.6,0.4,0.9,0.4s0.6-0.1,0.9-0.4L94,48.2C102.5,39.7,102.5,25.9,94,17.4L94,17.4z"></path> <path class="st0" d="M77.7,52l10.1-10.1c2.5-2.5,3.8-5.7,3.8-9.2c0-3.5-1.4-6.7-3.9-9.2c-5-4.9-13.2-4.8-18.2,0.3L54,39.2 c-5,5-5,13.2,0,18.2l0.1,0.1c1.2,1.2,1.2,3.3,0,4.5c-0.6,0.6-1.4,0.9-2.3,0.9c-0.8,0-1.6-0.3-2.3-0.9l-0.1-0.1 c-7.5-7.5-7.5-19.7,0-27.2l10.8-10.8c0.5-0.5,0.5-1.3,0-1.8c-0.5-0.5-1.3-0.5-1.8,0L47.7,32.9c-8.5,8.5-8.5,22.3,0,30.8l0.1,0.1 c1.1,1.1,2.6,1.7,4,1.7c1.5,0,2.9-0.6,4-1.7c2.2-2.2,2.2-5.8,0-8.1l-0.1-0.1c-4-4-4-10.6,0-14.7l15.4-15.4c4.1-4,10.6-4.2,14.7-0.2 c2,1.9,3.1,4.6,3.1,7.4c0,2.8-1.1,5.4-3,7.4L75.9,50.2c-0.5,0.5-0.5,1.3,0,1.8C76.4,52.5,77.2,52.5,77.7,52L77.7,52z"></path> <path class="st0" d="M80.3,74.8c-0.5-0.5-1.3-0.5-1.8,0c-0.5,0.5-0.5,1.3,0,1.8l4.2,4.2c0.2,0.2,0.6,0.4,0.9,0.4 c0.3,0,0.6-0.1,0.9-0.4c0.5-0.5,0.5-1.3,0-1.8L80.3,74.8z"></path> <path class="st0" d="M89.7,68.7L84,67.2c-0.7-0.2-1.4,0.2-1.5,0.9c-0.2,0.7,0.2,1.4,0.9,1.5l5.7,1.5c0.1,0,0.2,0,0.3,0 c0.6,0,1.1-0.4,1.2-0.9C90.7,69.6,90.3,68.9,89.7,68.7L89.7,68.7z"></path> <path class="st0" d="M73.3,79.6c-0.2-0.7-0.9-1.1-1.5-0.9c-0.7,0.2-1.1,0.9-0.9,1.5l1.5,5.7c0.1,0.6,0.7,0.9,1.2,0.9 c0.1,0,0.2,0,0.3,0c0.7-0.2,1.1-0.9,0.9-1.5L73.3,79.6z"></path> <path class="st0" d="M34.8,32.9c0.2,0.2,0.6,0.4,0.9,0.4c0.3,0,0.6-0.1,0.9-0.4c0.5-0.5,0.5-1.3,0-1.8L32.4,27 c-0.5-0.5-1.3-0.5-1.8,0c-0.5,0.5-0.5,1.3,0,1.8L34.8,32.9z"></path> <path class="st0" d="M41.8,28.1c0.1,0.6,0.7,0.9,1.2,0.9c0.1,0,0.2,0,0.3,0c0.7-0.2,1.1-0.9,0.9-1.5l-1.5-5.7 c-0.2-0.7-0.9-1.1-1.5-0.9c-0.7,0.2-1.1,0.9-0.9,1.5L41.8,28.1z"></path> <path class="st0" d="M25.5,39.1l5.7,1.5c0.1,0,0.2,0,0.3,0c0.6,0,1.1-0.4,1.2-0.9c0.2-0.7-0.2-1.4-0.9-1.5l-5.7-1.5 c-0.7-0.2-1.4,0.2-1.5,0.9C24.4,38.2,24.8,38.9,25.5,39.1z"></path> </g> </svg> 