<?xml version="1.0" encoding="UTF-8"?> <svg xmlns="http://www.w3.org/2000/svg" xmlns:xlink="http://www.w3.org/1999/xlink" version="1.1" id="Layer_1" x="0px" y="0px" viewBox="0 0 115.4 102.1" style="enable-background:new 0 0 115.4 102.1;" xml:space="preserve"> <style type="text/css"> .st0{fill:#F48780;} </style> <g> <path class="st0" d="M61.5,66.2c1.5,0.2,2.8-0.8,3-2.3s-0.8-2.8-2.3-3c-5.5-0.8-11,0.7-15.3,4l-4-4c3.3-4.3,4.8-9.9,4-15.3 c-0.2-1.5-1.6-2.5-3-2.3c-1.5,0.2-2.5,1.6-2.3,3c0.5,3.8-0.4,7.7-2.6,10.8l-0.5-0.5c-1-1-2.7-1-3.8,0L12.3,79.2c-1,1-1,2.7,0,3.8 l12.6,12.6c1,1,2.7,1,3.8,0L51.2,73c1-1,1-2.7,0-3.8l-0.5-0.5C53.8,66.6,57.7,65.7,61.5,66.2z M26.8,89.9L18,81.1l18.8-18.8 l8.8,8.8L26.8,89.9z"></path> <path class="st0" d="M36.3,33.9c1,1,2.7,1,3.8,0c1-1,1-2.7,0-3.8l-5-5c-1-1-2.7-1-3.8,0s-1,2.7,0,3.8L36.3,33.9z"></path> <path class="st0" d="M77.8,67.8c-1-1-2.7-1-3.8,0c-1,1-1,2.7,0,3.8l5,5c1,1,2.7,1,3.8,0s1-2.7,0-3.8L77.8,67.8z"></path> <path class="st0" d="M23.7,44.7l6.9,1.8c1.4,0.4,2.9-0.5,3.3-1.9s-0.5-2.9-1.9-3.3l-6.9-1.8c-1.4-0.4-2.9,0.5-3.3,1.9 C21.4,42.8,22.3,44.3,23.7,44.7L23.7,44.7z"></path> <path class="st0" d="M90.3,57l-6.9-1.8c-1.4-0.4-2.9,0.5-3.3,1.9c-0.4,1.4,0.5,2.9,1.9,3.3l6.9,1.8c1.4,0.4,2.9-0.5,3.3-1.9 C92.6,58.9,91.8,57.4,90.3,57z"></path> <path class="st0" d="M66.5,75.9c-0.4-1.4-1.8-2.3-3.3-1.9c-1.4,0.4-2.3,1.8-1.9,3.3l1.8,6.9c0.4,1.4,1.8,2.3,3.3,1.9 s2.3-1.8,1.9-3.3L66.5,75.9z"></path> <path class="st0" d="M47.5,25.8c0.4,1.4,1.8,2.3,3.3,1.9s2.3-1.8,1.9-3.3l-1.8-6.9c-0.4-1.4-1.8-2.3-3.3-1.9 c-1.4,0.4-2.3,1.8-1.9,3.3L47.5,25.8z"></path> <path class="st0" d="M101.7,18.7L89.2,6.1c-1-1-2.7-1-3.8,0L62.9,28.7c-1,1-1,2.7,0,3.8l0.5,0.5c-3.1,2.2-7,3.1-10.8,2.6 c-1.5-0.2-2.8,0.8-3,2.3c-0.2,1.5,0.8,2.8,2.3,3c5.5,0.8,11-0.7,15.3-4l4,4c-3.3,4.3-4.8,9.9-4,15.3c0.2,1.5,1.6,2.5,3,2.3 c1.5-0.2,2.5-1.6,2.3-3c-0.5-3.8,0.4-7.7,2.6-10.8l0.5,0.5c1,1,2.7,1,3.8,0l22.5-22.5C102.8,21.4,102.8,19.7,101.7,18.7z M77.3,39.4l-8.8-8.8l18.8-18.8l8.8,8.8L77.3,39.4z"></path> </g> </svg> 