<?xml version="1.0" encoding="UTF-8"?> <svg xmlns="http://www.w3.org/2000/svg" xmlns:xlink="http://www.w3.org/1999/xlink" version="1.1" id="Layer_1" x="0px" y="0px" viewBox="0 0 118 118" style="enable-background:new 0 0 118 118;" xml:space="preserve"> <style type="text/css"> .st0{fill:#F8837C;} </style> <path class="st0" d="M106.8,85.6c-0.4,1.2-1.1,2.1-2.3,2.7c-1.1,0.6-2.3,0.3-3.4,0.1c-2.4-0.5-4.4-1.6-6.1-3.3 c-0.7-0.7-1.4-1.5-2.1-2.2c-1.9-1.9-4.3-2.1-6.4-0.5c-1.1,0.8-2.1,1.6-3.2,2.3c-4.2,2.6-9.7,2.4-13.7-0.6c-0.5-0.4-0.8-0.3-1.3,0 c-3.8,2.1-7.8,3.4-12.1,3.8c-0.9,0.1-1.6-0.3-1.8-1.1c-0.1-0.7,0.4-1.3,1.4-1.5c4.8-0.6,9.3-2.2,13.3-4.9c0.3-0.2,0.5-0.3,0.8-0.6 c-12,2.5-23.1,0.1-33.5-6.8c-0.2,1.7-0.4,3.3-0.5,4.9c-0.1,3-0.4,2.2,2,3.6c3.5,2.1,7.4,3.2,11.5,3.7c1.1,0.1,1.6,0.6,1.5,1.4 c-0.1,0.8-0.8,1.2-1.9,1.1C35.9,86,26.8,79.1,22,66.8c-4.8-12.4-1.1-26.8,8.9-35.6c0.8-0.7,1.5-0.7,2-0.2c0.6,0.6,0.5,1.3-0.3,2.1 c-4.6,4.1-7.6,9.2-9.1,15.1c-0.7,2.6-1,5.2-0.8,7.9c2.1-6.7,5.6-12.7,10.1-18.1c4.6-5.4,10.4-9.2,16.8-12.2c0-0.1-0.1-0.2-0.1-0.3 c-1.8,0.4-3.6,0.6-5.3,1.2c-2.1,0.7-4.1,1.7-6.2,2.6c-0.4,0.2-0.9,0.4-1.2,0.3c-0.4-0.1-0.9-0.5-1-0.9c-0.3-0.6,0.1-1.2,0.7-1.5 c1.7-0.8,3.4-1.7,5.2-2.4c13.2-4.7,27.8-0.5,36.5,10.5c10,12.6,9.2,30.8-1.9,42.5c-0.2,0.2-0.4,0.4-0.6,0.7c1.4,0.4,2.5,0.2,3.6-0.5 c1-0.7,2-1.4,3-2.1c4.2-2.8,8.6-3,13.1-0.7c1.4,0.7,2.6,1.9,3.7,3.1c1.4,1.4,2.7,2.6,4.8,2.8c1.6,0.2,2.5,1.5,3,2.9 C106.8,84.6,106.8,85.1,106.8,85.6z M63.6,27.8c0-0.1,0-0.2,0-0.3C61.8,27,60,26.5,58.2,26c-1-0.3-2-0.2-3,0.2 c-1.5,0.7-3.1,1.2-4.7,1.9c-14.1,6.4-22.8,17.2-26.2,32.3c-0.4,1.8-0.9,3.7,0.1,5.6c0.8,1.5,1.5,3.1,2.3,4.7 c0.1,0.2,0.2,0.3,0.3,0.4c0.4-2.3,0.7-4.7,1.2-7c0.4-1.9,1.1-3.7,1.7-5.5c0.3-0.8,0.9-1.1,1.6-0.9c0.7,0.2,1,0.9,0.8,1.6 c-0.1,0.3-0.2,0.6-0.3,1c-1.6,4.5-2.5,9.1-2.3,13.8c0,0.3-0.1,0.7,0.1,0.8c1.1,1.2,2.2,2.4,3.5,3.6c0.8-11.4,5.1-21,12.3-29.2 c7.2-8.3,16.1-13.8,27.2-16.2c-1.6-1.1-3-2.1-4.3-3.1c-0.7-0.5-1.3-0.5-2.1-0.4c-5.6,1.2-10.8,3.4-15.5,6.6 c-6.7,4.5-12,10.3-16,17.4c-0.5,0.9-1.2,1.2-1.9,0.8c-0.7-0.4-0.8-1.1-0.3-2c4.7-8.4,11.2-15.1,19.6-20 C55.8,30.4,59.6,28.8,63.6,27.8z M80.1,67.2c-14.2,6.4-27.8,5.1-41.2-2.6c-0.7,2-1.3,3.9-1.9,5.8c3.4,2.5,7,4.4,10.9,5.7 c8.7,2.9,17.5,3,26.2-0.3c0.3-0.1,0.7-0.2,0.9-0.5C77.1,72.9,78.8,70.2,80.1,67.2z M79,41.7c0.1-0.1,0.1-0.2,0.2-0.3 c-1.3-1.9-2.7-3.7-4.1-5.6c-0.1-0.2-0.6-0.3-0.8-0.2c-2.7,0.7-5.5,1.3-8.1,2.2c-1.7,0.5-3.2,1.4-5,2.2c0.5,0.2,0.7,0.3,1,0.3 c1.9,0.4,3.8,0.9,5.7,1.3c0.9,0.2,1.3,0.7,1.2,1.5c-0.1,0.8-0.8,1.2-1.7,1c-2.7-0.6-5.4-1.3-8.1-2c-0.7-0.2-1.3-0.2-1.9,0.3 c-1.6,1.2-3.2,2.4-4.8,3.7c-0.2,0.1-0.4,0.2-0.6,0.3c9.7,4.9,19.6,6,29.9,2.9c-0.6-1.8-1.1-3.5-1.6-5.1c-0.3,0-0.5,0.1-0.7,0.1 c-2,0.1-3.9,0.3-5.9,0.4c-0.7,0-1.3-0.5-1.3-1.2c-0.1-0.6,0.4-1.2,1.2-1.4c0.3,0,0.6,0,0.9,0C76.1,41.9,77.5,41.8,79,41.7z M82.2,59.9c-13.6,5-26.3,3.2-38.6-4.2c-1.2,2.1-2.4,4.2-3.6,6.3c0.4,0.2,0.6,0.4,0.8,0.5c8,4.9,16.7,6.8,26,5.8 c5-0.5,9.7-2.1,14-4.7c0.3-0.2,0.6-0.4,0.7-0.6C81.8,62.1,82,61.1,82.2,59.9z M82.5,51.7C71,54.9,60.3,53.6,50,48.3 c-1.6,1.8-3.2,3.6-4.8,5.4c0.4,0.3,0.6,0.4,0.9,0.6c6.5,3.9,13.6,5.9,21.2,6c5.1,0,9.9-0.9,14.6-2.9c0.4-0.2,0.7-0.4,0.7-0.9 C82.5,54.8,82.5,53.4,82.5,51.7z M71.3,82.1c2.6,2.1,7.2,2.3,10.3,0.4c1.1-0.7,2.1-1.5,3.2-2.3c3.3-2.3,7-2,9.8,0.8 c0.7,0.7,1.3,1.4,2,2.1c1.6,1.6,3.5,2.6,5.8,2.8c0.9,0.1,1.7-0.4,1.7-1.1c0.1-0.7-0.4-1.3-1.4-1.4c-1.8-0.2-3.3-1-4.5-2.3 c-0.7-0.7-1.4-1.5-2.1-2.2c-3.5-3.4-8.5-3.8-12.5-1.1c-0.7,0.5-1.4,1-2.1,1.5c-2.4,1.9-5,2.3-7.8,1.2c-0.2-0.1-0.5-0.1-0.7,0.1 C72.5,81.2,72,81.6,71.3,82.1z"></path> </svg> 