<?xml version="1.0" encoding="UTF-8"?> <svg xmlns="http://www.w3.org/2000/svg" xmlns:xlink="http://www.w3.org/1999/xlink" version="1.1" id="Layer_1" x="0px" y="0px" viewBox="0 0 115.4 102.1" style="enable-background:new 0 0 115.4 102.1;" xml:space="preserve"> <style type="text/css"> .st0{fill:#F48780;} </style> <g id="XMLID_808_"> <path id="XMLID_809_" class="st0" d="M78.5,73.2l-11.9,8.2c-0.1,0.1-0.3,0.1-0.4,0.1l-10.8-2.3c-0.7-0.1-1.3,0.3-1.4,0.9 c-0.1,0.7,0.3,1.3,0.9,1.4l10.8,2.3c0.2,0,0.4,0.1,0.6,0.1c0.6,0,1.2-0.2,1.7-0.5l11.9-8.2c0.6-0.4,0.7-1.1,0.3-1.7 C79.8,73,79,72.9,78.5,73.2z"></path> <path id="XMLID_810_" class="st0" d="M96.1,50.1c-0.2-1.2-1.1-2.1-2.3-2.3l-4.8-1c0,0,0,0,0,0l-1.5-0.3l7.4-5.1 c1-0.7,1.4-1.8,1.2-3c-0.2-1.2-1.1-2.1-2.3-2.3l-33.1-6.9c-0.7-0.1-1.3,0.3-1.4,0.9c-0.1,0.7,0.3,1.3,0.9,1.4l33.1,6.9 c0.3,0.1,0.4,0.3,0.4,0.4c0,0.1,0,0.4-0.2,0.5l-11.3,7.8l-14-8.4c-0.9-0.5-2.1-0.6-3,0l-24.3,14l-25-5.2c-0.3-0.1-0.4-0.3-0.4-0.4 c0-0.1,0-0.4,0.2-0.5l26.9-18.6C42.7,28,42.9,28,43,28l11.2,2.3c0.7,0.1,1.3-0.3,1.4-0.9c0.1-0.7-0.3-1.3-0.9-1.4l-11.2-2.3 c-0.8-0.2-1.6,0-2.3,0.5L14.3,44.7c-1,0.7-1.4,1.8-1.2,3c0.2,1.2,1.1,2.1,2.3,2.3l6.3,1.3l-7.4,5.1c-1,0.7-1.4,1.8-1.2,3 c0.2,1.2,1.1,2.1,2.3,2.3l6.3,1.3l-7.4,5.1c-1,0.7-1.4,1.8-1.2,3c0.2,1.2,1.1,2.1,2.3,2.3l33.3,7c0.1,0,0.2,0,0.2,0 c0.6,0,1.1-0.4,1.2-1c0.1-0.7-0.3-1.3-0.9-1.4l-33.3-7c-0.3-0.1-0.4-0.3-0.4-0.4s0-0.4,0.2-0.5l9.3-6.4l40.7,8.5 c0.2,0,0.4,0.1,0.6,0.1c0.6,0,1.2-0.2,1.7-0.5l16.7-11.6l8.6,1.8c0.3,0.1,0.4,0.3,0.4,0.4s0,0.4-0.2,0.5l-10.1,7 c-0.6,0.4-0.7,1.1-0.3,1.7c0.2,0.3,0.6,0.5,1,0.5c0.2,0,0.5-0.1,0.7-0.2l10.1-7c1-0.7,1.4-1.8,1.2-3c-0.2-1.2-1.1-2.1-2.3-2.3 l-6.3-1.3l7.4-5.1C95.8,52.5,96.3,51.3,96.1,50.1z M87.5,49v6.2l-4,2.7v-8.8l1.2-0.8L87.5,49z M75.1,50.8v13l-4,2.7V51.4L75.1,50.8 z M77.6,50.5l3.6-0.5v9.6l-3.6,2.5V50.5z M66.4,40.9c0.2-0.1,0.4-0.1,0.5,0l11.7,7L47,52.1L66.4,40.9z M34.1,53.9l4,0.8v9.2l-4-0.8 V53.9z M31.6,62.6l-3.6-0.7v-9.2l3.6,0.7V62.6z M40.4,55.2l0.4,0.1c0.1,0,0.3,0,0.4,0L44,55v10.2l-3.6-0.7V55.2z M46.4,54.6l4-0.5 v12.4l-4-0.8V54.6z M52.8,53.8l3.6-0.5v14.5L52.8,67L52.8,53.8L52.8,53.8z M58.8,53l4-0.5v16.6l-4-0.8V53z M25.6,52.1v9.2l-4-0.8 v-6.2L25,52L25.6,52.1z M15.5,58.9c0-0.1,0-0.4,0.2-0.5l3.5-2.4V60l-3.3-0.7C15.6,59.3,15.5,59.1,15.5,58.9z M66.6,69.7 c-0.1,0.1-0.3,0.1-0.4,0.1l-1-0.2V52.2l3.6-0.5v16.6L66.6,69.7z M93.5,51.2l-3.5,2.4v-4.1l3.3,0.7c0.3,0.1,0.4,0.3,0.4,0.4 C93.7,50.8,93.7,51,93.5,51.2z"></path> </g> </svg> 