<?xml version="1.0" encoding="UTF-8"?> <svg xmlns="http://www.w3.org/2000/svg" xmlns:xlink="http://www.w3.org/1999/xlink" version="1.1" id="Layer_1" x="0px" y="0px" viewBox="0 0 118 118" style="enable-background:new 0 0 118 118;" xml:space="preserve"> <style type="text/css"> .st0{fill:#08293C;} </style> <path class="st0" d="M86.7,42.8c0.8,0.4,1.5,0.9,2.1,1.5c0.5,0.5,1.2,0.5,1.7,0.1c0.2-0.2,0.4-0.5,0.4-0.9v-8.3 c0-0.5-0.3-0.9-0.7-1.1c-2.9-1.3-6.2-1.7-9.4-1.2v-6.8c0-0.7-0.5-1.2-1.2-1.2h-7.4c-0.7,0-1.2,0.5-1.2,1.2v10.6 c-2.6,1.4-5.3,2.5-8.1,3.4v-14c0-0.7-0.5-1.2-1.2-1.2h-7.4c-0.7,0-1.2,0.5-1.2,1.2v14c-2.8-0.9-5.5-2-8.1-3.4V26.1 c0-0.7-0.5-1.2-1.2-1.2h-7.4c-0.7,0-1.2,0.5-1.2,1.2v6.8c-3.2-0.5-6.4-0.1-9.4,1.2c-0.4,0.2-0.7,0.6-0.7,1.1v8.3 c0,0.7,0.5,1.2,1.2,1.2c0.3,0,0.6-0.1,0.9-0.4c0.6-0.6,1.3-1.2,2.1-1.5c1.9-0.8,4-0.9,5.9-0.2v6.8c-3.2-0.5-6.4-0.1-9.4,1.1 c-0.4,0.2-0.7,0.6-0.7,1.1v8.3c0,0.7,0.5,1.2,1.2,1.2c0.3,0,0.6-0.1,0.9-0.4c0.6-0.6,1.3-1.2,2.1-1.5c1.9-0.8,4-0.9,5.9-0.3v6.8 c-3.2-0.5-6.4-0.1-9.4,1.2c-0.4,0.2-0.7,0.6-0.7,1.1v8.3c0,0.7,0.5,1.2,1.2,1.2c0.3,0,0.6-0.1,0.9-0.4c0.6-0.6,1.3-1.2,2.1-1.5 c1.9-0.8,4-0.9,5.9-0.2v14.3c0,0.7,0.5,1.2,1.2,1.2h7.4c0.7,0,1.2-0.5,1.2-1.2v-9.8c2.6,1.2,5.3,2.1,8.1,2.6v7.1 c0,0.7,0.5,1.2,1.2,1.2h7.4c0.7,0,1.2-0.5,1.2-1.2v-7.1c2.8-0.6,5.5-1.5,8.1-2.6v9.8c0,0.7,0.5,1.2,1.2,1.2h7.4 c0.7,0,1.2-0.5,1.2-1.2V75.2c1.9-0.7,4-0.6,5.9,0.2c0.8,0.4,1.5,0.9,2.1,1.5c0.5,0.5,1.2,0.5,1.7,0c0.2-0.2,0.4-0.5,0.4-0.9v-8.3 c0-0.5-0.3-0.9-0.7-1.1c-2.9-1.3-6.2-1.7-9.4-1.2v-6.8c1.9-0.7,4-0.6,5.9,0.3c0.8,0.4,1.5,0.9,2.1,1.5c0.5,0.5,1.2,0.5,1.7,0 c0.2-0.2,0.4-0.5,0.4-0.9v-8.3c0-0.5-0.3-0.9-0.7-1.1c-3-1.3-6.2-1.7-9.4-1.1v-6.8C82.7,41.8,84.8,41.9,86.7,42.8z M78.4,27.3v6.2 c-1.7,0.5-3.4,1.2-5,2v-8.1H78.4z M74.2,37.7c1.8-1,3.7-1.7,5.6-2.2c0,0,0.1,0,0.1,0c2.8-0.7,5.8-0.6,8.6,0.4v5 c-0.2-0.1-0.5-0.3-0.7-0.4c-3.2-1.5-7.1-1.2-11.5,1.2c-4.5,2.3-8.8,4.5-13.4,5.4v-4.6C66.5,41.6,70.2,39.8,74.2,37.7z M53.1,72.8 c-2.8-0.9-5.5-2-8.1-3.4v-6c2.6,1.2,5.3,2.1,8.1,2.7V72.8z M53.1,49.7v6.8c-2.8-0.9-5.5-2-8.1-3.4v-6C47.6,48.2,50.3,49.1,53.1,49.7 z M45,60.7v-5c2.8,1.5,5.9,2.6,9,3.4c0,0,0.1,0,0.2,0c2.6,0.6,5.2,0.6,7.7,0c0.1,0,0.1,0,0.2,0c3.1-0.8,6.1-1.9,9-3.4v5 c-5.1,2.4-9,3.4-13,3.4S50.1,63.1,45,60.7z M62.9,66c2.8-0.6,5.5-1.5,8.1-2.7v6c-2.6,1.4-5.3,2.5-8.1,3.4V66z M71,53 c-2.6,1.4-5.3,2.5-8.1,3.4v-6.8c2.8-0.6,5.5-1.5,8.1-2.6V53z M60.5,27.3v29.7c-1.6,0.3-3.3,0.3-5,0V27.3H60.5z M37.6,27.3h5v8.1 c-1.6-0.8-3.3-1.5-5-2L37.6,27.3z M28.2,40.6c-0.2,0.1-0.5,0.2-0.7,0.4v-5c2.8-1,5.7-1.2,8.6-0.4c0,0,0.1,0,0.1,0 c2,0.5,3.9,1.2,5.6,2.2c4,2.1,7.6,3.9,11.3,4.8v4.6c-4.5-1-8.9-3.1-13.4-5.4C35.3,39.4,31.4,39,28.2,40.6z M28.2,56.9 c-0.2,0.1-0.5,0.2-0.7,0.4v-5c2.5-0.9,5.1-1.1,7.7-0.6v4.6C32.9,55.7,30.4,55.9,28.2,56.9L28.2,56.9z M37.6,43.4 c0.3,0.2,0.7,0.3,1,0.5c1.3,0.7,2.6,1.4,4,2v22.2c-1.6-0.8-3.3-1.5-5-2V43.4z M42.6,88.3h-5V76.1c0.3,0.2,0.7,0.3,1,0.5 c1.3,0.7,2.6,1.4,4,2V88.3z M39.7,74.4c-4.4-2.3-8.3-2.7-11.5-1.2c-0.2,0.1-0.5,0.2-0.7,0.4v-5c2.8-1,5.7-1.2,8.6-0.4 c0,0,0.1,0,0.1,0c2,0.5,3.9,1.2,5.6,2.2c3.8,2,7.6,3.9,11.3,4.8v4.6C48.6,78.9,44.2,76.8,39.7,74.4z M55.5,88.3V66.4 c0.8,0.1,1.7,0.1,2.5,0.1c0.8,0,1.7,0,2.5-0.1v21.9H55.5z M78.4,88.3h-5v-9.7c1.3-0.6,2.6-1.3,4-2c0.3-0.2,0.7-0.3,1-0.5L78.4,88.3z M88.5,68.7v5c-0.2-0.1-0.5-0.3-0.7-0.4c-3.2-1.5-7.1-1.1-11.5,1.2c-4.5,2.3-8.8,4.5-13.4,5.4v-4.6c3.7-0.9,7.4-2.8,11.3-4.8 c1.8-1,3.7-1.7,5.6-2.2c0,0,0.1,0,0.1,0C82.7,67.5,85.7,67.7,88.5,68.7z M88.5,52.3v5c-0.2-0.1-0.5-0.3-0.7-0.4 c-2.2-1-4.7-1.2-7-0.6v-4.6C83.4,51.2,86,51.4,88.5,52.3z M78.4,66.1c-1.7,0.5-3.4,1.2-5,2V45.9c1.3-0.6,2.6-1.3,4-2 c0.3-0.2,0.7-0.3,1-0.5L78.4,66.1z"></path> </svg> 