<?xml version="1.0" encoding="UTF-8"?> <svg xmlns="http://www.w3.org/2000/svg" xmlns:xlink="http://www.w3.org/1999/xlink" version="1.1" id="Layer_1" x="0px" y="0px" viewBox="0 0 54.1 55.3" style="enable-background:new 0 0 54.1 55.3;" xml:space="preserve"> <style type="text/css"> .st0{fill:#4BBD98;} </style> <g> <g> <path class="st0" d="M42,50.3H15.4c-0.5,0-0.9-0.4-0.9-0.9s0.4-0.9,0.9-0.9h26.6c3.4,0,6.2-2.8,6.2-6.2v-8.9 c0-1.4-1.2-2.7-2.7-2.7H26.1c-1.4,0-2.7,1.2-2.7,2.7c0,0.5-0.4,0.9-0.9,0.9c-0.5,0-0.9-0.4-0.9-0.9c0-2.5,2-4.5,4.5-4.5h19.5 c2.5,0,4.5,2,4.5,4.5v8.9C50,46.7,46.4,50.3,42,50.3z"></path> <path class="st0" d="M15.4,50.3c-4.4,0-8-3.6-8-8V12.2c0-2.5,2-4.5,4.5-4.5h19.5c2.5,0,4.5,2,4.5,4.5v17.7c0,0.5-0.4,0.9-0.9,0.9 s-0.9-0.4-0.9-0.9V12.2c0-1.4-1.2-2.7-2.7-2.7H11.9c-1.4,0-2.7,1.2-2.7,2.7v30.1c0,3.4,2.8,6.2,6.2,6.2s6.2-2.8,6.2-6.2v-8.9 c0-0.5,0.4-0.9,0.9-0.9c0.5,0,0.9,0.4,0.9,0.9v8.9C23.4,46.7,19.8,50.3,15.4,50.3z"></path> <path class="st0" d="M21.6,20.2c-1.9,0-3.6-1.6-3.6-3.6s1.6-3.6,3.6-3.6s3.6,1.6,3.6,3.6S23.5,20.2,21.6,20.2z M21.6,14.9 c-1,0-1.8,0.8-1.8,1.8c0,1,0.8,1.8,1.8,1.8c1,0,1.8-0.8,1.8-1.8C23.4,15.7,22.6,14.9,21.6,14.9z"></path> <path class="st0" d="M39.3,34.4h-7.1c-1.4,0-2.7-1.2-2.7-2.7c0-0.5-0.4-0.9-0.9-0.9h-1.8c-0.5,0-0.9-0.4-0.9-0.9s0.4-0.9,0.9-0.9 h1.8c1.4,0,2.7,1.2,2.7,2.7c0,0.5,0.4,0.9,0.9,0.9h7.1c0.5,0,0.9-0.4,0.9-0.9c0-1.4,1.2-2.7,2.7-2.7h1.8c0.5,0,0.9,0.4,0.9,0.9 s-0.4,0.9-0.9,0.9h-1.8c-0.5,0-0.9,0.4-0.9,0.9C42,33.2,40.8,34.4,39.3,34.4z"></path> </g> </g> </svg> 