<?xml version="1.0" encoding="UTF-8"?> <svg xmlns="http://www.w3.org/2000/svg" xmlns:xlink="http://www.w3.org/1999/xlink" version="1.1" id="Capa_1" x="0px" y="0px" viewBox="0 0 57.8 65.4" style="enable-background:new 0 0 57.8 65.4;" xml:space="preserve"> <style type="text/css"> .st0{fill-rule:evenodd;clip-rule:evenodd;fill:#40C29A;} </style> <g transform="translate(-1788 -865)"> <g> <g> <path class="st0" d="M1841.1,900.4c0.4-0.3,0.8-0.7,0.8-1.3s-0.3-1-0.8-1.3l-7.6-3.4v-3.7l7.6-3.4c0.4-0.3,0.8-0.7,0.8-1.3 s-0.3-1-0.8-1.3l-7.6-3.4v-11c0-0.4-0.4-0.8-0.8-0.8c-0.4,0-0.8,0.4-0.8,0.8v10.3l-14.3-6.3c-0.3-0.1-0.7-0.1-1.1,0l-6,2.7 c-0.4,0.1-0.6,0.7-0.4,1.1c0.1,0.4,0.7,0.6,1.1,0.4l5.9-2.5l14.9,6.6v2.1c0,0.4,0.4,0.8,0.8,0.8c0.4,0,0.8-0.4,0.8-0.8v-1.4 l6.3,2.8l-12.5,5.5l-3.8-1.7c-0.4-0.1-0.8,0-1.1,0.4c-0.1,0.4,0,0.8,0.4,1.1l2.4,1l-8.3,3.7l-8.3-3.7l2.4-1 c0.4-0.1,0.6-0.7,0.4-1.1c-0.1-0.4-0.7-0.6-1.1-0.4l-3.8,1.7l-12.5-5.5l6.4-2.8v1.5c0,0.4,0.4,0.8,0.8,0.8c0.4,0,0.8-0.4,0.8-0.8 v-2.3l5.6-2.5c0.4-0.1,0.6-0.7,0.4-1.1c-0.1-0.4-0.7-0.6-1.1-0.4l-4.9,2.2v-9.8c0-0.4-0.4-0.8-0.8-0.8c-0.4,0-0.8,0.4-0.8,0.8v11 l-7.7,3.4c-0.4,0.3-0.8,0.7-0.8,1.3s0.3,1,0.8,1.3l7.7,3.4v3.5l-7.7,3.4c-0.4,0.3-0.8,0.7-0.8,1.3s0.3,1,0.8,1.3l7.7,3.4v4.1 l-7.7,3.4c-0.4,0.3-0.8,0.7-0.8,1.3s0.3,1,0.8,1.3l7.7,3.4v6.3l-1.7-1.3c-0.4-0.3-0.8-0.1-1.1,0.1c-0.3,0.4-0.1,0.8,0.1,1.1 l2.9,2.1c0.1,0.1,0.3,0.1,0.4,0.1c0.1,0,0.3,0,0.4-0.1l2.9-2.1c0.4-0.3,0.4-0.8,0.1-1.1c-0.3-0.4-0.8-0.4-1.1-0.1l-1.4,1.3v-5.6 l14.2,6.3c0.1,0.1,0.4,0.1,0.6,0.1c0.1,0,0.4,0,0.6-0.1l5.3-2.4c0.4-0.1,0.6-0.7,0.4-1.1c-0.1-0.4-0.7-0.6-1.1-0.4l-5.2,2.3 L1794,913l6.4-2.8v2.4c0,0.4,0.4,0.8,0.8,0.8c0.4,0,0.8-0.4,0.8-0.8v-3.1l5-2.3l9.1,4.1c0.1,0.1,0.4,0.1,0.6,0.1 c0.1,0,0.4,0,0.6-0.1l9.1-4.1l5,2.3v3.1c0,0.4,0.4,0.8,0.8,0.8c0.4,0,0.8-0.4,0.8-0.8v-2.2l6.3,2.8l-14.3,6.3 c-0.4,0.1-0.6,0.7-0.4,1.1c0.1,0.3,0.4,0.4,0.7,0.4c0.1,0,0.3,0,0.3-0.1l5.6-2.5v5.6l-1.7-1.3c-0.4-0.3-0.8-0.1-1.1,0.1 c-0.3,0.3-0.1,0.8,0.1,1.1l2.9,2.1c0.1,0.1,0.3,0.1,0.4,0.1c0.1,0,0.3,0,0.4-0.1l2.9-2.1c0.4-0.3,0.4-0.8,0.1-1.1 c-0.3-0.4-0.8-0.4-1.1-0.1l-1.7,1.3v-6.3l7.6-3.4c0.4-0.3,0.8-0.7,0.8-1.3s-0.3-1-0.8-1.3l-7.6-3.4v-4.2L1841.1,900.4z M1831.9,891.7v2.1l-2.4-1.1L1831.9,891.7z M1802.4,891.9l2.2,1l-2.2,1V891.9z M1802.4,907.3v-2.7l2.9,1.3L1802.4,907.3z M1817.1,909.4l-7.7-3.4l1.7-0.7c0.4-0.1,0.6-0.7,0.4-1.1c-0.1-0.4-0.7-0.6-1.1-0.4l-3.1,1.4l-5.5-2.4l0,0l-7.6-3.4l6.4-2.8v2.8 c0,0.4,0.4,0.8,0.8,0.8c0.4,0,0.8-0.4,0.8-0.8v-3.5l4.3-2l9.8,4.4c0.1,0.1,0.4,0.1,0.6,0.1c0.1,0,0.4,0,0.6-0.1l9.8-4.4l4.5,2 v3.5c0,0.4,0.4,0.8,0.8,0.8c0.4,0,0.8-0.4,0.8-0.8v-2.8l6.3,2.8l-13,5.8l-3.1-1.4c-0.4-0.1-0.8,0-1.1,0.4c-0.1,0.4,0,0.8,0.4,1.1 l1.7,0.7L1817.1,909.4z M1831.9,907.3l-3.1-1.4l3.1-1.4V907.3z"></path> <path class="st0" d="M1814.9,889.9l2-0.8l2,0.8c0.1,0,0.3,0.1,0.3,0.1c0.3,0,0.6-0.1,0.7-0.4c0.1-0.4,0-0.8-0.4-1l-2.2-0.8 c-0.3-0.1-0.7-0.1-1.2,0l-2.2,0.8c-0.4,0.1-0.6,0.6-0.4,1C1814.1,889.9,1814.6,890,1814.9,889.9L1814.9,889.9z"></path> <path class="st0" d="M1819.6,901.7l-2.2-0.8c-0.3-0.1-0.7-0.1-1.2,0l-2.2,0.8c-0.4,0.1-0.6,0.7-0.4,1.1c0.1,0.4,0.7,0.6,1.2,0.4 l2-0.8l2,0.8c0.1,0,0.3,0.1,0.3,0.1c0.3,0,0.6-0.1,0.7-0.4C1820.4,902.4,1820.1,902,1819.6,901.7z"></path> </g> </g> </g> </svg> 