<?xml version="1.0" encoding="UTF-8"?> <svg xmlns="http://www.w3.org/2000/svg" xmlns:xlink="http://www.w3.org/1999/xlink" version="1.1" id="Layer_1" x="0px" y="0px" viewBox="0 0 107.7 104.6" style="enable-background:new 0 0 107.7 104.6;" xml:space="preserve"> <style type="text/css"> .st0{fill-rule:evenodd;clip-rule:evenodd;fill:#FFFFFF;} </style> <g transform="translate(-3679 -920)"> <path class="st0" d="M3782.9,975.7l-3,1.9l1.5,2.2v9.8h-1.7c0-3.9-3.1-6.9-6.9-6.9c-3.9,0-6.9,3.1-6.9,6.9h-3.5v-19h13l3,4.4l3-1.9 l-3.5-5.2c-0.4-0.6-0.9-0.7-1.5-0.7h-15.6c-0.9,0-1.7,0.7-1.7,1.7v13.9h-5.2v-25.9c0-0.9-0.7-1.7-1.7-1.7h-69.3 c-0.9,0-1.7,0.7-1.7,1.7v5.2h3.5v-3.5h65.7v24h-65.7v-17.2h-3.5v19c0,0.9,0.7,1.7,1.7,1.7v1.7c0,0.4,0.2,0.9,0.6,1.3l3.5,3.5 c0.4,0.4,0.7,0.6,1.3,0.6h0.9c1.9,3.3,6.1,4.4,9.5,2.6c0.7-0.3,1.3-0.9,1.7-1.5c2.6,2.8,6.9,3.1,9.8,0.6c0.6-0.6,1.1-1.1,1.5-1.7 h0.9c0.4,0,0.9-0.2,1.3-0.6l3.5-3.5c0.4-0.4,0.6-0.7,0.6-1.3v-1.7h8.7v1.7c0,0.4,0.2,0.9,0.6,1.3l3.5,3.5c0.4,0.4,0.7,0.6,1.3,0.6 h0.9c1.9,3.3,6.1,4.4,9.5,2.6c0.7-0.3,1.3-0.9,1.7-1.5c2.6,2.8,6.9,3.1,9.8,0.6c0.6-0.6,1.1-1.1,1.5-1.7h12.2 c1.9,3.3,6.1,4.4,9.5,2.6c1.1-0.6,1.9-1.5,2.6-2.6h4.4c0.9,0,1.7-0.7,1.7-1.7v-12c0-0.4-0.2-0.7-0.4-0.9L3782.9,975.7z M3687.9,988.8l-1.9-1.9v-0.9h2.6C3688.3,987,3688.1,987.9,3687.9,988.8L3687.9,988.8z M3694.8,992.9c-1.9,0-3.5-1.5-3.5-3.5 c0-2,1.5-3.5,3.5-3.5c1.9,0,3.5,1.5,3.5,3.5C3698.3,991.4,3696.7,992.9,3694.8,992.9z M3705.2,992.9c-1.9,0-3.5-1.5-3.5-3.5 c0-2,1.5-3.5,3.5-3.5s3.5,1.5,3.5,3.5C3708.8,991.4,3707.1,992.9,3705.2,992.9z M3713.9,987l-1.9,1.9c-0.2-0.9-0.4-1.9-0.9-2.8h2.6 v0.9L3713.9,987L3713.9,987z M3731.2,988.8l-1.9-1.9v-0.9h2.6C3731.6,987,3731.4,987.9,3731.2,988.8L3731.2,988.8z M3738.1,992.9 c-1.9,0-3.5-1.5-3.5-3.5c0-2,1.5-3.5,3.5-3.5c2,0,3.5,1.5,3.5,3.5C3741.6,991.4,3739.9,992.9,3738.1,992.9z M3748.5,992.9 c-1.9,0-3.5-1.5-3.5-3.5c0-2,1.5-3.5,3.5-3.5c1.9,0,3.5,1.5,3.5,3.5C3752,991.4,3750.4,992.9,3748.5,992.9z M3758.9,989.6h-3.5 c0-1.3-0.4-2.4-0.9-3.5h4.4V989.6z M3772.8,992.9c-1.9,0-3.5-1.5-3.5-3.5c0-2,1.5-3.5,3.5-3.5c1.9,0,3.5,1.5,3.5,3.5 C3776.2,991.4,3774.7,992.9,3772.8,992.9z M3691.5,965.4h-3.5v-3.5h3.5V965.4z M3687.9,968.8h3.5v10.3h-3.5V968.8z M3698.3,962 v17.2h-3.5V962H3698.3z M3705.2,962v17.2h-3.5V962H3705.2z M3712.1,962v17.2h-3.5V962H3712.1z M3719.2,962v17.2h-3.5V962H3719.2z M3726,962v17.2h-3.5V962H3726z M3732.9,962v17.2h-3.5V962H3732.9z M3739.9,962v17.2h-3.5V962H3739.9z M3746.8,962v17.2h-3.5V962 H3746.8z"></path> </g> </svg> 