<?xml version="1.0" encoding="UTF-8"?> <svg xmlns="http://www.w3.org/2000/svg" width="36" height="60" viewBox="0 0 36 60" fill="none"><path d="M22.5674 23.6875C21.1363 22.8013 19.7982 21.7979 18.57 20.69C18.2598 20.4038 17.9812 20.091 17.7381 19.7559C17.4538 19.2984 17.3052 18.782 17.3068 18.2571C17.3068 17.4381 17.6663 16.6526 18.3062 16.0734C18.9461 15.4943 19.8139 15.1689 20.7189 15.1689H32.8344C33.0818 15.1717 33.3275 15.1302 33.5571 15.0468C33.7868 14.9635 33.996 14.8399 34.1728 14.6831C34.3496 14.5264 34.4904 14.3396 34.5872 14.1335C34.684 13.9273 34.7348 13.7059 34.7368 13.482V3.40186C34.7348 2.5002 34.3382 1.63599 33.6337 0.998415C32.9293 0.360841 31.9744 0.00184201 30.9782 0H18V10.1568V11.3907C18 12.3835 17.5642 13.3356 16.7886 14.0377C16.0129 14.7397 14.9609 15.1341 13.8639 15.1341H0V16.0124C0.013354 19.036 0.885999 22.0056 2.53402 24.6356C5.2991 29.1528 9.46598 32.004 12.7394 34.2417C14.172 35.2246 17.2683 37.5111 17.3607 37.5529C17.9073 37.9305 18.3633 38.4049 18.7009 38.9471C18.9034 39.2796 19.0341 39.6439 19.086 40.0207C19.1016 40.1946 19.1016 40.3695 19.086 40.5435C19.0887 41.4438 18.7176 42.3121 18.0462 42.9764L18 43.0182C17.9384 43.074 17.8768 43.1367 17.8074 43.1925L17.7227 43.2622L17.5225 43.4086L17.43 43.4574L17.199 43.5968H17.1451C16.5037 43.9543 15.7648 44.1427 15.0116 44.1405H1.25546V55.8867C1.25444 56.3337 1.35097 56.7765 1.5395 57.1896C1.72803 57.6028 2.00485 57.9782 2.35408 58.2942C2.70331 58.6103 3.11806 58.8609 3.57454 59.0315C4.03102 59.2021 4.52024 59.2895 5.01412 59.2886H16.1207C16.6191 59.2886 17.0971 59.1094 17.4496 58.7904C17.802 58.4714 18 58.0388 18 57.5876V47.9397C18 46.9469 18.4358 45.9948 19.2114 45.2927C19.9871 44.5907 21.0391 44.1963 22.1361 44.1963H36V42.2305C35.9615 30.5122 27.9589 27.2497 22.5674 23.7015V23.6875Z" fill="#08293B"></path></svg> 