<?xml version="1.0" encoding="UTF-8"?> <svg xmlns="http://www.w3.org/2000/svg" xmlns:xlink="http://www.w3.org/1999/xlink" version="1.1" id="Capa_1" x="0px" y="0px" viewBox="0 0 106 101" style="enable-background:new 0 0 106 101;" xml:space="preserve"> <style type="text/css"> .st0{fill:#5BC89E;} </style> <g transform="translate(-935 -384)"> <path class="st0" d="M1023.6,406.6H1005v4.7h18.6V406.6z"></path> <path class="st0" d="M1023.6,420.5h-14v4.7h14V420.5z"></path> <path class="st0" d="M1023.6,434.5H1005v4.7h18.6V434.5z"></path> <path class="st0" d="M1023.6,448.5h-14v4.7h14V448.5z"></path> <path class="st0" d="M1023.6,462.5H1005v4.7h18.6V462.5z"></path> <path class="st0" d="M956.1,422.9v-7h4.7v7h7v4.7h-7v7h-4.7v-7h-7v-4.7H956.1z"></path> <path class="st0" d="M981.7,432.2h-4.7v4.7h4.7V432.2z"></path> <path class="st0" d="M981.7,422.9h-4.7v4.7h4.7V422.9z"></path> <path class="st0" d="M977.1,449.8v-8.3h4.7V452l-0.9,0.7c-4.1,3.1-5,8.9-1.9,13c3.1,4.1,8.9,5,13,1.9c4.1-3.1,5-8.9,1.9-13 c-0.5-0.7-1.2-1.3-1.9-1.9L991,452v-33.8h-14v-9.3c0-5.1,4.2-9.3,9.3-9.3s9.3,4.2,9.3,9.3v40.9c5.7,5.1,6.2,13.9,1.1,19.7 c-2,2.2-4.6,3.7-7.5,4.3c-1,0.2-1.9,0.3-2.9,0.3c-7.7,0-14-6.2-14-14c0,0,0,0,0,0C972.4,456.2,974.1,452.4,977.1,449.8z M991,408.9 c0-2.6-2.1-4.7-4.7-4.7c-2.6,0-4.7,2.1-4.7,4.7v4.7h9.3V408.9z"></path> </g> </svg> 