<?xml version="1.0" encoding="UTF-8"?> <svg xmlns="http://www.w3.org/2000/svg" xmlns:xlink="http://www.w3.org/1999/xlink" version="1.1" id="Layer_1" x="0px" y="0px" viewBox="0 0 73.9 78.3" style="enable-background:new 0 0 73.9 78.3;" xml:space="preserve"> <style type="text/css"> .st0{fill:#41C59D;} </style> <g> <g> <path class="st0" d="M169.4,97.5l-4.8-11c-0.3-0.6-0.9-1-1.6-1h-40.1c-0.7,0-1.3,0.4-1.6,1l-4.8,11c-0.3,0.8-0.2,1.7,0.4,2.4 l24.7,29c0.3,0.4,0.8,0.6,1.3,0.6l0,0c0.5,0,1-0.2,1.3-0.6l8.3-9.7c0.3-0.3,0.2-0.8-0.1-1.1c-0.3-0.3-0.8-0.2-1.1,0.1l0,0 l-6.5,7.7l10.3-26.6h12.3l-13.8,16.2c-0.3,0.3-0.2,0.8,0.1,1.1c0.3,0.3,0.8,0.2,1.1-0.1L169,100C169.6,99.3,169.7,98.3,169.4,97.5 L169.4,97.5L169.4,97.5z M167.7,97.8h-11.6l7.3-10L167.7,97.8z M134.2,108l7,18.1l-22.8-26.8h12.4l2.2,5.6c0.2,0.4,0.6,0.6,1,0.5 c0.4-0.2,0.6-0.6,0.5-1l0,0l-1.9-5h20.9l-10.5,26.9l-7.3-18.8c-0.2-0.4-0.6-0.6-1-0.5C134.2,107.1,134,107.6,134.2,108L134.2,108 L134.2,108z M145.9,87.1l1.8,2.7c0.2,0.4,0.7,0.6,1,0.4c0.4-0.2,0.6-0.7,0.4-1c0-0.1-0.1-0.1-0.1-0.2l-1.2-1.8h14.1l-7.3,10.1 l-3.6-5.4c-0.3-0.3-0.8-0.4-1.1-0.1c-0.3,0.2-0.4,0.6-0.2,0.9l3.4,5.1h-20.3l7.2-10.6L145.9,87.1L145.9,87.1z M131.3,97.2 L124,87.1h14.1L131.3,97.2z M122.5,87.7l7.3,10h-11.6L122.5,87.7z"></path> <path class="st0" d="M128.3,121.5c-0.4-0.2-0.9-0.3-1.3-0.1l-4.1,1.9c-0.6,0.3-0.9,1-0.7,1.7c0.8,2.1,2.5,3.2,5.3,3.3h0.1 c0.7,0,1.3-0.6,1.3-1.3v-4.4C128.9,122.2,128.7,121.8,128.3,121.5L128.3,121.5L128.3,121.5z M127.3,126.8 c-2.5-0.2-3.2-1.4-3.5-2.1l3.5-1.6V126.8L127.3,126.8z"></path> <path class="st0" d="M126.7,117.2c0.1-0.4,0-0.9-0.4-1.2l-3.2-3.2c-0.5-0.5-1.3-0.5-1.8-0.1c-1.7,1.4-2.1,3.5-1.4,6.1 c0.2,0.7,1,1.1,1.7,0.9c0,0,0,0,0,0l4.1-1.5C126.2,118,126.6,117.7,126.7,117.2z M121.4,118.1c-0.7-2.4,0.3-3.5,0.8-4l2.7,2.7 L121.4,118.1z"></path> <path class="st0" d="M163,123.4l-4.1-1.9c-0.7-0.3-1.5,0-1.8,0.6c-0.1,0.2-0.1,0.4-0.1,0.6v4.4c0,0.7,0.6,1.3,1.3,1.3h0.1 c2.7-0.1,4.5-1.3,5.3-3.3C164,124.4,163.7,123.6,163,123.4L163,123.4L163,123.4z M158.6,126.7V123l3.5,1.7 C161.9,125.3,161.1,126.6,158.6,126.7L158.6,126.7z"></path> <path class="st0" d="M164.7,112.7c-0.5-0.4-1.3-0.4-1.8,0.1l-3.2,3.2c-0.5,0.5-0.5,1.4,0,1.9c0.1,0.1,0.3,0.2,0.5,0.3l4.1,1.5 c0.7,0.2,1.5-0.1,1.7-0.8c0,0,0,0,0,0C166.8,116.2,166.4,114.1,164.7,112.7z M164.6,118.1l-3.5-1.3l2.7-2.7 C164.3,114.5,165.2,115.7,164.6,118.1L164.6,118.1z"></path> </g> </g> <g> <g> <path class="st0" d="M41.4,43.5c0.1,0,0.1,0,0.2,0c0,0,0,0,0.1,0c0,0,0.1,0,0.1,0c3-0.1,5.4-1.1,7.2-3.1c3.9-4.4,3.3-12,3.2-12.7 c-0.3-5.4-2.8-8-4.9-9.3c-1.6-0.9-3.4-1.4-5.5-1.4h-0.1c0,0,0,0,0,0h-0.1c-1.1,0-3.4,0.2-5.5,1.4c-2.1,1.2-4.8,3.8-5,9.3 c-0.1,0.7-0.7,8.3,3.2,12.7C36,42.4,38.4,43.4,41.4,43.5z M33.8,27.9C33.8,27.9,33.8,27.8,33.8,27.9c0.3-7.4,5.5-8.2,7.8-8.2h0 c0,0,0.1,0,0.1,0c2.8,0.1,7.4,1.2,7.8,8.1c0,0,0,0.1,0,0.1c0,0.1,0.7,7-2.5,10.7c-1.3,1.4-3,2.2-5.3,2.2c0,0,0,0-0.1,0l0,0 c0,0,0,0-0.1,0c-2.2,0-4-0.7-5.2-2.2C33.1,34.9,33.8,28,33.8,27.9z"></path> <path class="st0" d="M62.5,56.1C62.5,56.1,62.5,56.1,62.5,56.1c0-0.1,0-0.2,0-0.3c-0.1-2-0.2-6.7-4.6-8.3c0,0-0.1,0-0.1,0 c-4.6-1.2-8.4-3.8-8.5-3.9c-0.6-0.4-1.5-0.3-1.9,0.3s-0.3,1.5,0.3,1.9c0.2,0.1,4.2,2.9,9.3,4.3c2.4,0.8,2.6,3.4,2.7,5.7 c0,0.1,0,0.2,0,0.3c0,0.9-0.1,2.3-0.2,3.2c-1.7,0.9-8.1,4.2-18,4.2c-9.8,0-16.3-3.3-18-4.2c-0.2-0.8-0.2-2.2-0.2-3.2 c0-0.1,0-0.2,0-0.3c0.1-2.3,0.3-4.9,2.7-5.7c5.1-1.3,9.1-4.1,9.3-4.3c0.6-0.4,0.8-1.3,0.3-1.9s-1.3-0.8-1.9-0.3 c0,0-3.8,2.7-8.5,3.9c0,0-0.1,0-0.1,0c-4.4,1.5-4.6,6.2-4.6,8.3c0,0.1,0,0.2,0,0.3c0,0,0,0,0,0c0,0.5,0,3.3,0.5,4.6 c0.1,0.3,0.3,0.5,0.5,0.6c0.3,0.2,7.6,4.9,19.9,4.9s19.6-4.7,19.9-4.9c0.2-0.2,0.4-0.4,0.5-0.6C62.6,59.3,62.6,56.6,62.5,56.1z"></path> </g> </g> </svg> 