<?xml version="1.0" encoding="UTF-8"?> <svg xmlns="http://www.w3.org/2000/svg" xmlns:xlink="http://www.w3.org/1999/xlink" version="1.1" id="Capa_1" x="0px" y="0px" viewBox="0 0 57.8 65.4" style="enable-background:new 0 0 57.8 65.4;" xml:space="preserve"> <style type="text/css"> .st0{fill:#40C29A;} </style> <g> <g> <path class="st0" d="M39.2,42.6h-7.3c-0.4,0-0.7-0.3-0.7-0.7s0.3-0.7,0.7-0.7h7.3c1.2,0,2.2-1,2.2-2.2v-1.5c0-0.4,0.3-0.7,0.7-0.7 h1.5c0.4,0,0.7-0.3,0.7-0.7v-8.8c0-0.4-0.3-0.7-0.7-0.7h-1.5c-0.4,0-0.7-0.3-0.7-0.7v-1.5c0-1.2-1-2.2-2.2-2.2h-4.4 c-0.4,0-0.7-0.3-0.7-0.7s0.3-0.7,0.7-0.7h4.4c2,0,3.7,1.6,3.7,3.7V25h0.7c1.2,0,2.2,1,2.2,2.2V36c0,1.2-1,2.2-2.2,2.2h-0.7V39 C42.9,41,41.3,42.6,39.2,42.6z"></path> <path class="st0" d="M20.2,42.6h-5.9c-2,0-3.7-1.6-3.7-3.7V24.3c0-2,1.6-3.7,3.7-3.7h10.3c0.4,0,0.7,0.3,0.7,0.7s-0.3,0.7-0.7,0.7 H14.3c-1.2,0-2.2,1-2.2,2.2V39c0,1.2,1,2.2,2.2,2.2h5.9c0.4,0,0.7,0.3,0.7,0.7S20.6,42.6,20.2,42.6z"></path> <path class="st0" d="M24.3,45.6c-0.1,0-0.2,0-0.3-0.1c-0.3-0.2-0.5-0.5-0.4-0.9l3.1-9.3h-5.7c-0.3,0-0.5-0.2-0.6-0.4 c-0.1-0.2-0.1-0.5,0-0.8l10.1-14.6c0.2-0.3,0.6-0.4,0.9-0.3c0.3,0.1,0.5,0.5,0.4,0.8l-2.1,9.4h5.8c0.3,0,0.5,0.2,0.7,0.4 c0.1,0.3,0.1,0.5-0.1,0.8L24.9,45.3C24.7,45.5,24.5,45.6,24.3,45.6L24.3,45.6z M22.3,33.8h5.4c0.2,0,0.5,0.1,0.6,0.3 s0.2,0.4,0.1,0.7l-2,6.2l7.7-10.1h-5.3c-0.2,0-0.4-0.1-0.6-0.3c-0.1-0.2-0.2-0.4-0.1-0.6l1.5-6.6L22.3,33.8z"></path> </g> </g> </svg> 