<?xml version="1.0" encoding="UTF-8"?> <svg xmlns="http://www.w3.org/2000/svg" xmlns:xlink="http://www.w3.org/1999/xlink" version="1.1" id="Layer_1" x="0px" y="0px" viewBox="0 0 75.9 72.7" style="enable-background:new 0 0 75.9 72.7;" xml:space="preserve"> <style type="text/css"> .st0{fill:#FB877F;} </style> <g> <path class="st0" d="M36.7,60.9c-0.9-0.1-1.8-0.2-2.7-0.3c-3.1-0.4-6-1.1-8.8-2.4c-2.3-1.1-3.5-3-3.5-5.6c0-5.4,0-10.8,0-16.3 c0-1.4,0.5-2.5,1.5-3.4c0.1-0.1,0.2-0.4,0.2-0.6c0-2.7,0-5.4,0.1-8c0.2-4.1,1.8-7.6,4.8-10.4c3.4-3.2,7.5-4.5,12.1-4.1 c3.7,0.4,6.9,2,9.5,4.7c2,2.1,3.4,4.7,3.9,7.5c0.2,1.1,0.3,2.2,0.3,3.3c0,2.3,0,4.6,0,6.9c0,0.2,0.1,0.5,0.2,0.6 c1,0.9,1.5,2,1.5,3.3c0,5.5,0,10.9,0,16.4c0,2.8-1.4,4.7-3.9,5.7c-3.4,1.4-6.9,2.1-10.5,2.4c-0.2,0-0.4,0.1-0.5,0.1 C39.3,60.9,38,60.9,36.7,60.9z M38.7,33.6c-4.2,0-8.4,0-12.5,0c-1.8,0-2.9,1-2.9,2.8c0,5.4,0,10.9,0,16.3c0,1.8,0.8,3.2,2.5,4 c0.5,0.3,1.1,0.5,1.6,0.7c3,1.1,6.1,1.7,9.3,1.8c5,0.2,9.8-0.3,14.5-2.3c2-0.8,3-2.2,3-4.4c0-5.3,0-10.6,0-16c0-0.3,0-0.7-0.1-1 c-0.3-1.2-1.3-1.9-2.8-1.9C47,33.5,42.8,33.6,38.7,33.6z M28.4,31.9c6.9,0,13.7,0,20.6,0c0-0.4,0-0.9,0-1.3c0-2.2,0.1-4.4-0.1-6.6 c-0.6-5.7-5.3-9.6-11.1-9.2c-4.5,0.3-8.5,3.9-9.3,8.3c-0.1,0.6-0.2,1.2-0.2,1.8C28.4,27.2,28.4,29.6,28.4,31.9z M26.8,31.9 c0-0.2,0-0.4,0-0.6c0-2,0-4,0-6c0-0.9,0.1-1.8,0.2-2.7c1.3-6.2,7.3-10.3,13.5-9.3c5.5,0.8,9.8,5.7,10,11.2c0.1,2.3,0,4.6,0,6.8 c0,0.2,0,0.4,0,0.6c0.6,0,1.2,0.1,1.8,0.1c0-0.1,0-0.2,0-0.3c0-2.2,0.1-4.4,0-6.6c0-1.3-0.2-2.5-0.5-3.7c-1.2-4.3-3.9-7.3-8-9 c-4.3-1.8-8.6-1.4-12.5,1.2c-3.9,2.5-6,6.2-6.3,10.8c-0.1,2.4,0,4.9,0,7.3c0,0.1,0,0.2,0,0.3C25.6,32,26.2,32,26.8,31.9z"></path> <path class="st0" d="M36.2,48.7c0-0.1,0-0.2,0-0.2c0.1-0.8-0.1-1.4-0.7-2c-1.1-1.2-1.3-2.7-0.7-4.2c0.6-1.5,1.8-2.4,3.4-2.6 c1.9-0.2,3.6,0.8,4.3,2.5c0.7,1.6,0.3,3.5-1,4.8c-0.2,0.2-0.3,0.4-0.3,0.7c0,0.7,0,1.5,0,2.2c0,1.4-1.1,2.5-2.5,2.5 c-1.4,0-2.4-1.1-2.5-2.5C36.2,49.5,36.2,49.1,36.2,48.7C36.2,48.7,36.2,48.7,36.2,48.7z M41.3,43.8c-0.1-1-0.5-1.8-1.5-2.2 c-0.9-0.5-1.8-0.4-2.7,0.2c-1.4,1-1.4,3.1,0,4.1c0.5,0.4,0.7,0.7,0.7,1.3c0,0.8,0,1.6,0,2.4c0,0.7,0.3,1.1,0.9,1.1 c0.6,0,0.9-0.4,0.9-1.1c0-0.8,0-1.6,0-2.4c0-0.6,0.2-1,0.7-1.3C40.9,45.4,41.2,44.7,41.3,43.8z"></path> <path class="st0" d="M25.1,48.5c0-1.5,0-3,0-4.5c0-0.4,0.1-0.7,0.5-0.9c0.4-0.2,0.9,0,1.1,0.4c0.1,0.2,0.1,0.4,0.1,0.5 c0,2.9,0,5.9,0,8.8c0,0.1,0,0.2,0,0.3c-0.1,0.5-0.4,0.8-0.8,0.8c-0.5,0-0.8-0.3-0.8-0.9C25.1,51.6,25.1,50.1,25.1,48.5z"></path> <path class="st0" d="M52.3,43.9c0,1.1,0,2.1,0,3.2c0,0.6-0.3,1-0.8,1c-0.5,0-0.8-0.4-0.8-1c0-2.2,0-4.3,0-6.5c0-0.6,0.3-1,0.8-1 c0.5,0,0.8,0.4,0.8,1C52.3,41.7,52.3,42.8,52.3,43.9z"></path> <path class="st0" d="M52.2,36.6c0,0.2,0,0.3,0,0.5c0,0.4-0.3,0.7-0.7,0.7c-0.4,0-0.7-0.2-0.8-0.6c-0.1-0.4-0.1-0.7,0-1.1 c0.1-0.5,0.4-0.7,0.8-0.7c0.4,0,0.7,0.3,0.7,0.8C52.3,36.3,52.3,36.5,52.2,36.6C52.2,36.6,52.2,36.6,52.2,36.6z"></path> </g> </svg> 