<?xml version="1.0" encoding="UTF-8"?> <svg xmlns="http://www.w3.org/2000/svg" xmlns:xlink="http://www.w3.org/1999/xlink" version="1.1" id="Layer_1" x="0px" y="0px" viewBox="0 0 86.2 82.7" style="enable-background:new 0 0 86.2 82.7;" xml:space="preserve"> <style type="text/css"> .st0{fill:#F67F7A;} </style> <g transform="translate(-189 -571)"> <path class="st0" d="M259,586l-22.2-6.7c-1.8-0.6-3.6-0.6-5.2,0l-22.2,6.7c-1.6,0.4-2.8,2.1-2.8,3.9v19c0,8.8,2.5,17.2,7.3,24.5 c4.6,7,11.2,12.4,19,15.7c0.4,0.1,1,0.3,1.5,0.3c0.4,0,1-0.1,1.5-0.3c7.6-3.1,14.2-8.7,19-15.7c4.8-7.2,7.3-15.7,7.3-24.5v-19 C261.9,588.1,260.7,586.4,259,586z M258.7,608.8c0,8.1-2.4,16-6.9,22.7c-4.3,6.6-10.4,11.5-17.5,14.5c-0.1,0.1-0.4,0.1-0.6,0 c-7.2-3-13.1-8.1-17.5-14.5c-4.5-6.7-6.9-14.5-6.9-22.7v-19c0-0.3,0.3-0.6,0.6-0.7l22.2-6.7c0.6-0.1,1.2-0.3,1.8-0.3 s1.2,0.1,1.8,0.3l22.2,6.7c0.3,0.1,0.6,0.4,0.6,0.7L258.7,608.8L258.7,608.8z"></path> <path class="st0" d="M251.4,593l-16.6-5.1c-0.4-0.1-0.9-0.1-1.3,0l-16.6,5.1c-1,0.3-1.6,1.2-1.6,2.2v13.4c0,7.2,2.1,13.9,6,19.7 c3,4.5,7.2,8.2,11.8,10.7c0.3,0.1,0.7,0.3,1,0.3s0.7-0.1,1-0.3c4.6-2.5,8.8-6.3,11.8-10.7c3.9-5.8,6-12.5,6-19.7v-13.4 C253.1,594.3,252.5,593.3,251.4,593z M249.9,608.8c0,6.4-1.9,12.5-5.5,17.8c-2.7,3.9-6.3,7.2-10.3,9.6c-4-2.2-7.6-5.5-10.3-9.6 c-3.6-5.2-5.5-11.3-5.5-17.8V596l15.8-4.8l15.8,4.8L249.9,608.8L249.9,608.8z"></path> </g> </svg> 