<?xml version="1.0" encoding="UTF-8"?> <svg xmlns="http://www.w3.org/2000/svg" xmlns:xlink="http://www.w3.org/1999/xlink" version="1.1" id="Capa_1" x="0px" y="0px" viewBox="0 0 79 81" style="enable-background:new 0 0 79 81;" xml:space="preserve"> <style type="text/css"> .st0{fill:#FFFFFF;} </style> <g> <path class="st0" d="M46.9,57.6c-0.2,1.2-0.5,2.4-0.9,3.4l3.8,3.4c-0.5,1.1-1.1,2.2-1.8,3.2L43.1,66c-0.8,0.9-1.6,1.8-2.5,2.5 l1.6,4.8c-1,0.7-2.1,1.3-3.2,1.8l-3.4-3.8c-1.1,0.4-2.3,0.7-3.4,0.9l-1.1,5c-0.6,0-1.2,0.1-1.8,0.1s-1.2,0-1.8-0.1l-1.1-5 c-1.2-0.2-2.4-0.5-3.4-0.9l-3.4,3.8c-1.1-0.5-2.2-1.1-3.2-1.8l1.6-4.8C17,67.8,16.1,67,15.4,66l-4.8,1.6c-0.7-1-1.3-2.1-1.8-3.2 l3.8-3.4c-0.4-1.1-0.7-2.3-0.9-3.4l-5-1.1c0-0.6-0.1-1.2-0.1-1.8s0-1.2,0.1-1.8l5-1.1c0.2-1.2,0.5-2.4,0.9-3.4L8.7,45 c0.5-1.1,1.1-2.2,1.8-3.2l4.7,1.5c0.8-0.9,1.6-1.8,2.5-2.5l-1.6-4.8c1-0.7,2.1-1.3,3.2-1.8l3.4,3.8c1.1-0.4,2.3-0.7,3.4-0.9l1.1-5 c0.6,0,1.2-0.1,1.8-0.1c0.6,0,1.2,0,1.8,0.1l1.1,5c1.2,0.2,2.4,0.5,3.4,0.9l3.4-3.8c1.1,0.5,2.2,1.1,3.2,1.8l-1.6,4.8 c0.9,0.8,1.8,1.6,2.5,2.5l4.8-1.6c0.7,1,1.3,2.1,1.8,3.2L46,48.3c0.4,1.1,0.7,2.3,0.9,3.4l5,1.1c0,0.6,0.1,1.2,0.1,1.8 s0,1.2-0.1,1.8L46.9,57.6z M29.2,42.6c-6.6,0-12,5.4-12,12s5.4,12,12,12s12-5.4,12-12S35.8,42.6,29.2,42.6z"></path> <path class="st0" d="M63.6,23.8c-0.2,0.6-0.4,1.2-0.7,1.8l1.9,3.6c-0.6,0.8-1.4,1.5-2.2,2.2l-3.6-1.9c-0.6,0.3-1.2,0.5-1.8,0.7 l-1.3,3.9c-0.5,0-1,0.1-1.5,0.1c-0.5,0-1,0-1.5-0.1l-1.3-3.9c-0.6-0.2-1.2-0.4-1.8-0.7l-3.6,1.9c-0.8-0.6-1.5-1.4-2.2-2.2l1.9-3.6 c-0.3-0.6-0.5-1.2-0.7-1.8l-3.9-1.3c0-0.5-0.1-1-0.1-1.5c0-0.5,0-1,0.1-1.5l3.9-1.3c0.2-0.6,0.4-1.2,0.7-1.8L44,12.9 c0.6-0.8,1.4-1.5,2.2-2.2l3.6,1.9c0.6-0.3,1.2-0.5,1.8-0.7l1.3-3.9c0.5,0,1-0.1,1.5-0.1c0.5,0,1,0,1.5,0.1l1.3,3.9 c0.6,0.2,1.2,0.4,1.8,0.7l3.6-1.9c0.8,0.6,1.5,1.4,2.2,2.2l-1.9,3.6c0.3,0.6,0.5,1.2,0.7,1.8l3.9,1.3c0,0.5,0.1,1,0.1,1.5 c0,0.5,0,1-0.1,1.5L63.6,23.8z M54.4,16.3c-2.6,0-4.8,2.1-4.8,4.8s2.1,4.8,4.8,4.8c2.6,0,4.8-2.1,4.8-4.8S57,16.3,54.4,16.3z"></path> <path class="st0" d="M73.3,50.9c-0.2,0.7-0.4,1.3-0.8,1.9l1.2,2.5c-0.5,0.7-1.2,1.3-1.9,1.9L69.4,56c-0.6,0.3-1.2,0.6-1.9,0.8 l-0.9,2.6c-0.4,0-0.8,0.1-1.3,0.1c-0.4,0-0.9,0-1.3-0.1L63,56.7c-0.7-0.2-1.3-0.4-1.9-0.8l-2.5,1.2c-0.7-0.5-1.3-1.2-1.9-1.9 l1.2-2.5c-0.3-0.6-0.6-1.2-0.8-1.9L54.6,50c0-0.4-0.1-0.8-0.1-1.3c0-0.4,0-0.9,0.1-1.3l2.6-0.9c0.2-0.7,0.4-1.3,0.8-1.9l-1.2-2.5 c0.5-0.7,1.2-1.3,1.9-1.9l2.5,1.2c0.6-0.3,1.2-0.6,1.9-0.8l0.9-2.6c0.4,0,0.8-0.1,1.3-0.1c0.4,0,0.9,0,1.3,0.1l0.9,2.6 c0.7,0.2,1.3,0.4,1.9,0.8l2.5-1.2c0.7,0.5,1.3,1.2,1.9,1.9l-1.2,2.5c0.3,0.6,0.6,1.2,0.8,1.9l2.6,0.9c0,0.4,0.1,0.8,0.1,1.3 c0,0.4,0,0.9-0.1,1.3L73.3,50.9z M65.2,45.1c-2,0-3.6,1.6-3.6,3.6c0,2,1.6,3.6,3.6,3.6c2,0,3.6-1.6,3.6-3.6 C68.8,46.7,67.2,45.1,65.2,45.1z"></path> <path class="st0" d="M76.2,10.3L69,8.8L67.6,16l2.4,0.4l0.6-3.2c1.2,2.4,1.8,5.1,1.8,7.8c0,4.2-1.4,8-3.9,11.3l1.9,1.5 c2.9-3.6,4.5-8.1,4.5-12.8c0-3.1-0.7-6.3-2.1-9l3.1,0.6L76.2,10.3z"></path> <path class="st0" d="M31.3,20.2l-1.7,1.7l1.7,1.7c-0.7,0-1.3-0.1-2-0.1c-9.3,0-18,4.1-24,11.2l1.8,1.5c5.4-6.6,13.5-10.3,22.1-10.3 c0.6,0,1.2,0,1.8,0.1l-1.5,1.5l1.7,1.7l4.5-4.5L31.3,20.2z"></path> </g> </svg> 