<?xml version="1.0" encoding="UTF-8"?> <svg xmlns="http://www.w3.org/2000/svg" xmlns:xlink="http://www.w3.org/1999/xlink" version="1.1" id="Capa_1" x="0px" y="0px" viewBox="0 0 79 81" style="enable-background:new 0 0 79 81;" xml:space="preserve"> <style type="text/css"> .st0{fill:#40C29A;} </style> <g> <g> <g> <g> <path class="st0" d="M66.1,23.6c-1.9-2-4.6-3-7.3-3l0,0c-2.8,0-5.4,1.1-7.3,3L38.2,36.9c-2.6,2.7-3.6,6.5-2.6,10.1 c0.3,1.1,1.4,1.7,2.4,1.3c1.1-0.3,1.7-1.4,1.3-2.4c-0.6-2.2,0-4.6,1.6-6.2l13.3-13.3c2.5-2.5,6.5-2.5,9,0c2.5,2.5,2.5,6.5,0,9 L50,48.7c-0.9,0.9-2,1.5-3.2,1.7c-1.1,0.2-1.8,1.2-1.5,2.3c0.2,0.9,1,1.6,1.9,1.6c0.1,0,0.3,0,0.4,0c2-0.4,3.7-1.4,5.2-2.8 L66,38.2C70.1,34.1,70.1,27.6,66.1,23.6z"></path> </g> </g> </g> <g> <g> <g> <path class="st0" d="M47.6,39.4c-0.3-1.1-1.4-1.7-2.4-1.3c-1.1,0.3-1.7,1.4-1.3,2.4c0.6,2.2,0,4.6-1.6,6.2L28.9,60.1 c-2.5,2.5-6.5,2.5-9,0c-2.5-2.5-2.5-6.5,0-9l13.3-13.3c0.9-0.9,2-1.5,3.2-1.7c1.1-0.2,1.8-1.2,1.5-2.3c-0.2-1.1-1.2-1.8-2.3-1.5 h0c-2,0.4-3.7,1.4-5.2,2.8L17.1,48.2c-4,4.1-3.9,10.6,0.1,14.6c4,4,10.5,4,14.5,0l13.3-13.3C47.6,46.9,48.6,43,47.6,39.4z"></path> </g> </g> </g> </g> </svg> 