<?xml version="1.0" encoding="UTF-8"?> <svg xmlns="http://www.w3.org/2000/svg" width="109" height="109" viewBox="0 0 109 109" fill="none"><g clip-path="url(#clip0_201_684)"><path d="M55.4023 55.7789L56.1887 54.9934C59.1325 52.0149 63.0881 50.2483 67.273 50.0429H67.4712L67.6662 50.0726C69.2841 50.3226 70.9382 50.1888 72.4947 49.682C74.0513 49.1752 75.4665 48.3095 76.6261 47.1551L76.6724 47.1089C76.8674 46.9142 77.0193 46.7558 77.1614 46.5974C78.885 44.6524 79.8199 42.1349 79.7832 39.5376C79.7466 36.9403 78.7409 34.4501 76.9631 32.5545C76.0096 31.545 74.8632 30.7367 73.5917 30.1771C72.3202 29.6176 70.9494 29.3182 69.5602 29.2967C68.1709 29.2751 66.7915 29.5319 65.5032 30.0517C64.2149 30.5716 63.044 31.344 62.0596 32.3235L61.9902 32.3961L61.9076 32.4786C60.7631 33.6315 59.9035 35.0351 59.3971 36.5779C58.8907 38.1208 58.7514 39.7603 58.9903 41.3664L59.0201 41.5611V41.7558C58.8136 45.9487 57.0461 49.9131 54.0643 52.8713L53.278 53.6601C51.6204 55.3226 49.6341 56.6216 47.4456 57.474C45.2572 58.3264 42.9148 58.7135 40.5682 58.6106C40.403 58.6106 40.2378 58.6106 40.0693 58.6106C37.3102 58.6118 34.6642 59.7061 32.7116 61.6535L32.3812 61.9835C31.3758 62.9395 30.5721 64.0869 30.0175 65.358C29.4629 66.6292 29.1687 67.9984 29.1521 69.3849C29.1355 70.7714 29.3969 72.1472 29.921 73.4312C30.445 74.7152 31.2211 75.8815 32.2034 76.8612C33.1857 77.8409 34.3544 78.6143 35.6406 79.1357C36.9268 79.6572 38.3045 79.9162 39.6924 79.8975C41.0804 79.8787 42.4505 79.5826 43.7221 79.0266C44.9937 78.4706 46.1411 77.666 47.0965 76.6601L47.1659 76.5875L47.3014 76.4456C48.3744 75.4127 49.2124 74.1614 49.7585 72.7765C50.3046 71.3916 50.546 69.9055 50.4664 68.4192C50.3566 66.0844 50.7394 63.7526 51.5897 61.575C52.44 59.3975 53.7389 57.4227 55.4023 55.7789Z" fill="white"></path><path d="M98.4843 58.3433C96.0781 58.3433 93.7463 59.1768 91.8863 60.7017C90.0263 62.2266 88.7532 64.3486 88.2838 66.706C87.8144 69.0635 88.1778 71.5106 89.3121 73.6304C90.4464 75.7502 92.2815 77.4116 94.5045 78.3314C96.7276 79.2512 99.2011 79.3725 101.504 78.6748C103.806 77.977 105.795 76.5033 107.132 74.5047C108.469 72.5061 109.071 70.1063 108.835 67.7143C108.599 65.3222 107.54 63.0858 105.839 61.3862C104.875 60.4182 103.729 59.6509 102.467 59.1285C101.204 58.6062 99.8507 58.3393 98.4843 58.3433Z" fill="white"></path><path d="M61.8016 90.6832C60.3483 92.136 59.3587 93.9866 58.9581 96.0011C58.5574 98.0157 58.7638 100.104 59.5509 102.001C60.338 103.898 61.6707 105.52 63.3803 106.661C65.09 107.802 67.0999 108.411 69.156 108.411C71.212 108.411 73.222 107.802 74.9316 106.661C76.6413 105.52 77.9739 103.898 78.761 102.001C79.5482 100.104 79.7544 98.0157 79.3538 96.0011C78.9532 93.9866 77.9637 92.136 76.5103 90.6832C75.5485 89.7113 74.4033 88.9396 73.1409 88.413C71.8785 87.8864 70.524 87.6152 69.156 87.6152C67.7879 87.6152 66.4335 87.8864 65.1711 88.413C63.9086 88.9396 62.7634 89.7113 61.8016 90.6832Z" fill="white"></path><path d="M106.565 91.4818L106.499 91.4026L106.271 91.1353L106.222 91.0825C106.116 90.9637 105.997 90.835 105.872 90.7129L105.753 90.5974C105.64 90.4851 105.53 90.3751 105.422 90.2673L105.27 90.1353C105.174 90.0561 105.082 89.9736 104.986 89.8977L104.847 89.7921L104.811 89.7624L104.534 89.5577L104.348 89.429C104.253 89.3663 104.157 89.3003 104.061 89.2409L103.879 89.1287L103.569 88.9472L103.404 88.8548C103.278 88.7888 103.156 88.7261 103.034 88.67L102.915 88.6073C102.58 88.4508 102.237 88.3131 101.887 88.1947L101.785 88.1617C101.643 88.1122 101.504 88.0693 101.365 88.0297L101.223 87.9934C101.094 87.9571 100.962 87.9241 100.83 87.8944L100.685 87.8614L100.285 87.7855L100.153 87.7624L99.7132 87.703H99.6141C99.4357 87.6832 99.2606 87.67 99.0822 87.6601H99.0458C98.6728 87.6386 98.2989 87.6386 97.9258 87.6601C95.5899 87.7642 93.2581 87.3774 91.0813 86.5246C88.9044 85.6718 86.931 84.3721 85.2887 82.7096L84.5023 81.9241C82.8388 80.2836 81.5382 78.3128 80.6845 76.1389C79.8309 73.965 79.4432 71.6365 79.5466 69.3036C79.5664 68.934 79.5664 68.5643 79.5466 68.2013V68.0924C79.5466 67.934 79.5334 67.7756 79.507 67.6172V67.5148C79.4894 67.3696 79.4695 67.2244 79.4475 67.0792L79.4244 66.9406C79.4013 66.8086 79.3748 66.6766 79.3451 66.5412L79.3153 66.396C79.2856 66.2673 79.2526 66.1386 79.2162 66.0066L79.1766 65.8581C79.137 65.7228 79.094 65.5841 79.0477 65.4488L79.0213 65.363C78.9007 65.0064 78.7595 64.6571 78.5984 64.3168L78.5422 64.2013C78.4794 64.0726 78.42 63.9505 78.354 63.8284L78.2581 63.6601C78.202 63.5544 78.1425 63.4521 78.0797 63.3498L77.9674 63.1716C77.9046 63.0693 77.8419 62.9769 77.7791 62.8812L77.6535 62.703L77.4421 62.4224L77.3066 62.2442C77.2339 62.1518 77.1513 62.0594 77.072 61.9637L76.9399 61.8119C76.8408 61.6997 76.735 61.5908 76.6293 61.4818L76.5203 61.3696C76.3915 61.2442 76.2593 61.1188 76.1272 61L76.0809 60.9571C75.9983 60.8845 75.9058 60.8086 75.8132 60.7327L75.7439 60.67C75.6084 60.561 75.4796 60.462 75.3507 60.3663C73.6039 59.0773 71.4963 58.3681 69.3247 58.3385C67.1531 58.3089 65.0269 58.9604 63.2455 60.2013L63.1596 60.264C63.0704 60.3267 62.9779 60.396 62.8887 60.4653L62.7268 60.5874L62.5153 60.7591L62.3138 60.934C62.2577 60.9835 62.1949 61.0363 62.1354 61.0924L61.7456 61.4752C61.6795 61.5412 61.6167 61.6039 61.5572 61.67C61.4978 61.736 61.435 61.802 61.3755 61.8713C61.3161 61.9406 61.2599 62.0033 61.207 62.0693L61.0319 62.2805L60.8733 62.4851C60.8205 62.5544 60.7676 62.6271 60.7181 62.6997C60.6685 62.7723 60.6157 62.8416 60.5661 62.9142L60.4207 63.1353C60.3745 63.2046 60.3315 63.2739 60.2885 63.3465C60.2456 63.4191 60.1961 63.5016 60.1498 63.5775C60.1036 63.6535 60.0672 63.7261 60.0275 63.7987C59.9879 63.8713 59.9483 63.9505 59.9086 64.0297C59.869 64.1089 59.8326 64.1782 59.7963 64.2541C59.7599 64.33 59.7203 64.4125 59.6873 64.4917L59.5849 64.7261C59.5518 64.802 59.5188 64.8878 59.4857 64.9703L59.4031 65.198C59.3734 65.2772 59.3437 65.363 59.3172 65.4455C59.2908 65.528 59.2644 65.6006 59.2413 65.6766C59.2181 65.7525 59.1917 65.8482 59.1686 65.9307C59.1455 66.0132 59.1257 66.0858 59.1058 66.165C59.086 66.2442 59.0628 66.3333 59.0463 66.4191C59.0298 66.5049 59.0067 66.5809 58.9902 66.6601C58.9736 66.7393 58.9605 66.8284 58.9439 66.9175C58.9274 67.0066 58.9142 67.0759 58.9043 67.1551C58.8944 67.2343 58.8811 67.3267 58.8679 67.4092C58.8547 67.4917 58.8481 67.5775 58.8382 67.6568L58.8184 67.9142V67.9505C58.8184 68.0165 58.8184 68.0858 58.8184 68.1551C58.8184 68.2244 58.8184 68.3135 58.8184 68.3894V68.4521C58.8184 68.5214 58.8184 68.5908 58.8184 68.6601C58.8184 68.7294 58.8184 68.835 58.8184 68.9208V68.9901C58.8184 69.0462 58.8184 69.1023 58.8184 69.1584C58.8184 69.2145 58.8184 69.3168 58.8184 69.3927V69.4785C58.8184 69.5412 58.8184 69.6006 58.8184 69.6634C58.8184 69.7261 58.8184 69.8053 58.8415 69.8746V70C58.8415 70.0561 58.8415 70.1122 58.8647 70.1683C58.8878 70.2244 58.8877 70.3168 58.8976 70.3927L58.9142 70.4884L58.9439 70.6667C58.9439 70.7228 58.967 70.7822 58.9802 70.8416L59.0166 71.0099C59.0166 71.0594 59.0364 71.1089 59.0496 71.1584L59.0992 71.3465L59.1421 71.5082C59.1421 71.5544 59.1653 71.6006 59.1785 71.6469L59.238 71.8383L59.2908 71.9967C59.2908 72.0396 59.3173 72.0858 59.3338 72.132C59.3503 72.1782 59.38 72.264 59.4065 72.33L59.4626 72.4818L59.5122 72.6106L59.5882 72.7888L59.6609 72.9571C59.6609 72.9967 59.6939 73.0363 59.7137 73.0759C59.7335 73.1155 59.7699 73.1947 59.7996 73.2541L59.8789 73.4191L59.9384 73.5379L60.0375 73.7129L60.1894 73.9901L60.2985 74.165L60.4637 74.4257C60.5077 74.4917 60.5507 74.5544 60.5926 74.6138L60.7611 74.8581C60.8139 74.9307 60.8701 74.9967 60.9229 75.066L61.0848 75.2772L61.3359 75.571L61.4383 75.6865C61.5572 75.8185 61.6795 75.9472 61.8083 76.0759C61.9372 76.2046 62.0759 76.3366 62.2114 76.4587L62.3435 76.5709C62.436 76.6535 62.5319 76.736 62.631 76.8152L62.7896 76.9373C62.8953 77.0198 62.9746 77.0825 63.0605 77.1419L63.1629 77.2145L63.2356 77.264L63.4999 77.4455L63.6288 77.528L63.6882 77.561C63.7774 77.6205 63.8699 77.6766 63.9624 77.7294L64.1012 77.8053L64.1475 77.8317L64.425 77.9802L64.6001 78.066C64.7091 78.1188 64.8049 78.165 64.904 78.2079L65.089 78.2904L65.393 78.4125L65.578 78.4818C65.6804 78.5214 65.7861 78.5577 65.8918 78.5907L66.0636 78.6469L66.394 78.7459L66.5526 78.7888C66.6748 78.8218 66.7971 78.8482 66.9161 78.8746L67.0515 78.9043C67.1902 78.934 67.3257 78.9571 67.4578 78.9769L67.5636 78.9967C67.7156 79.0198 67.8676 79.0396 68.0229 79.0561H68.0889C68.6211 79.1118 69.1568 79.1261 69.6912 79.099C69.9423 79.099 70.1901 79.0825 70.4379 79.0825C74.9116 79.0913 79.1994 80.8716 82.3615 84.033L83.1478 84.8218C84.8059 86.4711 86.1026 88.4468 86.9557 90.6233C87.8088 92.7999 88.1998 95.1299 88.1036 97.4653C88.0765 98.0091 88.0909 98.5541 88.1465 99.0957V99.1518C88.1465 99.297 88.1828 99.4521 88.2059 99.6039V99.703C88.2291 99.8482 88.2522 99.9802 88.2786 100.112L88.3117 100.244C88.3381 100.373 88.3645 100.492 88.3976 100.611L88.4405 100.779C88.4702 100.884 88.5033 100.997 88.5396 101.109C88.5561 101.165 88.576 101.224 88.5958 101.281C88.6289 101.386 88.6652 101.496 88.7048 101.611C88.7246 101.667 88.7477 101.729 88.7742 101.792C88.8006 101.855 88.8535 101.993 88.8965 102.092C88.9394 102.191 88.9493 102.221 88.979 102.284C89.0088 102.347 89.0649 102.469 89.1112 102.564C89.1574 102.66 89.174 102.696 89.2037 102.756C89.2334 102.815 89.3028 102.944 89.3523 103.033L89.3821 103.082L89.4614 103.228C89.511 103.314 89.5671 103.403 89.6233 103.492L89.6597 103.554L89.7389 103.68L89.9141 103.937L89.9702 104.016L90.0429 104.122L90.218 104.35L90.37 104.548C90.4525 104.65 90.5351 104.743 90.6144 104.835L90.7334 104.97C90.8523 105.106 90.9812 105.241 91.11 105.373C91.2389 105.505 91.371 105.624 91.5031 105.746L91.6716 105.888C91.7509 105.957 91.8269 106.026 91.9095 106.092L92.1441 106.274L92.3291 106.416L92.5835 106.591L92.7586 106.713L92.8611 106.776L93.0329 106.884L93.2014 106.99L93.3103 107.049L93.4854 107.149L93.6539 107.238L93.7696 107.297L93.9414 107.38L94.1132 107.465L94.242 107.518L94.4039 107.591L94.5856 107.667L94.7178 107.716L94.8796 107.776L95.0614 107.845L95.2068 107.891L95.3621 107.941L95.5437 107.997C95.5924 108.013 95.6421 108.026 95.6925 108.036L95.8411 108.076L96.0328 108.129L96.1946 108.162L96.3268 108.191L96.5316 108.234L96.6869 108.261L96.819 108.281L97.0271 108.314L97.1989 108.333H97.3146L97.5293 108.36H97.7011H97.7705H98.0315H98.2298H98.3058C98.3817 108.36 98.4577 108.36 98.5337 108.36H98.7782C98.8773 108.36 98.9566 108.36 99.0392 108.36H99.2507H99.3002L99.5414 108.337L99.7826 108.31L100.04 108.274L100.255 108.238C100.367 108.218 100.453 108.205 100.536 108.185L100.777 108.132C100.863 108.112 100.949 108.096 101.031 108.073L101.269 108.01L101.52 107.937L101.752 107.861L102.003 107.776L102.234 107.69L102.478 107.591L102.706 107.492L102.944 107.383L103.172 107.271L103.404 107.149C103.48 107.109 103.552 107.069 103.622 107.026C103.691 106.983 103.777 106.937 103.853 106.891L104.064 106.759L104.292 106.611L104.5 106.465L104.718 106.307C104.788 106.251 104.857 106.201 104.923 106.145C104.989 106.089 105.062 106.033 105.131 105.977L105.33 105.809L105.535 105.62L105.726 105.439L106.113 105.043C106.166 104.988 106.218 104.928 106.271 104.865C106.331 104.802 106.387 104.736 106.44 104.67C106.499 104.597 106.559 104.528 106.615 104.455L106.737 104.3L106.942 104.023L106.992 103.947C108.238 102.168 108.893 100.044 108.865 97.8727C108.837 95.7018 108.128 93.5945 106.836 91.8482C106.76 91.736 106.661 91.6073 106.565 91.4818Z" fill="white"></path><path d="M98.6028 20.8944C101.009 20.8943 103.341 20.0608 105.201 18.536C107.061 17.0111 108.334 14.8891 108.803 12.5316C109.273 10.1742 108.909 7.72704 107.775 5.60723C106.641 3.48742 104.806 1.82608 102.583 0.906272C100.359 -0.013531 97.8859 -0.134887 95.5834 0.562889C93.2808 1.26066 91.2917 2.7344 89.9549 4.73298C88.6181 6.73155 88.0164 9.13133 88.2523 11.5234C88.4881 13.9155 89.547 16.1518 91.2485 17.8515C92.2121 18.8191 93.3582 19.5863 94.6206 20.1086C95.883 20.6309 97.2364 20.898 98.6028 20.8944Z" fill="white"></path><path d="M69.8297 20.8779C70.1139 20.8779 70.3979 20.8548 70.6788 20.8548C75.1167 20.8842 79.3619 22.6704 82.4834 25.8217L83.2697 26.6072C84.936 28.2498 86.2382 30.2239 87.0919 32.4014C87.9456 34.5789 88.3318 36.9113 88.2254 39.2475C88.113 41.3437 88.6391 43.4247 89.7343 45.2162C90.8296 47.0077 92.4425 48.4257 94.3606 49.2832C96.2787 50.1407 98.4118 50.3974 100.479 50.0197C102.546 49.6419 104.45 48.6472 105.94 47.1669C107.43 45.6865 108.436 43.7899 108.825 41.7271C109.214 39.6642 108.969 37.532 108.12 35.6114C107.272 33.6907 105.862 32.0719 104.074 30.9683C102.287 29.8646 100.206 29.328 98.1072 29.429C95.7605 29.5323 93.418 29.1454 91.2295 28.293C89.041 27.4405 87.0546 26.1414 85.3973 24.4785L84.6111 23.693C82.9471 22.037 81.6469 20.0526 80.7937 17.8666C79.9404 15.6805 79.5527 13.3408 79.6553 10.9967C79.7564 8.89979 79.2191 6.82152 78.1141 5.03583C77.0091 3.25014 75.3883 1.84086 73.4655 0.993782C71.5426 0.1467 69.4079 -0.0984215 67.3428 0.290735C65.2777 0.679891 63.3792 1.68505 61.8974 3.17371C60.4156 4.66237 59.4202 6.56464 59.0424 8.62975C58.6646 10.6949 58.9222 12.8259 59.7811 14.7418C60.64 16.6578 62.06 18.2688 63.8539 19.3624C65.6477 20.456 67.7312 20.9809 69.8297 20.868V20.8779Z" fill="white"></path><path d="M18.1054 47.033C19.5599 45.58 20.5504 43.7288 20.9517 41.7135C21.353 39.6981 21.147 37.6092 20.3598 35.7108C19.5727 33.8123 18.2396 32.1898 16.5292 31.0482C14.8189 29.9066 12.8081 29.2972 10.7511 29.2972C8.69407 29.2972 6.68326 29.9066 4.97292 31.0482C3.26258 32.1898 1.92949 33.8123 1.1423 35.7108C0.355104 37.6092 0.149132 39.6981 0.550415 41.7135C0.951698 43.7288 1.94224 45.58 3.39674 47.033C4.35827 48.0053 5.50348 48.7773 6.76591 49.3042C8.02834 49.8311 9.38289 50.1024 10.7511 50.1024C12.1193 50.1024 13.4738 49.8311 14.7362 49.3042C15.9987 48.7773 17.1439 48.0053 18.1054 47.033Z" fill="white"></path><path d="M40.0823 20.7789C41.447 20.7812 42.7986 20.5135 44.0591 19.9912C45.3197 19.469 46.4643 18.7025 47.4267 17.736C49.1274 16.0367 50.1856 13.8008 50.4211 11.4095C50.6566 9.01809 50.0547 6.61914 48.7181 4.62137C47.3814 2.6236 45.3926 1.15062 43.0907 0.453403C40.7887 -0.243808 38.316 -0.122109 36.0937 0.797764C33.8715 1.71764 32.0374 3.37877 30.9037 5.49812C29.7701 7.61746 29.4072 10.0639 29.8769 12.4206C30.3465 14.7772 31.6196 16.8983 33.4793 18.4224C35.339 19.9465 37.6702 20.7793 40.0757 20.7789H40.0823Z" fill="white"></path><path d="M11.309 20.7591C11.5931 20.7591 11.874 20.736 12.1581 20.736C16.5987 20.7649 20.8465 22.5524 23.9693 25.7063L24.7556 26.4917C26.4219 28.1344 27.7241 30.1084 28.5778 32.2859C29.4315 34.4634 29.8177 36.7959 29.7113 39.132C29.5977 41.2289 30.123 43.311 31.2181 45.1036C32.3131 46.8962 33.9263 48.3151 35.845 49.1732C37.7637 50.0312 39.8977 50.2881 41.9656 49.91C44.0334 49.5318 45.938 48.5364 47.428 47.0549C48.9179 45.5735 49.9234 43.6757 50.3116 41.6119C50.6999 39.548 50.4527 37.4151 49.6028 35.4944C48.7528 33.5737 47.34 31.9555 45.5507 30.8532C43.7613 29.751 41.6796 29.2164 39.5799 29.3201C37.2332 29.4234 34.8908 29.0365 32.7023 28.1841C30.5138 27.3317 28.5274 26.0325 26.8701 24.3696L26.0837 23.5841C24.4193 21.9285 23.1188 19.9442 22.2655 17.758C21.4122 15.5719 21.0248 13.232 21.128 10.8878C21.2291 8.7909 20.6918 6.71263 19.5868 4.92694C18.4818 3.14125 16.8611 1.73198 14.9382 0.884896C13.0154 0.0378134 10.8807 -0.207308 8.81556 0.181848C6.75045 0.571004 4.85182 1.57617 3.37005 3.06483C1.88828 4.55349 0.892883 6.45576 0.515091 8.52087C0.137299 10.586 0.394848 12.717 1.25377 14.6329C2.1127 16.5489 3.53268 18.1599 5.32654 19.2535C7.12039 20.3471 9.2039 20.872 11.3024 20.7591H11.309Z" fill="white"></path><path d="M10.4006 88.2244C9.03423 88.2204 7.68062 88.4873 6.41821 89.0096C5.1558 89.532 4.00969 90.2993 3.0463 91.2673C1.34484 92.9669 0.285989 95.2033 0.050109 97.5954C-0.185771 99.9874 0.415975 102.387 1.75276 104.386C3.08954 106.384 5.07863 107.858 7.38121 108.556C9.68379 109.254 12.1573 109.132 14.3804 108.212C16.6034 107.293 18.4385 105.631 19.5728 103.512C20.7071 101.392 21.0705 98.9446 20.6011 96.5871C20.1317 94.2297 18.8586 92.1077 16.9986 90.5828C15.1386 89.0579 12.8068 88.2245 10.4006 88.2244Z" fill="white"></path><path d="M39.167 88.2409C36.8282 88.3485 34.493 87.9633 32.313 87.1104C30.133 86.2575 28.1569 84.956 26.5133 83.2905L25.727 82.505C24.06 80.8628 22.7573 78.8889 21.9036 76.7112C21.0498 74.5336 20.6641 72.201 20.7713 69.8647C20.8843 67.7677 20.3586 65.6856 19.2632 63.893C18.1679 62.1005 16.5545 60.6816 14.6357 59.8235C12.7169 58.9653 10.5828 58.7082 8.51475 59.086C6.44672 59.4638 4.54188 60.4588 3.05133 61.9398C1.56078 63.4208 0.554531 65.3183 0.165233 67.3821C-0.224064 69.4459 0.0218517 71.579 0.870604 73.5004C1.71936 75.4217 3.1311 77.041 4.91965 78.1448C6.70821 79.2485 8.7896 79.7849 10.8895 79.6832C11.1538 79.67 11.4181 79.6634 11.6824 79.6634C16.1539 79.6736 20.4391 81.4538 23.5993 84.6139L24.3856 85.3994C26.0504 87.0548 27.3511 89.0391 28.2044 91.2253C29.0577 93.4115 29.445 95.7515 29.3414 98.0957C29.2362 100.194 29.7703 102.275 30.8733 104.064C31.9762 105.852 33.5961 107.265 35.5193 108.116C37.4425 108.966 39.5785 109.214 41.6456 108.827C43.7127 108.439 45.6137 107.435 47.0979 105.947C48.582 104.458 49.5795 102.555 49.9588 100.489C50.3381 98.4223 50.0813 96.2896 49.2223 94.3719C48.3633 92.4542 46.9425 90.8417 45.1473 89.7472C43.3522 88.6526 41.267 88.1274 39.167 88.2409Z" fill="white"></path></g><defs><clipPath id="clip0_201_684"><rect width="109" height="109" fill="white"></rect></clipPath></defs></svg> 