<?xml version="1.0" encoding="UTF-8"?> <svg xmlns="http://www.w3.org/2000/svg" width="109" height="109" viewBox="0 0 109 109" fill="none"><g clip-path="url(#clip0_12_20)"><path d="M55.4019 55.7789L56.1883 54.9934C59.1321 52.0149 63.0877 50.2483 67.2726 50.0429H67.4708L67.6658 50.0726C69.2837 50.3226 70.9378 50.1888 72.4943 49.682C74.0509 49.1752 75.4661 48.3095 76.6257 47.1551L76.672 47.1089C76.867 46.9142 77.0189 46.7558 77.161 46.5974C78.8846 44.6524 79.8195 42.1349 79.7828 39.5376C79.7462 36.9403 78.7405 34.4501 76.9627 32.5545C76.0092 31.545 74.8628 30.7366 73.5913 30.1771C72.3198 29.6176 70.949 29.3182 69.5598 29.2966C68.1705 29.2751 66.7911 29.5319 65.5028 30.0517C64.2146 30.5716 63.0436 31.344 62.0592 32.3234L61.9898 32.396L61.9072 32.4786C60.7627 33.6314 59.9031 35.0351 59.3967 36.5779C58.8903 38.1208 58.751 39.7603 58.9899 41.3663L59.0197 41.5611V41.7558C58.8132 45.9486 57.0457 49.9131 54.0639 52.8713L53.2776 53.6601C51.62 55.3226 49.6337 56.6215 47.4452 57.4739C45.2568 58.3263 42.9144 58.7135 40.5678 58.6106C40.4026 58.6106 40.2374 58.6106 40.0689 58.6106C37.3098 58.6118 34.6638 59.7061 32.7112 61.6535L32.3809 61.9835C31.3754 62.9395 30.5717 64.0869 30.0171 65.358C29.4625 66.6292 29.1683 67.9983 29.1517 69.3849C29.1351 70.7714 29.3965 72.1472 29.9206 73.4312C30.4446 74.7152 31.2207 75.8814 32.203 76.8612C33.1853 77.8409 34.354 78.6143 35.6402 79.1357C36.9264 79.6572 38.3041 79.9162 39.692 79.8974C41.08 79.8787 42.4501 79.5826 43.7217 79.0266C44.9933 78.4706 46.1407 77.6659 47.0961 76.6601L47.1655 76.5874L47.301 76.4455C48.374 75.4127 49.212 74.1614 49.7581 72.7765C50.3042 71.3916 50.5456 69.9055 50.466 68.4191C50.3562 66.0843 50.739 63.7526 51.5893 61.575C52.4396 59.3975 53.7385 57.4227 55.4019 55.7789V55.7789Z" fill="#41C59D"></path><path d="M98.4839 58.3432C96.0777 58.3433 93.7459 59.1768 91.886 60.7017C90.026 62.2265 88.7528 64.3485 88.2834 66.706C87.8141 69.0634 88.1775 71.5106 89.3118 73.6304C90.4461 75.7502 92.2811 77.4115 94.5042 78.3313C96.7272 79.2511 99.2008 79.3725 101.503 78.6747C103.806 77.9769 105.795 76.5032 107.132 74.5046C108.469 72.506 109.07 70.1063 108.834 67.7142C108.599 65.3221 107.54 63.0858 105.838 61.3862C104.875 60.4182 103.729 59.6508 102.466 59.1285C101.204 58.6061 99.8503 58.3392 98.4839 58.3432Z" fill="#41C59D"></path><path d="M61.8014 90.6832C60.3481 92.136 59.3585 93.9866 58.9578 96.0011C58.5572 98.0157 58.7636 100.104 59.5507 102.001C60.3378 103.898 61.6705 105.52 63.3801 106.661C65.0898 107.802 67.0997 108.411 69.1558 108.411C71.2118 108.411 73.2218 107.802 74.9314 106.661C76.6411 105.52 77.9737 103.898 78.7608 102.001C79.548 100.104 79.7542 98.0157 79.3536 96.0011C78.953 93.9866 77.9635 92.136 76.5101 90.6832C75.5483 89.7113 74.4031 88.9396 73.1407 88.413C71.8783 87.8864 70.5238 87.6152 69.1558 87.6152C67.7877 87.6152 66.4332 87.8864 65.1708 88.413C63.9084 88.9396 62.7632 89.7113 61.8014 90.6832V90.6832Z" fill="#41C59D"></path><path d="M106.565 91.4819L106.499 91.4026L106.271 91.1353L106.221 91.0825C106.116 90.9637 105.997 90.835 105.871 90.7129L105.752 90.5974C105.64 90.4852 105.53 90.3751 105.422 90.2673L105.27 90.1353C105.174 90.0561 105.082 89.9736 104.986 89.8977L104.847 89.7921L104.811 89.7624L104.533 89.5578L104.348 89.429C104.252 89.3663 104.157 89.3003 104.061 89.2409L103.879 89.1287L103.568 88.9472L103.403 88.8548C103.278 88.7888 103.156 88.7261 103.033 88.67L102.914 88.6073C102.58 88.4508 102.237 88.3131 101.887 88.1947L101.784 88.1617C101.642 88.1122 101.504 88.0693 101.365 88.0297L101.223 87.9934C101.094 87.9571 100.962 87.9241 100.83 87.8944L100.684 87.8614L100.284 87.7855L100.152 87.7624L99.7129 87.703H99.6138C99.4354 87.6832 99.2603 87.67 99.0819 87.6601H99.0456C98.6725 87.6386 98.2986 87.6386 97.9256 87.6601C95.5897 87.7642 93.2579 87.3774 91.081 86.5246C88.9042 85.6719 86.9308 84.3722 85.2884 82.7096L84.5021 81.9241C82.8385 80.2836 81.5379 78.3128 80.6843 76.1389C79.8307 73.965 79.443 71.6365 79.5463 69.3036C79.5662 68.934 79.5662 68.5644 79.5463 68.2013V68.0924C79.5463 67.934 79.5332 67.7756 79.5067 67.6172V67.5149C79.4891 67.3696 79.4692 67.2244 79.4472 67.0792L79.4241 66.9406C79.401 66.8086 79.3746 66.6766 79.3448 66.5413L79.3151 66.396C79.2853 66.2673 79.2523 66.1386 79.216 66.0066L79.1763 65.8581C79.1367 65.7228 79.0937 65.5842 79.0475 65.4488L79.021 65.363C78.9004 65.0064 78.7593 64.6571 78.5982 64.3168L78.542 64.2013C78.4792 64.0726 78.4198 63.9505 78.3537 63.8284L78.2579 63.6601C78.2017 63.5545 78.1422 63.4521 78.0795 63.3498L77.9671 63.1716C77.9043 63.0693 77.8416 62.9769 77.7788 62.8812L77.6532 62.703L77.4418 62.4224L77.3063 62.2442C77.2336 62.1518 77.1511 62.0594 77.0718 61.9637L76.9396 61.8119C76.8405 61.6997 76.7347 61.5908 76.629 61.4819L76.5201 61.3696C76.3912 61.2442 76.2591 61.1188 76.1269 61L76.0806 60.9571C75.998 60.8845 75.9055 60.8086 75.813 60.7327L75.7436 60.67C75.6082 60.5611 75.4793 60.462 75.3505 60.3663C73.6036 59.0773 71.496 58.3681 69.3245 58.3385C67.1529 58.3089 65.0266 58.9604 63.2452 60.2013L63.1594 60.264C63.0702 60.3267 62.9776 60.396 62.8884 60.4653L62.7266 60.5875L62.5151 60.7591L62.3136 60.934C62.2574 60.9835 62.1946 61.0363 62.1352 61.0924L61.7453 61.4752C61.6793 61.5413 61.6165 61.604 61.557 61.67C61.4975 61.736 61.4347 61.802 61.3753 61.8713C61.3158 61.9406 61.2596 62.0033 61.2068 62.0693L61.0317 62.2805L60.8731 62.4851C60.8202 62.5545 60.7674 62.6271 60.7178 62.6997C60.6682 62.7723 60.6154 62.8416 60.5658 62.9142L60.4205 63.1353C60.3742 63.2046 60.3312 63.2739 60.2883 63.3465C60.2453 63.4191 60.1958 63.5016 60.1496 63.5776C60.1033 63.6535 60.0669 63.7261 60.0273 63.7987C59.9876 63.8713 59.948 63.9505 59.9084 64.0297C59.8687 64.1089 59.8324 64.1782 59.796 64.2541C59.7597 64.33 59.7201 64.4125 59.687 64.4918L59.5846 64.7261C59.5516 64.802 59.5185 64.8878 59.4855 64.9703L59.4029 65.198C59.3732 65.2772 59.3434 65.363 59.317 65.4455C59.2906 65.5281 59.2641 65.6007 59.241 65.6766C59.2179 65.7525 59.1915 65.8482 59.1683 65.9307C59.1452 66.0132 59.1254 66.0858 59.1056 66.165C59.0857 66.2442 59.0626 66.3333 59.046 66.4191C59.0295 66.505 59.0064 66.5809 58.9899 66.6601C58.9734 66.7393 58.9602 66.8284 58.9437 66.9175C58.9272 67.0066 58.9139 67.0759 58.904 67.1551C58.8941 67.2343 58.8808 67.3267 58.8676 67.4092C58.8544 67.4918 58.8479 67.5776 58.8379 67.6568L58.8181 67.9142V67.9505C58.8181 68.0165 58.8181 68.0858 58.8181 68.1551C58.8181 68.2244 58.8181 68.3135 58.8181 68.3894V68.4521C58.8181 68.5215 58.8181 68.5908 58.8181 68.6601C58.8181 68.7294 58.8181 68.835 58.8181 68.9208V68.9901C58.8181 69.0462 58.8181 69.1023 58.8181 69.1584C58.8181 69.2145 58.8181 69.3168 58.8181 69.3927V69.4785C58.8181 69.5413 58.8181 69.6007 58.8181 69.6634C58.8181 69.7261 58.8181 69.8053 58.8412 69.8746V70C58.8412 70.0561 58.8413 70.1122 58.8644 70.1683C58.8875 70.2244 58.8875 70.3168 58.8974 70.3927L58.9139 70.4884L58.9437 70.6667C58.9437 70.7228 58.9668 70.7822 58.98 70.8416L59.0164 71.0099C59.0164 71.0594 59.0361 71.1089 59.0494 71.1584L59.099 71.3465L59.1419 71.5082C59.1419 71.5545 59.165 71.6007 59.1782 71.6469L59.2377 71.8383L59.2905 71.9967C59.2905 72.0396 59.317 72.0858 59.3335 72.132C59.35 72.1782 59.3798 72.264 59.4062 72.33L59.4623 72.4818L59.5119 72.6106L59.5879 72.7888L59.6606 72.9571C59.6606 72.9967 59.6936 73.0363 59.7134 73.0759C59.7332 73.1155 59.7696 73.1947 59.7993 73.2541L59.8786 73.4191L59.9381 73.538L60.0372 73.7129L60.1892 73.9901L60.2982 74.165L60.4634 74.4257C60.5075 74.4918 60.5504 74.5545 60.5923 74.6139L60.7608 74.8581C60.8137 74.9307 60.8698 74.9967 60.9227 75.066L61.0846 75.2772L61.3357 75.571L61.438 75.6865C61.557 75.8185 61.6792 75.9472 61.8081 76.0759C61.9369 76.2046 62.0757 76.3366 62.2111 76.4587L62.3433 76.571C62.4358 76.6535 62.5316 76.736 62.6307 76.8152L62.7893 76.9373C62.895 77.0198 62.9743 77.0825 63.0602 77.1419L63.1626 77.2145L63.2354 77.264L63.4996 77.4455L63.6285 77.5281L63.6879 77.5611C63.7771 77.6205 63.8697 77.6766 63.9622 77.7294L64.1009 77.8053L64.1472 77.8317L64.4247 77.9802L64.5998 78.066C64.7088 78.1188 64.8046 78.165 64.9037 78.2079L65.0888 78.2904L65.3927 78.4125L65.5777 78.4818C65.6801 78.5214 65.7859 78.5578 65.8916 78.5908L66.0634 78.6469L66.3938 78.7459L66.5523 78.7888C66.6746 78.8218 66.7969 78.8482 66.9158 78.8746L67.0512 78.9043C67.19 78.934 67.3254 78.9571 67.4576 78.9769L67.5633 78.9967C67.7153 79.0198 67.8673 79.0396 68.0226 79.0561H68.0887C68.6209 79.1118 69.1566 79.1261 69.691 79.099C69.9421 79.099 70.1899 79.0825 70.4376 79.0825C74.9114 79.0914 79.1992 80.8716 82.3612 84.033L83.1476 84.8218C84.8056 86.4711 86.1023 88.4468 86.9554 90.6233C87.8086 92.7999 88.1995 95.1299 88.1033 97.4654C88.0763 98.0091 88.0906 98.5541 88.1462 99.0957V99.1518C88.1462 99.297 88.1825 99.4521 88.2057 99.604V99.703C88.2288 99.8482 88.2519 99.9802 88.2783 100.112L88.3114 100.244C88.3378 100.373 88.3643 100.492 88.3973 100.611L88.4402 100.779C88.47 100.884 88.503 100.997 88.5394 101.109C88.5559 101.165 88.5758 101.224 88.5956 101.281C88.6286 101.386 88.6649 101.496 88.7045 101.611C88.7244 101.667 88.7475 101.729 88.7739 101.792C88.8003 101.855 88.8532 101.993 88.8962 102.092C88.9391 102.191 88.9491 102.221 88.9788 102.284C89.0085 102.347 89.0647 102.469 89.1109 102.564C89.1572 102.66 89.1737 102.696 89.2034 102.756C89.2332 102.815 89.3025 102.944 89.3521 103.033L89.3818 103.083L89.4611 103.228C89.5107 103.314 89.5669 103.403 89.623 103.492L89.6594 103.554L89.7387 103.68L89.9138 103.937L89.9699 104.016L90.0426 104.122L90.2177 104.35L90.3697 104.548C90.4523 104.65 90.5349 104.743 90.6142 104.835L90.7331 104.97C90.8521 105.106 90.9809 105.241 91.1097 105.373C91.2386 105.505 91.3707 105.624 91.5029 105.746L91.6714 105.888C91.7507 105.957 91.8267 106.026 91.9092 106.092L92.1439 106.274L92.3288 106.416L92.5832 106.591L92.7584 106.713L92.8608 106.776L93.0326 106.884L93.2011 106.99L93.3101 107.05L93.4852 107.149L93.6537 107.238L93.7693 107.297L93.9412 107.38L94.113 107.465L94.2418 107.518L94.4037 107.591L94.5854 107.667L94.7175 107.716L94.8794 107.776L95.0611 107.845L95.2065 107.891L95.3618 107.941L95.5435 107.997C95.5921 108.013 95.6419 108.026 95.6922 108.036L95.8409 108.076L96.0325 108.129L96.1944 108.162L96.3265 108.191L96.5313 108.234L96.6867 108.261L96.8188 108.281L97.0269 108.314L97.1987 108.333H97.3144L97.5291 108.36H97.7009H97.7702H98.0313H98.2295H98.3055C98.3815 108.36 98.4575 108.36 98.5334 108.36H98.7779C98.877 108.36 98.9563 108.36 99.0389 108.36H99.2504H99.3L99.5411 108.337L99.7823 108.31L100.04 108.274L100.255 108.238C100.367 108.218 100.453 108.205 100.536 108.185L100.777 108.132C100.863 108.112 100.949 108.096 101.031 108.073L101.269 108.01L101.52 107.937L101.751 107.861L102.002 107.776L102.234 107.69L102.478 107.591L102.706 107.492L102.944 107.383L103.172 107.271L103.403 107.149C103.479 107.109 103.552 107.069 103.621 107.026C103.691 106.984 103.777 106.937 103.853 106.891L104.064 106.759L104.292 106.611L104.5 106.465L104.718 106.307C104.788 106.251 104.857 106.201 104.923 106.145C104.989 106.089 105.062 106.033 105.131 105.977L105.329 105.809L105.534 105.62L105.726 105.439L106.112 105.043C106.165 104.988 106.218 104.928 106.271 104.865C106.331 104.802 106.387 104.736 106.44 104.67C106.499 104.597 106.558 104.528 106.615 104.455L106.737 104.3L106.942 104.023L106.991 103.947C108.237 102.168 108.893 100.044 108.865 97.8727C108.837 95.7018 108.127 93.5945 106.836 91.8482C106.76 91.736 106.661 91.6073 106.565 91.4819Z" fill="#41C59D"></path><path d="M98.6028 20.8944C101.009 20.8943 103.341 20.0609 105.201 18.536C107.061 17.0111 108.334 14.8891 108.803 12.5317C109.273 10.1742 108.909 7.72707 107.775 5.60726C106.641 3.48745 104.806 1.82611 102.583 0.906303C100.36 -0.0135004 97.886 -0.134856 95.5834 0.56292C93.2808 1.2607 91.2917 2.73443 89.9549 4.73301C88.6182 6.73159 88.0164 9.13136 88.2523 11.5234C88.4882 13.9155 89.547 16.1519 91.2485 17.8515C92.2121 18.8192 93.3583 19.5864 94.6206 20.1087C95.883 20.631 97.2365 20.898 98.6028 20.8944Z" fill="#41C59D"></path><path d="M69.8298 20.8779C70.1139 20.8779 70.398 20.8548 70.6788 20.8548C75.1167 20.8843 79.3619 22.6705 82.4835 25.8218L83.2698 26.6073C84.9361 28.2499 86.2383 30.2239 87.092 32.4014C87.9457 34.579 88.3319 36.9114 88.2255 39.2475C88.1131 41.3437 88.6392 43.4247 89.7344 45.2162C90.8296 47.0078 92.4426 48.4257 94.3607 49.2832C96.2787 50.1407 98.4119 50.3975 100.479 50.0197C102.546 49.6419 104.45 48.6473 105.94 47.1669C107.43 45.6866 108.436 43.79 108.825 41.7271C109.214 39.6643 108.969 37.532 108.121 35.6114C107.272 33.6908 105.862 32.072 104.074 30.9683C102.287 29.8647 100.206 29.328 98.1072 29.429C95.7605 29.5323 93.4181 29.1454 91.2296 28.293C89.0411 27.4406 87.0547 26.1414 85.3974 24.4785L84.6111 23.6931C82.9472 22.037 81.647 20.0527 80.7937 17.8666C79.9405 15.6806 79.5528 13.3408 79.6554 10.9967C79.7565 8.89982 79.2191 6.82155 78.1141 5.03586C77.0092 3.25017 75.3884 1.84089 73.4656 0.993813C71.5427 0.146731 69.408 -0.098391 67.3429 0.290765C65.2778 0.679921 63.3792 1.68508 61.8975 3.17374C60.4157 4.66241 59.4203 6.56468 59.0425 8.62978C58.6647 10.6949 58.9223 12.8259 59.7812 14.7419C60.6401 16.6578 62.0601 18.2688 63.854 19.3624C65.6478 20.456 67.7313 20.981 69.8298 20.868V20.8779Z" fill="#41C59D"></path><path d="M18.105 47.033C19.5595 45.58 20.5501 43.7288 20.9514 41.7134C21.3526 39.6981 21.1467 37.6091 20.3595 35.7107C19.5723 33.8123 18.2392 32.1897 16.5288 31.0481C14.8185 29.9065 12.8077 29.2972 10.7507 29.2972C8.69369 29.2972 6.68288 29.9065 4.97254 31.0481C3.2622 32.1897 1.92911 33.8123 1.14192 35.7107C0.354723 37.6091 0.148751 39.6981 0.550034 41.7134C0.951317 43.7288 1.94186 45.58 3.39636 47.033C4.35789 48.0053 5.50309 48.7773 6.76553 49.3042C8.02796 49.831 9.38251 50.1023 10.7507 50.1023C12.1189 50.1023 13.4734 49.831 14.7359 49.3042C15.9983 48.7773 17.1435 48.0053 18.105 47.033Z" fill="#41C59D"></path><path d="M40.0821 20.7789C41.4468 20.7812 42.7984 20.5135 44.0589 19.9912C45.3195 19.469 46.464 18.7025 47.4265 17.736V17.736C49.1272 16.0367 50.1854 13.8008 50.4209 11.4095C50.6564 9.0181 50.0545 6.61915 48.7178 4.62138C47.3812 2.62361 45.3924 1.15062 43.0904 0.453411C40.7885 -0.243801 38.3157 -0.122102 36.0935 0.797771C33.8713 1.71764 32.0371 3.37878 30.9035 5.49812C29.7699 7.61747 29.407 10.0639 29.8767 12.4206C30.3463 14.7772 31.6194 16.8983 33.4791 18.4224C35.3388 19.9465 37.67 20.7793 40.0755 20.7789H40.0821Z" fill="#41C59D"></path><path d="M11.309 20.7591C11.5931 20.7591 11.874 20.736 12.1581 20.736C16.5987 20.7649 20.8465 22.5524 23.9693 25.7063L24.7556 26.4917C26.4219 28.1344 27.7241 30.1084 28.5778 32.2859C29.4315 34.4634 29.8177 36.7959 29.7113 39.132C29.5976 41.2289 30.123 43.311 31.218 45.1036C32.313 46.8962 33.9263 48.3151 35.845 49.1732C37.7637 50.0312 39.8977 50.2881 41.9656 49.91C44.0334 49.5318 45.938 48.5364 47.4279 47.0549C48.9179 45.5735 49.9233 43.6757 50.3116 41.6119C50.6999 39.548 50.4527 37.4151 49.6028 35.4944C48.7528 33.5737 47.34 31.9555 45.5507 30.8532C43.7613 29.751 41.6795 29.2164 39.5799 29.3201C37.2332 29.4234 34.8908 29.0365 32.7023 28.1841C30.5138 27.3317 28.5274 26.0325 26.8701 24.3696L26.0837 23.5842C24.4192 21.9285 23.1188 19.9442 22.2655 17.758C21.4122 15.5719 21.0248 13.232 21.128 10.8878C21.2291 8.79091 20.6918 6.71264 19.5868 4.92695C18.4818 3.14126 16.8611 1.73199 14.9382 0.884903C13.0153 0.037821 10.8807 -0.207301 8.81555 0.181856C6.75043 0.571012 4.8518 1.57617 3.37003 3.06484C1.88826 4.5535 0.892868 6.45577 0.515076 8.52088C0.137284 10.586 0.394833 12.717 1.25376 14.6329C2.11269 16.5489 3.53267 18.1599 5.32652 19.2535C7.12037 20.3471 9.20388 20.872 11.3024 20.7591H11.309Z" fill="#41C59D"></path><path d="M10.4004 88.2244C9.03404 88.2204 7.68043 88.4873 6.41803 89.0097C5.15562 89.532 4.00951 90.2994 3.04612 91.2673V91.2673C1.34466 92.967 0.285806 95.2033 0.0499259 97.5954C-0.185954 99.9875 0.415792 102.387 1.75258 104.386C3.08936 106.384 5.07845 107.858 7.38103 108.556C9.6836 109.254 12.1572 109.132 14.3802 108.213C16.6033 107.293 18.4383 105.631 19.5726 103.512C20.7069 101.392 21.0703 98.9446 20.6009 96.5872C20.1316 94.2297 18.8584 92.1077 16.9984 90.5828C15.1384 89.0579 12.8066 88.2245 10.4004 88.2244Z" fill="#41C59D"></path><path d="M39.1669 88.2409C36.8282 88.3484 34.4929 87.9632 32.3129 87.1103C30.1329 86.2574 28.1569 84.956 26.5132 83.2904L25.727 82.5049C24.06 80.8628 22.7573 78.8889 21.9035 76.7112C21.0498 74.5336 20.664 72.2009 20.7712 69.8647C20.8843 67.7676 20.3585 65.6856 19.2632 63.893C18.1679 62.1005 16.5545 60.6816 14.6357 59.8234C12.7169 58.9653 10.5827 58.7082 8.5147 59.086C6.44668 59.4638 4.54183 60.4588 3.05128 61.9398C1.56073 63.4208 0.554485 65.3183 0.165187 67.3821C-0.22411 69.4458 0.0218059 71.579 0.870559 73.5003C1.71931 75.4217 3.13105 77.041 4.91961 78.1447C6.70816 79.2485 8.78955 79.7849 10.8894 79.6832C11.1537 79.67 11.4181 79.6634 11.6824 79.6634C16.1539 79.6736 20.439 81.4537 23.5992 84.6139L24.3856 85.3993C26.0504 87.0548 27.351 89.039 28.2044 91.2252C29.0577 93.4114 29.445 95.7515 29.3413 98.0957C29.2362 100.194 29.7703 102.275 30.8732 104.064C31.9762 105.852 33.5961 107.265 35.5192 108.116C37.4424 108.966 39.5784 109.214 41.6455 108.827C43.7126 108.439 45.6137 107.435 47.0978 105.947C48.582 104.458 49.5795 102.555 49.9587 100.489C50.338 98.4223 50.0812 96.2895 49.2222 94.3719C48.3633 92.4542 46.9425 90.8417 45.1473 89.7471C43.3521 88.6526 41.267 88.1274 39.1669 88.2409Z" fill="#41C59D"></path></g><defs><clipPath id="clip0_12_20"><rect width="109" height="109" fill="white"></rect></clipPath></defs></svg> 