<?xml version="1.0" encoding="UTF-8"?> <svg xmlns="http://www.w3.org/2000/svg" xmlns:xlink="http://www.w3.org/1999/xlink" version="1.1" id="Layer_1" x="0px" y="0px" viewBox="0 0 68.2 69.6" style="enable-background:new 0 0 68.2 69.6;" xml:space="preserve"> <style type="text/css"> .st0{fill:#4EBE9A;} </style> <g transform="translate(-212 -203)"> <path class="st0" d="M257,228.2c-2.6-2.6-6.3-4.3-10.2-4.3c-4,0-7.6,1.6-10.2,4.3c-2.6,2.6-4.3,6.3-4.3,10.2s1.7,7.6,4.3,10.2 c2.6,2.6,6.3,4.3,10.2,4.3c4,0,7.6-1.6,10.2-4.3c2.6-2.6,4.3-6.3,4.3-10.2S259.7,230.8,257,228.2z M254.2,245.9 c-1.9,1.9-4.6,3-7.5,3s-5.6-1.1-7.5-3s-3-4.6-3-7.5s1.1-5.6,3-7.5s4.6-3,7.5-3s5.6,1.1,7.5,3c1.9,1.9,3,4.6,3,7.5 C257.3,241.3,256.2,244,254.2,245.9z"></path> <path class="st0" d="M273.6,236.4h-5.9c-1.1,0-2,0.9-2,2s0.9,2,2,2h5.9c1.1,0,2-0.9,2-2C275.6,237.3,274.7,236.4,273.6,236.4z"></path> <path class="st0" d="M246.8,257.4c-1.1,0-2,0.9-2,2v5.9c0,1.1,0.9,2,2,2s2-0.9,2-2v-5.9C248.8,258.3,247.8,257.4,246.8,257.4z"></path> <path class="st0" d="M267.1,256l-4.2-4.2c-0.7-0.8-2-0.8-2.7,0c-0.8,0.8-0.8,2,0,2.7l4.2,4.2c0.8,0.8,2,0.8,2.7,0 C267.9,258,267.9,256.8,267.1,256z"></path> <path class="st0" d="M246.8,209.6c-1.1,0-2,0.9-2,2v5.9c0,1.1,0.9,2,2,2s2-0.9,2-2v-5.9C248.8,210.5,247.8,209.6,246.8,209.6z"></path> <path class="st0" d="M267.2,218c-0.8-0.8-2-0.8-2.7,0l-4.2,4.2c-0.8,0.8-0.8,2,0,2.7c0.7,0.8,2,0.8,2.7,0l4.2-4.2 C268,220,268,218.8,267.2,218z"></path> <path class="st0" d="M225.8,236.4h-5.9c-1.1,0-2,0.9-2,2s0.8,2,2,2h5.9c1.1,0,2-0.9,2-2C227.8,237.3,226.9,236.4,225.8,236.4z"></path> <path class="st0" d="M233.3,251.8c-0.7-0.8-2-0.8-2.7,0l-4.2,4.2c-0.8,0.8-0.8,2,0,2.7c0.8,0.8,2,0.8,2.7,0l4.2-4.2 C234,253.8,234,252.6,233.3,251.8z"></path> <path class="st0" d="M233.3,222.2l-4.2-4.2c-0.8-0.8-2-0.8-2.7,0c-0.8,0.8-0.8,2,0,2.7l4.2,4.2c0.8,0.8,2,0.8,2.7,0 C234,224.2,234,223,233.3,222.2z"></path> </g> </svg> 