<?xml version="1.0" encoding="UTF-8"?> <svg xmlns="http://www.w3.org/2000/svg" xmlns:xlink="http://www.w3.org/1999/xlink" version="1.1" id="Capa_1" x="0px" y="0px" viewBox="0 0 111 124" style="enable-background:new 0 0 111 124;" xml:space="preserve"> <style type="text/css"> .st0{fill:#FB877F;} </style> <g> <path class="st0" d="M19.8,85.3c0.6-1.2,1.5-1.6,2.8-1.6c22.1,0,44.3,0,66.4,0c0.3,0,0.7,0,1,0C91,84,91.8,85,91.7,86 c-0.1,1.1-1,1.9-2.1,1.9c-1.3,0-2.7,0-4,0c-0.2,0-0.5,0-0.7,0.1c-1.3,1.3-2.6,2.6-4.1,4.1c0.5,0,0.8,0,1.1,0c2.4,0,4.8,0,7.2,0 c1.3,0,2.2,0.6,2.4,1.7c0.2,1-0.3,1.9-1.4,2.4c0,0-0.1,0.1-0.1,0.1c-22.9,0-45.9,0-68.8,0c-0.7-0.3-1.2-0.9-1.5-1.5 c0-0.4,0-0.7,0-1.1c0.6-1.2,1.5-1.6,2.8-1.6c1.2,0.1,2.3,0,3.5,0c0.2,0,0.5,0,0.6-0.1c1.3-1.3,2.7-2.7,4.1-4.1c-0.4,0-0.6,0-0.8,0 c-2.5,0-4.9,0-7.4,0c-1.3,0-2.3-0.4-2.8-1.6C19.8,86,19.8,85.6,19.8,85.3z M42.9,87.9c-2.1,0-4,0-5.8,0c-0.2,0-0.5,0.2-0.6,0.3 c-0.9,0.9-1.9,1.8-2.8,2.8c-0.3,0.3-0.7,0.7-1.1,1.1c2.1,0,3.9,0,5.8,0c0.2,0,0.4-0.1,0.5-0.2C40.1,90.7,41.4,89.4,42.9,87.9z M44.6,92.1c2.1,0,3.9,0,5.8,0c0.2,0,0.5-0.2,0.6-0.3c1-0.9,1.9-1.9,2.9-2.9c0.3-0.3,0.6-0.6,1-1c-2.1,0-3.9,0-5.8,0 c-0.2,0-0.4,0.1-0.5,0.2C47.3,89.4,46,90.7,44.6,92.1z M67,87.9c-2.1,0-4,0-5.9,0c-0.1,0-0.3,0.1-0.4,0.1c-1.3,1.3-2.6,2.6-4.1,4.1 c2.1,0,4,0,5.9,0c0.1,0,0.3-0.1,0.4-0.1C64.3,90.7,65.6,89.4,67,87.9z M79.1,87.9c-1.5,0-2.9,0.1-4.2,0c-1.4-0.1-2.4,0.3-3.3,1.4 c-0.8,1-1.8,1.8-2.9,2.9c2.1,0,4,0,5.9,0c0.2,0,0.4-0.1,0.5-0.2C76.4,90.7,77.7,89.4,79.1,87.9z"></path> <path class="st0" d="M19.8,76.8c0.6-1.2,1.5-1.6,2.8-1.6c8.7,0,17.4,0,26.1,0c0.3,0,0.5,0,1,0c-0.3-0.3-0.5-0.4-0.7-0.6 C41.2,68.5,33.4,62.2,25.6,56c-0.7-0.6-1.1-1.3-0.9-2.3c0.2-0.8,0.7-1.3,1.5-1.6c0.8-0.2,1.5,0.1,2.1,0.6c3.6,2.9,7.1,5.7,10.7,8.6 c5.4,4.3,10.8,8.7,16.2,13c0.3,0.2,0.5,0.4,0.9,0.1c8.2-6.6,16.3-13.3,24.5-19.9c0.1,0,0.1-0.1,0.2-0.2C80.2,54.1,79.6,54,79,54 c-1.3-0.2-2.2-1.2-2-2.4c0.2-1.2,1.3-2,2.6-1.8c2.2,0.3,4.5,0.6,6.7,0.9c1.2,0.2,2,1.1,1.8,2.3c-0.3,2.4-0.6,4.8-1,7.2 c-0.1,0.9-0.7,1.5-1.6,1.6c-0.9,0.2-1.7-0.1-2.1-0.9c-0.2-0.4-0.3-1-0.3-1.5c0-0.5,0.1-1,0.2-1.7C76,63.6,68.9,69.4,61.7,75.3 c0.4,0,0.7,0,0.9,0c8.9,0,17.8,0,26.7,0c1,0,1.7,0.3,2.2,1.2c0.6,1.3-0.3,2.9-1.7,3c-0.3,0-0.5,0-0.8,0c-22.1,0-44.2,0-66.4,0 c-1.3,0-2.3-0.3-2.8-1.6C19.8,77.6,19.8,77.2,19.8,76.8z"></path> <path class="st0" d="M56.2,60.4c-3.9-0.1-6.9-1-9.5-3.3c-3.1-2.8-4.1-6.4-3.8-10.5c0.4-4.3,2.1-8.2,4.2-11.9 c1.9-3.4,4.2-6.5,6.8-9.4c1.1-1.3,2.4-1.3,3.5,0c4.1,4.7,7.6,9.7,9.7,15.6c1.1,3.1,1.7,6.2,1.1,9.5c-1,5.2-4.3,8.2-9.2,9.4 C58,60.2,56.8,60.3,56.2,60.4z M55.6,29.7c-1.3,1.9-2.7,3.7-3.8,5.5c-2.3,3.6-4.1,7.3-4.6,11.6c-0.5,4,1.3,7.2,4.7,8.6 c1.7,0.7,3.4,0.8,5.2,0.6c3.5-0.4,6.4-2.7,7-5.9c0.3-1.4,0.2-2.9,0-4.4c-0.3-2.7-1.4-5.2-2.7-7.5C59.8,35.2,57.9,32.5,55.6,29.7z"></path> </g> </svg> 