<?xml version="1.0" encoding="UTF-8"?> <svg xmlns="http://www.w3.org/2000/svg" xmlns:xlink="http://www.w3.org/1999/xlink" version="1.1" id="Layer_1" x="0px" y="0px" viewBox="0 0 75.9 72.7" style="enable-background:new 0 0 75.9 72.7;" xml:space="preserve"> <style type="text/css"> .st0{fill:#FFFFFF;} </style> <g> <path class="st0" d="M38.9,70.1c-0.3-0.3-0.7-0.6-1-0.9c-1-1.4-2.1-2.7-3.1-4.1c0.6-0.5,1.2-0.9,1.8-1.4c0.4,0.6,0.8,1.1,1.3,1.7 c0-3.1,0-6,0-9c0.8,0,1.5,0,2.3,0c0,2.9,0,5.9,0,8.8c0.1,0,0.1,0,0.2,0.1c0.4-0.5,0.8-1,1.2-1.6c0.6,0.5,1.2,0.9,1.8,1.4 c-1.2,1.6-2.3,3.1-3.5,4.6c-0.1,0.2-0.4,0.3-0.6,0.4C39.2,70.1,39.1,70.1,38.9,70.1z"></path> <path class="st0" d="M73.4,36.1c-0.3,0.3-0.5,0.7-0.8,0.9c-1.4,1-2.7,2.1-4.2,3.1c-0.4-0.6-0.9-1.2-1.4-1.8 c0.6-0.4,1.1-0.8,1.8-1.4c-3.1,0-6.1,0-9,0c0-0.8,0-1.5,0-2.3c2.9,0,5.9,0,8.8,0c0-0.1,0-0.1,0.1-0.2c-0.5-0.4-1-0.8-1.6-1.2 c0.4-0.6,0.9-1.2,1.4-1.8c1.1,0.8,2.1,1.6,3.2,2.4c0.6,0.5,1.2,1,1.9,1.6C73.4,35.6,73.4,35.9,73.4,36.1z"></path> <path class="st0" d="M51.7,35.8c0,1.8,0,3.6,0,5.3c0,0.6-0.2,1.1-0.8,1.4c-3.7,2.2-7.3,4.4-10.9,6.6c-0.6,0.4-1.1,0.4-1.7,0 c-3.6-2.2-7.3-4.4-10.9-6.6c-0.6-0.3-0.8-0.8-0.8-1.4c0-3.6,0-7.2,0-10.8c0-0.7,0.2-1.1,0.8-1.5c3.6-2.2,7.3-4.3,10.9-6.5 c0.6-0.4,1.1-0.4,1.7,0c3.6,2.2,7.2,4.4,10.9,6.5c0.6,0.3,0.8,0.8,0.8,1.5C51.7,32.2,51.7,34,51.7,35.8z M28.9,32.2 c0,0.3,0,0.5,0,0.7c0,2.5,0,4.9,0,7.4c0,0.5,0.1,0.7,0.5,0.9c2.7,1.6,5.3,3.2,8,4.8c0.2,0.1,0.4,0.2,0.6,0.3c0-0.2,0-0.3,0.1-0.4 c0-2.6,0-5.3,0-7.9c0-0.2-0.2-0.6-0.4-0.7c-2.7-1.6-5.4-3.3-8.1-4.9C29.3,32.3,29.1,32.3,28.9,32.2z M40.3,46.3 c0.2-0.1,0.3-0.1,0.3-0.2c2.8-1.7,5.6-3.4,8.4-5.1c0.2-0.1,0.4-0.4,0.4-0.7c0-2.6,0-5.2,0-7.8c0-0.1,0-0.3-0.1-0.5 c-2.4,1.4-4.6,2.8-6.9,4.2c-0.7,0.4-1.7,0.7-2,1.4c-0.4,0.6-0.1,1.6-0.1,2.4C40.3,42.1,40.3,44.1,40.3,46.3z M35.7,33.5 c1,0.6,2,1.2,3,1.8c0.4,0.2,0.6,0.2,1,0c2.7-1.6,5.4-3.3,8.1-4.9c0.2-0.1,0.3-0.2,0.5-0.4c-1-0.6-2-1.2-3-1.8c-0.4-0.2-0.6-0.2-1,0 c-2.7,1.7-5.4,3.3-8.2,4.9C36,33.3,35.9,33.4,35.7,33.5z M30,30.1c1,0.6,2,1.2,2.9,1.8c0.4,0.2,0.6,0.2,1,0 c2.7-1.6,5.4-3.3,8.1-4.9c0.2-0.1,0.3-0.2,0.5-0.3c-1-0.6-2-1.2-3-1.8c-0.3-0.2-0.6-0.2-1,0c-2.7,1.6-5.4,3.3-8.1,4.9 C30.4,29.8,30.2,30,30,30.1z"></path> <path class="st0" d="M40.3,6.4c0,2.9,0,5.9,0,8.8c-0.8,0-1.5,0-2.3,0c0-2.9,0-5.9,0-8.8c-0.1,0-0.1,0-0.2-0.1 c-0.4,0.5-0.8,1-1.2,1.6c-0.6-0.4-1.2-0.9-1.8-1.4c0.5-0.7,1-1.4,1.5-2c0.6-0.8,1.2-1.6,1.8-2.4C38.7,1.5,39.5,1.4,40,2 c1.2,1.5,2.3,3,3.5,4.6c-0.6,0.5-1.2,0.9-1.8,1.4c-0.4-0.6-0.8-1.1-1.2-1.6C40.4,6.4,40.3,6.4,40.3,6.4z"></path> <path class="st0" d="M21.5,12.1c-0.1,0.8-0.2,1.5-0.3,2.2c-0.7-0.1-1.4-0.2-2-0.3c2.1,2.1,4.1,4.1,6.2,6.2 c-0.7,0.6-1.2,1.2-1.8,1.8c-2-2-4.1-4.2-6.3-6.4c0.1,0.8,0.2,1.5,0.3,2.2c-0.7,0.1-1.5,0.2-2.2,0.3c-0.2-1.4-0.4-2.8-0.6-4.2 c-0.1-0.5-0.1-0.9-0.2-1.4c-0.1-0.8,0.4-1.4,1.3-1.3C17.8,11.5,19.6,11.8,21.5,12.1z"></path> <path class="st0" d="M9.9,31.5c0.5,0.6,0.9,1.2,1.4,1.8c-0.6,0.4-1.1,0.8-1.8,1.3c3.1,0,6,0,9,0c0,0.8,0,1.5,0,2.3 c-2.9,0-5.9,0-8.8,0c0,0.1,0,0.1-0.1,0.2c0.5,0.4,1,0.8,1.6,1.3c-0.4,0.6-0.9,1.2-1.4,1.8c-1.2-0.9-2.4-1.8-3.5-2.7 c-0.3-0.2-0.7-0.5-1-0.7c-0.7-0.6-0.7-1.3,0-1.9C6.9,33.7,8.4,32.6,9.9,31.5z"></path> <path class="st0" d="M56.7,59.5c0.1-0.8,0.2-1.5,0.3-2.2c0.7,0.1,1.3,0.2,1.9,0.2c-2.1-2.1-4.2-4.1-6.2-6.2 c0.7-0.7,1.2-1.2,1.8-1.8c2.1,2.1,4.2,4.2,6.4,6.4c-0.1-0.8-0.2-1.4-0.3-2.2c0.7-0.1,1.4-0.2,2.2-0.3c0.2,1,0.3,2,0.4,3 c0.1,0.9,0.3,1.7,0.3,2.6c0.1,0.9-0.4,1.4-1.2,1.3C60.5,60.1,58.7,59.8,56.7,59.5z"></path> <path class="st0" d="M19.2,57.5c0.6-0.1,1.3-0.2,2-0.3c0.1,0.7,0.2,1.4,0.3,2.2c-1.1,0.2-2.1,0.3-3.1,0.5c-0.8,0.1-1.7,0.3-2.5,0.3 c-0.8,0.1-1.3-0.4-1.2-1.2c0.2-1.9,0.5-3.7,0.8-5.7c0.8,0.1,1.5,0.2,2.2,0.3c-0.1,0.7-0.2,1.4-0.2,2.1c2.1-2.1,4.2-4.2,6.3-6.3 c0.6,0.6,1.1,1.2,1.6,1.7c-2,2-4.1,4.1-6.2,6.2C19.1,57.4,19.2,57.5,19.2,57.5z"></path> <path class="st0" d="M60.9,15.8c-2.1,2.1-4.2,4.2-6.3,6.3c-0.6-0.6-1.1-1.1-1.6-1.7c2.1-2.1,4.2-4.2,6.4-6.4 c-0.9,0.1-1.5,0.2-2.3,0.3c-0.1-0.8-0.2-1.5-0.3-2.2c1.9-0.3,3.8-0.6,5.7-0.8c0.8-0.1,1.3,0.5,1.2,1.4c-0.2,1.5-0.4,3-0.6,4.6 c0,0.3-0.1,0.6-0.2,1c-0.7-0.1-1.4-0.2-2.2-0.3C60.7,17.2,60.8,16.5,60.9,15.8z"></path> <path class="st0" d="M40.2,17.6c0,0.8,0,1.5,0,2.2c-0.7,0-1.4,0-2.2,0c0-0.7,0-1.5,0-2.2C38.8,17.6,39.5,17.6,40.2,17.6z"></path> <path class="st0" d="M20.9,36.9c0-0.7,0-1.4,0-2.2c0.7,0,1.4,0,2.2,0c0,0.7,0,1.4,0,2.2C22.4,36.9,21.7,36.9,20.9,36.9z"></path> <path class="st0" d="M57.4,36.9c-0.8,0-1.5,0-2.2,0c0-0.7,0-1.4,0-2.2c0.7,0,1.4,0,2.2,0C57.4,35.4,57.4,36.1,57.4,36.9z"></path> <path class="st0" d="M38,51.8c0.8,0,1.5,0,2.2,0c0,0.7,0,1.4,0,2.2c-0.7,0-1.4,0-2.2,0C38,53.3,38,52.6,38,51.8z"></path> <path class="st0" d="M25.5,23.7c0.5-0.5,1-1,1.5-1.5c0.5,0.5,1,1,1.5,1.5c-0.5,0.5-1,1-1.6,1.5C26.5,24.7,26,24.2,25.5,23.7z"></path> <path class="st0" d="M52.8,23.7c-0.5,0.5-1,1-1.5,1.5c-0.5-0.5-1-1-1.6-1.5c0.5-0.5,1-1,1.5-1.5C51.8,22.7,52.3,23.2,52.8,23.7z"></path> <path class="st0" d="M25.5,47.9c0.5-0.5,1-1,1.5-1.5c0.5,0.5,1,1,1.5,1.5c-0.5,0.5-1,1-1.5,1.5C26.5,48.9,26,48.4,25.5,47.9z"></path> <path class="st0" d="M49.7,47.9c0.5-0.5,1-1,1.5-1.5c0.5,0.5,1,1,1.5,1.5c-0.5,0.5-1,1-1.5,1.5C50.7,48.9,50.2,48.4,49.7,47.9z"></path> </g> </svg> 