<?xml version="1.0" standalone="no"?>
<!DOCTYPE svg PUBLIC "-//W3C//DTD SVG 1.1//EN" "http://www.w3.org/Graphics/SVG/1.1/DTD/svg11.dtd" >
<svg xmlns="http://www.w3.org/2000/svg" xmlns:xlink="http://www.w3.org/1999/xlink" version="1.1">
<metadata>
Created by FontForge 20170731 at Mon Mar 16 17:18:22 2020
 By Aleksey,,,
Copyright (c) 2018 by Typetype. Designer Ivan Gladkikh, technical designers Philipp Nurullin, Vika Usmanova, Nadyr Rakhimov, Marina Khodak. All rights reserved.
</metadata>
<defs>
<font id="TTFirsNeue-Italic" horiz-adv-x="600" >
  <font-face 
    font-family="TT Firs Neue"
    font-weight="400"
    font-style="italic"
    font-stretch="normal"
    units-per-em="1000"
    panose-1="2 0 5 3 3 0 0 9 0 4"
    ascent="800"
    descent="-200"
    x-height="500"
    cap-height="700"
    bbox="-320 -295 1493 1030"
    underline-thickness="50"
    underline-position="-200"
    slope="-10"
    unicode-range="U+000D-FB02"
  />
<missing-glyph horiz-adv-x="900" 
d="M100 284h45v-139h33v139h50v31h-128v126l19 -61h23l34 106l33 -106h23l54 170h-32l-34 -110l-35 110h-19l-35 -110l-31 103v157h700v-150h-110v-170h110v-91q-13 27 -50 27q-29 0 -44.5 -14.5t-15.5 -34.5q0 -22 13.5 -32t30 -15t30.5 -9.5t14 -16.5q0 -14 -9.5 -17.5
t-18.5 -3.5q-15 0 -21.5 7.5t-6.5 17.5h-33q0 -24 16.5 -39.5t44.5 -15.5q20 0 32.5 7.5t17.5 12.5v-163h-700v284zM328 143q38 0 60 25t22 61q0 37 -22.5 62t-59.5 25t-59.5 -25t-22.5 -62q0 -36 22 -61t60 -25zM328 174q-23 0 -37 16t-14 39q0 24 13.5 40t37.5 16
t37.5 -16t13.5 -40q0 -23 -14 -39t-37 -16zM344 380v62h24l35 -62h37l-40 67q36 16 36 50q0 21 -15.5 37t-41.5 16h-68v-170h33zM344 519h35q10 0 17 -6t7 -17q0 -13 -8 -18t-16 -5h-35v46zM585 143q29 0 48 18.5t19 47.5v106h-32v-106q0 -15 -9 -25t-26 -10q-18 0 -27 11
t-9 24v106h-32v-106q0 -29 19.5 -47.5t48.5 -18.5zM502 380v170h-33v-170h33zM612 380v139h50v31h-132v-31h50v-139h32zM800 224q-11 10 -24 14.5t-24.5 8.5t-19.5 8t-8 12q0 9 7.5 14.5t18.5 5.5q10 0 18 -6.5t8 -18.5h24v-38zM722 452h78v-41h-78v41zM722 519h78v-36h-78
v36z" />
    <glyph glyph-name="f_j" unicode="fj" horiz-adv-x="545" 
d="M225 -115h150l95 540h-225l-75 -425h-80l75 425h-65l13 75h65l35 200h335l-13 -75h-255l-22 -125h305l-122 -690h-230z" />
    <glyph glyph-name="f_t" unicode="ft" horiz-adv-x="670" 
d="M165 425h-65l13 75h65l35 200h385l-35 -200h160l-13 -75h-160l-62 -350h165l-13 -75h-245l75 425h-225l-75 -425h-80zM483 500l22 125h-225l-22 -125h225z" />
    <glyph glyph-name="ff.alt" unicode="&#xe023;&#xe023;" horiz-adv-x="620" 
d="M165 425h-65l13 75h65l5 30q14 88 54 129t118 41h98l-13 -75h-90q-35 0 -55.5 -19t-28.5 -63l-8 -43h225l5 30q14 88 54 129t118 41h98l-13 -75h-90q-35 0 -55.5 -19t-28.5 -63l-8 -43h130l-13 -75h-130l-75 -425h-80l75 425h-225l-75 -425h-80z" />
    <glyph glyph-name="fi.alt" unicode="&#xe023;i" horiz-adv-x="545" 
d="M165 425h-65l13 75h65l5 30q14 88 54 129t118 41h193l-13 -75h-185q-35 0 -55.5 -19t-28.5 -63l-8 -43h305l-88 -500h-80l75 425h-225l-75 -425h-80z" />
    <glyph glyph-name="fl.alt" unicode="&#xe023;&#xe026;" horiz-adv-x="550" 
d="M165 425h-65l13 75h65l10 57q6 33 22 61t41.5 48.5t59 32t73.5 11.5q55 0 93.5 -15t62 -41t31.5 -60t1 -71l-92 -523h-80l93 529q7 43 -21 74.5t-92 31.5q-48 0 -77 -24t-36 -62l-9 -49h130l-13 -75h-130l-75 -425h-80z" />
    <glyph glyph-name="f_j.alt" unicode="&#xe023;&#xe025;" horiz-adv-x="545" 
d="M229 -115h76q35 0 55.5 20t28.5 65l81 455h-225l-75 -425h-80l75 425h-65l13 75h65l5 30q14 88 54 129t118 41h193l-13 -75h-185q-35 0 -55.5 -19t-28.5 -63l-8 -43h305l-93 -530q-15 -83 -55 -121.5t-114 -38.5h-86z" />
    <glyph glyph-name="f_t.alt" unicode="&#xe023;&#xe027;" horiz-adv-x="675" 
d="M165 425h-65l13 75h65l10 57q6 33 22 61t41.5 48.5t59 32t73.5 11.5q55 0 93.5 -15t62 -41t31.5 -60t1 -71l-4 -23h160l-13 -75h-160l-46 -263q-7 -41 8 -64t63 -23h78l-13 -75h-65q-87 0 -125.5 44t-24.5 125l44 256h-229l-75 -425h-80zM488 500l5 29q7 43 -21 74.5
t-92 31.5q-48 0 -77 -24t-36 -62l-9 -49h230z" />
    <glyph glyph-name="ff" unicode="ff" horiz-adv-x="620" 
d="M165 425h-65l13 75h65l35 200h240l-13 -75h-160l-22 -125h225l35 200h240l-13 -75h-160l-22 -125h130l-13 -75h-130l-75 -425h-80l75 425h-225l-75 -425h-80z" />
    <glyph glyph-name="fi" unicode="fi" horiz-adv-x="545" 
d="M165 425h-65l13 75h65l35 200h335l-13 -75h-255l-22 -125h305l-88 -500h-80l75 425h-225l-75 -425h-80z" />
    <glyph glyph-name="fl" unicode="fl" 
d="M165 425h-65l13 75h65l35 200h385l-110 -625h115l-13 -75h-195l110 625h-225l-22 -125h130l-13 -75h-130l-75 -425h-80z" />
    <glyph glyph-name=".notdef" horiz-adv-x="900" 
d="M100 284h45v-139h33v139h50v31h-128v126l19 -61h23l34 106l33 -106h23l54 170h-32l-34 -110l-35 110h-19l-35 -110l-31 103v157h700v-150h-110v-170h110v-91q-13 27 -50 27q-29 0 -44.5 -14.5t-15.5 -34.5q0 -22 13.5 -32t30 -15t30.5 -9.5t14 -16.5q0 -14 -9.5 -17.5
t-18.5 -3.5q-15 0 -21.5 7.5t-6.5 17.5h-33q0 -24 16.5 -39.5t44.5 -15.5q20 0 32.5 7.5t17.5 12.5v-163h-700v284zM328 143q38 0 60 25t22 61q0 37 -22.5 62t-59.5 25t-59.5 -25t-22.5 -62q0 -36 22 -61t60 -25zM328 174q-23 0 -37 16t-14 39q0 24 13.5 40t37.5 16
t37.5 -16t13.5 -40q0 -23 -14 -39t-37 -16zM344 380v62h24l35 -62h37l-40 67q36 16 36 50q0 21 -15.5 37t-41.5 16h-68v-170h33zM344 519h35q10 0 17 -6t7 -17q0 -13 -8 -18t-16 -5h-35v46zM585 143q29 0 48 18.5t19 47.5v106h-32v-106q0 -15 -9 -25t-26 -10q-18 0 -27 11
t-9 24v106h-32v-106q0 -29 19.5 -47.5t48.5 -18.5zM502 380v170h-33v-170h33zM612 380v139h50v31h-132v-31h50v-139h32zM800 224q-11 10 -24 14.5t-24.5 8.5t-19.5 8t-8 12q0 9 7.5 14.5t18.5 5.5q10 0 18 -6.5t8 -18.5h24v-38zM722 452h78v-41h-78v41zM722 519h78v-36h-78
v36z" />
    <glyph glyph-name=".null" horiz-adv-x="0" 
 />
    <glyph glyph-name=".null" horiz-adv-x="0" 
 />
    <glyph glyph-name="nonmarkingreturn" unicode="&#xd;" horiz-adv-x="0" 
 />
    <glyph glyph-name="space" unicode=" " horiz-adv-x="280" 
 />
    <glyph glyph-name="exclam" unicode="!" horiz-adv-x="285" 
d="M142 -15q-26 0 -41 14.5t-15 37.5q0 30 19 49t45 19t41 -15t15 -38q0 -29 -19 -48t-45 -19zM152 345l63 355h90l-63 -355l-40 -140h-60z" />
    <glyph glyph-name="quotedbl" unicode="&#x22;" horiz-adv-x="385" 
d="M159 565l24 135h80l-24 -135l-34 -110h-50zM325 565l24 135h80l-24 -135l-34 -110h-50z" />
    <glyph glyph-name="numbersign" unicode="#" horiz-adv-x="665" 
d="M161 195h-107l12 70h127l80 170h-117l13 70h138l91 195h85l-91 -195h140l91 195h85l-91 -195h107l-13 -70h-128l-80 -170h118l-12 -70h-138l-91 -195h-85l91 195h-140l-91 -195h-85zM418 265l80 170h-140l-80 -170h140z" />
    <glyph glyph-name="dollar" unicode="$" horiz-adv-x="640" 
d="M278 -12q-46 10 -79 28.5t-55 41t-35 47t-19.5 44.5t-8.5 33t-2 15h92l6 -21.5t26 -46.5t59.5 -46t106.5 -21q40 0 71 10t52 27t32 39.5t11 47.5q0 35 -28 59t-69.5 43t-90 36.5t-90 41.5t-69.5 57.5t-28 83.5q0 42 17.5 79.5t49.5 67t77.5 47t101.5 19.5l17 90h90
l-18 -98q64 -14 100 -45.5t54 -63.5q20 -38 26 -81h-91q-7 31 -28 57q-18 22 -53.5 40t-97.5 18q-36 0 -64 -9.5t-47.5 -26t-30 -38t-10.5 -45.5q0 -35 27.5 -58t69.5 -42t90 -37.5t90 -42.5t69.5 -58t27.5 -84q0 -42 -18 -81t-51.5 -68.5t-82 -47.5t-108.5 -19l-15 -90h-91
z" />
    <glyph glyph-name="percent" unicode="%" horiz-adv-x="765" 
d="M673 700h85l-543 -700h-85zM572 -10q-32 0 -59.5 12t-47.5 32.5t-31.5 48.5t-11.5 60q0 36 15 68t40 56.5t58 38.5t68 14q32 0 59 -12t47 -32.5t31.5 -48t11.5 -59.5q0 -36 -15 -68.5t-40 -56.5t-57.5 -38.5t-67.5 -14.5zM578 57q21 0 39.5 8t32.5 23t22 35t8 44
q0 38 -23 62t-60 24q-21 0 -39.5 -8t-33 -22.5t-22.5 -35t-8 -44.5q0 -38 23 -62t61 -24zM285 380q-32 0 -59 12t-47 32.5t-31.5 48t-11.5 59.5q0 36 15 68.5t40 56.5t57.5 38.5t67.5 14.5q32 0 59.5 -12t47.5 -32.5t31.5 -48.5t11.5 -60q0 -36 -15 -68t-40 -56.5t-58 -38.5
t-68 -14zM291 447q21 0 39.5 8t33 22.5t22.5 35t8 44.5q0 38 -23 62t-61 24q-21 0 -39.5 -8t-32.5 -23t-22 -35t-8 -44q0 -38 23 -62t60 -24z" />
    <glyph glyph-name="ampersand" unicode="&#x26;" horiz-adv-x="710" 
d="M314 -20q-52 0 -95.5 18t-75.5 49t-50 73.5t-18 90.5q0 57 22.5 106.5t60.5 87t87.5 59t103.5 21.5q14 0 26.5 -1.5t20.5 -3.5q10 -3 17 -5l-71 140l15 85h405l-15 -85h-300l297 -615h-105l-78 170q-9 -38 -31 -72.5t-53.5 -60.5t-73 -41.5t-89.5 -15.5zM320 65
q36 0 68.5 14t56.5 39t38.5 59t14.5 74q0 32 -11 59.5t-30.5 47.5t-47 31t-60.5 11q-36 0 -68.5 -14t-56.5 -39t-38.5 -59t-14.5 -74q0 -32 11 -59.5t30.5 -47.5t47 -31t60.5 -11z" />
    <glyph glyph-name="quotesingle" unicode="'" horiz-adv-x="220" 
d="M159 565l24 135h80l-24 -135l-34 -110h-50z" />
    <glyph glyph-name="parenleft" unicode="(" horiz-adv-x="370" 
d="M285 -161q-47 44 -83 103q-31 51 -56.5 122.5t-25.5 163.5q0 67 14 126t37 109t52 92t60 76q72 78 164 134l28 -63q-46 -30 -94 -78t-87.5 -109.5t-64.5 -134t-25 -151.5q0 -78 20 -139t45 -105q29 -51 66 -90l-50 -56v0z" />
    <glyph glyph-name="parenright" unicode=")" horiz-adv-x="370" 
d="M200 765q46 -44 82 -103q31 -50 57 -122.5t26 -163.5q0 -67 -14 -126t-37 -109.5t-52.5 -92.5t-60.5 -75q-72 -79 -163 -134l-28 63q46 30 94 78t87.5 109.5t64.5 133.5t25 152q0 77 -20.5 138.5t-45.5 105.5q-29 51 -65 90z" />
    <glyph glyph-name="asterisk" unicode="*" horiz-adv-x="370" 
d="M140 420l65 100h-95v65h115v115h70v-115h115v-65h-95l65 -100l-55 -30l-65 95l-65 -95z" />
    <glyph glyph-name="plus" unicode="+" horiz-adv-x="510" 
d="M275 270h-160v75h160v165h80v-165h160v-75h-160v-165h-80v165z" />
    <glyph glyph-name="comma" unicode="," horiz-adv-x="210" 
d="M48 -79q68 1 74 74q1 0 -4.5 -1.5t-15.5 -1.5q-16 0 -26.5 12t-10.5 31q0 32 20 51t46 19q23 0 37.5 -14.5t14.5 -46.5q0 -43 -12 -73.5t-31.5 -50.5t-45 -29.5t-52.5 -9.5z" />
    <glyph glyph-name="hyphen" unicode="-" horiz-adv-x="480" 
d="M124 315h360l-14 -80h-360z" />
    <glyph glyph-name="period" unicode="." horiz-adv-x="210" 
d="M122 -15q-26 0 -41 14.5t-15 37.5q0 30 19 49t45 19t41 -15t15 -38q0 -29 -19 -48t-45 -19z" />
    <glyph glyph-name="slash" unicode="/" horiz-adv-x="360" 
d="M393 700h90l-393 -700h-90z" />
    <glyph glyph-name="zero" unicode="0" horiz-adv-x="740" 
d="M391 -20q-60 0 -111.5 22.5t-89 63.5t-59 98.5t-21.5 128.5q0 98 31 177t81.5 134.5t114.5 85.5t130 30q60 0 111.5 -22.5t89 -63.5t59 -98.5t21.5 -128.5q0 -98 -31 -177t-81.5 -134.5t-114.5 -85.5t-130 -30zM399 65q58 0 106 27t82 74t52.5 109t18.5 133q0 55 -15 97
t-41.5 71t-63 44t-79.5 15q-58 0 -106 -27t-82 -74t-52.5 -109.5t-18.5 -132.5q0 -55 15 -97t41.5 -71t63 -44t79.5 -15z" />
    <glyph glyph-name="one" unicode="1" horiz-adv-x="320" 
d="M254 590l-142 -95l18 100l153 105h80l-123 -700h-90z" />
    <glyph glyph-name="two" unicode="2" horiz-adv-x="580" 
d="M50 85l254 165q57 37 99.5 67t70.5 58.5t42 59.5t14 71q0 27 -10 50.5t-28.5 41t-45 27.5t-59.5 10q-48 0 -79 -21.5t-51 -47.5q-23 -31 -37 -69h-95q18 62 52 111q15 21 34.5 41t46 36t59 25.5t73.5 9.5q53 0 96 -16t73 -44t46.5 -66t16.5 -81q0 -51 -18.5 -93
t-52.5 -79t-82.5 -72t-109.5 -74l-174 -110h360l-15 -85h-495z" />
    <glyph glyph-name="three" unicode="3" horiz-adv-x="590" 
d="M321 -20q-47 0 -83 9t-62.5 24t-45.5 34t-31 39q-29 47 -36 106h91l4.5 -19.5t22 -43.5t52.5 -44t96 -20q38 0 69 12t53.5 32.5t35 48.5t12.5 60q0 54 -39.5 89.5t-108.5 37.5h-139l14 80l269 190h-330l15 85h455l-15 -85l-263 -185h17q49 0 89 -16t68 -44t43 -65t15 -80
q0 -51 -20 -95.5t-56 -77.5t-85 -52.5t-107 -19.5z" />
    <glyph glyph-name="four" unicode="4" horiz-adv-x="585" 
d="M420 150h-365l15 85l327 465h100l-327 -465h265l32 180h90l-32 -180h105l-15 -85h-105l-26 -150h-90z" />
    <glyph glyph-name="five" unicode="5" horiz-adv-x="610" 
d="M340 -20q-60 0 -102 15.5t-70.5 38.5t-45 50t-25 50.5t-10.5 39t-2 16.5h92q7 -36 27 -63q17 -23 50.5 -42.5t90.5 -19.5q37 0 69.5 13t56.5 35.5t37.5 54t13.5 69.5q0 31 -11.5 56.5t-32 43.5t-49.5 28t-63 10q-38 0 -65.5 -10.5t-47.5 -23.5q-23 -15 -39 -34h-82
l98 393h415l-15 -85h-339l-48 -192q14 10 34 18q17 7 43 13t61 6q52 0 94.5 -16.5t73 -45.5t47 -69t16.5 -86q0 -57 -21 -105t-58 -83t-86.5 -55t-106.5 -20z" />
    <glyph glyph-name="six" unicode="6" horiz-adv-x="610" 
d="M335 -20q-57 0 -103 18t-78.5 48.5t-50.5 72t-18 89.5q0 46 13.5 84t36 71t51.5 63t59 60q54 54 106 107t105 107h112l-241 -235q0 1 13.5 3t39.5 2q51 0 94.5 -17t75 -46.5t49.5 -69.5t18 -87q0 -57 -22 -106t-60.5 -85.5t-90 -57.5t-109.5 -21zM340 64q37 0 70.5 13.5
t59 37t40 56t14.5 70.5q0 30 -11.5 56.5t-32.5 46t-51 31t-67 11.5q-38 0 -71 -13.5t-58.5 -37t-40 -56t-14.5 -70.5q0 -30 11.5 -56.5t32.5 -46t51 -31t67 -11.5z" />
    <glyph glyph-name="seven" unicode="7" horiz-adv-x="510" 
d="M481 615h-368l15 85h465l-15 -85l-398 -615h-97z" />
    <glyph glyph-name="eight" unicode="8" horiz-adv-x="640" 
d="M355 -20q-68 0 -119.5 17t-86 45.5t-52 65.5t-17.5 76q0 33 7.5 58.5t20 45.5t28.5 34.5t33 25.5q39 25 89 34l1 5q-26 13 -45 31q-17 16 -31 41t-14 62q0 39 17.5 75t49.5 63.5t77 44t101 16.5q60 0 105.5 -15t76 -40.5t46.5 -58.5t16 -69q0 -54 -22.5 -87.5
t-48.5 -52.5q-32 -23 -71 -33l-1 -5q31 -12 57 -33q21 -18 39 -48t18 -75q0 -44 -18.5 -84t-54 -71t-86.5 -49.5t-115 -18.5zM363 65q43 0 76 11t55.5 29.5t34 43t11.5 51.5q0 25 -11.5 48t-35 40.5t-60 28t-86.5 10.5q-43 0 -76 -11t-55.5 -29.5t-34 -43t-11.5 -51.5
q0 -25 11.5 -48t35 -40.5t60 -28t86.5 -10.5zM418 410q37 0 65 10t47 26.5t28.5 37.5t9.5 43t-9.5 41.5t-29 34.5t-50 24t-71.5 9q-37 0 -65 -10t-47 -26.5t-28.5 -37.5t-9.5 -43t9.5 -41.5t29 -34.5t50 -24t71.5 -9z" />
    <glyph glyph-name="nine" unicode="9" horiz-adv-x="610" 
d="M400 235q0 -1 -13.5 -3t-39.5 -2q-51 0 -94.5 17t-75 46.5t-49.5 69.5t-18 87q0 57 22 106t60.5 85.5t89.5 57.5t110 21q57 0 103 -18t78.5 -48.5t50.5 -72t18 -89.5q0 -46 -14 -84t-36.5 -71t-51 -63t-58.5 -60q-54 -54 -106 -107t-105 -107h-112zM365 314
q37 0 70.5 13.5t59 37t40 56t14.5 70.5q0 30 -11.5 56.5t-32.5 46t-51 31t-67 11.5q-38 0 -71 -13.5t-58.5 -37t-40 -56t-14.5 -70.5q0 -30 11.5 -56.5t32.5 -46t51 -31t67 -11.5z" />
    <glyph glyph-name="colon" unicode=":" horiz-adv-x="205" 
d="M103 -15q-26 0 -41 14.5t-15 37.5q0 30 19 49t45 19t41 -15t15 -38q0 -29 -19 -48t-45 -19zM176 395q-26 0 -41 14.5t-15 37.5q0 30 19 49t45 19t41 -15t15 -38q0 -29 -19 -48t-45 -19z" />
    <glyph glyph-name="semicolon" unicode=";" horiz-adv-x="205" 
d="M176 395q-26 0 -41 14.5t-15 37.5q0 30 19 49t45 19t41 -15t15 -38q0 -29 -19 -48t-45 -19zM30 -79q68 1 74 74q1 0 -4.5 -1.5t-15.5 -1.5q-16 0 -26.5 12t-10.5 31q0 32 20 51t46 19q23 0 37.5 -14.5t14.5 -46.5q0 -43 -12 -73.5t-31.5 -50.5t-45 -29.5t-52.5 -9.5z" />
    <glyph glyph-name="less" unicode="&#x3c;" horiz-adv-x="510" 
d="M110 205v90l390 200v-80l-310 -160v-10l310 -160v-80z" />
    <glyph glyph-name="equal" unicode="=" horiz-adv-x="510" 
d="M120 210h370v-75h-370v75zM120 395h370v-75h-370v75z" />
    <glyph glyph-name="greater" unicode="&#x3e;" horiz-adv-x="510" 
d="M125 85l310 160v10l-310 160v80l390 -200v-90l-390 -200v80z" />
    <glyph glyph-name="question" unicode="?" horiz-adv-x="530" 
d="M241 -15q-26 0 -41 14.5t-15 37.5q0 30 19 49t45 19t41 -15t15 -38q0 -29 -19 -48t-45 -19zM226 200q7 55 29.5 89t52 57t62 38.5t59.5 33t44.5 42t17.5 65.5q0 48 -39 79t-102 31q-51 0 -84 -20t-53 -43q-23 -27 -36 -62h-93q21 58 57 105q15 19 35.5 38t47 34t59 24
t71.5 9q52 0 93.5 -15.5t71 -41.5t45.5 -59t16 -69q0 -56 -17.5 -91.5t-44.5 -58.5t-59.5 -39.5t-62 -35t-52 -44t-29.5 -66.5h-89z" />
    <glyph glyph-name="at" unicode="@" horiz-adv-x="815" 
d="M445 -60q-78 0 -142 26.5t-110.5 73t-72 108.5t-25.5 134q0 87 33 163.5t89.5 133t131.5 89t159 32.5q78 0 140 -24t105.5 -64t67 -92.5t23.5 -108.5q0 -55 -19 -100.5t-54 -78.5t-83.5 -51.5t-107.5 -18.5h-59l7 42h-2q-10 -15 -24 -26q-12 -10 -31 -18t-45 -8
t-49.5 10.5t-41 29.5t-28 46t-10.5 60q0 42 14.5 77.5t37.5 61.5t53 40.5t60 14.5q32 0 53 -11t33 -24q14 -16 20 -35l9 55h81l-43 -245h4q25 0 51.5 12t48 34.5t35 56t13.5 76.5q0 42 -18 80.5t-51.5 68.5t-82.5 47.5t-112 17.5q-68 0 -128 -25.5t-105 -70.5t-71.5 -107.5
t-26.5 -137.5q0 -58 20.5 -107.5t57.5 -85.5t89 -56t115 -20q35 0 65.5 5t52.5 11q26 7 46 16l-12 -72q-20 -10 -45 -18q-22 -7 -51.5 -12t-64.5 -5zM453 227q19 0 36.5 8t30.5 22t20.5 34.5t7.5 45.5q0 37 -21 58.5t-54 21.5q-19 0 -36.5 -8t-30.5 -22.5t-21 -34.5t-8 -45
q0 -38 21.5 -59t54.5 -21z" />
    <glyph glyph-name="A" unicode="A" horiz-adv-x="675" 
d="M328 700h275l57 -700h-88l-19 205h-345l-91 -205h-92zM548 290l-28 325h-135l-142 -325h305z" />
    <glyph glyph-name="B" unicode="B" horiz-adv-x="700" 
d="M203 700h317q47 0 83.5 -14t61.5 -37t38 -53t13 -63q0 -37 -9.5 -63.5t-24 -46t-31 -31.5t-31 -19t-24 -9.5t-8.5 -2.5l-2 -5q28 -10 51 -28q19 -16 35 -43t16 -70q0 -47 -17 -86t-48.5 -68t-76.5 -45t-102 -16h-364zM451 85q69 0 107 36t38 94q0 44 -34 74.5t-102 30.5
h-234l-41 -235h266zM501 405q54 0 87 31.5t33 85.5q0 38 -28 65.5t-81 27.5h-234l-37 -210h260z" />
    <glyph glyph-name="C" unicode="C" horiz-adv-x="800" 
d="M440 -20q-77 0 -139.5 25t-107 69t-69 105.5t-24.5 134.5q0 86 31.5 160.5t86 129t126.5 85.5t153 31q80 0 138 -23t97 -59.5t61 -82t31 -90.5h-90l-4 12.5t-13.5 31.5t-27 41t-45 41t-65.5 31.5t-90 12.5q-61 0 -115.5 -23.5t-95 -65.5t-64.5 -101t-24 -130
q0 -55 18.5 -101t52 -79t81 -51.5t105.5 -18.5q36 0 66.5 7.5t56 20.5t46.5 29.5t37 33.5q38 40 61 91h94q-32 -75 -83 -134q-22 -25 -50 -49t-63.5 -42.5t-78 -30t-93.5 -11.5z" />
    <glyph glyph-name="D" unicode="D" horiz-adv-x="720" 
d="M203 700h204q73 0 134 -24t105 -66.5t69 -100.5t25 -127q0 -79 -30.5 -148.5t-83.5 -121.5t-125 -82t-154 -30h-267zM355 85q63 0 116.5 22.5t92.5 62t61 93.5t22 117q0 49 -18 92t-50.5 75t-78 50t-100.5 18h-122l-93 -530h170z" />
    <glyph glyph-name="E" unicode="E" horiz-adv-x="610" 
d="M203 700h490l-15 -85h-400l-38 -220h325l-15 -85h-325l-40 -225h400l-15 -85h-490z" />
    <glyph glyph-name="F" unicode="F" horiz-adv-x="580" 
d="M203 700h475l-15 -85h-385l-42 -240h305l-15 -85h-305l-51 -290h-90z" />
    <glyph glyph-name="G" unicode="G" horiz-adv-x="860" 
d="M440 -20q-77 0 -139.5 25t-107 69t-69 105.5t-24.5 134.5q0 86 31.5 160.5t86 129t126.5 85.5t153 31q78 0 135.5 -22t96.5 -58t62 -80.5t32 -89.5h-90q-14 46 -46 82q-14 15 -32 30t-42.5 27t-55 19t-68.5 7q-61 0 -115.5 -23.5t-95 -65.5t-64.5 -101t-24 -130
q0 -55 18.5 -101t52 -79t81 -51.5t105.5 -18.5q59 0 108 22.5t84.5 55t57 70t24.5 67.5h-130l15 85h310l-15 -85h-83q-3 -17 -15 -46t-33 -62t-52 -67.5t-72 -62t-92.5 -45t-113.5 -17.5z" />
    <glyph glyph-name="H" unicode="H" horiz-adv-x="715" 
d="M203 700h90l-53 -305h375l53 305h90l-123 -700h-90l55 310h-375l-55 -310h-90z" />
    <glyph glyph-name="I" unicode="I" horiz-adv-x="250" 
d="M203 700h90l-123 -700h-90z" />
    <glyph glyph-name="J" unicode="J" horiz-adv-x="550" 
d="M252 -20q-69 0 -112 23t-67 53t-33.5 59.5t-12.5 43.5l91 19q5 -32 22 -57q14 -22 41 -39.5t75 -17.5q63 0 102.5 38.5t53.5 113.5l84 484h89l-85 -492q-20 -112 -85 -170t-163 -58z" />
    <glyph glyph-name="K" unicode="K" horiz-adv-x="645" 
d="M203 700h90l-53 -305h128l273 305h112l-305 -340l192 -360h-105l-165 310h-145l-55 -310h-90z" />
    <glyph glyph-name="L" unicode="L" horiz-adv-x="530" 
d="M203 700h90l-108 -615h365l-15 -85h-455z" />
    <glyph glyph-name="M" unicode="M" horiz-adv-x="915" 
d="M203 700h143l131 -450h45l289 450h147l-123 -700h-90l108 610l-283 -440h-165l-127 440l-108 -610h-90z" />
    <glyph glyph-name="N" unicode="N" horiz-adv-x="725" 
d="M203 700h125l246 -590l104 590h90l-123 -700h-125l-246 590l-104 -590h-90z" />
    <glyph glyph-name="O" unicode="O" horiz-adv-x="820" 
d="M439 -20q-77 0 -139.5 25t-107 69.5t-68.5 105.5t-24 134q0 86 31.5 160.5t85 129t125.5 85.5t153 31q77 0 139.5 -25t107 -69.5t68.5 -105.5t24 -134q0 -86 -31.5 -160.5t-85 -129t-125.5 -85.5t-153 -31zM447 65q61 0 115.5 24t94.5 66.5t63.5 101.5t23.5 128
q0 55 -18 101t-51.5 79t-81 51.5t-106.5 18.5q-62 0 -116 -24t-94 -66.5t-63.5 -101.5t-23.5 -128q0 -55 18 -101t51.5 -79t81 -51.5t106.5 -18.5z" />
    <glyph glyph-name="P" unicode="P" horiz-adv-x="680" 
d="M203 700h277q56 0 100.5 -17t75.5 -46t47.5 -66.5t16.5 -79.5q0 -53 -19.5 -99t-55 -79.5t-85 -53t-109.5 -19.5h-239l-42 -240h-90zM458 325q80 0 125 44.5t45 116.5q0 27 -10.5 50.5t-30 41t-48 27.5t-64.5 10h-197l-51 -290h231z" />
    <glyph glyph-name="Q" unicode="Q" horiz-adv-x="820" 
d="M359 -12q-60 11 -107.5 40t-81.5 71.5t-52 97t-18 117.5q0 86 31.5 160.5t85 129t125.5 85.5t153 31q77 0 139.5 -25t107 -69.5t68.5 -105.5t24 -134q0 -85 -30.5 -158.5t-83 -128t-123 -86t-149.5 -33.5l-32 -180h-90zM447 65q61 0 115.5 24t94.5 66.5t63.5 101.5
t23.5 128q0 55 -18 101t-51.5 79t-81 51.5t-106.5 18.5q-62 0 -116 -24t-94 -66.5t-63.5 -101.5t-23.5 -128q0 -55 18 -101t51.5 -79t81 -51.5t106.5 -18.5z" />
    <glyph glyph-name="R" unicode="R" horiz-adv-x="690" 
d="M203 700h279q56 0 100.5 -16t75 -43t47 -63t16.5 -77q0 -48 -16 -89.5t-44.5 -72.5t-69.5 -50.5t-90 -25.5l129 -263h-105l-124 260h-185l-46 -260h-90zM466 345q78 0 120.5 41t42.5 108q0 54 -39 87.5t-120 33.5h-192l-48 -270h236z" />
    <glyph glyph-name="S" unicode="S" horiz-adv-x="640" 
d="M360 -20q-66 0 -112.5 15.5t-77.5 39.5t-49 51.5t-27.5 51.5t-12 40.5t-2.5 18.5h92l6 -21.5t26 -46.5t59.5 -46t106.5 -21q40 0 71 10t52 27t32 39.5t11 47.5q0 35 -28 59t-69.5 43t-90 36.5t-90 41.5t-69.5 57.5t-28 83.5q0 42 18 81t51 68t80 46.5t105 17.5
q47 0 83 -8.5t63.5 -22.5t46.5 -32t32 -36q30 -44 36 -99h-91q-7 31 -28 57q-18 22 -53.5 40t-97.5 18q-36 0 -64 -9.5t-47.5 -26t-30 -38t-10.5 -45.5q0 -35 27.5 -58t69.5 -42t90 -37.5t90 -42.5t69.5 -58t27.5 -84q0 -43 -18.5 -82t-53 -69t-84 -47.5t-111.5 -17.5z" />
    <glyph glyph-name="T" unicode="T" horiz-adv-x="590" 
d="M348 615h-240l15 85h570l-15 -85h-240l-108 -615h-90z" />
    <glyph glyph-name="U" unicode="U" horiz-adv-x="700" 
d="M380 -20q-70 0 -123 23t-86 63.5t-45 96t-1 120.5q10 59 19 112t18 103.5t18 100t18 101.5h90l-74 -422q-8 -45 -0.5 -84t29.5 -67.5t57 -45t82 -16.5q75 0 129 47.5t70 136.5q20 113 39.5 225t39.5 226h90l-80 -459q-11 -60 -36 -108.5t-62.5 -82t-86 -52t-105.5 -18.5z
" />
    <glyph glyph-name="V" unicode="V" horiz-adv-x="670" 
d="M135 700h92l52 -615h120l268 615h98l-308 -700h-260z" />
    <glyph glyph-name="W" unicode="W" horiz-adv-x="965" 
d="M145 700h93l22 -615h25l238 615h145l22 -615h25l238 615h97l-278 -700h-161l-17 615h-25l-233 -615h-159z" />
    <glyph glyph-name="X" unicode="X" horiz-adv-x="645" 
d="M276 345l-113 355h91l101 -310h70l209 310h99l-237 -355l124 -345h-91l-111 305h-70l-219 -305h-99z" />
    <glyph glyph-name="Y" unicode="Y" horiz-adv-x="640" 
d="M305 255l-192 445h99l145 -340h10l265 340h111l-348 -445l-45 -255h-90z" />
    <glyph glyph-name="Z" unicode="Z" horiz-adv-x="610" 
d="M50 85l513 525v5h-405l15 85h525l-15 -85l-512 -525l-1 -5h425l-15 -85h-545z" />
    <glyph glyph-name="bracketleft" unicode="[" horiz-adv-x="330" 
d="M207 725h230l-14 -80h-140l-125 -710h140l-14 -80h-230z" />
    <glyph glyph-name="backslash" unicode="\" horiz-adv-x="360" 
d="M123 700h90l147 -700h-90z" />
    <glyph glyph-name="bracketright" unicode="]" horiz-adv-x="330" 
d="M9 -65h140l125 710h-140l14 80h230l-153 -870h-230z" />
    <glyph glyph-name="asciicircum" unicode="^" horiz-adv-x="460" 
d="M250 700h100l145 -320h-80l-105 240h-20l-105 -240h-80z" />
    <glyph glyph-name="underscore" unicode="_" horiz-adv-x="338" 
d="M-2 -105h360l-13 -75h-360z" />
    <glyph glyph-name="grave" unicode="`" horiz-adv-x="245" 
d="M140 755h100l59 -145h-70z" />
    <glyph glyph-name="a" unicode="a" horiz-adv-x="613" 
d="M304 -10q-47 0 -87.5 17t-70 47t-46.5 72.5t-17 93.5q0 63 23 116t60.5 92t86 60.5t98.5 21.5q54 0 89.5 -17t55.5 -37q24 -24 36 -54l18 98h80l-89 -500h-80l12 66l-10.5 -12t-31.5 -26.5t-53 -26t-74 -11.5zM318 65q36 0 70 15t60.5 42.5t42.5 66.5t16 86
q0 35 -11.5 64.5t-32.5 50.5t-49.5 33t-61.5 12q-42 0 -76.5 -18t-59.5 -47t-39 -66.5t-14 -76.5q0 -36 11.5 -65.5t32 -51t49 -33.5t62.5 -12z" />
    <glyph glyph-name="b" unicode="b" horiz-adv-x="610" 
d="M348 -10q-55 0 -90 17t-55 37q-24 24 -36 54l-17 -98h-80l124 700h80l-48 -266l10.5 12t31.5 26.5t53 26t74 11.5q47 0 87.5 -17t70 -47t46.5 -72.5t17 -93.5q0 -63 -23 -116t-60.5 -92t-86 -60.5t-98.5 -21.5zM347 65q42 0 76.5 18t59.5 47t39 66.5t14 76.5
q0 36 -11.5 65.5t-32 51t-49 33.5t-62.5 12q-36 0 -70 -15t-60.5 -42.5t-42.5 -66.5t-16 -86q0 -35 11.5 -64.5t32.5 -50.5t49.5 -33t61.5 -12z" />
    <glyph glyph-name="c" unicode="c" horiz-adv-x="565" 
d="M318 -10q-51 0 -94.5 17t-74.5 47.5t-48.5 73t-17.5 93.5q0 63 23 116t61 91.5t87.5 60t102.5 21.5q39 0 69.5 -7.5t54 -20.5t40 -29t28.5 -33q27 -40 36 -90h-81q-9 29 -28 52q-17 20 -46.5 36.5t-77.5 16.5q-36 0 -70.5 -15t-61 -42t-42.5 -65.5t-16 -85.5
q0 -38 12.5 -68t34.5 -51t50.5 -32t61.5 -11q47 0 79 16.5t52 36.5q24 24 38 54h82q-21 -51 -56 -91q-15 -17 -34.5 -33.5t-44 -29.5t-54 -20.5t-65.5 -7.5z" />
    <glyph glyph-name="d" unicode="d" horiz-adv-x="613" 
d="M304 -10q-47 0 -87.5 17t-70 47t-46.5 72.5t-17 93.5q0 63 23 116t60.5 92t86 60.5t98.5 21.5q54 0 89.5 -17t55.5 -37q24 -24 36 -54l53 298h80l-124 -700h-80l12 66l-10.5 -12t-31.5 -26.5t-53 -26t-74 -11.5zM318 65q36 0 70 15t60.5 42.5t42.5 66.5t16 86
q0 35 -11.5 64.5t-32.5 50.5t-49.5 33t-61.5 12q-42 0 -76.5 -18t-59.5 -47t-39 -66.5t-14 -76.5q0 -36 11.5 -65.5t32 -51t49 -33.5t62.5 -12z" />
    <glyph glyph-name="e" unicode="e" horiz-adv-x="590" 
d="M320 -10q-53 0 -96.5 17.5t-75 48.5t-48.5 73.5t-17 92.5q0 65 24 118t63 91t89 58.5t102 20.5q53 0 96.5 -18t74.5 -49t48 -73t17 -90q0 -8 -0.5 -17.5t-1.5 -17.5l-2 -20h-431q0 -36 12 -65.5t34 -50.5t52 -32.5t66 -11.5q45 0 77.5 14t53.5 31q25 19 40 45h83
q-23 -47 -60 -83q-32 -31 -81 -56.5t-119 -25.5zM516 295q-7 64 -49.5 102t-113.5 38q-32 0 -61 -10.5t-52.5 -29.5t-41 -44.5t-26.5 -55.5h344z" />
    <glyph glyph-name="f" unicode="f" horiz-adv-x="315" 
d="M165 425h-65l13 75h65l35 200h240l-13 -75h-160l-22 -125h130l-13 -75h-130l-75 -425h-80z" />
    <glyph glyph-name="g" unicode="g" horiz-adv-x="615" 
d="M88 -115h350l32 179q-2 -3 -13.5 -14.5t-32.5 -25t-51.5 -24t-70.5 -10.5q-47 0 -87.5 17t-70 47t-46.5 72.5t-17 93.5q0 63 23 116t60.5 92t86 60.5t98.5 21.5q54 0 89.5 -17t55.5 -37q24 -24 36 -54l18 98h80l-89 -500l-34 -190h-430zM316 65q36 0 70 15t60.5 42.5
t42.5 66.5t16 86q0 35 -11.5 64.5t-32.5 50.5t-49.5 33t-61.5 12q-42 0 -76.5 -18t-59.5 -47t-39 -66.5t-14 -76.5q0 -36 11.5 -65.5t32 -51t49 -33.5t62.5 -12z" />
    <glyph glyph-name="h" unicode="h" horiz-adv-x="580" 
d="M194 700h80l-47 -265q15 20 38 37q20 14 50.5 26t73.5 12q52 0 90 -17.5t61 -48.5t30.5 -73.5t-1.5 -92.5l-49 -278h-80l49 278q12 69 -19.5 113t-104.5 44q-62 0 -107 -40t-58 -112l-50 -283h-80z" />
    <glyph glyph-name="i" unicode="i" horiz-adv-x="220" 
d="M158 500h80l-88 -500h-80zM216 595q-23 0 -37.5 15t-14.5 35q0 24 18 42t41 18t37.5 -15t14.5 -35q0 -24 -18 -42t-41 -18z" />
    <glyph glyph-name="j" unicode="j" horiz-adv-x="220" 
d="M-95 -115h145l108 615h80l-121 -690h-225zM217 595q-23 0 -37.5 15t-14.5 35q0 24 18 42t41 18t37.5 -15t14.5 -35q0 -24 -18 -42t-41 -18z" />
    <glyph glyph-name="k" unicode="k" horiz-adv-x="520" 
d="M193 700h80l-70 -400h95l195 200h100l-226 -235l153 -265h-95l-130 225h-105l-40 -225h-80z" />
    <glyph glyph-name="l" unicode="l" horiz-adv-x="275" 
d="M193 700h80l-110 -625h115l-13 -75h-195z" />
    <glyph glyph-name="m" unicode="m" horiz-adv-x="915" 
d="M158 500h80l-11 -62q16 20 40 36q20 14 49.5 25t69.5 11q47 0 76.5 -15t46.5 -33q20 -21 31 -47h5q18 26 44 47q23 18 58 33t85 15q48 0 83 -17t57 -48t29 -73t-2 -93l-49 -279h-80l49 280q6 32 2.5 60t-16.5 49t-35.5 33.5t-55.5 12.5q-28 0 -55 -10.5t-49.5 -29.5
t-38 -45t-20.5 -56l-51 -294h-80l49 280q6 32 2.5 60t-16.5 49t-35.5 33.5t-55.5 12.5q-28 0 -55 -10.5t-49.5 -29.5t-38 -45t-20.5 -56l-51 -294h-80z" />
    <glyph glyph-name="n" unicode="n" horiz-adv-x="585" 
d="M158 500h80l-11 -65q15 20 38 37q20 14 50.5 26t73.5 12q52 0 90 -17.5t61 -48.5t30.5 -73.5t-1.5 -92.5l-49 -278h-80l49 278q12 69 -19.5 113t-104.5 44q-62 0 -107 -40t-58 -112l-50 -283h-80z" />
    <glyph glyph-name="o" unicode="o" 
d="M325 -10q-55 0 -99.5 17.5t-76 49t-49 73.5t-17.5 92q0 63 22.5 115.5t61 91t89.5 60t108 21.5q55 0 99.5 -17.5t76 -49t49 -74t17.5 -91.5q0 -63 -22.5 -115.5t-61 -91t-89.5 -60t-108 -21.5zM331 65q39 0 74.5 15t62.5 42.5t43 66t16 85.5q0 36 -12 65.5t-34 50.5
t-53.5 33t-69.5 12q-39 0 -74.5 -15t-62.5 -42.5t-43 -66t-16 -85.5q0 -36 12 -65.5t34 -50.5t53.5 -33t69.5 -12z" />
    <glyph glyph-name="p" unicode="p" horiz-adv-x="610" 
d="M158 500h80l-12 -66l10.5 12t31.5 26.5t53 26t74 11.5q47 0 87.5 -17t70 -47t46.5 -72.5t17 -93.5q0 -63 -23 -116t-60.5 -92t-86 -60.5t-98.5 -21.5q-55 0 -90 17t-55 37q-24 24 -36 54l-51 -288h-80zM347 65q42 0 76.5 18t59.5 47t39 66.5t14 76.5q0 36 -11.5 65.5
t-32 51t-49 33.5t-62.5 12q-36 0 -70 -15t-60.5 -42.5t-42.5 -66.5t-16 -86q0 -35 11.5 -64.5t32.5 -50.5t49.5 -33t61.5 -12z" />
    <glyph glyph-name="q" unicode="q" horiz-adv-x="613" 
d="M473 66l-10.5 -12t-31.5 -26.5t-53 -26t-74 -11.5q-47 0 -87.5 17t-70 47t-46.5 72.5t-17 93.5q0 63 23 116t60.5 92t86 60.5t98.5 21.5q54 0 89.5 -17t55.5 -37q24 -24 36 -54l18 98h80l-123 -690h-80zM318 65q36 0 70 15t60.5 42.5t42.5 66.5t16 86q0 35 -11.5 64.5
t-32.5 50.5t-49.5 33t-61.5 12q-42 0 -76.5 -18t-59.5 -47t-39 -66.5t-14 -76.5q0 -36 11.5 -65.5t32 -51t49 -33.5t62.5 -12z" />
    <glyph glyph-name="r" unicode="r" horiz-adv-x="380" 
d="M158 500h80l-12 -68q15 20 37 36q19 14 47 25.5t66 11.5h78l-14 -80h-76q-31 0 -58 -10.5t-49 -29t-36.5 -45t-20.5 -57.5l-50 -283h-80z" />
    <glyph glyph-name="s" unicode="s" horiz-adv-x="505" 
d="M291 -10q-40 0 -70.5 7t-54 18.5t-40 26.5t-28.5 30q-27 36 -35 83h85q8 -26 27 -45q17 -17 46 -31t77 -14q55 0 83.5 22t28.5 51q0 22 -21.5 36.5t-53.5 26.5t-70 23.5t-70 29t-53.5 42.5t-21.5 64q0 30 12 57.5t35.5 48t58 32.5t79.5 12q37 0 66.5 -6.5t51.5 -17
t37.5 -24.5t26.5 -28q26 -33 33 -76h-85q-7 21 -24 38q-14 14 -40 26.5t-69 12.5q-53 0 -77 -21t-24 -43q0 -23 21.5 -37t53.5 -26t69.5 -23.5t69.5 -28.5t53.5 -42.5t21.5 -64.5q0 -32 -13 -61t-38.5 -50.5t-62.5 -34.5t-85 -13z" />
    <glyph glyph-name="t" unicode="t" horiz-adv-x="365" 
d="M165 425h-65l13 75h65l20 110h80l-20 -110h160l-13 -75h-160l-62 -350h165l-13 -75h-245z" />
    <glyph glyph-name="u" unicode="u" horiz-adv-x="590" 
d="M285 -10q-53 0 -90.5 17.5t-60.5 48.5t-30.5 73.5t1.5 92.5l49 278h80l-49 -278q-12 -69 19.5 -113t104.5 -44q62 0 107 40t58 112l50 283h80l-88 -500h-80l11 65q-15 -21 -38 -38q-20 -14 -50.5 -25.5t-73.5 -11.5z" />
    <glyph glyph-name="v" unicode="v" horiz-adv-x="525" 
d="M103 500h82l40 -425h85l190 425h88l-228 -500h-205z" />
    <glyph glyph-name="w" unicode="w" horiz-adv-x="775" 
d="M113 500h82l15 -425h25l160 425h145l10 -425h25l165 425h88l-198 -500h-157l-10 425h-15l-160 -425h-153z" />
    <glyph glyph-name="x" unicode="x" horiz-adv-x="495" 
d="M205 255l-102 245h85l84 -205h45l156 205h95l-188 -245l105 -255h-86l-86 220h-45l-164 -220h-94z" />
    <glyph glyph-name="y" unicode="y" horiz-adv-x="510" 
d="M263 0h-113l-47 500h83l35 -425h75l205 425h87l-332 -690h-87z" />
    <glyph glyph-name="z" unicode="z" horiz-adv-x="470" 
d="M43 75l357 350h-285l13 75h395l-13 -75l-357 -350h305l-13 -75h-415z" />
    <glyph glyph-name="braceleft" unicode="{" horiz-adv-x="350" 
d="M238 -145q-72 0 -102 35.5t-19 99.5l38 215q4 23 -7 36.5t-34 13.5h-30l13 75h30q23 0 39 13.5t20 36.5l37 210q11 64 54 99.5t115 35.5h65l-14 -80h-65q-61 0 -70 -55l-37 -210q-5 -29 -18 -45.5t-27 -25.5q-16 -11 -35 -14l-1 -5q18 -3 30 -14q11 -9 18 -26t2 -45
l-38 -215q-9 -55 51 -55h65l-15 -80h-65v0z" />
    <glyph glyph-name="bar" unicode="|" horiz-adv-x="325" 
d="M175 750h85v-850h-85v850z" />
    <glyph glyph-name="braceright" unicode="}" horiz-adv-x="350" 
d="M9 -65h65q61 0 70 55l38 215q5 28 18 45t27 26q16 11 35 14l1 5q-18 3 -30 14q-11 9 -18.5 25.5t-2.5 45.5l38 210q9 55 -51 55h-65l14 80h65q72 0 102.5 -35.5t19.5 -99.5l-37 -210q-4 -23 7 -36.5t34 -13.5h30l-13 -75h-30q-23 0 -39 -13.5t-20 -36.5l-38 -215
q-11 -64 -54 -99.5t-115 -35.5h-65z" />
    <glyph glyph-name="asciitilde" unicode="~" horiz-adv-x="510" 
d="M100 265q0 60 31 90t84 30q34 0 58.5 -10t44.5 -22.5t38 -22.5t39 -10q45 0 45 45v20h80v-20q0 -60 -31 -90t-84 -30q-34 0 -58.5 10t-44.5 22.5t-38 22.5t-39 10q-45 0 -45 -45v-20h-80v20z" />
    <glyph glyph-name="nonbreakingspace" unicode="&#xa0;" horiz-adv-x="280" 
 />
    <glyph glyph-name="exclamdown" unicode="&#xa1;" horiz-adv-x="280" 
d="M127 155l40 140h60l-10 -140l-61 -345h-90zM219 395q-26 0 -41 15t-15 38q0 29 19 48t45 19t41 -14.5t15 -37.5q0 -30 -19 -49t-45 -19z" />
    <glyph glyph-name="cent" unicode="&#xa2;" horiz-adv-x="565" 
d="M244 0q-75 20 -119.5 78.5t-44.5 142.5q0 60 21 111t56 89t81 61t96 27l15 81h80l-15 -85q57 -12 90.5 -40.5t50.5 -58.5q20 -35 27 -76h-81q-9 29 -28 52q-17 20 -46.5 36.5t-77.5 16.5q-36 0 -70.5 -15t-61 -42t-42.5 -65.5t-16 -85.5q0 -38 12.5 -68t34.5 -51
t50.5 -32t61.5 -11q47 0 79 16.5t52 36.5q24 24 38 54h82q-21 -49 -55 -89q-29 -34 -76 -62t-116 -30l-14 -86h-80z" />
    <glyph glyph-name="sterling" unicode="&#xa3;" horiz-adv-x="560" 
d="M35 85h17q82 0 97 114l23 131h-75l15 85h75l24 129q9 48 29 83t48.5 58t63 34t71.5 11q59 0 97 -19t59.5 -45.5t30 -55.5t8.5 -50h-88q-4 24 -16 42q-11 16 -33 29.5t-61 13.5q-47 0 -79 -26t-42 -83l-22 -121h163l-15 -85h-163l-23 -131q-5 -32 -14.5 -53.5t-19 -34
t-17 -17.5t-8.5 -4v-5h372l-15 -85h-517z" />
    <glyph glyph-name="currency" unicode="&#xa4;" horiz-adv-x="665" 
d="M126 95h-80l15 85h80l14 80h-80l15 85h80l63 355h240q55 0 99 -15.5t74.5 -42.5t47 -63.5t16.5 -78.5q0 -51 -19 -94.5t-53.5 -76t-83 -51t-107.5 -18.5h-202l-14 -80h250l-15 -85h-250l-16 -95h-90zM450 345q81 0 124.5 42t43.5 109q0 52 -39.5 85.5t-113.5 33.5h-156
l-49 -270h190z" />
    <glyph glyph-name="yen" unicode="&#xa5;" horiz-adv-x="640" 
d="M274 80h-145l13 75h145l11 65h-145l14 75h140l-194 405h98l149 -315h10l261 315h112l-336 -405h140l-14 -75h-145l-11 -65h145l-13 -75h-145l-14 -80h-90z" />
    <glyph glyph-name="brokenbar" unicode="&#xa6;" horiz-adv-x="325" 
d="M175 265h85v-365h-85v365zM175 750h85v-365h-85v365z" />
    <glyph glyph-name="section" unicode="&#xa7;" horiz-adv-x="550" 
d="M305 -20q-41 0 -72.5 6t-55.5 16.5t-42 23t-30 26.5q-29 32 -39 73h85q9 -20 29 -35q17 -14 49 -24.5t85 -10.5q31 0 53 6t35.5 15t19.5 20t6 22q0 24 -23.5 41t-59 31t-76.5 28.5t-76.5 33t-59 44.5t-23.5 63q0 36 17 59.5t38 37.5q24 16 55 25q-16 12 -28 27
q-11 13 -19 31t-8 41q0 28 12.5 53.5t37 44.5t61 30.5t83.5 11.5q53 0 90.5 -10.5t63.5 -26.5t41.5 -35t23.5 -35t10.5 -27l2.5 -11h-85q-9 19 -27 35q-16 13 -45 24t-77 11q-31 0 -52.5 -6t-35 -15t-19.5 -20.5t-6 -22.5q0 -24 23 -41t57.5 -31.5t75 -29.5t75 -34t57.5 -45
t23 -63q0 -47 -30.5 -78t-79.5 -45q17 -11 31 -25q11 -12 21 -29.5t10 -40.5q0 -26 -13.5 -51t-39 -44.5t-63 -31.5t-86.5 -12zM386 255q16 0 32 6.5t28.5 17t20 24t7.5 27.5q0 20 -18.5 34.5t-47.5 26.5t-63.5 23.5t-65.5 25.5q-14 0 -29 -6t-28.5 -16t-22 -24t-8.5 -29
q0 -20 18.5 -35t47 -27t63 -23.5t66.5 -24.5z" />
    <glyph glyph-name="dieresis" unicode="&#xa8;" horiz-adv-x="350" 
d="M186 625q-22 0 -36.5 15t-14.5 36q0 24 18.5 41.5t41.5 17.5q22 0 36.5 -15t14.5 -36q0 -24 -18.5 -41.5t-41.5 -17.5zM365 625q-22 0 -36.5 15t-14.5 36q0 24 18.5 41.5t41.5 17.5q22 0 36.5 -15t14.5 -36q0 -24 -18.5 -41.5t-41.5 -17.5z" />
    <glyph glyph-name="copyright" unicode="&#xa9;" horiz-adv-x="840" 
d="M475 -20q-81 0 -149.5 28.5t-118.5 78t-78.5 117t-28.5 146.5t28.5 146.5t78.5 117t118.5 78t149.5 28.5t149.5 -28.5t118.5 -78t78.5 -117t28.5 -146.5t-28.5 -146.5t-78.5 -117t-118.5 -78t-149.5 -28.5zM475 50q64 0 118 22.5t93.5 62t61.5 94.5t22 121t-22 121
t-61.5 94.5t-93.5 62t-118 22.5t-118 -22.5t-93.5 -62t-61.5 -94.5t-22 -121t22 -121t61.5 -94.5t93.5 -62t118 -22.5zM480 165q-38 0 -70.5 14t-57 39t-38.5 59t-14 73t14 73t38.5 59t57 39t70.5 14q25 0 46 -6t38 -15.5t30.5 -21.5t23.5 -25q24 -30 37 -67h-85
q-9 17 -21 30q-11 11 -28 20.5t-41 9.5q-42 0 -71 -30.5t-29 -79.5t29 -79.5t71 -30.5q26 0 43 9.5t28 20.5q12 13 19 30h85q-13 -38 -37 -68q-20 -26 -53.5 -46.5t-84.5 -20.5z" />
    <glyph glyph-name="ordfeminine" unicode="&#xaa;" horiz-adv-x="370" 
d="M215 370q-49 0 -78 26t-29 62q0 48 32.5 77.5t89.5 29.5h114q0 3 1 7t1.5 9t0.5 13q0 24 -16 38.5t-45 14.5q-20 0 -33 -6t-21 -13q-10 -9 -15 -19h-77q13 28 35 50q18 19 47 35t70 16q35 0 61 -11t42 -29.5t22 -43t1 -51.5l-35 -203h-73l8 45q-11 -13 -27 -24
q-14 -9 -33 -16t-43 -7zM235 427q35 0 63.5 24.5t35.5 58.5h-98q-25 0 -39 -12.5t-14 -32.5q0 -18 14.5 -28t37.5 -10z" />
    <glyph glyph-name="guillemotleft" unicode="&#xab;" horiz-adv-x="550" 
d="M74 250l253 245l48 -58l-201 -192l129 -187l-62 -53zM289 250l253 245l48 -58l-201 -192l129 -187l-62 -53z" />
    <glyph glyph-name="logicalnot" unicode="&#xac;" horiz-adv-x="510" 
d="M420 275h-300v75h385v-185h-85v110z" />
    <glyph glyph-name="uni00AD" unicode="&#xad;" horiz-adv-x="480" 
d="M124 315h360l-14 -80h-360z" />
    <glyph glyph-name="registered" unicode="&#xae;" 
d="M375 200q-56 0 -104.5 20t-84 55.5t-56 83t-20.5 101.5t20.5 101.5t56 83t84 55.5t104.5 20t104.5 -20t84 -55.5t56 -83t20.5 -101.5t-20.5 -101.5t-56 -83t-84 -55.5t-104.5 -20zM375 260q43 0 79.5 15t63.5 42t42 63.5t15 79.5t-15 79.5t-42 63.5t-63.5 42t-79.5 15
t-79.5 -15t-63.5 -42t-42 -63.5t-15 -79.5t15 -79.5t42 -63.5t63.5 -42t79.5 -15zM275 590h115q53 0 79 -24t26 -66q0 -21 -8 -35t-17 -23q-11 -11 -25 -17l55 -80h-70l-50 70h-40v-70h-65v245zM390 470q19 0 30 7.5t11 22.5t-11 22.5t-30 7.5h-50v-60h50z" />
    <glyph glyph-name="macron" unicode="&#xaf;" horiz-adv-x="330" 
d="M147 720h270l-12 -70h-270z" />
    <glyph glyph-name="degree" unicode="&#xb0;" horiz-adv-x="330" 
d="M249 450q-28 0 -52 10.5t-41 27.5t-27 40t-10 47t10 47t27 40t41 27.5t52 10.5t52 -10.5t41 -27.5t27 -40t10 -47t-10 -47t-27 -40t-41 -27.5t-52 -10.5zM249 515q26 0 43 17t17 43t-17 43t-43 17t-43 -17t-17 -43t17 -43t43 -17z" />
    <glyph glyph-name="plusminus" unicode="&#xb1;" horiz-adv-x="510" 
d="M105 90h160v155h-160v75h160v165h80v-165h160v-75h-160v-155h160v-75h-400v75z" />
    <glyph glyph-name="twosuperior" unicode="&#xb2;" horiz-adv-x="355" 
d="M117 525l89 50q78 44 113.5 69.5t35.5 54.5q0 19 -14.5 32t-45.5 13q-23 0 -37 -8.5t-23 -18.5q-11 -12 -16 -27h-74q10 34 30 60q17 23 46.5 41.5t75.5 18.5q65 0 99 -31.5t34 -74.5q0 -27 -10 -49t-33.5 -43t-61.5 -42t-93 -45h170l-11 -65h-285z" />
    <glyph glyph-name="threesuperior" unicode="&#xb3;" horiz-adv-x="350" 
d="M259 450q-40 0 -66.5 11.5t-43 28.5t-23.5 36t-8 34h74l2.5 -7.5t10 -15.5t21.5 -15t37 -7q29 0 45 14.5t16 37.5q0 17 -15.5 30t-48.5 13h-67l10 60l102 65h-140l11 65h245l-10 -60l-108 -70q47 -4 72 -31t25 -66q0 -26 -10 -48.5t-28.5 -39t-44.5 -26t-58 -9.5z" />
    <glyph glyph-name="acute" unicode="&#xb4;" horiz-adv-x="245" 
d="M251 755h100l-141 -145h-70z" />
    <glyph glyph-name="mu" unicode="&#xb5;" horiz-adv-x="590" 
d="M154 500h80l-49 -278q-12 -69 19.5 -113t104.5 -44q62 0 107 40t58 112l50 283h80l-88 -500h-80l11 65q-15 -21 -38 -38q-20 -14 -50.5 -25.5t-73.5 -11.5q-38 0 -63 9.5t-40 20.5q-18 13 -27 30l-44 -250h-81z" />
    <glyph glyph-name="paragraph" unicode="&#xb6;" horiz-adv-x="415" 
d="M285 330q-38 0 -71.5 15t-58.5 40t-40 58.5t-15 71.5q0 37 15 71t42 59t63.5 40t79.5 15h160v-80h-85v-810h-90v520z" />
    <glyph glyph-name="periodcentered" unicode="&#xb7;" horiz-adv-x="280" 
d="M186 210q-26 0 -41 14.5t-15 37.5q0 30 19 49t45 19t41 -15t15 -38q0 -29 -19 -48t-45 -19z" />
    <glyph glyph-name="cedilla" unicode="&#xb8;" horiz-adv-x="245" 
d="M75 -240q-20 0 -35.5 4.5t-26.5 9.5q-12 6 -21 14l10 56q9 -8 20 -14q10 -5 24 -9t33 -4q23 0 37 11.5t14 32.5q0 14 -12 25.5t-38 11.5h-37l68 112h54l-42 -67q7 -1 18.5 -6t22 -14t18.5 -23t8 -34q0 -23 -8.5 -42t-24 -33.5t-36.5 -22.5t-46 -8z" />
    <glyph glyph-name="onesuperior" unicode="&#xb9;" horiz-adv-x="350" 
d="M137 525h100l35 195l-99 -50l14 80l104 50h70l-49 -275h95l-11 -65h-270z" />
    <glyph glyph-name="ordmasculine" unicode="&#xba;" horiz-adv-x="400" 
d="M269 370q-34 0 -63 12t-50.5 33t-33.5 49.5t-12 60.5q0 38 15 72t40.5 59t59 39.5t70.5 14.5q34 0 63 -12t50.5 -33t33.5 -49.5t12 -60.5q0 -38 -15 -72t-40.5 -59t-59 -39.5t-70.5 -14.5zM273 440q42 0 73.5 30.5t31.5 85.5q0 38 -24.5 61t-62.5 23q-42 0 -73.5 -30.5
t-31.5 -85.5q0 -38 24.5 -61t62.5 -23z" />
    <glyph glyph-name="guillemotright" unicode="&#xbb;" horiz-adv-x="550" 
d="M64 63l201 192l-129 187l62 53l167 -245l-253 -245zM279 63l201 192l-129 187l62 53l167 -245l-253 -245z" />
    <glyph glyph-name="onequarter" unicode="&#xbc;" horiz-adv-x="753" 
d="M694 700h80l-553 -700h-80zM120 425h100l35 195l-99 -50l14 80l104 50h70l-49 -275h95l-11 -65h-270zM615 70h-170l11 65l167 205h80l-167 -205h90l12 65h75l-12 -65h50l-11 -65h-50l-12 -70h-75z" />
    <glyph glyph-name="onehalf" unicode="&#xbd;" horiz-adv-x="801" 
d="M693 700h80l-553 -700h-80zM120 425h100l35 195l-99 -50l14 80l104 50h70l-49 -275h95l-11 -65h-270zM462 65l89 50q78 44 113.5 69.5t35.5 54.5q0 19 -14.5 32t-45.5 13q-23 0 -37 -8.5t-23 -18.5q-11 -12 -16 -27h-74q10 34 30 60q17 23 46.5 41.5t75.5 18.5
q65 0 99 -31.5t34 -74.5q0 -27 -10 -49t-33.5 -43t-61.5 -42t-93 -45h170l-11 -65h-285z" />
    <glyph glyph-name="threequarters" unicode="&#xbe;" horiz-adv-x="738" 
d="M684 700h80l-553 -700h-80zM242 350q-40 0 -66.5 11.5t-43 28.5t-23.5 36t-8 34h74l2.5 -7.5t10 -15.5t21.5 -15t37 -7q29 0 45 14.5t16 37.5q0 17 -15.5 30t-48.5 13h-67l10 60l102 65h-140l11 65h245l-10 -60l-108 -70q47 -4 72 -31t25 -66q0 -26 -10 -48.5t-28.5 -39
t-44.5 -26t-58 -9.5zM605 70h-170l11 65l167 205h80l-167 -205h90l12 65h75l-12 -65h50l-11 -65h-50l-12 -70h-75z" />
    <glyph glyph-name="questiondown" unicode="&#xbf;" horiz-adv-x="520" 
d="M261 -210q-52 0 -93.5 15.5t-71 42t-45.5 60.5t-16 72q0 52 17 86t43.5 57t58 39.5t61 34.5t52 41.5t31.5 61.5h89q-7 -50 -29 -82t-51.5 -54t-61.5 -38t-59 -33.5t-44.5 -41.5t-17.5 -61q0 -53 39 -84t102 -31q51 0 84 19.5t53 42.5q23 27 36 63h93q-21 -59 -57 -105
q-15 -20 -36 -39t-47 -33.5t-58.5 -23.5t-71.5 -9zM363 395q-26 0 -41 15t-15 38q0 29 19 48t45 19t41 -14.5t15 -37.5q0 -30 -19 -49t-45 -19z" />
    <glyph glyph-name="Agrave" unicode="&#xc0;" horiz-adv-x="675" 
d="M328 700h275l57 -700h-88l-19 205h-345l-91 -205h-92zM548 290l-28 325h-135l-142 -325h305zM355 935h100l59 -145h-70z" />
    <glyph glyph-name="Aacute" unicode="&#xc1;" horiz-adv-x="675" 
d="M328 700h275l57 -700h-88l-19 205h-345l-91 -205h-92zM548 290l-28 325h-135l-142 -325h305zM561 935h100l-141 -145h-70z" />
    <glyph glyph-name="Acircumflex" unicode="&#xc2;" horiz-adv-x="675" 
d="M328 700h275l57 -700h-88l-19 205h-345l-91 -205h-92zM548 290l-28 325h-135l-142 -325h305zM461 935h90l84 -145h-82l-49 90h-10l-81 -90h-88z" />
    <glyph glyph-name="Atilde" unicode="&#xc3;" horiz-adv-x="675" 
d="M328 700h275l57 -700h-88l-19 205h-345l-91 -205h-92zM548 290l-28 325h-135l-142 -325h305zM554 800q-26 0 -44 9.5t-32 20.5t-26 20.5t-27 9.5q-32 0 -36 -30l-4 -25h-65l5 28q16 92 101 92q26 0 44 -9.5t32 -20.5t26.5 -20.5t27.5 -9.5q30 0 35 30l4 25h65l-5 -28
q-16 -92 -101 -92z" />
    <glyph glyph-name="Adieresis" unicode="&#xc4;" horiz-adv-x="675" 
d="M328 700h275l57 -700h-88l-19 205h-345l-91 -205h-92zM548 290l-28 325h-135l-142 -325h305zM396 805q-22 0 -36.5 15t-14.5 36q0 24 18.5 41.5t41.5 17.5q22 0 36.5 -15t14.5 -36q0 -24 -18.5 -41.5t-41.5 -17.5zM575 805q-22 0 -36.5 15t-14.5 36q0 24 18.5 41.5
t41.5 17.5q22 0 36.5 -15t14.5 -36q0 -24 -18.5 -41.5t-41.5 -17.5z" />
    <glyph glyph-name="Aring" unicode="&#xc5;" horiz-adv-x="675" 
d="M328 700h275l57 -700h-88l-19 205h-345l-91 -205h-92zM548 290l-28 325h-135l-142 -325h305zM478 755q-45 0 -71.5 27t-26.5 66q0 25 9 46.5t25 37t36.5 24.5t43.5 9q45 0 71.5 -27t26.5 -66q0 -25 -9 -46.5t-25 -37t-36.5 -24.5t-43.5 -9zM483 805q26 0 42.5 18t16.5 43
q0 20 -13.5 34.5t-39.5 14.5t-42.5 -18t-16.5 -43q0 -20 13.5 -34.5t39.5 -14.5z" />
    <glyph glyph-name="AE" unicode="&#xc6;" horiz-adv-x="985" 
d="M328 700h740l-15 -85h-385l-38 -220h310l-15 -85h-310l-40 -225h385l-15 -85h-475l36 205h-298l-91 -205h-92zM521 290l57 325h-193l-142 -325h278z" />
    <glyph glyph-name="Ccedilla" unicode="&#xc7;" horiz-adv-x="800" 
d="M355 -250q-20 0 -35.5 4.5t-26.5 9.5q-12 6 -21 14l10 56q9 -8 20 -14q10 -5 24 -9t33 -4q23 0 37 11.5t14 32.5q0 14 -12 25.5t-38 11.5h-37l58 96q-65 9 -116.5 37t-88.5 71t-56.5 99.5t-19.5 122.5q0 86 31.5 160.5t86 129t126.5 85.5t153 31q80 0 138 -23t97 -59.5
t61 -82t31 -90.5h-90l-4 12.5t-13.5 31.5t-27 41t-45 41t-65.5 31.5t-90 12.5q-61 0 -115.5 -23.5t-95 -65.5t-64.5 -101t-24 -130q0 -55 18.5 -101t52 -79t81 -51.5t105.5 -18.5q36 0 66.5 7.5t56 20.5t46.5 29.5t37 33.5q38 40 61 91h94q-32 -75 -83 -134q-22 -25 -50 -49
t-63.5 -42.5t-78 -30t-93.5 -11.5h-8l-29 -47q7 -1 18.5 -6t22 -14t18.5 -23t8 -34q0 -23 -8.5 -42t-24 -33.5t-36.5 -22.5t-46 -8z" />
    <glyph glyph-name="Egrave" unicode="&#xc8;" horiz-adv-x="610" 
d="M203 700h490l-15 -85h-400l-38 -220h325l-15 -85h-325l-40 -225h400l-15 -85h-490zM340 935h100l59 -145h-70z" />
    <glyph glyph-name="Eacute" unicode="&#xc9;" horiz-adv-x="610" 
d="M203 700h490l-15 -85h-400l-38 -220h325l-15 -85h-325l-40 -225h400l-15 -85h-490zM536 935h100l-141 -145h-70z" />
    <glyph glyph-name="Ecircumflex" unicode="&#xca;" horiz-adv-x="610" 
d="M203 700h490l-15 -85h-400l-38 -220h325l-15 -85h-325l-40 -225h400l-15 -85h-490zM441 935h90l84 -145h-82l-49 90h-10l-81 -90h-88z" />
    <glyph glyph-name="Edieresis" unicode="&#xcb;" horiz-adv-x="610" 
d="M203 700h490l-15 -85h-400l-38 -220h325l-15 -85h-325l-40 -225h400l-15 -85h-490zM376 805q-22 0 -36.5 15t-14.5 36q0 24 18.5 41.5t41.5 17.5q22 0 36.5 -15t14.5 -36q0 -24 -18.5 -41.5t-41.5 -17.5zM555 805q-22 0 -36.5 15t-14.5 36q0 24 18.5 41.5t41.5 17.5
q22 0 36.5 -15t14.5 -36q0 -24 -18.5 -41.5t-41.5 -17.5z" />
    <glyph glyph-name="Igrave" unicode="&#xcc;" horiz-adv-x="250" 
d="M203 700h90l-123 -700h-90zM135 935h100l59 -145h-70z" />
    <glyph glyph-name="Iacute" unicode="&#xcd;" horiz-adv-x="250" 
d="M203 700h90l-123 -700h-90zM341 935h100l-141 -145h-70z" />
    <glyph glyph-name="Icircumflex" unicode="&#xce;" horiz-adv-x="250" 
d="M203 700h90l-123 -700h-90zM241 935h90l84 -145h-82l-49 90h-10l-81 -90h-88z" />
    <glyph glyph-name="Idieresis" unicode="&#xcf;" horiz-adv-x="250" 
d="M203 700h90l-123 -700h-90zM181 805q-22 0 -36.5 15t-14.5 36q0 24 18.5 41.5t41.5 17.5q22 0 36.5 -15t14.5 -36q0 -24 -18.5 -41.5t-41.5 -17.5zM360 805q-22 0 -36.5 15t-14.5 36q0 24 18.5 41.5t41.5 17.5q22 0 36.5 -15t14.5 -36q0 -24 -18.5 -41.5t-41.5 -17.5z
" />
    <glyph glyph-name="Eth" unicode="&#xd0;" horiz-adv-x="730" 
d="M143 305h-72l15 87h72l54 308h205q73 0 134 -24t105 -66.5t68.5 -100.5t24.5 -127q0 -79 -30 -148.5t-83.5 -121.5t-125 -82t-153.5 -30h-27.5h-62.5h-84.5h-93.5zM364 85q63 0 116.5 22.5t93 62t61.5 93.5t22 117q0 49 -18 92t-51 75t-78.5 50t-100.5 18h-121l-40 -223
h176l-15 -87h-176l-39 -220h170z" />
    <glyph glyph-name="Ntilde" unicode="&#xd1;" horiz-adv-x="725" 
d="M203 700h125l246 -590l104 590h90l-123 -700h-125l-246 590l-104 -590h-90zM574 800q-26 0 -44 9.5t-32 20.5t-26 20.5t-27 9.5q-32 0 -36 -30l-4 -25h-65l5 28q16 92 101 92q26 0 44 -9.5t32 -20.5t26.5 -20.5t27.5 -9.5q30 0 35 30l4 25h65l-5 -28q-16 -92 -101 -92z
" />
    <glyph glyph-name="Ograve" unicode="&#xd2;" horiz-adv-x="820" 
d="M439 -20q-77 0 -139.5 25t-107 69.5t-68.5 105.5t-24 134q0 86 31.5 160.5t85 129t125.5 85.5t153 31q77 0 139.5 -25t107 -69.5t68.5 -105.5t24 -134q0 -86 -31.5 -160.5t-85 -129t-125.5 -85.5t-153 -31zM447 65q61 0 115.5 24t94.5 66.5t63.5 101.5t23.5 128
q0 55 -18 101t-51.5 79t-81 51.5t-106.5 18.5q-62 0 -116 -24t-94 -66.5t-63.5 -101.5t-23.5 -128q0 -55 18 -101t51.5 -79t81 -51.5t106.5 -18.5zM400 935h100l59 -145h-70z" />
    <glyph glyph-name="Oacute" unicode="&#xd3;" horiz-adv-x="820" 
d="M439 -20q-77 0 -139.5 25t-107 69.5t-68.5 105.5t-24 134q0 86 31.5 160.5t85 129t125.5 85.5t153 31q77 0 139.5 -25t107 -69.5t68.5 -105.5t24 -134q0 -86 -31.5 -160.5t-85 -129t-125.5 -85.5t-153 -31zM447 65q61 0 115.5 24t94.5 66.5t63.5 101.5t23.5 128
q0 55 -18 101t-51.5 79t-81 51.5t-106.5 18.5q-62 0 -116 -24t-94 -66.5t-63.5 -101.5t-23.5 -128q0 -55 18 -101t51.5 -79t81 -51.5t106.5 -18.5zM601 935h100l-141 -145h-70z" />
    <glyph glyph-name="Ocircumflex" unicode="&#xd4;" horiz-adv-x="820" 
d="M439 -20q-77 0 -139.5 25t-107 69.5t-68.5 105.5t-24 134q0 86 31.5 160.5t85 129t125.5 85.5t153 31q77 0 139.5 -25t107 -69.5t68.5 -105.5t24 -134q0 -86 -31.5 -160.5t-85 -129t-125.5 -85.5t-153 -31zM447 65q61 0 115.5 24t94.5 66.5t63.5 101.5t23.5 128
q0 55 -18 101t-51.5 79t-81 51.5t-106.5 18.5q-62 0 -116 -24t-94 -66.5t-63.5 -101.5t-23.5 -128q0 -55 18 -101t51.5 -79t81 -51.5t106.5 -18.5zM501 935h90l84 -145h-82l-49 90h-10l-81 -90h-88z" />
    <glyph glyph-name="Otilde" unicode="&#xd5;" horiz-adv-x="820" 
d="M439 -20q-77 0 -139.5 25t-107 69.5t-68.5 105.5t-24 134q0 86 31.5 160.5t85 129t125.5 85.5t153 31q77 0 139.5 -25t107 -69.5t68.5 -105.5t24 -134q0 -86 -31.5 -160.5t-85 -129t-125.5 -85.5t-153 -31zM447 65q61 0 115.5 24t94.5 66.5t63.5 101.5t23.5 128
q0 55 -18 101t-51.5 79t-81 51.5t-106.5 18.5q-62 0 -116 -24t-94 -66.5t-63.5 -101.5t-23.5 -128q0 -55 18 -101t51.5 -79t81 -51.5t106.5 -18.5zM599 800q-26 0 -44 9.5t-32 20.5t-26 20.5t-27 9.5q-32 0 -36 -30l-4 -25h-65l5 28q16 92 101 92q26 0 44 -9.5t32 -20.5
t26.5 -20.5t27.5 -9.5q30 0 35 30l4 25h65l-5 -28q-16 -92 -101 -92z" />
    <glyph glyph-name="Odieresis" unicode="&#xd6;" horiz-adv-x="820" 
d="M439 -20q-77 0 -139.5 25t-107 69.5t-68.5 105.5t-24 134q0 86 31.5 160.5t85 129t125.5 85.5t153 31q77 0 139.5 -25t107 -69.5t68.5 -105.5t24 -134q0 -86 -31.5 -160.5t-85 -129t-125.5 -85.5t-153 -31zM447 65q61 0 115.5 24t94.5 66.5t63.5 101.5t23.5 128
q0 55 -18 101t-51.5 79t-81 51.5t-106.5 18.5q-62 0 -116 -24t-94 -66.5t-63.5 -101.5t-23.5 -128q0 -55 18 -101t51.5 -79t81 -51.5t106.5 -18.5zM441 805q-22 0 -36.5 15t-14.5 36q0 24 18.5 41.5t41.5 17.5q22 0 36.5 -15t14.5 -36q0 -24 -18.5 -41.5t-41.5 -17.5z
M620 805q-22 0 -36.5 15t-14.5 36q0 24 18.5 41.5t41.5 17.5q22 0 36.5 -15t14.5 -36q0 -24 -18.5 -41.5t-41.5 -17.5z" />
    <glyph glyph-name="multiply" unicode="&#xd7;" horiz-adv-x="510" 
d="M135 175l125 125l-125 125l55 55l125 -125l125 125l55 -55l-125 -125l125 -125l-55 -55l-125 125l-125 -125z" />
    <glyph glyph-name="Oslash" unicode="&#xd8;" horiz-adv-x="820" 
d="M439 -20q-87 0 -154.5 31t-112.5 86l-143 -102l17 98l88 63q-34 71 -34 158q0 86 31.5 160.5t85 129t125.5 85.5t153 31q87 0 154.5 -31t112.5 -86l143 102l-17 -98l-88 -63q17 -35 25.5 -74.5t8.5 -83.5q0 -86 -31.5 -160.5t-85 -129t-125.5 -85.5t-153 -31zM447 65
q61 0 115.5 24t94.5 66.5t63.5 101.5t23.5 128q0 57 -20 106l-478 -342q33 -40 84 -62t117 -22zM688 551q-34 40 -84.5 62t-116.5 22q-62 0 -116 -24t-94 -66.5t-63.5 -101.5t-23.5 -128q0 -57 20 -106z" />
    <glyph glyph-name="Ugrave" unicode="&#xd9;" horiz-adv-x="700" 
d="M380 -20q-70 0 -123 23t-86 63.5t-45 96t-1 120.5q10 59 19 112t18 103.5t18 100t18 101.5h90l-74 -422q-8 -45 -0.5 -84t29.5 -67.5t57 -45t82 -16.5q75 0 129 47.5t70 136.5q20 113 39.5 225t39.5 226h90l-80 -459q-11 -60 -36 -108.5t-62.5 -82t-86 -52t-105.5 -18.5z
M360 935h100l59 -145h-70z" />
    <glyph glyph-name="Uacute" unicode="&#xda;" horiz-adv-x="700" 
d="M380 -20q-70 0 -123 23t-86 63.5t-45 96t-1 120.5q10 59 19 112t18 103.5t18 100t18 101.5h90l-74 -422q-8 -45 -0.5 -84t29.5 -67.5t57 -45t82 -16.5q75 0 129 47.5t70 136.5q20 113 39.5 225t39.5 226h90l-80 -459q-11 -60 -36 -108.5t-62.5 -82t-86 -52t-105.5 -18.5z
M561 935h100l-141 -145h-70z" />
    <glyph glyph-name="Ucircumflex" unicode="&#xdb;" horiz-adv-x="700" 
d="M380 -20q-70 0 -123 23t-86 63.5t-45 96t-1 120.5q10 59 19 112t18 103.5t18 100t18 101.5h90l-74 -422q-8 -45 -0.5 -84t29.5 -67.5t57 -45t82 -16.5q75 0 129 47.5t70 136.5q20 113 39.5 225t39.5 226h90l-80 -459q-11 -60 -36 -108.5t-62.5 -82t-86 -52t-105.5 -18.5z
M461 935h90l84 -145h-82l-49 90h-10l-81 -90h-88z" />
    <glyph glyph-name="Udieresis" unicode="&#xdc;" horiz-adv-x="700" 
d="M380 -20q-70 0 -123 23t-86 63.5t-45 96t-1 120.5q10 59 19 112t18 103.5t18 100t18 101.5h90l-74 -422q-8 -45 -0.5 -84t29.5 -67.5t57 -45t82 -16.5q75 0 129 47.5t70 136.5q20 113 39.5 225t39.5 226h90l-80 -459q-11 -60 -36 -108.5t-62.5 -82t-86 -52t-105.5 -18.5z
M401 805q-22 0 -36.5 15t-14.5 36q0 24 18.5 41.5t41.5 17.5q22 0 36.5 -15t14.5 -36q0 -24 -18.5 -41.5t-41.5 -17.5zM580 805q-22 0 -36.5 15t-14.5 36q0 24 18.5 41.5t41.5 17.5q22 0 36.5 -15t14.5 -36q0 -24 -18.5 -41.5t-41.5 -17.5z" />
    <glyph glyph-name="Yacute" unicode="&#xdd;" horiz-adv-x="640" 
d="M305 255l-192 445h99l145 -340h10l265 340h111l-348 -445l-45 -255h-90zM506 935h100l-141 -145h-70z" />
    <glyph glyph-name="Thorn" unicode="&#xde;" horiz-adv-x="710" 
d="M203 700h90l-23 -133h225q57 0 102 -15t76 -41t47.5 -61.5t16.5 -76.5q0 -49 -18.5 -91t-52 -73t-80.5 -49t-104 -18h-287l-25 -142h-90zM487 227q75 0 116.5 38.5t41.5 101.5q0 24 -9 44.5t-28 36.5t-48 25t-68 9h-237l-45 -255h277z" />
    <glyph glyph-name="germandbls" unicode="&#xdf;" horiz-adv-x="570" 
d="M167 550q6 35 24 65t46 52.5t64 35t77 12.5q45 0 80.5 -13.5t60.5 -36.5t38.5 -53.5t13.5 -63.5q0 -54 -20.5 -87t-44.5 -51t-44 -24.5t-19 -6.5q0 -5 -1 -8q36 -9 64 -28q24 -17 44.5 -47.5t20.5 -79.5q0 -45 -16.5 -84.5t-47 -69t-73 -46t-94.5 -16.5h-90l14 75h79
q31 0 57 10t45 28.5t30 44t11 55.5q0 22 -9.5 43.5t-27 38.5t-42 27t-54.5 10h-44l14 75q33 -3 63 7t52 28.5t35 44t13 54.5q0 42 -29.5 70.5t-82.5 28.5q-50 0 -85 -30.5t-43 -79.5l-93 -530h-83z" />
    <glyph glyph-name="agrave" unicode="&#xe0;" horiz-adv-x="613" 
d="M304 -10q-47 0 -87.5 17t-70 47t-46.5 72.5t-17 93.5q0 63 23 116t60.5 92t86 60.5t98.5 21.5q54 0 89.5 -17t55.5 -37q24 -24 36 -54l18 98h80l-89 -500h-80l12 66l-10.5 -12t-31.5 -26.5t-53 -26t-74 -11.5zM318 65q36 0 70 15t60.5 42.5t42.5 66.5t16 86
q0 35 -11.5 64.5t-32.5 50.5t-49.5 33t-61.5 12q-42 0 -76.5 -18t-59.5 -47t-39 -66.5t-14 -76.5q0 -36 11.5 -65.5t32 -51t49 -33.5t62.5 -12zM280 755h100l59 -145h-70z" />
    <glyph glyph-name="aacute" unicode="&#xe1;" horiz-adv-x="613" 
d="M304 -10q-47 0 -87.5 17t-70 47t-46.5 72.5t-17 93.5q0 63 23 116t60.5 92t86 60.5t98.5 21.5q54 0 89.5 -17t55.5 -37q24 -24 36 -54l18 98h80l-89 -500h-80l12 66l-10.5 -12t-31.5 -26.5t-53 -26t-74 -11.5zM318 65q36 0 70 15t60.5 42.5t42.5 66.5t16 86
q0 35 -11.5 64.5t-32.5 50.5t-49.5 33t-61.5 12q-42 0 -76.5 -18t-59.5 -47t-39 -66.5t-14 -76.5q0 -36 11.5 -65.5t32 -51t49 -33.5t62.5 -12zM481 755h100l-141 -145h-70z" />
    <glyph glyph-name="acircumflex" unicode="&#xe2;" horiz-adv-x="613" 
d="M304 -10q-47 0 -87.5 17t-70 47t-46.5 72.5t-17 93.5q0 63 23 116t60.5 92t86 60.5t98.5 21.5q54 0 89.5 -17t55.5 -37q24 -24 36 -54l18 98h80l-89 -500h-80l12 66l-10.5 -12t-31.5 -26.5t-53 -26t-74 -11.5zM318 65q36 0 70 15t60.5 42.5t42.5 66.5t16 86
q0 35 -11.5 64.5t-32.5 50.5t-49.5 33t-61.5 12q-42 0 -76.5 -18t-59.5 -47t-39 -66.5t-14 -76.5q0 -36 11.5 -65.5t32 -51t49 -33.5t62.5 -12zM381 755h90l84 -145h-82l-49 90h-10l-81 -90h-88z" />
    <glyph glyph-name="atilde" unicode="&#xe3;" horiz-adv-x="613" 
d="M304 -10q-47 0 -87.5 17t-70 47t-46.5 72.5t-17 93.5q0 63 23 116t60.5 92t86 60.5t98.5 21.5q54 0 89.5 -17t55.5 -37q24 -24 36 -54l18 98h80l-89 -500h-80l12 66l-10.5 -12t-31.5 -26.5t-53 -26t-74 -11.5zM318 65q36 0 70 15t60.5 42.5t42.5 66.5t16 86
q0 35 -11.5 64.5t-32.5 50.5t-49.5 33t-61.5 12q-42 0 -76.5 -18t-59.5 -47t-39 -66.5t-14 -76.5q0 -36 11.5 -65.5t32 -51t49 -33.5t62.5 -12zM479 620q-26 0 -44 9.5t-32 20.5t-26 20.5t-27 9.5q-32 0 -36 -30l-4 -25h-65l5 28q16 92 101 92q26 0 44 -9.5t32 -20.5
t26.5 -20.5t27.5 -9.5q30 0 35 30l4 25h65l-5 -28q-16 -92 -101 -92z" />
    <glyph glyph-name="adieresis" unicode="&#xe4;" horiz-adv-x="613" 
d="M304 -10q-47 0 -87.5 17t-70 47t-46.5 72.5t-17 93.5q0 63 23 116t60.5 92t86 60.5t98.5 21.5q54 0 89.5 -17t55.5 -37q24 -24 36 -54l18 98h80l-89 -500h-80l12 66l-10.5 -12t-31.5 -26.5t-53 -26t-74 -11.5zM318 65q36 0 70 15t60.5 42.5t42.5 66.5t16 86
q0 35 -11.5 64.5t-32.5 50.5t-49.5 33t-61.5 12q-42 0 -76.5 -18t-59.5 -47t-39 -66.5t-14 -76.5q0 -36 11.5 -65.5t32 -51t49 -33.5t62.5 -12zM321 625q-22 0 -36.5 15t-14.5 36q0 24 18.5 41.5t41.5 17.5q22 0 36.5 -15t14.5 -36q0 -24 -18.5 -41.5t-41.5 -17.5zM500 625
q-22 0 -36.5 15t-14.5 36q0 24 18.5 41.5t41.5 17.5q22 0 36.5 -15t14.5 -36q0 -24 -18.5 -41.5t-41.5 -17.5z" />
    <glyph glyph-name="aring" unicode="&#xe5;" horiz-adv-x="613" 
d="M304 -10q-47 0 -87.5 17t-70 47t-46.5 72.5t-17 93.5q0 63 23 116t60.5 92t86 60.5t98.5 21.5q54 0 89.5 -17t55.5 -37q24 -24 36 -54l18 98h80l-89 -500h-80l12 66l-10.5 -12t-31.5 -26.5t-53 -26t-74 -11.5zM318 65q36 0 70 15t60.5 42.5t42.5 66.5t16 86
q0 35 -11.5 64.5t-32.5 50.5t-49.5 33t-61.5 12q-42 0 -76.5 -18t-59.5 -47t-39 -66.5t-14 -76.5q0 -36 11.5 -65.5t32 -51t49 -33.5t62.5 -12zM408 575q-45 0 -71.5 27t-26.5 66q0 25 9 46.5t25 37t36.5 24.5t43.5 9q45 0 71.5 -27t26.5 -66q0 -25 -9 -46.5t-25 -37
t-36.5 -24.5t-43.5 -9zM413 625q26 0 42.5 18t16.5 43q0 20 -13.5 34.5t-39.5 14.5t-42.5 -18t-16.5 -43q0 -20 13.5 -34.5t39.5 -14.5z" />
    <glyph glyph-name="ae" unicode="&#xe6;" horiz-adv-x="955" 
d="M255 -10q-79 0 -126 38t-47 101q0 35 13.5 65t38.5 52.5t61.5 35.5t82.5 13h193q0 2 3.5 14.5t3.5 29.5q0 42 -29.5 71.5t-89.5 29.5q-38 0 -63.5 -13t-41.5 -29q-18 -18 -30 -41h-87q17 44 47 79q13 15 30 29t39 25t49 18t60 7q66 0 112 -23.5t68 -65.5q39 40 89.5 62
t104.5 22q51 0 92.5 -18t71.5 -49t46 -73t16 -90q0 -8 -0.5 -17.5t-1.5 -17.5l-2 -20h-416q0 -36 11.5 -65.5t32 -50.5t50 -32.5t65.5 -11.5q44 0 74 14t50 31q23 19 37 45h83q-22 -47 -57 -83q-30 -31 -77.5 -56.5t-115.5 -25.5q-73 0 -126 32t-80 86q-9 -13 -26.5 -33
t-46 -39t-68.5 -32.5t-93 -13.5zM283 65q69 0 118.5 42.5t59.5 117.5h-190q-51 0 -77.5 -24.5t-26.5 -62.5q0 -33 28.5 -53t87.5 -20zM881 295q-7 64 -46.5 102t-106.5 38q-40 0 -69.5 -13.5t-50.5 -34t-34.5 -45.5t-20.5 -47h328z" />
    <glyph glyph-name="ccedilla" unicode="&#xe7;" horiz-adv-x="565" 
d="M234 -240q-20 0 -35.5 4.5t-26.5 9.5q-12 6 -21 14l10 56q9 -8 20 -14q10 -5 24 -9t33 -4q23 0 37 11.5t14 32.5q0 14 -12 25.5t-38 11.5h-37l59 98q-40 8 -72.5 28t-56 49t-36.5 66.5t-13 81.5q0 63 23 116t61 91.5t87.5 60t102.5 21.5q39 0 69.5 -7.5t54 -20.5t40 -29
t28.5 -33q27 -40 36 -90h-81q-9 29 -28 52q-17 20 -46.5 36.5t-77.5 16.5q-36 0 -70.5 -15t-61 -42t-42.5 -65.5t-16 -85.5q0 -38 12.5 -68t34.5 -51t50.5 -32t61.5 -11q47 0 79 16.5t52 36.5q24 24 38 54h82q-21 -51 -56 -91q-15 -17 -34.5 -33.5t-44 -29.5t-54 -20.5
t-65.5 -7.5h-7l-29 -47q7 -1 18.5 -6t22 -14t18.5 -23t8 -34q0 -23 -8.5 -42t-24 -33.5t-36.5 -22.5t-46 -8z" />
    <glyph glyph-name="egrave" unicode="&#xe8;" horiz-adv-x="590" 
d="M320 -10q-53 0 -96.5 17.5t-75 48.5t-48.5 73.5t-17 92.5q0 65 24 118t63 91t89 58.5t102 20.5q53 0 96.5 -18t74.5 -49t48 -73t17 -90q0 -8 -0.5 -17.5t-1.5 -17.5l-2 -20h-431q0 -36 12 -65.5t34 -50.5t52 -32.5t66 -11.5q45 0 77.5 14t53.5 31q25 19 40 45h83
q-23 -47 -60 -83q-32 -31 -81 -56.5t-119 -25.5zM516 295q-7 64 -49.5 102t-113.5 38q-32 0 -61 -10.5t-52.5 -29.5t-41 -44.5t-26.5 -55.5h344zM265 755h100l59 -145h-70z" />
    <glyph glyph-name="eacute" unicode="&#xe9;" horiz-adv-x="590" 
d="M320 -10q-53 0 -96.5 17.5t-75 48.5t-48.5 73.5t-17 92.5q0 65 24 118t63 91t89 58.5t102 20.5q53 0 96.5 -18t74.5 -49t48 -73t17 -90q0 -8 -0.5 -17.5t-1.5 -17.5l-2 -20h-431q0 -36 12 -65.5t34 -50.5t52 -32.5t66 -11.5q45 0 77.5 14t53.5 31q25 19 40 45h83
q-23 -47 -60 -83q-32 -31 -81 -56.5t-119 -25.5zM516 295q-7 64 -49.5 102t-113.5 38q-32 0 -61 -10.5t-52.5 -29.5t-41 -44.5t-26.5 -55.5h344zM466 755h100l-141 -145h-70z" />
    <glyph glyph-name="ecircumflex" unicode="&#xea;" horiz-adv-x="590" 
d="M320 -10q-53 0 -96.5 17.5t-75 48.5t-48.5 73.5t-17 92.5q0 65 24 118t63 91t89 58.5t102 20.5q53 0 96.5 -18t74.5 -49t48 -73t17 -90q0 -8 -0.5 -17.5t-1.5 -17.5l-2 -20h-431q0 -36 12 -65.5t34 -50.5t52 -32.5t66 -11.5q45 0 77.5 14t53.5 31q25 19 40 45h83
q-23 -47 -60 -83q-32 -31 -81 -56.5t-119 -25.5zM516 295q-7 64 -49.5 102t-113.5 38q-32 0 -61 -10.5t-52.5 -29.5t-41 -44.5t-26.5 -55.5h344zM371 755h90l84 -145h-82l-49 90h-10l-81 -90h-88z" />
    <glyph glyph-name="edieresis" unicode="&#xeb;" horiz-adv-x="590" 
d="M320 -10q-53 0 -96.5 17.5t-75 48.5t-48.5 73.5t-17 92.5q0 65 24 118t63 91t89 58.5t102 20.5q53 0 96.5 -18t74.5 -49t48 -73t17 -90q0 -8 -0.5 -17.5t-1.5 -17.5l-2 -20h-431q0 -36 12 -65.5t34 -50.5t52 -32.5t66 -11.5q45 0 77.5 14t53.5 31q25 19 40 45h83
q-23 -47 -60 -83q-32 -31 -81 -56.5t-119 -25.5zM516 295q-7 64 -49.5 102t-113.5 38q-32 0 -61 -10.5t-52.5 -29.5t-41 -44.5t-26.5 -55.5h344zM306 625q-22 0 -36.5 15t-14.5 36q0 24 18.5 41.5t41.5 17.5q22 0 36.5 -15t14.5 -36q0 -24 -18.5 -41.5t-41.5 -17.5zM485 625
q-22 0 -36.5 15t-14.5 36q0 24 18.5 41.5t41.5 17.5q22 0 36.5 -15t14.5 -36q0 -24 -18.5 -41.5t-41.5 -17.5z" />
    <glyph glyph-name="igrave" unicode="&#xec;" horiz-adv-x="220" 
d="M70 0q23 127 44.5 249.5t43.5 250.5h80q-23 -128 -44.5 -250.5t-43.5 -249.5h-80v0zM90 755h100l59 -145h-70z" />
    <glyph glyph-name="iacute" unicode="&#xed;" horiz-adv-x="220" 
d="M70 0q23 127 44.5 249.5t43.5 250.5h80q-23 -128 -44.5 -250.5t-43.5 -249.5h-80v0zM296 755h100l-141 -145h-70z" />
    <glyph glyph-name="icircumflex" unicode="&#xee;" horiz-adv-x="220" 
d="M70 0q23 127 44.5 249.5t43.5 250.5h80q-23 -128 -44.5 -250.5t-43.5 -249.5h-80v0zM196 755h90l84 -145h-82l-49 90h-10l-81 -90h-88z" />
    <glyph glyph-name="idieresis" unicode="&#xef;" horiz-adv-x="220" 
d="M70 0q23 127 44.5 249.5t43.5 250.5h80q-23 -128 -44.5 -250.5t-43.5 -249.5h-80v0zM131 625q-22 0 -36.5 15t-14.5 36q0 24 18.5 41.5t41.5 17.5q22 0 36.5 -15t14.5 -36q0 -24 -18.5 -41.5t-41.5 -17.5zM310 625q-22 0 -36.5 15t-14.5 36q0 24 18.5 41.5t41.5 17.5
q22 0 36.5 -15t14.5 -36q0 -24 -18.5 -41.5t-41.5 -17.5z" />
    <glyph glyph-name="eth" unicode="&#xf0;" horiz-adv-x="560" 
d="M307 -10q-54 0 -97 16t-73 44.5t-46 67t-16 83.5q0 57 20.5 104.5t56 82t81.5 53.5t97 19q53 0 88 -16.5t55.5 -36.5t28.5 -36l8 -16q-1 42 -28 97t-78 123l-139 -80l12 70l94 50l-75 85h95l42 -46l144 81l-12 -70l-103 -56q22 -30 43 -62t37 -67.5t25.5 -75t9.5 -84.5
q0 -77 -20.5 -138.5t-56.5 -104t-85.5 -65t-107.5 -22.5zM310 65q35 0 67 13t56.5 36.5t39 55t14.5 68.5q0 31 -11 57.5t-31 46.5t-48.5 31.5t-63.5 11.5t-67 -13.5t-56.5 -36.5t-39 -54.5t-14.5 -68.5q0 -31 11 -57.5t31 -46.5t48.5 -31.5t63.5 -11.5z" />
    <glyph glyph-name="ntilde" unicode="&#xf1;" horiz-adv-x="585" 
d="M158 500h80l-11 -65q15 20 38 37q20 14 50.5 26t73.5 12q52 0 90 -17.5t61 -48.5t30.5 -73.5t-1.5 -92.5l-49 -278h-80l49 278q12 69 -19.5 113t-104.5 44q-62 0 -107 -40t-58 -112l-50 -283h-80zM469 620q-26 0 -44 9.5t-32 20.5t-26 20.5t-27 9.5q-32 0 -36 -30l-4 -25
h-65l5 28q16 92 101 92q26 0 44 -9.5t32 -20.5t26.5 -20.5t27.5 -9.5q30 0 35 30l4 25h65l-5 -28q-16 -92 -101 -92z" />
    <glyph glyph-name="ograve" unicode="&#xf2;" 
d="M325 -10q-55 0 -99.5 17.5t-76 49t-49 73.5t-17.5 92q0 63 22.5 115.5t61 91t89.5 60t108 21.5q55 0 99.5 -17.5t76 -49t49 -74t17.5 -91.5q0 -63 -22.5 -115.5t-61 -91t-89.5 -60t-108 -21.5zM331 65q39 0 74.5 15t62.5 42.5t43 66t16 85.5q0 36 -12 65.5t-34 50.5
t-53.5 33t-69.5 12q-39 0 -74.5 -15t-62.5 -42.5t-43 -66t-16 -85.5q0 -36 12 -65.5t34 -50.5t53.5 -33t69.5 -12zM265 755h100l59 -145h-70z" />
    <glyph glyph-name="oacute" unicode="&#xf3;" 
d="M325 -10q-55 0 -99.5 17.5t-76 49t-49 73.5t-17.5 92q0 63 22.5 115.5t61 91t89.5 60t108 21.5q55 0 99.5 -17.5t76 -49t49 -74t17.5 -91.5q0 -63 -22.5 -115.5t-61 -91t-89.5 -60t-108 -21.5zM331 65q39 0 74.5 15t62.5 42.5t43 66t16 85.5q0 36 -12 65.5t-34 50.5
t-53.5 33t-69.5 12q-39 0 -74.5 -15t-62.5 -42.5t-43 -66t-16 -85.5q0 -36 12 -65.5t34 -50.5t53.5 -33t69.5 -12zM466 755h100l-141 -145h-70z" />
    <glyph glyph-name="ocircumflex" unicode="&#xf4;" 
d="M325 -10q-55 0 -99.5 17.5t-76 49t-49 73.5t-17.5 92q0 63 22.5 115.5t61 91t89.5 60t108 21.5q55 0 99.5 -17.5t76 -49t49 -74t17.5 -91.5q0 -63 -22.5 -115.5t-61 -91t-89.5 -60t-108 -21.5zM331 65q39 0 74.5 15t62.5 42.5t43 66t16 85.5q0 36 -12 65.5t-34 50.5
t-53.5 33t-69.5 12q-39 0 -74.5 -15t-62.5 -42.5t-43 -66t-16 -85.5q0 -36 12 -65.5t34 -50.5t53.5 -33t69.5 -12zM371 755h90l84 -145h-82l-49 90h-10l-81 -90h-88z" />
    <glyph glyph-name="otilde" unicode="&#xf5;" 
d="M325 -10q-55 0 -99.5 17.5t-76 49t-49 73.5t-17.5 92q0 63 22.5 115.5t61 91t89.5 60t108 21.5q55 0 99.5 -17.5t76 -49t49 -74t17.5 -91.5q0 -63 -22.5 -115.5t-61 -91t-89.5 -60t-108 -21.5zM331 65q39 0 74.5 15t62.5 42.5t43 66t16 85.5q0 36 -12 65.5t-34 50.5
t-53.5 33t-69.5 12q-39 0 -74.5 -15t-62.5 -42.5t-43 -66t-16 -85.5q0 -36 12 -65.5t34 -50.5t53.5 -33t69.5 -12zM469 620q-26 0 -44 9.5t-32 20.5t-26 20.5t-27 9.5q-32 0 -36 -30l-4 -25h-65l5 28q16 92 101 92q26 0 44 -9.5t32 -20.5t26.5 -20.5t27.5 -9.5q30 0 35 30
l4 25h65l-5 -28q-16 -92 -101 -92z" />
    <glyph glyph-name="odieresis" unicode="&#xf6;" 
d="M325 -10q-55 0 -99.5 17.5t-76 49t-49 73.5t-17.5 92q0 63 22.5 115.5t61 91t89.5 60t108 21.5q55 0 99.5 -17.5t76 -49t49 -74t17.5 -91.5q0 -63 -22.5 -115.5t-61 -91t-89.5 -60t-108 -21.5zM331 65q39 0 74.5 15t62.5 42.5t43 66t16 85.5q0 36 -12 65.5t-34 50.5
t-53.5 33t-69.5 12q-39 0 -74.5 -15t-62.5 -42.5t-43 -66t-16 -85.5q0 -36 12 -65.5t34 -50.5t53.5 -33t69.5 -12zM306 625q-22 0 -36.5 15t-14.5 36q0 24 18.5 41.5t41.5 17.5q22 0 36.5 -15t14.5 -36q0 -24 -18.5 -41.5t-41.5 -17.5zM485 625q-22 0 -36.5 15t-14.5 36
q0 24 18.5 41.5t41.5 17.5q22 0 36.5 -15t14.5 -36q0 -24 -18.5 -41.5t-41.5 -17.5z" />
    <glyph glyph-name="divide" unicode="&#xf7;" horiz-adv-x="510" 
d="M305 40q-26 0 -43 17t-17 43t17 43t43 17t43 -17t17 -43t-17 -43t-43 -17zM110 310h390v-80h-390v80zM305 380q-26 0 -43 17t-17 43t17 43t43 17t43 -17t17 -43t-17 -43t-43 -17z" />
    <glyph glyph-name="oslash" unicode="&#xf8;" 
d="M52 84l52 37q-21 45 -21 101q0 63 22.5 115.5t61 91t89.5 60t108 21.5q58 0 104.5 -19.5t78.5 -54.5l104 74l-14 -94l-52 -37q10 -23 15.5 -48.5t5.5 -52.5q0 -63 -22.5 -115.5t-61 -91t-89.5 -60t-108 -21.5q-58 0 -104.5 19.5t-78.5 54.5l-104 -74zM331 65
q39 0 74.5 15t62.5 42.5t43 66t16 85.5q0 15 -2.5 29t-7.5 28l-309 -220q22 -22 53.5 -34t69.5 -12zM481 389q-22 22 -53.5 34t-69.5 12q-39 0 -74.5 -15t-62.5 -42.5t-43 -66t-16 -85.5q0 -15 2.5 -29t7.5 -28z" />
    <glyph glyph-name="ugrave" unicode="&#xf9;" horiz-adv-x="590" 
d="M285 -10q-53 0 -90.5 17.5t-60.5 48.5t-30.5 73.5t1.5 92.5l49 278h80l-49 -278q-12 -69 19.5 -113t104.5 -44q62 0 107 40t58 112l50 283h80l-88 -500h-80l11 65q-15 -21 -38 -38q-20 -14 -50.5 -25.5t-73.5 -11.5zM260 755h100l59 -145h-70z" />
    <glyph glyph-name="uacute" unicode="&#xfa;" horiz-adv-x="590" 
d="M285 -10q-53 0 -90.5 17.5t-60.5 48.5t-30.5 73.5t1.5 92.5l49 278h80l-49 -278q-12 -69 19.5 -113t104.5 -44q62 0 107 40t58 112l50 283h80l-88 -500h-80l11 65q-15 -21 -38 -38q-20 -14 -50.5 -25.5t-73.5 -11.5zM461 755h100l-141 -145h-70z" />
    <glyph glyph-name="ucircumflex" unicode="&#xfb;" horiz-adv-x="590" 
d="M285 -10q-53 0 -90.5 17.5t-60.5 48.5t-30.5 73.5t1.5 92.5l49 278h80l-49 -278q-12 -69 19.5 -113t104.5 -44q62 0 107 40t58 112l50 283h80l-88 -500h-80l11 65q-15 -21 -38 -38q-20 -14 -50.5 -25.5t-73.5 -11.5zM366 755h90l84 -145h-82l-49 90h-10l-81 -90h-88z" />
    <glyph glyph-name="udieresis" unicode="&#xfc;" horiz-adv-x="590" 
d="M285 -10q-53 0 -90.5 17.5t-60.5 48.5t-30.5 73.5t1.5 92.5l49 278h80l-49 -278q-12 -69 19.5 -113t104.5 -44q62 0 107 40t58 112l50 283h80l-88 -500h-80l11 65q-15 -21 -38 -38q-20 -14 -50.5 -25.5t-73.5 -11.5zM306 625q-22 0 -36.5 15t-14.5 36q0 24 18.5 41.5
t41.5 17.5q22 0 36.5 -15t14.5 -36q0 -24 -18.5 -41.5t-41.5 -17.5zM485 625q-22 0 -36.5 15t-14.5 36q0 24 18.5 41.5t41.5 17.5q22 0 36.5 -15t14.5 -36q0 -24 -18.5 -41.5t-41.5 -17.5z" />
    <glyph glyph-name="yacute" unicode="&#xfd;" horiz-adv-x="510" 
d="M263 0h-113l-47 500h83l35 -425h75l205 425h87l-332 -690h-87zM426 755h100l-141 -145h-70z" />
    <glyph glyph-name="thorn" unicode="&#xfe;" horiz-adv-x="610" 
d="M193 700h80l-47 -266l10.5 12t31.5 26.5t53 26t74 11.5q47 0 87.5 -17t70 -47t46.5 -72.5t17 -93.5q0 -63 -23 -116t-60.5 -92t-86 -60.5t-98.5 -21.5q-55 0 -90 17t-55 37q-24 24 -36 54l-51 -288h-80zM347 65q42 0 76.5 18t59.5 47t39 66.5t14 76.5q0 36 -11.5 65.5
t-32 51t-49 33.5t-62.5 12q-36 0 -70 -15t-60.5 -42.5t-42.5 -66.5t-16 -86q0 -35 11.5 -64.5t32.5 -50.5t49.5 -33t61.5 -12z" />
    <glyph glyph-name="ydieresis" unicode="&#xff;" horiz-adv-x="510" 
d="M263 0h-113l-47 500h83l35 -425h75l205 425h87l-332 -690h-87zM271 625q-22 0 -36.5 15t-14.5 36q0 24 18.5 41.5t41.5 17.5q22 0 36.5 -15t14.5 -36q0 -24 -18.5 -41.5t-41.5 -17.5zM450 625q-22 0 -36.5 15t-14.5 36q0 24 18.5 41.5t41.5 17.5q22 0 36.5 -15t14.5 -36
q0 -24 -18.5 -41.5t-41.5 -17.5z" />
    <glyph glyph-name="Amacron" unicode="&#x100;" horiz-adv-x="675" 
d="M328 700h275l57 -700h-88l-19 205h-345l-91 -205h-92zM548 290l-28 325h-135l-142 -325h305zM362 900h270l-12 -70h-270z" />
    <glyph glyph-name="amacron" unicode="&#x101;" horiz-adv-x="613" 
d="M304 -10q-47 0 -87.5 17t-70 47t-46.5 72.5t-17 93.5q0 63 23 116t60.5 92t86 60.5t98.5 21.5q54 0 89.5 -17t55.5 -37q24 -24 36 -54l18 98h80l-89 -500h-80l12 66l-10.5 -12t-31.5 -26.5t-53 -26t-74 -11.5zM318 65q36 0 70 15t60.5 42.5t42.5 66.5t16 86
q0 35 -11.5 64.5t-32.5 50.5t-49.5 33t-61.5 12q-42 0 -76.5 -18t-59.5 -47t-39 -66.5t-14 -76.5q0 -36 11.5 -65.5t32 -51t49 -33.5t62.5 -12zM287 720h270l-12 -70h-270z" />
    <glyph glyph-name="Abreve" unicode="&#x102;" horiz-adv-x="675" 
d="M328 700h275l57 -700h-88l-19 205h-345l-91 -205h-92zM548 290l-28 325h-135l-142 -325h305zM491 800q-66 0 -103.5 33t-37.5 83v9h70v-6q0 -59 76 -59q32 0 51 16.5t23 48.5h70q-5 -55 -45.5 -90t-103.5 -35z" />
    <glyph glyph-name="abreve" unicode="&#x103;" horiz-adv-x="613" 
d="M304 -10q-47 0 -87.5 17t-70 47t-46.5 72.5t-17 93.5q0 63 23 116t60.5 92t86 60.5t98.5 21.5q54 0 89.5 -17t55.5 -37q24 -24 36 -54l18 98h80l-89 -500h-80l12 66l-10.5 -12t-31.5 -26.5t-53 -26t-74 -11.5zM318 65q36 0 70 15t60.5 42.5t42.5 66.5t16 86
q0 35 -11.5 64.5t-32.5 50.5t-49.5 33t-61.5 12q-42 0 -76.5 -18t-59.5 -47t-39 -66.5t-14 -76.5q0 -36 11.5 -65.5t32 -51t49 -33.5t62.5 -12zM416 620q-66 0 -103.5 33t-37.5 83v9h70v-6q0 -59 76 -59q32 0 51 16.5t23 48.5h70q-5 -55 -45.5 -90t-103.5 -35z" />
    <glyph glyph-name="Aogonek" unicode="&#x104;" horiz-adv-x="675" 
d="M550 -230q-48 0 -74.5 22.5t-26.5 61.5q0 32 17 57t40 43t46.5 29t36.5 17h-17l-19 205h-345l-91 -205h-92l303 700h275l57 -700q-13 -7 -38 -19.5t-49.5 -29.5t-43 -38.5t-18.5 -46.5q0 -17 12 -28t38 -11q12 0 23.5 2t20.5 4q11 3 19 6l-9 -55q-8 -4 -19 -7
q-9 -3 -20.5 -5t-25.5 -2zM548 290l-28 325h-135l-142 -325h305z" />
    <glyph glyph-name="aogonek" unicode="&#x105;" horiz-adv-x="613" 
d="M431 -230q-48 0 -74.5 22.5t-26.5 61.5q0 32 17 57t40 43t46.5 29t36.5 17h-9l12 66l-10.5 -12t-31.5 -26.5t-53 -26t-74 -11.5q-47 0 -87.5 17t-70 47t-46.5 72.5t-17 93.5q0 63 23 116t60.5 92t86 60.5t98.5 21.5q54 0 89.5 -17t55.5 -37q24 -24 36 -54l18 98h80
l-89 -500q-13 -7 -38 -19.5t-49.5 -29.5t-43 -38.5t-18.5 -46.5q0 -17 12 -28t38 -11q12 0 23.5 2t20.5 4q11 3 19 6l-9 -55q-8 -4 -19 -7q-9 -3 -20.5 -5t-25.5 -2zM318 65q36 0 70 15t60.5 42.5t42.5 66.5t16 86q0 35 -11.5 64.5t-32.5 50.5t-49.5 33t-61.5 12
q-42 0 -76.5 -18t-59.5 -47t-39 -66.5t-14 -76.5q0 -36 11.5 -65.5t32 -51t49 -33.5t62.5 -12z" />
    <glyph glyph-name="Cacute" unicode="&#x106;" horiz-adv-x="800" 
d="M440 -20q-77 0 -139.5 25t-107 69t-69 105.5t-24.5 134.5q0 86 31.5 160.5t86 129t126.5 85.5t153 31q80 0 138 -23t97 -59.5t61 -82t31 -90.5h-90l-4 12.5t-13.5 31.5t-27 41t-45 41t-65.5 31.5t-90 12.5q-61 0 -115.5 -23.5t-95 -65.5t-64.5 -101t-24 -130
q0 -55 18.5 -101t52 -79t81 -51.5t105.5 -18.5q36 0 66.5 7.5t56 20.5t46.5 29.5t37 33.5q38 40 61 91h94q-32 -75 -83 -134q-22 -25 -50 -49t-63.5 -42.5t-78 -30t-93.5 -11.5zM601 935h100l-141 -145h-70z" />
    <glyph glyph-name="cacute" unicode="&#x107;" horiz-adv-x="565" 
d="M318 -10q-51 0 -94.5 17t-74.5 47.5t-48.5 73t-17.5 93.5q0 63 23 116t61 91.5t87.5 60t102.5 21.5q39 0 69.5 -7.5t54 -20.5t40 -29t28.5 -33q27 -40 36 -90h-81q-9 29 -28 52q-17 20 -46.5 36.5t-77.5 16.5q-36 0 -70.5 -15t-61 -42t-42.5 -65.5t-16 -85.5
q0 -38 12.5 -68t34.5 -51t50.5 -32t61.5 -11q47 0 79 16.5t52 36.5q24 24 38 54h82q-21 -51 -56 -91q-15 -17 -34.5 -33.5t-44 -29.5t-54 -20.5t-65.5 -7.5zM466 755h100l-141 -145h-70z" />
    <glyph glyph-name="Ccircumflex" unicode="&#x108;" horiz-adv-x="800" 
d="M440 -20q-77 0 -139.5 25t-107 69t-69 105.5t-24.5 134.5q0 86 31.5 160.5t86 129t126.5 85.5t153 31q80 0 138 -23t97 -59.5t61 -82t31 -90.5h-90l-4 12.5t-13.5 31.5t-27 41t-45 41t-65.5 31.5t-90 12.5q-61 0 -115.5 -23.5t-95 -65.5t-64.5 -101t-24 -130
q0 -55 18.5 -101t52 -79t81 -51.5t105.5 -18.5q36 0 66.5 7.5t56 20.5t46.5 29.5t37 33.5q38 40 61 91h94q-32 -75 -83 -134q-22 -25 -50 -49t-63.5 -42.5t-78 -30t-93.5 -11.5zM501 935h90l84 -145h-82l-49 90h-10l-81 -90h-88z" />
    <glyph glyph-name="ccircumflex" unicode="&#x109;" horiz-adv-x="565" 
d="M318 -10q-51 0 -94.5 17t-74.5 47.5t-48.5 73t-17.5 93.5q0 63 23 116t61 91.5t87.5 60t102.5 21.5q39 0 69.5 -7.5t54 -20.5t40 -29t28.5 -33q27 -40 36 -90h-81q-9 29 -28 52q-17 20 -46.5 36.5t-77.5 16.5q-36 0 -70.5 -15t-61 -42t-42.5 -65.5t-16 -85.5
q0 -38 12.5 -68t34.5 -51t50.5 -32t61.5 -11q47 0 79 16.5t52 36.5q24 24 38 54h82q-21 -51 -56 -91q-15 -17 -34.5 -33.5t-44 -29.5t-54 -20.5t-65.5 -7.5zM371 755h90l84 -145h-82l-49 90h-10l-81 -90h-88z" />
    <glyph glyph-name="Cdotaccent" unicode="&#x10a;" horiz-adv-x="800" 
d="M440 -20q-77 0 -139.5 25t-107 69t-69 105.5t-24.5 134.5q0 86 31.5 160.5t86 129t126.5 85.5t153 31q80 0 138 -23t97 -59.5t61 -82t31 -90.5h-90l-4 12.5t-13.5 31.5t-27 41t-45 41t-65.5 31.5t-90 12.5q-61 0 -115.5 -23.5t-95 -65.5t-64.5 -101t-24 -130
q0 -55 18.5 -101t52 -79t81 -51.5t105.5 -18.5q36 0 66.5 7.5t56 20.5t46.5 29.5t37 33.5q38 40 61 91h94q-32 -75 -83 -134q-22 -25 -50 -49t-63.5 -42.5t-78 -30t-93.5 -11.5zM537 805q-23 0 -37.5 15t-14.5 35q0 24 18 42t41 18t37.5 -15t14.5 -35q0 -24 -18 -42t-41 -18
z" />
    <glyph glyph-name="cdotaccent" unicode="&#x10b;" horiz-adv-x="565" 
d="M318 -10q-51 0 -94.5 17t-74.5 47.5t-48.5 73t-17.5 93.5q0 63 23 116t61 91.5t87.5 60t102.5 21.5q39 0 69.5 -7.5t54 -20.5t40 -29t28.5 -33q27 -40 36 -90h-81q-9 29 -28 52q-17 20 -46.5 36.5t-77.5 16.5q-36 0 -70.5 -15t-61 -42t-42.5 -65.5t-16 -85.5
q0 -38 12.5 -68t34.5 -51t50.5 -32t61.5 -11q47 0 79 16.5t52 36.5q24 24 38 54h82q-21 -51 -56 -91q-15 -17 -34.5 -33.5t-44 -29.5t-54 -20.5t-65.5 -7.5zM397 625q-23 0 -37.5 15t-14.5 35q0 24 18 42t41 18t37.5 -15t14.5 -35q0 -24 -18 -42t-41 -18z" />
    <glyph glyph-name="Ccaron" unicode="&#x10c;" horiz-adv-x="800" 
d="M440 -20q-77 0 -139.5 25t-107 69t-69 105.5t-24.5 134.5q0 86 31.5 160.5t86 129t126.5 85.5t153 31q80 0 138 -23t97 -59.5t61 -82t31 -90.5h-90l-4 12.5t-13.5 31.5t-27 41t-45 41t-65.5 31.5t-90 12.5q-61 0 -115.5 -23.5t-95 -65.5t-64.5 -101t-24 -130
q0 -55 18.5 -101t52 -79t81 -51.5t105.5 -18.5q36 0 66.5 7.5t56 20.5t46.5 29.5t37 33.5q38 40 61 91h94q-32 -75 -83 -134q-22 -25 -50 -49t-63.5 -42.5t-78 -30t-93.5 -11.5zM395 935h82l49 -90h10l81 90h88l-136 -145h-90z" />
    <glyph glyph-name="ccaron" unicode="&#x10d;" horiz-adv-x="565" 
d="M318 -10q-51 0 -94.5 17t-74.5 47.5t-48.5 73t-17.5 93.5q0 63 23 116t61 91.5t87.5 60t102.5 21.5q39 0 69.5 -7.5t54 -20.5t40 -29t28.5 -33q27 -40 36 -90h-81q-9 29 -28 52q-17 20 -46.5 36.5t-77.5 16.5q-36 0 -70.5 -15t-61 -42t-42.5 -65.5t-16 -85.5
q0 -38 12.5 -68t34.5 -51t50.5 -32t61.5 -11q47 0 79 16.5t52 36.5q24 24 38 54h82q-21 -51 -56 -91q-15 -17 -34.5 -33.5t-44 -29.5t-54 -20.5t-65.5 -7.5zM265 755h82l49 -90h10l81 90h88l-136 -145h-90z" />
    <glyph glyph-name="Dcaron" unicode="&#x10e;" horiz-adv-x="720" 
d="M203 700h204q73 0 134 -24t105 -66.5t69 -100.5t25 -127q0 -79 -30.5 -148.5t-83.5 -121.5t-125 -82t-154 -30h-267zM355 85q63 0 116.5 22.5t92.5 62t61 93.5t22 117q0 49 -18 92t-50.5 75t-78 50t-100.5 18h-122l-93 -530h170zM370 935h82l49 -90h10l81 90h88
l-136 -145h-90z" />
    <glyph glyph-name="dcaron" unicode="&#x10f;" horiz-adv-x="668" 
d="M304 -10q-47 0 -87.5 17t-70 47t-46.5 72.5t-17 93.5q0 63 23 116t60.5 92t86 60.5t98.5 21.5q54 0 89.5 -17t55.5 -37q24 -24 36 -54l53 298h80l-124 -700h-80l12 66l-10.5 -12t-31.5 -26.5t-53 -26t-74 -11.5zM318 65q36 0 70 15t60.5 42.5t42.5 66.5t16 86
q0 35 -11.5 64.5t-32.5 50.5t-49.5 33t-61.5 12q-42 0 -76.5 -18t-59.5 -47t-39 -66.5t-14 -76.5q0 -36 11.5 -65.5t32 -51t49 -33.5t62.5 -12zM694 545q36 1 52.5 15.5t16.5 31.5q0 3 -0.5 5t-0.5 4q-1 2 -1 4l-4 -2q-4 -2 -9 -2q-14 0 -27 10.5t-13 32.5q0 20 14.5 38
t43.5 18q24 0 39 -15t15 -46q0 -35 -10.5 -60t-28.5 -41.5t-42 -24.5t-51 -8z" />
    <glyph glyph-name="Dcroat" unicode="&#x110;" horiz-adv-x="730" 
d="M143 305h-72l15 87h72l54 308h205q73 0 134 -24t105 -66.5t68.5 -100.5t24.5 -127q0 -79 -30 -148.5t-83.5 -121.5t-125 -82t-153.5 -30h-27.5h-62.5h-84.5h-93.5zM364 85q63 0 116.5 22.5t93 62t61.5 93.5t22 117q0 49 -18 92t-51 75t-78.5 50t-100.5 18h-121l-40 -223
h176l-15 -87h-176l-39 -220h170z" />
    <glyph glyph-name="dcroat" unicode="&#x111;" horiz-adv-x="598" 
d="M301 -10q-47 0 -87 16.5t-69 45.5t-45.5 69.5t-16.5 88.5q0 58 21.5 107.5t57.5 85.5t82.5 56.5t96.5 20.5q52 0 86 -15t54 -33q24 -21 36 -47l31 175h-130l13 75h130l11 65h80l-11 -65h65l-13 -75h-65l-100 -560h-79l10 56q-16 -19 -39 -33q-20 -13 -49.5 -23t-69.5 -10
zM318 64q36 0 68.5 14t56.5 39.5t38.5 61t14.5 77.5q0 33 -11 60t-31 47t-48.5 31t-62.5 11q-36 0 -68.5 -14t-56.5 -39.5t-38.5 -61t-14.5 -77.5q0 -33 11 -60t31 -47t48 -31t63 -11z" />
    <glyph glyph-name="Emacron" unicode="&#x112;" horiz-adv-x="610" 
d="M203 700h490l-15 -85h-400l-38 -220h325l-15 -85h-325l-40 -225h400l-15 -85h-490zM342 900h270l-12 -70h-270z" />
    <glyph glyph-name="emacron" unicode="&#x113;" horiz-adv-x="590" 
d="M320 -10q-53 0 -96.5 17.5t-75 48.5t-48.5 73.5t-17 92.5q0 65 24 118t63 91t89 58.5t102 20.5q53 0 96.5 -18t74.5 -49t48 -73t17 -90q0 -8 -0.5 -17.5t-1.5 -17.5l-2 -20h-431q0 -36 12 -65.5t34 -50.5t52 -32.5t66 -11.5q45 0 77.5 14t53.5 31q25 19 40 45h83
q-23 -47 -60 -83q-32 -31 -81 -56.5t-119 -25.5zM516 295q-7 64 -49.5 102t-113.5 38q-32 0 -61 -10.5t-52.5 -29.5t-41 -44.5t-26.5 -55.5h344zM272 720h270l-12 -70h-270z" />
    <glyph glyph-name="Ebreve" unicode="&#x114;" horiz-adv-x="610" 
d="M203 700h490l-15 -85h-400l-38 -220h325l-15 -85h-325l-40 -225h400l-15 -85h-490zM471 800q-66 0 -103.5 33t-37.5 83v9h70v-6q0 -59 76 -59q32 0 51 16.5t23 48.5h70q-5 -55 -45.5 -90t-103.5 -35z" />
    <glyph glyph-name="ebreve" unicode="&#x115;" horiz-adv-x="590" 
d="M320 -10q-53 0 -96.5 17.5t-75 48.5t-48.5 73.5t-17 92.5q0 65 24 118t63 91t89 58.5t102 20.5q53 0 96.5 -18t74.5 -49t48 -73t17 -90q0 -8 -0.5 -17.5t-1.5 -17.5l-2 -20h-431q0 -36 12 -65.5t34 -50.5t52 -32.5t66 -11.5q45 0 77.5 14t53.5 31q25 19 40 45h83
q-23 -47 -60 -83q-32 -31 -81 -56.5t-119 -25.5zM516 295q-7 64 -49.5 102t-113.5 38q-32 0 -61 -10.5t-52.5 -29.5t-41 -44.5t-26.5 -55.5h344zM396 620q-66 0 -103.5 33t-37.5 83v9h70v-6q0 -59 76 -59q32 0 51 16.5t23 48.5h70q-5 -55 -45.5 -90t-103.5 -35z" />
    <glyph glyph-name="Edotaccent" unicode="&#x116;" horiz-adv-x="610" 
d="M203 700h490l-15 -85h-400l-38 -220h325l-15 -85h-325l-40 -225h400l-15 -85h-490zM467 805q-23 0 -37.5 15t-14.5 35q0 24 18 42t41 18t37.5 -15t14.5 -35q0 -24 -18 -42t-41 -18z" />
    <glyph glyph-name="edotaccent" unicode="&#x117;" horiz-adv-x="590" 
d="M320 -10q-53 0 -96.5 17.5t-75 48.5t-48.5 73.5t-17 92.5q0 65 24 118t63 91t89 58.5t102 20.5q53 0 96.5 -18t74.5 -49t48 -73t17 -90q0 -8 -0.5 -17.5t-1.5 -17.5l-2 -20h-431q0 -36 12 -65.5t34 -50.5t52 -32.5t66 -11.5q45 0 77.5 14t53.5 31q25 19 40 45h83
q-23 -47 -60 -83q-32 -31 -81 -56.5t-119 -25.5zM516 295q-7 64 -49.5 102t-113.5 38q-32 0 -61 -10.5t-52.5 -29.5t-41 -44.5t-26.5 -55.5h344zM397 625q-23 0 -37.5 15t-14.5 35q0 24 18 42t41 18t37.5 -15t14.5 -35q0 -24 -18 -42t-41 -18z" />
    <glyph glyph-name="Eogonek" unicode="&#x118;" horiz-adv-x="610" 
d="M460 -230q-48 0 -74.5 22.5t-26.5 61.5q0 31 16 55.5t38.5 42.5t46.5 30t39 18h-419l123 700h490l-15 -85h-400l-38 -220h325l-15 -85h-325l-40 -225h400l-15 -85q-13 -7 -38 -19.5t-49.5 -29.5t-43 -38.5t-18.5 -46.5q0 -17 12 -28t38 -11q12 0 23.5 2t20.5 4q11 3 19 6
l-9 -55q-8 -4 -19 -7q-9 -3 -20.5 -5t-25.5 -2z" />
    <glyph glyph-name="eogonek" unicode="&#x119;" horiz-adv-x="590" 
d="M287 -230q-48 0 -74.5 22.5t-26.5 61.5q0 27 12 49t30 39t38 29t37 20q-50 3 -90.5 21t-69 48.5t-44.5 72t-16 89.5q0 65 24 118t63 91t89 58.5t102 20.5q53 0 96.5 -18t74.5 -49t48 -73t17 -90q0 -8 -0.5 -17.5t-1.5 -17.5l-2 -20h-431q0 -36 12 -65.5t34 -50.5
t52 -32.5t66 -11.5q45 0 77.5 14t53.5 31q25 19 40 45h83q-17 -34 -43 -64q-23 -26 -57 -51.5t-83 -39.5q-13 -7 -38 -19.5t-49.5 -29.5t-43 -38.5t-18.5 -46.5q0 -17 12 -28t38 -11q12 0 23.5 2t20.5 4q11 3 19 6l-9 -55q-8 -4 -19 -7q-9 -3 -20.5 -5t-25.5 -2zM516 295
q-7 64 -49.5 102t-113.5 38q-32 0 -61 -10.5t-52.5 -29.5t-41 -44.5t-26.5 -55.5h344z" />
    <glyph glyph-name="Ecaron" unicode="&#x11a;" horiz-adv-x="610" 
d="M203 700h490l-15 -85h-400l-38 -220h325l-15 -85h-325l-40 -225h400l-15 -85h-490zM335 935h82l49 -90h10l81 90h88l-136 -145h-90z" />
    <glyph glyph-name="ecaron" unicode="&#x11b;" horiz-adv-x="590" 
d="M320 -10q-53 0 -96.5 17.5t-75 48.5t-48.5 73.5t-17 92.5q0 65 24 118t63 91t89 58.5t102 20.5q53 0 96.5 -18t74.5 -49t48 -73t17 -90q0 -8 -0.5 -17.5t-1.5 -17.5l-2 -20h-431q0 -36 12 -65.5t34 -50.5t52 -32.5t66 -11.5q45 0 77.5 14t53.5 31q25 19 40 45h83
q-23 -47 -60 -83q-32 -31 -81 -56.5t-119 -25.5zM516 295q-7 64 -49.5 102t-113.5 38q-32 0 -61 -10.5t-52.5 -29.5t-41 -44.5t-26.5 -55.5h344zM265 755h82l49 -90h10l81 90h88l-136 -145h-90z" />
    <glyph glyph-name="Gcircumflex" unicode="&#x11c;" horiz-adv-x="860" 
d="M440 -20q-77 0 -139.5 25t-107 69t-69 105.5t-24.5 134.5q0 86 31.5 160.5t86 129t126.5 85.5t153 31q78 0 135.5 -22t96.5 -58t62 -80.5t32 -89.5h-90q-14 46 -46 82q-14 15 -32 30t-42.5 27t-55 19t-68.5 7q-61 0 -115.5 -23.5t-95 -65.5t-64.5 -101t-24 -130
q0 -55 18.5 -101t52 -79t81 -51.5t105.5 -18.5q59 0 108 22.5t84.5 55t57 70t24.5 67.5h-130l15 85h310l-15 -85h-83q-3 -17 -15 -46t-33 -62t-52 -67.5t-72 -62t-92.5 -45t-113.5 -17.5zM506 935h90l84 -145h-82l-49 90h-10l-81 -90h-88z" />
    <glyph glyph-name="gcircumflex" unicode="&#x11d;" horiz-adv-x="615" 
d="M88 -115h350l32 179q-2 -3 -13.5 -14.5t-32.5 -25t-51.5 -24t-70.5 -10.5q-47 0 -87.5 17t-70 47t-46.5 72.5t-17 93.5q0 63 23 116t60.5 92t86 60.5t98.5 21.5q54 0 89.5 -17t55.5 -37q24 -24 36 -54l18 98h80l-89 -500l-34 -190h-430zM316 65q36 0 70 15t60.5 42.5
t42.5 66.5t16 86q0 35 -11.5 64.5t-32.5 50.5t-49.5 33t-61.5 12q-42 0 -76.5 -18t-59.5 -47t-39 -66.5t-14 -76.5q0 -36 11.5 -65.5t32 -51t49 -33.5t62.5 -12zM381 755h90l84 -145h-82l-49 90h-10l-81 -90h-88z" />
    <glyph glyph-name="Gbreve" unicode="&#x11e;" horiz-adv-x="860" 
d="M440 -20q-77 0 -139.5 25t-107 69t-69 105.5t-24.5 134.5q0 86 31.5 160.5t86 129t126.5 85.5t153 31q78 0 135.5 -22t96.5 -58t62 -80.5t32 -89.5h-90q-14 46 -46 82q-14 15 -32 30t-42.5 27t-55 19t-68.5 7q-61 0 -115.5 -23.5t-95 -65.5t-64.5 -101t-24 -130
q0 -55 18.5 -101t52 -79t81 -51.5t105.5 -18.5q59 0 108 22.5t84.5 55t57 70t24.5 67.5h-130l15 85h310l-15 -85h-83q-3 -17 -15 -46t-33 -62t-52 -67.5t-72 -62t-92.5 -45t-113.5 -17.5zM536 800q-66 0 -103.5 33t-37.5 83v9h70v-6q0 -59 76 -59q32 0 51 16.5t23 48.5h70
q-5 -55 -45.5 -90t-103.5 -35z" />
    <glyph glyph-name="gbreve" unicode="&#x11f;" horiz-adv-x="615" 
d="M88 -115h350l32 179q-2 -3 -13.5 -14.5t-32.5 -25t-51.5 -24t-70.5 -10.5q-47 0 -87.5 17t-70 47t-46.5 72.5t-17 93.5q0 63 23 116t60.5 92t86 60.5t98.5 21.5q54 0 89.5 -17t55.5 -37q24 -24 36 -54l18 98h80l-89 -500l-34 -190h-430zM316 65q36 0 70 15t60.5 42.5
t42.5 66.5t16 86q0 35 -11.5 64.5t-32.5 50.5t-49.5 33t-61.5 12q-42 0 -76.5 -18t-59.5 -47t-39 -66.5t-14 -76.5q0 -36 11.5 -65.5t32 -51t49 -33.5t62.5 -12zM411 620q-66 0 -103.5 33t-37.5 83v9h70v-6q0 -59 76 -59q32 0 51 16.5t23 48.5h70q-5 -55 -45.5 -90
t-103.5 -35z" />
    <glyph glyph-name="Gdotaccent" unicode="&#x120;" horiz-adv-x="860" 
d="M440 -20q-77 0 -139.5 25t-107 69t-69 105.5t-24.5 134.5q0 86 31.5 160.5t86 129t126.5 85.5t153 31q78 0 135.5 -22t96.5 -58t62 -80.5t32 -89.5h-90q-14 46 -46 82q-14 15 -32 30t-42.5 27t-55 19t-68.5 7q-61 0 -115.5 -23.5t-95 -65.5t-64.5 -101t-24 -130
q0 -55 18.5 -101t52 -79t81 -51.5t105.5 -18.5q59 0 108 22.5t84.5 55t57 70t24.5 67.5h-130l15 85h310l-15 -85h-83q-3 -17 -15 -46t-33 -62t-52 -67.5t-72 -62t-92.5 -45t-113.5 -17.5zM537 805q-23 0 -37.5 15t-14.5 35q0 24 18 42t41 18t37.5 -15t14.5 -35
q0 -24 -18 -42t-41 -18z" />
    <glyph glyph-name="gdotaccent" unicode="&#x121;" horiz-adv-x="615" 
d="M88 -115h350l32 179q-2 -3 -13.5 -14.5t-32.5 -25t-51.5 -24t-70.5 -10.5q-47 0 -87.5 17t-70 47t-46.5 72.5t-17 93.5q0 63 23 116t60.5 92t86 60.5t98.5 21.5q54 0 89.5 -17t55.5 -37q24 -24 36 -54l18 98h80l-89 -500l-34 -190h-430zM316 65q36 0 70 15t60.5 42.5
t42.5 66.5t16 86q0 35 -11.5 64.5t-32.5 50.5t-49.5 33t-61.5 12q-42 0 -76.5 -18t-59.5 -47t-39 -66.5t-14 -76.5q0 -36 11.5 -65.5t32 -51t49 -33.5t62.5 -12zM412 625q-23 0 -37.5 15t-14.5 35q0 24 18 42t41 18t37.5 -15t14.5 -35q0 -24 -18 -42t-41 -18z" />
    <glyph glyph-name="Gcommaaccent" unicode="&#x122;" horiz-adv-x="860" 
d="M440 -20q-77 0 -139.5 25t-107 69t-69 105.5t-24.5 134.5q0 86 31.5 160.5t86 129t126.5 85.5t153 31q78 0 135.5 -22t96.5 -58t62 -80.5t32 -89.5h-90q-14 46 -46 82q-14 15 -32 30t-42.5 27t-55 19t-68.5 7q-61 0 -115.5 -23.5t-95 -65.5t-64.5 -101t-24 -130
q0 -55 18.5 -101t52 -79t81 -51.5t105.5 -18.5q59 0 108 22.5t84.5 55t57 70t24.5 67.5h-130l15 85h310l-15 -85h-83q-3 -17 -15 -46t-33 -62t-52 -67.5t-72 -62t-92.5 -45t-113.5 -17.5zM346 -255q36 1 52.5 15.5t16.5 31.5q0 3 -0.5 5t-0.5 4q-1 2 -1 4l-4 -2q-4 -2 -9 -2
q-14 0 -27 10.5t-13 32.5q0 20 14.5 38t43.5 18q24 0 39 -15t15 -46q0 -35 -10.5 -60t-28.5 -41.5t-42 -24.5t-51 -8z" />
    <glyph glyph-name="gcommaaccent" unicode="&#x123;" horiz-adv-x="615" 
d="M394 590q-24 0 -39 15t-15 46q0 34 10.5 59.5t28.5 42t42 24.5t51 8l-6 -40q-36 -1 -52.5 -15.5t-16.5 -31.5q0 -8 1 -10q0 -2 1 -3q1 1 3 2q4 2 10 2q14 0 27 -10.5t13 -32.5q0 -20 -14.5 -38t-43.5 -18zM88 -115h350l32 179q-2 -3 -13.5 -14.5t-32.5 -25t-51.5 -24
t-70.5 -10.5q-47 0 -87.5 17t-70 47t-46.5 72.5t-17 93.5q0 63 23 116t60.5 92t86 60.5t98.5 21.5q54 0 89.5 -17t55.5 -37q24 -24 36 -54l18 98h80l-89 -500l-34 -190h-430zM316 65q36 0 70 15t60.5 42.5t42.5 66.5t16 86q0 35 -11.5 64.5t-32.5 50.5t-49.5 33t-61.5 12
q-42 0 -76.5 -18t-59.5 -47t-39 -66.5t-14 -76.5q0 -36 11.5 -65.5t32 -51t49 -33.5t62.5 -12z" />
    <glyph glyph-name="Hcircumflex" unicode="&#x124;" horiz-adv-x="715" 
d="M203 700h90l-53 -305h375l53 305h90l-123 -700h-90l55 310h-375l-55 -310h-90zM471 935h90l84 -145h-82l-49 90h-10l-81 -90h-88z" />
    <glyph glyph-name="hcircumflex" unicode="&#x125;" horiz-adv-x="580" 
d="M194 700h80l-47 -265q15 20 38 37q20 14 50.5 26t73.5 12q52 0 90 -17.5t61 -48.5t30.5 -73.5t-1.5 -92.5l-49 -278h-80l49 278q12 69 -19.5 113t-104.5 44q-62 0 -107 -40t-58 -112l-50 -283h-80zM421 935h90l84 -145h-82l-49 90h-10l-81 -90h-88z" />
    <glyph glyph-name="Hbar" unicode="&#x126;" horiz-adv-x="735" 
d="M183 530h-75l12 70h75l18 100h90l-18 -100h375l18 100h90l-18 -100h75l-12 -70h-75l-93 -530h-90l54 310h-375l-54 -310h-90zM624 395l24 135h-375l-24 -135h375z" />
    <glyph glyph-name="hbar" unicode="&#x127;" 
d="M187 550h-91l13 70h91l14 80h80l-15 -80h130l-13 -70h-129l-30 -165q15 20 38 37q20 14 50.5 26t73.5 12q52 0 90 -17.5t61 -48.5t30.5 -73.5t-1.5 -92.5l-39 -228h-80l39 228q12 69 -19.5 113t-104.5 44q-62 0 -107 -40t-58 -112l-40 -233h-80z" />
    <glyph glyph-name="Imacron" unicode="&#x12a;" horiz-adv-x="250" 
d="M203 700h90l-123 -700h-90zM147 900h270l-12 -70h-270z" />
    <glyph glyph-name="imacron" unicode="&#x12b;" horiz-adv-x="220" 
d="M70 0q23 127 44.5 249.5t43.5 250.5h80q-23 -128 -44.5 -250.5t-43.5 -249.5h-80v0zM97 720h270l-12 -70h-270z" />
    <glyph glyph-name="Ibreve" unicode="&#x12c;" horiz-adv-x="250" 
d="M203 700h90l-123 -700h-90zM271 800q-66 0 -103.5 33t-37.5 83v9h70v-6q0 -59 76 -59q32 0 51 16.5t23 48.5h70q-5 -55 -45.5 -90t-103.5 -35z" />
    <glyph glyph-name="ibreve" unicode="&#x12d;" horiz-adv-x="220" 
d="M70 0q23 127 44.5 249.5t43.5 250.5h80q-23 -128 -44.5 -250.5t-43.5 -249.5h-80v0zM226 620q-66 0 -103.5 33t-37.5 83v9h70v-6q0 -59 76 -59q32 0 51 16.5t23 48.5h70q-5 -55 -45.5 -90t-103.5 -35z" />
    <glyph glyph-name="Iogonek" unicode="&#x12e;" horiz-adv-x="250" 
d="M60 -230q-48 0 -74.5 22.5t-26.5 61.5q0 31 16 55.5t38.5 42.5t46.5 30t39 18h-19l123 700h90l-123 -700q-13 -7 -38 -19.5t-49.5 -29.5t-43 -38.5t-18.5 -46.5q0 -17 12 -28t38 -11q12 0 23.5 2t20.5 4q11 3 19 6l-9 -55q-8 -4 -19 -7q-9 -3 -20.5 -5t-25.5 -2z" />
    <glyph glyph-name="iogonek" unicode="&#x12f;" horiz-adv-x="220" 
d="M158 500h80l-88 -500q-13 -7 -38 -19.5t-49.5 -29.5t-43 -38.5t-18.5 -46.5q0 -17 12 -28t38 -11q12 0 23.5 2t20.5 4q11 3 19 6l-9 -55q-8 -4 -19 -7q-9 -3 -20.5 -5t-25.5 -2q-48 0 -74.5 22.5t-26.5 61.5q0 32 17 57t40 43t46.5 29t36.5 17h-9zM216 590
q-23 0 -37.5 15t-14.5 35q0 24 18 42t41 18t37.5 -15t14.5 -35q0 -24 -18 -42t-41 -18z" />
    <glyph glyph-name="Idotaccent" unicode="&#x130;" horiz-adv-x="250" 
d="M203 700h90l-123 -700h-90zM272 805q-23 0 -37.5 15t-14.5 35q0 24 18 42t41 18t37.5 -15t14.5 -35q0 -24 -18 -42t-41 -18z" />
    <glyph glyph-name="dotlessi" unicode="&#x131;" horiz-adv-x="220" 
d="M70 0q23 127 44.5 249.5t43.5 250.5h80q-23 -128 -44.5 -250.5t-43.5 -249.5h-80v0z" />
    <glyph glyph-name="uni0132" unicode="&#x132;" horiz-adv-x="800" 
d="M203 700h90l-123 -700h-90zM502 -20q-69 0 -112 23t-67 53t-33.5 59.5t-12.5 43.5l91 19q5 -32 22 -57q14 -22 41 -39.5t75 -17.5q63 0 102.5 38.5t53.5 113.5l84 484h89l-85 -492q-20 -112 -85 -170t-163 -58z" />
    <glyph glyph-name="uni0133" unicode="&#x133;" horiz-adv-x="440" 
d="M158 500h80l-88 -500h-80zM125 -115h145l108 615h80l-121 -690h-225zM216 595q-23 0 -37.5 15t-14.5 35q0 24 18 42t41 18t37.5 -15t14.5 -35q0 -24 -18 -42t-41 -18zM437 595q-23 0 -37.5 15t-14.5 35q0 24 18 42t41 18t37.5 -15t14.5 -35q0 -24 -18 -42t-41 -18z" />
    <glyph glyph-name="Jcircumflex" unicode="&#x134;" horiz-adv-x="550" 
d="M252 -20q-69 0 -112 23t-67 53t-33.5 59.5t-12.5 43.5l91 19q5 -32 22 -57q14 -22 41 -39.5t75 -17.5q63 0 102.5 38.5t53.5 113.5l84 484h89l-85 -492q-20 -112 -85 -170t-163 -58zM526 935h90l84 -145h-82l-49 90h-10l-81 -90h-88z" />
    <glyph glyph-name="jcircumflex" unicode="&#x135;" horiz-adv-x="220" 
d="M-95 -115h144l109 615h80l-122 -690h-224zM191 750h90l84 -145h-82l-49 90h-10l-81 -90h-88z" />
    <glyph glyph-name="Kcommaaccent" unicode="&#x136;" horiz-adv-x="645" 
d="M203 700h90l-53 -305h128l273 305h112l-305 -340l192 -360h-105l-165 310h-145l-55 -310h-90zM266 -255q36 1 52.5 15.5t16.5 31.5q0 3 -0.5 5t-0.5 4q-1 2 -1 4l-4 -2q-4 -2 -9 -2q-14 0 -27 10.5t-13 32.5q0 20 14.5 38t43.5 18q24 0 39 -15t15 -46q0 -35 -10.5 -60
t-28.5 -41.5t-42 -24.5t-51 -8z" />
    <glyph glyph-name="kcommaaccent" unicode="&#x137;" horiz-adv-x="520" 
d="M193 700h80l-70 -400h95l195 200h100l-226 -235l153 -265h-95l-130 225h-105l-40 -225h-80zM206 -255q36 1 52.5 15.5t16.5 31.5q0 3 -0.5 5t-0.5 4q-1 2 -1 4l-4 -2q-4 -2 -9 -2q-14 0 -27 10.5t-13 32.5q0 20 14.5 38t43.5 18q24 0 39 -15t15 -46q0 -35 -10.5 -60
t-28.5 -41.5t-42 -24.5t-51 -8z" />
    <glyph glyph-name="Lacute" unicode="&#x139;" horiz-adv-x="530" 
d="M203 700h90l-108 -615h365l-15 -85h-455zM336 935h100l-141 -145h-70z" />
    <glyph glyph-name="lacute" unicode="&#x13a;" horiz-adv-x="275" 
d="M193 700h80l-110 -625h115l-13 -75h-195zM326 935h100l-141 -145h-70z" />
    <glyph glyph-name="Lcommaaccent" unicode="&#x13b;" horiz-adv-x="530" 
d="M203 700h90l-108 -615h365l-15 -85h-455zM236 -255q36 1 52.5 15.5t16.5 31.5q0 3 -0.5 5t-0.5 4q-1 2 -1 4l-4 -2q-4 -2 -9 -2q-14 0 -27 10.5t-13 32.5q0 20 14.5 38t43.5 18q24 0 39 -15t15 -46q0 -35 -10.5 -60t-28.5 -41.5t-42 -24.5t-51 -8z" />
    <glyph glyph-name="lcommaaccent" unicode="&#x13c;" horiz-adv-x="275" 
d="M193 700h80l-110 -625h115l-13 -75h-195zM81 -255q36 1 52.5 15.5t16.5 31.5q0 3 -0.5 5t-0.5 4q-1 2 -1 4l-4 -2q-4 -2 -9 -2q-14 0 -27 10.5t-13 32.5q0 20 14.5 38t43.5 18q24 0 39 -15t15 -46q0 -35 -10.5 -60t-28.5 -41.5t-42 -24.5t-51 -8z" />
    <glyph glyph-name="Lcaron" unicode="&#x13d;" horiz-adv-x="530" 
d="M203 700h90l-108 -615h365l-15 -85h-455zM349 545q36 1 52.5 15.5t16.5 31.5q0 3 -0.5 5t-0.5 4q-1 2 -1 4l-4 -2q-4 -2 -9 -2q-14 0 -27 10.5t-13 32.5q0 20 14.5 38t43.5 18q24 0 39 -15t15 -46q0 -35 -10.5 -60t-28.5 -41.5t-42 -24.5t-51 -8z" />
    <glyph glyph-name="lcaron" unicode="&#x13e;" horiz-adv-x="285" 
d="M193 700h80l-110 -625h115l-13 -75h-195zM304 545q36 1 52.5 15.5t16.5 31.5q0 3 -0.5 5t-0.5 4q-1 2 -1 4l-4 -2q-4 -2 -9 -2q-14 0 -27 10.5t-13 32.5q0 20 14.5 38t43.5 18q24 0 39 -15t15 -46q0 -35 -10.5 -60t-28.5 -41.5t-42 -24.5t-51 -8z" />
    <glyph glyph-name="Ldot" unicode="&#x13f;" horiz-adv-x="530" 
d="M203 700h90l-108 -615h365l-15 -85h-455zM459 325q-23 0 -37.5 15t-14.5 35q0 24 18 42t41 18t37.5 -15t14.5 -35q0 -24 -18 -42t-41 -18z" />
    <glyph glyph-name="ldot" unicode="&#x140;" horiz-adv-x="360" 
d="M193 700h80l-110 -625h115l-13 -75h-195zM356 310q-23 0 -37.5 15t-14.5 35q0 24 18 42t41 18t37.5 -15t14.5 -35q0 -24 -18 -42t-41 -18z" />
    <glyph glyph-name="Lslash" unicode="&#x141;" horiz-adv-x="535" 
d="M133 270l-76 -35l16 90l76 35l60 340h90l-53 -300l162 70l-15 -90l-163 -70l-40 -225h365l-14 -85h-455z" />
    <glyph glyph-name="lslash" unicode="&#x142;" horiz-adv-x="289" 
d="M132 270l-86 -35l15 85l86 35l61 345h80l-54 -305l108 45l-15 -85l-108 -45l-41 -235h115l-13 -75h-195z" />
    <glyph glyph-name="Nacute" unicode="&#x143;" horiz-adv-x="725" 
d="M203 700h125l246 -590l104 590h90l-123 -700h-125l-246 590l-104 -590h-90zM576 935h100l-141 -145h-70z" />
    <glyph glyph-name="nacute" unicode="&#x144;" horiz-adv-x="585" 
d="M158 500h80l-11 -65q15 20 38 37q20 14 50.5 26t73.5 12q52 0 90 -17.5t61 -48.5t30.5 -73.5t-1.5 -92.5l-49 -278h-80l49 278q12 69 -19.5 113t-104.5 44q-62 0 -107 -40t-58 -112l-50 -283h-80zM471 755h100l-141 -145h-70z" />
    <glyph glyph-name="Ncommaaccent" unicode="&#x145;" horiz-adv-x="725" 
d="M203 700h125l246 -590l104 590h90l-123 -700h-125l-246 590l-104 -590h-90zM281 -255q36 1 52.5 15.5t16.5 31.5q0 3 -0.5 5t-0.5 4q-1 2 -1 4l-4 -2q-4 -2 -9 -2q-14 0 -27 10.5t-13 32.5q0 20 14.5 38t43.5 18q24 0 39 -15t15 -46q0 -35 -10.5 -60t-28.5 -41.5
t-42 -24.5t-51 -8z" />
    <glyph glyph-name="ncommaaccent" unicode="&#x146;" horiz-adv-x="585" 
d="M158 500h80l-11 -65q15 20 38 37q20 14 50.5 26t73.5 12q52 0 90 -17.5t61 -48.5t30.5 -73.5t-1.5 -92.5l-49 -278h-80l49 278q12 69 -19.5 113t-104.5 44q-62 0 -107 -40t-58 -112l-50 -283h-80zM211 -255q36 1 52.5 15.5t16.5 31.5q0 3 -0.5 5t-0.5 4q-1 2 -1 4l-4 -2
q-4 -2 -9 -2q-14 0 -27 10.5t-13 32.5q0 20 14.5 38t43.5 18q24 0 39 -15t15 -46q0 -35 -10.5 -60t-28.5 -41.5t-42 -24.5t-51 -8z" />
    <glyph glyph-name="Ncaron" unicode="&#x147;" horiz-adv-x="725" 
d="M203 700h125l246 -590l104 590h90l-123 -700h-125l-246 590l-104 -590h-90zM375 935h82l49 -90h10l81 90h88l-136 -145h-90z" />
    <glyph glyph-name="ncaron" unicode="&#x148;" horiz-adv-x="585" 
d="M158 500h80l-11 -65q15 20 38 37q20 14 50.5 26t73.5 12q52 0 90 -17.5t61 -48.5t30.5 -73.5t-1.5 -92.5l-49 -278h-80l49 278q12 69 -19.5 113t-104.5 44q-62 0 -107 -40t-58 -112l-50 -283h-80zM270 755h82l49 -90h10l81 90h88l-136 -145h-90z" />
    <glyph glyph-name="Eng" unicode="&#x14a;" horiz-adv-x="725" 
d="M410 -260q-35 0 -62 7t-47.5 18.5t-36 26.5t-25.5 31q-25 37 -32 84l88 24q5 -30 19 -53q12 -20 35 -36.5t63 -16.5q50 0 85.5 32.5t48.5 96.5l9 46h-35l-246 590l-104 -590h-90l123 700h125l246 -590l104 590h90l-133 -754q-9 -49 -29 -87t-49.5 -64.5t-66.5 -40.5
t-80 -14z" />
    <glyph glyph-name="eng" unicode="&#x14b;" horiz-adv-x="585" 
d="M274 -115h145l70 393q12 69 -19.5 113t-104.5 44q-62 0 -107 -40t-58 -112l-50 -283h-80l88 500h80l-11 -65q15 20 38 37q20 14 50.5 26t73.5 12q52 0 90 -17.5t61 -48.5t30.5 -73.5t-1.5 -92.5l-83 -468h-225z" />
    <glyph glyph-name="Omacron" unicode="&#x14c;" horiz-adv-x="820" 
d="M439 -20q-77 0 -139.5 25t-107 69.5t-68.5 105.5t-24 134q0 86 31.5 160.5t85 129t125.5 85.5t153 31q77 0 139.5 -25t107 -69.5t68.5 -105.5t24 -134q0 -86 -31.5 -160.5t-85 -129t-125.5 -85.5t-153 -31zM447 65q61 0 115.5 24t94.5 66.5t63.5 101.5t23.5 128
q0 55 -18 101t-51.5 79t-81 51.5t-106.5 18.5q-62 0 -116 -24t-94 -66.5t-63.5 -101.5t-23.5 -128q0 -55 18 -101t51.5 -79t81 -51.5t106.5 -18.5zM407 900h270l-12 -70h-270z" />
    <glyph glyph-name="omacron" unicode="&#x14d;" 
d="M325 -10q-55 0 -99.5 17.5t-76 49t-49 73.5t-17.5 92q0 63 22.5 115.5t61 91t89.5 60t108 21.5q55 0 99.5 -17.5t76 -49t49 -74t17.5 -91.5q0 -63 -22.5 -115.5t-61 -91t-89.5 -60t-108 -21.5zM331 65q39 0 74.5 15t62.5 42.5t43 66t16 85.5q0 36 -12 65.5t-34 50.5
t-53.5 33t-69.5 12q-39 0 -74.5 -15t-62.5 -42.5t-43 -66t-16 -85.5q0 -36 12 -65.5t34 -50.5t53.5 -33t69.5 -12zM272 720h270l-12 -70h-270z" />
    <glyph glyph-name="Obreve" unicode="&#x14e;" horiz-adv-x="820" 
d="M439 -20q-77 0 -139.5 25t-107 69.5t-68.5 105.5t-24 134q0 86 31.5 160.5t85 129t125.5 85.5t153 31q77 0 139.5 -25t107 -69.5t68.5 -105.5t24 -134q0 -86 -31.5 -160.5t-85 -129t-125.5 -85.5t-153 -31zM447 65q61 0 115.5 24t94.5 66.5t63.5 101.5t23.5 128
q0 55 -18 101t-51.5 79t-81 51.5t-106.5 18.5q-62 0 -116 -24t-94 -66.5t-63.5 -101.5t-23.5 -128q0 -55 18 -101t51.5 -79t81 -51.5t106.5 -18.5zM536 800q-66 0 -103.5 33t-37.5 83v9h70v-6q0 -59 76 -59q32 0 51 16.5t23 48.5h70q-5 -55 -45.5 -90t-103.5 -35z" />
    <glyph glyph-name="obreve" unicode="&#x14f;" 
d="M325 -10q-55 0 -99.5 17.5t-76 49t-49 73.5t-17.5 92q0 63 22.5 115.5t61 91t89.5 60t108 21.5q55 0 99.5 -17.5t76 -49t49 -74t17.5 -91.5q0 -63 -22.5 -115.5t-61 -91t-89.5 -60t-108 -21.5zM331 65q39 0 74.5 15t62.5 42.5t43 66t16 85.5q0 36 -12 65.5t-34 50.5
t-53.5 33t-69.5 12q-39 0 -74.5 -15t-62.5 -42.5t-43 -66t-16 -85.5q0 -36 12 -65.5t34 -50.5t53.5 -33t69.5 -12zM411 620q-66 0 -103.5 33t-37.5 83v9h70v-6q0 -59 76 -59q32 0 51 16.5t23 48.5h70q-5 -55 -45.5 -90t-103.5 -35z" />
    <glyph glyph-name="Ohungarumlaut" unicode="&#x150;" horiz-adv-x="820" 
d="M439 -20q-77 0 -139.5 25t-107 69.5t-68.5 105.5t-24 134q0 86 31.5 160.5t85 129t125.5 85.5t153 31q77 0 139.5 -25t107 -69.5t68.5 -105.5t24 -134q0 -86 -31.5 -160.5t-85 -129t-125.5 -85.5t-153 -31zM447 65q61 0 115.5 24t94.5 66.5t63.5 101.5t23.5 128
q0 55 -18 101t-51.5 79t-81 51.5t-106.5 18.5q-62 0 -116 -24t-94 -66.5t-63.5 -101.5t-23.5 -128q0 -55 18 -101t51.5 -79t81 -51.5t106.5 -18.5zM511 935h90l-126 -145h-60zM661 935h90l-126 -145h-60z" />
    <glyph glyph-name="ohungarumlaut" unicode="&#x151;" 
d="M325 -10q-55 0 -99.5 17.5t-76 49t-49 73.5t-17.5 92q0 63 22.5 115.5t61 91t89.5 60t108 21.5q55 0 99.5 -17.5t76 -49t49 -74t17.5 -91.5q0 -63 -22.5 -115.5t-61 -91t-89.5 -60t-108 -21.5zM331 65q39 0 74.5 15t62.5 42.5t43 66t16 85.5q0 36 -12 65.5t-34 50.5
t-53.5 33t-69.5 12q-39 0 -74.5 -15t-62.5 -42.5t-43 -66t-16 -85.5q0 -36 12 -65.5t34 -50.5t53.5 -33t69.5 -12zM381 755h90l-126 -145h-60zM531 755h90l-126 -145h-60z" />
    <glyph glyph-name="OE" unicode="&#x152;" horiz-adv-x="1174" 
d="M422 -20q-70 0 -129 24.5t-102 68t-67 104t-24 132.5q0 92 33.5 167.5t88 129.5t124.5 84t143 30q51 0 90.5 -11t70 -27.5t51.5 -36t34 -36t19 -27l6 -10.5l22 128h475l-15 -85h-385l-38 -220h310l-15 -85h-310l-40 -225h385l-15 -85h-475h-1l17 91q-28 -31 -66 -56
q-32 -21 -79 -38t-108 -17zM432 65q57 0 109.5 23.5t92.5 66.5t64 103t24 133q0 55 -17.5 100t-49 77t-75.5 49.5t-98 17.5q-57 0 -109.5 -23.5t-92.5 -66.5t-64 -103t-24 -133q0 -55 17.5 -100t49 -77t75.5 -49.5t98 -17.5z" />
    <glyph glyph-name="oe" unicode="&#x153;" horiz-adv-x="998" 
d="M315 -10q-53 0 -96 17.5t-73 49t-46.5 73.5t-16.5 92q0 63 22 115.5t59 91t86 60t104 21.5q72 0 125 -32t80 -86q40 56 98.5 87t121.5 31q51 0 93 -18t71.5 -49t45.5 -73t16 -90q0 -8 -0.5 -17.5t-1.5 -17.5l-2 -20h-416q0 -36 12 -65.5t33.5 -50.5t50.5 -32.5t63 -11.5
q44 0 74 14t50 31q23 19 37 45h83q-22 -47 -57 -83q-30 -31 -77.5 -56.5t-115.5 -25.5q-70 0 -122.5 31t-81.5 85q-38 -54 -95.5 -85t-123.5 -31zM321 65q37 0 71 15t59.5 42.5t40.5 66t15 85.5q0 36 -11 65.5t-32 50.5t-50.5 33t-65.5 12q-38 0 -71.5 -15t-59 -42.5
t-40.5 -66t-15 -85.5q0 -36 11 -65.5t32 -50.5t50.5 -33t65.5 -12zM924 295q-7 64 -46.5 102t-106.5 38q-30 0 -58 -10.5t-51 -29.5t-40.5 -44.5t-26.5 -55.5h329z" />
    <glyph glyph-name="Racute" unicode="&#x154;" horiz-adv-x="690" 
d="M203 700h279q56 0 100.5 -16t75 -43t47 -63t16.5 -77q0 -48 -16 -89.5t-44.5 -72.5t-69.5 -50.5t-90 -25.5l129 -263h-105l-124 260h-185l-46 -260h-90zM466 345q78 0 120.5 41t42.5 108q0 54 -39 87.5t-120 33.5h-192l-48 -270h236zM556 935h100l-141 -145h-70z" />
    <glyph glyph-name="racute" unicode="&#x155;" horiz-adv-x="380" 
d="M158 500h80l-12 -68q15 20 37 36q19 14 47 25.5t66 11.5h78l-14 -80h-76q-31 0 -58 -10.5t-49 -29t-36.5 -45t-20.5 -57.5l-50 -283h-80zM401 755h100l-141 -145h-70z" />
    <glyph glyph-name="Rcommaaccent" unicode="&#x156;" horiz-adv-x="690" 
d="M203 700h279q56 0 100.5 -16t75 -43t47 -63t16.5 -77q0 -48 -16 -89.5t-44.5 -72.5t-69.5 -50.5t-90 -25.5l129 -263h-105l-124 260h-185l-46 -260h-90zM466 345q78 0 120.5 41t42.5 108q0 54 -39 87.5t-120 33.5h-192l-48 -270h236zM266 -255q36 1 52.5 15.5t16.5 31.5
q0 3 -0.5 5t-0.5 4q-1 2 -1 4l-4 -2q-4 -2 -9 -2q-14 0 -27 10.5t-13 32.5q0 20 14.5 38t43.5 18q24 0 39 -15t15 -46q0 -35 -10.5 -60t-28.5 -41.5t-42 -24.5t-51 -8z" />
    <glyph glyph-name="rcommaaccent" unicode="&#x157;" horiz-adv-x="380" 
d="M158 500h80l-12 -68q15 20 37 36q19 14 47 25.5t66 11.5h78l-14 -80h-76q-31 0 -58 -10.5t-49 -29t-36.5 -45t-20.5 -57.5l-50 -283h-80zM21 -255q36 1 52.5 15.5t16.5 31.5q0 3 -0.5 5t-0.5 4q-1 2 -1 4l-4 -2q-4 -2 -9 -2q-14 0 -27 10.5t-13 32.5q0 20 14.5 38
t43.5 18q24 0 39 -15t15 -46q0 -35 -10.5 -60t-28.5 -41.5t-42 -24.5t-51 -8z" />
    <glyph glyph-name="Rcaron" unicode="&#x158;" horiz-adv-x="690" 
d="M203 700h279q56 0 100.5 -16t75 -43t47 -63t16.5 -77q0 -48 -16 -89.5t-44.5 -72.5t-69.5 -50.5t-90 -25.5l129 -263h-105l-124 260h-185l-46 -260h-90zM466 345q78 0 120.5 41t42.5 108q0 54 -39 87.5t-120 33.5h-192l-48 -270h236zM355 935h82l49 -90h10l81 90h88
l-136 -145h-90z" />
    <glyph glyph-name="rcaron" unicode="&#x159;" horiz-adv-x="380" 
d="M158 500h80l-12 -68q15 20 37 36q19 14 47 25.5t66 11.5h78l-14 -80h-76q-31 0 -58 -10.5t-49 -29t-36.5 -45t-20.5 -57.5l-50 -283h-80zM190 755h82l49 -90h10l81 90h88l-136 -145h-90z" />
    <glyph glyph-name="Sacute" unicode="&#x15a;" horiz-adv-x="640" 
d="M360 -20q-66 0 -112.5 15.5t-77.5 39.5t-49 51.5t-27.5 51.5t-12 40.5t-2.5 18.5h92l6 -21.5t26 -46.5t59.5 -46t106.5 -21q40 0 71 10t52 27t32 39.5t11 47.5q0 35 -28 59t-69.5 43t-90 36.5t-90 41.5t-69.5 57.5t-28 83.5q0 42 18 81t51 68t80 46.5t105 17.5
q47 0 83 -8.5t63.5 -22.5t46.5 -32t32 -36q30 -44 36 -99h-91q-7 31 -28 57q-18 22 -53.5 40t-97.5 18q-36 0 -64 -9.5t-47.5 -26t-30 -38t-10.5 -45.5q0 -35 27.5 -58t69.5 -42t90 -37.5t90 -42.5t69.5 -58t27.5 -84q0 -43 -18.5 -82t-53 -69t-84 -47.5t-111.5 -17.5z
M521 935h100l-141 -145h-70z" />
    <glyph glyph-name="sacute" unicode="&#x15b;" horiz-adv-x="505" 
d="M291 -10q-40 0 -70.5 7t-54 18.5t-40 26.5t-28.5 30q-27 36 -35 83h85q8 -26 27 -45q17 -17 46 -31t77 -14q55 0 83.5 22t28.5 51q0 22 -21.5 36.5t-53.5 26.5t-70 23.5t-70 29t-53.5 42.5t-21.5 64q0 30 12 57.5t35.5 48t58 32.5t79.5 12q37 0 66.5 -6.5t51.5 -17
t37.5 -24.5t26.5 -28q26 -33 33 -76h-85q-7 21 -24 38q-14 14 -40 26.5t-69 12.5q-53 0 -77 -21t-24 -43q0 -23 21.5 -37t53.5 -26t69.5 -23.5t69.5 -28.5t53.5 -42.5t21.5 -64.5q0 -32 -13 -61t-38.5 -50.5t-62.5 -34.5t-85 -13zM416 755h100l-141 -145h-70z" />
    <glyph glyph-name="Scircumflex" unicode="&#x15c;" horiz-adv-x="640" 
d="M360 -20q-66 0 -112.5 15.5t-77.5 39.5t-49 51.5t-27.5 51.5t-12 40.5t-2.5 18.5h92l6 -21.5t26 -46.5t59.5 -46t106.5 -21q40 0 71 10t52 27t32 39.5t11 47.5q0 35 -28 59t-69.5 43t-90 36.5t-90 41.5t-69.5 57.5t-28 83.5q0 42 18 81t51 68t80 46.5t105 17.5
q47 0 83 -8.5t63.5 -22.5t46.5 -32t32 -36q30 -44 36 -99h-91q-7 31 -28 57q-18 22 -53.5 40t-97.5 18q-36 0 -64 -9.5t-47.5 -26t-30 -38t-10.5 -45.5q0 -35 27.5 -58t69.5 -42t90 -37.5t90 -42.5t69.5 -58t27.5 -84q0 -43 -18.5 -82t-53 -69t-84 -47.5t-111.5 -17.5z
M431 935h90l84 -145h-82l-49 90h-10l-81 -90h-88z" />
    <glyph glyph-name="scircumflex" unicode="&#x15d;" horiz-adv-x="505" 
d="M291 -10q-40 0 -70.5 7t-54 18.5t-40 26.5t-28.5 30q-27 36 -35 83h85q8 -26 27 -45q17 -17 46 -31t77 -14q55 0 83.5 22t28.5 51q0 22 -21.5 36.5t-53.5 26.5t-70 23.5t-70 29t-53.5 42.5t-21.5 64q0 30 12 57.5t35.5 48t58 32.5t79.5 12q37 0 66.5 -6.5t51.5 -17
t37.5 -24.5t26.5 -28q26 -33 33 -76h-85q-7 21 -24 38q-14 14 -40 26.5t-69 12.5q-53 0 -77 -21t-24 -43q0 -23 21.5 -37t53.5 -26t69.5 -23.5t69.5 -28.5t53.5 -42.5t21.5 -64.5q0 -32 -13 -61t-38.5 -50.5t-62.5 -34.5t-85 -13zM331 755h90l84 -145h-82l-49 90h-10
l-81 -90h-88z" />
    <glyph glyph-name="Scedilla" unicode="&#x15e;" horiz-adv-x="640" 
d="M285 -240q-20 0 -35.5 4.5t-26.5 9.5q-12 6 -21 14l10 56q9 -8 20 -14q10 -5 24 -9t33 -4q23 0 37 11.5t14 32.5q0 14 -12 25.5t-38 11.5h-37l52 86q-53 7 -90 24.5t-62 41t-40 48.5t-22.5 46.5t-9.5 36t-2 16.5h92l6 -21.5t26 -46.5t59.5 -46t106.5 -21q40 0 71 10
t52 27t32 39.5t11 47.5q0 35 -28 59t-69.5 43t-90 36.5t-90 41.5t-69.5 57.5t-28 83.5q0 42 18 81t51 68t80 46.5t105 17.5q47 0 83 -8.5t63.5 -22.5t46.5 -32t32 -36q30 -44 36 -99h-91q-7 31 -28 57q-18 22 -53.5 40t-97.5 18q-36 0 -64 -9.5t-47.5 -26t-30 -38
t-10.5 -45.5q0 -35 27.5 -58t69.5 -42t90 -37.5t90 -42.5t69.5 -58t27.5 -84q0 -43 -18.5 -82t-53 -69t-84 -47.5t-111.5 -17.5h-4l-23 -37q7 -1 18.5 -6t22 -14t18.5 -23t8 -34q0 -23 -8.5 -42t-24 -33.5t-36.5 -22.5t-46 -8z" />
    <glyph glyph-name="scedilla" unicode="&#x15f;" horiz-adv-x="505" 
d="M210 -240q-20 0 -35.5 4.5t-26.5 9.5q-12 6 -21 14l10 56q9 -8 20 -14q10 -5 24 -9t33 -4q23 0 37 11.5t14 32.5q0 14 -12 25.5t-38 11.5h-37l58 96q-60 9 -94.5 35.5t-51.5 54.5q-20 33 -27 71h85q8 -26 27 -45q17 -17 46 -31t77 -14q55 0 83.5 22t28.5 51
q0 22 -21.5 36.5t-53.5 26.5t-70 23.5t-70 29t-53.5 42.5t-21.5 64q0 30 12 57.5t35.5 48t58 32.5t79.5 12q37 0 66.5 -6.5t51.5 -17t37.5 -24.5t26.5 -28q26 -33 33 -76h-85q-7 21 -24 38q-14 14 -40 26.5t-69 12.5q-53 0 -77 -21t-24 -43q0 -23 21.5 -37t53.5 -26
t69.5 -23.5t69.5 -28.5t53.5 -42.5t21.5 -64.5q0 -32 -13 -61t-38.5 -50.5t-62.5 -34.5t-85 -13h-4l-29 -47q7 -1 18.5 -6t22 -14t18.5 -23t8 -34q0 -23 -8.5 -42t-24 -33.5t-36.5 -22.5t-46 -8z" />
    <glyph glyph-name="Scaron" unicode="&#x160;" horiz-adv-x="640" 
d="M360 -20q-66 0 -112.5 15.5t-77.5 39.5t-49 51.5t-27.5 51.5t-12 40.5t-2.5 18.5h92l6 -21.5t26 -46.5t59.5 -46t106.5 -21q40 0 71 10t52 27t32 39.5t11 47.5q0 35 -28 59t-69.5 43t-90 36.5t-90 41.5t-69.5 57.5t-28 83.5q0 42 18 81t51 68t80 46.5t105 17.5
q47 0 83 -8.5t63.5 -22.5t46.5 -32t32 -36q30 -44 36 -99h-91q-7 31 -28 57q-18 22 -53.5 40t-97.5 18q-36 0 -64 -9.5t-47.5 -26t-30 -38t-10.5 -45.5q0 -35 27.5 -58t69.5 -42t90 -37.5t90 -42.5t69.5 -58t27.5 -84q0 -43 -18.5 -82t-53 -69t-84 -47.5t-111.5 -17.5z
M320 935h82l49 -90h10l81 90h88l-136 -145h-90z" />
    <glyph glyph-name="scaron" unicode="&#x161;" horiz-adv-x="505" 
d="M291 -10q-40 0 -70.5 7t-54 18.5t-40 26.5t-28.5 30q-27 36 -35 83h85q8 -26 27 -45q17 -17 46 -31t77 -14q55 0 83.5 22t28.5 51q0 22 -21.5 36.5t-53.5 26.5t-70 23.5t-70 29t-53.5 42.5t-21.5 64q0 30 12 57.5t35.5 48t58 32.5t79.5 12q37 0 66.5 -6.5t51.5 -17
t37.5 -24.5t26.5 -28q26 -33 33 -76h-85q-7 21 -24 38q-14 14 -40 26.5t-69 12.5q-53 0 -77 -21t-24 -43q0 -23 21.5 -37t53.5 -26t69.5 -23.5t69.5 -28.5t53.5 -42.5t21.5 -64.5q0 -32 -13 -61t-38.5 -50.5t-62.5 -34.5t-85 -13zM215 755h82l49 -90h10l81 90h88l-136 -145
h-90z" />
    <glyph glyph-name="Tcommaaccent" unicode="&#x162;" horiz-adv-x="590" 
d="M230 -240q-20 0 -35.5 4.5t-26.5 9.5q-12 6 -21 14l10 56q9 -8 20 -14q10 -5 24 -9t33 -4q23 0 37 11.5t14 32.5q0 14 -12 25.5t-38 11.5h-37l62 102h-20l108 615h-240l15 85h570l-15 -85h-240l-108 -615h-17l-35 -57q7 -1 18.5 -6t22 -14t18.5 -23t8 -34q0 -23 -8.5 -42
t-24 -33.5t-36.5 -22.5t-46 -8z" />
    <glyph glyph-name="tcommaaccent" unicode="&#x163;" horiz-adv-x="365" 
d="M155 -240q-20 0 -35.5 4.5t-26.5 9.5q-12 6 -21 14l10 56q9 -8 20 -14q10 -5 24 -9t33 -4q23 0 37 11.5t14 32.5q0 14 -12 25.5t-38 11.5h-37l62 102h-95l75 425h-65l13 75h65l20 110h80l-20 -110h160l-13 -75h-160l-62 -350h165l-13 -75h-97l-35 -57q7 -1 18.5 -6
t22 -14t18.5 -23t8 -34q0 -23 -8.5 -42t-24 -33.5t-36.5 -22.5t-46 -8z" />
    <glyph glyph-name="Tcaron" unicode="&#x164;" horiz-adv-x="590" 
d="M348 615h-240l15 85h570l-15 -85h-240l-108 -615h-90zM295 935h82l49 -90h10l81 90h88l-136 -145h-90z" />
    <glyph glyph-name="tcaron" unicode="&#x165;" horiz-adv-x="365" 
d="M165 425h-65l13 75h65l20 110h80l-95 -535h165l-13 -75h-245zM304 465q36 1 52.5 15.5t16.5 31.5q0 3 -0.5 5t-0.5 4q-1 2 -1 4l-4 -2q-4 -2 -9 -2q-14 0 -27 10.5t-13 32.5q0 20 14.5 38t43.5 18q24 0 39 -15t15 -46q0 -35 -10.5 -60t-28.5 -41.5t-42 -24.5t-51 -8z" />
    <glyph glyph-name="Tbar" unicode="&#x166;" horiz-adv-x="590" 
d="M307 380h-170l12 70h170l29 165h-240l15 85h570l-15 -85h-240l-29 -165h170l-12 -70h-170l-67 -380h-90z" />
    <glyph glyph-name="tbar" unicode="&#x167;" horiz-adv-x="365" 
d="M137 270h-65l12 70h65l15 85h-65l14 75h65l19 110h80l-19 -110h160l-14 -75h-160l-15 -85h160l-12 -70h-160l-34 -195h165l-13 -75h-245z" />
    <glyph glyph-name="Umacron" unicode="&#x16a;" horiz-adv-x="700" 
d="M380 -20q-70 0 -123 23t-86 63.5t-45 96t-1 120.5q10 59 19 112t18 103.5t18 100t18 101.5h90l-74 -422q-8 -45 -0.5 -84t29.5 -67.5t57 -45t82 -16.5q75 0 129 47.5t70 136.5q20 113 39.5 225t39.5 226h90l-80 -459q-11 -60 -36 -108.5t-62.5 -82t-86 -52t-105.5 -18.5z
M367 900h270l-12 -70h-270z" />
    <glyph glyph-name="umacron" unicode="&#x16b;" horiz-adv-x="590" 
d="M285 -10q-53 0 -90.5 17.5t-60.5 48.5t-30.5 73.5t1.5 92.5l49 278h80l-49 -278q-12 -69 19.5 -113t104.5 -44q62 0 107 40t58 112l50 283h80l-88 -500h-80l11 65q-15 -21 -38 -38q-20 -14 -50.5 -25.5t-73.5 -11.5zM272 720h270l-12 -70h-270z" />
    <glyph glyph-name="Ubreve" unicode="&#x16c;" horiz-adv-x="700" 
d="M380 -20q-70 0 -123 23t-86 63.5t-45 96t-1 120.5q10 59 19 112t18 103.5t18 100t18 101.5h90l-74 -422q-8 -45 -0.5 -84t29.5 -67.5t57 -45t82 -16.5q75 0 129 47.5t70 136.5q20 113 39.5 225t39.5 226h90l-80 -459q-11 -60 -36 -108.5t-62.5 -82t-86 -52t-105.5 -18.5z
M496 800q-66 0 -103.5 33t-37.5 83v9h70v-6q0 -59 76 -59q32 0 51 16.5t23 48.5h70q-5 -55 -45.5 -90t-103.5 -35z" />
    <glyph glyph-name="ubreve" unicode="&#x16d;" horiz-adv-x="590" 
d="M285 -10q-53 0 -90.5 17.5t-60.5 48.5t-30.5 73.5t1.5 92.5l49 278h80l-49 -278q-12 -69 19.5 -113t104.5 -44q62 0 107 40t58 112l50 283h80l-88 -500h-80l11 65q-15 -21 -38 -38q-20 -14 -50.5 -25.5t-73.5 -11.5zM401 620q-66 0 -103.5 33t-37.5 83v9h70v-6
q0 -59 76 -59q32 0 51 16.5t23 48.5h70q-5 -55 -45.5 -90t-103.5 -35z" />
    <glyph glyph-name="Uring" unicode="&#x16e;" horiz-adv-x="700" 
d="M380 -20q-70 0 -123 23t-86 63.5t-45 96t-1 120.5q10 59 19 112t18 103.5t18 100t18 101.5h90l-74 -422q-8 -45 -0.5 -84t29.5 -67.5t57 -45t82 -16.5q75 0 129 47.5t70 136.5q20 113 39.5 225t39.5 226h90l-80 -459q-11 -60 -36 -108.5t-62.5 -82t-86 -52t-105.5 -18.5z
M488 755q-45 0 -71.5 27t-26.5 66q0 25 9 46.5t25 37t36.5 24.5t43.5 9q45 0 71.5 -27t26.5 -66q0 -25 -9 -46.5t-25 -37t-36.5 -24.5t-43.5 -9zM493 805q26 0 42.5 18t16.5 43q0 20 -13.5 34.5t-39.5 14.5t-42.5 -18t-16.5 -43q0 -20 13.5 -34.5t39.5 -14.5z" />
    <glyph glyph-name="uring" unicode="&#x16f;" horiz-adv-x="590" 
d="M285 -10q-53 0 -90.5 17.5t-60.5 48.5t-30.5 73.5t1.5 92.5l49 278h80l-49 -278q-12 -69 19.5 -113t104.5 -44q62 0 107 40t58 112l50 283h80l-88 -500h-80l11 65q-15 -21 -38 -38q-20 -14 -50.5 -25.5t-73.5 -11.5zM393 575q-45 0 -71.5 27t-26.5 66q0 25 9 46.5t25 37
t36.5 24.5t43.5 9q45 0 71.5 -27t26.5 -66q0 -25 -9 -46.5t-25 -37t-36.5 -24.5t-43.5 -9zM398 625q26 0 42.5 18t16.5 43q0 20 -13.5 34.5t-39.5 14.5t-42.5 -18t-16.5 -43q0 -20 13.5 -34.5t39.5 -14.5z" />
    <glyph glyph-name="Uhungarumlaut" unicode="&#x170;" horiz-adv-x="700" 
d="M380 -20q-70 0 -123 23t-86 63.5t-45 96t-1 120.5q10 59 19 112t18 103.5t18 100t18 101.5h90l-74 -422q-8 -45 -0.5 -84t29.5 -67.5t57 -45t82 -16.5q75 0 129 47.5t70 136.5q20 113 39.5 225t39.5 226h90l-80 -459q-11 -60 -36 -108.5t-62.5 -82t-86 -52t-105.5 -18.5z
M471 935h90l-126 -145h-60zM621 935h90l-126 -145h-60z" />
    <glyph glyph-name="uhungarumlaut" unicode="&#x171;" horiz-adv-x="590" 
d="M285 -10q-53 0 -90.5 17.5t-60.5 48.5t-30.5 73.5t1.5 92.5l49 278h80l-49 -278q-12 -69 19.5 -113t104.5 -44q62 0 107 40t58 112l50 283h80l-88 -500h-80l11 65q-15 -21 -38 -38q-20 -14 -50.5 -25.5t-73.5 -11.5zM376 755h90l-126 -145h-60zM526 755h90l-126 -145h-60
z" />
    <glyph glyph-name="Uogonek" unicode="&#x172;" horiz-adv-x="700" 
d="M341 -240q-48 0 -74.5 22.5t-26.5 61.5q0 27 12 48.5t30 38.5t38.5 29.5t38.5 20.5q-65 3 -114 27.5t-79 64.5t-41 93.5t0 116.5q10 59 19 112t18 103.5t18 100t18 101.5h90l-74 -422q-8 -45 -0.5 -84t29.5 -67.5t57 -45t82 -16.5q75 0 129 47.5t70 136.5
q20 113 39.5 225t39.5 226h90l-80 -459q-18 -103 -77.5 -170t-149.5 -85q-16 -8 -40 -20.5t-46.5 -29t-38.5 -37t-16 -43.5q0 -17 12 -28t38 -11q12 0 23.5 2t20.5 4q11 3 19 6l-9 -55q-8 -4 -19 -7q-9 -3 -20.5 -5t-25.5 -2z" />
    <glyph glyph-name="uogonek" unicode="&#x173;" horiz-adv-x="590" 
d="M406 -230q-48 0 -74.5 22.5t-26.5 61.5q0 32 17 57t40 43t46.5 29t36.5 17h-9l11 65q-15 -21 -38 -38q-20 -14 -50.5 -25.5t-73.5 -11.5q-53 0 -90.5 17.5t-60.5 48.5t-30.5 73.5t1.5 92.5l49 278h80l-49 -278q-12 -69 19.5 -113t104.5 -44q62 0 107 40t58 112l50 283h80
l-88 -500q-13 -7 -38 -19.5t-49.5 -29.5t-43 -38.5t-18.5 -46.5q0 -17 12 -28t38 -11q12 0 23.5 2t20.5 4q11 3 19 6l-9 -55q-8 -4 -19 -7q-9 -3 -20.5 -5t-25.5 -2z" />
    <glyph glyph-name="Wcircumflex" unicode="&#x174;" horiz-adv-x="965" 
d="M145 700h93l22 -615h25l238 615h145l22 -615h25l238 615h97l-278 -700h-161l-17 615h-25l-233 -615h-159zM586 935h90l84 -145h-82l-49 90h-10l-81 -90h-88z" />
    <glyph glyph-name="wcircumflex" unicode="&#x175;" horiz-adv-x="775" 
d="M113 500h82l15 -425h25l160 425h145l10 -425h25l165 425h88l-198 -500h-157l-10 425h-15l-160 -425h-153zM466 755h90l84 -145h-82l-49 90h-10l-81 -90h-88z" />
    <glyph glyph-name="Ycircumflex" unicode="&#x176;" horiz-adv-x="640" 
d="M305 255l-192 445h99l145 -340h10l265 340h111l-348 -445l-45 -255h-90zM416 935h90l84 -145h-82l-49 90h-10l-81 -90h-88z" />
    <glyph glyph-name="ycircumflex" unicode="&#x177;" horiz-adv-x="510" 
d="M263 0h-113l-47 500h83l35 -425h75l205 425h87l-332 -690h-87zM331 755h90l84 -145h-82l-49 90h-10l-81 -90h-88z" />
    <glyph glyph-name="Ydieresis" unicode="&#x178;" horiz-adv-x="640" 
d="M305 255l-192 445h99l145 -340h10l265 340h111l-348 -445l-45 -255h-90zM346 805q-22 0 -36.5 15t-14.5 36q0 24 18.5 41.5t41.5 17.5q22 0 36.5 -15t14.5 -36q0 -24 -18.5 -41.5t-41.5 -17.5zM525 805q-22 0 -36.5 15t-14.5 36q0 24 18.5 41.5t41.5 17.5q22 0 36.5 -15
t14.5 -36q0 -24 -18.5 -41.5t-41.5 -17.5z" />
    <glyph glyph-name="Zacute" unicode="&#x179;" horiz-adv-x="610" 
d="M50 85l513 525v5h-405l15 85h525l-15 -85l-512 -525l-1 -5h425l-15 -85h-545zM516 935h100l-141 -145h-70z" />
    <glyph glyph-name="zacute" unicode="&#x17a;" horiz-adv-x="470" 
d="M43 75l357 350h-285l13 75h395l-13 -75l-357 -350h305l-13 -75h-415zM416 755h100l-141 -145h-70z" />
    <glyph glyph-name="Zdotaccent" unicode="&#x17b;" horiz-adv-x="610" 
d="M50 85l513 525v5h-405l15 85h525l-15 -85l-512 -525l-1 -5h425l-15 -85h-545zM452 805q-23 0 -37.5 15t-14.5 35q0 24 18 42t41 18t37.5 -15t14.5 -35q0 -24 -18 -42t-41 -18z" />
    <glyph glyph-name="zdotaccent" unicode="&#x17c;" horiz-adv-x="470" 
d="M43 75l357 350h-285l13 75h395l-13 -75l-357 -350h305l-13 -75h-415zM347 625q-23 0 -37.5 15t-14.5 35q0 24 18 42t41 18t37.5 -15t14.5 -35q0 -24 -18 -42t-41 -18z" />
    <glyph glyph-name="Zcaron" unicode="&#x17d;" horiz-adv-x="610" 
d="M50 85l513 525v5h-405l15 85h525l-15 -85l-512 -525l-1 -5h425l-15 -85h-545zM315 935h82l49 -90h10l81 90h88l-136 -145h-90z" />
    <glyph glyph-name="zcaron" unicode="&#x17e;" horiz-adv-x="470" 
d="M43 75l357 350h-285l13 75h395l-13 -75l-357 -350h305l-13 -75h-415zM215 755h82l49 -90h10l81 90h88l-136 -145h-90z" />
    <glyph glyph-name="uni018F" unicode="&#x18f;" horiz-adv-x="809" 
d="M433 -20q-79 0 -141 27t-104.5 72.5t-65 105.5t-22.5 125q0 15 2 36t6 44h625q0 54 -19.5 99.5t-54 77.5t-81 50t-101.5 18q-76 0 -146.5 -40t-114.5 -115h-88q24 52 59 96.5t79 76t98.5 49.5t117.5 18q77 0 140 -24.5t107.5 -68t69 -104t24.5 -131.5q0 -90 -32 -166
t-86 -130.5t-124.5 -85t-147.5 -30.5zM430 65q54 0 102 17t87 49t66 77.5t39 101.5h-533q0 -62 19.5 -108t52.5 -76.5t76 -45.5t91 -15z" />
    <glyph glyph-name="florin" unicode="&#x192;" horiz-adv-x="341" 
d="M-95 -115h155l127 540h-55l6 75h70l48 200h220l-7 -75h-150l-31 -125h120l-6 -75h-135l-144 -615h-225z" />
    <glyph glyph-name="Gacute" unicode="&#x1f4;" horiz-adv-x="860" 
d="M440 -20q-77 0 -139.5 25t-107 69t-69 105.5t-24.5 134.5q0 86 31.5 160.5t86 129t126.5 85.5t153 31q78 0 135.5 -22t96.5 -58t62 -80.5t32 -89.5h-90q-14 46 -46 82q-14 15 -32 30t-42.5 27t-55 19t-68.5 7q-61 0 -115.5 -23.5t-95 -65.5t-64.5 -101t-24 -130
q0 -55 18.5 -101t52 -79t81 -51.5t105.5 -18.5q59 0 108 22.5t84.5 55t57 70t24.5 67.5h-130l15 85h310l-15 -85h-83q-3 -17 -15 -46t-33 -62t-52 -67.5t-72 -62t-92.5 -45t-113.5 -17.5zM601 935h100l-141 -145h-70z" />
    <glyph glyph-name="gacute" unicode="&#x1f5;" horiz-adv-x="615" 
d="M88 -115h350l32 179q-2 -3 -13.5 -14.5t-32.5 -25t-51.5 -24t-70.5 -10.5q-47 0 -87.5 17t-70 47t-46.5 72.5t-17 93.5q0 63 23 116t60.5 92t86 60.5t98.5 21.5q54 0 89.5 -17t55.5 -37q24 -24 36 -54l18 98h80l-89 -500l-34 -190h-430zM316 65q36 0 70 15t60.5 42.5
t42.5 66.5t16 86q0 35 -11.5 64.5t-32.5 50.5t-49.5 33t-61.5 12q-42 0 -76.5 -18t-59.5 -47t-39 -66.5t-14 -76.5q0 -36 11.5 -65.5t32 -51t49 -33.5t62.5 -12zM471 755h100l-141 -145h-70z" />
    <glyph glyph-name="uni01FA" unicode="&#x1fa;" horiz-adv-x="675" 
d="M483 755q-45 0 -71.5 27t-26.5 66q0 24 8 44t22.5 35.5t33 25t39.5 11.5l52 66h80l-76 -75q25 -11 39 -33t14 -50q0 -25 -9 -46.5t-25 -37t-36.5 -24.5t-43.5 -9zM488 805q26 0 42.5 18t16.5 43q0 20 -13.5 34.5t-39.5 14.5t-42.5 -18t-16.5 -43q0 -20 13.5 -34.5
t39.5 -14.5zM328 700h275l57 -700h-88l-19 205h-345l-91 -205h-92zM548 290l-28 325h-135l-142 -325h305z" />
    <glyph glyph-name="uni01FB" unicode="&#x1fb;" horiz-adv-x="613" 
d="M408 580q-45 0 -71.5 27t-26.5 66q0 24 8 44t22.5 35.5t33 25t39.5 11.5l52 66h80l-76 -75q25 -11 39 -33t14 -50q0 -25 -9 -46.5t-25 -37t-36.5 -24.5t-43.5 -9zM413 630q26 0 42.5 18t16.5 43q0 20 -13.5 34.5t-39.5 14.5t-42.5 -18t-16.5 -43q0 -20 13.5 -34.5
t39.5 -14.5zM304 -10q-47 0 -87.5 17t-70 47t-46.5 72.5t-17 93.5q0 63 23 116t60.5 92t86 60.5t98.5 21.5q54 0 89.5 -17t55.5 -37q24 -24 36 -54l18 98h80l-89 -500h-80l12 66l-10.5 -12t-31.5 -26.5t-53 -26t-74 -11.5zM318 65q36 0 70 15t60.5 42.5t42.5 66.5t16 86
q0 35 -11.5 64.5t-32.5 50.5t-49.5 33t-61.5 12q-42 0 -76.5 -18t-59.5 -47t-39 -66.5t-14 -76.5q0 -36 11.5 -65.5t32 -51t49 -33.5t62.5 -12z" />
    <glyph glyph-name="uni01FC" unicode="&#x1fc;" horiz-adv-x="985" 
d="M328 700h740l-15 -85h-385l-38 -220h310l-15 -85h-310l-40 -225h385l-15 -85h-475l36 205h-298l-91 -205h-92zM521 290l57 325h-193l-142 -325h278zM746 935h100l-141 -145h-70z" />
    <glyph glyph-name="uni01FD" unicode="&#x1fd;" horiz-adv-x="955" 
d="M255 -10q-79 0 -126 38t-47 101q0 35 13.5 65t38.5 52.5t61.5 35.5t82.5 13h193q0 2 3.5 14.5t3.5 29.5q0 42 -29.5 71.5t-89.5 29.5q-38 0 -63.5 -13t-41.5 -29q-18 -18 -30 -41h-87q17 44 47 79q13 15 30 29t39 25t49 18t60 7q66 0 112 -23.5t68 -65.5q39 40 89.5 62
t104.5 22q51 0 92.5 -18t71.5 -49t46 -73t16 -90q0 -8 -0.5 -17.5t-1.5 -17.5l-2 -20h-416q0 -36 11.5 -65.5t32 -50.5t50 -32.5t65.5 -11.5q44 0 74 14t50 31q23 19 37 45h83q-22 -47 -57 -83q-30 -31 -77.5 -56.5t-115.5 -25.5q-73 0 -126 32t-80 86q-9 -13 -26.5 -33
t-46 -39t-68.5 -32.5t-93 -13.5zM283 65q69 0 118.5 42.5t59.5 117.5h-190q-51 0 -77.5 -24.5t-26.5 -62.5q0 -33 28.5 -53t87.5 -20zM881 295q-7 64 -46.5 102t-106.5 38q-40 0 -69.5 -13.5t-50.5 -34t-34.5 -45.5t-20.5 -47h328zM661 755h100l-141 -145h-70z" />
    <glyph glyph-name="uni01FE" unicode="&#x1fe;" horiz-adv-x="820" 
d="M439 -20q-87 0 -154.5 31t-112.5 86l-143 -102l17 98l88 63q-34 71 -34 158q0 86 31.5 160.5t85 129t125.5 85.5t153 31q87 0 154.5 -31t112.5 -86l143 102l-17 -98l-88 -63q17 -35 25.5 -74.5t8.5 -83.5q0 -86 -31.5 -160.5t-85 -129t-125.5 -85.5t-153 -31zM447 65
q61 0 115.5 24t94.5 66.5t63.5 101.5t23.5 128q0 57 -20 106l-478 -342q33 -40 84 -62t117 -22zM688 551q-34 40 -84.5 62t-116.5 22q-62 0 -116 -24t-94 -66.5t-63.5 -101.5t-23.5 -128q0 -57 20 -106zM601 935h100l-141 -145h-70z" />
    <glyph glyph-name="uni01FF" unicode="&#x1ff;" 
d="M52 84l52 37q-21 45 -21 101q0 63 22.5 115.5t61 91t89.5 60t108 21.5q58 0 104.5 -19.5t78.5 -54.5l104 74l-14 -94l-52 -37q10 -23 15.5 -48.5t5.5 -52.5q0 -63 -22.5 -115.5t-61 -91t-89.5 -60t-108 -21.5q-58 0 -104.5 19.5t-78.5 54.5l-104 -74zM331 65
q39 0 74.5 15t62.5 42.5t43 66t16 85.5q0 15 -2.5 29t-7.5 28l-309 -220q22 -22 53.5 -34t69.5 -12zM481 389q-22 22 -53.5 34t-69.5 12q-39 0 -74.5 -15t-62.5 -42.5t-43 -66t-16 -85.5q0 -15 2.5 -29t7.5 -28zM466 755h100l-141 -145h-70z" />
    <glyph glyph-name="Scommaaccent" unicode="&#x218;" horiz-adv-x="640" 
d="M360 -20q-66 0 -112.5 15.5t-77.5 39.5t-49 51.5t-27.5 51.5t-12 40.5t-2.5 18.5h92l6 -21.5t26 -46.5t59.5 -46t106.5 -21q40 0 71 10t52 27t32 39.5t11 47.5q0 35 -28 59t-69.5 43t-90 36.5t-90 41.5t-69.5 57.5t-28 83.5q0 42 18 81t51 68t80 46.5t105 17.5
q47 0 83 -8.5t63.5 -22.5t46.5 -32t32 -36q30 -44 36 -99h-91q-7 31 -28 57q-18 22 -53.5 40t-97.5 18q-36 0 -64 -9.5t-47.5 -26t-30 -38t-10.5 -45.5q0 -35 27.5 -58t69.5 -42t90 -37.5t90 -42.5t69.5 -58t27.5 -84q0 -43 -18.5 -82t-53 -69t-84 -47.5t-111.5 -17.5z
M246 -255q36 1 52.5 15.5t16.5 31.5q0 3 -0.5 5t-0.5 4q-1 2 -1 4l-4 -2q-4 -2 -9 -2q-14 0 -27 10.5t-13 32.5q0 20 14.5 38t43.5 18q24 0 39 -15t15 -46q0 -35 -10.5 -60t-28.5 -41.5t-42 -24.5t-51 -8z" />
    <glyph glyph-name="scommaaccent" unicode="&#x219;" horiz-adv-x="505" 
d="M291 -10q-40 0 -70.5 7t-54 18.5t-40 26.5t-28.5 30q-27 36 -35 83h85q8 -26 27 -45q17 -17 46 -31t77 -14q55 0 83.5 22t28.5 51q0 22 -21.5 36.5t-53.5 26.5t-70 23.5t-70 29t-53.5 42.5t-21.5 64q0 30 12 57.5t35.5 48t58 32.5t79.5 12q37 0 66.5 -6.5t51.5 -17
t37.5 -24.5t26.5 -28q26 -33 33 -76h-85q-7 21 -24 38q-14 14 -40 26.5t-69 12.5q-53 0 -77 -21t-24 -43q0 -23 21.5 -37t53.5 -26t69.5 -23.5t69.5 -28.5t53.5 -42.5t21.5 -64.5q0 -32 -13 -61t-38.5 -50.5t-62.5 -34.5t-85 -13zM181 -255q36 1 52.5 15.5t16.5 31.5
q0 3 -0.5 5t-0.5 4q-1 2 -1 4l-4 -2q-4 -2 -9 -2q-14 0 -27 10.5t-13 32.5q0 20 14.5 38t43.5 18q24 0 39 -15t15 -46q0 -35 -10.5 -60t-28.5 -41.5t-42 -24.5t-51 -8z" />
    <glyph glyph-name="uni021A" unicode="&#x21a;" horiz-adv-x="590" 
d="M348 615h-240l15 85h570l-15 -85h-240l-108 -615h-90zM191 -255q36 1 52.5 15.5t16.5 31.5q0 3 -0.5 5t-0.5 4q-1 2 -1 4l-4 -2q-4 -2 -9 -2q-14 0 -27 10.5t-13 32.5q0 20 14.5 38t43.5 18q24 0 39 -15t15 -46q0 -35 -10.5 -60t-28.5 -41.5t-42 -24.5t-51 -8z" />
    <glyph glyph-name="uni021B" unicode="&#x21b;" horiz-adv-x="365" 
d="M165 425h-65l13 75h65l20 110h80l-20 -110h160l-13 -75h-160l-62 -350h165l-13 -75h-245zM126 -255q36 1 52.5 15.5t16.5 31.5q0 3 -0.5 5t-0.5 4q-1 2 -1 4l-4 -2q-4 -2 -9 -2q-14 0 -27 10.5t-13 32.5q0 20 14.5 38t43.5 18q24 0 39 -15t15 -46q0 -35 -10.5 -60
t-28.5 -41.5t-42 -24.5t-51 -8z" />
    <glyph glyph-name="uni0232" unicode="&#x232;" horiz-adv-x="640" 
d="M305 255l-192 445h99l145 -340h10l265 340h111l-348 -445l-45 -255h-90zM322 900h270l-12 -70h-270z" />
    <glyph glyph-name="uni0233" unicode="&#x233;" horiz-adv-x="510" 
d="M263 0h-113l-47 500h83l35 -425h75l205 425h87l-332 -690h-87zM232 720h270l-12 -70h-270z" />
    <glyph glyph-name="uni0244" unicode="&#x244;" horiz-adv-x="720" 
d="M390 -20q-70 0 -123 23t-86 63.5t-45 96t-1 120.5l18 107h-75l13 70h74q11 61 21.5 119t21.5 121h90l-42 -240h371l43 240h90l-42 -240h73l-13 -70h-72l-26 -149q-11 -60 -36 -108.5t-62.5 -82t-86 -52t-105.5 -18.5zM392 65q75 0 129 47.5t70 136.5l24 141h-372
l-19 -112q-8 -45 -0.5 -84t29.5 -67.5t57 -45t82 -16.5z" />
    <glyph glyph-name="uni0259" unicode="&#x259;" horiz-adv-x="582" 
d="M309 -10q-47 0 -88.5 15.5t-72 44.5t-48 70.5t-17.5 94.5q0 13 1 25.5t3 22.5l4 22h417q-2 37 -16.5 65.5t-37 47t-51 28t-56.5 9.5q-56 0 -94 -24.5t-61 -55.5h-80q38 79 101 117t140 38q52 0 95.5 -17.5t74.5 -48.5t48 -73t17 -91q0 -63 -22.5 -116t-61 -92t-89 -60.5
t-106.5 -21.5zM313 65q34 0 65 11.5t56 31.5t43 47.5t25 59.5h-340q1 -72 42 -111t109 -39z" />
    <glyph glyph-name="uni0289" unicode="&#x289;" horiz-adv-x="610" 
d="M299 -10q-53 0 -90.5 17.5t-60.5 48.5t-30.5 73.5t1.5 92.5l10 58h-70l12 70h70l27 150h80l-27 -150h290l27 150h80l-27 -150h70l-12 -70h-70l-49 -280h-80l11 65q-15 -21 -38 -38q-20 -14 -50.5 -25.5t-73.5 -11.5zM323 65q62 0 107 40t58 112l11 63h-290l-10 -58
q-12 -69 19.5 -113t104.5 -44z" />
    <glyph glyph-name="afii57929" unicode="&#x2bc;" horiz-adv-x="175" 
d="M129 545q36 1 52.5 15.5t16.5 31.5q0 3 -0.5 5t-0.5 4q-1 2 -1 4l-4 -2q-4 -2 -9 -2q-14 0 -27 10.5t-13 32.5q0 20 14.5 38t43.5 18q24 0 39 -15t15 -46q0 -35 -10.5 -60t-28.5 -41.5t-42 -24.5t-51 -8z" />
    <glyph glyph-name="circumflex" unicode="&#x2c6;" horiz-adv-x="370" 
d="M256 755h90l84 -145h-82l-49 90h-10l-81 -90h-88z" />
    <glyph glyph-name="caron" unicode="&#x2c7;" horiz-adv-x="370" 
d="M155 755h82l49 -90h10l81 90h88l-136 -145h-90z" />
    <glyph glyph-name="breve" unicode="&#x2d8;" horiz-adv-x="350" 
d="M281 620q-66 0 -103.5 33t-37.5 83v9h70v-6q0 -59 76 -59q32 0 51 16.5t23 48.5h70q-5 -55 -45.5 -90t-103.5 -35z" />
    <glyph glyph-name="dotaccent" unicode="&#x2d9;" horiz-adv-x="153" 
d="M187 625q-23 0 -37.5 15t-14.5 35q0 24 18 42t41 18t37.5 -15t14.5 -35q0 -24 -18 -42t-41 -18z" />
    <glyph glyph-name="ring" unicode="&#x2da;" horiz-adv-x="270" 
d="M228 575q-45 0 -71.5 27t-26.5 66q0 25 9 46.5t25 37t36.5 24.5t43.5 9q45 0 71.5 -27t26.5 -66q0 -25 -9 -46.5t-25 -37t-36.5 -24.5t-43.5 -9zM233 625q26 0 42.5 18t16.5 43q0 20 -13.5 34.5t-39.5 14.5t-42.5 -18t-16.5 -43q0 -20 13.5 -34.5t39.5 -14.5z" />
    <glyph glyph-name="ogonek" unicode="&#x2db;" horiz-adv-x="240" 
d="M98 -230q-48 0 -74.5 22.5t-26.5 61.5q0 32 17 57t40 43t46.5 29t36.5 17h71q-13 -7 -38 -19.5t-49.5 -29.5t-43 -38.5t-18.5 -46.5q0 -17 12 -28t38 -11q12 0 23.5 2t20.5 4q11 3 19 6l-9 -55q-8 -4 -19 -7q-9 -3 -20.5 -5t-25.5 -2z" />
    <glyph glyph-name="tilde" unicode="&#x2dc;" horiz-adv-x="380" 
d="M354 620q-26 0 -44 9.5t-32 20.5t-26 20.5t-27 9.5q-32 0 -36 -30l-4 -25h-65l5 28q16 92 101 92q26 0 44 -9.5t32 -20.5t26.5 -20.5t27.5 -9.5q30 0 35 30l4 25h65l-5 -28q-16 -92 -101 -92z" />
    <glyph glyph-name="hungarumlaut" unicode="&#x2dd;" horiz-adv-x="370" 
d="M231 755h90l-126 -145h-60zM381 755h90l-126 -145h-60z" />
    <glyph glyph-name="uni0301" unicode="&#x301;" horiz-adv-x="0" 
d="M-155 940h80l-115 -115h-55z" />
    <glyph glyph-name="uni030A" unicode="&#x30a;" horiz-adv-x="0" 
d="M-222 730q-45 0 -71.5 27t-26.5 66q0 25 9 46.5t25 37t36.5 24.5t43.5 9q45 0 71.5 -27t26.5 -66q0 -25 -9 -46.5t-25 -37t-36.5 -24.5t-43.5 -9zM-217 780q26 0 42.5 18t16.5 43q0 20 -13.5 34.5t-39.5 14.5t-42.5 -18t-16.5 -43q0 -20 13.5 -34.5t39.5 -14.5z" />
    <glyph glyph-name="afii10023" unicode="&#x401;" horiz-adv-x="610" 
d="M203 700h490l-15 -85h-400l-38 -220h325l-15 -85h-325l-40 -225h400l-15 -85h-490zM376 805q-22 0 -36.5 15t-14.5 36q0 24 18.5 41.5t41.5 17.5q22 0 36.5 -15t14.5 -36q0 -24 -18.5 -41.5t-41.5 -17.5zM555 805q-22 0 -36.5 15t-14.5 36q0 24 18.5 41.5t41.5 17.5
q22 0 36.5 -15t14.5 -36q0 -24 -18.5 -41.5t-41.5 -17.5z" />
    <glyph glyph-name="afii10051" unicode="&#x402;" horiz-adv-x="775" 
d="M490 -15h135l33 186q3 16 3 33q0 61 -39.5 98.5t-111.5 37.5h-163l-60 -340h-90q28 155 54.5 307.5t54.5 307.5h-208l15 85h523l-15 -85h-225l-34 -190h160q49 0 91 -15t72.5 -42.5t48 -67t17.5 -87.5q0 -11 -1 -23t-3 -24l-47 -266h-225z" />
    <glyph glyph-name="afii10052" unicode="&#x403;" horiz-adv-x="545" 
d="M203 700h445l-15 -85h-355l-108 -615h-90zM516 935h100l-141 -145h-70z" />
    <glyph glyph-name="afii10053" unicode="&#x404;" horiz-adv-x="800" 
d="M440 -20q-77 0 -139.5 25t-107 69t-69 105.5t-24.5 134.5q0 86 31.5 160.5t86 129t126.5 85.5t153 31q80 0 138 -23t97 -59.5t61 -82t31 -90.5h-90l-4 12.5t-13.5 31.5t-27 41t-45 41t-65.5 31.5t-90 12.5q-53 0 -100 -17t-85.5 -48.5t-65.5 -76t-39 -98.5h304l-16 -85
h-297q1 -54 19.5 -99.5t52.5 -77.5t81 -50t104 -18q36 0 66.5 7.5t56 20.5t46.5 29.5t37 33.5q38 40 61 91h94q-32 -75 -83 -134q-22 -25 -50 -49t-63.5 -42.5t-78 -30t-93.5 -11.5z" />
    <glyph glyph-name="afii10054" unicode="&#x405;" horiz-adv-x="640" 
d="M360 -20q-66 0 -112.5 15.5t-77.5 39.5t-49 51.5t-27.5 51.5t-12 40.5t-2.5 18.5h92l6 -21.5t26 -46.5t59.5 -46t106.5 -21q40 0 71 10t52 27t32 39.5t11 47.5q0 35 -28 59t-69.5 43t-90 36.5t-90 41.5t-69.5 57.5t-28 83.5q0 42 18 81t51 68t80 46.5t105 17.5
q47 0 83 -8.5t63.5 -22.5t46.5 -32t32 -36q30 -44 36 -99h-91q-7 31 -28 57q-18 22 -53.5 40t-97.5 18q-36 0 -64 -9.5t-47.5 -26t-30 -38t-10.5 -45.5q0 -35 27.5 -58t69.5 -42t90 -37.5t90 -42.5t69.5 -58t27.5 -84q0 -43 -18.5 -82t-53 -69t-84 -47.5t-111.5 -17.5z" />
    <glyph glyph-name="afii10055" unicode="&#x406;" horiz-adv-x="250" 
d="M203 700h90l-123 -700h-90z" />
    <glyph glyph-name="afii10056" unicode="&#x407;" horiz-adv-x="250" 
d="M203 700h90l-123 -700h-90zM181 805q-22 0 -36.5 15t-14.5 36q0 24 18.5 41.5t41.5 17.5q22 0 36.5 -15t14.5 -36q0 -24 -18.5 -41.5t-41.5 -17.5zM360 805q-22 0 -36.5 15t-14.5 36q0 24 18.5 41.5t41.5 17.5q22 0 36.5 -15t14.5 -36q0 -24 -18.5 -41.5t-41.5 -17.5z
" />
    <glyph glyph-name="afii10057" unicode="&#x408;" horiz-adv-x="550" 
d="M252 -20q-69 0 -112 23t-67 53t-33.5 59.5t-12.5 43.5l91 19q5 -32 22 -57q14 -22 41 -39.5t75 -17.5q63 0 102.5 38.5t53.5 113.5l84 484h89l-85 -492q-20 -112 -85 -170t-163 -58z" />
    <glyph glyph-name="afii10058" unicode="&#x409;" horiz-adv-x="1055" 
d="M323 700h375l-42 -240h172q56 0 100.5 -17t75.5 -46t47.5 -67.5t16.5 -81.5q0 -51 -19.5 -96.5t-55 -79t-85 -53t-109.5 -19.5h-314l108 615h-220l-258 -615h-90zM807 85q79 0 124 44.5t45 117.5q0 26 -10.5 49.5t-30 41t-49 27.5t-66.5 10h-179l-51 -290h217z" />
    <glyph glyph-name="afii10059" unicode="&#x40a;" horiz-adv-x="1110" 
d="M203 700h90l-47 -270h365l47 270h90l-47 -270h177q56 0 100.5 -15.5t76 -42t48.5 -62.5t17 -77q0 -50 -19 -92.5t-54 -73.5t-84 -49t-109 -18h-319l61 345h-365l-61 -345h-90zM862 85q79 0 122.5 39t43.5 108q0 49 -41.5 81t-116.5 32h-184l-46 -260h222z" />
    <glyph glyph-name="afii10060" unicode="&#x40b;" horiz-adv-x="775" 
d="M197 0q28 155 54.5 307.5t54.5 307.5h-208l15 85h523l-15 -85h-225l-34 -190h160q49 0 91 -15t72.5 -42.5t48 -67t17.5 -87.5q0 -11 -1 -23t-3 -24l-30 -166h-90l31 171q3 16 3 33q0 61 -39.5 98.5t-111.5 37.5h-163l-60 -340h-90v0z" />
    <glyph glyph-name="afii10061" unicode="&#x40c;" horiz-adv-x="645" 
d="M203 700h90l-53 -305h128l273 305h112l-305 -340l192 -360h-105l-165 310h-145l-55 -310h-90zM551 935h100l-141 -145h-70z" />
    <glyph glyph-name="afii10062" unicode="&#x40e;" horiz-adv-x="595" 
d="M363 265h-157l-93 435h92l73 -350h135l197 350h98l-403 -700h-98zM424 785q-73 0 -113.5 36.5t-40.5 90.5v13h79v-9q0 -27 18.5 -46.5t58.5 -19.5q34 0 56.5 19.5t27.5 55.5h81q-4 -35 -18.5 -61.5t-37 -44t-51 -26t-60.5 -8.5z" />
    <glyph glyph-name="afii10145" unicode="&#x40f;" horiz-adv-x="710" 
d="M310 0h-230l123 700h90l-108 -615h370l108 615h90l-123 -700h-230l-24 -135h-90z" />
    <glyph glyph-name="afii10017" unicode="&#x410;" horiz-adv-x="675" 
d="M328 700h275l57 -700h-88l-19 205h-345l-91 -205h-92zM548 290l-28 325h-135l-142 -325h305z" />
    <glyph glyph-name="afii10018" unicode="&#x411;" horiz-adv-x="675" 
d="M203 700h497l-14 -85h-408l-31 -180h188q53 0 96 -16t73 -43t46.5 -63t16.5 -77q0 -50 -19 -93t-53 -75t-82 -50t-105 -18h-328zM410 85q78 0 121 40.5t43 103.5q0 54 -40 87.5t-112 33.5h-191l-46 -265h225z" />
    <glyph glyph-name="afii10019" unicode="&#x412;" horiz-adv-x="700" 
d="M203 700h317q47 0 83.5 -14t61.5 -37t38 -53t13 -63q0 -37 -9.5 -63.5t-24 -46t-31 -31.5t-31 -19t-24 -9.5t-8.5 -2.5l-2 -5q28 -10 51 -28q19 -16 35 -43t16 -70q0 -47 -17 -86t-48.5 -68t-76.5 -45t-102 -16h-364zM451 85q69 0 107 36t38 94q0 44 -34 74.5t-102 30.5
h-234l-41 -235h266zM501 405q54 0 87 31.5t33 85.5q0 38 -28 65.5t-81 27.5h-234l-37 -210h260z" />
    <glyph glyph-name="afii10020" unicode="&#x413;" horiz-adv-x="545" 
d="M203 700h445l-15 -85h-355l-108 -615h-90z" />
    <glyph glyph-name="afii10021" unicode="&#x414;" horiz-adv-x="735" 
d="M21 85h80l263 615h265l47 -615h80l-39 -220h-90l24 135h-555l-24 -135h-90zM586 85l-42 530h-125l-228 -530h395z" />
    <glyph glyph-name="afii10022" unicode="&#x415;" horiz-adv-x="610" 
d="M203 700h490l-15 -85h-400l-38 -220h325l-15 -85h-325l-40 -225h400l-15 -85h-490z" />
    <glyph glyph-name="afii10024" unicode="&#x416;" horiz-adv-x="980" 
d="M323 360l-185 340h102l167 -305h108l53 305h90l-53 -305h98l273 305h112l-305 -340l192 -360h-105l-165 310h-115l-55 -310h-90l55 310h-105l-275 -310h-115z" />
    <glyph glyph-name="afii10025" unicode="&#x417;" horiz-adv-x="640" 
d="M357 -20q-50 0 -89 9.5t-69 25t-51 35t-35 40.5q-33 48 -43 110h90l7 -21.5t28.5 -46.5t62 -46t107.5 -21q42 0 73.5 10.5t52.5 28.5t31.5 42.5t10.5 52.5q0 23 -10.5 44t-32 37t-54 25.5t-75.5 9.5h-76l15 85h112q35 0 64 9.5t49.5 26t32 39.5t11.5 50q0 21 -10 41
t-30 35.5t-49.5 25t-69.5 9.5q-54 0 -89.5 -19t-57.5 -42q-26 -26 -39 -60h-92q22 57 61 102q16 19 38 37.5t49.5 33t61.5 23.5t75 9q61 0 106.5 -15.5t76 -42t45.5 -60.5t15 -71q0 -55 -22 -89.5t-48 -53.5q-31 -23 -69 -34q0 -2 -0.5 -2.5t-0.5 -2.5q28 -11 51 -30
q20 -17 36 -45.5t16 -73.5q0 -44 -18.5 -84t-53 -70t-83.5 -48t-111 -18z" />
    <glyph glyph-name="afii10026" unicode="&#x418;" horiz-adv-x="725" 
d="M203 700h90l-103 -585l458 585h120l-123 -700h-90l103 585l-458 -585h-120z" />
    <glyph glyph-name="afii10027" unicode="&#x419;" horiz-adv-x="725" 
d="M203 700h90l-103 -585l458 585h120l-123 -700h-90l103 585l-458 -585h-120zM504 785q-73 0 -113.5 36.5t-40.5 90.5v13h79v-9q0 -27 18.5 -46.5t58.5 -19.5q34 0 56.5 19.5t27.5 55.5h81q-4 -35 -18.5 -61.5t-37 -44t-51 -26t-60.5 -8.5z" />
    <glyph glyph-name="afii10028" unicode="&#x41a;" horiz-adv-x="645" 
d="M203 700h90l-53 -305h128l273 305h112l-305 -340l192 -360h-105l-165 310h-145l-55 -310h-90z" />
    <glyph glyph-name="afii10029" unicode="&#x41b;" horiz-adv-x="660" 
d="M328 700h260l57 -700h-88l-52 615h-120l-268 -615h-92z" />
    <glyph glyph-name="afii10030" unicode="&#x41c;" horiz-adv-x="915" 
d="M203 700h143l131 -450h45l289 450h147l-123 -700h-90l108 610l-283 -440h-165l-127 440l-108 -610h-90z" />
    <glyph glyph-name="afii10031" unicode="&#x41d;" horiz-adv-x="715" 
d="M203 700h90l-53 -305h375l53 305h90l-123 -700h-90l55 310h-375l-55 -310h-90z" />
    <glyph glyph-name="afii10032" unicode="&#x41e;" horiz-adv-x="820" 
d="M439 -20q-77 0 -139.5 25t-107 69.5t-68.5 105.5t-24 134q0 86 31.5 160.5t85 129t125.5 85.5t153 31q77 0 139.5 -25t107 -69.5t68.5 -105.5t24 -134q0 -86 -31.5 -160.5t-85 -129t-125.5 -85.5t-153 -31zM447 65q61 0 115.5 24t94.5 66.5t63.5 101.5t23.5 128
q0 55 -18 101t-51.5 79t-81 51.5t-106.5 18.5q-62 0 -116 -24t-94 -66.5t-63.5 -101.5t-23.5 -128q0 -55 18 -101t51.5 -79t81 -51.5t106.5 -18.5z" />
    <glyph glyph-name="afii10033" unicode="&#x41f;" horiz-adv-x="715" 
d="M203 700h555l-123 -700h-90l108 615h-375l-108 -615h-90z" />
    <glyph glyph-name="afii10034" unicode="&#x420;" horiz-adv-x="680" 
d="M203 700h277q56 0 100.5 -17t75.5 -46t47.5 -66.5t16.5 -79.5q0 -53 -19.5 -99t-55 -79.5t-85 -53t-109.5 -19.5h-239l-42 -240h-90zM458 325q80 0 125 44.5t45 116.5q0 27 -10.5 50.5t-30 41t-48 27.5t-64.5 10h-197l-51 -290h231z" />
    <glyph glyph-name="afii10035" unicode="&#x421;" horiz-adv-x="800" 
d="M440 -20q-77 0 -139.5 25t-107 69t-69 105.5t-24.5 134.5q0 86 31.5 160.5t86 129t126.5 85.5t153 31q80 0 138 -23t97 -59.5t61 -82t31 -90.5h-90l-4 12.5t-13.5 31.5t-27 41t-45 41t-65.5 31.5t-90 12.5q-61 0 -115.5 -23.5t-95 -65.5t-64.5 -101t-24 -130
q0 -55 18.5 -101t52 -79t81 -51.5t105.5 -18.5q36 0 66.5 7.5t56 20.5t46.5 29.5t37 33.5q38 40 61 91h94q-32 -75 -83 -134q-22 -25 -50 -49t-63.5 -42.5t-78 -30t-93.5 -11.5z" />
    <glyph glyph-name="afii10036" unicode="&#x422;" horiz-adv-x="590" 
d="M348 615h-240l15 85h570l-15 -85h-240l-108 -615h-90z" />
    <glyph glyph-name="afii10037" unicode="&#x423;" horiz-adv-x="595" 
d="M363 265h-157l-93 435h92l73 -350h135l197 350h98l-403 -700h-98z" />
    <glyph glyph-name="afii10038" unicode="&#x424;" horiz-adv-x="880" 
d="M396 49q-71 6 -126.5 31t-94.5 63.5t-59.5 88.5t-20.5 107q0 66 27 126t76.5 105.5t119 72.5t155.5 27h31l14 75h90l-15 -84q70 -6 126 -31t95 -63.5t59.5 -88.5t20.5 -107q0 -66 -27 -126t-76.5 -105.5t-119.5 -72.5t-155 -27h-31l-14 -75h-90zM490 586h-23
q-71 0 -124 -20t-88.5 -54t-53 -77.5t-17.5 -91.5q0 -42 14 -78.5t42 -65t70.5 -47t99.5 -23.5zM522 124q71 0 124 20t88.5 54t53 77.5t17.5 91.5q0 42 -14 78.5t-42 65t-70.5 47t-99.5 23.5l-80 -457h23z" />
    <glyph glyph-name="afii10039" unicode="&#x425;" horiz-adv-x="645" 
d="M276 345l-113 355h91l101 -310h70l209 310h99l-237 -355l124 -345h-91l-111 305h-70l-219 -305h-99z" />
    <glyph glyph-name="afii10040" unicode="&#x426;" horiz-adv-x="720" 
d="M610 0h-530l123 700h90l-108 -615h345l108 615h90l-108 -615h95l-39 -220h-90z" />
    <glyph glyph-name="afii10041" unicode="&#x427;" horiz-adv-x="670" 
d="M545 261q-20 -10 -46 -18q-23 -7 -54.5 -12.5t-70.5 -5.5q-64 0 -111 18.5t-76.5 52.5t-40 81t-0.5 103l38 220h91l-37 -213q-14 -82 26.5 -132t136.5 -50q37 0 66 6.5t50 14.5q24 10 43 22l62 352h90l-123 -700h-90z" />
    <glyph glyph-name="afii10042" unicode="&#x428;" horiz-adv-x="990" 
d="M203 700h90l-108 -615h280l108 615h90l-108 -615h280l108 615h90l-123 -700h-830z" />
    <glyph glyph-name="afii10043" unicode="&#x429;" horiz-adv-x="1025" 
d="M915 0h-835l123 700h90l-108 -615h280l108 615h90l-108 -615h280l108 615h90l-108 -615h95l-39 -220h-90z" />
    <glyph glyph-name="afii10044" unicode="&#x42a;" horiz-adv-x="730" 
d="M262 615h-154l15 85h244l-42 -240h177q56 0 101 -17t76 -46t47.5 -67.5t16.5 -81.5q0 -51 -20 -96.5t-55.5 -79t-85 -53t-108.5 -19.5h-320zM481 85q80 0 124.5 44.5t44.5 117.5q0 26 -10 49.5t-30 41t-49 27.5t-66 10h-185l-51 -290h222z" />
    <glyph glyph-name="afii10045" unicode="&#x42b;" horiz-adv-x="870" 
d="M203 700h90l-42 -240h162q56 0 100.5 -17t75.5 -46t47.5 -67.5t16.5 -81.5q0 -51 -19.5 -96.5t-55 -79t-85 -53t-109.5 -19.5h-304zM392 85q79 0 124 44.5t45 117.5q0 26 -10.5 49.5t-30 41t-49 27.5t-66.5 10h-169l-51 -290h207zM823 700h90l-123 -700h-90z" />
    <glyph glyph-name="afii10046" unicode="&#x42c;" horiz-adv-x="665" 
d="M203 700h90l-42 -240h187q56 0 100.5 -17t75.5 -46t47.5 -67.5t16.5 -81.5q0 -51 -19.5 -96.5t-55 -79t-85 -53t-109.5 -19.5h-329zM417 85q79 0 124 44.5t45 117.5q0 26 -10.5 49.5t-30 41t-49 27.5t-66.5 10h-194l-51 -290h232z" />
    <glyph glyph-name="afii10047" unicode="&#x42d;" horiz-adv-x="795" 
d="M422 -20q-80 0 -138.5 24t-98 61.5t-62 84t-29.5 92.5h89q13 -50 44 -89q13 -17 31.5 -32.5t43.5 -28t56.5 -20t71.5 -7.5q52 0 100 17.5t86.5 49.5t66 77t38.5 101h-308l16 85h300q-2 53 -21 97.5t-52.5 76t-80 49t-103.5 17.5q-71 0 -121 -27.5t-82 -60.5
q-38 -39 -61 -87h-94q32 73 83 130q22 24 50 47.5t63 42t77 29.5t92 11q77 0 139.5 -25t107 -69.5t69 -105.5t24.5 -134q0 -86 -31.5 -160.5t-86 -129t-126.5 -85.5t-153 -31z" />
    <glyph glyph-name="afii10048" unicode="&#x42e;" horiz-adv-x="1030" 
d="M666 -20q-73 0 -133.5 23.5t-104 66.5t-67.5 104t-24 136h-112q-14 -78 -27.5 -155t-27.5 -155h-90l123 700h90q-14 -76 -27 -152.5t-26 -152.5h105q14 70 49.5 130t86 103t112.5 67.5t129 24.5q74 0 135 -24.5t104 -68.5t66.5 -104.5t23.5 -133.5q0 -86 -31.5 -161
t-84.5 -130t-123 -86.5t-146 -31.5zM673 65q54 0 106 23.5t92.5 65.5t65.5 101t25 130q0 58 -18.5 104.5t-51.5 79t-78.5 49.5t-98.5 17q-54 0 -106 -23.5t-92.5 -65.5t-65.5 -101t-25 -130q0 -59 18.5 -105t51.5 -78.5t78.5 -49.5t98.5 -17z" />
    <glyph glyph-name="afii10049" unicode="&#x42f;" horiz-adv-x="685" 
d="M273 278q-15 4 -39 16.5t-47 35t-39.5 55.5t-16.5 78q0 50 19 93t53 75t82 50.5t107 18.5h336l-123 -700h-91q12 65 23.5 129.5t22.5 130.5h-199l-201 -260h-105zM575 345l48 270h-238q-79 0 -120.5 -41.5t-41.5 -107.5q0 -25 10 -47t29.5 -38.5t49 -26t68.5 -9.5h195z
" />
    <glyph glyph-name="afii10065" unicode="&#x430;" horiz-adv-x="613" 
d="M304 -10q-47 0 -87.5 17t-70 47t-46.5 72.5t-17 93.5q0 63 23 116t60.5 92t86 60.5t98.5 21.5q54 0 89.5 -17t55.5 -37q24 -24 36 -54l18 98h80l-89 -500h-80l12 66l-10.5 -12t-31.5 -26.5t-53 -26t-74 -11.5zM318 65q36 0 70 15t60.5 42.5t42.5 66.5t16 86
q0 35 -11.5 64.5t-32.5 50.5t-49.5 33t-61.5 12q-42 0 -76.5 -18t-59.5 -47t-39 -66.5t-14 -76.5q0 -36 11.5 -65.5t32 -51t49 -33.5t62.5 -12z" />
    <glyph glyph-name="afii10066" unicode="&#x431;" horiz-adv-x="560" 
d="M306 -10q-53 0 -94 17.5t-69.5 47.5t-43.5 70t-15 85q0 86 21.5 173.5t66 158t112.5 114.5t162 44h174l-15 -85h-164q-49 0 -87.5 -12t-68.5 -38.5t-53 -68t-41 -99.5q16 17 41 31q20 12 51 22t72 10q49 0 89.5 -16t69.5 -44.5t45 -67t16 -84.5q0 -56 -20 -103.5t-56 -82
t-85.5 -53.5t-107.5 -19zM318 65q36 0 68 12t56.5 34.5t39 55t14.5 73.5q0 32 -11.5 58.5t-31.5 46t-49 30t-63 10.5q-36 0 -68 -12t-56.5 -34.5t-39 -55t-14.5 -73.5q0 -32 11.5 -58.5t31.5 -46t48.5 -30t63.5 -10.5z" />
    <glyph glyph-name="afii10067" unicode="&#x432;" horiz-adv-x="525" 
d="M158 500h232q34 0 60.5 -9.5t44.5 -25t27.5 -36.5t9.5 -45q0 -42 -15 -67t-33 -38q-21 -15 -47 -20q20 -7 37 -20q14 -11 25.5 -30.5t11.5 -49.5q0 -35 -12 -64t-34.5 -50t-54 -33t-69.5 -12h-271zM345 75q42 0 65.5 22.5t23.5 60.5q0 28 -20 47.5t-64 19.5h-160
l-27 -150h182zM374 295q35 0 55 19.5t20 54.5q0 24 -18 40t-56 16h-150l-23 -130h172z" />
    <glyph glyph-name="afii10068" unicode="&#x433;" horiz-adv-x="425" 
d="M158 500h345l-13 -75h-265l-75 -425h-80z" />
    <glyph glyph-name="afii10069" unicode="&#x434;" horiz-adv-x="550" 
d="M19 75h55l189 425h210l41 -425h55l-34 -190h-80l20 115h-390l-20 -115h-80zM434 75l-34 350h-90l-156 -350h280z" />
    <glyph glyph-name="afii10070" unicode="&#x435;" horiz-adv-x="590" 
d="M320 -10q-53 0 -96.5 17.5t-75 48.5t-48.5 73.5t-17 92.5q0 65 24 118t63 91t89 58.5t102 20.5q53 0 96.5 -18t74.5 -49t48 -73t17 -90q0 -8 -0.5 -17.5t-1.5 -17.5l-2 -20h-431q0 -36 12 -65.5t34 -50.5t52 -32.5t66 -11.5q45 0 77.5 14t53.5 31q25 19 40 45h83
q-23 -47 -60 -83q-32 -31 -81 -56.5t-119 -25.5zM516 295q-7 64 -49.5 102t-113.5 38q-32 0 -61 -10.5t-52.5 -29.5t-41 -44.5t-26.5 -55.5h344z" />
    <glyph glyph-name="afii10072" unicode="&#x436;" horiz-adv-x="767" 
d="M234 265l-134 235h92l115 -200h88l35 200h80l-35 -200h80l185 200h100l-216 -235l143 -265h-95l-120 225h-90l-40 -225h-80l40 225h-80l-200 -225h-105z" />
    <glyph glyph-name="afii10073" unicode="&#x437;" horiz-adv-x="490" 
d="M275 -10q-40 0 -70.5 7t-53.5 18.5t-39 26.5t-26 30q-25 36 -30 83h80l3.5 -13.5t17.5 -30.5t42.5 -31t79.5 -14q58 0 87 25.5t29 55.5q0 13 -6.5 26t-20.5 23.5t-35 17t-49 6.5h-56l13 75h83q49 0 74.5 19.5t25.5 50.5q0 25 -29 48t-93 23q-37 0 -60 -12t-37 -26
q-16 -17 -24 -38h-83q13 42 40 75q23 28 64 51.5t107 23.5q32 0 66.5 -7t63.5 -23t47.5 -42t18.5 -63q0 -41 -17 -65.5t-37 -37t-36.5 -16.5t-15.5 -4q21 -8 38 -22q14 -12 26 -32t12 -50q0 -32 -13.5 -60.5t-39 -50t-62.5 -34.5t-85 -13z" />
    <glyph glyph-name="afii10074" unicode="&#x438;" horiz-adv-x="580" 
d="M158 500h80l-68 -385l338 385h90l-88 -500h-80l68 385l-338 -385h-90z" />
    <glyph glyph-name="afii10075" unicode="&#x439;" horiz-adv-x="580" 
d="M158 500h80l-68 -385l338 385h90l-88 -500h-80l68 385l-338 -385h-90zM401 620q-70 0 -108 34t-38 82v9h75v-6q0 -24 19.5 -39t55.5 -15q29 0 50 14t25 46h75q-6 -57 -47.5 -91t-106.5 -34z" />
    <glyph glyph-name="afii10076" unicode="&#x43a;" horiz-adv-x="520" 
d="M158 500h80l-35 -200h95l195 200h100l-226 -235l153 -265h-95l-130 225h-105l-40 -225h-80z" />
    <glyph glyph-name="afii10077" unicode="&#x43b;" horiz-adv-x="510" 
d="M243 500h210l52 -500h-82l-40 425h-90l-190 -425h-88z" />
    <glyph glyph-name="afii10078" unicode="&#x43c;" horiz-adv-x="705" 
d="M158 500h120l96 -310h25l204 310h120l-88 -500h-80l72 410l-204 -310h-105l-96 310l-72 -410h-80z" />
    <glyph glyph-name="afii10079" unicode="&#x43d;" horiz-adv-x="580" 
d="M158 500h80l-36 -205h280l36 205h80l-88 -500h-80l39 220h-280l-39 -220h-80z" />
    <glyph glyph-name="afii10080" unicode="&#x43e;" 
d="M325 -10q-55 0 -99.5 17.5t-76 49t-49 73.5t-17.5 92q0 63 22.5 115.5t61 91t89.5 60t108 21.5q55 0 99.5 -17.5t76 -49t49 -74t17.5 -91.5q0 -63 -22.5 -115.5t-61 -91t-89.5 -60t-108 -21.5zM331 65q39 0 74.5 15t62.5 42.5t43 66t16 85.5q0 36 -12 65.5t-34 50.5
t-53.5 33t-69.5 12q-39 0 -74.5 -15t-62.5 -42.5t-43 -66t-16 -85.5q0 -36 12 -65.5t34 -50.5t53.5 -33t69.5 -12z" />
    <glyph glyph-name="afii10081" unicode="&#x43f;" horiz-adv-x="575" 
d="M158 500h435l-88 -500h-80l75 425h-275l-75 -425h-80z" />
    <glyph glyph-name="afii10082" unicode="&#x440;" horiz-adv-x="610" 
d="M158 500h80l-12 -66l10.5 12t31.5 26.5t53 26t74 11.5q47 0 87.5 -17t70 -47t46.5 -72.5t17 -93.5q0 -63 -23 -116t-60.5 -92t-86 -60.5t-98.5 -21.5q-55 0 -90 17t-55 37q-24 24 -36 54l-51 -288h-80zM347 65q42 0 76.5 18t59.5 47t39 66.5t14 76.5q0 36 -11.5 65.5
t-32 51t-49 33.5t-62.5 12q-36 0 -70 -15t-60.5 -42.5t-42.5 -66.5t-16 -86q0 -35 11.5 -64.5t32.5 -50.5t49.5 -33t61.5 -12z" />
    <glyph glyph-name="afii10083" unicode="&#x441;" horiz-adv-x="565" 
d="M318 -10q-51 0 -94.5 17t-74.5 47.5t-48.5 73t-17.5 93.5q0 63 23 116t61 91.5t87.5 60t102.5 21.5q39 0 69.5 -7.5t54 -20.5t40 -29t28.5 -33q27 -40 36 -90h-81q-9 29 -28 52q-17 20 -46.5 36.5t-77.5 16.5q-36 0 -70.5 -15t-61 -42t-42.5 -65.5t-16 -85.5
q0 -38 12.5 -68t34.5 -51t50.5 -32t61.5 -11q47 0 79 16.5t52 36.5q24 24 38 54h82q-21 -51 -56 -91q-15 -17 -34.5 -33.5t-44 -29.5t-54 -20.5t-65.5 -7.5z" />
    <glyph glyph-name="afii10084" unicode="&#x442;" horiz-adv-x="440" 
d="M244 425h-175l13 75h430l-13 -75h-175l-75 -425h-80z" />
    <glyph glyph-name="afii10085" unicode="&#x443;" horiz-adv-x="510" 
d="M263 0h-113l-47 500h83l35 -425h75l205 425h87l-332 -690h-87z" />
    <glyph glyph-name="afii10086" unicode="&#x444;" horiz-adv-x="680" 
d="M300 -5q-49 7 -88.5 28.5t-67.5 53t-43.5 70.5t-15.5 83q0 60 24 110t65 86t97 56.5t119 22.5l34 195h80l-34 -195q49 -8 88.5 -29t67.5 -52.5t43.5 -71t15.5 -82.5q0 -60 -24 -110t-65 -86t-97 -56.5t-119 -22.5l-33 -185h-80zM377 430h-10q-44 0 -81 -15.5t-64 -42.5
t-42 -63t-15 -76q0 -63 39.5 -108.5t108.5 -54.5zM403 70q43 0 80 15.5t64 42.5t42.5 63t15.5 76q0 63 -39.5 108.5t-108.5 54.5l-64 -360h10z" />
    <glyph glyph-name="afii10087" unicode="&#x445;" horiz-adv-x="495" 
d="M205 255l-102 245h85l84 -205h45l156 205h95l-188 -245l105 -255h-86l-86 220h-45l-164 -220h-94z" />
    <glyph glyph-name="afii10088" unicode="&#x446;" horiz-adv-x="575" 
d="M480 0h-410l88 500h80l-75 -425h260l75 425h80l-75 -425h70l-33 -190h-80z" />
    <glyph glyph-name="afii10089" unicode="&#x447;" horiz-adv-x="536" 
d="M417 174q-15 -9 -34 -15q-17 -5 -39.5 -9.5t-50.5 -4.5q-102 0 -148 53t-31 141l28 161h80l-28 -162q-10 -55 17 -86.5t101 -31.5q26 0 47 4t37 9q18 5 34 13l44 254h80q-23 -128 -44.5 -250.5t-43.5 -249.5h-80z" />
    <glyph glyph-name="afii10090" unicode="&#x448;" horiz-adv-x="780" 
d="M158 500h80l-75 -425h200l75 425h80l-75 -425h200l75 425h80l-88 -500h-640z" />
    <glyph glyph-name="afii10091" unicode="&#x449;" horiz-adv-x="795" 
d="M700 0h-630l88 500h80l-75 -425h200l75 425h80l-75 -425h200l75 425h80l-75 -425h70l-33 -190h-80z" />
    <glyph glyph-name="afii10092" unicode="&#x44a;" horiz-adv-x="533" 
d="M188 425h-108l14 75h187l-30 -170h114q40 0 72.5 -12t55.5 -32.5t35 -48.5t12 -59q0 -38 -14.5 -70.5t-41 -56.5t-62.5 -37.5t-78 -13.5h-231zM353 75q46 0 75.5 27.5t29.5 72.5q0 34 -25 57t-72 23h-123l-32 -180h147z" />
    <glyph glyph-name="afii10093" unicode="&#x44b;" horiz-adv-x="675" 
d="M158 500h80l-29 -170h104q40 0 72.5 -12t55.5 -32.5t35 -48.5t12 -59q0 -38 -14.5 -70.5t-41 -56.5t-62.5 -37.5t-78 -13.5h-222zM301 75q46 0 75.5 27.5t29.5 72.5q0 34 -25 57t-72 23h-113l-32 -180h137zM614 500h80l-87 -500h-80z" />
    <glyph glyph-name="afii10094" unicode="&#x44c;" horiz-adv-x="505" 
d="M158 500h80l-30 -170h129q40 0 72.5 -12t55.5 -32.5t35 -48.5t12 -59q0 -38 -14.5 -70.5t-41 -56.5t-62.5 -37.5t-78 -13.5h-246zM325 75q46 0 75.5 27.5t29.5 72.5q0 34 -25 57t-72 23h-138l-32 -180h162z" />
    <glyph glyph-name="afii10095" unicode="&#x44d;" horiz-adv-x="565" 
d="M294 -10q-40 0 -71 8t-54.5 21t-40 29.5t-28.5 34.5q-27 41 -35 94h80q8 -31 27 -56q17 -21 47 -38.5t80 -17.5q31 0 61 11t55 30.5t42.5 47.5t24.5 63h-213l14 75h205q-8 66 -51.5 104.5t-106.5 38.5q-45 0 -75.5 -15.5t-50.5 -33.5q-24 -22 -39 -49h-82q22 48 56 86
q15 16 34 31.5t43 28t53 20t64 7.5q51 0 94.5 -17t74.5 -47.5t48.5 -73t17.5 -93.5q0 -63 -23 -116t-61 -91.5t-87.5 -60t-102.5 -21.5z" />
    <glyph glyph-name="afii10096" unicode="&#x44e;" horiz-adv-x="770" 
d="M501 -10q-53 0 -95 19t-71 50.5t-45 72t-16 83.5h-86l-38 -215h-80l88 500h80l-37 -210h80q11 49 36.5 89.5t61.5 69.5t79.5 45t90.5 16q49 0 90.5 -17.5t72 -48.5t47.5 -73.5t17 -91.5q0 -67 -24 -120.5t-63 -91t-88.5 -57.5t-99.5 -20zM508 65q36 0 70.5 15t60.5 42.5
t42 66t16 85.5q0 36 -11.5 65.5t-32 50.5t-49 33t-62.5 12q-36 0 -70.5 -15t-60.5 -42.5t-42 -66t-16 -85.5q0 -36 11.5 -65.5t32 -50.5t49 -33t62.5 -12z" />
    <glyph glyph-name="afii10097" unicode="&#x44f;" horiz-adv-x="537" 
d="M50 0q35 48 69.5 95t69.5 95q-8 3 -21 13t-26.5 26.5t-23 40.5t-9.5 54q0 37 15 69.5t42 56t63.5 37t79.5 13.5h247q-22 -128 -43.5 -250.5t-44.5 -249.5h-80l28 160h-158l-114 -160h-94zM430 235l33 190h-159q-25 0 -46.5 -8t-37 -22t-24 -33t-8.5 -40q0 -35 26 -61
t72 -26h144z" />
    <glyph glyph-name="afii10071" unicode="&#x451;" horiz-adv-x="590" 
d="M320 -10q-53 0 -96.5 17.5t-75 48.5t-48.5 73.5t-17 92.5q0 65 24 118t63 91t89 58.5t102 20.5q53 0 96.5 -18t74.5 -49t48 -73t17 -90q0 -8 -0.5 -17.5t-1.5 -17.5l-2 -20h-431q0 -36 12 -65.5t34 -50.5t52 -32.5t66 -11.5q45 0 77.5 14t53.5 31q25 19 40 45h83
q-23 -47 -60 -83q-32 -31 -81 -56.5t-119 -25.5zM516 295q-7 64 -49.5 102t-113.5 38q-32 0 -61 -10.5t-52.5 -29.5t-41 -44.5t-26.5 -55.5h344zM306 625q-22 0 -36.5 15t-14.5 36q0 24 18.5 41.5t41.5 17.5q22 0 36.5 -15t14.5 -36q0 -24 -18.5 -41.5t-41.5 -17.5zM485 625
q-22 0 -36.5 15t-14.5 36q0 24 18.5 41.5t41.5 17.5q22 0 36.5 -15t14.5 -36q0 -24 -18.5 -41.5t-41.5 -17.5z" />
    <glyph glyph-name="afii10099" unicode="&#x452;" horiz-adv-x="585" 
d="M280 -115h150l55 313q12 69 -19.5 113t-104.5 44q-62 0 -107 -40t-58 -112l-36 -203h-80l92 520h-65l13 75h65l18 105h80l-18 -105h125l-13 -75h-125l-29 -165q15 20 38 37q20 14 50.5 26t73.5 12q52 0 90 -17.5t61 -48.5t30.5 -73.5t-1.5 -92.5l-68 -388h-231z" />
    <glyph glyph-name="afii10100" unicode="&#x453;" horiz-adv-x="425" 
d="M158 500h345l-13 -75h-265l-75 -425h-80zM425 755h100l-141 -145h-70z" />
    <glyph glyph-name="afii10101" unicode="&#x454;" horiz-adv-x="568" 
d="M318 -10q-51 0 -94.5 17t-74.5 47.5t-48.5 73t-17.5 93.5q0 63 23 116t61 91.5t87.5 60t102.5 21.5q39 0 69.5 -7.5t54 -20.5t40 -29t28.5 -33q27 -40 36 -90h-81q-9 29 -28 52q-17 20 -46.5 36.5t-77.5 16.5q-30 0 -58.5 -10t-53 -29t-42.5 -45.5t-27 -60.5h211l-14 -75
h-206q2 -35 15.5 -62.5t35 -47t49 -30t59.5 -10.5q47 0 79 16.5t52 36.5q24 24 38 54h82q-21 -51 -56 -91q-15 -17 -34.5 -33.5t-44 -29.5t-54 -20.5t-65.5 -7.5z" />
    <glyph glyph-name="afii10102" unicode="&#x455;" horiz-adv-x="505" 
d="M291 -10q-40 0 -70.5 7t-54 18.5t-40 26.5t-28.5 30q-27 36 -35 83h85q8 -26 27 -45q17 -17 46 -31t77 -14q55 0 83.5 22t28.5 51q0 22 -21.5 36.5t-53.5 26.5t-70 23.5t-70 29t-53.5 42.5t-21.5 64q0 30 12 57.5t35.5 48t58 32.5t79.5 12q37 0 66.5 -6.5t51.5 -17
t37.5 -24.5t26.5 -28q26 -33 33 -76h-85q-7 21 -24 38q-14 14 -40 26.5t-69 12.5q-53 0 -77 -21t-24 -43q0 -23 21.5 -37t53.5 -26t69.5 -23.5t69.5 -28.5t53.5 -42.5t21.5 -64.5q0 -32 -13 -61t-38.5 -50.5t-62.5 -34.5t-85 -13z" />
    <glyph glyph-name="afii10103" unicode="&#x456;" horiz-adv-x="220" 
d="M158 500h80l-88 -500h-80zM216 595q-23 0 -37.5 15t-14.5 35q0 24 18 42t41 18t37.5 -15t14.5 -35q0 -24 -18 -42t-41 -18z" />
    <glyph glyph-name="afii10104" unicode="&#x457;" horiz-adv-x="220" 
d="M70 0q23 127 44.5 249.5t43.5 250.5h80q-23 -128 -44.5 -250.5t-43.5 -249.5h-80v0zM131 625q-22 0 -36.5 15t-14.5 36q0 24 18.5 41.5t41.5 17.5q22 0 36.5 -15t14.5 -36q0 -24 -18.5 -41.5t-41.5 -17.5zM310 625q-22 0 -36.5 15t-14.5 36q0 24 18.5 41.5t41.5 17.5
q22 0 36.5 -15t14.5 -36q0 -24 -18.5 -41.5t-41.5 -17.5z" />
    <glyph glyph-name="afii10105" unicode="&#x458;" horiz-adv-x="220" 
d="M-95 -115h145l108 615h80l-121 -690h-225zM217 595q-23 0 -37.5 15t-14.5 35q0 24 18 42t41 18t37.5 -15t14.5 -35q0 -24 -18 -42t-41 -18z" />
    <glyph glyph-name="afii10106" unicode="&#x459;" horiz-adv-x="790" 
d="M238 500h295l-30 -170h119q40 0 72.5 -12t55.5 -32.5t35 -48.5t12 -59q0 -38 -14.5 -70.5t-41 -56.5t-62.5 -37.5t-78 -13.5h-236l75 425h-155l-190 -425h-85zM610 75q46 0 75.5 27.5t29.5 72.5q0 34 -25 57t-72 23h-128l-32 -180h152z" />
    <glyph glyph-name="afii10107" unicode="&#x45a;" horiz-adv-x="845" 
d="M158 500h80l-33 -190h269l34 190h80l-33 -190h119q40 0 73 -11t56.5 -30.5t36 -45t12.5 -55.5q0 -36 -14.5 -66.5t-41 -53t-62.5 -35.5t-78 -13h-236l41 235h-270l-41 -235h-80zM665 75q46 0 75.5 24.5t29.5 65.5q0 30 -26.5 50t-73.5 20h-128l-29 -160h152z" />
    <glyph glyph-name="afii10108" unicode="&#x45b;" horiz-adv-x="585" 
d="M172 520h-65l13 75h65l18 105h80l-18 -105h125l-13 -75h-125l-29 -165q15 20 38 37q20 14 50.5 26t73.5 12q52 0 90 -17.5t61 -48.5t30.5 -73.5t-1.5 -92.5l-35 -198h-80l35 198q12 69 -19.5 113t-104.5 44q-62 0 -107 -40t-58 -112l-36 -203h-80z" />
    <glyph glyph-name="afii10109" unicode="&#x45c;" horiz-adv-x="520" 
d="M158 500h80l-35 -200h95l195 200h100l-226 -235l153 -265h-95l-130 225h-105l-40 -225h-80zM456 755h100l-141 -145h-70z" />
    <glyph glyph-name="afii10110" unicode="&#x45e;" horiz-adv-x="510" 
d="M263 0h-113l-47 500h83l35 -425h75l205 425h87l-332 -690h-87zM356 620q-70 0 -108 34t-38 82v9h75v-6q0 -24 19.5 -39t55.5 -15q29 0 50 14t25 46h75q-6 -57 -47.5 -91t-106.5 -34z" />
    <glyph glyph-name="afii10193" unicode="&#x45f;" horiz-adv-x="575" 
d="M250 0h-180l88 500h80l-75 -425h275l75 425h80l-88 -500h-175l-20 -115h-80z" />
    <glyph glyph-name="afii10050" unicode="&#x490;" horiz-adv-x="545" 
d="M203 700h355l18 100h90l-33 -185h-355l-108 -615h-90z" />
    <glyph glyph-name="afii10098" unicode="&#x491;" horiz-adv-x="425" 
d="M158 500h265l16 90h80l-29 -165h-265l-75 -425h-80z" />
    <glyph glyph-name="uni04D8" unicode="&#x4d8;" horiz-adv-x="809" 
d="M433 -20q-79 0 -141 27t-104.5 72.5t-65 105.5t-22.5 125q0 15 2 36t6 44h625q0 54 -19.5 99.5t-54 77.5t-81 50t-101.5 18q-76 0 -146.5 -40t-114.5 -115h-88q24 52 59 96.5t79 76t98.5 49.5t117.5 18q77 0 140 -24.5t107.5 -68t69 -104t24.5 -131.5q0 -90 -32 -166
t-86 -130.5t-124.5 -85t-147.5 -30.5zM430 65q54 0 102 17t87 49t66 77.5t39 101.5h-533q0 -62 19.5 -108t52.5 -76.5t76 -45.5t91 -15z" />
    <glyph glyph-name="uni04D9" unicode="&#x4d9;" horiz-adv-x="582" 
d="M309 -10q-47 0 -88.5 15.5t-72 44.5t-48 70.5t-17.5 94.5q0 13 1 25.5t3 22.5l4 22h417q-2 37 -16.5 65.5t-37 47t-51 28t-56.5 9.5q-56 0 -94 -24.5t-61 -55.5h-80q38 79 101 117t140 38q52 0 95.5 -17.5t74.5 -48.5t48 -73t17 -91q0 -63 -22.5 -116t-61 -92t-89 -60.5
t-106.5 -21.5zM313 65q34 0 65 11.5t56 31.5t43 47.5t25 59.5h-340q1 -72 42 -111t109 -39z" />
    <glyph glyph-name="Wgrave" unicode="&#x1e80;" horiz-adv-x="965" 
d="M145 700h93l22 -615h25l238 615h145l22 -615h25l238 615h97l-278 -700h-161l-17 615h-25l-233 -615h-159zM480 935h100l59 -145h-70z" />
    <glyph glyph-name="wgrave" unicode="&#x1e81;" horiz-adv-x="775" 
d="M113 500h82l15 -425h25l160 425h145l10 -425h25l165 425h88l-198 -500h-157l-10 425h-15l-160 -425h-153zM355 755h100l59 -145h-70z" />
    <glyph glyph-name="Wacute" unicode="&#x1e82;" horiz-adv-x="965" 
d="M145 700h93l22 -615h25l238 615h145l22 -615h25l238 615h97l-278 -700h-161l-17 615h-25l-233 -615h-159zM691 935h100l-141 -145h-70z" />
    <glyph glyph-name="wacute" unicode="&#x1e83;" horiz-adv-x="775" 
d="M113 500h82l15 -425h25l160 425h145l10 -425h25l165 425h88l-198 -500h-157l-10 425h-15l-160 -425h-153zM556 755h100l-141 -145h-70z" />
    <glyph glyph-name="Wdieresis" unicode="&#x1e84;" horiz-adv-x="965" 
d="M145 700h93l22 -615h25l238 615h145l22 -615h25l238 615h97l-278 -700h-161l-17 615h-25l-233 -615h-159zM526 805q-22 0 -36.5 15t-14.5 36q0 24 18.5 41.5t41.5 17.5q22 0 36.5 -15t14.5 -36q0 -24 -18.5 -41.5t-41.5 -17.5zM705 805q-22 0 -36.5 15t-14.5 36
q0 24 18.5 41.5t41.5 17.5q22 0 36.5 -15t14.5 -36q0 -24 -18.5 -41.5t-41.5 -17.5z" />
    <glyph glyph-name="wdieresis" unicode="&#x1e85;" horiz-adv-x="775" 
d="M113 500h82l15 -425h25l160 425h145l10 -425h25l165 425h88l-198 -500h-157l-10 425h-15l-160 -425h-153zM401 625q-22 0 -36.5 15t-14.5 36q0 24 18.5 41.5t41.5 17.5q22 0 36.5 -15t14.5 -36q0 -24 -18.5 -41.5t-41.5 -17.5zM580 625q-22 0 -36.5 15t-14.5 36
q0 24 18.5 41.5t41.5 17.5q22 0 36.5 -15t14.5 -36q0 -24 -18.5 -41.5t-41.5 -17.5z" />
    <glyph glyph-name="uni1E9E" unicode="&#x1e9e;" horiz-adv-x="710" 
d="M160 482q17 99 84.5 158.5t186.5 59.5h301l-15 -86l-192 -177q0 -2 -0.5 -3.5t-0.5 -3.5q25 -5 56 -17t58.5 -34t46 -55.5t18.5 -82.5q0 -53 -18 -97t-52.5 -76t-84.5 -50t-114 -18h-111l15 85h95q42 0 75 11t55.5 30t34.5 44.5t12 54.5q0 24 -10.5 46.5t-31.5 40t-53 28
t-75 10.5h-41l16 85l194 180h-190q-78 0 -118 -35.5t-53 -109.5q-21 -118 -41.5 -235.5t-41.5 -234.5h-90z" />
    <glyph glyph-name="Ygrave" unicode="&#x1ef2;" horiz-adv-x="640" 
d="M305 255l-192 445h99l145 -340h10l265 340h111l-348 -445l-45 -255h-90zM310 935h100l59 -145h-70z" />
    <glyph glyph-name="ygrave" unicode="&#x1ef3;" horiz-adv-x="510" 
d="M263 0h-113l-47 500h83l35 -425h75l205 425h87l-332 -690h-87zM225 755h100l59 -145h-70z" />
    <glyph glyph-name="endash" unicode="&#x2013;" horiz-adv-x="680" 
d="M113 305h560l-13 -75h-560z" />
    <glyph glyph-name="emdash" unicode="&#x2014;" horiz-adv-x="875" 
d="M113 305h755l-13 -75h-755z" />
    <glyph glyph-name="quoteleft" unicode="&#x2018;" horiz-adv-x="210" 
d="M181 486q-23 0 -37.5 14.5t-14.5 46.5q0 43 12 73.5t31.5 50.5t45 29.5t52.5 9.5l-6 -40q-68 -1 -74 -74q-1 0 4.5 1.5t15.5 1.5q16 0 26.5 -12t10.5 -31q0 -32 -20 -51t-46 -19z" />
    <glyph glyph-name="quoteright" unicode="&#x2019;" horiz-adv-x="210" 
d="M135 526q68 1 74 74q1 0 -4.5 -1.5t-15.5 -1.5q-16 0 -26.5 12t-10.5 31q0 32 20 51t46 19q23 0 37.5 -14.5t14.5 -46.5q0 -43 -12 -73.5t-31.5 -50.5t-45 -29.5t-52.5 -9.5z" />
    <glyph glyph-name="quotesinglbase" unicode="&#x201a;" horiz-adv-x="210" 
d="M48 -79q68 1 74 74q1 0 -4.5 -1.5t-15.5 -1.5q-16 0 -26.5 12t-10.5 31q0 32 20 51t46 19q23 0 37.5 -14.5t14.5 -46.5q0 -43 -12 -73.5t-31.5 -50.5t-45 -29.5t-52.5 -9.5z" />
    <glyph glyph-name="quotedblleft" unicode="&#x201c;" horiz-adv-x="370" 
d="M181 486q-23 0 -37.5 14.5t-14.5 46.5q0 43 12 73.5t31.5 50.5t45 29.5t52.5 9.5l-6 -40q-68 -1 -74 -74q-1 0 4.5 1.5t15.5 1.5q16 0 26.5 -12t10.5 -31q0 -32 -20 -51t-46 -19zM341 486q-23 0 -37.5 14.5t-14.5 46.5q0 43 12 73.5t31.5 50.5t45 29.5t52.5 9.5l-6 -40
q-68 -1 -74 -74q-1 0 4.5 1.5t15.5 1.5q16 0 26.5 -12t10.5 -31q0 -32 -20 -51t-46 -19z" />
    <glyph glyph-name="quotedblright" unicode="&#x201d;" horiz-adv-x="370" 
d="M135 526q68 1 74 74q1 0 -4.5 -1.5t-15.5 -1.5q-16 0 -26.5 12t-10.5 31q0 32 20 51t46 19q23 0 37.5 -14.5t14.5 -46.5q0 -43 -12 -73.5t-31.5 -50.5t-45 -29.5t-52.5 -9.5zM295 526q68 1 74 74q1 0 -4.5 -1.5t-15.5 -1.5q-16 0 -26.5 12t-10.5 31q0 32 20 51t46 19
q23 0 37.5 -14.5t14.5 -46.5q0 -43 -12 -73.5t-31.5 -50.5t-45 -29.5t-52.5 -9.5z" />
    <glyph glyph-name="quotedblbase" unicode="&#x201e;" horiz-adv-x="365" 
d="M48 -79q68 1 74 74q1 0 -4.5 -1.5t-15.5 -1.5q-16 0 -26.5 12t-10.5 31q0 32 20 51t46 19q23 0 37.5 -14.5t14.5 -46.5q0 -43 -12 -73.5t-31.5 -50.5t-45 -29.5t-52.5 -9.5zM203 -79q68 1 74 74q1 0 -4.5 -1.5t-15.5 -1.5q-16 0 -26.5 12t-10.5 31q0 32 20 51t46 19
q23 0 37.5 -14.5t14.5 -46.5q0 -43 -12 -73.5t-31.5 -50.5t-45 -29.5t-52.5 -9.5z" />
    <glyph glyph-name="dagger" unicode="&#x2020;" horiz-adv-x="455" 
d="M259 425h-140l14 80h140l34 195h85l-34 -195h140l-14 -80h-140l-75 -425h-85z" />
    <glyph glyph-name="daggerdbl" unicode="&#x2021;" horiz-adv-x="455" 
d="M212 155h-140l14 80h140l41 230h-140l14 80h140l27 155h85l-27 -155h140l-14 -80h-140l-41 -230h140l-14 -80h-140l-27 -155h-85z" />
    <glyph glyph-name="bullet" unicode="&#x2022;" horiz-adv-x="400" 
d="M248 200q-32 0 -52.5 21t-20.5 51q0 38 25.5 63t60.5 25q32 0 52.5 -21t20.5 -51q0 -38 -25.5 -63t-60.5 -25z" />
    <glyph glyph-name="ellipsis" unicode="&#x2026;" horiz-adv-x="685" 
d="M122 -15q-26 0 -41 14.5t-15 37.5q0 30 19 49t45 19t41 -15t15 -38q0 -29 -19 -48t-45 -19zM359 -15q-26 0 -41 14.5t-15 37.5q0 30 19 49t45 19t41 -15t15 -38q0 -29 -19 -48t-45 -19zM597 -15q-26 0 -41 14.5t-15 37.5q0 30 19 49t45 19t41 -15t15 -38q0 -29 -19 -48
t-45 -19z" />
    <glyph glyph-name="perthousand" unicode="&#x2030;" horiz-adv-x="1135" 
d="M673 700h85l-543 -700h-85zM572 -10q-32 0 -59.5 12t-47.5 32.5t-31.5 48.5t-11.5 60q0 36 15 68t40 56.5t58 38.5t68 14q32 0 59 -12t47 -32.5t31.5 -48t11.5 -59.5q0 -36 -15 -68.5t-40 -56.5t-57.5 -38.5t-67.5 -14.5zM578 57q21 0 39.5 8t32.5 23t22 35t8 44
q0 38 -23 62t-60 24q-21 0 -39.5 -8t-33 -22.5t-22.5 -35t-8 -44.5q0 -38 23 -62t61 -24zM945 -10q-32 0 -59.5 12t-47.5 32.5t-31.5 48.5t-11.5 60q0 36 15 68t40 56.5t58 38.5t68 14q32 0 59 -12t47 -32.5t31.5 -48t11.5 -59.5q0 -36 -15 -68.5t-40 -56.5t-57.5 -38.5
t-67.5 -14.5zM951 57q21 0 39.5 8t32.5 23t22 35t8 44q0 38 -23 62t-60 24q-21 0 -39.5 -8t-33 -22.5t-22.5 -35t-8 -44.5q0 -38 23 -62t61 -24zM285 380q-32 0 -59 12t-47 32.5t-31.5 48t-11.5 59.5q0 36 15 68.5t40 56.5t57.5 38.5t67.5 14.5q32 0 59.5 -12t47.5 -32.5
t31.5 -48.5t11.5 -60q0 -36 -15 -68t-40 -56.5t-58 -38.5t-68 -14zM291 447q21 0 39.5 8t33 22.5t22.5 35t8 44.5q0 38 -23 62t-61 24q-21 0 -39.5 -8t-32.5 -23t-22 -35t-8 -44q0 -38 23 -62t60 -24z" />
    <glyph glyph-name="guilsinglleft" unicode="&#x2039;" horiz-adv-x="365" 
d="M74 250l283 245l48 -59l-221 -191l149 -187l-62 -53z" />
    <glyph glyph-name="guilsinglright" unicode="&#x203a;" horiz-adv-x="365" 
d="M64 64l221 191l-149 187l62 53l197 -245l-283 -245z" />
    <glyph glyph-name="fraction" unicode="&#x2044;" horiz-adv-x="130" 
d="M353 700h80l-553 -700h-80z" />
    <glyph glyph-name="zerosuperior" unicode="&#x2070;" horiz-adv-x="370" 
d="M264 450q-30 0 -55 11t-44 31.5t-29.5 48.5t-10.5 62q0 48 15.5 86.5t40 65.5t56 41t64.5 14q30 0 55 -11t44 -31.5t29.5 -48.5t10.5 -62q0 -48 -15.5 -86.5t-40 -65.5t-56 -41t-64.5 -14zM270 516q17 0 34 8.5t30.5 26t22 45t8.5 65.5q0 43 -19.5 63t-50.5 20
q-17 0 -34 -8.5t-30.5 -26t-22 -45t-8.5 -65.5q0 -43 19.5 -63t50.5 -20z" />
    <glyph glyph-name="foursuperior" unicode="&#x2074;" horiz-adv-x="330" 
d="M274 530h-170l11 65l167 205h80l-167 -205h90l12 65h75l-12 -65h50l-11 -65h-50l-12 -70h-75z" />
    <glyph glyph-name="fivesuperior" unicode="&#x2075;" horiz-adv-x="350" 
d="M268 450q-50 0 -78.5 16t-42.5 36q-17 23 -22 53h75q4 -11 12 -20q7 -8 19.5 -14t34.5 -6q33 0 51 18.5t18 36.5q0 23 -17.5 37.5t-49.5 14.5q-15 0 -26.5 -3.5t-19.5 -8.5q-10 -5 -16 -12l-59 12l45 190h225l-10 -63h-165l-18 -72h2q7 5 17 9q8 4 20 7t28 3
q56 0 87.5 -30.5t31.5 -73.5q0 -28 -10.5 -51.5t-29.5 -41t-45 -27.5t-57 -10z" />
    <glyph glyph-name="sixsuperior" unicode="&#x2076;" horiz-adv-x="335" 
d="M252 450q-28 0 -53 7.5t-44 21.5t-30 35.5t-11 48.5q0 35 20 68.5t53 66.5l103 102h84l-90 -91l-34 -22l-1 -5q5 1 11 3q5 2 11.5 3t12.5 1q26 0 47.5 -9.5t36.5 -25t23.5 -36t8.5 -41.5q0 -26 -11 -49t-30.5 -40.5t-46.5 -27.5t-60 -10zM257 515q32 0 50 17t18 41
q0 20 -16.5 36t-51.5 16q-32 0 -50 -17t-18 -41q0 -20 16.5 -36t51.5 -16z" />
    <glyph glyph-name="sevensuperior" unicode="&#x2077;" horiz-adv-x="300" 
d="M337 735h-184q2 16 5.5 32t5.5 33h263l-12 -65q-49 -69 -97.5 -137.5t-98.5 -137.5h-78z" />
    <glyph glyph-name="eightsuperior" unicode="&#x2078;" horiz-adv-x="370" 
d="M279 450q-32 0 -60.5 7t-49.5 20.5t-33.5 31.5t-12.5 41q0 31 14 48.5t31 27.5q19 11 45 15l1 5q-13 6 -24 15q-9 8 -16 20t-7 31q0 39 33 68.5t96 29.5q72 0 105.5 -29t33.5 -65q0 -27 -11.5 -43t-25.5 -25q-16 -11 -36 -15l-1 -5q17 -5 30 -16q11 -9 21 -23.5t10 -35.5
q0 -19 -9 -37.5t-27 -33t-45 -23.5t-62 -9zM275 516q35 0 51 14.5t16 31.5q0 14 -16.5 29.5t-56.5 15.5q-35 0 -50.5 -15t-15.5 -29q0 -12 6.5 -21t17 -15t23.5 -8.5t25 -2.5zM302 664q25 0 39.5 12.5t14.5 28.5q0 21 -18.5 30t-36.5 9q-26 0 -40.5 -12t-14.5 -28t13.5 -28
t42.5 -12z" />
    <glyph glyph-name="ninesuperior" unicode="&#x2079;" horiz-adv-x="335" 
d="M255 551l34 22l1 5l-12 -4q-11 -3 -23 -3q-26 0 -47.5 9.5t-36.5 25t-23.5 36t-8.5 41.5q0 26 11 49t30.5 40.5t46.5 27.5t60 10q28 0 53 -7.5t44 -21.5t30 -35.5t11 -48.5q0 -35 -20 -68.5t-53 -66.5l-103 -102h-84zM282 635q32 0 50 17t18 41q0 20 -16.5 36t-51.5 16
q-32 0 -50 -17t-18 -41q0 -20 16.5 -36t51.5 -16z" />
    <glyph glyph-name="zeroinferior" unicode="&#x2080;" horiz-adv-x="370" 
d="M173 -110q-30 0 -55 11t-44 31.5t-29.5 48.5t-10.5 62q0 48 15.5 86.5t40 65.5t56 41t64.5 14q30 0 55 -11t44 -31.5t29.5 -48.5t10.5 -62q0 -48 -15.5 -86.5t-40 -65.5t-56 -41t-64.5 -14zM179 -44q17 0 34 8.5t30.5 26t22 45t8.5 65.5q0 43 -19.5 63t-50.5 20
q-17 0 -34 -8.5t-30.5 -26t-22 -45t-8.5 -65.5q0 -43 19.5 -63t50.5 -20z" />
    <glyph glyph-name="oneinferior" unicode="&#x2081;" horiz-adv-x="350" 
d="M44 -35h100l35 195l-99 -50l14 80l104 50h70l-49 -275h95l-11 -65h-270z" />
    <glyph glyph-name="twoinferior" unicode="&#x2082;" horiz-adv-x="355" 
d="M34 -35l89 50q78 44 113.5 69.5t35.5 54.5q0 19 -14.5 32t-45.5 13q-23 0 -37 -8.5t-23 -18.5q-11 -12 -16 -27h-74q10 34 30 60q17 23 46.5 41.5t75.5 18.5q65 0 99 -31.5t34 -74.5q0 -27 -10 -49t-33.5 -43t-61.5 -42t-93 -45h170l-11 -65h-285z" />
    <glyph glyph-name="threeinferior" unicode="&#x2083;" horiz-adv-x="350" 
d="M181 -110q-40 0 -66.5 11.5t-43 28.5t-23.5 36t-8 34h74l2.5 -7.5t10 -15.5t21.5 -15t37 -7q29 0 45 14.5t16 37.5q0 17 -15.5 30t-48.5 13h-67l10 60l102 65h-140l11 65h245l-10 -60l-108 -70q47 -4 72 -31t25 -66q0 -26 -10 -48.5t-28.5 -39t-44.5 -26t-58 -9.5z" />
    <glyph glyph-name="fourinferior" unicode="&#x2084;" horiz-adv-x="330" 
d="M191 -30h-170l11 65l167 205h80l-167 -205h90l12 65h75l-12 -65h50l-11 -65h-50l-12 -70h-75z" />
    <glyph glyph-name="fiveinferior" unicode="&#x2085;" horiz-adv-x="350" 
d="M185 -110q-50 0 -78.5 16t-42.5 36q-17 23 -22 53h75q4 -11 12 -20q7 -8 19.5 -14t34.5 -6q33 0 51 18.5t18 36.5q0 23 -17.5 37.5t-49.5 14.5q-15 0 -26.5 -3.5t-19.5 -8.5q-10 -5 -16 -12l-59 12l45 190h225l-10 -63h-165l-18 -72h2q7 5 17 9q8 4 20 7t28 3
q56 0 87.5 -30.5t31.5 -73.5q0 -28 -10.5 -51.5t-29.5 -41t-45 -27.5t-57 -10z" />
    <glyph glyph-name="sixinferior" unicode="&#x2086;" horiz-adv-x="335" 
d="M174 -110q-28 0 -53 7.5t-44 21.5t-30 35.5t-11 48.5q0 35 20 68.5t53 66.5l103 102h84l-90 -91l-34 -22l-1 -5q5 1 11 3q5 2 11.5 3t12.5 1q26 0 47.5 -9.5t36.5 -25t23.5 -36t8.5 -41.5q0 -26 -11 -49t-30.5 -40.5t-46.5 -27.5t-60 -10zM179 -45q32 0 50 17t18 41
q0 20 -16.5 36t-51.5 16q-32 0 -50 -17t-18 -41q0 -20 16.5 -36t51.5 -16z" />
    <glyph glyph-name="seveninferior" unicode="&#x2087;" horiz-adv-x="300" 
d="M239 175h-184q2 16 5.5 32t5.5 33h263l-12 -65q-49 -69 -97.5 -137.5t-98.5 -137.5h-78z" />
    <glyph glyph-name="eightinferior" unicode="&#x2088;" horiz-adv-x="370" 
d="M201 -110q-32 0 -60.5 7t-49.5 20.5t-33.5 31.5t-12.5 41q0 31 14 48.5t31 27.5q19 11 45 15l1 5q-13 6 -24 15q-9 8 -16 20t-7 31q0 39 33 68.5t96 29.5q72 0 105.5 -29t33.5 -65q0 -27 -11.5 -43t-25.5 -25q-16 -11 -36 -15l-1 -5q17 -5 30 -16q11 -9 21 -23.5
t10 -35.5q0 -19 -9 -37.5t-27 -33t-45 -23.5t-62 -9zM197 -44q35 0 51 14.5t16 31.5q0 14 -16.5 29.5t-56.5 15.5q-35 0 -50.5 -15t-15.5 -29q0 -12 6.5 -21t17 -15t23.5 -8.5t25 -2.5zM224 104q25 0 39.5 12.5t14.5 28.5q0 21 -18.5 30t-36.5 9q-26 0 -40.5 -12t-14.5 -28
t13.5 -28t42.5 -12z" />
    <glyph glyph-name="nineinferior" unicode="&#x2089;" horiz-adv-x="335" 
d="M167 -9l34 22l1 5l-12 -4q-11 -3 -23 -3q-26 0 -47.5 9.5t-36.5 25t-23.5 36t-8.5 41.5q0 26 11 49t30.5 40.5t46.5 27.5t60 10q28 0 53 -7.5t44 -21.5t30 -35.5t11 -48.5q0 -35 -20 -68.5t-53 -66.5l-103 -102h-84zM194 75q32 0 50 17t18 41q0 20 -16.5 36t-51.5 16
q-32 0 -50 -17t-18 -41q0 -20 16.5 -36t51.5 -16z" />
    <glyph glyph-name="uni20A9" unicode="&#x20a9;" horiz-adv-x="1005" 
d="M194 230h-134l14 80h116l-4 90h-96l14 80h78l-9 220h90l7 -220h192l86 220h145l7 -220h192l86 220h100l-93 -220h84l-14 -80h-97l-36 -90h117l-14 -80h-134l-91 -230h-160l-7 230h-182l-86 -230h-160zM309 85l56 145h-86l5 -145h25zM396 310l35 90h-158l3 -90h120z
M631 310l-3 90h-112l-34 -90h149zM739 85l56 145h-86l5 -145h25zM626 480l-3 135h-25l-52 -135h80zM826 310l35 90h-158l3 -90h120z" />
    <glyph glyph-name="Euro" unicode="&#x20ac;" horiz-adv-x="845" 
d="M485 -20q-66 0 -122 18.5t-98.5 52t-71 80.5t-40.5 104h-88l14 75h66v4q0 41 7 76h-60l13 75h68q22 57 59 103.5t85 80.5t105.5 52.5t119.5 18.5q80 0 138 -23t97 -59.5t61 -82t31 -90.5h-90l-4 12.5t-13.5 31.5t-27 41t-45 41t-65.5 31.5t-90 12.5q-87 0 -158 -45.5
t-109 -124.5h268l-12 -75h-280q-4 -19 -6 -37t-2 -38v-5h273l-13 -75h-249q23 -78 87.5 -124t158.5 -46q36 0 66.5 7.5t56 20.5t46.5 29.5t37 33.5q38 40 61 91h94q-32 -75 -83 -134q-22 -25 -50 -49t-63.5 -42.5t-78 -30t-93.5 -11.5z" />
    <glyph glyph-name="uni20B4" unicode="&#x20b4;" horiz-adv-x="640" 
d="M342 -20q-63 0 -109.5 14.5t-78 38.5t-47 55t-15.5 64q0 21 4.5 37.5t9.5 27.5q6 13 14 23h-39l14 75h540l-14 -75h-399q-10 -9 -17 -20q-7 -10 -12 -24.5t-5 -32.5q0 -39 38 -68.5t120 -29.5q49 0 81.5 14.5t52.5 32.5q23 20 35 47h92q-19 -50 -54 -90q-15 -17 -35 -33
t-46 -28.5t-58.5 -20t-71.5 -7.5zM122 460h399q9 9 17 20q6 10 11.5 24t5.5 33q0 39 -38 68.5t-120 29.5q-50 0 -82 -15t-52 -32q-23 -21 -35 -47h-92q19 49 54 89q15 17 35 33t46 29t58.5 20.5t71.5 7.5q63 0 109.5 -14.5t78 -38.5t47 -55t15.5 -64q0 -21 -4.5 -37.5
t-9.5 -27.5q-6 -13 -14 -23h39l-14 -75h-540z" />
    <glyph glyph-name="uni20B8" unicode="&#x20b8;" horiz-adv-x="590" 
d="M330 455h-240l15 85h570l-15 -85h-240l-80 -455h-90zM133 700h570l-15 -85h-570z" />
    <glyph glyph-name="uni20B9" unicode="&#x20b9;" horiz-adv-x="630" 
d="M280 260h-185l14 85h236q61 0 100.5 25t53.5 70h-372l14 80h364q-8 43 -47 69t-109 26h-191l15 85h540l-15 -85h-137q32 -43 38 -95h82l-14 -80h-74q-18 -73 -74 -120.5t-139 -56.5l129 -263h-105z" />
    <glyph glyph-name="uni20BA" unicode="&#x20ba;" horiz-adv-x="570" 
d="M155 259l-85 -29l14 80l85 29l14 80l-85 -29l14 80l85 29l36 201h90l-30 -168l166 58l-15 -80l-165 -58l-14 -80l165 58l-14 -80l-165 -58l-37 -207h74q43 0 79.5 9t65 28.5t47 51t24.5 76.5h90q-9 -60 -29.5 -107t-57 -78.5t-91.5 -48t-134 -16.5h-172z" />
    <glyph glyph-name="uni20BC" unicode="&#x20bc;" horiz-adv-x="790" 
d="M58 79q19 114 56.5 190.5t88.5 124.5t112.5 72.5t127.5 33.5l17 100h90l-18 -108q48 -16 91.5 -41.5t76 -66t52 -97.5t19.5 -135q0 -30 -3 -63.5t-10 -71.5l-3 -17h-90l4 25q5 32 8 61.5t3 55.5q0 60 -13 104.5t-35.5 75.5t-52.5 50.5t-64 30.5l-70 -403h-90l72 410
q-50 -4 -95 -26.5t-82 -64.5t-64 -104t-40 -144l-11 -71h-90z" />
    <glyph glyph-name="uni20BD" unicode="&#x20bd;" horiz-adv-x="665" 
d="M126 95h-80l15 85h80l14 80h-80l15 85h80l63 355h240q55 0 99 -15.5t74.5 -42.5t47 -63.5t16.5 -78.5q0 -51 -19 -94.5t-53.5 -76t-83 -51t-107.5 -18.5h-202l-14 -80h250l-15 -85h-250l-16 -95h-90zM450 345q81 0 124.5 42t43.5 109q0 52 -39.5 85.5t-113.5 33.5h-156
l-49 -270h190z" />
    <glyph glyph-name="uni20BF" unicode="&#x20bf;" horiz-adv-x="700" 
d="M180 0h-100l123 700h100l19 110h90l-19 -110h105l19 110h90l-21 -119q31 -9 55.5 -24.5t41 -36.5t25 -46t8.5 -51q0 -37 -9.5 -63.5t-24 -46t-31 -31.5t-31 -19t-24 -9.5t-8.5 -2.5l-2 -5q28 -10 51 -28q19 -16 35 -43t16 -70q0 -45 -15.5 -83t-44 -66.5t-70.5 -45.5
t-94 -20l-19 -110h-90l20 110h-105l-20 -110h-90zM451 85q69 0 107 36t38 94q0 44 -34 74.5t-102 30.5h-234l-41 -235h266zM501 405q54 0 87 31.5t33 85.5q0 38 -28 65.5t-81 27.5h-234l-37 -210h260z" />
    <glyph glyph-name="afii61352" unicode="&#x2116;" horiz-adv-x="1065" 
d="M203 700h125l231 -590l104 590h90l-123 -700h-125l-231 590l-104 -590h-90zM785 310h280l-14 -80h-280zM955 390q-35 0 -63.5 11.5t-48.5 31t-31.5 46t-11.5 56.5q0 37 14.5 69t38.5 55.5t56 37t68 13.5q34 0 63 -11.5t49 -31t31.5 -46t11.5 -56.5q0 -37 -14.5 -69
t-38.5 -55.5t-56 -37t-68 -13.5zM961 465q19 0 36 7t30 19.5t20.5 30t7.5 38.5q0 32 -22 53.5t-58 21.5q-19 0 -36 -7t-30 -19.5t-20.5 -30t-7.5 -38.5q0 -32 22 -53.5t58 -21.5z" />
    <glyph glyph-name="trademark" unicode="&#x2122;" horiz-adv-x="770" 
d="M185 630h-110v70h295v-70h-110v-250h-75v250zM405 700h111l74 -170h15l74 170h111v-320h-75v235l-70 -160h-95l-70 160v-235h-75v320z" />
    <glyph glyph-name="arrowleft" unicode="&#x2190;" horiz-adv-x="900" 
d="M150 335v10l175 175h15v-150h520v-60h-520v-150h-15z" />
    <glyph glyph-name="arrowup" unicode="&#x2191;" horiz-adv-x="900" 
d="M465 515h-150v15l175 175h10l175 -175v-15h-150v-515h-60v515z" />
    <glyph glyph-name="arrowright" unicode="&#x2192;" horiz-adv-x="900" 
d="M690 310h-520v60h520v150h15l175 -175v-10l-175 -175h-15v150z" />
    <glyph glyph-name="arrowdown" unicode="&#x2193;" horiz-adv-x="900" 
d="M315 170v15h150v515h60v-515h150v-15l-175 -175h-10z" />
    <glyph glyph-name="uni2196" unicode="&#x2196;" horiz-adv-x="900" 
d="M375 465l-105 -105h-15v255l10 10h255v-15l-105 -105l380 -380l-40 -40z" />
    <glyph glyph-name="uni2197" unicode="&#x2197;" horiz-adv-x="900" 
d="M225 125l380 380l-105 105v15h255l10 -10v-255h-15l-105 105l-380 -380z" />
    <glyph glyph-name="uni2198" unicode="&#x2198;" horiz-adv-x="900" 
d="M500 100l105 105l-380 380l40 40l380 -380l105 105h15v-255l-10 -10h-255v15z" />
    <glyph glyph-name="uni2199" unicode="&#x2199;" horiz-adv-x="900" 
d="M255 95v255h15l105 -105l380 380l40 -40l-380 -380l105 -105v-15h-255z" />
    <glyph glyph-name="minus" unicode="&#x2212;" horiz-adv-x="510" 
d="M110 315h390v-80h-390v80z" />
    <glyph glyph-name="approxequal" unicode="&#x2248;" horiz-adv-x="510" 
d="M395 120q-32 0 -54.5 10t-40.5 22.5t-33 22.5t-32 10q-19 0 -32 -13t-13 -32v-15h-80v15q0 115 115 115q32 0 54.5 -10t40.5 -22.5t33 -22.5t32 -10q19 0 32 13t13 32v15h80v-15q0 -115 -115 -115zM395 285q-32 0 -54.5 10t-40.5 22.5t-33 22.5t-32 10q-19 0 -32 -13
t-13 -32v-15h-80v15q0 115 115 115q32 0 54.5 -10t40.5 -22.5t33 -22.5t32 -10q19 0 32 13t13 32v15h80v-15q0 -115 -115 -115z" />
    <glyph glyph-name="notequal" unicode="&#x2260;" horiz-adv-x="510" 
d="M195 135h-75v75h114l57 110h-171v75h210l70 135h75l-70 -135h85v-75h-124l-57 -110h181v-75h-220l-70 -135h-75z" />
    <glyph glyph-name="lessequal" unicode="&#x2264;" horiz-adv-x="510" 
d="M115 150v75l390 -165v-75zM115 280v90l390 165v-80l-305 -125v-10l305 -125v-80z" />
    <glyph glyph-name="greaterequal" unicode="&#x2265;" horiz-adv-x="510" 
d="M110 60l390 165v-75l-390 -165v75zM110 195l305 125v10l-305 125v80l390 -165v-90l-390 -165v80z" />
    <glyph glyph-name="A_A" unicode="&#xe000;" horiz-adv-x="1220" 
d="M328 700h275l43 -525l227 525h275l57 -700h-88l-19 205h-345l-91 -205h-90l-19 205h-345l-91 -205h-92zM548 290l-28 325h-135l-142 -325h305zM1093 290l-28 325h-135l-142 -325h305z" />
    <glyph glyph-name="A_R" unicode="&#xe001;" horiz-adv-x="1055" 
d="M328 700h519q56 0 100.5 -16t75 -43t47 -63t16.5 -77q0 -48 -16 -89.5t-44.5 -72.5t-69.5 -50.5t-90 -25.5l129 -263h-105l-124 260h-185l-46 -260h-90l45 260h-262l-111 -260h-92zM506 345l47 270h-168l-117 -270h238zM831 345q78 0 120.5 41t42.5 108q0 54 -39 87.5
t-120 33.5h-192l-48 -270h236z" />
    <glyph glyph-name="A_T" unicode="&#xe002;" horiz-adv-x="740" 
d="M291 615h-93l15 85h570l-15 -85h-93l50 -615h-90l-19 205h-160l-36 -205h-90l36 205h-160l-91 -205h-90zM381 290l57 325h-55l-142 -325h140zM611 290l-28 325h-55l-57 -325h140z" />
    <glyph glyph-name="A_V" unicode="&#xe003;" horiz-adv-x="1046" 
d="M328 700h275l52 -615h120l268 615h98l-308 -700h-261l-19 205h-345l-91 -205h-92zM548 290l-28 325h-135l-142 -325h305z" />
    <glyph glyph-name="C_E" unicode="&#xe004;" horiz-adv-x="800" 
d="M440 -20q-77 0 -139.5 25t-107 69t-69 105.5t-24.5 134.5q0 86 31.5 160.5t86 129t126.5 85.5t153 31q80 0 138 -23t97 -59.5t61 -82t31 -90.5h-90l-4 12.5t-13.5 31.5t-27 41t-45 41t-65.5 31.5t-90 12.5q-61 0 -115.5 -23.5t-95 -65.5t-64.5 -101t-24 -130
q0 -55 18.5 -101t52 -79t81 -51.5t105.5 -18.5q36 0 66.5 7.5t56 20.5t46.5 29.5t37 33.5q38 40 61 91h94q-32 -75 -83 -134q-22 -25 -50 -49t-63.5 -42.5t-78 -30t-93.5 -11.5zM377 525h255l-13 -75h-175l-10 -60h130l-13 -70h-130l-11 -64h175l-13 -76h-255z" />
    <glyph glyph-name="C_O" unicode="&#xe005;" horiz-adv-x="800" 
d="M440 -20q-77 0 -139.5 25t-107 69t-69 105.5t-24.5 134.5q0 86 31.5 160.5t86 129t126.5 85.5t153 31q80 0 138 -23t97 -59.5t61 -82t31 -90.5h-90l-4 12.5t-13.5 31.5t-27 41t-45 41t-65.5 31.5t-90 12.5q-61 0 -115.5 -23.5t-95 -65.5t-64.5 -101t-24 -130
q0 -55 18.5 -101t52 -79t81 -51.5t105.5 -18.5q36 0 66.5 7.5t56 20.5t46.5 29.5t37 33.5q38 40 61 91h94q-32 -75 -83 -134q-22 -25 -50 -49t-63.5 -42.5t-78 -30t-93.5 -11.5zM457 181q-35 0 -63.5 12t-49 33t-32 49t-11.5 60q0 39 15.5 73.5t41 59.5t59 39.5t70.5 14.5
q34 0 63 -12t49.5 -33t32 -49t11.5 -60q0 -39 -15.5 -73.5t-41 -59.5t-59 -39.5t-70.5 -14.5zM464 257q19 0 36.5 7.5t31.5 21.5t22.5 33.5t8.5 42.5q0 36 -22.5 60t-60.5 24q-19 0 -36.5 -7.5t-31.5 -21.5t-22.5 -33.5t-8.5 -42.5q0 -36 22.5 -60t59.5 -24h1z" />
    <glyph glyph-name="D_E" unicode="&#xe006;" horiz-adv-x="1070" 
d="M203 700h220h732q-3 -22 -7.5 -43t-7.5 -42h-510v-3q15 -11 32.5 -29.5t34 -45.5t28 -62.5t14.5 -79.5h288l-15 -85h-279q-10 -46 -28 -82.5t-39.5 -64t-43 -46.5t-38.5 -30q0 -1 -0.5 -1t-0.5 -1h464l-15 -85h-952zM355 85q63 0 116.5 22.5t92.5 62t61 93.5t22 117
q0 49 -18 92t-50.5 75t-78 50t-100.5 18h-122l-93 -530h170z" />
    <glyph glyph-name="E_A" unicode="&#xe007;" horiz-adv-x="1120" 
d="M203 700h430l-15 -85h-340l-38 -220h402l131 305h275l57 -700h-88l-26 310h-294l-135 -310h-482zM507 85l98 225h-380l-40 -225h322zM982 395l-17 220h-135l-93 -220h245z" />
    <glyph glyph-name="J_A" unicode="&#xe008;" horiz-adv-x="906" 
d="M256 -25q-39 0 -69.5 7.5t-54 20.5t-40.5 29t-29 33q-27 40 -36 91l92 20q4 -32 21 -58q14 -22 41.5 -40t76.5 -18q60 0 100.5 37t53.5 111l87 492h335l57 -700h-90l-19 205h-280l-4 -18q-10 -51 -32 -90.5t-53 -66.5t-71 -41t-86 -14zM777 290l-28 325h-175l-57 -325
h260z" />
    <glyph glyph-name="K_K" unicode="&#xe009;" horiz-adv-x="885" 
d="M203 700h90l-53 -305h128l273 305h112l-305 -340l192 -360h-105l-165 310h-145l-55 -310h-90zM580 363l302 337h111l-305 -340l192 -360h-105z" />
    <glyph glyph-name="K_O" unicode="&#xe00a;" horiz-adv-x="1110" 
d="M203 700h90l-53 -305h128l273 305h112l-305 -340l192 -360h-105l-165 310h-145l-55 -310h-90zM856 90q-53 0 -96.5 18t-75.5 50t-49.5 75.5t-17.5 94.5q0 63 23.5 116.5t63.5 92.5t91 61t107 22q52 0 96 -18t76 -50t49.5 -75.5t17.5 -94.5q0 -63 -23.5 -116.5
t-63.5 -92.5t-91.5 -61t-106.5 -22zM864 175q36 0 70 15t60 41.5t41.5 63.5t15.5 81q0 35 -11.5 64t-32.5 50t-49.5 33t-62.5 12q-36 0 -70 -15t-60.5 -41.5t-42 -63.5t-15.5 -81q0 -35 11.5 -64t32.5 -50t50 -33t63 -12z" />
    <glyph glyph-name="L_A" unicode="&#xe00b;" horiz-adv-x="935" 
d="M203 700h90l-108 -615h137l266 615h275l57 -700h-87l-22 265h-317l-79 -180h135l-15 -85h-455zM804 350l-23 265h-135l-115 -265h273z" />
    <glyph glyph-name="L_F" unicode="&#xe00c;" horiz-adv-x="635" 
d="M203 700h90l-108 -615h365l-15 -85h-455zM408 700h320l-15 -85h-230l-25 -145h185l-15 -85h-185l-38 -215h-90z" />
    <glyph glyph-name="L_I" unicode="&#xe00d;" horiz-adv-x="610" 
d="M203 700h90l-108 -615h365l-15 -85h-455zM568 700h90l-91 -520h-90z" />
    <glyph glyph-name="L_L" unicode="&#xe00e;" horiz-adv-x="640" 
d="M203 700h90l-108 -615h365l-15 -85h-455zM403 700h90l-76 -435h260l-15 -85h-350z" />
    <glyph glyph-name="L_O" unicode="&#xe00f;" horiz-adv-x="810" 
d="M203 700h90l-108 -615h365l-15 -85h-455zM568 190q-53 0 -96.5 18.5t-75 50.5t-49 75t-17.5 91q0 60 23.5 112t62.5 90.5t90 60.5t107 22q52 0 96 -18.5t75.5 -50.5t49 -75t17.5 -91q0 -60 -23.5 -112t-62.5 -90.5t-90.5 -60.5t-106.5 -22zM575 275q36 0 69 14.5t58.5 40
t41 60.5t15.5 76q0 34 -11.5 63t-32 50.5t-49 33.5t-62.5 12q-36 0 -69 -14.5t-58.5 -40t-41 -60.5t-15.5 -76q0 -34 11.5 -63t32 -50.5t49 -33.5t62.5 -12z" />
    <glyph glyph-name="N_A" unicode="&#xe010;" horiz-adv-x="1080" 
d="M203 700h125l246 -590l104 590h330l57 -700h-88l-19 205h-277l-36 -205h-125l-246 590l-104 -590h-90zM953 290l-28 325h-172l-57 -325h257z" />
    <glyph glyph-name="O_C" unicode="&#xe011;" horiz-adv-x="1179" 
d="M439 -20q-77 0 -139.5 25t-107 69.5t-68.5 105.5t-24 134q0 86 31.5 160.5t85 129t125.5 85.5t153 31q55 0 102.5 -13t87.5 -37q43 24 91 37t100 13q80 0 138 -23t97 -59.5t61 -82t31 -90.5h-90l-4 12.5t-13.5 31.5t-27 41t-45 41t-65.5 31.5t-90 12.5q-60 0 -114 -23
q38 -44 59 -101.5t21 -124.5q0 -91 -34 -166.5t-91 -130.5q14 -7 32 -12q15 -5 37 -8.5t48 -3.5q36 0 66.5 7.5t56 20.5t46.5 29.5t37 33.5q38 40 61 91h94q-32 -75 -83 -134q-22 -25 -50 -49t-63.5 -42.5t-78 -30t-92.5 -11.5q-56 0 -103.5 13t-86.5 37q-43 -24 -91 -37
t-100 -13zM447 65q59 0 113 23q-38 44 -58.5 101t-20.5 125q0 90 33.5 166t91.5 131q-53 24 -119 24q-62 0 -116 -24t-94 -66.5t-63.5 -101.5t-23.5 -128q0 -55 18 -101t51.5 -79t81 -51.5t106.5 -18.5zM638 137q49 44 77.5 107t28.5 141q0 54 -17.5 99t-49.5 78
q-49 -43 -77.5 -106t-28.5 -141q0 -54 17.5 -99.5t49.5 -78.5z" />
    <glyph glyph-name="O_G" unicode="&#xe012;" horiz-adv-x="1240" 
d="M439 -20q-77 0 -139.5 25t-107 69.5t-68.5 105.5t-24 134q0 86 31.5 160.5t85 129t125.5 85.5t153 31q55 0 102.5 -13t87.5 -37q43 24 91 37t100 13q78 0 135.5 -22t96.5 -58t62 -80.5t32 -89.5h-90q-14 46 -46 82q-14 15 -32 30t-42.5 27t-55 19t-68.5 7q-60 0 -114 -23
q38 -44 59 -101.5t21 -124.5q0 -91 -34 -166.5t-91 -130.5q14 -7 32 -12q15 -5 37 -8.5t48 -3.5q59 0 108 22.5t85 55t57.5 70t24.5 67.5h-130l15 85h310l-15 -85h-83q-3 -17 -15 -46t-33 -62t-52 -67.5t-72 -62t-92.5 -45t-113.5 -17.5q-56 0 -103.5 13t-86.5 37
q-43 -24 -91 -37t-100 -13zM447 65q59 0 113 23q-38 44 -58.5 101t-20.5 125q0 90 33.5 166t91.5 131q-53 24 -119 24q-62 0 -116 -24t-94 -66.5t-63.5 -101.5t-23.5 -128q0 -55 18 -101t51.5 -79t81 -51.5t106.5 -18.5zM638 137q49 44 77.5 107t28.5 141q0 54 -17.5 99
t-49.5 78q-49 -43 -77.5 -106t-28.5 -141q0 -54 17.5 -99.5t49.5 -78.5z" />
    <glyph glyph-name="O_L_I" unicode="&#xe013;" horiz-adv-x="1395" 
d="M985 700h90l-108 -615h365l-15 -85h-455zM1350 700h90l-91 -520h-90zM439 -20q-77 0 -139.5 25t-107 69.5t-68.5 105.5t-24 134q0 86 31.5 160.5t85 129t125.5 85.5t153 31q77 0 139.5 -25t107 -69.5t68.5 -105.5t24 -134q0 -86 -31.5 -160.5t-85 -129t-125.5 -85.5
t-153 -31zM447 65q61 0 115.5 24t94.5 66.5t63.5 101.5t23.5 128q0 55 -18 101t-51.5 79t-81 51.5t-106.5 18.5q-62 0 -116 -24t-94 -66.5t-63.5 -101.5t-23.5 -128q0 -55 18 -101t51.5 -79t81 -51.5t106.5 -18.5z" />
    <glyph glyph-name="O_O" unicode="&#xe014;" horiz-adv-x="1200" 
d="M439 -20q-77 0 -139.5 25t-107 69.5t-68.5 105.5t-24 134q0 86 31.5 160.5t85 129t125.5 85.5t153 31q55 0 102.5 -13t87.5 -37q43 24 91 37t100 13q77 0 139.5 -25t107 -69.5t68.5 -105.5t24 -134q0 -86 -31.5 -160.5t-85 -129t-125.5 -85.5t-153 -31q-56 0 -103.5 13
t-86.5 37q-43 -24 -91 -37t-100 -13zM447 65q59 0 113 23q-38 44 -58.5 101t-20.5 125q0 90 33.5 166t91.5 131q-53 24 -119 24q-62 0 -116 -24t-94 -66.5t-63.5 -101.5t-23.5 -128q0 -55 18 -101t51.5 -79t81 -51.5t106.5 -18.5zM638 137q49 44 77.5 107t28.5 141
q0 54 -17.5 99t-49.5 78q-49 -43 -77.5 -106t-28.5 -141q0 -54 17.5 -99.5t49.5 -78.5zM828 65q61 0 115.5 24t94.5 66.5t63.5 101.5t23.5 128q0 55 -18 101t-51.5 79t-81 51.5t-106.5 18.5q-60 0 -114 -23q38 -44 59 -101.5t21 -124.5q0 -91 -34 -166.5t-91 -130.5
q26 -11 55.5 -17.5t63.5 -6.5z" />
    <glyph glyph-name="P_H" unicode="&#xe015;" horiz-adv-x="1180" 
d="M203 700h277q56 0 100.5 -17t75.5 -46t47.5 -66.5t16.5 -79.5q0 -5 -0.5 -10t-1.5 -15.5t-4 -27t-7 -43.5h375l53 305h90l-123 -700h-90l55 310h-375l-55 -310h-90l49 276q-31 -17 -67 -26.5t-78 -9.5h-239l-42 -240h-90zM458 325q80 0 125 44.5t45 116.5
q0 27 -10.5 50.5t-30 41t-48 27.5t-64.5 10h-197l-51 -290h231z" />
    <glyph glyph-name="R_J" unicode="&#xe016;" horiz-adv-x="995" 
d="M695 -25q-56 0 -94 12t-67.5 40t-55.5 74t-57 114l-21 45h-184q-12 -66 -23.5 -130.5t-22.5 -129.5h-90l123 700h279q56 0 100.5 -16t75 -43t47 -63t16.5 -77q0 -48 -16 -89.5t-45.5 -72.5t-70.5 -50.5t-91 -25.5l17 -36q23 -49 41.5 -81.5t38 -51.5t44.5 -26.5t61 -7.5
q60 0 100 37t53 111l86 492h91l-88 -500q-19 -109 -84.5 -167t-162.5 -58zM466 345q78 0 120.5 41t42.5 108q0 54 -39 87.5t-120 33.5h-192l-48 -270h236z" />
    <glyph glyph-name="S_A" unicode="&#xe017;" horiz-adv-x="1275" 
d="M328 -22q-66 0 -113 16t-78 40.5t-49 53t-27 53t-11.5 40.5t-2.5 17h92q0 -1 5.5 -22.5t25.5 -46.5t59 -45.5t107 -20.5q82 0 126 36t44 89q0 34 -21 56.5t-52 41t-67.5 36t-67.5 41t-52 55t-21 79.5q0 43 18 83t51 70.5t80.5 49t107.5 18.5q61 0 104.5 -14.5t72.5 -36
t45.5 -46.5t25 -47t10.5 -36.5l2 -14.5h-92l-4.5 17.5t-21.5 38.5t-52 38.5t-95 17.5q-38 0 -68 -10t-50.5 -27t-31.5 -39t-11 -46q0 -34 20.5 -57t52 -42t67.5 -36.5t67.5 -40.5t52 -55t20.5 -79q0 -46 -18 -87t-52.5 -71.5t-84 -48.5t-113.5 -18zM928 700h275l57 -700h-90
l-19 205h-345l-91 -205h-90zM1146 290l-28 325h-135l-142 -325h305z" />
    <glyph glyph-name="T_A" unicode="&#xe018;" horiz-adv-x="769" 
d="M348 615h-240l15 85h570l57 -700h-90l-19 205h-275l-36 -205h-90zM636 290l-28 325h-170l-57 -325h255z" />
    <glyph glyph-name="T_E" unicode="&#xe019;" horiz-adv-x="710" 
d="M348 615h-240l15 85h570l-15 -85h-240l-23 -130h330l-15 -85h-330l-20 -115h250l-15 -85h-250l-20 -115h330l-15 -85h-420z" />
    <glyph glyph-name="T_H_E" unicode="&#xe01a;" horiz-adv-x="1219" 
d="M333 615h-225l15 85h540l-15 -85h-225l-39 -220h375l54 305h490l-15 -85h-400l-39 -220h325l-15 -85h-325l-39 -225h400l-15 -85h-490l54 310h-375l-54 -310h-90z" />
    <glyph glyph-name="T_T" unicode="&#xe01b;" horiz-adv-x="850" 
d="M348 615h-240l15 85h570l-15 -85h-240l-108 -615h-90zM634 395h-155l15 85h400l-15 -85h-155l-69 -395h-90z" />
    <glyph glyph-name="U_U" unicode="&#xe01c;" horiz-adv-x="785" 
d="M436 140q-42 0 -73 15.5t-49.5 40.5t-25.5 56.5t-1 63.5l41 234h90l-41 -234q-8 -42 9.5 -66.5t51.5 -24.5q28 0 49 20.5t28 58.5l43 246h90l-45 -254q-13 -74 -59.5 -115t-107.5 -41zM426 -20q-92 0 -154.5 27.5t-98.5 72.5t-47.5 101.5t-1.5 114.5l71 404h90l-70 -399
q-9 -51 1 -94.5t37.5 -75t72.5 -49t107 -17.5q96 0 157.5 52t77.5 143l77 440h90l-78 -447q-11 -63 -37.5 -113.5t-68 -86t-98 -54.5t-127.5 -19z" />
    <glyph glyph-name="W_E" unicode="&#xe01d;" horiz-adv-x="1245" 
d="M143 700h93l22 -615h25l238 615h145l22 -615h25l238 615h377l-15 -85h-299l-87 -220h272l-15 -85h-291l-29 -72l-60 -153h416l-15 -85h-596l-17 615h-25l-233 -615h-159z" />
    <glyph glyph-name="ampersand.alt" unicode="&#xe020;" horiz-adv-x="710" 
d="M345 -20q-65 0 -114.5 17t-83 45t-50.5 64.5t-17 75.5q0 57 22 93t50 57t54 29.5t35 10.5q10 4 11 7q-27 12 -48 30q-18 16 -32.5 42t-14.5 64q0 40 18 77.5t51 65.5t79.5 45t103.5 17q45 0 80 -8.5t62 -22t46 -31t32 -35.5q31 -42 41 -96h-93q-8 30 -30 55
q-19 20 -53.5 37.5t-93.5 17.5q-35 0 -62.5 -9.5t-47 -26t-30 -39t-10.5 -47.5q0 -21 10 -41.5t28 -37t43.5 -26.5t57.5 -10h24l-14 -83h-60q-41 0 -72 -10.5t-52 -28.5t-32 -42t-11 -50q0 -24 11 -46t33.5 -39.5t57.5 -28t84 -10.5q81 0 128 42t60 115l17 98h-85l15 83h272
l-15 -83h-97l-19 -106q-9 -51 -33 -93t-61 -73t-86 -48t-109 -17z" />
    <glyph glyph-name="I.alt" unicode="&#xe021;" horiz-adv-x="500" 
d="M59 85h160l94 530h-160l15 85h410l-15 -85h-160l-94 -530h160l-14 -85h-410z" />
    <glyph glyph-name="a.alt" unicode="&#xe022;" horiz-adv-x="560" 
d="M249 -10q-39 0 -71.5 10.5t-55.5 29.5t-35.5 45t-12.5 57q0 34 13 65t38.5 53.5t62.5 36t85 13.5h194q13 63 -19 99t-102 36q-42 0 -68.5 -13.5t-42.5 -29.5q-18 -18 -29 -42h-81q15 45 45 80q26 30 69 55t111 25q58 0 99 -16t65.5 -44t33 -66t0.5 -82l-53 -302h-81
l12 68q-21 -22 -47 -39q-23 -15 -55.5 -27t-74.5 -12zM259 65q50 0 85.5 15t58.5 38.5t35 52t16 54.5h-191q-54 0 -81 -24.5t-27 -60.5q0 -29 25.5 -52t78.5 -23z" />
    <glyph glyph-name="f.alt" unicode="&#xe023;" horiz-adv-x="315" 
d="M165 425h-65l13 75h65l5 30q14 88 54 129t118 41h98l-13 -75h-90q-35 0 -55.5 -19t-28.5 -63l-8 -43h130l-13 -75h-130l-75 -425h-80z" />
    <glyph glyph-name="g.alt" unicode="&#xe024;" horiz-adv-x="560" 
d="M268 -200q-69 0 -118 14t-80 36t-45.5 48t-14.5 49q0 30 15.5 53t37.5 39t46.5 25.5t42.5 12.5l19 110q-19 13 -33 31q-13 16 -23 39.5t-10 55.5q0 44 18.5 80t50 62t72 40.5t84.5 14.5q18 0 32 -1.5t25 -3.5q11 -3 21 -5h243l-12 -70h-131q10 -10 18 -24q7 -12 13 -30.5
t6 -44.5q0 -39 -17 -74t-47 -61t-72 -41.5t-91 -15.5q-30 0 -54 5t-24 6l-12 -63h32q66 0 113 -15t77 -37t43.5 -47.5t13.5 -47.5q0 -26 -13 -51t-42 -44.5t-74.5 -32t-109.5 -12.5zM291 -130q39 0 65.5 6t42 15.5t22 20.5t6.5 22q0 13 -10 27.5t-33 27t-61.5 20.5t-96.5 8
q-39 0 -65.5 -6t-42 -15.5t-22 -21t-6.5 -21.5q0 -13 9.5 -27.5t33 -27t62 -20.5t96.5 -8zM326 215q32 0 58 9t44 25t28 37t10 45q0 21 -9 39.5t-26.5 33t-44 23t-61.5 8.5q-32 0 -58 -9t-44 -25t-28 -37t-10 -45q0 -21 9 -39.5t26.5 -33t44 -23t61.5 -8.5z" />
    <glyph glyph-name="j.alt" unicode="&#xe025;" horiz-adv-x="220" 
d="M-95 -115h76q35 0 55.5 20t28.5 65l93 530h80l-93 -530q-15 -83 -53.5 -121.5t-113.5 -38.5h-86zM217 590q-23 0 -37.5 15t-14.5 35q0 24 18 42t41 18t37.5 -15t14.5 -35q0 -24 -18 -42t-41 -18z" />
    <glyph glyph-name="l.alt" unicode="&#xe026;" horiz-adv-x="220" 
d="M193 700h80l-123 -700h-80z" />
    <glyph glyph-name="t.alt" unicode="&#xe027;" horiz-adv-x="364" 
d="M269 0q-87 0 -125.5 44t-24.5 125l45 256h-65l13 75h65l20 110h80l-20 -110h160l-13 -75h-160l-46 -263q-7 -41 8 -64t63 -23h78l-13 -75h-65v0z" />
    <glyph glyph-name="y.alt" unicode="&#xe028;" horiz-adv-x="510" 
d="M54 -115h88q39 0 62.5 18t43.5 58l19 39h-116l-47 500h83l35 -425h75l205 425h87l-263 -547q-32 -68 -81 -105.5t-118 -37.5h-86z" />
    <glyph glyph-name="Igrave.alt" unicode="&#xe029;" horiz-adv-x="500" 
d="M59 85h160l94 530h-160l15 85h410l-15 -85h-160l-94 -530h160l-14 -85h-410zM260 935h100l59 -145h-70z" />
    <glyph glyph-name="Iacute.alt" unicode="&#xe02a;" horiz-adv-x="500" 
d="M59 85h160l94 530h-160l15 85h410l-15 -85h-160l-94 -530h160l-14 -85h-410zM461 935h100l-141 -145h-70z" />
    <glyph glyph-name="Icircumflex.alt" unicode="&#xe02b;" horiz-adv-x="500" 
d="M59 85h160l94 530h-160l15 85h410l-15 -85h-160l-94 -530h160l-14 -85h-410zM361 935h90l84 -145h-82l-49 90h-10l-81 -90h-88z" />
    <glyph glyph-name="Idieresis.alt" unicode="&#xe02c;" horiz-adv-x="500" 
d="M59 85h160l94 530h-160l15 85h410l-15 -85h-160l-94 -530h160l-14 -85h-410zM301 805q-22 0 -36.5 15t-14.5 36q0 24 18.5 41.5t41.5 17.5q22 0 36.5 -15t14.5 -36q0 -24 -18.5 -41.5t-41.5 -17.5zM480 805q-22 0 -36.5 15t-14.5 36q0 24 18.5 41.5t41.5 17.5
q22 0 36.5 -15t14.5 -36q0 -24 -18.5 -41.5t-41.5 -17.5z" />
    <glyph glyph-name="agrave.alt" unicode="&#xe02d;" horiz-adv-x="560" 
d="M249 -10q-39 0 -71.5 10.5t-55.5 29.5t-35.5 45t-12.5 57q0 34 13 65t38.5 53.5t62.5 36t85 13.5h194q13 63 -19 99t-102 36q-42 0 -68.5 -13.5t-42.5 -29.5q-18 -18 -29 -42h-81q15 45 45 80q26 30 69 55t111 25q58 0 99 -16t65.5 -44t33 -66t0.5 -82l-53 -302h-81
l12 68q-21 -22 -47 -39q-23 -15 -55.5 -27t-74.5 -12zM259 65q50 0 85.5 15t58.5 38.5t35 52t16 54.5h-191q-54 0 -81 -24.5t-27 -60.5q0 -29 25.5 -52t78.5 -23zM270 755h100l59 -145h-70z" />
    <glyph glyph-name="aacute.alt" unicode="&#xe02e;" horiz-adv-x="560" 
d="M249 -10q-39 0 -71.5 10.5t-55.5 29.5t-35.5 45t-12.5 57q0 34 13 65t38.5 53.5t62.5 36t85 13.5h194q13 63 -19 99t-102 36q-42 0 -68.5 -13.5t-42.5 -29.5q-18 -18 -29 -42h-81q15 45 45 80q26 30 69 55t111 25q58 0 99 -16t65.5 -44t33 -66t0.5 -82l-53 -302h-81
l12 68q-21 -22 -47 -39q-23 -15 -55.5 -27t-74.5 -12zM259 65q50 0 85.5 15t58.5 38.5t35 52t16 54.5h-191q-54 0 -81 -24.5t-27 -60.5q0 -29 25.5 -52t78.5 -23zM466 755h100l-141 -145h-70z" />
    <glyph glyph-name="acircumflex.alt" unicode="&#xe02f;" horiz-adv-x="560" 
d="M249 -10q-39 0 -71.5 10.5t-55.5 29.5t-35.5 45t-12.5 57q0 34 13 65t38.5 53.5t62.5 36t85 13.5h194q13 63 -19 99t-102 36q-42 0 -68.5 -13.5t-42.5 -29.5q-18 -18 -29 -42h-81q15 45 45 80q26 30 69 55t111 25q58 0 99 -16t65.5 -44t33 -66t0.5 -82l-53 -302h-81
l12 68q-21 -22 -47 -39q-23 -15 -55.5 -27t-74.5 -12zM259 65q50 0 85.5 15t58.5 38.5t35 52t16 54.5h-191q-54 0 -81 -24.5t-27 -60.5q0 -29 25.5 -52t78.5 -23zM371 755h90l84 -145h-82l-49 90h-10l-81 -90h-88z" />
    <glyph glyph-name="atilde.alt" unicode="&#xe030;" horiz-adv-x="560" 
d="M249 -10q-39 0 -71.5 10.5t-55.5 29.5t-35.5 45t-12.5 57q0 34 13 65t38.5 53.5t62.5 36t85 13.5h194q13 63 -19 99t-102 36q-42 0 -68.5 -13.5t-42.5 -29.5q-18 -18 -29 -42h-81q15 45 45 80q26 30 69 55t111 25q58 0 99 -16t65.5 -44t33 -66t0.5 -82l-53 -302h-81
l12 68q-21 -22 -47 -39q-23 -15 -55.5 -27t-74.5 -12zM259 65q50 0 85.5 15t58.5 38.5t35 52t16 54.5h-191q-54 0 -81 -24.5t-27 -60.5q0 -29 25.5 -52t78.5 -23zM469 620q-26 0 -44 9.5t-32 20.5t-26 20.5t-27 9.5q-32 0 -36 -30l-4 -25h-65l5 28q16 92 101 92
q26 0 44 -9.5t32 -20.5t26.5 -20.5t27.5 -9.5q30 0 35 30l4 25h65l-5 -28q-16 -92 -101 -92z" />
    <glyph glyph-name="adieresis.alt" unicode="&#xe031;" horiz-adv-x="560" 
d="M249 -10q-39 0 -71.5 10.5t-55.5 29.5t-35.5 45t-12.5 57q0 34 13 65t38.5 53.5t62.5 36t85 13.5h194q13 63 -19 99t-102 36q-42 0 -68.5 -13.5t-42.5 -29.5q-18 -18 -29 -42h-81q15 45 45 80q26 30 69 55t111 25q58 0 99 -16t65.5 -44t33 -66t0.5 -82l-53 -302h-81
l12 68q-21 -22 -47 -39q-23 -15 -55.5 -27t-74.5 -12zM259 65q50 0 85.5 15t58.5 38.5t35 52t16 54.5h-191q-54 0 -81 -24.5t-27 -60.5q0 -29 25.5 -52t78.5 -23zM311 625q-22 0 -36.5 15t-14.5 36q0 24 18.5 41.5t41.5 17.5q22 0 36.5 -15t14.5 -36q0 -24 -18.5 -41.5
t-41.5 -17.5zM490 625q-22 0 -36.5 15t-14.5 36q0 24 18.5 41.5t41.5 17.5q22 0 36.5 -15t14.5 -36q0 -24 -18.5 -41.5t-41.5 -17.5z" />
    <glyph glyph-name="aring.alt" unicode="&#xe032;" horiz-adv-x="560" 
d="M249 -10q-39 0 -71.5 10.5t-55.5 29.5t-35.5 45t-12.5 57q0 34 13 65t38.5 53.5t62.5 36t85 13.5h194q13 63 -19 99t-102 36q-42 0 -68.5 -13.5t-42.5 -29.5q-18 -18 -29 -42h-81q15 45 45 80q26 30 69 55t111 25q58 0 99 -16t65.5 -44t33 -66t0.5 -82l-53 -302h-81
l12 68q-21 -22 -47 -39q-23 -15 -55.5 -27t-74.5 -12zM259 65q50 0 85.5 15t58.5 38.5t35 52t16 54.5h-191q-54 0 -81 -24.5t-27 -60.5q0 -29 25.5 -52t78.5 -23zM398 575q-45 0 -71.5 27t-26.5 66q0 25 9 46.5t25 37t36.5 24.5t43.5 9q45 0 71.5 -27t26.5 -66
q0 -25 -9 -46.5t-25 -37t-36.5 -24.5t-43.5 -9zM403 625q26 0 42.5 18t16.5 43q0 20 -13.5 34.5t-39.5 14.5t-42.5 -18t-16.5 -43q0 -20 13.5 -34.5t39.5 -14.5z" />
    <glyph glyph-name="yacute.alt" unicode="&#xe033;" horiz-adv-x="510" 
d="M54 -115h88q39 0 62.5 18t43.5 58l19 39h-116l-47 500h83l35 -425h75l205 425h87l-263 -547q-32 -68 -81 -105.5t-118 -37.5h-86zM431 755h100l-141 -145h-70z" />
    <glyph glyph-name="ydieresis.alt" unicode="&#xe034;" horiz-adv-x="510" 
d="M54 -115h88q39 0 62.5 18t43.5 58l19 39h-116l-47 500h83l35 -425h75l205 425h87l-263 -547q-32 -68 -81 -105.5t-118 -37.5h-86zM271 625q-22 0 -36.5 15t-14.5 36q0 24 18.5 41.5t41.5 17.5q22 0 36.5 -15t14.5 -36q0 -24 -18.5 -41.5t-41.5 -17.5zM450 625
q-22 0 -36.5 15t-14.5 36q0 24 18.5 41.5t41.5 17.5q22 0 36.5 -15t14.5 -36q0 -24 -18.5 -41.5t-41.5 -17.5z" />
    <glyph glyph-name="amacron.alt" unicode="&#xe035;" horiz-adv-x="560" 
d="M249 -10q-39 0 -71.5 10.5t-55.5 29.5t-35.5 45t-12.5 57q0 34 13 65t38.5 53.5t62.5 36t85 13.5h194q13 63 -19 99t-102 36q-42 0 -68.5 -13.5t-42.5 -29.5q-18 -18 -29 -42h-81q15 45 45 80q26 30 69 55t111 25q58 0 99 -16t65.5 -44t33 -66t0.5 -82l-53 -302h-81
l12 68q-21 -22 -47 -39q-23 -15 -55.5 -27t-74.5 -12zM259 65q50 0 85.5 15t58.5 38.5t35 52t16 54.5h-191q-54 0 -81 -24.5t-27 -60.5q0 -29 25.5 -52t78.5 -23zM277 720h270l-12 -70h-270z" />
    <glyph glyph-name="abreve.alt" unicode="&#xe036;" horiz-adv-x="560" 
d="M249 -10q-39 0 -71.5 10.5t-55.5 29.5t-35.5 45t-12.5 57q0 34 13 65t38.5 53.5t62.5 36t85 13.5h194q13 63 -19 99t-102 36q-42 0 -68.5 -13.5t-42.5 -29.5q-18 -18 -29 -42h-81q15 45 45 80q26 30 69 55t111 25q58 0 99 -16t65.5 -44t33 -66t0.5 -82l-53 -302h-81
l12 68q-21 -22 -47 -39q-23 -15 -55.5 -27t-74.5 -12zM259 65q50 0 85.5 15t58.5 38.5t35 52t16 54.5h-191q-54 0 -81 -24.5t-27 -60.5q0 -29 25.5 -52t78.5 -23zM401 620q-66 0 -103.5 33t-37.5 83v9h70v-6q0 -59 76 -59q32 0 51 16.5t23 48.5h70q-5 -55 -45.5 -90
t-103.5 -35z" />
    <glyph glyph-name="aogonek.alt" unicode="&#xe037;" horiz-adv-x="560" 
d="M385 -230q-48 0 -74.5 22.5t-26.5 61.5q0 32 17 57t40 43t46.5 29t36.5 17h-10l12 68q-21 -22 -47 -39q-23 -15 -55.5 -27t-74.5 -12q-39 0 -71.5 10.5t-55.5 29.5t-35.5 45t-12.5 57q0 34 13 65t38.5 53.5t62.5 36t85 13.5h194q13 63 -19 99t-102 36q-42 0 -68.5 -13.5
t-42.5 -29.5q-18 -18 -29 -42h-81q15 45 45 80q26 30 69 55t111 25q58 0 99 -16t65.5 -44t33 -66t0.5 -82l-53 -302q-13 -7 -38 -19.5t-49.5 -29.5t-43 -38.5t-18.5 -46.5q0 -17 12 -28t38 -11q12 0 23.5 2t20.5 4q11 3 19 6l-9 -55q-8 -4 -19 -7q-9 -3 -20.5 -5t-25.5 -2z
M259 65q50 0 85.5 15t58.5 38.5t35 52t16 54.5h-191q-54 0 -81 -24.5t-27 -60.5q0 -29 25.5 -52t78.5 -23z" />
    <glyph glyph-name="gcircumflex.alt" unicode="&#xe038;" horiz-adv-x="560" 
d="M268 -200q-69 0 -118 14t-80 36t-45.5 48t-14.5 49q0 30 15.5 53t37.5 39t46.5 25.5t42.5 12.5l19 110q-19 13 -33 31q-13 16 -23 39.5t-10 55.5q0 44 18.5 80t50 62t72 40.5t84.5 14.5q18 0 32 -1.5t25 -3.5q11 -3 21 -5h243l-12 -70h-131q10 -10 18 -24q7 -12 13 -30.5
t6 -44.5q0 -39 -17 -74t-47 -61t-72 -41.5t-91 -15.5q-30 0 -54 5t-24 6l-12 -63h32q66 0 113 -15t77 -37t43.5 -47.5t13.5 -47.5q0 -26 -13 -51t-42 -44.5t-74.5 -32t-109.5 -12.5zM291 -130q39 0 65.5 6t42 15.5t22 20.5t6.5 22q0 13 -10 27.5t-33 27t-61.5 20.5t-96.5 8
q-39 0 -65.5 -6t-42 -15.5t-22 -21t-6.5 -21.5q0 -13 9.5 -27.5t33 -27t62 -20.5t96.5 -8zM326 215q32 0 58 9t44 25t28 37t10 45q0 21 -9 39.5t-26.5 33t-44 23t-61.5 8.5q-32 0 -58 -9t-44 -25t-28 -37t-10 -45q0 -21 9 -39.5t26.5 -33t44 -23t61.5 -8.5zM361 755h90
l84 -145h-82l-49 90h-10l-81 -90h-88z" />
    <glyph glyph-name="gbreve.alt" unicode="&#xe039;" horiz-adv-x="560" 
d="M268 -200q-69 0 -118 14t-80 36t-45.5 48t-14.5 49q0 30 15.5 53t37.5 39t46.5 25.5t42.5 12.5l19 110q-19 13 -33 31q-13 16 -23 39.5t-10 55.5q0 44 18.5 80t50 62t72 40.5t84.5 14.5q18 0 32 -1.5t25 -3.5q11 -3 21 -5h243l-12 -70h-131q10 -10 18 -24q7 -12 13 -30.5
t6 -44.5q0 -39 -17 -74t-47 -61t-72 -41.5t-91 -15.5q-30 0 -54 5t-24 6l-12 -63h32q66 0 113 -15t77 -37t43.5 -47.5t13.5 -47.5q0 -26 -13 -51t-42 -44.5t-74.5 -32t-109.5 -12.5zM291 -130q39 0 65.5 6t42 15.5t22 20.5t6.5 22q0 13 -10 27.5t-33 27t-61.5 20.5t-96.5 8
q-39 0 -65.5 -6t-42 -15.5t-22 -21t-6.5 -21.5q0 -13 9.5 -27.5t33 -27t62 -20.5t96.5 -8zM326 215q32 0 58 9t44 25t28 37t10 45q0 21 -9 39.5t-26.5 33t-44 23t-61.5 8.5q-32 0 -58 -9t-44 -25t-28 -37t-10 -45q0 -21 9 -39.5t26.5 -33t44 -23t61.5 -8.5zM386 620
q-66 0 -103.5 33t-37.5 83v9h70v-6q0 -59 76 -59q32 0 51 16.5t23 48.5h70q-5 -55 -45.5 -90t-103.5 -35z" />
    <glyph glyph-name="gdotaccent.alt" unicode="&#xe03a;" horiz-adv-x="560" 
d="M268 -200q-69 0 -118 14t-80 36t-45.5 48t-14.5 49q0 30 15.5 53t37.5 39t46.5 25.5t42.5 12.5l19 110q-19 13 -33 31q-13 16 -23 39.5t-10 55.5q0 44 18.5 80t50 62t72 40.5t84.5 14.5q18 0 32 -1.5t25 -3.5q11 -3 21 -5h243l-12 -70h-131q10 -10 18 -24q7 -12 13 -30.5
t6 -44.5q0 -39 -17 -74t-47 -61t-72 -41.5t-91 -15.5q-30 0 -54 5t-24 6l-12 -63h32q66 0 113 -15t77 -37t43.5 -47.5t13.5 -47.5q0 -26 -13 -51t-42 -44.5t-74.5 -32t-109.5 -12.5zM291 -130q39 0 65.5 6t42 15.5t22 20.5t6.5 22q0 13 -10 27.5t-33 27t-61.5 20.5t-96.5 8
q-39 0 -65.5 -6t-42 -15.5t-22 -21t-6.5 -21.5q0 -13 9.5 -27.5t33 -27t62 -20.5t96.5 -8zM326 215q32 0 58 9t44 25t28 37t10 45q0 21 -9 39.5t-26.5 33t-44 23t-61.5 8.5q-32 0 -58 -9t-44 -25t-28 -37t-10 -45q0 -21 9 -39.5t26.5 -33t44 -23t61.5 -8.5zM392 625
q-23 0 -37.5 15t-14.5 35q0 24 18 42t41 18t37.5 -15t14.5 -35q0 -24 -18 -42t-41 -18z" />
    <glyph glyph-name="gcommaaccent.alt" unicode="&#xe03b;" horiz-adv-x="560" 
d="M374 590q-24 0 -39 15t-15 46q0 34 10.5 59.5t28.5 42t42 24.5t51 8l-6 -40q-36 -1 -52.5 -15.5t-16.5 -31.5q0 -8 1 -10q0 -2 1 -3q1 1 3 2q4 2 10 2q14 0 27 -10.5t13 -32.5q0 -20 -14.5 -38t-43.5 -18zM268 -200q-69 0 -118 14t-80 36t-45.5 48t-14.5 49q0 30 15.5 53
t37.5 39t46.5 25.5t42.5 12.5l19 110q-19 13 -33 31q-13 16 -23 39.5t-10 55.5q0 44 18.5 80t50 62t72 40.5t84.5 14.5q18 0 32 -1.5t25 -3.5q11 -3 21 -5h243l-12 -70h-131q10 -10 18 -24q7 -12 13 -30.5t6 -44.5q0 -39 -17 -74t-47 -61t-72 -41.5t-91 -15.5q-30 0 -54 5
t-24 6l-12 -63h32q66 0 113 -15t77 -37t43.5 -47.5t13.5 -47.5q0 -26 -13 -51t-42 -44.5t-74.5 -32t-109.5 -12.5zM291 -130q39 0 65.5 6t42 15.5t22 20.5t6.5 22q0 13 -10 27.5t-33 27t-61.5 20.5t-96.5 8q-39 0 -65.5 -6t-42 -15.5t-22 -21t-6.5 -21.5q0 -13 9.5 -27.5
t33 -27t62 -20.5t96.5 -8zM326 215q32 0 58 9t44 25t28 37t10 45q0 21 -9 39.5t-26.5 33t-44 23t-61.5 8.5q-32 0 -58 -9t-44 -25t-28 -37t-10 -45q0 -21 9 -39.5t26.5 -33t44 -23t61.5 -8.5z" />
    <glyph glyph-name="Imacron.alt" unicode="&#xe03c;" horiz-adv-x="500" 
d="M59 85h160l94 530h-160l15 85h410l-15 -85h-160l-94 -530h160l-14 -85h-410zM267 900h270l-12 -70h-270z" />
    <glyph glyph-name="Ibreve.alt" unicode="&#xe03d;" horiz-adv-x="500" 
d="M59 85h160l94 530h-160l15 85h410l-15 -85h-160l-94 -530h160l-14 -85h-410zM391 800q-66 0 -103.5 33t-37.5 83v9h70v-6q0 -59 76 -59q32 0 51 16.5t23 48.5h70q-5 -55 -45.5 -90t-103.5 -35z" />
    <glyph glyph-name="Iogonek.alt" unicode="&#xe03e;" horiz-adv-x="500" 
d="M345 -230q-48 0 -74.5 22.5t-26.5 61.5q0 32 17 57t40 43t46.5 29t36.5 17h-339l14 85h160l94 530h-160l15 85h410l-15 -85h-160l-94 -530h160l-14 -85q-13 -7 -38 -19.5t-49.5 -29.5t-43 -38.5t-18.5 -46.5q0 -17 12 -28t38 -11q12 0 23.5 2t20.5 4q11 3 19 6l-9 -55
q-8 -4 -19 -7q-9 -3 -20.5 -5t-25.5 -2z" />
    <glyph glyph-name="Idotaccent.alt" unicode="&#xe03f;" horiz-adv-x="500" 
d="M59 85h160l94 530h-160l15 85h410l-15 -85h-160l-94 -530h160l-14 -85h-410zM392 805q-23 0 -37.5 15t-14.5 35q0 24 18 42t41 18t37.5 -15t14.5 -35q0 -24 -18 -42t-41 -18z" />
    <glyph glyph-name="uni0133.alt" unicode="&#xe040;" horiz-adv-x="440" 
d="M158 500h80l-88 -500h-80zM125 -115h76q35 0 55.5 20t28.5 65l93 530h80l-93 -530q-15 -83 -53.5 -121.5t-113.5 -38.5h-86zM216 595q-23 0 -37.5 15t-14.5 35q0 24 18 42t41 18t37.5 -15t14.5 -35q0 -24 -18 -42t-41 -18zM437 595q-23 0 -37.5 15t-14.5 35q0 24 18 42
t41 18t37.5 -15t14.5 -35q0 -24 -18 -42t-41 -18z" />
    <glyph glyph-name="jcircumflex.alt" unicode="&#xe041;" horiz-adv-x="220" 
d="M-95 -115h76q35 0 55.5 20t28.5 65l93 530h80l-93 -530q-15 -83 -53.5 -121.5t-113.5 -38.5h-86zM191 750h90l84 -145h-82l-49 90h-10l-81 -90h-88z" />
    <glyph glyph-name="lacute.alt" unicode="&#xe042;" horiz-adv-x="220" 
d="M193 700h80l-123 -700h-80zM326 935h100l-141 -145h-70z" />
    <glyph glyph-name="lcommaaccent.alt" unicode="&#xe043;" horiz-adv-x="220" 
d="M193 700h80l-123 -700h-80zM21 -255q36 1 52.5 15.5t16.5 31.5q0 3 -0.5 5t-0.5 4q-1 2 -1 4l-4 -2q-4 -2 -9 -2q-14 0 -27 10.5t-13 32.5q0 20 14.5 38t43.5 18q24 0 39 -15t15 -46q0 -35 -10.5 -60t-28.5 -41.5t-42 -24.5t-51 -8z" />
    <glyph glyph-name="lcaron.alt" unicode="&#xe044;" horiz-adv-x="277" 
d="M193 700h80l-123 -700h-80zM301 545q36 1 52.5 15.5t16.5 31.5q0 3 -0.5 5t-0.5 4q-1 2 -1 4l-4 -2q-4 -2 -9 -2q-14 0 -27 10.5t-13 32.5q0 20 14.5 38t43.5 18q24 0 39 -15t15 -46q0 -35 -10.5 -60t-28.5 -41.5t-42 -24.5t-51 -8z" />
    <glyph glyph-name="ldot.alt" unicode="&#xe045;" horiz-adv-x="360" 
d="M193 700h80l-123 -700h-80zM356 310q-23 0 -37.5 15t-14.5 35q0 24 18 42t41 18t37.5 -15t14.5 -35q0 -24 -18 -42t-41 -18z" />
    <glyph glyph-name="lslash.alt" unicode="&#xe046;" horiz-adv-x="265" 
d="M136 273q-23 -9 -45 -19t-45 -19l15 82l89 39q16 86 30.5 171.5t30.5 172.5h82l-53 -305l103 45l-15 -83l-103 -45l-55 -312h-82z" />
    <glyph glyph-name="tcommaaccent.alt" unicode="&#xe047;" horiz-adv-x="365" 
d="M155 -240q-20 0 -35.5 4.5t-26.5 9.5q-12 6 -21 14l10 56q9 -8 20 -14q10 -5 24 -9t33 -4q23 0 37 11.5t14 32.5q0 14 -12 25.5t-38 11.5h-37l69 114q-46 17 -65 57t-8 100l45 256h-65l13 75h65l20 110h80l-20 -110h160l-13 -75h-160l-46 -263q-7 -41 8 -64t63 -23h78
l-13 -75h-65h-15t-15 1l-36 -58q7 -1 18.5 -6t22 -14t18.5 -23t8 -34q0 -23 -8.5 -42t-24 -33.5t-36.5 -22.5t-46 -8z" />
    <glyph glyph-name="tcaron.alt" unicode="&#xe048;" horiz-adv-x="365" 
d="M269 0q-87 0 -125.5 44t-24.5 125l45 256h-65l13 75h65l20 110h80l-79 -448q-7 -41 8 -64t63 -23h78l-13 -75h-65zM304 465q36 1 52.5 15.5t16.5 31.5q0 3 -0.5 5t-0.5 4q-1 2 -1 4l-4 -2q-4 -2 -9 -2q-14 0 -27 10.5t-13 32.5q0 20 14.5 38t43.5 18q24 0 39 -15t15 -46
q0 -35 -10.5 -60t-28.5 -41.5t-42 -24.5t-51 -8z" />
    <glyph glyph-name="tbar.alt" unicode="&#xe049;" horiz-adv-x="365" 
d="M269 0q-87 0 -125.5 44t-24.5 125l18 101h-65l12 70h65l15 85h-65l14 75h65l19 110h80l-19 -110h160l-14 -75h-160l-15 -85h160l-12 -70h-160l-19 -108q-7 -41 8 -64t63 -23h78l-13 -75h-65v0z" />
    <glyph glyph-name="ycircumflex.alt" unicode="&#xe04a;" horiz-adv-x="510" 
d="M54 -115h88q39 0 62.5 18t43.5 58l19 39h-116l-47 500h83l35 -425h75l205 425h87l-263 -547q-32 -68 -81 -105.5t-118 -37.5h-86zM331 755h90l84 -145h-82l-49 90h-10l-81 -90h-88z" />
    <glyph glyph-name="florin.alt" unicode="&#xe04b;" horiz-adv-x="341" 
d="M-95 -115h75q81 0 103 95l104 445h-55l6 75h71l16 70q13 57 55 93.5t107 36.5h89l-7 -75h-90q-34 0 -50 -13.5t-26 -51.5l-14 -60h119l-6 -75h-135l-104 -445q-20 -83 -67.5 -126.5t-122.5 -43.5h-75z" />
    </font>
</defs>
</svg>
