<svg xmlns="http://www.w3.org/2000/svg">
<defs>
<font id="TTFirsNeue-LightItalic" horiz-adv-x="615" >
  <font-face 
    font-family="TT Firs Neue Light"
    font-weight="300"
    font-style="italic"
    font-stretch="normal"
    units-per-em="1000"
    panose-1="2 0 5 3 3 0 0 9 0 4"
    ascent="800"
    descent="-200"
    x-height="500"
    cap-height="700"
    bbox="-315 -280 1493 1031"
    underline-thickness="50"
    underline-position="-200"
    slope="-10"
    unicode-range="U+000D-FB02"
  />
<missing-glyph horiz-adv-x="900" 
d="M100 284h45v-139h33v139h50v31h-128v126l19 -61h23l34 106l33 -106h23l54 170h-32l-34 -110l-35 110h-19l-35 -110l-31 103v157h700v-150h-110v-170h110v-91q-13 27 -50 27q-29 0 -44.5 -14.5t-15.5 -34.5q0 -22 13.5 -32t30 -15t30.5 -9.5t14 -16.5q0 -14 -9.5 -17.5
t-18.5 -3.5q-15 0 -21.5 7.5t-6.5 17.5h-33q0 -24 16.5 -39.5t44.5 -15.5q20 0 32.5 7.5t17.5 12.5v-163h-700v284zM328 143q38 0 60 25t22 61q0 37 -22.5 62t-59.5 25t-59.5 -25t-22.5 -62q0 -36 22 -61t60 -25zM328 174q-23 0 -37 16t-14 39q0 24 13.5 40t37.5 16
t37.5 -16t13.5 -40q0 -23 -14 -39t-37 -16zM344 380v62h24l35 -62h37l-40 67q36 16 36 50q0 21 -15.5 37t-41.5 16h-68v-170h33zM344 519h35q10 0 17 -6t7 -17q0 -13 -8 -18t-16 -5h-35v46zM585 143q29 0 48 18.5t19 47.5v106h-32v-106q0 -15 -9 -25t-26 -10q-18 0 -27 11
t-9 24v106h-32v-106q0 -29 19.5 -47.5t48.5 -18.5zM502 380v170h-33v-170h33zM612 380v139h50v31h-132v-31h50v-139h32zM800 224q-11 10 -24 14.5t-24.5 8.5t-19.5 8t-8 12q0 9 7.5 14.5t18.5 5.5q10 0 18 -6.5t8 -18.5h24v-38zM722 452h78v-41h-78v41zM722 519h78v-36h-78
v36z" />
    <glyph glyph-name="f_j" unicode="fj" horiz-adv-x="540" 
d="M231 -135h145l102 580h-245l-78 -445h-60l78 445h-70l10 55h70l35 200h335l-9 -55h-275l-26 -145h305l-122 -690h-205z" />
    <glyph glyph-name="f_t" unicode="ft" horiz-adv-x="660" 
d="M173 445h-70l10 55h70l35 200h365l-35 -200h165l-10 -55h-165l-68 -390h170l-10 -55h-230l78 445h-245l-78 -445h-60zM488 500l26 145h-245l-26 -145h245z" />
    <glyph glyph-name="ff.alt" unicode="&#xe023;&#xe023;" 
d="M173 445h-70l10 55h70l11 63q26 137 148 137h101l-9 -55h-93q-72 0 -88 -88l-10 -57h245l11 63q26 137 148 137h101l-9 -55h-93q-72 0 -88 -88l-10 -57h135l-10 -55h-135l-78 -445h-60l78 445h-245l-78 -445h-60z" />
    <glyph glyph-name="fi.alt" unicode="&#xe023;i" horiz-adv-x="540" 
d="M173 445h-70l10 55h70l11 63q26 137 148 137h211l-9 -55h-203q-72 0 -88 -88l-10 -57h305l-88 -500h-60l78 445h-245l-78 -445h-60z" />
    <glyph glyph-name="fl.alt" unicode="&#xe023;&#xe026;" horiz-adv-x="540" 
d="M173 445h-70l10 55h70l12 66q11 63 60 103.5t127 40.5q46 0 81 -14t57.5 -38t31 -56t2.5 -68l-94 -534h-60l95 540q8 49 -22 82t-94 33q-53 0 -85 -26.5t-40 -68.5l-11 -60h135l-10 -55h-135l-78 -445h-60z" />
    <glyph glyph-name="f_j.alt" unicode="&#xe023;&#xe025;" horiz-adv-x="540" 
d="M233 -135h69q75 0 91 95l85 485h-245l-78 -445h-60l78 445h-70l10 55h70l11 63q24 137 148 137h211l-9 -55h-203q-72 0 -88 -88l-10 -57h305l-95 -540q-14 -75 -49.5 -112.5t-102.5 -37.5h-78z" />
    <glyph glyph-name="f_t.alt" unicode="&#xe023;&#xe027;" horiz-adv-x="660" 
d="M173 445h-70l10 55h70l12 66q11 63 60 103.5t127 40.5q46 0 81 -14t57.5 -38t31 -56t2.5 -68l-6 -34h165l-10 -55h-165l-51 -290q-9 -54 12 -77t66 -23h74l-9 -55h-70q-75 0 -111 40t-23 112l52 293h-245l-78 -445h-60zM488 500l7 40q8 49 -22 82t-94 33q-53 0 -85 -26.5
t-40 -68.5l-11 -60h245z" />
    <glyph glyph-name="ff" unicode="ff" 
d="M173 445h-70l10 55h70l35 200h225l-9 -55h-165l-26 -145h245l35 200h225l-9 -55h-165l-26 -145h135l-10 -55h-135l-78 -445h-60l78 445h-245l-78 -445h-60z" />
    <glyph glyph-name="fi" unicode="fi" horiz-adv-x="540" 
d="M173 445h-70l10 55h70l35 200h335l-9 -55h-275l-26 -145h305l-88 -500h-60l78 445h-245l-78 -445h-60z" />
    <glyph glyph-name="fl" unicode="fl" horiz-adv-x="590" 
d="M173 445h-70l10 55h70l35 200h365l-113 -645h115l-10 -55h-175l114 645h-245l-26 -145h135l-10 -55h-135l-78 -445h-60z" />
    <glyph glyph-name=".notdef" horiz-adv-x="900" 
d="M100 284h45v-139h33v139h50v31h-128v126l19 -61h23l34 106l33 -106h23l54 170h-32l-34 -110l-35 110h-19l-35 -110l-31 103v157h700v-150h-110v-170h110v-91q-13 27 -50 27q-29 0 -44.5 -14.5t-15.5 -34.5q0 -22 13.5 -32t30 -15t30.5 -9.5t14 -16.5q0 -14 -9.5 -17.5
t-18.5 -3.5q-15 0 -21.5 7.5t-6.5 17.5h-33q0 -24 16.5 -39.5t44.5 -15.5q20 0 32.5 7.5t17.5 12.5v-163h-700v284zM328 143q38 0 60 25t22 61q0 37 -22.5 62t-59.5 25t-59.5 -25t-22.5 -62q0 -36 22 -61t60 -25zM328 174q-23 0 -37 16t-14 39q0 24 13.5 40t37.5 16
t37.5 -16t13.5 -40q0 -23 -14 -39t-37 -16zM344 380v62h24l35 -62h37l-40 67q36 16 36 50q0 21 -15.5 37t-41.5 16h-68v-170h33zM344 519h35q10 0 17 -6t7 -17q0 -13 -8 -18t-16 -5h-35v46zM585 143q29 0 48 18.5t19 47.5v106h-32v-106q0 -15 -9 -25t-26 -10q-18 0 -27 11
t-9 24v106h-32v-106q0 -29 19.5 -47.5t48.5 -18.5zM502 380v170h-33v-170h33zM612 380v139h50v31h-132v-31h50v-139h32zM800 224q-11 10 -24 14.5t-24.5 8.5t-19.5 8t-8 12q0 9 7.5 14.5t18.5 5.5q10 0 18 -6.5t8 -18.5h24v-38zM722 452h78v-41h-78v41zM722 519h78v-36h-78
v36z" />
    <glyph glyph-name=".null" horiz-adv-x="0" 
 />
    <glyph glyph-name=".null" horiz-adv-x="0" 
 />
    <glyph glyph-name="nonmarkingreturn" unicode="&#xd;" horiz-adv-x="0" 
 />
    <glyph glyph-name="space" unicode=" " horiz-adv-x="280" 
 />
    <glyph glyph-name="exclam" unicode="!" horiz-adv-x="280" 
d="M143 -15q-22 0 -34.5 13t-12.5 32q0 26 15.5 40.5t38.5 14.5q22 0 34.5 -13t12.5 -32q0 -26 -15.5 -40.5t-38.5 -14.5zM170 335l64 365h60l-64 -365l-34 -135h-40z" />
    <glyph glyph-name="quotedbl" unicode="&#x22;" horiz-adv-x="355" 
d="M165 570l23 130h60l-23 -130l-30 -115h-40zM320 570l23 130h60l-23 -130l-30 -115h-40z" />
    <glyph glyph-name="numbersign" unicode="#" horiz-adv-x="660" 
d="M176 205h-110l9 50h125l88 190h-120l9 50h135l96 205h60l-96 -205h175l96 205h60l-96 -205h110l-9 -50h-125l-88 -190h120l-9 -50h-135l-96 -205h-60l96 205h-175l-96 -205h-60zM435 255l88 190h-175l-88 -190h175z" />
    <glyph glyph-name="dollar" unicode="$" horiz-adv-x="635" 
d="M290 -14q-35 6 -62.5 18t-48.5 27t-36 32.5t-25 34.5q-24 40 -31 87h65l3 -11t11.5 -27t23 -35t38.5 -35t58.5 -26.5t81.5 -10.5q44 -2 79 10t59 32.5t36.5 46.5t12.5 53q0 40 -28.5 66.5t-71 47t-92.5 39t-92.5 42.5t-71 57.5t-28.5 84.5q0 40 17 76t49 64t76.5 44.5
t100.5 16.5h5l16 90h65l-17 -96q43 -8 74 -24t52 -36t33 -41.5t18 -38.5t8 -28l2 -11h-64q-8 35 -33 62q-21 23 -60.5 43t-106.5 20q-39 0 -70.5 -10.5t-53.5 -29t-34 -42.5t-12 -51q0 -39 28.5 -65.5t71 -47.5t92.5 -40t92.5 -43.5t71 -58.5t28.5 -84q0 -41 -18 -78.5
t-52 -66t-81.5 -46t-107.5 -17.5h-7l-16 -90h-65z" />
    <glyph glyph-name="percent" unicode="%" horiz-adv-x="765" 
d="M688 700h65l-543 -700h-65zM572 -10q-32 0 -59.5 12t-47.5 32.5t-31 48t-11 57.5q0 38 15 71t40.5 57t58 38t67.5 14q32 0 59.5 -12t47.5 -32.5t31 -48t11 -57.5q0 -38 -15 -71t-40.5 -57t-58 -38t-67.5 -14zM579 44q23 0 44 9t36.5 25.5t25 39.5t9.5 51q0 42 -26 69.5
t-71 27.5q-23 0 -44 -9t-36.5 -25.5t-25 -39.5t-9.5 -51q0 -42 26 -69.5t71 -27.5zM294 380q-32 0 -59.5 12t-47.5 32.5t-31 48t-11 57.5q0 38 15 71t40.5 57t58 38t67.5 14q32 0 59.5 -12t47.5 -32.5t31 -48t11 -57.5q0 -38 -15 -71t-40.5 -57t-58 -38t-67.5 -14zM301 434
q23 0 44 9t36.5 25.5t25 39.5t9.5 51q0 42 -26 69.5t-71 27.5q-23 0 -44 -9t-36.5 -25.5t-25 -39.5t-9.5 -51q0 -42 26 -69.5t71 -27.5z" />
    <glyph glyph-name="ampersand" unicode="&#x26;" horiz-adv-x="700" 
d="M322 -20q-51 0 -93.5 17.5t-73.5 48.5t-48 72t-17 89q0 59 22.5 109t59.5 86.5t85.5 57t100.5 20.5q20 0 35.5 -3t26.5 -7q13 -4 23 -9l-86 179l10 60h390l-10 -60h-315l307 -640h-75l-93 193q-8 -48 -31 -87.5t-56 -67t-74.5 -43t-87.5 -15.5zM324 40q38 0 73.5 16
t63 44t44 67t16.5 85q0 36 -12 67t-34 53.5t-51.5 35t-65.5 12.5q-38 0 -73.5 -16t-63 -44t-44 -67t-16.5 -85q0 -36 12 -67t34 -53.5t51.5 -35t65.5 -12.5z" />
    <glyph glyph-name="quotesingle" unicode="'" horiz-adv-x="200" 
d="M165 570l23 130h60l-23 -130l-30 -115h-40z" />
    <glyph glyph-name="parenleft" unicode="(" horiz-adv-x="365" 
d="M304 -175q-46 43 -81 101q-31 50 -56 121t-25 164q0 69 14 129t36.5 111t51.5 93.5t59 76.5q70 79 161 134l27 -48q-68 -44 -120.5 -100.5t-88.5 -120t-55 -133t-19 -138.5q0 -81 21 -145t47 -109q30 -53 69 -93l-41 -43v0z" />
    <glyph glyph-name="parenright" unicode=")" horiz-adv-x="365" 
d="M-19 -127q68 44 120.5 100.5t88.5 120t55 133t19 138.5q0 81 -21.5 145t-47.5 109q-30 53 -68 93l41 43q45 -43 81 -101q30 -50 55.5 -121t25.5 -164q0 -69 -14 -129.5t-36.5 -111.5t-51.5 -93t-59 -76q-71 -79 -161 -134z" />
    <glyph glyph-name="asterisk" unicode="*" horiz-adv-x="360" 
d="M155 425l70 105h-105v50h120v120h50v-120h120v-50h-105l70 -105l-45 -25l-65 105l-65 -105z" />
    <glyph glyph-name="plus" unicode="+" horiz-adv-x="500" 
d="M279 280h-165v55h165v175h60v-175h165v-55h-165v-175h-60v175z" />
    <glyph glyph-name="comma" unicode="," horiz-adv-x="195" 
d="M44 -90q31 8 51 24.5t20 45.5q0 2 -0.5 4.5t-0.5 4.5q-1 2 -1 4q-2 -1 -5 -2t-13 -1q-15 0 -25.5 12.5t-10.5 27.5q0 23 16 36.5t36 13.5q21 0 35 -14t14 -46q0 -33 -9.5 -57.5t-26 -41.5t-39 -27t-47.5 -14z" />
    <glyph glyph-name="hyphen" unicode="-" horiz-adv-x="480" 
d="M120 310h360l-11 -60h-360z" />
    <glyph glyph-name="period" unicode="." horiz-adv-x="190" 
d="M108 -15q-22 0 -34.5 13t-12.5 32q0 26 15.5 40.5t38.5 14.5q22 0 34.5 -13t12.5 -32q0 -26 -15.5 -40.5t-38.5 -14.5z" />
    <glyph glyph-name="slash" unicode="/" horiz-adv-x="350" 
d="M408 700h65l-398 -700h-65z" />
    <glyph glyph-name="zero" unicode="0" horiz-adv-x="740" 
d="M397 -20q-62 0 -113.5 21.5t-88.5 61t-58 96.5t-21 128q0 102 30.5 182t80.5 135.5t113 85t128 29.5q61 0 113 -21.5t89 -61t58 -96.5t21 -128q0 -102 -30.5 -182t-80.5 -135.5t-113 -85t-128 -29.5zM400 40q51 0 102 24t91 71t65 116.5t25 159.5q0 59 -16.5 105
t-45.5 78t-69 48.5t-87 16.5q-51 0 -102 -24t-91 -71t-65 -116.5t-25 -159.5q0 -59 16.5 -105t45.5 -78t69 -48.5t87 -16.5z" />
    <glyph glyph-name="one" unicode="1" horiz-adv-x="310" 
d="M265 625l-148 -100l12 70l154 105h60l-124 -700h-65z" />
    <glyph glyph-name="two" unicode="2" horiz-adv-x="570" 
d="M51 60l244 165q65 44 113.5 77t81 64t49 65.5t16.5 81.5q0 30 -11.5 57t-33 47t-52 31.5t-69.5 11.5q-53 0 -88 -24.5t-56 -53.5q-25 -34 -39 -77h-71q18 59 51 107q14 20 33.5 39.5t44.5 34.5t56.5 24.5t70.5 9.5q52 0 94.5 -16.5t72.5 -44t46 -64.5t16 -79
q0 -56 -21.5 -99t-59 -80.5t-88 -72.5t-108.5 -74l-192 -130h390l-11 -60h-490z" />
    <glyph glyph-name="three" unicode="3" horiz-adv-x="590" 
d="M318 -20q-45 0 -79.5 8.5t-61 22.5t-45 32t-30.5 37q-29 44 -36 100h63q8 -39 32 -70q20 -26 58.5 -48t103.5 -22q42 0 77 13t60.5 36t39.5 54.5t14 68.5q0 31 -12.5 58t-35.5 47t-55.5 31.5t-71.5 11.5h-107l11 60l288 220h-355l11 60h445l-11 -60l-288 -220h16
q54 0 96.5 -17.5t72.5 -46t45.5 -65.5t15.5 -76q0 -48 -20 -91t-55 -75t-82.5 -50.5t-103.5 -18.5z" />
    <glyph glyph-name="four" unicode="4" horiz-adv-x="585" 
d="M443 160h-375l11 60l334 480h70l-334 -480h305l33 190h65l-33 -190h105l-11 -60h-105l-28 -160h-65z" />
    <glyph glyph-name="five" unicode="5" 
d="M340 -20q-42 0 -75 8.5t-58.5 22.5t-43.5 32t-30 37q-29 44 -37 100h64q9 -39 32 -70q19 -26 56 -48t99 -22q41 0 76.5 15t62 41.5t42 63t15.5 80.5q0 36 -13 65.5t-36 50.5t-55 32.5t-71 11.5q-42 0 -72 -12t-51 -26q-25 -17 -42 -37h-55l95 375h405l-11 -60h-350
l-60 -231q16 14 38 25q19 10 46 18t62 8q53 0 96.5 -17t74.5 -46t48 -69t17 -86q0 -56 -21.5 -103.5t-58.5 -83t-85.5 -55.5t-103.5 -20z" />
    <glyph glyph-name="six" unicode="6" horiz-adv-x="605" 
d="M334 -20q-55 0 -100 18t-77 48.5t-49.5 71.5t-17.5 88q0 46 12.5 82.5t35 68t52.5 61.5t65 64l223 218h80l-240 -234q5 1 11 2q5 1 13.5 1.5t20.5 0.5q54 0 100 -16t79 -46t52 -71.5t19 -92.5q0 -55 -22 -103t-60.5 -84t-89 -56.5t-107.5 -20.5zM340 40q43 0 81 15t66 42
t44.5 64t16.5 81q0 36 -13 66.5t-37 53t-58.5 35.5t-76.5 13q-43 0 -81 -15.5t-66 -42.5t-44.5 -64t-16.5 -80q0 -36 13 -66.5t37 -53t58.5 -35.5t76.5 -13z" />
    <glyph glyph-name="seven" unicode="7" horiz-adv-x="485" 
d="M494 640h-385l10 60h455l-10 -60l-408 -640h-70z" />
    <glyph glyph-name="eight" unicode="8" horiz-adv-x="640" 
d="M358 -20q-50 0 -98.5 13t-86.5 38.5t-61 63.5t-23 88q0 44 14 76.5t35 55t45.5 36.5t44.5 22t33 10.5t12 2.5q-27 12 -47 31q-18 17 -32.5 43t-14.5 64t16.5 73.5t48 62.5t76.5 43.5t101 16.5q57 0 101.5 -15t74.5 -40t45.5 -57.5t15.5 -66.5q0 -37 -11.5 -64t-28 -47
t-36 -32.5t-36 -19.5t-27 -10t-9.5 -3q33 -13 59 -35q23 -19 41.5 -50t18.5 -77q0 -44 -19 -84.5t-54 -71t-85 -49t-113 -18.5zM364 40q47 0 84.5 12.5t63 34.5t39 50t13.5 60q0 28 -13 54t-39.5 46t-66 32t-92.5 12q-47 0 -84.5 -12.5t-63 -34.5t-39 -50.5t-13.5 -59.5
q0 -28 13 -54t39 -46t66 -32t93 -12zM420 400q41 0 73.5 12.5t55 32t34 44t11.5 49.5q0 23 -11 45t-33 39t-55.5 27.5t-78.5 10.5q-42 0 -74 -12.5t-54 -32t-33.5 -44t-11.5 -49.5q0 -23 10.5 -45t32.5 -39t55.5 -27.5t78.5 -10.5z" />
    <glyph glyph-name="nine" unicode="9" horiz-adv-x="605" 
d="M412 234q-5 -1 -11 -2q-5 -1 -14 -1.5t-20 -0.5q-54 0 -100 16t-79 46t-52 71.5t-19 92.5q0 55 22 103t60.5 84t89 56.5t107.5 20.5q55 0 100 -18t77 -48.5t49.5 -72t17.5 -87.5q0 -47 -12.5 -83t-35 -67.5t-52.5 -61.5t-65 -64l-223 -218h-80zM367 290q43 0 81 15t66 42
t44.5 64t16.5 81q0 36 -13 66.5t-37 53t-58.5 35.5t-76.5 13q-43 0 -81 -15.5t-66 -42.5t-44.5 -64t-16.5 -80q0 -36 13 -66.5t37 -53t58.5 -35.5t76.5 -13z" />
    <glyph glyph-name="colon" unicode=":" horiz-adv-x="190" 
d="M182 410q-22 0 -34.5 13t-12.5 32q0 26 15.5 40.5t38.5 14.5q22 0 34.5 -13t12.5 -32q0 -26 -15.5 -40.5t-38.5 -14.5zM108 -15q-22 0 -34.5 13t-12.5 32q0 26 15.5 40.5t38.5 14.5q22 0 34.5 -13t12.5 -32q0 -26 -15.5 -40.5t-38.5 -14.5z" />
    <glyph glyph-name="semicolon" unicode=";" horiz-adv-x="190" 
d="M182 410q-22 0 -34.5 13t-12.5 32q0 26 15.5 40.5t38.5 14.5q22 0 34.5 -13t12.5 -32q0 -26 -15.5 -40.5t-38.5 -14.5zM44 -90q31 8 51 24.5t20 45.5q0 2 -0.5 4.5t-0.5 4.5q-1 2 -1 4q-2 -1 -5 -2t-13 -1q-15 0 -25.5 12.5t-10.5 27.5q0 23 16 36.5t36 13.5q21 0 35 -14
t14 -46q0 -33 -9.5 -57.5t-26 -41.5t-39 -27t-47.5 -14z" />
    <glyph glyph-name="less" unicode="&#x3c;" horiz-adv-x="500" 
d="M105 215v70l380 200v-60l-320 -170v-10l320 -170v-60z" />
    <glyph glyph-name="equal" unicode="=" horiz-adv-x="500" 
d="M120 200h370v-55h-370v55zM120 385h370v-55h-370v55z" />
    <glyph glyph-name="greater" unicode="&#x3e;" horiz-adv-x="500" 
d="M110 75l320 170v10l-320 170v60l380 -200v-70l-380 -200v60z" />
    <glyph glyph-name="question" unicode="?" horiz-adv-x="525" 
d="M241 -15q-22 0 -34.5 13t-12.5 32q0 26 15.5 40.5t38.5 14.5q22 0 34.5 -13t12.5 -32q0 -26 -15.5 -40.5t-38.5 -14.5zM235 195q7 54 30 87.5t53.5 56t64 39.5t61.5 36.5t46.5 47.5t18.5 73q0 57 -39 91t-111 34q-60 0 -99 -22t-61 -48q-26 -31 -40 -70h-69q21 56 57 100
q15 19 35.5 37t46 32t56.5 22.5t69 8.5q51 0 91.5 -14t69 -38.5t44 -57.5t15.5 -70q0 -53 -19 -87t-48 -58.5t-63 -42.5t-64.5 -39t-52.5 -48.5t-26 -69.5h-66z" />
    <glyph glyph-name="at" unicode="@" horiz-adv-x="815" 
d="M448 -55q-78 0 -141.5 26t-109 71.5t-70 106.5t-24.5 132q0 88 33 163.5t89 131t129.5 87.5t154.5 32q78 0 140 -24.5t105 -64.5t65.5 -90.5t22.5 -102.5q0 -57 -19 -103t-54.5 -78.5t-86 -49.5t-114.5 -17h-31l8 44q-10 -16 -25 -27q-13 -11 -32.5 -19t-47.5 -8
t-53 10.5t-43.5 30t-29.5 46.5t-11 60q0 40 14.5 74t38.5 58t54 37.5t61 13.5q35 0 56.5 -11t33.5 -24.5t16 -24l4 -10.5l11 60h60l-45 -255h6q32 0 62.5 12.5t54 37.5t38 60.5t14.5 82.5q0 42 -18 83t-53.5 73t-87.5 51.5t-119 19.5q-68 0 -130 -26.5t-109 -74t-75 -113
t-28 -143.5q0 -62 21 -114t59.5 -89.5t93 -58.5t121.5 -21q35 0 65 5t52 12q26 8 46 18l-10 -55q-20 -10 -46 -18q-22 -7 -51.5 -12t-64.5 -5zM454 210q21 0 41 9.5t35.5 26t25 39.5t9.5 50q0 44 -25.5 69.5t-64.5 25.5q-21 0 -41 -9.5t-35.5 -26t-25 -39.5t-9.5 -50
q0 -44 25.5 -69.5t64.5 -25.5z" />
    <glyph glyph-name="A" unicode="A" horiz-adv-x="675" 
d="M353 700h250l62 -700h-65l-19 230h-370l-101 -230h-65zM576 290l-33 350h-150l-157 -350h340z" />
    <glyph glyph-name="B" unicode="B" horiz-adv-x="700" 
d="M213 700h307q47 0 82 -13.5t58.5 -37t35.5 -54t12 -63.5q0 -54 -19.5 -88t-43 -53.5t-42.5 -26.5t-18 -7l-2 -5q27 -11 49 -30q19 -17 34.5 -44t15.5 -68q0 -44 -17 -82.5t-48 -67t-74 -44.5t-95 -16h-358zM453 60q76 0 120 42t44 108q0 25 -9.5 46.5t-28 38t-46 26
t-63.5 9.5h-257l-47 -270h287zM502 390q62 0 101.5 38t39.5 102q0 45 -31.5 77.5t-91.5 32.5h-252l-44 -250h278z" />
    <glyph glyph-name="C" unicode="C" horiz-adv-x="800" 
d="M442 -20q-75 0 -136.5 24.5t-105.5 68t-68 104t-24 131.5q0 90 32.5 166t86.5 130.5t125.5 85t149.5 30.5q81 0 140.5 -26.5t98.5 -65t59.5 -81.5t25.5 -77h-66q-16 53 -49 95q-14 18 -34 35t-46.5 30.5t-60 21.5t-75.5 8q-64 0 -122.5 -25t-102.5 -71t-70.5 -110.5
t-26.5 -143.5q0 -60 19.5 -109.5t55.5 -85t86 -55.5t112 -20q42 0 77 9t63.5 23t51.5 32.5t40 37.5q40 45 65 103h67q-30 -75 -80 -133q-21 -25 -49.5 -48.5t-64 -42t-79 -30t-95.5 -11.5z" />
    <glyph glyph-name="D" unicode="D" horiz-adv-x="720" 
d="M213 700h197q71 0 131 -23t103 -65t67 -100t24 -127q0 -81 -30 -151t-82.5 -122t-122.5 -82t-151 -30h-259zM355 60q67 0 125 25t100 68.5t66 103t24 128.5q0 54 -19 101t-53.5 81t-82.5 53.5t-105 19.5h-142l-102 -580h189z" />
    <glyph glyph-name="E" unicode="E" horiz-adv-x="610" 
d="M213 700h475l-10 -60h-410l-45 -255h335l-11 -60h-335l-46 -265h410l-11 -60h-475z" />
    <glyph glyph-name="F" unicode="F" horiz-adv-x="580" 
d="M213 700h465l-10 -60h-400l-49 -275h320l-10 -60h-320l-54 -305h-65z" />
    <glyph glyph-name="G" unicode="G" horiz-adv-x="860" 
d="M442 -20q-75 0 -136.5 24.5t-105.5 68t-68 104t-24 131.5q0 90 32.5 166t86.5 130.5t125.5 85t149.5 30.5q81 0 139 -25t96 -62t58.5 -79.5t28.5 -78.5h-66q-16 52 -49 92q-14 17 -34 34t-46.5 30t-59.5 21t-74 8q-64 0 -122.5 -25t-102.5 -71t-70.5 -110.5t-26.5 -143.5
q0 -60 19.5 -109.5t55.5 -85t86 -55.5t112 -20q74 0 131 28t96 68.5t60 85t24 78.5h-138l10 60h295l-10 -60h-90q-9 -51 -38 -107t-77 -103.5t-115 -78.5t-152 -31z" />
    <glyph glyph-name="H" unicode="H" horiz-adv-x="715" 
d="M213 700h65l-55 -315h405l55 315h65l-123 -700h-65l57 325h-405l-57 -325h-65z" />
    <glyph glyph-name="I" unicode="I" horiz-adv-x="245" 
d="M213 700h65l-123 -700h-65z" />
    <glyph glyph-name="J" unicode="J" horiz-adv-x="550" 
d="M258 -20q-59 0 -100 17.5t-67.5 44t-40.5 57t-19 57.5l67 14q6 -37 25 -65q17 -25 49 -45t88 -20q66 0 114 43t62 124l87 493h65l-88 -499q-19 -106 -83.5 -163.5t-158.5 -57.5z" />
    <glyph glyph-name="K" unicode="K" horiz-adv-x="630" 
d="M213 700h65l-55 -315h155l280 315h80l-305 -340l192 -360h-80l-173 325h-160l-57 -325h-65z" />
    <glyph glyph-name="L" unicode="L" horiz-adv-x="525" 
d="M213 700h65l-112 -640h380l-11 -60h-445z" />
    <glyph glyph-name="M" unicode="M" horiz-adv-x="915" 
d="M213 700h105l148 -465h65l312 465h105l-123 -700h-65l113 640l-312 -465h-145l-148 465l-113 -640h-65z" />
    <glyph glyph-name="N" unicode="N" horiz-adv-x="725" 
d="M213 700h95l273 -635l112 635h65l-123 -700h-95l-273 635l-112 -635h-65z" />
    <glyph glyph-name="O" unicode="O" horiz-adv-x="820" 
d="M443 -20q-75 0 -136.5 24.5t-106 68.5t-68.5 104t-24 131q0 90 32 165.5t86 130.5t125 85.5t149 30.5q75 0 136.5 -24.5t106 -68.5t68.5 -104t24 -131q0 -90 -32 -165.5t-86 -130.5t-125 -85.5t-149 -30.5zM447 40q64 0 123 25t103 71t70.5 110.5t26.5 143.5
q0 60 -20 109.5t-56 85.5t-86.5 55.5t-111.5 19.5q-65 0 -123.5 -25t-102.5 -71t-70.5 -110.5t-26.5 -143.5q0 -60 19.5 -109.5t55.5 -85.5t86.5 -55.5t112.5 -19.5z" />
    <glyph glyph-name="P" unicode="P" horiz-adv-x="680" 
d="M213 700h267q56 0 99 -16.5t72.5 -44.5t44.5 -65t15 -77q0 -53 -19 -98t-53 -78t-81.5 -52t-104.5 -19h-254l-44 -250h-65zM457 310q44 0 79 13.5t59.5 38t37.5 58t13 74.5q0 30 -11 57t-32.5 46.5t-52.5 31t-70 11.5h-212l-58 -330h247z" />
    <glyph glyph-name="Q" unicode="Q" horiz-adv-x="820" 
d="M378 -15q-61 10 -111 38t-85 70.5t-54.5 97t-19.5 117.5q0 90 32 165.5t86 130.5t125 85.5t149 30.5q75 0 136.5 -24.5t106 -68.5t68.5 -104t24 -131q0 -90 -32.5 -165.5t-86.5 -130.5t-125 -85.5t-149 -30.5l-32 -180h-65zM447 40q64 0 123 25t103 71t70.5 110.5
t26.5 143.5q0 60 -20 109.5t-56 85.5t-86.5 55.5t-111.5 19.5q-65 0 -123.5 -25t-102.5 -71t-70.5 -110.5t-26.5 -143.5q0 -60 19.5 -109.5t55.5 -85.5t86.5 -55.5t112.5 -19.5z" />
    <glyph glyph-name="R" unicode="R" horiz-adv-x="685" 
d="M213 700h272q54 0 96.5 -15t72 -41t44.5 -61.5t15 -75.5q0 -48 -15.5 -89t-45 -72.5t-71 -50.5t-92.5 -23l131 -272h-75l-127 270h-215l-48 -270h-65zM467 330q42 0 76 12.5t57 35.5t35.5 55t12.5 71q0 61 -43 98.5t-130 37.5h-207l-55 -310h254z" />
    <glyph glyph-name="S" unicode="S" horiz-adv-x="635" 
d="M361 -20q-48 0 -85.5 9t-65.5 23t-48.5 32.5t-33.5 37.5q-33 45 -41 103h65l3 -11t11.5 -27t23 -35t38.5 -35t58.5 -26.5t81.5 -10.5q44 -2 79 10t59 32.5t36.5 46.5t12.5 53q0 40 -28.5 66.5t-71 47t-92.5 39t-92.5 42.5t-71 57.5t-28.5 84.5q0 40 17 76t49 64
t76.5 44.5t100.5 16.5q60 0 102.5 -14t71 -34.5t45 -44.5t25 -44.5t10.5 -34l2 -13.5h-64q-8 35 -33 62q-21 23 -60.5 43t-106.5 20q-39 0 -70.5 -10.5t-53.5 -29t-34 -42.5t-12 -51q0 -39 28.5 -65.5t71 -47.5t92.5 -40t92.5 -43.5t71 -58.5t28.5 -84q0 -41 -18 -78.5
t-52 -66t-81.5 -46t-107.5 -17.5z" />
    <glyph glyph-name="T" unicode="T" horiz-adv-x="585" 
d="M357 640h-250l11 60h565l-11 -60h-250l-113 -640h-65z" />
    <glyph glyph-name="U" unicode="U" horiz-adv-x="710" 
d="M376 -20q-66 0 -116.5 22t-83.5 61t-45.5 92t-1.5 115l76 430h65l-76 -430q-9 -51 -1 -93t32 -72.5t63.5 -47.5t93.5 -17q85 0 142.5 52t74.5 150l81 458h65l-82 -463q-11 -60 -36.5 -107.5t-63.5 -81t-85.5 -51t-101.5 -17.5z" />
    <glyph glyph-name="V" unicode="V" horiz-adv-x="675" 
d="M148 700h68l52 -640h145l278 640h72l-308 -700h-245z" />
    <glyph glyph-name="W" unicode="W" horiz-adv-x="960" 
d="M158 700h67l22 -640h35l253 640h124l27 -640h35l248 640h69l-278 -700h-136l-23 640h-30l-247 -640h-134z" />
    <glyph glyph-name="X" unicode="X" horiz-adv-x="635" 
d="M287 350l-119 350h67l109 -320h90l221 320h73l-241 -350l128 -350h-67l-119 320h-91l-231 -320h-72z" />
    <glyph glyph-name="Y" unicode="Y" horiz-adv-x="635" 
d="M320 255l-197 445h77l160 -370h5l290 370h83l-353 -445l-45 -255h-65z" />
    <glyph glyph-name="Z" unicode="Z" horiz-adv-x="600" 
d="M51 60l541 575l1 5h-425l10 60h510l-10 -60l-542 -575v-5h445l-11 -60h-530z" />
    <glyph glyph-name="bracketleft" unicode="[" horiz-adv-x="325" 
d="M217 725h210l-10 -60h-145l-132 -750h145l-11 -60h-210z" />
    <glyph glyph-name="backslash" unicode="\" horiz-adv-x="350" 
d="M128 700h65l152 -700h-65z" />
    <glyph glyph-name="bracketright" unicode="]" horiz-adv-x="325" 
d="M11 -85h145l132 750h-145l10 60h210l-153 -870h-210z" />
    <glyph glyph-name="asciicircum" unicode="^" horiz-adv-x="460" 
d="M260 700h80l145 -315h-60l-115 255h-20l-115 -255h-60z" />
    <glyph glyph-name="underscore" unicode="_" horiz-adv-x="310" 
d="M-25 -110h350l-10 -55h-350z" />
    <glyph glyph-name="grave" unicode="`" horiz-adv-x="225" 
d="M140 755h75l64 -145h-50z" />
    <glyph glyph-name="a" unicode="a" 
d="M305 -10q-46 0 -86 17.5t-69 48t-46 72.5t-17 92q0 63 23 116.5t60.5 92t85 60t97.5 21.5q44 0 77.5 -13t57 -32t37 -41.5t18.5 -40.5l21 117h60l-88 -500h-60l15 84q-10 -15 -27 -31.5t-41 -30.5t-53.5 -23t-64.5 -9zM312 45q37 0 74 16.5t67 46.5t48.5 72t18.5 93
q0 40 -13 73.5t-35.5 57.5t-52.5 37.5t-64 13.5q-37 0 -74 -16.5t-67 -46.5t-48.5 -72t-18.5 -93q0 -40 13 -73.5t35.5 -57.5t52.5 -37.5t64 -13.5z" />
    <glyph glyph-name="b" unicode="b" 
d="M351 -10q-44 0 -77.5 13t-57 32t-37 41.5t-18.5 40.5l-21 -117h-60l123 700h60l-50 -284q10 15 27 31.5t41 30.5t53.5 23t64.5 9q46 0 86 -17.5t69 -48t46 -73t17 -91.5q0 -63 -23 -116.5t-60.5 -92t-85 -60t-97.5 -21.5zM349 45q37 0 74 16.5t67 46.5t48.5 72t18.5 93
q0 40 -13 73.5t-35.5 57.5t-52.5 37.5t-64 13.5q-37 0 -74 -16.5t-67 -46.5t-48.5 -72t-18.5 -93q0 -40 13 -73.5t35.5 -57.5t52.5 -37.5t64 -13.5z" />
    <glyph glyph-name="c" unicode="c" horiz-adv-x="570" 
d="M314 -10q-48 0 -89 17t-72 48t-48.5 73.5t-17.5 92.5q0 63 23 116.5t61 91.5t86.5 59.5t99.5 21.5q36 0 65 -7.5t51.5 -20t38.5 -28.5t28 -32q27 -39 37 -87h-60q-11 34 -32 60q-18 23 -49.5 41.5t-81.5 18.5q-38 0 -75.5 -17t-66.5 -47t-47 -72.5t-18 -93.5
q0 -40 13 -73t36 -57t54 -37t66 -13q51 0 87 20t59 45q27 28 45 65h60q-21 -53 -56 -93q-15 -17 -34.5 -33.5t-44 -29.5t-54 -21t-64.5 -8z" />
    <glyph glyph-name="d" unicode="d" 
d="M305 -10q-46 0 -86 17.5t-69 48t-46 72.5t-17 92q0 63 23 116.5t60.5 92t85 60t97.5 21.5q44 0 77.5 -13t57 -32t37 -41.5t18.5 -40.5l55 317h60l-122 -700h-60l15 84q-10 -15 -27 -31.5t-41 -30.5t-53.5 -23t-64.5 -9zM312 45q37 0 74 16.5t67 46.5t48.5 72t18.5 93
q0 40 -13 73.5t-35.5 57.5t-52.5 37.5t-64 13.5q-37 0 -74 -16.5t-67 -46.5t-48.5 -72t-18.5 -93q0 -40 13 -73.5t35.5 -57.5t52.5 -37.5t64 -13.5z" />
    <glyph glyph-name="e" unicode="e" horiz-adv-x="590" 
d="M320 -10q-51 0 -94 17t-73.5 48t-48 73t-17.5 93q0 56 20.5 108t57 92.5t86.5 64.5t110 24q51 0 93.5 -17.5t72.5 -48.5t47 -73t17 -91q0 -10 -1 -19t-2 -16q-1 -8 -2 -15h-439v-5q0 -39 12.5 -72t36 -57t56 -37.5t72.5 -13.5q48 0 83.5 17t58.5 38q27 24 46 55h60
q-24 -47 -60 -83q-31 -31 -78.5 -56.5t-113.5 -25.5zM528 285q0 28 -10.5 58t-31.5 55t-53 41t-75 16q-40 0 -74 -14.5t-61 -38.5t-44.5 -54.5t-24.5 -62.5h374z" />
    <glyph glyph-name="f" unicode="f" horiz-adv-x="305" 
d="M168 445h-70l10 55h70l35 200h225l-9 -55h-165l-26 -145h135l-10 -55h-135l-78 -445h-60z" />
    <glyph glyph-name="g" unicode="g" 
d="M87 -135h365l39 219q-10 -15 -27 -31.5t-41 -30.5t-53.5 -23t-64.5 -9q-46 0 -86 17.5t-69 48t-46 72.5t-17 92q0 63 23 116.5t60.5 92t85 60t97.5 21.5q44 0 77.5 -13t57 -32t37 -41.5t18.5 -40.5l21 117h60l-122 -690h-425zM312 45q37 0 74 16.5t67 46.5t48.5 72
t18.5 93q0 40 -13 73.5t-35.5 57.5t-52.5 37.5t-64 13.5q-37 0 -74 -16.5t-67 -46.5t-48.5 -72t-18.5 -93q0 -40 13 -73.5t35.5 -57.5t52.5 -37.5t64 -13.5z" />
    <glyph glyph-name="h" unicode="h" horiz-adv-x="580" 
d="M203 700h60l-47 -270q16 22 40 40q20 15 52 27.5t78 12.5q50 0 87 -17t59 -47.5t29 -73.5t-2 -94l-49 -278h-60l51 289q6 36 1.5 66t-20 52.5t-42.5 35t-65 12.5q-33 0 -63.5 -12t-55 -33.5t-42 -51.5t-23.5 -67l-51 -291h-60z" />
    <glyph glyph-name="i" unicode="i" horiz-adv-x="220" 
d="M168 500h60l-88 -500h-60zM221 605q-19 0 -30 12.5t-11 29.5q0 20 14.5 34t34.5 14q19 0 30 -12.5t11 -29.5q0 -20 -14.5 -34t-34.5 -14z" />
    <glyph glyph-name="j" unicode="j" horiz-adv-x="220" 
d="M-88 -135h145l111 635h60l-121 -690h-205zM222 605q-19 0 -30 12.5t-11 29.5q0 20 14.5 34t34.5 14q19 0 30 -12.5t11 -29.5q0 -20 -14.5 -34t-34.5 -14z" />
    <glyph glyph-name="k" unicode="k" horiz-adv-x="520" 
d="M203 700h60l-72 -410h119l202 210h71l-227 -240l154 -260h-69l-139 235h-121l-41 -235h-60z" />
    <glyph glyph-name="l" unicode="l" horiz-adv-x="270" 
d="M203 700h60l-113 -645h115l-10 -55h-175z" />
    <glyph glyph-name="m" unicode="m" horiz-adv-x="910" 
d="M168 500h60l-12 -70q18 22 43 40q21 15 51.5 27.5t71.5 12.5q46 0 75.5 -16.5t46.5 -36.5q19 -23 29 -52h6q19 29 46 52q23 20 59 36.5t86 16.5q43 0 77 -17t55.5 -47.5t29 -73t-1.5 -93.5l-50 -279h-60l51 284q7 37 2.5 68.5t-19 54.5t-38.5 35.5t-56 12.5
q-30 0 -59.5 -11.5t-53.5 -32t-40.5 -48.5t-22.5 -60l-54 -303h-60l51 286q6 36 1.5 67t-18.5 53.5t-38 35.5t-57 13q-30 0 -59 -11.5t-53 -31.5t-40.5 -47.5t-22.5 -59.5l-54 -305h-60z" />
    <glyph glyph-name="n" unicode="n" horiz-adv-x="580" 
d="M168 500h60l-12 -70q16 22 40 40q20 15 52 27.5t78 12.5q50 0 87 -17t59 -47.5t29 -73.5t-2 -94l-49 -278h-60l51 289q6 36 1.5 66t-20 52.5t-42.5 35t-65 12.5q-33 0 -63.5 -12t-55 -33.5t-42 -51.5t-23.5 -67l-51 -291h-60z" />
    <glyph glyph-name="o" unicode="o" horiz-adv-x="600" 
d="M323 -10q-53 0 -96.5 17.5t-74.5 48.5t-48 73.5t-17 91.5q0 63 22.5 116t61 91.5t88.5 60t105 21.5q53 0 96.5 -17.5t74.5 -48.5t48 -73.5t17 -91.5q0 -63 -23 -116t-61 -91.5t-88 -60t-105 -21.5zM326 45q42 0 80.5 17t68.5 47.5t47.5 72.5t17.5 93q0 39 -13 72
t-36.5 57t-56.5 37.5t-73 13.5q-42 0 -80.5 -17t-68.5 -47.5t-47.5 -72.5t-17.5 -93q0 -39 13 -72t36.5 -57t56.5 -37.5t73 -13.5z" />
    <glyph glyph-name="p" unicode="p" 
d="M167 500h60l-15 -84q10 15 27 31.5t41 30.5t53.5 23t64.5 9q46 0 86 -17.5t69 -48t46 -73t17 -91.5q0 -63 -23 -116.5t-60.5 -92t-85 -60t-97.5 -21.5q-44 0 -77.5 13t-57 32t-37 41.5t-18.5 40.5l-54 -307h-60zM348 45q37 0 74 16.5t67 46.5t48.5 72t18.5 93
q0 40 -13 73.5t-35.5 57.5t-52.5 37.5t-64 13.5q-37 0 -74 -16.5t-67 -46.5t-48.5 -72t-18.5 -93q0 -40 13 -73.5t35.5 -57.5t52.5 -37.5t64 -13.5z" />
    <glyph glyph-name="q" unicode="q" 
d="M491 84q-10 -15 -27 -31.5t-41 -30.5t-53.5 -23t-64.5 -9q-46 0 -86 17.5t-69 48t-46 72.5t-17 92q0 63 23 116.5t60.5 92t85 60t97.5 21.5q44 0 77.5 -13t57 -32t37 -41.5t18.5 -40.5l21 117h60l-122 -690h-60zM312 45q37 0 74 16.5t67 46.5t48.5 72t18.5 93
q0 40 -13 73.5t-35.5 57.5t-52.5 37.5t-64 13.5q-37 0 -74 -16.5t-67 -46.5t-48.5 -72t-18.5 -93q0 -40 13 -73.5t35.5 -57.5t52.5 -37.5t64 -13.5z" />
    <glyph glyph-name="r" unicode="r" horiz-adv-x="375" 
d="M168 500h60l-17 -95q16 28 42 50q22 19 55 34.5t81 15.5h60l-10 -55h-60q-36 0 -67.5 -12.5t-56.5 -35.5t-42.5 -55.5t-24.5 -71.5l-48 -275h-60z" />
    <glyph glyph-name="s" unicode="s" horiz-adv-x="510" 
d="M298 -10q-38 0 -68 7t-53.5 18t-40 25.5t-28.5 29.5q-27 35 -37 80h64q8 -30 28 -53q17 -20 50 -36t89 -16q62 0 94 26t32 64q0 27 -22 44.5t-55 30t-72 24t-72 28.5t-55 41.5t-22 63.5q0 28 12 53.5t34.5 45.5t56 32t77.5 12q35 0 62.5 -6.5t48.5 -16.5t36.5 -23.5
t26.5 -26.5q25 -32 34 -72h-65q-9 25 -27 45q-16 17 -44.5 31t-75.5 14q-59 0 -87.5 -25t-28.5 -56q0 -28 22 -45t55 -29.5t72 -24.5t72 -28.5t55 -41t22 -63.5q0 -32 -12.5 -59.5t-37 -48t-60 -32.5t-80.5 -12z" />
    <glyph glyph-name="t" unicode="t" horiz-adv-x="355" 
d="M173 445h-70l10 55h70l20 110h60l-20 -110h165l-10 -55h-165l-68 -390h170l-10 -55h-230z" />
    <glyph glyph-name="u" unicode="u" horiz-adv-x="590" 
d="M289 -10q-50 0 -87 17t-59 47.5t-29 73.5t2 94l49 278h60l-51 -289q-6 -36 -1.5 -66t20 -52.5t42.5 -35t65 -12.5q33 0 63.5 12t55 33.5t42 51.5t23.5 67l51 291h60l-88 -500h-60l12 70q-16 -22 -40 -40q-20 -15 -52.5 -27.5t-77.5 -12.5z" />
    <glyph glyph-name="v" unicode="v" horiz-adv-x="525" 
d="M108 500h63l42 -445h105l198 445h67l-228 -500h-195z" />
    <glyph glyph-name="w" unicode="w" horiz-adv-x="770" 
d="M113 500h64l17 -445h36l168 445h130l12 -445h34l173 445h66l-198 -500h-136l-12 445h-30l-168 -445h-134z" />
    <glyph glyph-name="x" unicode="x" horiz-adv-x="490" 
d="M210 255l-97 245h69l82 -215h65l158 215h71l-183 -245l105 -255h-69l-89 230h-64l-171 -230h-72z" />
    <glyph glyph-name="y" unicode="y" horiz-adv-x="505" 
d="M275 0h-125l-47 500h66l37 -445h94l208 445h65l-327 -690h-65z" />
    <glyph glyph-name="z" unicode="z" horiz-adv-x="470" 
d="M45 55l388 390h-310l10 55h390l-10 -55l-388 -390h330l-10 -55h-410z" />
    <glyph glyph-name="braceleft" unicode="{" horiz-adv-x="340" 
d="M239 -145q-60 0 -89 34t-20 86l41 235q9 55 -45 55h-30l10 55h30q55 0 64 55l41 230q9 52 50 86t101 34h60l-10 -60h-60q-30 0 -50.5 -17t-25.5 -43l-41 -230q-5 -26 -17 -42t-25 -24q-15 -10 -32 -14l-1 -5q16 -4 27 -14q10 -8 17 -24t2 -42l-41 -235q-5 -26 9.5 -43
t44.5 -17h60l-10 -60h-60v0z" />
    <glyph glyph-name="bar" unicode="|" horiz-adv-x="305" 
d="M180 750h65v-850h-65v850z" />
    <glyph glyph-name="braceright" unicode="}" horiz-adv-x="340" 
d="M-4 -85h60q30 0 50 17t25 43l42 235q5 26 16.5 42t24.5 24q15 10 33 14l1 5q-17 4 -28 14q-10 8 -16.5 24t-1.5 42l40 230q5 26 -9.5 43t-44.5 17h-60l10 60h60q60 0 89 -34t20 -86l-40 -230q-9 -55 45 -55h30l-10 -55h-30q-55 0 -64 -55l-42 -235q-9 -52 -50 -86
t-101 -34h-60z" />
    <glyph glyph-name="asciitilde" unicode="~" horiz-adv-x="500" 
d="M105 265q0 57 30.5 88.5t79.5 31.5q32 0 57 -12.5t46.5 -27.5t41 -27.5t40.5 -12.5q55 0 55 60v20h60v-20q0 -57 -30.5 -88.5t-79.5 -31.5q-32 0 -57 12.5t-46.5 27.5t-41 27.5t-40.5 12.5q-55 0 -55 -60v-20h-60v20z" />
    <glyph glyph-name="nonbreakingspace" unicode="&#xa0;" horiz-adv-x="280" 
 />
    <glyph glyph-name="exclamdown" unicode="&#xa1;" horiz-adv-x="280" 
d="M143 160l34 135h40l-14 -135l-62 -350h-60zM222 410q-22 0 -34.5 13t-12.5 32q0 26 15.5 40.5t38.5 14.5q22 0 34.5 -13t12.5 -32q0 -26 -15.5 -40.5t-38.5 -14.5z" />
    <glyph glyph-name="cent" unicode="&#xa2;" horiz-adv-x="570" 
d="M258 -3q-37 9 -68.5 29t-54 49t-35.5 66t-13 80q0 62 22 114t59 90.5t83.5 60.5t96.5 24l15 80h60l-16 -84q56 -11 89.5 -39t51.5 -57q21 -34 29 -75h-60q-11 34 -32 60q-18 23 -49.5 41.5t-81.5 18.5q-38 0 -75.5 -17t-66.5 -47t-47 -72.5t-18 -93.5q0 -40 13 -73
t36 -57t54 -37t66 -13q51 0 87 20t59 45q27 28 45 65h60q-22 -52 -56 -92q-29 -35 -77 -63.5t-117 -29.5l-16 -90h-60z" />
    <glyph glyph-name="sterling" unicode="&#xa3;" horiz-adv-x="550" 
d="M46 60h15q38 0 62.5 22.5t32.5 67.5l34 195h-74l10 60h75l25 145q9 52 31.5 86.5t51.5 55.5t61 29.5t61 8.5q33 0 59 -7t45.5 -18t33 -25.5t22.5 -29.5q21 -35 26 -80h-64q-4 28 -19 50q-13 19 -38.5 34.5t-70.5 15.5q-48 0 -85.5 -29t-49.5 -96l-24 -140h170l-10 -60
h-171l-34 -195q-5 -26 -13.5 -43t-16.5 -26q-10 -11 -20 -16v-5h375l-11 -60h-500z" />
    <glyph glyph-name="currency" unicode="&#xa4;" horiz-adv-x="675" 
d="M139 110h-85l11 60h85l15 90h-85l11 60h85l67 380h237q52 0 94.5 -15t72.5 -42t46.5 -63.5t16.5 -79.5q0 -51 -19 -94.5t-52.5 -76t-81 -51t-104.5 -18.5h-223l-15 -90h255l-11 -60h-255l-19 -110h-65zM459 320q43 0 77.5 14t58.5 38t37 56.5t13 69.5q0 29 -11 55
t-32 45.5t-52 30.5t-70 11h-183l-56 -320h218z" />
    <glyph glyph-name="yen" unicode="&#xa5;" horiz-adv-x="635" 
d="M290 90h-155l11 60h155l12 70h-155l11 60h150l-196 420h77l162 -360h5l288 360h83l-344 -420h150l-11 -60h-155l-12 -70h155l-11 -60h-155l-15 -90h-65z" />
    <glyph glyph-name="brokenbar" unicode="&#xa6;" horiz-adv-x="305" 
d="M180 265h65v-365h-65v365zM180 750h65v-365h-65v365z" />
    <glyph glyph-name="section" unicode="&#xa7;" horiz-adv-x="565" 
d="M321 -20q-78 0 -124.5 22.5t-70.5 49.5q-28 32 -38 73h63q9 -26 30 -45q18 -17 51.5 -31t90.5 -14q35 0 60 6.5t40.5 17.5t23 25t7.5 29q0 27 -24 46t-60 34t-78.5 29t-78.5 32.5t-60 43.5t-24 62q0 25 10.5 46t27.5 37t40 26.5t48 15.5q-29 13 -50.5 40.5t-21.5 60.5
q0 26 13 50t37.5 43t60.5 30t82 11q76 0 120.5 -22t67.5 -48q27 -31 36 -70h-64l-6 13.5t-23.5 29.5t-50 29t-86.5 13q-34 0 -58 -6.5t-39.5 -18t-22.5 -25.5t-7 -29q0 -27 24 -45.5t60 -34t78.5 -29.5t78.5 -32t60 -43t24 -62q0 -28 -12.5 -50t-31.5 -37.5t-40.5 -25
t-40.5 -12.5q29 -13 50 -41t21 -61q0 -26 -12.5 -50t-37 -42.5t-60.5 -29.5t-83 -11zM391 245q24 2 45.5 10.5t37 21t25 27.5t9.5 31q0 22 -19.5 38.5t-49 30t-65 26t-68.5 25.5q-24 -2 -45 -10.5t-37 -21t-25.5 -27.5t-9.5 -31q0 -22 19 -38.5t48.5 -30t65.5 -26t69 -25.5z
" />
    <glyph glyph-name="dieresis" unicode="&#xa8;" horiz-adv-x="320" 
d="M186 635q-19 0 -30 12.5t-11 29.5q0 20 14.5 34t34.5 14q19 0 30 -12.5t11 -29.5q0 -20 -14.5 -34t-34.5 -14zM356 635q-19 0 -30 12.5t-11 29.5q0 20 14.5 34t34.5 14q19 0 30 -12.5t11 -29.5q0 -20 -14.5 -34t-34.5 -14z" />
    <glyph glyph-name="copyright" unicode="&#xa9;" horiz-adv-x="840" 
d="M484 -20q-79 0 -146.5 28.5t-117 78t-78 117t-28.5 146.5t28.5 146.5t78 117t117 78t146.5 28.5t146.5 -28.5t117 -78t78 -117t28.5 -146.5t-28.5 -146.5t-78 -117t-117 -78t-146.5 -28.5zM484 35q66 0 122.5 24t98 66t65.5 99.5t24 125.5q0 67 -24 125t-65.5 100t-98 66
t-122.5 24t-122.5 -24t-98 -66t-65.5 -100t-24 -125q0 -68 24 -125.5t65.5 -99.5t98 -66t122.5 -24zM489 165q-38 0 -70 13.5t-55 38t-36.5 58.5t-13.5 75t13.5 75t36.5 58.5t55 38t70 13.5q49 0 81.5 -20t52.5 -43q23 -27 36 -62h-65q-9 19 -23 35q-12 13 -32 24t-50 11
q-49 0 -82 -35t-33 -95t33 -95t82 -35q30 0 50 10.5t32 24.5q14 15 23 35h65q-13 -36 -36 -63q-20 -23 -52.5 -42.5t-81.5 -19.5z" />
    <glyph glyph-name="ordfeminine" unicode="&#xaa;" horiz-adv-x="380" 
d="M227 370q-49 0 -79 26.5t-30 64.5q0 45 32.5 74.5t85.5 29.5h125l2 14q5 35 -15 55.5t-54 20.5q-23 0 -37.5 -7.5t-24.5 -15.5q-11 -10 -18 -22h-67q15 28 37 50q19 19 48 34.5t70 15.5q32 0 56.5 -11.5t40.5 -30t22.5 -43t1.5 -51.5l-36 -204h-60l9 49h-5
q-12 -14 -28 -25q-14 -9 -33 -16.5t-43 -7.5zM242 425q19 0 37.5 7.5t33.5 20.5t25 29t14 33h-112q-31 0 -46.5 -14.5t-15.5 -34.5q0 -18 17 -29.5t47 -11.5z" />
    <glyph glyph-name="guillemotleft" unicode="&#xab;" horiz-adv-x="530" 
d="M85 250l246 235l34 -41l-205 -197l135 -193l-46 -39zM285 250l246 235l34 -41l-205 -197l135 -193l-46 -39z" />
    <glyph glyph-name="logicalnot" unicode="&#xac;" horiz-adv-x="500" 
d="M440 285h-315v55h375v-165h-60v110z" />
    <glyph glyph-name="uni00AD" unicode="&#xad;" horiz-adv-x="480" 
d="M120 310h360l-11 -60h-360z" />
    <glyph glyph-name="registered" unicode="&#xae;" horiz-adv-x="600" 
d="M370 210q-56 0 -104 19.5t-82.5 53.5t-54 81t-19.5 101t19.5 101t54 81t82.5 53.5t104 19.5t104 -19.5t82.5 -53.5t54 -81t19.5 -101t-19.5 -101t-54 -81t-82.5 -53.5t-104 -19.5zM370 260q47 0 85.5 15t66.5 42.5t43 65t15 82.5t-15 82.5t-43 65t-66.5 42.5t-85.5 15
t-85.5 -15t-66.5 -42.5t-43 -65t-15 -82.5t15 -82.5t43 -65t66.5 -42.5t85.5 -15zM275 590h110q49 0 74.5 -23.5t25.5 -61.5q0 -23 -8.5 -37.5t-19.5 -22.5q-12 -10 -27 -15l55 -85h-55l-50 75h-55v-75h-50v245zM385 470q26 0 38 10t12 25t-12 25t-38 10h-60v-70h60z" />
    <glyph glyph-name="macron" unicode="&#xaf;" horiz-adv-x="315" 
d="M150 710h255l-10 -55h-255z" />
    <glyph glyph-name="degree" unicode="&#xb0;" horiz-adv-x="330" 
d="M255 450q-26 0 -49.5 9.5t-41.5 26.5t-28.5 40t-10.5 49t10.5 49t28.5 40t41.5 26.5t49.5 9.5t49.5 -9.5t41.5 -26.5t28.5 -40t10.5 -49t-10.5 -49t-28.5 -40t-41.5 -26.5t-49.5 -9.5zM255 500q30 0 52.5 20.5t22.5 54.5t-22.5 54.5t-52.5 20.5t-52.5 -20.5t-22.5 -54.5
t22.5 -54.5t52.5 -20.5z" />
    <glyph glyph-name="plusminus" unicode="&#xb1;" horiz-adv-x="500" 
d="M115 85h165v170h-165v55h165v175h60v-175h165v-55h-165v-170h165v-55h-390v55z" />
    <glyph glyph-name="twosuperior" unicode="&#xb2;" horiz-adv-x="350" 
d="M121 515l94 50q42 22 71.5 39t48 32t27 30t8.5 34q0 23 -17.5 39t-55.5 16q-23 0 -39.5 -9.5t-26.5 -20.5q-12 -13 -19 -30h-61q11 31 31 57q17 22 45.5 40t71.5 18q32 0 56.5 -8.5t41 -23t25 -33.5t8.5 -40q0 -53 -51.5 -97t-163.5 -93h186l-10 -55h-280z" />
    <glyph glyph-name="threesuperior" unicode="&#xb3;" horiz-adv-x="345" 
d="M258 450q-48 0 -76.5 16t-42.5 36q-17 23 -22 53h65q3 -14 13 -25q8 -10 23.5 -17.5t42.5 -7.5q35 0 54.5 17.5t19.5 45.5q0 20 -17.5 36t-62.5 16h-61l9 50l119 75h-155l9 55h240l-9 -55l-119 -75q53 -7 80 -35t27 -67q0 -24 -10 -45.5t-28 -37.5t-43.5 -25.5
t-55.5 -9.5z" />
    <glyph glyph-name="acute" unicode="&#xb4;" horiz-adv-x="225" 
d="M271 755h75l-141 -145h-50z" />
    <glyph glyph-name="mu" unicode="&#xb5;" horiz-adv-x="590" 
d="M165 500h60l-51 -289q-6 -36 -1.5 -66t20 -52.5t42.5 -35t65 -12.5q33 0 63.5 12t55 33.5t42 51.5t23.5 67l51 291h60l-88 -500h-60l12 70q-16 -22 -40 -40q-20 -15 -52 -27.5t-75 -12.5q-41 0 -68.5 12t-44 26t-23.5 26.5l-7 12.5l-47 -267h-60z" />
    <glyph glyph-name="paragraph" unicode="&#xb6;" horiz-adv-x="385" 
d="M290 350q-39 0 -72 14.5t-57 39t-37.5 56t-13.5 65.5q0 37 13.5 69.5t38.5 55.5t60.5 36.5t79.5 13.5h138v-60h-85v-830h-65v540z" />
    <glyph glyph-name="periodcentered" unicode="&#xb7;" horiz-adv-x="280" 
d="M188 215q-23 0 -35.5 12t-12.5 32q0 25 15 40.5t38 15.5t35.5 -12t12.5 -32q0 -25 -15 -40.5t-38 -15.5z" />
    <glyph glyph-name="cedilla" unicode="&#xb8;" horiz-adv-x="235" 
d="M71 -235q-20 0 -34.5 4t-24.5 9q-11 6 -19 14l8 44q7 -8 18 -13q9 -5 22.5 -9t32.5 -4q24 0 40 14.5t16 38.5q0 17 -13 29.5t-42 12.5h-32l69 105h45l-44 -67q28 -4 47.5 -26t19.5 -51q0 -45 -31.5 -73t-77.5 -28z" />
    <glyph glyph-name="onesuperior" unicode="&#xb9;" horiz-adv-x="340" 
d="M146 515h100l38 220l-99 -55l11 65l105 55h55l-50 -285h95l-10 -55h-255z" />
    <glyph glyph-name="ordmasculine" unicode="&#xba;" horiz-adv-x="410" 
d="M277 370q-34 0 -63 12t-50 33t-32.5 49t-11.5 61q0 39 15 73t40.5 58.5t59 39t69.5 14.5q34 0 63 -12t50 -33t32.5 -49t11.5 -61q0 -39 -15 -73t-40.5 -58.5t-59 -39t-69.5 -14.5zM282 425q24 0 46 9t38 26.5t25.5 41.5t9.5 54q0 44 -27 71.5t-75 27.5q-24 0 -46 -9
t-38 -26.5t-25.5 -41.5t-9.5 -54q0 -44 27 -71.5t75 -27.5z" />
    <glyph glyph-name="guillemotright" unicode="&#xbb;" horiz-adv-x="530" 
d="M60 56l205 197l-135 193l46 39l164 -235l-246 -235zM260 56l205 197l-135 193l46 39l164 -235l-246 -235z" />
    <glyph glyph-name="onequarter" unicode="&#xbc;" horiz-adv-x="735" 
d="M699 700h60l-553 -700h-60zM129 415h100l38 220l-99 -55l11 65l105 55h55l-50 -285h95l-10 -55h-255zM607 75h-175l10 55l172 210h65l-172 -210h110l12 70h60l-12 -70h50l-10 -55h-50l-13 -75h-60z" />
    <glyph glyph-name="onehalf" unicode="&#xbd;" horiz-adv-x="790" 
d="M699 700h60l-553 -700h-60zM129 415h100l38 220l-99 -55l11 65l105 55h55l-50 -285h95l-10 -55h-255zM464 55l94 50q42 22 71.5 39t48 32t27 30t8.5 34q0 23 -17.5 39t-55.5 16q-23 0 -39.5 -9.5t-26.5 -20.5q-12 -13 -19 -30h-61q11 31 31 57q17 22 45.5 40t71.5 18
q32 0 56.5 -8.5t41 -23t25 -33.5t8.5 -40q0 -53 -51.5 -97t-163.5 -93h186l-10 -55h-280z" />
    <glyph glyph-name="threequarters" unicode="&#xbe;" horiz-adv-x="730" 
d="M694 700h60l-553 -700h-60zM241 350q-48 0 -76.5 16t-42.5 36q-17 23 -22 53h65q3 -14 13 -25q8 -10 23.5 -17.5t42.5 -7.5q35 0 54.5 17.5t19.5 45.5q0 20 -17.5 36t-62.5 16h-61l9 50l119 75h-155l9 55h240l-9 -55l-119 -75q53 -7 80 -35t27 -67q0 -24 -10 -45.5
t-28 -37.5t-43.5 -25.5t-55.5 -9.5zM602 75h-175l10 55l172 210h65l-172 -210h110l12 70h60l-12 -70h50l-10 -55h-50l-13 -75h-60z" />
    <glyph glyph-name="questiondown" unicode="&#xbf;" horiz-adv-x="525" 
d="M269 -205q-51 0 -91.5 14t-69 38.5t-44 57.5t-15.5 70q0 54 18.5 87t47 55t62 37.5t63 33.5t51 43.5t26.5 68.5h66q-8 -54 -31.5 -86t-53.5 -52.5t-62.5 -34.5t-59.5 -31.5t-44.5 -44t-17.5 -71.5q0 -57 39 -91t111 -34q30 0 54.5 6t44 16t35 22.5t26.5 25.5q26 31 40 70
h69q-21 -56 -57 -100q-15 -19 -35.5 -37t-46 -32t-57 -22.5t-68.5 -8.5zM375 410q-22 0 -34.5 13t-12.5 32q0 26 15.5 40.5t38.5 14.5q22 0 34.5 -13t12.5 -32q0 -26 -15.5 -40.5t-38.5 -14.5z" />
    <glyph glyph-name="Agrave" unicode="&#xc0;" horiz-adv-x="675" 
d="M353 700h250l62 -700h-65l-19 230h-370l-101 -230h-65zM576 290l-33 350h-150l-157 -350h340zM375 935h75l64 -145h-50z" />
    <glyph glyph-name="Aacute" unicode="&#xc1;" horiz-adv-x="675" 
d="M353 700h250l62 -700h-65l-19 230h-370l-101 -230h-65zM576 290l-33 350h-150l-157 -350h340zM576 935h75l-141 -145h-50z" />
    <glyph glyph-name="Acircumflex" unicode="&#xc2;" horiz-adv-x="675" 
d="M353 700h250l62 -700h-65l-19 230h-370l-101 -230h-65zM576 290l-33 350h-150l-157 -350h340zM481 935h65l84 -145h-58l-57 100h-15l-93 -100h-62z" />
    <glyph glyph-name="Atilde" unicode="&#xc3;" horiz-adv-x="675" 
d="M353 700h250l62 -700h-65l-19 230h-370l-101 -230h-65zM576 290l-33 350h-150l-157 -350h340zM549 805q-24 0 -40 10t-28.5 22.5t-23.5 22.5t-26 10t-27.5 -10t-14.5 -25l-4 -25h-50l5 26q7 37 34 60.5t65 23.5q24 0 40 -10t28.5 -22.5t24 -22.5t26.5 -10t27 10t14 25
l4 25h51l-5 -26q-7 -37 -34.5 -60.5t-65.5 -23.5z" />
    <glyph glyph-name="Adieresis" unicode="&#xc4;" horiz-adv-x="675" 
d="M353 700h250l62 -700h-65l-19 230h-370l-101 -230h-65zM576 290l-33 350h-150l-157 -350h340zM411 815q-19 0 -30 12.5t-11 29.5q0 20 14.5 34t34.5 14q19 0 30 -12.5t11 -29.5q0 -20 -14.5 -34t-34.5 -14zM581 815q-19 0 -30 12.5t-11 29.5q0 20 14.5 34t34.5 14
q19 0 30 -12.5t11 -29.5q0 -20 -14.5 -34t-34.5 -14z" />
    <glyph glyph-name="Aring" unicode="&#xc5;" horiz-adv-x="675" 
d="M353 700h250l62 -700h-65l-19 230h-370l-101 -230h-65zM576 290l-33 350h-150l-157 -350h340zM492 760q-39 0 -65.5 26.5t-26.5 63.5q0 22 9 42t24 35t35 24t41 9q39 0 65.5 -26.5t26.5 -63.5q0 -23 -9 -43t-24 -35t-35 -23.5t-41 -8.5zM496 805q23 0 41.5 18t18.5 42
q0 21 -14.5 35.5t-36.5 14.5q-23 0 -41.5 -18t-18.5 -42q0 -21 14.5 -35.5t36.5 -14.5z" />
    <glyph glyph-name="AE" unicode="&#xc6;" horiz-adv-x="985" 
d="M353 700h710l-10 -60h-390l-45 -255h315l-11 -60h-315l-46 -265h390l-11 -60h-455l41 230h-315l-101 -230h-65zM536 290l62 350h-205l-157 -350h300z" />
    <glyph glyph-name="Ccedilla" unicode="&#xc7;" horiz-adv-x="800" 
d="M376 -235q-20 0 -34.5 4t-24.5 9q-11 6 -19 14l8 44q7 -8 18 -13q9 -5 22.5 -9t32.5 -4q24 0 40 14.5t16 38.5q0 17 -13 29.5t-42 12.5h-32l51 77q-66 7 -119.5 34t-91.5 70t-59 99.5t-21 122.5q0 90 32.5 166t86.5 130.5t125.5 85t149.5 30.5q81 0 140.5 -26.5t98.5 -65
t59.5 -81.5t25.5 -77h-66q-16 53 -49 95q-14 18 -34 35t-46.5 30.5t-60 21.5t-75.5 8q-64 0 -122.5 -25t-102.5 -71t-70.5 -110.5t-26.5 -143.5q0 -60 19.5 -109.5t55.5 -85t86 -55.5t112 -20q42 0 77 9t63.5 23t51.5 32.5t40 37.5q40 45 65 103h67q-30 -74 -80 -132
q-21 -25 -49.5 -49t-64 -42.5t-79 -30t-95.5 -11.5l-24 -37q28 -4 47.5 -26t19.5 -51q0 -45 -31.5 -73t-77.5 -28z" />
    <glyph glyph-name="Egrave" unicode="&#xc8;" horiz-adv-x="610" 
d="M213 700h475l-10 -60h-410l-45 -255h335l-11 -60h-335l-46 -265h410l-11 -60h-475zM350 935h75l64 -145h-50z" />
    <glyph glyph-name="Eacute" unicode="&#xc9;" horiz-adv-x="610" 
d="M213 700h475l-10 -60h-410l-45 -255h335l-11 -60h-335l-46 -265h410l-11 -60h-475zM551 935h75l-141 -145h-50z" />
    <glyph glyph-name="Ecircumflex" unicode="&#xca;" horiz-adv-x="610" 
d="M213 700h475l-10 -60h-410l-45 -255h335l-11 -60h-335l-46 -265h410l-11 -60h-475zM451 935h65l84 -145h-58l-57 100h-15l-93 -100h-62z" />
    <glyph glyph-name="Edieresis" unicode="&#xcb;" horiz-adv-x="610" 
d="M213 700h475l-10 -60h-410l-45 -255h335l-11 -60h-335l-46 -265h410l-11 -60h-475zM386 815q-19 0 -30 12.5t-11 29.5q0 20 14.5 34t34.5 14q19 0 30 -12.5t11 -29.5q0 -20 -14.5 -34t-34.5 -14zM556 815q-19 0 -30 12.5t-11 29.5q0 20 14.5 34t34.5 14q19 0 30 -12.5
t11 -29.5q0 -20 -14.5 -34t-34.5 -14z" />
    <glyph glyph-name="Igrave" unicode="&#xcc;" horiz-adv-x="245" 
d="M213 700h65l-123 -700h-65zM145 935h75l64 -145h-50z" />
    <glyph glyph-name="Iacute" unicode="&#xcd;" horiz-adv-x="245" 
d="M213 700h65l-123 -700h-65zM356 935h75l-141 -145h-50z" />
    <glyph glyph-name="Icircumflex" unicode="&#xce;" horiz-adv-x="245" 
d="M213 700h65l-123 -700h-65zM251 935h65l84 -145h-58l-57 100h-15l-93 -100h-62z" />
    <glyph glyph-name="Idieresis" unicode="&#xcf;" horiz-adv-x="245" 
d="M213 700h65l-123 -700h-65zM181 815q-19 0 -30 12.5t-11 29.5q0 20 14.5 34t34.5 14q19 0 30 -12.5t11 -29.5q0 -20 -14.5 -34t-34.5 -14zM351 815q-19 0 -30 12.5t-11 29.5q0 20 14.5 34t34.5 14q19 0 30 -12.5t11 -29.5q0 -20 -14.5 -34t-34.5 -14z" />
    <glyph glyph-name="Eth" unicode="&#xd0;" horiz-adv-x="730" 
d="M155 315h-75l11 65h75l56 320h197q71 0 131 -23t103 -65t67 -100t24 -127q0 -81 -30 -151t-82.5 -122t-122.5 -82t-151 -30h-259zM364 60q67 0 125 25t100 68.5t66 103t24 128.5q0 54 -19 101t-53.5 81t-82.5 53.5t-105 19.5h-142l-46 -260h185l-11 -65h-185l-45 -255
h189z" />
    <glyph glyph-name="Ntilde" unicode="&#xd1;" horiz-adv-x="725" 
d="M213 700h95l273 -635l112 635h65l-123 -700h-95l-273 635l-112 -635h-65zM569 805q-24 0 -40 10t-28.5 22.5t-23.5 22.5t-26 10t-27.5 -10t-14.5 -25l-4 -25h-50l5 26q7 37 34 60.5t65 23.5q24 0 40 -10t28.5 -22.5t24 -22.5t26.5 -10t27 10t14 25l4 25h51l-5 -26
q-7 -37 -34.5 -60.5t-65.5 -23.5z" />
    <glyph glyph-name="Ograve" unicode="&#xd2;" horiz-adv-x="820" 
d="M443 -20q-75 0 -136.5 24.5t-106 68.5t-68.5 104t-24 131q0 90 32 165.5t86 130.5t125 85.5t149 30.5q75 0 136.5 -24.5t106 -68.5t68.5 -104t24 -131q0 -90 -32 -165.5t-86 -130.5t-125 -85.5t-149 -30.5zM447 40q64 0 123 25t103 71t70.5 110.5t26.5 143.5
q0 60 -20 109.5t-56 85.5t-86.5 55.5t-111.5 19.5q-65 0 -123.5 -25t-102.5 -71t-70.5 -110.5t-26.5 -143.5q0 -60 19.5 -109.5t55.5 -85.5t86.5 -55.5t112.5 -19.5zM415 935h75l64 -145h-50z" />
    <glyph glyph-name="Oacute" unicode="&#xd3;" horiz-adv-x="820" 
d="M443 -20q-75 0 -136.5 24.5t-106 68.5t-68.5 104t-24 131q0 90 32 165.5t86 130.5t125 85.5t149 30.5q75 0 136.5 -24.5t106 -68.5t68.5 -104t24 -131q0 -90 -32 -165.5t-86 -130.5t-125 -85.5t-149 -30.5zM447 40q64 0 123 25t103 71t70.5 110.5t26.5 143.5
q0 60 -20 109.5t-56 85.5t-86.5 55.5t-111.5 19.5q-65 0 -123.5 -25t-102.5 -71t-70.5 -110.5t-26.5 -143.5q0 -60 19.5 -109.5t55.5 -85.5t86.5 -55.5t112.5 -19.5zM621 935h75l-141 -145h-50z" />
    <glyph glyph-name="Ocircumflex" unicode="&#xd4;" horiz-adv-x="820" 
d="M443 -20q-75 0 -136.5 24.5t-106 68.5t-68.5 104t-24 131q0 90 32 165.5t86 130.5t125 85.5t149 30.5q75 0 136.5 -24.5t106 -68.5t68.5 -104t24 -131q0 -90 -32 -165.5t-86 -130.5t-125 -85.5t-149 -30.5zM447 40q64 0 123 25t103 71t70.5 110.5t26.5 143.5
q0 60 -20 109.5t-56 85.5t-86.5 55.5t-111.5 19.5q-65 0 -123.5 -25t-102.5 -71t-70.5 -110.5t-26.5 -143.5q0 -60 19.5 -109.5t55.5 -85.5t86.5 -55.5t112.5 -19.5zM526 935h65l84 -145h-58l-57 100h-15l-93 -100h-62z" />
    <glyph glyph-name="Otilde" unicode="&#xd5;" horiz-adv-x="820" 
d="M443 -20q-75 0 -136.5 24.5t-106 68.5t-68.5 104t-24 131q0 90 32 165.5t86 130.5t125 85.5t149 30.5q75 0 136.5 -24.5t106 -68.5t68.5 -104t24 -131q0 -90 -32 -165.5t-86 -130.5t-125 -85.5t-149 -30.5zM447 40q64 0 123 25t103 71t70.5 110.5t26.5 143.5
q0 60 -20 109.5t-56 85.5t-86.5 55.5t-111.5 19.5q-65 0 -123.5 -25t-102.5 -71t-70.5 -110.5t-26.5 -143.5q0 -60 19.5 -109.5t55.5 -85.5t86.5 -55.5t112.5 -19.5zM599 805q-24 0 -40 10t-28.5 22.5t-23.5 22.5t-26 10t-27.5 -10t-14.5 -25l-4 -25h-50l5 26q7 37 34 60.5
t65 23.5q24 0 40 -10t28.5 -22.5t24 -22.5t26.5 -10t27 10t14 25l4 25h51l-5 -26q-7 -37 -34.5 -60.5t-65.5 -23.5z" />
    <glyph glyph-name="Odieresis" unicode="&#xd6;" horiz-adv-x="820" 
d="M443 -20q-75 0 -136.5 24.5t-106 68.5t-68.5 104t-24 131q0 90 32 165.5t86 130.5t125 85.5t149 30.5q75 0 136.5 -24.5t106 -68.5t68.5 -104t24 -131q0 -90 -32 -165.5t-86 -130.5t-125 -85.5t-149 -30.5zM447 40q64 0 123 25t103 71t70.5 110.5t26.5 143.5
q0 60 -20 109.5t-56 85.5t-86.5 55.5t-111.5 19.5q-65 0 -123.5 -25t-102.5 -71t-70.5 -110.5t-26.5 -143.5q0 -60 19.5 -109.5t55.5 -85.5t86.5 -55.5t112.5 -19.5zM456 815q-19 0 -30 12.5t-11 29.5q0 20 14.5 34t34.5 14q19 0 30 -12.5t11 -29.5q0 -20 -14.5 -34
t-34.5 -14zM626 815q-19 0 -30 12.5t-11 29.5q0 20 14.5 34t34.5 14q19 0 30 -12.5t11 -29.5q0 -20 -14.5 -34t-34.5 -14z" />
    <glyph glyph-name="multiply" unicode="&#xd7;" horiz-adv-x="500" 
d="M140 165l130 130l-130 130l40 40l130 -130l130 130l40 -40l-130 -130l130 -130l-40 -40l-130 130l-130 -130z" />
    <glyph glyph-name="Oslash" unicode="&#xd8;" horiz-adv-x="820" 
d="M444 -20q-88 0 -156.5 33t-112.5 90l-151 -108l13 75l109 78q-37 72 -37 160q0 90 32 165.5t86 130.5t125 85.5t149 30.5q88 0 156.5 -33t112.5 -90l151 108l-13 -75l-109 -78q37 -72 37 -160q0 -90 -32 -165.5t-86 -130.5t-125 -85.5t-149 -30.5zM448 40q64 0 123 25
t103 71t70.5 110.5t26.5 143.5q0 70 -25 124l-519 -373q36 -48 92.5 -74.5t128.5 -26.5zM718 559q-36 48 -92.5 74.5t-128.5 26.5q-65 0 -123.5 -25t-102.5 -71t-70.5 -110.5t-26.5 -143.5q0 -68 25 -124z" />
    <glyph glyph-name="Ugrave" unicode="&#xd9;" horiz-adv-x="710" 
d="M376 -20q-66 0 -116.5 22t-83.5 61t-45.5 92t-1.5 115l76 430h65l-76 -430q-9 -51 -1 -93t32 -72.5t63.5 -47.5t93.5 -17q85 0 142.5 52t74.5 150l81 458h65l-82 -463q-11 -60 -36.5 -107.5t-63.5 -81t-85.5 -51t-101.5 -17.5zM375 935h75l64 -145h-50z" />
    <glyph glyph-name="Uacute" unicode="&#xda;" horiz-adv-x="710" 
d="M376 -20q-66 0 -116.5 22t-83.5 61t-45.5 92t-1.5 115l76 430h65l-76 -430q-9 -51 -1 -93t32 -72.5t63.5 -47.5t93.5 -17q85 0 142.5 52t74.5 150l81 458h65l-82 -463q-11 -60 -36.5 -107.5t-63.5 -81t-85.5 -51t-101.5 -17.5zM576 935h75l-141 -145h-50z" />
    <glyph glyph-name="Ucircumflex" unicode="&#xdb;" horiz-adv-x="710" 
d="M376 -20q-66 0 -116.5 22t-83.5 61t-45.5 92t-1.5 115l76 430h65l-76 -430q-9 -51 -1 -93t32 -72.5t63.5 -47.5t93.5 -17q85 0 142.5 52t74.5 150l81 458h65l-82 -463q-11 -60 -36.5 -107.5t-63.5 -81t-85.5 -51t-101.5 -17.5zM476 935h65l84 -145h-58l-57 100h-15
l-93 -100h-62z" />
    <glyph glyph-name="Udieresis" unicode="&#xdc;" horiz-adv-x="710" 
d="M376 -20q-66 0 -116.5 22t-83.5 61t-45.5 92t-1.5 115l76 430h65l-76 -430q-9 -51 -1 -93t32 -72.5t63.5 -47.5t93.5 -17q85 0 142.5 52t74.5 150l81 458h65l-82 -463q-11 -60 -36.5 -107.5t-63.5 -81t-85.5 -51t-101.5 -17.5zM406 815q-19 0 -30 12.5t-11 29.5
q0 20 14.5 34t34.5 14q19 0 30 -12.5t11 -29.5q0 -20 -14.5 -34t-34.5 -14zM576 815q-19 0 -30 12.5t-11 29.5q0 20 14.5 34t34.5 14q19 0 30 -12.5t11 -29.5q0 -20 -14.5 -34t-34.5 -14z" />
    <glyph glyph-name="Yacute" unicode="&#xdd;" horiz-adv-x="635" 
d="M320 255l-197 445h77l160 -370h5l290 370h83l-353 -445l-45 -255h-65zM531 935h75l-141 -145h-50z" />
    <glyph glyph-name="Thorn" unicode="&#xde;" horiz-adv-x="725" 
d="M231 700h65l-24 -140h246q58 0 101.5 -16t72 -42t42.5 -60t14 -71q0 -47 -18 -87.5t-50 -70t-77.5 -46.5t-99.5 -17h-304l-26 -150h-65zM508 210q83 0 129 44.5t46 114.5q0 27 -10 50.5t-31 41.5t-54 28.5t-80 10.5h-247l-51 -290h298z" />
    <glyph glyph-name="germandbls" unicode="&#xdf;" horiz-adv-x="570" 
d="M176 547q6 35 24 65t45 51.5t61.5 34t73.5 12.5q42 0 76.5 -13t59 -35.5t37.5 -52t13 -62.5q0 -55 -20.5 -88.5t-45 -51.5t-44.5 -24t-18 -6v-5q35 -9 62 -29q23 -17 42.5 -47t19.5 -78q0 -46 -16.5 -85.5t-46 -69t-70 -46.5t-89.5 -17h-85l10 55h80q32 0 60.5 11.5
t50 32t34 49.5t12.5 64q0 26 -10.5 50t-29.5 42.5t-46 29.5t-61 11h-38l10 55h20q33 0 62 11t50.5 30.5t34 45.5t12.5 56q0 22 -9 42.5t-25.5 36t-40.5 24.5t-54 9q-54 0 -93.5 -33t-48.5 -86l-95 -536h-60z" />
    <glyph glyph-name="agrave" unicode="&#xe0;" 
d="M305 -10q-46 0 -86 17.5t-69 48t-46 72.5t-17 92q0 63 23 116.5t60.5 92t85 60t97.5 21.5q44 0 77.5 -13t57 -32t37 -41.5t18.5 -40.5l21 117h60l-88 -500h-60l15 84q-10 -15 -27 -31.5t-41 -30.5t-53.5 -23t-64.5 -9zM312 45q37 0 74 16.5t67 46.5t48.5 72t18.5 93
q0 40 -13 73.5t-35.5 57.5t-52.5 37.5t-64 13.5q-37 0 -74 -16.5t-67 -46.5t-48.5 -72t-18.5 -93q0 -40 13 -73.5t35.5 -57.5t52.5 -37.5t64 -13.5zM290 755h75l64 -145h-50z" />
    <glyph glyph-name="aacute" unicode="&#xe1;" 
d="M305 -10q-46 0 -86 17.5t-69 48t-46 72.5t-17 92q0 63 23 116.5t60.5 92t85 60t97.5 21.5q44 0 77.5 -13t57 -32t37 -41.5t18.5 -40.5l21 117h60l-88 -500h-60l15 84q-10 -15 -27 -31.5t-41 -30.5t-53.5 -23t-64.5 -9zM312 45q37 0 74 16.5t67 46.5t48.5 72t18.5 93
q0 40 -13 73.5t-35.5 57.5t-52.5 37.5t-64 13.5q-37 0 -74 -16.5t-67 -46.5t-48.5 -72t-18.5 -93q0 -40 13 -73.5t35.5 -57.5t52.5 -37.5t64 -13.5zM496 755h75l-141 -145h-50z" />
    <glyph glyph-name="acircumflex" unicode="&#xe2;" 
d="M305 -10q-46 0 -86 17.5t-69 48t-46 72.5t-17 92q0 63 23 116.5t60.5 92t85 60t97.5 21.5q44 0 77.5 -13t57 -32t37 -41.5t18.5 -40.5l21 117h60l-88 -500h-60l15 84q-10 -15 -27 -31.5t-41 -30.5t-53.5 -23t-64.5 -9zM312 45q37 0 74 16.5t67 46.5t48.5 72t18.5 93
q0 40 -13 73.5t-35.5 57.5t-52.5 37.5t-64 13.5q-37 0 -74 -16.5t-67 -46.5t-48.5 -72t-18.5 -93q0 -40 13 -73.5t35.5 -57.5t52.5 -37.5t64 -13.5zM396 755h65l84 -145h-58l-57 100h-15l-93 -100h-62z" />
    <glyph glyph-name="atilde" unicode="&#xe3;" 
d="M305 -10q-46 0 -86 17.5t-69 48t-46 72.5t-17 92q0 63 23 116.5t60.5 92t85 60t97.5 21.5q44 0 77.5 -13t57 -32t37 -41.5t18.5 -40.5l21 117h60l-88 -500h-60l15 84q-10 -15 -27 -31.5t-41 -30.5t-53.5 -23t-64.5 -9zM312 45q37 0 74 16.5t67 46.5t48.5 72t18.5 93
q0 40 -13 73.5t-35.5 57.5t-52.5 37.5t-64 13.5q-37 0 -74 -16.5t-67 -46.5t-48.5 -72t-18.5 -93q0 -40 13 -73.5t35.5 -57.5t52.5 -37.5t64 -13.5zM474 625q-24 0 -40 10t-28.5 22.5t-23.5 22.5t-26 10t-27.5 -10t-14.5 -25l-4 -25h-50l5 26q7 37 34 60.5t65 23.5
q24 0 40 -10t28.5 -22.5t24 -22.5t26.5 -10t27 10t14 25l4 25h51l-5 -26q-7 -37 -34.5 -60.5t-65.5 -23.5z" />
    <glyph glyph-name="adieresis" unicode="&#xe4;" 
d="M305 -10q-46 0 -86 17.5t-69 48t-46 72.5t-17 92q0 63 23 116.5t60.5 92t85 60t97.5 21.5q44 0 77.5 -13t57 -32t37 -41.5t18.5 -40.5l21 117h60l-88 -500h-60l15 84q-10 -15 -27 -31.5t-41 -30.5t-53.5 -23t-64.5 -9zM312 45q37 0 74 16.5t67 46.5t48.5 72t18.5 93
q0 40 -13 73.5t-35.5 57.5t-52.5 37.5t-64 13.5q-37 0 -74 -16.5t-67 -46.5t-48.5 -72t-18.5 -93q0 -40 13 -73.5t35.5 -57.5t52.5 -37.5t64 -13.5zM326 635q-19 0 -30 12.5t-11 29.5q0 20 14.5 34t34.5 14q19 0 30 -12.5t11 -29.5q0 -20 -14.5 -34t-34.5 -14zM496 635
q-19 0 -30 12.5t-11 29.5q0 20 14.5 34t34.5 14q19 0 30 -12.5t11 -29.5q0 -20 -14.5 -34t-34.5 -14z" />
    <glyph glyph-name="aring" unicode="&#xe5;" 
d="M305 -10q-46 0 -86 17.5t-69 48t-46 72.5t-17 92q0 63 23 116.5t60.5 92t85 60t97.5 21.5q44 0 77.5 -13t57 -32t37 -41.5t18.5 -40.5l21 117h60l-88 -500h-60l15 84q-10 -15 -27 -31.5t-41 -30.5t-53.5 -23t-64.5 -9zM312 45q37 0 74 16.5t67 46.5t48.5 72t18.5 93
q0 40 -13 73.5t-35.5 57.5t-52.5 37.5t-64 13.5q-37 0 -74 -16.5t-67 -46.5t-48.5 -72t-18.5 -93q0 -40 13 -73.5t35.5 -57.5t52.5 -37.5t64 -13.5zM412 580q-39 0 -65.5 26.5t-26.5 63.5q0 22 9 42t24 35t35 24t41 9q39 0 65.5 -26.5t26.5 -63.5q0 -23 -9 -43t-24 -35
t-35 -23.5t-41 -8.5zM416 625q23 0 41.5 18t18.5 42q0 21 -14.5 35.5t-36.5 14.5q-23 0 -41.5 -18t-18.5 -42q0 -21 14.5 -35.5t36.5 -14.5z" />
    <glyph glyph-name="ae" unicode="&#xe6;" horiz-adv-x="965" 
d="M258 -10q-35 0 -65.5 9.5t-52.5 27.5t-34.5 43.5t-12.5 58.5q0 34 13 63.5t37 51t58.5 34t78.5 12.5h210l4 21q11 63 -21.5 103.5t-106.5 40.5q-45 0 -75 -16.5t-49 -36.5q-22 -23 -36 -52h-61q17 45 48 80q26 30 68.5 55t106.5 25q72 0 117 -28t62 -75q36 46 87 74.5
t112 28.5q49 0 89.5 -17.5t69.5 -48.5t45 -73t16 -91q0 -10 -1 -18t-2 -14q-1 -7 -2 -13h-419v-10q0 -39 12.5 -72t35 -57t53 -37.5t66.5 -13.5q46 0 79.5 17t55.5 38q26 24 43 55h60q-23 -47 -57 -83q-29 -31 -75 -56.5t-110 -25.5q-37 0 -70 10.5t-60 29t-47.5 44
t-32.5 54.5q-14 -26 -35 -50.5t-50 -44t-67 -31.5t-85 -12zM280 45q38 0 72.5 14t61.5 39t44.5 60t22.5 77h-205q-61 0 -92 -29t-31 -74q0 -40 33 -63.5t94 -23.5zM903 290q0 26 -9.5 55t-29.5 53.5t-50 40.5t-71 16q-36 0 -68.5 -14.5t-58 -38t-43 -53t-24.5 -59.5h354z
" />
    <glyph glyph-name="ccedilla" unicode="&#xe7;" horiz-adv-x="570" 
d="M261 -235q-20 0 -34.5 4t-24.5 9q-11 6 -19 14l8 44q7 -8 18 -13q9 -5 22.5 -9t32.5 -4q24 0 40 14.5t16 38.5q0 17 -13 29.5t-42 12.5h-32l56 86q-43 4 -80 23t-64 49t-42.5 70.5t-15.5 87.5q0 63 23 116.5t61 91.5t86.5 59.5t99.5 21.5q36 0 65 -7.5t51.5 -20
t38.5 -28.5t28 -32q27 -39 37 -87h-60q-11 34 -32 60q-18 23 -49.5 41.5t-81.5 18.5q-38 0 -75.5 -17t-66.5 -47t-47 -72.5t-18 -93.5q0 -40 13 -73t36 -57t54 -37t66 -13q51 0 87 20t59 45q27 28 45 65h60q-19 -49 -52 -88q-28 -34 -72 -62.5t-109 -33.5l-31 -48
q28 -4 47.5 -26t19.5 -51q0 -45 -31.5 -73t-77.5 -28z" />
    <glyph glyph-name="egrave" unicode="&#xe8;" horiz-adv-x="590" 
d="M320 -10q-51 0 -94 17t-73.5 48t-48 73t-17.5 93q0 56 20.5 108t57 92.5t86.5 64.5t110 24q51 0 93.5 -17.5t72.5 -48.5t47 -73t17 -91q0 -10 -1 -19t-2 -16q-1 -8 -2 -15h-439v-5q0 -39 12.5 -72t36 -57t56 -37.5t72.5 -13.5q48 0 83.5 17t58.5 38q27 24 46 55h60
q-24 -47 -60 -83q-31 -31 -78.5 -56.5t-113.5 -25.5zM528 285q0 28 -10.5 58t-31.5 55t-53 41t-75 16q-40 0 -74 -14.5t-61 -38.5t-44.5 -54.5t-24.5 -62.5h374zM275 755h75l64 -145h-50z" />
    <glyph glyph-name="eacute" unicode="&#xe9;" horiz-adv-x="590" 
d="M320 -10q-51 0 -94 17t-73.5 48t-48 73t-17.5 93q0 56 20.5 108t57 92.5t86.5 64.5t110 24q51 0 93.5 -17.5t72.5 -48.5t47 -73t17 -91q0 -10 -1 -19t-2 -16q-1 -8 -2 -15h-439v-5q0 -39 12.5 -72t36 -57t56 -37.5t72.5 -13.5q48 0 83.5 17t58.5 38q27 24 46 55h60
q-24 -47 -60 -83q-31 -31 -78.5 -56.5t-113.5 -25.5zM528 285q0 28 -10.5 58t-31.5 55t-53 41t-75 16q-40 0 -74 -14.5t-61 -38.5t-44.5 -54.5t-24.5 -62.5h374zM481 755h75l-141 -145h-50z" />
    <glyph glyph-name="ecircumflex" unicode="&#xea;" horiz-adv-x="590" 
d="M320 -10q-51 0 -94 17t-73.5 48t-48 73t-17.5 93q0 56 20.5 108t57 92.5t86.5 64.5t110 24q51 0 93.5 -17.5t72.5 -48.5t47 -73t17 -91q0 -10 -1 -19t-2 -16q-1 -8 -2 -15h-439v-5q0 -39 12.5 -72t36 -57t56 -37.5t72.5 -13.5q48 0 83.5 17t58.5 38q27 24 46 55h60
q-24 -47 -60 -83q-31 -31 -78.5 -56.5t-113.5 -25.5zM528 285q0 28 -10.5 58t-31.5 55t-53 41t-75 16q-40 0 -74 -14.5t-61 -38.5t-44.5 -54.5t-24.5 -62.5h374zM381 755h65l84 -145h-58l-57 100h-15l-93 -100h-62z" />
    <glyph glyph-name="edieresis" unicode="&#xeb;" horiz-adv-x="590" 
d="M320 -10q-51 0 -94 17t-73.5 48t-48 73t-17.5 93q0 56 20.5 108t57 92.5t86.5 64.5t110 24q51 0 93.5 -17.5t72.5 -48.5t47 -73t17 -91q0 -10 -1 -19t-2 -16q-1 -8 -2 -15h-439v-5q0 -39 12.5 -72t36 -57t56 -37.5t72.5 -13.5q48 0 83.5 17t58.5 38q27 24 46 55h60
q-24 -47 -60 -83q-31 -31 -78.5 -56.5t-113.5 -25.5zM528 285q0 28 -10.5 58t-31.5 55t-53 41t-75 16q-40 0 -74 -14.5t-61 -38.5t-44.5 -54.5t-24.5 -62.5h374zM311 635q-19 0 -30 12.5t-11 29.5q0 20 14.5 34t34.5 14q19 0 30 -12.5t11 -29.5q0 -20 -14.5 -34t-34.5 -14z
M481 635q-19 0 -30 12.5t-11 29.5q0 20 14.5 34t34.5 14q19 0 30 -12.5t11 -29.5q0 -20 -14.5 -34t-34.5 -14z" />
    <glyph glyph-name="igrave" unicode="&#xec;" horiz-adv-x="220" 
d="M168 500h60l-88 -500h-60zM105 755h75l64 -145h-50z" />
    <glyph glyph-name="iacute" unicode="&#xed;" horiz-adv-x="220" 
d="M168 500h60l-88 -500h-60zM311 755h75l-141 -145h-50z" />
    <glyph glyph-name="icircumflex" unicode="&#xee;" horiz-adv-x="220" 
d="M168 500h60l-88 -500h-60zM211 755h65l84 -145h-58l-57 100h-15l-93 -100h-62z" />
    <glyph glyph-name="idieresis" unicode="&#xef;" horiz-adv-x="220" 
d="M168 500h60l-88 -500h-60zM136 635q-19 0 -30 12.5t-11 29.5q0 20 14.5 34t34.5 14q19 0 30 -12.5t11 -29.5q0 -20 -14.5 -34t-34.5 -14zM306 635q-19 0 -30 12.5t-11 29.5q0 20 14.5 34t34.5 14q19 0 30 -12.5t11 -29.5q0 -20 -14.5 -34t-34.5 -14z" />
    <glyph glyph-name="eth" unicode="&#xf0;" horiz-adv-x="575" 
d="M314 -10q-51 0 -92.5 16t-70.5 44.5t-45 67t-16 83.5q0 57 20.5 104.5t55.5 82t80.5 53.5t96.5 19q56 0 92 -16.5t57 -36.5t29 -36.5l8 -16.5q-4 61 -37 117t-76 109l-134 -80l9 55l101 60q-19 22 -38 42.5t-42 42.5h71q15 -15 28 -27.5t26 -27.5l145 85l-10 -55
l-108 -66q24 -33 45.5 -65.5t37 -68t24.5 -74.5t9 -84q0 -73 -18.5 -133.5t-53 -103.5t-84 -66.5t-110.5 -23.5zM318 45q39 0 74.5 14.5t62.5 41t42.5 63.5t15.5 81q0 34 -12 63.5t-34 51t-53 33.5t-69 12q-39 0 -74.5 -14.5t-62.5 -41t-42.5 -63.5t-15.5 -81q0 -35 12 -64
t34 -50.5t53 -33.5t69 -12z" />
    <glyph glyph-name="ntilde" unicode="&#xf1;" horiz-adv-x="580" 
d="M168 500h60l-12 -70q16 22 40 40q20 15 52 27.5t78 12.5q50 0 87 -17t59 -47.5t29 -73.5t-2 -94l-49 -278h-60l51 289q6 36 1.5 66t-20 52.5t-42.5 35t-65 12.5q-33 0 -63.5 -12t-55 -33.5t-42 -51.5t-23.5 -67l-51 -291h-60zM460 625q-24 0 -40 10t-28.5 22.5
t-23.5 22.5t-26 10t-27.5 -10t-14.5 -25l-4 -25h-50l5 26q7 37 34 60.5t65 23.5q24 0 40 -10t28.5 -22.5t24 -22.5t26.5 -10t27 10t14 25l4 25h51l-5 -26q-7 -37 -34.5 -60.5t-65.5 -23.5z" />
    <glyph glyph-name="ograve" unicode="&#xf2;" horiz-adv-x="600" 
d="M323 -10q-53 0 -96.5 17.5t-74.5 48.5t-48 73.5t-17 91.5q0 63 22.5 116t61 91.5t88.5 60t105 21.5q53 0 96.5 -17.5t74.5 -48.5t48 -73.5t17 -91.5q0 -63 -23 -116t-61 -91.5t-88 -60t-105 -21.5zM326 45q42 0 80.5 17t68.5 47.5t47.5 72.5t17.5 93q0 39 -13 72
t-36.5 57t-56.5 37.5t-73 13.5q-42 0 -80.5 -17t-68.5 -47.5t-47.5 -72.5t-17.5 -93q0 -39 13 -72t36.5 -57t56.5 -37.5t73 -13.5zM275 755h75l64 -145h-50z" />
    <glyph glyph-name="oacute" unicode="&#xf3;" horiz-adv-x="600" 
d="M323 -10q-53 0 -96.5 17.5t-74.5 48.5t-48 73.5t-17 91.5q0 63 22.5 116t61 91.5t88.5 60t105 21.5q53 0 96.5 -17.5t74.5 -48.5t48 -73.5t17 -91.5q0 -63 -23 -116t-61 -91.5t-88 -60t-105 -21.5zM326 45q42 0 80.5 17t68.5 47.5t47.5 72.5t17.5 93q0 39 -13 72
t-36.5 57t-56.5 37.5t-73 13.5q-42 0 -80.5 -17t-68.5 -47.5t-47.5 -72.5t-17.5 -93q0 -39 13 -72t36.5 -57t56.5 -37.5t73 -13.5zM481 755h75l-141 -145h-50z" />
    <glyph glyph-name="ocircumflex" unicode="&#xf4;" horiz-adv-x="600" 
d="M323 -10q-53 0 -96.5 17.5t-74.5 48.5t-48 73.5t-17 91.5q0 63 22.5 116t61 91.5t88.5 60t105 21.5q53 0 96.5 -17.5t74.5 -48.5t48 -73.5t17 -91.5q0 -63 -23 -116t-61 -91.5t-88 -60t-105 -21.5zM326 45q42 0 80.5 17t68.5 47.5t47.5 72.5t17.5 93q0 39 -13 72
t-36.5 57t-56.5 37.5t-73 13.5q-42 0 -80.5 -17t-68.5 -47.5t-47.5 -72.5t-17.5 -93q0 -39 13 -72t36.5 -57t56.5 -37.5t73 -13.5zM381 755h65l84 -145h-58l-57 100h-15l-93 -100h-62z" />
    <glyph glyph-name="otilde" unicode="&#xf5;" horiz-adv-x="600" 
d="M323 -10q-53 0 -96.5 17.5t-74.5 48.5t-48 73.5t-17 91.5q0 63 22.5 116t61 91.5t88.5 60t105 21.5q53 0 96.5 -17.5t74.5 -48.5t48 -73.5t17 -91.5q0 -63 -23 -116t-61 -91.5t-88 -60t-105 -21.5zM326 45q42 0 80.5 17t68.5 47.5t47.5 72.5t17.5 93q0 39 -13 72
t-36.5 57t-56.5 37.5t-73 13.5q-42 0 -80.5 -17t-68.5 -47.5t-47.5 -72.5t-17.5 -93q0 -39 13 -72t36.5 -57t56.5 -37.5t73 -13.5zM459 625q-24 0 -40 10t-28.5 22.5t-23.5 22.5t-26 10t-27.5 -10t-14.5 -25l-4 -25h-50l5 26q7 37 34 60.5t65 23.5q24 0 40 -10t28.5 -22.5
t24 -22.5t26.5 -10t27 10t14 25l4 25h51l-5 -26q-7 -37 -34.5 -60.5t-65.5 -23.5z" />
    <glyph glyph-name="odieresis" unicode="&#xf6;" horiz-adv-x="600" 
d="M323 -10q-53 0 -96.5 17.5t-74.5 48.5t-48 73.5t-17 91.5q0 63 22.5 116t61 91.5t88.5 60t105 21.5q53 0 96.5 -17.5t74.5 -48.5t48 -73.5t17 -91.5q0 -63 -23 -116t-61 -91.5t-88 -60t-105 -21.5zM326 45q42 0 80.5 17t68.5 47.5t47.5 72.5t17.5 93q0 39 -13 72
t-36.5 57t-56.5 37.5t-73 13.5q-42 0 -80.5 -17t-68.5 -47.5t-47.5 -72.5t-17.5 -93q0 -39 13 -72t36.5 -57t56.5 -37.5t73 -13.5zM311 635q-19 0 -30 12.5t-11 29.5q0 20 14.5 34t34.5 14q19 0 30 -12.5t11 -29.5q0 -20 -14.5 -34t-34.5 -14zM481 635q-19 0 -30 12.5
t-11 29.5q0 20 14.5 34t34.5 14q19 0 30 -12.5t11 -29.5q0 -20 -14.5 -34t-34.5 -14z" />
    <glyph glyph-name="divide" unicode="&#xf7;" horiz-adv-x="500" 
d="M310 45q-23 0 -36.5 15.5t-13.5 34.5t13.5 34.5t36.5 15.5t36.5 -15.5t13.5 -34.5t-13.5 -34.5t-36.5 -15.5zM120 300h380v-60h-380v60zM310 395q-23 0 -36.5 15.5t-13.5 34.5t13.5 34.5t36.5 15.5t36.5 -15.5t13.5 -34.5t-13.5 -34.5t-36.5 -15.5z" />
    <glyph glyph-name="oslash" unicode="&#xf8;" horiz-adv-x="600" 
d="M323 -10q-58 0 -104 20.5t-77 56.5l-98 -72l13 78l54 40q-24 48 -24 108q0 63 22.5 116t61 91.5t88.5 60t105 21.5q58 0 104 -20.5t77 -56.5l98 72l-13 -78l-54 -40q24 -48 24 -108q0 -63 -23 -116t-61 -91.5t-88 -60t-105 -21.5zM326 45q42 0 80.5 17t68.5 47.5
t47.5 72.5t17.5 93q0 20 -3 39t-11 36l-336 -248q24 -27 58.5 -42t77.5 -15zM497 398q-24 27 -58.5 42t-77.5 15q-42 0 -80.5 -17t-68.5 -47.5t-47.5 -72.5t-17.5 -93q0 -20 3 -39t11 -36z" />
    <glyph glyph-name="ugrave" unicode="&#xf9;" horiz-adv-x="590" 
d="M289 -10q-50 0 -87 17t-59 47.5t-29 73.5t2 94l49 278h60l-51 -289q-6 -36 -1.5 -66t20 -52.5t42.5 -35t65 -12.5q33 0 63.5 12t55 33.5t42 51.5t23.5 67l51 291h60l-88 -500h-60l12 70q-16 -22 -40 -40q-20 -15 -52.5 -27.5t-77.5 -12.5zM270 755h75l64 -145h-50z" />
    <glyph glyph-name="uacute" unicode="&#xfa;" horiz-adv-x="590" 
d="M289 -10q-50 0 -87 17t-59 47.5t-29 73.5t2 94l49 278h60l-51 -289q-6 -36 -1.5 -66t20 -52.5t42.5 -35t65 -12.5q33 0 63.5 12t55 33.5t42 51.5t23.5 67l51 291h60l-88 -500h-60l12 70q-16 -22 -40 -40q-20 -15 -52.5 -27.5t-77.5 -12.5zM476 755h75l-141 -145h-50z" />
    <glyph glyph-name="ucircumflex" unicode="&#xfb;" horiz-adv-x="590" 
d="M289 -10q-50 0 -87 17t-59 47.5t-29 73.5t2 94l49 278h60l-51 -289q-6 -36 -1.5 -66t20 -52.5t42.5 -35t65 -12.5q33 0 63.5 12t55 33.5t42 51.5t23.5 67l51 291h60l-88 -500h-60l12 70q-16 -22 -40 -40q-20 -15 -52.5 -27.5t-77.5 -12.5zM376 755h65l84 -145h-58
l-57 100h-15l-93 -100h-62z" />
    <glyph glyph-name="udieresis" unicode="&#xfc;" horiz-adv-x="590" 
d="M289 -10q-50 0 -87 17t-59 47.5t-29 73.5t2 94l49 278h60l-51 -289q-6 -36 -1.5 -66t20 -52.5t42.5 -35t65 -12.5q33 0 63.5 12t55 33.5t42 51.5t23.5 67l51 291h60l-88 -500h-60l12 70q-16 -22 -40 -40q-20 -15 -52.5 -27.5t-77.5 -12.5zM306 635q-19 0 -30 12.5
t-11 29.5q0 20 14.5 34t34.5 14q19 0 30 -12.5t11 -29.5q0 -20 -14.5 -34t-34.5 -14zM476 635q-19 0 -30 12.5t-11 29.5q0 20 14.5 34t34.5 14q19 0 30 -12.5t11 -29.5q0 -20 -14.5 -34t-34.5 -14z" />
    <glyph glyph-name="yacute" unicode="&#xfd;" horiz-adv-x="505" 
d="M275 0h-125l-47 500h66l37 -445h94l208 445h65l-327 -690h-65zM441 755h75l-141 -145h-50z" />
    <glyph glyph-name="thorn" unicode="&#xfe;" 
d="M203 700h60l-51 -284q10 15 27 31.5t41 30.5t53.5 23t64.5 9q46 0 86 -17.5t69 -48t46 -73t17 -91.5q0 -63 -23 -116.5t-60.5 -92t-85 -60t-97.5 -21.5q-44 0 -77.5 13t-57 32t-37 41.5t-18.5 40.5l-54 -307h-60zM348 45q37 0 74 16.5t67 46.5t48.5 72t18.5 93
q0 40 -13 73.5t-35.5 57.5t-52.5 37.5t-64 13.5q-37 0 -74 -16.5t-67 -46.5t-48.5 -72t-18.5 -93q0 -40 13 -73.5t35.5 -57.5t52.5 -37.5t64 -13.5z" />
    <glyph glyph-name="ydieresis" unicode="&#xff;" horiz-adv-x="505" 
d="M275 0h-125l-47 500h66l37 -445h94l208 445h65l-327 -690h-65zM271 635q-19 0 -30 12.5t-11 29.5q0 20 14.5 34t34.5 14q19 0 30 -12.5t11 -29.5q0 -20 -14.5 -34t-34.5 -14zM441 635q-19 0 -30 12.5t-11 29.5q0 20 14.5 34t34.5 14q19 0 30 -12.5t11 -29.5
q0 -20 -14.5 -34t-34.5 -14z" />
    <glyph glyph-name="Amacron" unicode="&#x100;" horiz-adv-x="675" 
d="M353 700h250l62 -700h-65l-19 230h-370l-101 -230h-65zM576 290l-33 350h-150l-157 -350h340zM380 890h255l-10 -55h-255z" />
    <glyph glyph-name="amacron" unicode="&#x101;" 
d="M305 -10q-46 0 -86 17.5t-69 48t-46 72.5t-17 92q0 63 23 116.5t60.5 92t85 60t97.5 21.5q44 0 77.5 -13t57 -32t37 -41.5t18.5 -40.5l21 117h60l-88 -500h-60l15 84q-10 -15 -27 -31.5t-41 -30.5t-53.5 -23t-64.5 -9zM312 45q37 0 74 16.5t67 46.5t48.5 72t18.5 93
q0 40 -13 73.5t-35.5 57.5t-52.5 37.5t-64 13.5q-37 0 -74 -16.5t-67 -46.5t-48.5 -72t-18.5 -93q0 -40 13 -73.5t35.5 -57.5t52.5 -37.5t64 -13.5zM295 710h255l-10 -55h-255z" />
    <glyph glyph-name="Abreve" unicode="&#x102;" horiz-adv-x="675" 
d="M353 700h250l62 -700h-65l-19 230h-370l-101 -230h-65zM576 290l-33 350h-150l-157 -350h340zM493 800q-29 0 -52.5 9t-40 24t-26 35.5t-9.5 43.5v8h55v-5q0 -26 20 -45.5t58 -19.5q33 0 55.5 19t26.5 51h56q-3 -26 -15.5 -48t-31.5 -38t-44 -25t-52 -9z" />
    <glyph glyph-name="abreve" unicode="&#x103;" 
d="M305 -10q-46 0 -86 17.5t-69 48t-46 72.5t-17 92q0 63 23 116.5t60.5 92t85 60t97.5 21.5q44 0 77.5 -13t57 -32t37 -41.5t18.5 -40.5l21 117h60l-88 -500h-60l15 84q-10 -15 -27 -31.5t-41 -30.5t-53.5 -23t-64.5 -9zM312 45q37 0 74 16.5t67 46.5t48.5 72t18.5 93
q0 40 -13 73.5t-35.5 57.5t-52.5 37.5t-64 13.5q-37 0 -74 -16.5t-67 -46.5t-48.5 -72t-18.5 -93q0 -40 13 -73.5t35.5 -57.5t52.5 -37.5t64 -13.5zM413 620q-29 0 -52.5 9t-40 24t-26 35.5t-9.5 43.5v8h55v-5q0 -26 20 -45.5t58 -19.5q33 0 55.5 19t26.5 51h56
q-3 -26 -15.5 -48t-31.5 -38t-44 -25t-52 -9z" />
    <glyph glyph-name="Aogonek" unicode="&#x104;" horiz-adv-x="675" 
d="M565 -225q-42 0 -69.5 21.5t-27.5 62.5q0 27 12.5 48.5t32 39t43 30.5t44.5 23l-19 230h-370l-101 -230h-65l308 700h250l62 -700q-26 -13 -52.5 -26.5t-47.5 -29.5t-34 -34.5t-13 -42.5q0 -20 14.5 -31t40.5 -11q11 0 22.5 1t19.5 3q10 2 18 5l-8 -45q-7 -4 -17 -7
q-19 -7 -43 -7zM576 290l-33 350h-150l-157 -350h340z" />
    <glyph glyph-name="aogonek" unicode="&#x105;" 
d="M436 -225q-42 0 -69.5 21.5t-27.5 62.5q0 28 13.5 50t34 40t44.5 31t45 23l15 81q-10 -15 -27 -31.5t-41 -30.5t-53.5 -23t-64.5 -9q-46 0 -86 17.5t-69 48t-46 72.5t-17 92q0 63 23 116.5t60.5 92t85 60t97.5 21.5q44 0 77.5 -13t57 -32t37 -41.5t18.5 -40.5l21 117h60
l-88 -500q-26 -13 -52.5 -26.5t-47.5 -29.5t-34 -34.5t-13 -42.5q0 -20 14.5 -31t40.5 -11q11 0 22.5 1t19.5 3q10 2 18 5l-8 -45q-7 -4 -17 -7q-19 -7 -43 -7zM312 45q37 0 74 16.5t67 46.5t48.5 72t18.5 93q0 40 -13 73.5t-35.5 57.5t-52.5 37.5t-64 13.5q-37 0 -74 -16.5
t-67 -46.5t-48.5 -72t-18.5 -93q0 -40 13 -73.5t35.5 -57.5t52.5 -37.5t64 -13.5z" />
    <glyph glyph-name="Cacute" unicode="&#x106;" horiz-adv-x="800" 
d="M442 -20q-75 0 -136.5 24.5t-105.5 68t-68 104t-24 131.5q0 90 32.5 166t86.5 130.5t125.5 85t149.5 30.5q81 0 140.5 -26.5t98.5 -65t59.5 -81.5t25.5 -77h-66q-16 53 -49 95q-14 18 -34 35t-46.5 30.5t-60 21.5t-75.5 8q-64 0 -122.5 -25t-102.5 -71t-70.5 -110.5
t-26.5 -143.5q0 -60 19.5 -109.5t55.5 -85t86 -55.5t112 -20q42 0 77 9t63.5 23t51.5 32.5t40 37.5q40 45 65 103h67q-30 -75 -80 -133q-21 -25 -49.5 -48.5t-64 -42t-79 -30t-95.5 -11.5zM621 935h75l-141 -145h-50z" />
    <glyph glyph-name="cacute" unicode="&#x107;" horiz-adv-x="570" 
d="M314 -10q-48 0 -89 17t-72 48t-48.5 73.5t-17.5 92.5q0 63 23 116.5t61 91.5t86.5 59.5t99.5 21.5q36 0 65 -7.5t51.5 -20t38.5 -28.5t28 -32q27 -39 37 -87h-60q-11 34 -32 60q-18 23 -49.5 41.5t-81.5 18.5q-38 0 -75.5 -17t-66.5 -47t-47 -72.5t-18 -93.5
q0 -40 13 -73t36 -57t54 -37t66 -13q51 0 87 20t59 45q27 28 45 65h60q-21 -53 -56 -93q-15 -17 -34.5 -33.5t-44 -29.5t-54 -21t-64.5 -8zM481 755h75l-141 -145h-50z" />
    <glyph glyph-name="Ccircumflex" unicode="&#x108;" horiz-adv-x="800" 
d="M442 -20q-75 0 -136.5 24.5t-105.5 68t-68 104t-24 131.5q0 90 32.5 166t86.5 130.5t125.5 85t149.5 30.5q81 0 140.5 -26.5t98.5 -65t59.5 -81.5t25.5 -77h-66q-16 53 -49 95q-14 18 -34 35t-46.5 30.5t-60 21.5t-75.5 8q-64 0 -122.5 -25t-102.5 -71t-70.5 -110.5
t-26.5 -143.5q0 -60 19.5 -109.5t55.5 -85t86 -55.5t112 -20q42 0 77 9t63.5 23t51.5 32.5t40 37.5q40 45 65 103h67q-30 -75 -80 -133q-21 -25 -49.5 -48.5t-64 -42t-79 -30t-95.5 -11.5zM521 935h65l84 -145h-58l-57 100h-15l-93 -100h-62z" />
    <glyph glyph-name="ccircumflex" unicode="&#x109;" horiz-adv-x="570" 
d="M314 -10q-48 0 -89 17t-72 48t-48.5 73.5t-17.5 92.5q0 63 23 116.5t61 91.5t86.5 59.5t99.5 21.5q36 0 65 -7.5t51.5 -20t38.5 -28.5t28 -32q27 -39 37 -87h-60q-11 34 -32 60q-18 23 -49.5 41.5t-81.5 18.5q-38 0 -75.5 -17t-66.5 -47t-47 -72.5t-18 -93.5
q0 -40 13 -73t36 -57t54 -37t66 -13q51 0 87 20t59 45q27 28 45 65h60q-21 -53 -56 -93q-15 -17 -34.5 -33.5t-44 -29.5t-54 -21t-64.5 -8zM381 755h65l84 -145h-58l-57 100h-15l-93 -100h-62z" />
    <glyph glyph-name="Cdotaccent" unicode="&#x10a;" horiz-adv-x="800" 
d="M442 -20q-75 0 -136.5 24.5t-105.5 68t-68 104t-24 131.5q0 90 32.5 166t86.5 130.5t125.5 85t149.5 30.5q81 0 140.5 -26.5t98.5 -65t59.5 -81.5t25.5 -77h-66q-16 53 -49 95q-14 18 -34 35t-46.5 30.5t-60 21.5t-75.5 8q-64 0 -122.5 -25t-102.5 -71t-70.5 -110.5
t-26.5 -143.5q0 -60 19.5 -109.5t55.5 -85t86 -55.5t112 -20q42 0 77 9t63.5 23t51.5 32.5t40 37.5q40 45 65 103h67q-30 -75 -80 -133q-21 -25 -49.5 -48.5t-64 -42t-79 -30t-95.5 -11.5zM541 815q-19 0 -30 12.5t-11 29.5q0 20 14.5 34t34.5 14q19 0 30 -12.5t11 -29.5
q0 -20 -14.5 -34t-34.5 -14z" />
    <glyph glyph-name="cdotaccent" unicode="&#x10b;" horiz-adv-x="570" 
d="M314 -10q-48 0 -89 17t-72 48t-48.5 73.5t-17.5 92.5q0 63 23 116.5t61 91.5t86.5 59.5t99.5 21.5q36 0 65 -7.5t51.5 -20t38.5 -28.5t28 -32q27 -39 37 -87h-60q-11 34 -32 60q-18 23 -49.5 41.5t-81.5 18.5q-38 0 -75.5 -17t-66.5 -47t-47 -72.5t-18 -93.5
q0 -40 13 -73t36 -57t54 -37t66 -13q51 0 87 20t59 45q27 28 45 65h60q-21 -53 -56 -93q-15 -17 -34.5 -33.5t-44 -29.5t-54 -21t-64.5 -8zM396 635q-19 0 -30 12.5t-11 29.5q0 20 14.5 34t34.5 14q19 0 30 -12.5t11 -29.5q0 -20 -14.5 -34t-34.5 -14z" />
    <glyph glyph-name="Ccaron" unicode="&#x10c;" horiz-adv-x="800" 
d="M442 -20q-75 0 -136.5 24.5t-105.5 68t-68 104t-24 131.5q0 90 32.5 166t86.5 130.5t125.5 85t149.5 30.5q81 0 140.5 -26.5t98.5 -65t59.5 -81.5t25.5 -77h-66q-16 53 -49 95q-14 18 -34 35t-46.5 30.5t-60 21.5t-75.5 8q-64 0 -122.5 -25t-102.5 -71t-70.5 -110.5
t-26.5 -143.5q0 -60 19.5 -109.5t55.5 -85t86 -55.5t112 -20q42 0 77 9t63.5 23t51.5 32.5t40 37.5q40 45 65 103h67q-30 -75 -80 -133q-21 -25 -49.5 -48.5t-64 -42t-79 -30t-95.5 -11.5zM415 935h58l57 -100h15l93 100h62l-136 -145h-65z" />
    <glyph glyph-name="ccaron" unicode="&#x10d;" horiz-adv-x="570" 
d="M314 -10q-48 0 -89 17t-72 48t-48.5 73.5t-17.5 92.5q0 63 23 116.5t61 91.5t86.5 59.5t99.5 21.5q36 0 65 -7.5t51.5 -20t38.5 -28.5t28 -32q27 -39 37 -87h-60q-11 34 -32 60q-18 23 -49.5 41.5t-81.5 18.5q-38 0 -75.5 -17t-66.5 -47t-47 -72.5t-18 -93.5
q0 -40 13 -73t36 -57t54 -37t66 -13q51 0 87 20t59 45q27 28 45 65h60q-21 -53 -56 -93q-15 -17 -34.5 -33.5t-44 -29.5t-54 -21t-64.5 -8zM275 755h58l57 -100h15l93 100h62l-136 -145h-65z" />
    <glyph glyph-name="Dcaron" unicode="&#x10e;" horiz-adv-x="720" 
d="M213 700h197q71 0 131 -23t103 -65t67 -100t24 -127q0 -81 -30 -151t-82.5 -122t-122.5 -82t-151 -30h-259zM355 60q67 0 125 25t100 68.5t66 103t24 128.5q0 54 -19 101t-53.5 81t-82.5 53.5t-105 19.5h-142l-102 -580h189zM385 935h58l57 -100h15l93 100h62l-136 -145
h-65z" />
    <glyph glyph-name="dcaron" unicode="&#x10f;" horiz-adv-x="660" 
d="M305 -10q-46 0 -86 17.5t-69 48t-46 72.5t-17 92q0 63 23 116.5t60.5 92t85 60t97.5 21.5q44 0 77.5 -13t57 -32t37 -41.5t18.5 -40.5l55 317h60l-122 -700h-60l15 84q-10 -15 -27 -31.5t-41 -30.5t-53.5 -23t-64.5 -9zM312 45q37 0 74 16.5t67 46.5t48.5 72t18.5 93
q0 40 -13 73.5t-35.5 57.5t-52.5 37.5t-64 13.5q-37 0 -74 -16.5t-67 -46.5t-48.5 -72t-18.5 -93q0 -40 13 -73.5t35.5 -57.5t52.5 -37.5t64 -13.5zM692 550q27 3 45.5 19t18.5 42q0 3 -0.5 5t-0.5 4q-1 2 -1 3l-4 -2q-3 -1 -10 -1q-15 0 -25.5 10t-10.5 25q0 17 14 31
t35 14q20 0 33.5 -15t13.5 -43q0 -27 -9.5 -48.5t-25.5 -37.5t-36 -25t-42 -11z" />
    <glyph glyph-name="Dcroat" unicode="&#x110;" horiz-adv-x="730" 
d="M155 315h-75l11 65h75l56 320h197q71 0 131 -23t103 -65t67 -100t24 -127q0 -81 -30 -151t-82.5 -122t-122.5 -82t-151 -30h-259zM364 60q67 0 125 25t100 68.5t66 103t24 128.5q0 54 -19 101t-53.5 81t-82.5 53.5t-105 19.5h-142l-46 -260h185l-11 -65h-185l-45 -255
h189z" />
    <glyph glyph-name="dcroat" unicode="&#x111;" horiz-adv-x="610" 
d="M299 -10q-47 0 -86 15.5t-67 44t-43.5 68t-15.5 86.5q0 62 21 113t55.5 87t80 56t95.5 20q57 0 93.5 -18.5t58 -40.5t29.5 -40l8 -18l36 202h-135l9 55h135l15 80h60l-15 -80h70l-9 -55h-70l-100 -565h-60l13 75q-18 -25 -44 -43q-23 -16 -56 -29t-78 -13zM311 45
q38 0 73 15t62 43.5t43.5 68.5t16.5 90q0 37 -12 67t-34 51.5t-52 33t-66 11.5q-38 0 -73 -15t-62 -43.5t-43.5 -68.5t-16.5 -90q0 -37 12 -67t34 -51.5t52 -33t66 -11.5z" />
    <glyph glyph-name="Emacron" unicode="&#x112;" horiz-adv-x="610" 
d="M213 700h475l-10 -60h-410l-45 -255h335l-11 -60h-335l-46 -265h410l-11 -60h-475zM350 890h255l-10 -55h-255z" />
    <glyph glyph-name="emacron" unicode="&#x113;" horiz-adv-x="590" 
d="M320 -10q-51 0 -94 17t-73.5 48t-48 73t-17.5 93q0 56 20.5 108t57 92.5t86.5 64.5t110 24q51 0 93.5 -17.5t72.5 -48.5t47 -73t17 -91q0 -10 -1 -19t-2 -16q-1 -8 -2 -15h-439v-5q0 -39 12.5 -72t36 -57t56 -37.5t72.5 -13.5q48 0 83.5 17t58.5 38q27 24 46 55h60
q-24 -47 -60 -83q-31 -31 -78.5 -56.5t-113.5 -25.5zM528 285q0 28 -10.5 58t-31.5 55t-53 41t-75 16q-40 0 -74 -14.5t-61 -38.5t-44.5 -54.5t-24.5 -62.5h374zM280 710h255l-10 -55h-255z" />
    <glyph glyph-name="Ebreve" unicode="&#x114;" horiz-adv-x="610" 
d="M213 700h475l-10 -60h-410l-45 -255h335l-11 -60h-335l-46 -265h410l-11 -60h-475zM473 800q-29 0 -52.5 9t-40 24t-26 35.5t-9.5 43.5v8h55v-5q0 -26 20 -45.5t58 -19.5q33 0 55.5 19t26.5 51h56q-3 -26 -15.5 -48t-31.5 -38t-44 -25t-52 -9z" />
    <glyph glyph-name="ebreve" unicode="&#x115;" horiz-adv-x="590" 
d="M320 -10q-51 0 -94 17t-73.5 48t-48 73t-17.5 93q0 56 20.5 108t57 92.5t86.5 64.5t110 24q51 0 93.5 -17.5t72.5 -48.5t47 -73t17 -91q0 -10 -1 -19t-2 -16q-1 -8 -2 -15h-439v-5q0 -39 12.5 -72t36 -57t56 -37.5t72.5 -13.5q48 0 83.5 17t58.5 38q27 24 46 55h60
q-24 -47 -60 -83q-31 -31 -78.5 -56.5t-113.5 -25.5zM528 285q0 28 -10.5 58t-31.5 55t-53 41t-75 16q-40 0 -74 -14.5t-61 -38.5t-44.5 -54.5t-24.5 -62.5h374zM393 620q-29 0 -52.5 9t-40 24t-26 35.5t-9.5 43.5v8h55v-5q0 -26 20 -45.5t58 -19.5q33 0 55.5 19t26.5 51h56
q-3 -26 -15.5 -48t-31.5 -38t-44 -25t-52 -9z" />
    <glyph glyph-name="Edotaccent" unicode="&#x116;" horiz-adv-x="610" 
d="M213 700h475l-10 -60h-410l-45 -255h335l-11 -60h-335l-46 -265h410l-11 -60h-475zM466 815q-19 0 -30 12.5t-11 29.5q0 20 14.5 34t34.5 14q19 0 30 -12.5t11 -29.5q0 -20 -14.5 -34t-34.5 -14z" />
    <glyph glyph-name="edotaccent" unicode="&#x117;" horiz-adv-x="590" 
d="M320 -10q-51 0 -94 17t-73.5 48t-48 73t-17.5 93q0 56 20.5 108t57 92.5t86.5 64.5t110 24q51 0 93.5 -17.5t72.5 -48.5t47 -73t17 -91q0 -10 -1 -19t-2 -16q-1 -8 -2 -15h-439v-5q0 -39 12.5 -72t36 -57t56 -37.5t72.5 -13.5q48 0 83.5 17t58.5 38q27 24 46 55h60
q-24 -47 -60 -83q-31 -31 -78.5 -56.5t-113.5 -25.5zM528 285q0 28 -10.5 58t-31.5 55t-53 41t-75 16q-40 0 -74 -14.5t-61 -38.5t-44.5 -54.5t-24.5 -62.5h374zM396 635q-19 0 -30 12.5t-11 29.5q0 20 14.5 34t34.5 14q19 0 30 -12.5t11 -29.5q0 -20 -14.5 -34t-34.5 -14z
" />
    <glyph glyph-name="Eogonek" unicode="&#x118;" horiz-adv-x="610" 
d="M465 -225q-42 0 -69.5 21.5t-27.5 62.5q0 27 13 48.5t32.5 39t42.5 31t44 22.5h-410l123 700h475l-10 -60h-410l-45 -255h335l-11 -60h-335l-46 -265h410l-11 -60q-26 -13 -52.5 -26.5t-47.5 -29.5t-34 -34.5t-13 -42.5q0 -20 14.5 -31t40.5 -11q11 0 22.5 1t19.5 3
q10 2 18 5l-8 -45q-7 -4 -17 -7q-19 -7 -43 -7z" />
    <glyph glyph-name="eogonek" unicode="&#x119;" horiz-adv-x="590" 
d="M297 -225q-42 0 -69.5 21.5t-27.5 62.5q0 24 10 43.5t25.5 35.5t35 29t39.5 23q-49 2 -90 19.5t-70.5 48t-46 72t-16.5 91.5q0 56 20.5 108t57 92.5t86.5 64.5t110 24q51 0 93.5 -17.5t72.5 -48.5t47 -73t17 -91q0 -10 -1 -19t-2 -16q-1 -8 -2 -15h-439v-5
q0 -39 12.5 -72t36 -57t56 -37.5t72.5 -13.5q48 0 83.5 17t58.5 38q27 24 46 55h60q-16 -36 -40.5 -63t-50.5 -46.5t-49 -30.5t-35 -15q-26 -13 -52.5 -26.5t-47.5 -29.5t-34 -34.5t-13 -42.5q0 -20 14.5 -31t40.5 -11q11 0 22.5 1t19.5 3q10 2 18 5l-8 -45q-7 -4 -17 -7
q-19 -7 -43 -7zM528 285q0 28 -10.5 58t-31.5 55t-53 41t-75 16q-40 0 -74 -14.5t-61 -38.5t-44.5 -54.5t-24.5 -62.5h374z" />
    <glyph glyph-name="Ecaron" unicode="&#x11a;" horiz-adv-x="610" 
d="M213 700h475l-10 -60h-410l-45 -255h335l-11 -60h-335l-46 -265h410l-11 -60h-475zM345 935h58l57 -100h15l93 100h62l-136 -145h-65z" />
    <glyph glyph-name="ecaron" unicode="&#x11b;" horiz-adv-x="590" 
d="M320 -10q-51 0 -94 17t-73.5 48t-48 73t-17.5 93q0 56 20.5 108t57 92.5t86.5 64.5t110 24q51 0 93.5 -17.5t72.5 -48.5t47 -73t17 -91q0 -10 -1 -19t-2 -16q-1 -8 -2 -15h-439v-5q0 -39 12.5 -72t36 -57t56 -37.5t72.5 -13.5q48 0 83.5 17t58.5 38q27 24 46 55h60
q-24 -47 -60 -83q-31 -31 -78.5 -56.5t-113.5 -25.5zM528 285q0 28 -10.5 58t-31.5 55t-53 41t-75 16q-40 0 -74 -14.5t-61 -38.5t-44.5 -54.5t-24.5 -62.5h374zM275 755h58l57 -100h15l93 100h62l-136 -145h-65z" />
    <glyph glyph-name="Gcircumflex" unicode="&#x11c;" horiz-adv-x="860" 
d="M442 -20q-75 0 -136.5 24.5t-105.5 68t-68 104t-24 131.5q0 90 32.5 166t86.5 130.5t125.5 85t149.5 30.5q81 0 139 -25t96 -62t58.5 -79.5t28.5 -78.5h-66q-16 52 -49 92q-14 17 -34 34t-46.5 30t-59.5 21t-74 8q-64 0 -122.5 -25t-102.5 -71t-70.5 -110.5t-26.5 -143.5
q0 -60 19.5 -109.5t55.5 -85t86 -55.5t112 -20q74 0 131 28t96 68.5t60 85t24 78.5h-138l10 60h295l-10 -60h-90q-9 -51 -38 -107t-77 -103.5t-115 -78.5t-152 -31zM526 935h65l84 -145h-58l-57 100h-15l-93 -100h-62z" />
    <glyph glyph-name="gcircumflex" unicode="&#x11d;" 
d="M87 -135h365l39 219q-10 -15 -27 -31.5t-41 -30.5t-53.5 -23t-64.5 -9q-46 0 -86 17.5t-69 48t-46 72.5t-17 92q0 63 23 116.5t60.5 92t85 60t97.5 21.5q44 0 77.5 -13t57 -32t37 -41.5t18.5 -40.5l21 117h60l-122 -690h-425zM312 45q37 0 74 16.5t67 46.5t48.5 72
t18.5 93q0 40 -13 73.5t-35.5 57.5t-52.5 37.5t-64 13.5q-37 0 -74 -16.5t-67 -46.5t-48.5 -72t-18.5 -93q0 -40 13 -73.5t35.5 -57.5t52.5 -37.5t64 -13.5zM396 755h65l84 -145h-58l-57 100h-15l-93 -100h-62z" />
    <glyph glyph-name="Gbreve" unicode="&#x11e;" horiz-adv-x="860" 
d="M442 -20q-75 0 -136.5 24.5t-105.5 68t-68 104t-24 131.5q0 90 32.5 166t86.5 130.5t125.5 85t149.5 30.5q81 0 139 -25t96 -62t58.5 -79.5t28.5 -78.5h-66q-16 52 -49 92q-14 17 -34 34t-46.5 30t-59.5 21t-74 8q-64 0 -122.5 -25t-102.5 -71t-70.5 -110.5t-26.5 -143.5
q0 -60 19.5 -109.5t55.5 -85t86 -55.5t112 -20q74 0 131 28t96 68.5t60 85t24 78.5h-138l10 60h295l-10 -60h-90q-9 -51 -38 -107t-77 -103.5t-115 -78.5t-152 -31zM533 800q-29 0 -52.5 9t-40 24t-26 35.5t-9.5 43.5v8h55v-5q0 -26 20 -45.5t58 -19.5q33 0 55.5 19t26.5 51
h56q-3 -26 -15.5 -48t-31.5 -38t-44 -25t-52 -9z" />
    <glyph glyph-name="gbreve" unicode="&#x11f;" 
d="M87 -135h365l39 219q-10 -15 -27 -31.5t-41 -30.5t-53.5 -23t-64.5 -9q-46 0 -86 17.5t-69 48t-46 72.5t-17 92q0 63 23 116.5t60.5 92t85 60t97.5 21.5q44 0 77.5 -13t57 -32t37 -41.5t18.5 -40.5l21 117h60l-122 -690h-425zM312 45q37 0 74 16.5t67 46.5t48.5 72
t18.5 93q0 40 -13 73.5t-35.5 57.5t-52.5 37.5t-64 13.5q-37 0 -74 -16.5t-67 -46.5t-48.5 -72t-18.5 -93q0 -40 13 -73.5t35.5 -57.5t52.5 -37.5t64 -13.5zM413 620q-29 0 -52.5 9t-40 24t-26 35.5t-9.5 43.5v8h55v-5q0 -26 20 -45.5t58 -19.5q33 0 55.5 19t26.5 51h56
q-3 -26 -15.5 -48t-31.5 -38t-44 -25t-52 -9z" />
    <glyph glyph-name="Gdotaccent" unicode="&#x120;" horiz-adv-x="860" 
d="M442 -20q-75 0 -136.5 24.5t-105.5 68t-68 104t-24 131.5q0 90 32.5 166t86.5 130.5t125.5 85t149.5 30.5q81 0 139 -25t96 -62t58.5 -79.5t28.5 -78.5h-66q-16 52 -49 92q-14 17 -34 34t-46.5 30t-59.5 21t-74 8q-64 0 -122.5 -25t-102.5 -71t-70.5 -110.5t-26.5 -143.5
q0 -60 19.5 -109.5t55.5 -85t86 -55.5t112 -20q74 0 131 28t96 68.5t60 85t24 78.5h-138l10 60h295l-10 -60h-90q-9 -51 -38 -107t-77 -103.5t-115 -78.5t-152 -31zM541 815q-19 0 -30 12.5t-11 29.5q0 20 14.5 34t34.5 14q19 0 30 -12.5t11 -29.5q0 -20 -14.5 -34
t-34.5 -14z" />
    <glyph glyph-name="gdotaccent" unicode="&#x121;" 
d="M87 -135h365l39 219q-10 -15 -27 -31.5t-41 -30.5t-53.5 -23t-64.5 -9q-46 0 -86 17.5t-69 48t-46 72.5t-17 92q0 63 23 116.5t60.5 92t85 60t97.5 21.5q44 0 77.5 -13t57 -32t37 -41.5t18.5 -40.5l21 117h60l-122 -690h-425zM312 45q37 0 74 16.5t67 46.5t48.5 72
t18.5 93q0 40 -13 73.5t-35.5 57.5t-52.5 37.5t-64 13.5q-37 0 -74 -16.5t-67 -46.5t-48.5 -72t-18.5 -93q0 -40 13 -73.5t35.5 -57.5t52.5 -37.5t64 -13.5zM411 635q-19 0 -30 12.5t-11 29.5q0 20 14.5 34t34.5 14q19 0 30 -12.5t11 -29.5q0 -20 -14.5 -34t-34.5 -14z" />
    <glyph glyph-name="Gcommaaccent" unicode="&#x122;" horiz-adv-x="860" 
d="M442 -20q-75 0 -136.5 24.5t-105.5 68t-68 104t-24 131.5q0 90 32.5 166t86.5 130.5t125.5 85t149.5 30.5q81 0 139 -25t96 -62t58.5 -79.5t28.5 -78.5h-66q-16 52 -49 92q-14 17 -34 34t-46.5 30t-59.5 21t-74 8q-64 0 -122.5 -25t-102.5 -71t-70.5 -110.5t-26.5 -143.5
q0 -60 19.5 -109.5t55.5 -85t86 -55.5t112 -20q74 0 131 28t96 68.5t60 85t24 78.5h-138l10 60h295l-10 -60h-90q-9 -51 -38 -107t-77 -103.5t-115 -78.5t-152 -31zM360 -250q27 3 45.5 19t18.5 42q0 3 -0.5 5t-0.5 4q-1 2 -1 3l-4 -2q-3 -1 -10 -1q-15 0 -25.5 10t-10.5 25
q0 17 14 31t35 14q20 0 33.5 -15t13.5 -43q0 -27 -9.5 -48.5t-25.5 -37.5t-36 -25t-42 -11z" />
    <glyph glyph-name="gcommaaccent" unicode="&#x123;" 
d="M392 590q-20 0 -33.5 15t-13.5 43q0 27 9.5 48.5t25 37.5t36 25t42.5 11l-5 -30q-27 -3 -45.5 -19t-18.5 -42q0 -7 1 -9q0 -2 1 -3q1 0 4 1q4 2 10 2q15 0 25.5 -10t10.5 -25q0 -17 -14 -31t-35 -14zM87 -135h365l39 219q-10 -15 -27 -31.5t-41 -30.5t-53.5 -23t-64.5 -9
q-46 0 -86 17.5t-69 48t-46 72.5t-17 92q0 63 23 116.5t60.5 92t85 60t97.5 21.5q44 0 77.5 -13t57 -32t37 -41.5t18.5 -40.5l21 117h60l-122 -690h-425zM312 45q37 0 74 16.5t67 46.5t48.5 72t18.5 93q0 40 -13 73.5t-35.5 57.5t-52.5 37.5t-64 13.5q-37 0 -74 -16.5
t-67 -46.5t-48.5 -72t-18.5 -93q0 -40 13 -73.5t35.5 -57.5t52.5 -37.5t64 -13.5z" />
    <glyph glyph-name="Hcircumflex" unicode="&#x124;" horiz-adv-x="715" 
d="M213 700h65l-55 -315h405l55 315h65l-123 -700h-65l57 325h-405l-57 -325h-65zM486 935h65l84 -145h-58l-57 100h-15l-93 -100h-62z" />
    <glyph glyph-name="hcircumflex" unicode="&#x125;" horiz-adv-x="580" 
d="M203 700h60l-47 -270q16 22 40 40q20 15 52 27.5t78 12.5q50 0 87 -17t59 -47.5t29 -73.5t-2 -94l-49 -278h-60l51 289q6 36 1.5 66t-20 52.5t-42.5 35t-65 12.5q-33 0 -63.5 -12t-55 -33.5t-42 -51.5t-23.5 -67l-51 -291h-60zM436 935h65l84 -145h-58l-57 100h-15
l-93 -100h-62z" />
    <glyph glyph-name="Hbar" unicode="&#x126;" horiz-adv-x="735" 
d="M194 535h-80l10 55h80l19 110h65l-19 -110h405l19 110h65l-19 -110h80l-10 -55h-80l-94 -535h-65l57 325h-405l-57 -325h-65zM637 385l27 150h-405l-27 -150h405z" />
    <glyph glyph-name="hbar" unicode="&#x127;" horiz-adv-x="590" 
d="M187 555h-90l10 55h90l16 90h60l-16 -90h150l-10 -55h-150l-32 -185q16 22 40 40q20 15 52 27.5t78 12.5q50 0 87 -17t59 -47.5t29 -73.5t-2 -94l-38 -218h-60l40 229q6 36 1.5 66t-20 52.5t-42.5 35t-65 12.5q-33 0 -63.5 -12t-55 -33.5t-42 -51.5t-23.5 -67l-40 -231
h-60z" />
    <glyph glyph-name="Imacron" unicode="&#x12a;" horiz-adv-x="245" 
d="M213 700h65l-123 -700h-65zM150 890h255l-10 -55h-255z" />
    <glyph glyph-name="imacron" unicode="&#x12b;" horiz-adv-x="220" 
d="M168 500h60l-88 -500h-60zM105 710h255l-10 -55h-255z" />
    <glyph glyph-name="Ibreve" unicode="&#x12c;" horiz-adv-x="245" 
d="M213 700h65l-123 -700h-65zM268 800q-29 0 -52.5 9t-40 24t-26 35.5t-9.5 43.5v8h55v-5q0 -26 20 -45.5t58 -19.5q33 0 55.5 19t26.5 51h56q-3 -26 -15.5 -48t-31.5 -38t-44 -25t-52 -9z" />
    <glyph glyph-name="ibreve" unicode="&#x12d;" horiz-adv-x="220" 
d="M168 500h60l-88 -500h-60zM223 620q-29 0 -52.5 9t-40 24t-26 35.5t-9.5 43.5v8h55v-5q0 -26 20 -45.5t58 -19.5q33 0 55.5 19t26.5 51h56q-3 -26 -15.5 -48t-31.5 -38t-44 -25t-52 -9z" />
    <glyph glyph-name="Iogonek" unicode="&#x12e;" horiz-adv-x="245" 
d="M55 -225q-42 0 -69.5 21.5t-27.5 62.5q0 27 12.5 48.5t32 39t42.5 30.5t44 23l124 700h65l-124 -700q-26 -14 -52 -27.5t-47 -29t-34 -34t-13 -42.5q0 -20 14.5 -31t40.5 -11q11 0 22.5 1t19.5 3q10 2 18 5l-8 -45q-7 -4 -17 -7q-19 -7 -43 -7z" />
    <glyph glyph-name="iogonek" unicode="&#x12f;" horiz-adv-x="220" 
d="M40 -225q-42 0 -69.5 21.5t-27.5 62.5q0 28 13.5 50t34.5 40t45 31t45 23l87 497h60l-88 -500q-26 -13 -52.5 -26.5t-47.5 -29.5t-34 -34.5t-13 -42.5q0 -20 14.5 -31t40.5 -11q11 0 22.5 1t19.5 3q10 2 18 5l-8 -45q-7 -4 -17 -7q-19 -7 -43 -7zM221 605q-19 0 -30 12.5
t-11 29.5q0 20 14.5 34t34.5 14q19 0 30 -12.5t11 -29.5q0 -20 -14.5 -34t-34.5 -14z" />
    <glyph glyph-name="Idotaccent" unicode="&#x130;" horiz-adv-x="245" 
d="M213 700h65l-123 -700h-65zM266 815q-19 0 -30 12.5t-11 29.5q0 20 14.5 34t34.5 14q19 0 30 -12.5t11 -29.5q0 -20 -14.5 -34t-34.5 -14z" />
    <glyph glyph-name="dotlessi" unicode="&#x131;" horiz-adv-x="220" 
d="M168 500h60l-88 -500h-60z" />
    <glyph glyph-name="uni0132" unicode="&#x132;" horiz-adv-x="795" 
d="M213 700h65l-123 -700h-65zM503 -20q-59 0 -100 17.5t-67.5 44t-40.5 57t-19 57.5l67 14q6 -37 25 -65q17 -25 49 -45t88 -20q66 0 114 43t62 124l87 493h65l-88 -499q-19 -106 -83.5 -163.5t-158.5 -57.5z" />
    <glyph glyph-name="uni0133" unicode="&#x133;" horiz-adv-x="440" 
d="M168 500h60l-88 -500h-60zM132 -135h145l111 635h60l-121 -690h-205zM221 605q-19 0 -30 12.5t-11 29.5q0 20 14.5 34t34.5 14q19 0 30 -12.5t11 -29.5q0 -20 -14.5 -34t-34.5 -14zM442 605q-19 0 -30 12.5t-11 29.5q0 20 14.5 34t34.5 14q19 0 30 -12.5t11 -29.5
q0 -20 -14.5 -34t-34.5 -14z" />
    <glyph glyph-name="Jcircumflex" unicode="&#x134;" horiz-adv-x="550" 
d="M258 -20q-59 0 -100 17.5t-67.5 44t-40.5 57t-19 57.5l67 14q6 -37 25 -65q17 -25 49 -45t88 -20q66 0 114 43t62 124l87 493h65l-88 -499q-19 -106 -83.5 -163.5t-158.5 -57.5zM566 935h65l84 -145h-58l-57 100h-15l-93 -100h-62z" />
    <glyph glyph-name="jcircumflex" unicode="&#x135;" horiz-adv-x="220" 
d="M-88 -135h144l112 635h60l-122 -690h-204zM201 739h65l84 -145h-58l-57 100h-15l-93 -100h-62z" />
    <glyph glyph-name="Kcommaaccent" unicode="&#x136;" horiz-adv-x="630" 
d="M213 700h65l-55 -315h155l280 315h80l-305 -340l192 -360h-80l-173 325h-160l-57 -325h-65zM275 -250q27 3 45.5 19t18.5 42q0 3 -0.5 5t-0.5 4q-1 2 -1 3l-4 -2q-3 -1 -10 -1q-15 0 -25.5 10t-10.5 25q0 17 14 31t35 14q20 0 33.5 -15t13.5 -43q0 -27 -9.5 -48.5
t-25.5 -37.5t-36 -25t-42 -11z" />
    <glyph glyph-name="kcommaaccent" unicode="&#x137;" horiz-adv-x="520" 
d="M203 700h60l-72 -410h119l202 210h71l-227 -240l154 -260h-69l-139 235h-121l-41 -235h-60zM220 -250q27 3 45.5 19t18.5 42q0 3 -0.5 5t-0.5 4q-1 2 -1 3l-4 -2q-3 -1 -10 -1q-15 0 -25.5 10t-10.5 25q0 17 14 31t35 14q20 0 33.5 -15t13.5 -43q0 -27 -9.5 -48.5
t-25.5 -37.5t-36 -25t-42 -11z" />
    <glyph glyph-name="Lacute" unicode="&#x139;" horiz-adv-x="525" 
d="M213 700h65l-112 -640h380l-11 -60h-445zM351 935h75l-141 -145h-50z" />
    <glyph glyph-name="lacute" unicode="&#x13a;" horiz-adv-x="270" 
d="M203 700h60l-113 -645h115l-10 -55h-175zM341 935h75l-141 -145h-50z" />
    <glyph glyph-name="Lcommaaccent" unicode="&#x13b;" horiz-adv-x="525" 
d="M213 700h65l-112 -640h380l-11 -60h-445zM245 -250q27 3 45.5 19t18.5 42q0 3 -0.5 5t-0.5 4q-1 2 -1 3l-4 -2q-3 -1 -10 -1q-15 0 -25.5 10t-10.5 25q0 17 14 31t35 14q20 0 33.5 -15t13.5 -43q0 -27 -9.5 -48.5t-25.5 -37.5t-36 -25t-42 -11z" />
    <glyph glyph-name="lcommaaccent" unicode="&#x13c;" horiz-adv-x="270" 
d="M203 700h60l-113 -645h115l-10 -55h-175zM95 -250q27 3 45.5 19t18.5 42q0 3 -0.5 5t-0.5 4q-1 2 -1 3l-4 -2q-3 -1 -10 -1q-15 0 -25.5 10t-10.5 25q0 17 14 31t35 14q20 0 33.5 -15t13.5 -43q0 -27 -9.5 -48.5t-25.5 -37.5t-36 -25t-42 -11z" />
    <glyph glyph-name="Lcaron" unicode="&#x13d;" horiz-adv-x="525" 
d="M213 700h65l-112 -640h380l-11 -60h-445zM352 550q27 3 45.5 19t18.5 42q0 3 -0.5 5t-0.5 4q-1 2 -1 3l-4 -2q-3 -1 -10 -1q-15 0 -25.5 10t-10.5 25q0 17 14 31t35 14q20 0 33.5 -15t13.5 -43q0 -27 -9.5 -48.5t-25.5 -37.5t-36 -25t-42 -11z" />
    <glyph glyph-name="lcaron" unicode="&#x13e;" horiz-adv-x="270" 
d="M203 700h60l-113 -645h115l-10 -55h-175zM297 550q27 3 45.5 19t18.5 42q0 3 -0.5 5t-0.5 4q-1 2 -1 3l-4 -2q-3 -1 -10 -1q-15 0 -25.5 10t-10.5 25q0 17 14 31t35 14q20 0 33.5 -15t13.5 -43q0 -27 -9.5 -48.5t-25.5 -37.5t-36 -25t-42 -11z" />
    <glyph glyph-name="Ldot" unicode="&#x13f;" horiz-adv-x="525" 
d="M213 700h65l-112 -640h380l-11 -60h-445zM451 335q-19 0 -30 12.5t-11 29.5q0 20 14.5 34t34.5 14q19 0 30 -12.5t11 -29.5q0 -20 -14.5 -34t-34.5 -14z" />
    <glyph glyph-name="ldot" unicode="&#x140;" horiz-adv-x="360" 
d="M203 700h60l-113 -645h115l-10 -55h-175zM351 320q-19 0 -30 12.5t-11 29.5q0 20 14.5 34t34.5 14q19 0 30 -12.5t11 -29.5q0 -20 -14.5 -34t-34.5 -14z" />
    <glyph glyph-name="Lslash" unicode="&#x141;" horiz-adv-x="525" 
d="M138 275l-70 -30l11 65l71 30l63 360h65l-58 -330l162 70l-11 -65l-162 -70l-44 -245h380l-10 -60h-445z" />
    <glyph glyph-name="lslash" unicode="&#x142;" horiz-adv-x="280" 
d="M140 285l-92 -40l11 60l92 40l62 355h60l-58 -330l103 45l-11 -60l-103 -45l-45 -255h115l-9 -55h-175z" />
    <glyph glyph-name="Nacute" unicode="&#x143;" horiz-adv-x="725" 
d="M213 700h95l273 -635l112 635h65l-123 -700h-95l-273 635l-112 -635h-65zM591 935h75l-141 -145h-50z" />
    <glyph glyph-name="nacute" unicode="&#x144;" horiz-adv-x="580" 
d="M168 500h60l-12 -70q16 22 40 40q20 15 52 27.5t78 12.5q50 0 87 -17t59 -47.5t29 -73.5t-2 -94l-49 -278h-60l51 289q6 36 1.5 66t-20 52.5t-42.5 35t-65 12.5q-33 0 -63.5 -12t-55 -33.5t-42 -51.5t-23.5 -67l-51 -291h-60zM491 755h75l-141 -145h-50z" />
    <glyph glyph-name="Ncommaaccent" unicode="&#x145;" horiz-adv-x="725" 
d="M213 700h95l273 -635l112 635h65l-123 -700h-95l-273 635l-112 -635h-65zM295 -250q27 3 45.5 19t18.5 42q0 3 -0.5 5t-0.5 4q-1 2 -1 3l-4 -2q-3 -1 -10 -1q-15 0 -25.5 10t-10.5 25q0 17 14 31t35 14q20 0 33.5 -15t13.5 -43q0 -27 -9.5 -48.5t-25.5 -37.5t-36 -25
t-42 -11z" />
    <glyph glyph-name="ncommaaccent" unicode="&#x146;" horiz-adv-x="580" 
d="M168 500h60l-12 -70q16 22 40 40q20 15 52 27.5t78 12.5q50 0 87 -17t59 -47.5t29 -73.5t-2 -94l-49 -278h-60l51 289q6 36 1.5 66t-20 52.5t-42.5 35t-65 12.5q-33 0 -63.5 -12t-55 -33.5t-42 -51.5t-23.5 -67l-51 -291h-60zM225 -250q27 3 45.5 19t18.5 42q0 3 -0.5 5
t-0.5 4q-1 2 -1 3l-4 -2q-3 -1 -10 -1q-15 0 -25.5 10t-10.5 25q0 17 14 31t35 14q20 0 33.5 -15t13.5 -43q0 -27 -9.5 -48.5t-25.5 -37.5t-36 -25t-42 -11z" />
    <glyph glyph-name="Ncaron" unicode="&#x147;" horiz-adv-x="725" 
d="M213 700h95l273 -635l112 635h65l-123 -700h-95l-273 635l-112 -635h-65zM385 935h58l57 -100h15l93 100h62l-136 -145h-65z" />
    <glyph glyph-name="ncaron" unicode="&#x148;" horiz-adv-x="580" 
d="M168 500h60l-12 -70q16 22 40 40q20 15 52 27.5t78 12.5q50 0 87 -17t59 -47.5t29 -73.5t-2 -94l-49 -278h-60l51 289q6 36 1.5 66t-20 52.5t-42.5 35t-65 12.5q-33 0 -63.5 -12t-55 -33.5t-42 -51.5t-23.5 -67l-51 -291h-60zM280 755h58l57 -100h15l93 100h62l-136 -145
h-65z" />
    <glyph glyph-name="Eng" unicode="&#x14a;" horiz-adv-x="725" 
d="M411 -250q-32 0 -57.5 7t-44.5 18t-33 25.5t-24 29.5q-23 35 -30 81l61 15q5 -32 21 -58q14 -22 40 -40t71 -18q56 0 94.5 39.5t52.5 109.5l8 41h-30l-273 635l-112 -635h-65l123 700h95l273 -635l112 635h65l-132 -747q-17 -99 -75 -151t-140 -52z" />
    <glyph glyph-name="eng" unicode="&#x14b;" horiz-adv-x="580" 
d="M281 -135h145l75 424q6 36 1.5 66t-20 52.5t-42.5 35t-65 12.5q-33 0 -63.5 -12t-55 -33.5t-42 -51.5t-23.5 -67l-51 -291h-60l88 500h60l-12 -70q16 22 40 40q20 15 52 27.5t78 12.5q50 0 87 -17t59 -47.5t29 -73.5t-2 -94l-83 -468h-205z" />
    <glyph glyph-name="Omacron" unicode="&#x14c;" horiz-adv-x="820" 
d="M443 -20q-75 0 -136.5 24.5t-106 68.5t-68.5 104t-24 131q0 90 32 165.5t86 130.5t125 85.5t149 30.5q75 0 136.5 -24.5t106 -68.5t68.5 -104t24 -131q0 -90 -32 -165.5t-86 -130.5t-125 -85.5t-149 -30.5zM447 40q64 0 123 25t103 71t70.5 110.5t26.5 143.5
q0 60 -20 109.5t-56 85.5t-86.5 55.5t-111.5 19.5q-65 0 -123.5 -25t-102.5 -71t-70.5 -110.5t-26.5 -143.5q0 -60 19.5 -109.5t55.5 -85.5t86.5 -55.5t112.5 -19.5zM420 890h255l-10 -55h-255z" />
    <glyph glyph-name="omacron" unicode="&#x14d;" horiz-adv-x="600" 
d="M323 -10q-53 0 -96.5 17.5t-74.5 48.5t-48 73.5t-17 91.5q0 63 22.5 116t61 91.5t88.5 60t105 21.5q53 0 96.5 -17.5t74.5 -48.5t48 -73.5t17 -91.5q0 -63 -23 -116t-61 -91.5t-88 -60t-105 -21.5zM326 45q42 0 80.5 17t68.5 47.5t47.5 72.5t17.5 93q0 39 -13 72
t-36.5 57t-56.5 37.5t-73 13.5q-42 0 -80.5 -17t-68.5 -47.5t-47.5 -72.5t-17.5 -93q0 -39 13 -72t36.5 -57t56.5 -37.5t73 -13.5zM280 710h255l-10 -55h-255z" />
    <glyph glyph-name="Obreve" unicode="&#x14e;" horiz-adv-x="820" 
d="M443 -20q-75 0 -136.5 24.5t-106 68.5t-68.5 104t-24 131q0 90 32 165.5t86 130.5t125 85.5t149 30.5q75 0 136.5 -24.5t106 -68.5t68.5 -104t24 -131q0 -90 -32 -165.5t-86 -130.5t-125 -85.5t-149 -30.5zM447 40q64 0 123 25t103 71t70.5 110.5t26.5 143.5
q0 60 -20 109.5t-56 85.5t-86.5 55.5t-111.5 19.5q-65 0 -123.5 -25t-102.5 -71t-70.5 -110.5t-26.5 -143.5q0 -60 19.5 -109.5t55.5 -85.5t86.5 -55.5t112.5 -19.5zM538 800q-29 0 -52.5 9t-40 24t-26 35.5t-9.5 43.5v8h55v-5q0 -26 20 -45.5t58 -19.5q33 0 55.5 19
t26.5 51h56q-3 -26 -15.5 -48t-31.5 -38t-44 -25t-52 -9z" />
    <glyph glyph-name="obreve" unicode="&#x14f;" horiz-adv-x="600" 
d="M323 -10q-53 0 -96.5 17.5t-74.5 48.5t-48 73.5t-17 91.5q0 63 22.5 116t61 91.5t88.5 60t105 21.5q53 0 96.5 -17.5t74.5 -48.5t48 -73.5t17 -91.5q0 -63 -23 -116t-61 -91.5t-88 -60t-105 -21.5zM326 45q42 0 80.5 17t68.5 47.5t47.5 72.5t17.5 93q0 39 -13 72
t-36.5 57t-56.5 37.5t-73 13.5q-42 0 -80.5 -17t-68.5 -47.5t-47.5 -72.5t-17.5 -93q0 -39 13 -72t36.5 -57t56.5 -37.5t73 -13.5zM408 620q-29 0 -52.5 9t-40 24t-26 35.5t-9.5 43.5v8h55v-5q0 -26 20 -45.5t58 -19.5q33 0 55.5 19t26.5 51h56q-3 -26 -15.5 -48t-31.5 -38
t-44 -25t-52 -9z" />
    <glyph glyph-name="Ohungarumlaut" unicode="&#x150;" horiz-adv-x="820" 
d="M443 -20q-75 0 -136.5 24.5t-106 68.5t-68.5 104t-24 131q0 90 32 165.5t86 130.5t125 85.5t149 30.5q75 0 136.5 -24.5t106 -68.5t68.5 -104t24 -131q0 -90 -32 -165.5t-86 -130.5t-125 -85.5t-149 -30.5zM447 40q64 0 123 25t103 71t70.5 110.5t26.5 143.5
q0 60 -20 109.5t-56 85.5t-86.5 55.5t-111.5 19.5q-65 0 -123.5 -25t-102.5 -71t-70.5 -110.5t-26.5 -143.5q0 -60 19.5 -109.5t55.5 -85.5t86.5 -55.5t112.5 -19.5zM541 935h70l-126 -145h-45zM686 935h70l-126 -145h-45z" />
    <glyph glyph-name="ohungarumlaut" unicode="&#x151;" horiz-adv-x="600" 
d="M323 -10q-53 0 -96.5 17.5t-74.5 48.5t-48 73.5t-17 91.5q0 63 22.5 116t61 91.5t88.5 60t105 21.5q53 0 96.5 -17.5t74.5 -48.5t48 -73.5t17 -91.5q0 -63 -23 -116t-61 -91.5t-88 -60t-105 -21.5zM326 45q42 0 80.5 17t68.5 47.5t47.5 72.5t17.5 93q0 39 -13 72
t-36.5 57t-56.5 37.5t-73 13.5q-42 0 -80.5 -17t-68.5 -47.5t-47.5 -72.5t-17.5 -93q0 -39 13 -72t36.5 -57t56.5 -37.5t73 -13.5zM396 755h70l-126 -145h-45zM541 755h70l-126 -145h-45z" />
    <glyph glyph-name="OE" unicode="&#x152;" horiz-adv-x="1180" 
d="M422 -20q-68 0 -125.5 24t-99.5 66.5t-65.5 102t-23.5 130.5q0 94 32.5 170.5t86 131.5t122.5 85t142 30q53 0 94 -13t72.5 -32.5t53 -42.5t35.5 -42.5t20 -32l6 -12.5l27 155h460l-11 -60h-395l-45 -255h320l-10 -60h-320l-47 -265h395l-11 -60h-460l20 107
q-32 -36 -73 -64q-35 -24 -85.5 -43.5t-114.5 -19.5zM428 40q60 0 116 25t99 71t68.5 112t25.5 149q0 60 -18.5 108.5t-52 83t-80.5 53t-104 18.5q-60 0 -116 -25t-99 -71t-68.5 -112.5t-25.5 -148.5q0 -60 18.5 -108.5t52 -83t80.5 -53t104 -18.5z" />
    <glyph glyph-name="oe" unicode="&#x153;" horiz-adv-x="1005" 
d="M311 -10q-48 0 -89 17.5t-71 48t-47 72.5t-17 92q0 60 22 113t59 92t86 62t103 23q48 0 83 -14.5t59.5 -35.5t39.5 -44t22 -39q35 58 92.5 95.5t127.5 37.5q49 0 90.5 -17.5t71.5 -48.5t46.5 -73t16.5 -91q0 -10 -1 -19t-2 -16q-1 -8 -2 -15h-424v-5q0 -39 12.5 -72
t35 -57t53 -37.5t66.5 -13.5q46 0 80.5 17t57.5 38q26 24 45 55h60q-24 -47 -59 -83q-30 -31 -76.5 -56.5t-111.5 -25.5q-37 0 -69.5 11t-59 29t-46.5 42t-31 50q-12 -21 -32.5 -44t-49 -42.5t-64 -32.5t-77.5 -13zM312 45q39 0 76 17t66 48t47 73.5t18 93.5
q0 39 -12.5 71.5t-34.5 56t-52.5 37t-65.5 13.5q-39 0 -76 -17t-66 -48t-47 -73.5t-18 -93.5q0 -39 12.5 -71.5t34.5 -56t52.5 -37t65.5 -13.5zM943 285q0 28 -10.5 58t-31 55t-51.5 41t-72 16q-36 0 -68.5 -14.5t-58 -38.5t-43 -54.5t-24.5 -62.5h359z" />
    <glyph glyph-name="Racute" unicode="&#x154;" horiz-adv-x="685" 
d="M213 700h272q54 0 96.5 -15t72 -41t44.5 -61.5t15 -75.5q0 -48 -15.5 -89t-45 -72.5t-71 -50.5t-92.5 -23l131 -272h-75l-127 270h-215l-48 -270h-65zM467 330q42 0 76 12.5t57 35.5t35.5 55t12.5 71q0 61 -43 98.5t-130 37.5h-207l-55 -310h254zM571 935h75l-141 -145
h-50z" />
    <glyph glyph-name="racute" unicode="&#x155;" horiz-adv-x="375" 
d="M168 500h60l-17 -95q16 28 42 50q22 19 55 34.5t81 15.5h60l-10 -55h-60q-36 0 -67.5 -12.5t-56.5 -35.5t-42.5 -55.5t-24.5 -71.5l-48 -275h-60zM416 755h75l-141 -145h-50z" />
    <glyph glyph-name="Rcommaaccent" unicode="&#x156;" horiz-adv-x="685" 
d="M213 700h272q54 0 96.5 -15t72 -41t44.5 -61.5t15 -75.5q0 -48 -15.5 -89t-45 -72.5t-71 -50.5t-92.5 -23l131 -272h-75l-127 270h-215l-48 -270h-65zM467 330q42 0 76 12.5t57 35.5t35.5 55t12.5 71q0 61 -43 98.5t-130 37.5h-207l-55 -310h254zM275 -250q27 3 45.5 19
t18.5 42q0 3 -0.5 5t-0.5 4q-1 2 -1 3l-4 -2q-3 -1 -10 -1q-15 0 -25.5 10t-10.5 25q0 17 14 31t35 14q20 0 33.5 -15t13.5 -43q0 -27 -9.5 -48.5t-25.5 -37.5t-36 -25t-42 -11z" />
    <glyph glyph-name="rcommaaccent" unicode="&#x157;" horiz-adv-x="375" 
d="M168 500h60l-17 -95q16 28 42 50q22 19 55 34.5t81 15.5h60l-10 -55h-60q-36 0 -67.5 -12.5t-56.5 -35.5t-42.5 -55.5t-24.5 -71.5l-48 -275h-60zM30 -250q27 3 45.5 19t18.5 42q0 3 -0.5 5t-0.5 4q-1 2 -1 3l-4 -2q-3 -1 -10 -1q-15 0 -25.5 10t-10.5 25q0 17 14 31
t35 14q20 0 33.5 -15t13.5 -43q0 -27 -9.5 -48.5t-25.5 -37.5t-36 -25t-42 -11z" />
    <glyph glyph-name="Rcaron" unicode="&#x158;" horiz-adv-x="685" 
d="M213 700h272q54 0 96.5 -15t72 -41t44.5 -61.5t15 -75.5q0 -48 -15.5 -89t-45 -72.5t-71 -50.5t-92.5 -23l131 -272h-75l-127 270h-215l-48 -270h-65zM467 330q42 0 76 12.5t57 35.5t35.5 55t12.5 71q0 61 -43 98.5t-130 37.5h-207l-55 -310h254zM365 935h58l57 -100h15
l93 100h62l-136 -145h-65z" />
    <glyph glyph-name="rcaron" unicode="&#x159;" horiz-adv-x="375" 
d="M168 500h60l-17 -95q16 28 42 50q22 19 55 34.5t81 15.5h60l-10 -55h-60q-36 0 -67.5 -12.5t-56.5 -35.5t-42.5 -55.5t-24.5 -71.5l-48 -275h-60zM205 755h58l57 -100h15l93 100h62l-136 -145h-65z" />
    <glyph glyph-name="Sacute" unicode="&#x15a;" horiz-adv-x="635" 
d="M361 -20q-48 0 -85.5 9t-65.5 23t-48.5 32.5t-33.5 37.5q-33 45 -41 103h65l3 -11t11.5 -27t23 -35t38.5 -35t58.5 -26.5t81.5 -10.5q44 -2 79 10t59 32.5t36.5 46.5t12.5 53q0 40 -28.5 66.5t-71 47t-92.5 39t-92.5 42.5t-71 57.5t-28.5 84.5q0 40 17 76t49 64
t76.5 44.5t100.5 16.5q60 0 102.5 -14t71 -34.5t45 -44.5t25 -44.5t10.5 -34l2 -13.5h-64q-8 35 -33 62q-21 23 -60.5 43t-106.5 20q-39 0 -70.5 -10.5t-53.5 -29t-34 -42.5t-12 -51q0 -39 28.5 -65.5t71 -47.5t92.5 -40t92.5 -43.5t71 -58.5t28.5 -84q0 -41 -18 -78.5
t-52 -66t-81.5 -46t-107.5 -17.5zM536 935h75l-141 -145h-50z" />
    <glyph glyph-name="sacute" unicode="&#x15b;" horiz-adv-x="510" 
d="M298 -10q-38 0 -68 7t-53.5 18t-40 25.5t-28.5 29.5q-27 35 -37 80h64q8 -30 28 -53q17 -20 50 -36t89 -16q62 0 94 26t32 64q0 27 -22 44.5t-55 30t-72 24t-72 28.5t-55 41.5t-22 63.5q0 28 12 53.5t34.5 45.5t56 32t77.5 12q35 0 62.5 -6.5t48.5 -16.5t36.5 -23.5
t26.5 -26.5q25 -32 34 -72h-65q-9 25 -27 45q-16 17 -44.5 31t-75.5 14q-59 0 -87.5 -25t-28.5 -56q0 -28 22 -45t55 -29.5t72 -24.5t72 -28.5t55 -41t22 -63.5q0 -32 -12.5 -59.5t-37 -48t-60 -32.5t-80.5 -12zM431 755h75l-141 -145h-50z" />
    <glyph glyph-name="Scircumflex" unicode="&#x15c;" horiz-adv-x="635" 
d="M361 -20q-48 0 -85.5 9t-65.5 23t-48.5 32.5t-33.5 37.5q-33 45 -41 103h65l3 -11t11.5 -27t23 -35t38.5 -35t58.5 -26.5t81.5 -10.5q44 -2 79 10t59 32.5t36.5 46.5t12.5 53q0 40 -28.5 66.5t-71 47t-92.5 39t-92.5 42.5t-71 57.5t-28.5 84.5q0 40 17 76t49 64
t76.5 44.5t100.5 16.5q60 0 102.5 -14t71 -34.5t45 -44.5t25 -44.5t10.5 -34l2 -13.5h-64q-8 35 -33 62q-21 23 -60.5 43t-106.5 20q-39 0 -70.5 -10.5t-53.5 -29t-34 -42.5t-12 -51q0 -39 28.5 -65.5t71 -47.5t92.5 -40t92.5 -43.5t71 -58.5t28.5 -84q0 -41 -18 -78.5
t-52 -66t-81.5 -46t-107.5 -17.5zM446 935h65l84 -145h-58l-57 100h-15l-93 -100h-62z" />
    <glyph glyph-name="scircumflex" unicode="&#x15d;" horiz-adv-x="510" 
d="M298 -10q-38 0 -68 7t-53.5 18t-40 25.5t-28.5 29.5q-27 35 -37 80h64q8 -30 28 -53q17 -20 50 -36t89 -16q62 0 94 26t32 64q0 27 -22 44.5t-55 30t-72 24t-72 28.5t-55 41.5t-22 63.5q0 28 12 53.5t34.5 45.5t56 32t77.5 12q35 0 62.5 -6.5t48.5 -16.5t36.5 -23.5
t26.5 -26.5q25 -32 34 -72h-65q-9 25 -27 45q-16 17 -44.5 31t-75.5 14q-59 0 -87.5 -25t-28.5 -56q0 -28 22 -45t55 -29.5t72 -24.5t72 -28.5t55 -41t22 -63.5q0 -32 -12.5 -59.5t-37 -48t-60 -32.5t-80.5 -12zM351 755h65l84 -145h-58l-57 100h-15l-93 -100h-62z" />
    <glyph glyph-name="Scedilla" unicode="&#x15e;" horiz-adv-x="635" 
d="M301 -235q-20 0 -34.5 4t-24.5 9q-11 6 -19 14l8 44q7 -8 18 -13q9 -5 22.5 -9t32.5 -4q24 0 40 14.5t16 38.5q0 17 -13 29.5t-42 12.5h-32l50 77q-41 3 -73.5 13.5t-57 25.5t-41.5 33t-29 36q-28 42 -35 95h65l3 -11t11.5 -27t23 -35t38.5 -35t58.5 -26.5t81.5 -10.5
q44 -2 79 10t59 32.5t36.5 46.5t12.5 53q0 40 -28.5 66.5t-71 47t-92.5 39t-92.5 42.5t-71 57.5t-28.5 84.5q0 40 17 76t49 64t76.5 44.5t100.5 16.5q60 0 102.5 -14t71 -34.5t45 -44.5t25 -44.5t10.5 -34l2 -13.5h-64q-8 35 -33 62q-21 23 -60.5 43t-106.5 20
q-39 0 -70.5 -10.5t-53.5 -29t-34 -42.5t-12 -51q0 -39 28.5 -65.5t71 -47.5t92.5 -40t92.5 -43.5t71 -58.5t28.5 -84q0 -40 -17.5 -77t-50.5 -66t-80 -46.5t-105 -18.5l-24 -37q28 -4 47.5 -26t19.5 -51q0 -45 -31.5 -73t-77.5 -28z" />
    <glyph glyph-name="scedilla" unicode="&#x15f;" horiz-adv-x="510" 
d="M231 -235q-20 0 -34.5 4t-24.5 9q-11 6 -19 14l8 44q7 -8 18 -13q9 -5 22.5 -9t32.5 -4q24 0 40 14.5t16 38.5q0 17 -13 29.5t-42 12.5h-32l57 87q-63 7 -100.5 32.5t-57.5 53.5q-23 33 -31 72h64q8 -30 28 -53q17 -20 50 -36t89 -16q62 0 94 26t32 64q0 27 -22 44.5
t-55 30t-72 24t-72 28.5t-55 41.5t-22 63.5q0 28 12 53.5t34.5 45.5t56 32t77.5 12q35 0 62.5 -6.5t48.5 -16.5t36.5 -23.5t26.5 -26.5q25 -32 34 -72h-65q-9 25 -27 45q-16 17 -44.5 31t-75.5 14q-59 0 -87.5 -25t-28.5 -56q0 -28 22 -45t55 -29.5t72 -24.5t72 -28.5
t55 -41t22 -63.5q0 -32 -12.5 -59t-36 -47.5t-57.5 -32.5t-78 -13l-31 -47q28 -4 47.5 -26t19.5 -51q0 -45 -31.5 -73t-77.5 -28z" />
    <glyph glyph-name="Scaron" unicode="&#x160;" horiz-adv-x="635" 
d="M361 -20q-48 0 -85.5 9t-65.5 23t-48.5 32.5t-33.5 37.5q-33 45 -41 103h65l3 -11t11.5 -27t23 -35t38.5 -35t58.5 -26.5t81.5 -10.5q44 -2 79 10t59 32.5t36.5 46.5t12.5 53q0 40 -28.5 66.5t-71 47t-92.5 39t-92.5 42.5t-71 57.5t-28.5 84.5q0 40 17 76t49 64
t76.5 44.5t100.5 16.5q60 0 102.5 -14t71 -34.5t45 -44.5t25 -44.5t10.5 -34l2 -13.5h-64q-8 35 -33 62q-21 23 -60.5 43t-106.5 20q-39 0 -70.5 -10.5t-53.5 -29t-34 -42.5t-12 -51q0 -39 28.5 -65.5t71 -47.5t92.5 -40t92.5 -43.5t71 -58.5t28.5 -84q0 -41 -18 -78.5
t-52 -66t-81.5 -46t-107.5 -17.5zM335 935h58l57 -100h15l93 100h62l-136 -145h-65z" />
    <glyph glyph-name="scaron" unicode="&#x161;" horiz-adv-x="510" 
d="M298 -10q-38 0 -68 7t-53.5 18t-40 25.5t-28.5 29.5q-27 35 -37 80h64q8 -30 28 -53q17 -20 50 -36t89 -16q62 0 94 26t32 64q0 27 -22 44.5t-55 30t-72 24t-72 28.5t-55 41.5t-22 63.5q0 28 12 53.5t34.5 45.5t56 32t77.5 12q35 0 62.5 -6.5t48.5 -16.5t36.5 -23.5
t26.5 -26.5q25 -32 34 -72h-65q-9 25 -27 45q-16 17 -44.5 31t-75.5 14q-59 0 -87.5 -25t-28.5 -56q0 -28 22 -45t55 -29.5t72 -24.5t72 -28.5t55 -41t22 -63.5q0 -32 -12.5 -59.5t-37 -48t-60 -32.5t-80.5 -12zM225 755h58l57 -100h15l93 100h62l-136 -145h-65z" />
    <glyph glyph-name="Tcommaaccent" unicode="&#x162;" horiz-adv-x="585" 
d="M225 -235q-20 0 -34.5 4t-24.5 9q-11 6 -19 14l8 44q7 -8 18 -13q9 -5 22.5 -9t32.5 -4q24 0 40 14.5t16 38.5q0 17 -13 29.5t-42 12.5h-32l62 95h-15l113 640h-250l11 60h565l-11 -60h-250l-113 -640h-5l-37 -57q28 -4 47.5 -26t19.5 -51q0 -45 -31.5 -73t-77.5 -28z
" />
    <glyph glyph-name="tcommaaccent" unicode="&#x163;" horiz-adv-x="355" 
d="M141 -235q-20 0 -34.5 4t-24.5 9q-11 6 -19 14l8 44q7 -8 18 -13q9 -5 22.5 -9t32.5 -4q24 0 40 14.5t16 38.5q0 17 -13 29.5t-42 12.5h-32l62 95h-80l78 445h-70l10 55h70l20 110h60l-20 -110h165l-10 -55h-165l-68 -390h170l-10 -55h-105l-37 -57q28 -4 47.5 -26
t19.5 -51q0 -45 -31.5 -73t-77.5 -28z" />
    <glyph glyph-name="Tcaron" unicode="&#x164;" horiz-adv-x="585" 
d="M357 640h-250l11 60h565l-11 -60h-250l-113 -640h-65zM295 935h58l57 -100h15l93 100h62l-136 -145h-65z" />
    <glyph glyph-name="tcaron" unicode="&#x165;" horiz-adv-x="355" 
d="M173 445h-70l10 55h70l20 110h60l-98 -555h170l-10 -55h-230zM297 470q27 3 45.5 19t18.5 42q0 3 -0.5 5t-0.5 4q-1 2 -1 3l-4 -2q-3 -1 -10 -1q-15 0 -25.5 10t-10.5 25q0 17 14 31t35 14q20 0 33.5 -15t13.5 -43q0 -27 -9.5 -48.5t-25.5 -37.5t-36 -25t-42 -11z" />
    <glyph glyph-name="Tbar" unicode="&#x166;" horiz-adv-x="585" 
d="M313 395h-180l10 55h180l33 190h-250l11 60h565l-11 -60h-250l-33 -190h180l-10 -55h-180l-69 -395h-65z" />
    <glyph glyph-name="tbar" unicode="&#x167;" horiz-adv-x="355" 
d="M145 285h-70l9 55h70l19 105h-70l10 55h70l19 110h60l-19 -110h165l-10 -55h-165l-19 -105h165l-9 -55h-165l-41 -230h170l-9 -55h-230z" />
    <glyph glyph-name="Umacron" unicode="&#x16a;" horiz-adv-x="710" 
d="M376 -20q-66 0 -116.5 22t-83.5 61t-45.5 92t-1.5 115l76 430h65l-76 -430q-9 -51 -1 -93t32 -72.5t63.5 -47.5t93.5 -17q85 0 142.5 52t74.5 150l81 458h65l-82 -463q-11 -60 -36.5 -107.5t-63.5 -81t-85.5 -51t-101.5 -17.5zM375 890h255l-10 -55h-255z" />
    <glyph glyph-name="umacron" unicode="&#x16b;" horiz-adv-x="590" 
d="M289 -10q-50 0 -87 17t-59 47.5t-29 73.5t2 94l49 278h60l-51 -289q-6 -36 -1.5 -66t20 -52.5t42.5 -35t65 -12.5q33 0 63.5 12t55 33.5t42 51.5t23.5 67l51 291h60l-88 -500h-60l12 70q-16 -22 -40 -40q-20 -15 -52.5 -27.5t-77.5 -12.5zM275 710h255l-10 -55h-255z" />
    <glyph glyph-name="Ubreve" unicode="&#x16c;" horiz-adv-x="710" 
d="M376 -20q-66 0 -116.5 22t-83.5 61t-45.5 92t-1.5 115l76 430h65l-76 -430q-9 -51 -1 -93t32 -72.5t63.5 -47.5t93.5 -17q85 0 142.5 52t74.5 150l81 458h65l-82 -463q-11 -60 -36.5 -107.5t-63.5 -81t-85.5 -51t-101.5 -17.5zM493 800q-29 0 -52.5 9t-40 24t-26 35.5
t-9.5 43.5v8h55v-5q0 -26 20 -45.5t58 -19.5q33 0 55.5 19t26.5 51h56q-3 -26 -15.5 -48t-31.5 -38t-44 -25t-52 -9z" />
    <glyph glyph-name="ubreve" unicode="&#x16d;" horiz-adv-x="590" 
d="M289 -10q-50 0 -87 17t-59 47.5t-29 73.5t2 94l49 278h60l-51 -289q-6 -36 -1.5 -66t20 -52.5t42.5 -35t65 -12.5q33 0 63.5 12t55 33.5t42 51.5t23.5 67l51 291h60l-88 -500h-60l12 70q-16 -22 -40 -40q-20 -15 -52.5 -27.5t-77.5 -12.5zM398 620q-29 0 -52.5 9t-40 24
t-26 35.5t-9.5 43.5v8h55v-5q0 -26 20 -45.5t58 -19.5q33 0 55.5 19t26.5 51h56q-3 -26 -15.5 -48t-31.5 -38t-44 -25t-52 -9z" />
    <glyph glyph-name="Uring" unicode="&#x16e;" horiz-adv-x="710" 
d="M376 -20q-66 0 -116.5 22t-83.5 61t-45.5 92t-1.5 115l76 430h65l-76 -430q-9 -51 -1 -93t32 -72.5t63.5 -47.5t93.5 -17q85 0 142.5 52t74.5 150l81 458h65l-82 -463q-11 -60 -36.5 -107.5t-63.5 -81t-85.5 -51t-101.5 -17.5zM487 760q-39 0 -65.5 26.5t-26.5 63.5
q0 22 9 42t24 35t35 24t41 9q39 0 65.5 -26.5t26.5 -63.5q0 -23 -9 -43t-24 -35t-35 -23.5t-41 -8.5zM491 805q23 0 41.5 18t18.5 42q0 21 -14.5 35.5t-36.5 14.5q-23 0 -41.5 -18t-18.5 -42q0 -21 14.5 -35.5t36.5 -14.5z" />
    <glyph glyph-name="uring" unicode="&#x16f;" horiz-adv-x="590" 
d="M289 -10q-50 0 -87 17t-59 47.5t-29 73.5t2 94l49 278h60l-51 -289q-6 -36 -1.5 -66t20 -52.5t42.5 -35t65 -12.5q33 0 63.5 12t55 33.5t42 51.5t23.5 67l51 291h60l-88 -500h-60l12 70q-16 -22 -40 -40q-20 -15 -52.5 -27.5t-77.5 -12.5zM387 580q-39 0 -65.5 26.5
t-26.5 63.5q0 22 9 42t24 35t35 24t41 9q39 0 65.5 -26.5t26.5 -63.5q0 -23 -9 -43t-24 -35t-35 -23.5t-41 -8.5zM391 625q23 0 41.5 18t18.5 42q0 21 -14.5 35.5t-36.5 14.5q-23 0 -41.5 -18t-18.5 -42q0 -21 14.5 -35.5t36.5 -14.5z" />
    <glyph glyph-name="Uhungarumlaut" unicode="&#x170;" horiz-adv-x="710" 
d="M376 -20q-66 0 -116.5 22t-83.5 61t-45.5 92t-1.5 115l76 430h65l-76 -430q-9 -51 -1 -93t32 -72.5t63.5 -47.5t93.5 -17q85 0 142.5 52t74.5 150l81 458h65l-82 -463q-11 -60 -36.5 -107.5t-63.5 -81t-85.5 -51t-101.5 -17.5zM486 935h70l-126 -145h-45zM631 935h70
l-126 -145h-45z" />
    <glyph glyph-name="uhungarumlaut" unicode="&#x171;" horiz-adv-x="590" 
d="M289 -10q-50 0 -87 17t-59 47.5t-29 73.5t2 94l49 278h60l-51 -289q-6 -36 -1.5 -66t20 -52.5t42.5 -35t65 -12.5q33 0 63.5 12t55 33.5t42 51.5t23.5 67l51 291h60l-88 -500h-60l12 70q-16 -22 -40 -40q-20 -15 -52.5 -27.5t-77.5 -12.5zM392 755h70l-126 -145h-45z
M537 755h70l-126 -145h-45z" />
    <glyph glyph-name="Uogonek" unicode="&#x172;" horiz-adv-x="710" 
d="M352 -225q-42 0 -69.5 21.5t-27.5 62.5q0 21 8 39t21.5 33t30 27.5t34.5 22.5q-59 4 -105 27.5t-75 62t-40 89.5t0 110l76 430h65l-76 -430q-9 -51 -1 -93t32 -72.5t63.5 -47.5t93.5 -17q85 0 142.5 52t74.5 150l81 458h65l-82 -463q-20 -109 -86 -175t-160 -79
q-22 -11 -42 -23t-35.5 -26t-25 -30.5t-9.5 -36.5t14.5 -31t40.5 -11q11 0 22.5 1t19.5 3q10 2 18 5l-8 -45q-7 -4 -17 -7q-19 -7 -43 -7z" />
    <glyph glyph-name="uogonek" unicode="&#x173;" horiz-adv-x="590" 
d="M407 -225q-42 0 -69.5 21.5t-27.5 62.5q0 28 13.5 50t34 40t44.5 31t45 23l12 67q-16 -22 -40 -40q-20 -15 -52.5 -27.5t-77.5 -12.5q-50 0 -87 17t-59 47.5t-29 73.5t2 94l49 278h60l-51 -289q-6 -36 -1.5 -66t20 -52.5t42.5 -35t65 -12.5q33 0 63.5 12t55 33.5t42 51.5
t23.5 67l51 291h60l-88 -500q-26 -13 -52.5 -26.5t-47.5 -29.5t-34 -34.5t-13 -42.5q0 -20 14.5 -31t40.5 -11q11 0 22.5 1t19.5 3q10 2 18 5l-8 -45q-7 -4 -17 -7q-19 -7 -43 -7z" />
    <glyph glyph-name="Wcircumflex" unicode="&#x174;" horiz-adv-x="960" 
d="M158 700h67l22 -640h35l253 640h124l27 -640h35l248 640h69l-278 -700h-136l-23 640h-30l-247 -640h-134zM601 935h65l84 -145h-58l-57 100h-15l-93 -100h-62z" />
    <glyph glyph-name="wcircumflex" unicode="&#x175;" horiz-adv-x="770" 
d="M113 500h64l17 -445h36l168 445h130l12 -445h34l173 445h66l-198 -500h-136l-12 445h-30l-168 -445h-134zM476 755h65l84 -145h-58l-57 100h-15l-93 -100h-62z" />
    <glyph glyph-name="Ycircumflex" unicode="&#x176;" horiz-adv-x="635" 
d="M320 255l-197 445h77l160 -370h5l290 370h83l-353 -445l-45 -255h-65zM431 935h65l84 -145h-58l-57 100h-15l-93 -100h-62z" />
    <glyph glyph-name="ycircumflex" unicode="&#x177;" horiz-adv-x="505" 
d="M275 0h-125l-47 500h66l37 -445h94l208 445h65l-327 -690h-65zM341 755h65l84 -145h-58l-57 100h-15l-93 -100h-62z" />
    <glyph glyph-name="Ydieresis" unicode="&#x178;" horiz-adv-x="635" 
d="M320 255l-197 445h77l160 -370h5l290 370h83l-353 -445l-45 -255h-65zM361 815q-19 0 -30 12.5t-11 29.5q0 20 14.5 34t34.5 14q19 0 30 -12.5t11 -29.5q0 -20 -14.5 -34t-34.5 -14zM531 815q-19 0 -30 12.5t-11 29.5q0 20 14.5 34t34.5 14q19 0 30 -12.5t11 -29.5
q0 -20 -14.5 -34t-34.5 -14z" />
    <glyph glyph-name="Zacute" unicode="&#x179;" horiz-adv-x="600" 
d="M51 60l541 575l1 5h-425l10 60h510l-10 -60l-542 -575v-5h445l-11 -60h-530zM531 935h75l-141 -145h-50z" />
    <glyph glyph-name="zacute" unicode="&#x17a;" horiz-adv-x="470" 
d="M45 55l388 390h-310l10 55h390l-10 -55l-388 -390h330l-10 -55h-410zM431 755h75l-141 -145h-50z" />
    <glyph glyph-name="Zdotaccent" unicode="&#x17b;" horiz-adv-x="600" 
d="M51 60l541 575l1 5h-425l10 60h510l-10 -60l-542 -575v-5h445l-11 -60h-530zM446 815q-19 0 -30 12.5t-11 29.5q0 20 14.5 34t34.5 14q19 0 30 -12.5t11 -29.5q0 -20 -14.5 -34t-34.5 -14z" />
    <glyph glyph-name="zdotaccent" unicode="&#x17c;" horiz-adv-x="470" 
d="M45 55l388 390h-310l10 55h390l-10 -55l-388 -390h330l-10 -55h-410zM346 635q-19 0 -30 12.5t-11 29.5q0 20 14.5 34t34.5 14q19 0 30 -12.5t11 -29.5q0 -20 -14.5 -34t-34.5 -14z" />
    <glyph glyph-name="Zcaron" unicode="&#x17d;" horiz-adv-x="600" 
d="M51 60l541 575l1 5h-425l10 60h510l-10 -60l-542 -575v-5h445l-11 -60h-530zM325 935h58l57 -100h15l93 100h62l-136 -145h-65z" />
    <glyph glyph-name="zcaron" unicode="&#x17e;" horiz-adv-x="470" 
d="M45 55l388 390h-310l10 55h390l-10 -55l-388 -390h330l-10 -55h-410zM225 755h58l57 -100h15l93 100h62l-136 -145h-65z" />
    <glyph glyph-name="uni018F" unicode="&#x18f;" horiz-adv-x="808" 
d="M432 -20q-74 0 -134 24.5t-102 68t-65 101.5t-23 126q0 23 2.5 41t6.5 44h642v10q0 60 -21 109t-57.5 83.5t-86 53.5t-106.5 19q-48 0 -91 -14t-78 -38t-62 -55.5t-45 -67.5h-68q17 47 51 89.5t80.5 75t103 51.5t116.5 19q73 0 133.5 -25t103.5 -69t67 -104t24 -130
q0 -90 -32 -166t-86 -130.5t-124.5 -85t-148.5 -30.5zM440 40q52 0 102.5 18t93 53.5t74 89t44.5 124.5h-580q-1 -1 -1 -3v-12q0 -68 22.5 -118.5t60 -84t85.5 -50.5t99 -17z" />
    <glyph glyph-name="florin" unicode="&#x192;" horiz-adv-x="360" 
d="M-68 -135h150l136 580h-60l4 55h70l48 200h210l-5 -55h-160l-33 -145h130l-4 -55h-140l-151 -635h-200z" />
    <glyph glyph-name="Gacute" unicode="&#x1f4;" horiz-adv-x="860" 
d="M442 -20q-75 0 -136.5 24.5t-105.5 68t-68 104t-24 131.5q0 90 32.5 166t86.5 130.5t125.5 85t149.5 30.5q81 0 139 -25t96 -62t58.5 -79.5t28.5 -78.5h-66q-16 52 -49 92q-14 17 -34 34t-46.5 30t-59.5 21t-74 8q-64 0 -122.5 -25t-102.5 -71t-70.5 -110.5t-26.5 -143.5
q0 -60 19.5 -109.5t55.5 -85t86 -55.5t112 -20q74 0 131 28t96 68.5t60 85t24 78.5h-138l10 60h295l-10 -60h-90q-9 -51 -38 -107t-77 -103.5t-115 -78.5t-152 -31zM626 935h75l-141 -145h-50z" />
    <glyph glyph-name="gacute" unicode="&#x1f5;" 
d="M87 -135h365l39 219q-10 -15 -27 -31.5t-41 -30.5t-53.5 -23t-64.5 -9q-46 0 -86 17.5t-69 48t-46 72.5t-17 92q0 63 23 116.5t60.5 92t85 60t97.5 21.5q44 0 77.5 -13t57 -32t37 -41.5t18.5 -40.5l21 117h60l-122 -690h-425zM312 45q37 0 74 16.5t67 46.5t48.5 72
t18.5 93q0 40 -13 73.5t-35.5 57.5t-52.5 37.5t-64 13.5q-37 0 -74 -16.5t-67 -46.5t-48.5 -72t-18.5 -93q0 -40 13 -73.5t35.5 -57.5t52.5 -37.5t64 -13.5zM496 755h75l-141 -145h-50z" />
    <glyph glyph-name="uni01FA" unicode="&#x1fa;" horiz-adv-x="675" 
d="M487 760q-39 0 -65.5 26.5t-26.5 63.5q0 21 8 40t21.5 33.5t31.5 24t38 11.5l56 72h65l-77 -77q26 -10 42 -33t16 -51q0 -23 -9 -43t-24 -35t-35 -23.5t-41 -8.5zM491 805q23 0 41.5 18t18.5 42q0 21 -14.5 35.5t-36.5 14.5q-23 0 -41.5 -18t-18.5 -42q0 -21 14.5 -35.5
t36.5 -14.5zM353 700h250l62 -700h-65l-19 230h-370l-101 -230h-65zM576 290l-33 350h-150l-157 -350h340z" />
    <glyph glyph-name="uni01FB" unicode="&#x1fb;" 
d="M406 585q-39 0 -65.5 26.5t-26.5 63.5q0 21 8 40t21.5 33.5t31.5 24t38 11.5l56 71h65l-77 -76q26 -10 42 -33t16 -51q0 -23 -9 -43t-24 -35t-35 -23.5t-41 -8.5zM410 630q23 0 41.5 18t18.5 42q0 21 -14.5 35.5t-36.5 14.5q-23 0 -41.5 -18t-18.5 -42q0 -21 14.5 -35.5
t36.5 -14.5zM305 -10q-46 0 -86 17.5t-69 48t-46 72.5t-17 92q0 63 23 116.5t60.5 92t85 60t97.5 21.5q44 0 77.5 -13t57 -32t37 -41.5t18.5 -40.5l21 117h60l-88 -500h-60l15 84q-10 -15 -27 -31.5t-41 -30.5t-53.5 -23t-64.5 -9zM312 45q37 0 74 16.5t67 46.5t48.5 72
t18.5 93q0 40 -13 73.5t-35.5 57.5t-52.5 37.5t-64 13.5q-37 0 -74 -16.5t-67 -46.5t-48.5 -72t-18.5 -93q0 -40 13 -73.5t35.5 -57.5t52.5 -37.5t64 -13.5z" />
    <glyph glyph-name="uni01FC" unicode="&#x1fc;" horiz-adv-x="985" 
d="M353 700h710l-10 -60h-390l-45 -255h315l-11 -60h-315l-46 -265h390l-11 -60h-455l41 230h-315l-101 -230h-65zM536 290l62 350h-205l-157 -350h300zM761 935h75l-141 -145h-50z" />
    <glyph glyph-name="uni01FD" unicode="&#x1fd;" horiz-adv-x="965" 
d="M258 -10q-35 0 -65.5 9.5t-52.5 27.5t-34.5 43.5t-12.5 58.5q0 34 13 63.5t37 51t58.5 34t78.5 12.5h210l4 21q11 63 -21.5 103.5t-106.5 40.5q-45 0 -75 -16.5t-49 -36.5q-22 -23 -36 -52h-61q17 45 48 80q26 30 68.5 55t106.5 25q72 0 117 -28t62 -75q36 46 87 74.5
t112 28.5q49 0 89.5 -17.5t69.5 -48.5t45 -73t16 -91q0 -10 -1 -18t-2 -14q-1 -7 -2 -13h-419v-10q0 -39 12.5 -72t35 -57t53 -37.5t66.5 -13.5q46 0 79.5 17t55.5 38q26 24 43 55h60q-23 -47 -57 -83q-29 -31 -75 -56.5t-110 -25.5q-37 0 -70 10.5t-60 29t-47.5 44
t-32.5 54.5q-14 -26 -35 -50.5t-50 -44t-67 -31.5t-85 -12zM280 45q38 0 72.5 14t61.5 39t44.5 60t22.5 77h-205q-61 0 -92 -29t-31 -74q0 -40 33 -63.5t94 -23.5zM903 290q0 26 -9.5 55t-29.5 53.5t-50 40.5t-71 16q-36 0 -68.5 -14.5t-58 -38t-43 -53t-24.5 -59.5h354z
M681 755h75l-141 -145h-50z" />
    <glyph glyph-name="uni01FE" unicode="&#x1fe;" horiz-adv-x="820" 
d="M444 -20q-88 0 -156.5 33t-112.5 90l-151 -108l13 75l109 78q-37 72 -37 160q0 90 32 165.5t86 130.5t125 85.5t149 30.5q88 0 156.5 -33t112.5 -90l151 108l-13 -75l-109 -78q37 -72 37 -160q0 -90 -32 -165.5t-86 -130.5t-125 -85.5t-149 -30.5zM448 40q64 0 123 25
t103 71t70.5 110.5t26.5 143.5q0 70 -25 124l-519 -373q36 -48 92.5 -74.5t128.5 -26.5zM718 559q-36 48 -92.5 74.5t-128.5 26.5q-65 0 -123.5 -25t-102.5 -71t-70.5 -110.5t-26.5 -143.5q0 -68 25 -124zM621 935h75l-141 -145h-50z" />
    <glyph glyph-name="uni01FF" unicode="&#x1ff;" horiz-adv-x="600" 
d="M323 -10q-58 0 -104 20.5t-77 56.5l-98 -72l13 78l54 40q-24 48 -24 108q0 63 22.5 116t61 91.5t88.5 60t105 21.5q58 0 104 -20.5t77 -56.5l98 72l-13 -78l-54 -40q24 -48 24 -108q0 -63 -23 -116t-61 -91.5t-88 -60t-105 -21.5zM326 45q42 0 80.5 17t68.5 47.5
t47.5 72.5t17.5 93q0 20 -3 39t-11 36l-336 -248q24 -27 58.5 -42t77.5 -15zM497 398q-24 27 -58.5 42t-77.5 15q-42 0 -80.5 -17t-68.5 -47.5t-47.5 -72.5t-17.5 -93q0 -20 3 -39t11 -36zM481 755h75l-141 -145h-50z" />
    <glyph glyph-name="Scommaaccent" unicode="&#x218;" horiz-adv-x="635" 
d="M361 -20q-48 0 -85.5 9t-65.5 23t-48.5 32.5t-33.5 37.5q-33 45 -41 103h65l3 -11t11.5 -27t23 -35t38.5 -35t58.5 -26.5t81.5 -10.5q44 -2 79 10t59 32.5t36.5 46.5t12.5 53q0 40 -28.5 66.5t-71 47t-92.5 39t-92.5 42.5t-71 57.5t-28.5 84.5q0 40 17 76t49 64
t76.5 44.5t100.5 16.5q60 0 102.5 -14t71 -34.5t45 -44.5t25 -44.5t10.5 -34l2 -13.5h-64q-8 35 -33 62q-21 23 -60.5 43t-106.5 20q-39 0 -70.5 -10.5t-53.5 -29t-34 -42.5t-12 -51q0 -39 28.5 -65.5t71 -47.5t92.5 -40t92.5 -43.5t71 -58.5t28.5 -84q0 -41 -18 -78.5
t-52 -66t-81.5 -46t-107.5 -17.5zM255 -250q27 3 45.5 19t18.5 42q0 3 -0.5 5t-0.5 4q-1 2 -1 3l-4 -2q-3 -1 -10 -1q-15 0 -25.5 10t-10.5 25q0 17 14 31t35 14q20 0 33.5 -15t13.5 -43q0 -27 -9.5 -48.5t-25.5 -37.5t-36 -25t-42 -11z" />
    <glyph glyph-name="scommaaccent" unicode="&#x219;" horiz-adv-x="510" 
d="M298 -10q-38 0 -68 7t-53.5 18t-40 25.5t-28.5 29.5q-27 35 -37 80h64q8 -30 28 -53q17 -20 50 -36t89 -16q62 0 94 26t32 64q0 27 -22 44.5t-55 30t-72 24t-72 28.5t-55 41.5t-22 63.5q0 28 12 53.5t34.5 45.5t56 32t77.5 12q35 0 62.5 -6.5t48.5 -16.5t36.5 -23.5
t26.5 -26.5q25 -32 34 -72h-65q-9 25 -27 45q-16 17 -44.5 31t-75.5 14q-59 0 -87.5 -25t-28.5 -56q0 -28 22 -45t55 -29.5t72 -24.5t72 -28.5t55 -41t22 -63.5q0 -32 -12.5 -59.5t-37 -48t-60 -32.5t-80.5 -12zM190 -250q27 3 45.5 19t18.5 42q0 3 -0.5 5t-0.5 4q-1 2 -1 3
l-4 -2q-3 -1 -10 -1q-15 0 -25.5 10t-10.5 25q0 17 14 31t35 14q20 0 33.5 -15t13.5 -43q0 -27 -9.5 -48.5t-25.5 -37.5t-36 -25t-42 -11z" />
    <glyph glyph-name="uni021A" unicode="&#x21a;" horiz-adv-x="585" 
d="M357 640h-250l11 60h565l-11 -60h-250l-113 -640h-65zM195 -250q27 3 45.5 19t18.5 42q0 3 -0.5 5t-0.5 4q-1 2 -1 3l-4 -2q-3 -1 -10 -1q-15 0 -25.5 10t-10.5 25q0 17 14 31t35 14q20 0 33.5 -15t13.5 -43q0 -27 -9.5 -48.5t-25.5 -37.5t-36 -25t-42 -11z" />
    <glyph glyph-name="uni021B" unicode="&#x21b;" horiz-adv-x="355" 
d="M173 445h-70l10 55h70l20 110h60l-20 -110h165l-10 -55h-165l-68 -390h170l-10 -55h-230zM135 -250q27 3 45.5 19t18.5 42q0 3 -0.5 5t-0.5 4q-1 2 -1 3l-4 -2q-3 -1 -10 -1q-15 0 -25.5 10t-10.5 25q0 17 14 31t35 14q20 0 33.5 -15t13.5 -43q0 -27 -9.5 -48.5
t-25.5 -37.5t-36 -25t-42 -11z" />
    <glyph glyph-name="uni0232" unicode="&#x232;" horiz-adv-x="635" 
d="M320 255l-197 445h77l160 -370h5l290 370h83l-353 -445l-45 -255h-65zM325 890h255l-10 -55h-255z" />
    <glyph glyph-name="uni0233" unicode="&#x233;" horiz-adv-x="505" 
d="M275 0h-125l-47 500h66l37 -445h94l208 445h65l-327 -690h-65zM240 710h255l-10 -55h-255z" />
    <glyph glyph-name="uni0244" unicode="&#x244;" horiz-adv-x="730" 
d="M389 -20q-66 0 -116.5 22t-83.5 61t-45.5 92t-1.5 115l24 135h-75l10 55h74l43 240h65l-43 -240h410l43 240h65l-43 -240h76l-10 -55h-75l-30 -168q-11 -60 -36.5 -107.5t-63.5 -81t-85.5 -51t-101.5 -17.5zM395 40q85 0 142.5 52t74.5 150l29 163h-410l-24 -135
q-9 -51 -1 -93t32 -72.5t63.5 -47.5t93.5 -17z" />
    <glyph glyph-name="uni0259" unicode="&#x259;" horiz-adv-x="586" 
d="M311 -10q-49 0 -90 16t-71 45.5t-46.5 71t-16.5 92.5q0 14 2.5 30t4.5 30h434v10q0 36 -13 67.5t-36 54t-55 35.5t-70 13q-34 0 -62 -9.5t-50 -24t-38.5 -32t-28.5 -34.5h-61q15 28 37 56t52.5 50t69.5 35.5t87 13.5q49 0 90.5 -17t71.5 -47.5t47 -72.5t17 -93
q0 -13 -1.5 -25.5t-3.5 -26.5q-9 -53 -34.5 -96.5t-61.5 -75t-80.5 -49t-93.5 -17.5zM318 45q35 0 68 13.5t60.5 36.5t47 55t27.5 70h-376q0 -37 12.5 -69t35 -55.5t54.5 -37t71 -13.5z" />
    <glyph glyph-name="uni0289" unicode="&#x289;" horiz-adv-x="610" 
d="M302 -10q-50 0 -87 17t-59 47.5t-29 73.5t2 94l13 73h-75l9 55h75l27 150h60l-27 -150h310l27 150h60l-27 -150h75l-9 -55h-75l-52 -295h-60l12 70q-16 -22 -40 -40q-20 -15 -52.5 -27.5t-77.5 -12.5zM313 45q33 0 63.5 12t55 33.5t42 51.5t23.5 67l15 86h-310l-15 -84
q-6 -36 -1.5 -66t20 -52.5t42.5 -35t65 -12.5z" />
    <glyph glyph-name="afii57929" unicode="&#x2bc;" horiz-adv-x="160" 
d="M131 550q27 3 45.5 19t18.5 42q0 3 -0.5 5t-0.5 4q-1 2 -1 3l-4 -2q-3 -1 -10 -1q-15 0 -25.5 10t-10.5 25q0 17 14 31t35 14q20 0 33.5 -15t13.5 -43q0 -27 -9.5 -48.5t-25.5 -37.5t-36 -25t-42 -11z" />
    <glyph glyph-name="circumflex" unicode="&#x2c6;" horiz-adv-x="345" 
d="M271 755h65l84 -145h-58l-57 100h-15l-93 -100h-62z" />
    <glyph glyph-name="caron" unicode="&#x2c7;" horiz-adv-x="345" 
d="M160 755h58l57 -100h15l93 100h62l-136 -145h-65z" />
    <glyph glyph-name="breve" unicode="&#x2d8;" horiz-adv-x="330" 
d="M278 620q-29 0 -52.5 9t-40 24t-26 35.5t-9.5 43.5v8h55v-5q0 -26 20 -45.5t58 -19.5q33 0 55.5 19t26.5 51h56q-3 -26 -15.5 -48t-31.5 -38t-44 -25t-52 -9z" />
    <glyph glyph-name="dotaccent" unicode="&#x2d9;" horiz-adv-x="150" 
d="M186 635q-19 0 -30 12.5t-11 29.5q0 20 14.5 34t34.5 14q19 0 30 -12.5t11 -29.5q0 -20 -14.5 -34t-34.5 -14z" />
    <glyph glyph-name="ring" unicode="&#x2da;" horiz-adv-x="260" 
d="M237 580q-39 0 -65.5 26.5t-26.5 63.5q0 22 9 42t24 35t35 24t41 9q39 0 65.5 -26.5t26.5 -63.5q0 -23 -9 -43t-24 -35t-35 -23.5t-41 -8.5zM241 625q23 0 41.5 18t18.5 42q0 21 -14.5 35.5t-36.5 14.5q-23 0 -41.5 -18t-18.5 -42q0 -21 14.5 -35.5t36.5 -14.5z" />
    <glyph glyph-name="ogonek" unicode="&#x2db;" horiz-adv-x="230" 
d="M95 -225q-42 0 -69.5 21.5t-27.5 62.5q0 30 18 54.5t42.5 42.5t49 29t36.5 15h51q-26 -13 -52.5 -26.5t-47.5 -29.5t-34 -34.5t-13 -42.5q0 -20 14.5 -31t40.5 -11q11 0 22.5 1t19.5 3q10 2 18 5l-8 -45q-7 -4 -17 -7q-19 -7 -43 -7z" />
    <glyph glyph-name="tilde" unicode="&#x2dc;" horiz-adv-x="360" 
d="M349 625q-24 0 -40 10t-28.5 22.5t-23.5 22.5t-26 10t-27.5 -10t-14.5 -25l-4 -25h-50l5 26q7 37 34 60.5t65 23.5q24 0 40 -10t28.5 -22.5t24 -22.5t26.5 -10t27 10t14 25l4 25h51l-5 -26q-7 -37 -34.5 -60.5t-65.5 -23.5z" />
    <glyph glyph-name="hungarumlaut" unicode="&#x2dd;" horiz-adv-x="350" 
d="M251 755h70l-126 -145h-45zM396 755h70l-126 -145h-45z" />
    <glyph glyph-name="uni0301" unicode="&#x301;" horiz-adv-x="0" 
d="M-145 940h65l-115 -115h-40z" />
    <glyph glyph-name="uni030A" unicode="&#x30a;" horiz-adv-x="0" 
d="M-223 735q-39 0 -65.5 26.5t-26.5 63.5q0 22 9 42t24 35t35 24t41 9q39 0 65.5 -26.5t26.5 -63.5q0 -23 -9 -43t-24 -35t-35 -23.5t-41 -8.5zM-219 780q23 0 41.5 18t18.5 42q0 21 -14.5 35.5t-36.5 14.5q-23 0 -41.5 -18t-18.5 -42q0 -21 14.5 -35.5t36.5 -14.5z" />
    <glyph glyph-name="afii10023" unicode="&#x401;" horiz-adv-x="610" 
d="M213 700h475l-10 -60h-410l-45 -255h335l-11 -60h-335l-46 -265h410l-11 -60h-475zM386 815q-19 0 -30 12.5t-11 29.5q0 20 14.5 34t34.5 14q19 0 30 -12.5t11 -29.5q0 -20 -14.5 -34t-34.5 -14zM556 815q-19 0 -30 12.5t-11 29.5q0 20 14.5 34t34.5 14q19 0 30 -12.5
t11 -29.5q0 -20 -14.5 -34t-34.5 -14z" />
    <glyph glyph-name="afii10051" unicode="&#x402;" horiz-adv-x="770" 
d="M499 -30h145l36 205q7 39 -0.5 73t-28 59t-54 39t-78.5 14h-176l-64 -360h-65l113 640h-215l11 60h520l-11 -60h-240l-39 -220h171q56 0 101 -18.5t74.5 -52t42 -79.5t2.5 -101l-45 -259h-211z" />
    <glyph glyph-name="afii10052" unicode="&#x403;" horiz-adv-x="540" 
d="M213 700h440l-10 -60h-375l-113 -640h-65zM536 935h75l-141 -145h-50z" />
    <glyph glyph-name="afii10053" unicode="&#x404;" horiz-adv-x="800" 
d="M442 -20q-75 0 -136.5 24.5t-105.5 68t-68 104t-24 131.5q0 90 32.5 166t86.5 130.5t125.5 85t149.5 30.5q81 0 140.5 -26.5t98.5 -65t59.5 -81.5t25.5 -77h-66q-16 53 -49 95q-14 18 -34 35t-46.5 30.5t-60 21.5t-75.5 8q-56 0 -108 -19.5t-94 -55t-71.5 -86.5
t-41.5 -114h317l-11 -60h-313v-15q0 -60 19.5 -109.5t55.5 -85t86 -55.5t112 -20q42 0 77 9t63.5 23t51.5 32.5t40 37.5q40 45 65 103h67q-30 -75 -80 -133q-21 -25 -49.5 -48.5t-64 -42t-79 -30t-95.5 -11.5z" />
    <glyph glyph-name="afii10054" unicode="&#x405;" horiz-adv-x="635" 
d="M361 -20q-48 0 -85.5 9t-65.5 23t-48.5 32.5t-33.5 37.5q-33 45 -41 103h65l3 -11t11.5 -27t23 -35t38.5 -35t58.5 -26.5t81.5 -10.5q44 -2 79 10t59 32.5t36.5 46.5t12.5 53q0 40 -28.5 66.5t-71 47t-92.5 39t-92.5 42.5t-71 57.5t-28.5 84.5q0 40 17 76t49 64
t76.5 44.5t100.5 16.5q60 0 102.5 -14t71 -34.5t45 -44.5t25 -44.5t10.5 -34l2 -13.5h-64q-8 35 -33 62q-21 23 -60.5 43t-106.5 20q-39 0 -70.5 -10.5t-53.5 -29t-34 -42.5t-12 -51q0 -39 28.5 -65.5t71 -47.5t92.5 -40t92.5 -43.5t71 -58.5t28.5 -84q0 -41 -18 -78.5
t-52 -66t-81.5 -46t-107.5 -17.5z" />
    <glyph glyph-name="afii10055" unicode="&#x406;" horiz-adv-x="245" 
d="M213 700h65l-123 -700h-65z" />
    <glyph glyph-name="afii10056" unicode="&#x407;" horiz-adv-x="245" 
d="M213 700h65l-123 -700h-65zM181 815q-19 0 -30 12.5t-11 29.5q0 20 14.5 34t34.5 14q19 0 30 -12.5t11 -29.5q0 -20 -14.5 -34t-34.5 -14zM351 815q-19 0 -30 12.5t-11 29.5q0 20 14.5 34t34.5 14q19 0 30 -12.5t11 -29.5q0 -20 -14.5 -34t-34.5 -14z" />
    <glyph glyph-name="afii10057" unicode="&#x408;" horiz-adv-x="550" 
d="M258 -20q-59 0 -100 17.5t-67.5 44t-40.5 57t-19 57.5l67 14q6 -37 25 -65q17 -25 49 -45t88 -20q66 0 114 43t62 124l87 493h65l-88 -499q-19 -106 -83.5 -163.5t-158.5 -57.5z" />
    <glyph glyph-name="afii10058" unicode="&#x409;" horiz-adv-x="1050" 
d="M338 700h340l-44 -250h187q56 0 99 -16.5t72.5 -44.5t44.5 -65t15 -77q0 -53 -19 -98t-53 -78t-81.5 -52t-104.5 -19h-304l113 640h-230l-273 -640h-65zM798 60q44 0 79 13.5t59.5 38t37.5 58t13 74.5q0 30 -11 57t-32.5 46.5t-52.5 31t-70 11.5h-197l-58 -330h232z" />
    <glyph glyph-name="afii10059" unicode="&#x40a;" horiz-adv-x="1120" 
d="M213 700h65l-49 -280h395l49 280h65l-49 -280h202q56 0 99 -15.5t72.5 -41.5t44.5 -60t15 -71q0 -49 -19 -91t-53 -73.5t-81.5 -49.5t-104.5 -18h-314l63 360h-395l-63 -360h-65zM868 60q44 0 79 12.5t59.5 35t37.5 53.5t13 68q0 27 -11 50.5t-32.5 41.5t-52.5 28.5
t-70 10.5h-213l-52 -300h242z" />
    <glyph glyph-name="afii10060" unicode="&#x40b;" horiz-adv-x="770" 
d="M327 640h-215l11 60h520l-11 -60h-240l-39 -220h171q56 0 101 -18.5t74.5 -52t42 -79.5t2.5 -101l-30 -169h-65l31 175q7 39 -0.5 73t-28 59t-54 39t-78.5 14h-176l-64 -360h-65z" />
    <glyph glyph-name="afii10061" unicode="&#x40c;" horiz-adv-x="630" 
d="M213 700h65l-55 -315h155l280 315h80l-305 -340l192 -360h-80l-173 325h-160l-57 -325h-65zM566 935h75l-141 -145h-50z" />
    <glyph glyph-name="afii10062" unicode="&#x40e;" horiz-adv-x="600" 
d="M386 265h-165l-93 435h70l79 -375h145l216 375h70l-403 -700h-70zM429 790q-68 0 -106 36t-38 88v11h54v-9q0 -32 23.5 -54t69.5 -22q38 0 65.5 21.5t32.5 63.5h55q-4 -32 -18 -57t-35 -42.5t-48 -26.5t-55 -9z" />
    <glyph glyph-name="afii10145" unicode="&#x40f;" horiz-adv-x="715" 
d="M325 0h-235l123 700h65l-112 -640h405l112 640h65l-123 -700h-235l-25 -140h-65z" />
    <glyph glyph-name="afii10017" unicode="&#x410;" horiz-adv-x="675" 
d="M353 700h250l62 -700h-65l-19 230h-370l-101 -230h-65zM576 290l-33 350h-150l-157 -350h340z" />
    <glyph glyph-name="afii10018" unicode="&#x411;" horiz-adv-x="670" 
d="M213 700h480l-10 -60h-415l-37 -210h199q52 0 94.5 -16t72.5 -43t46 -63t16 -76q0 -49 -19 -91t-53 -73.5t-80 -49.5t-101 -18h-316zM411 60q42 0 75.5 13t57.5 35.5t37 53.5t13 67q0 32 -12.5 58t-34.5 44.5t-53.5 28.5t-68.5 10h-205l-54 -310h245z" />
    <glyph glyph-name="afii10019" unicode="&#x412;" horiz-adv-x="700" 
d="M213 700h307q47 0 82 -13.5t58.5 -37t35.5 -54t12 -63.5q0 -54 -19.5 -88t-43 -53.5t-42.5 -26.5t-18 -7l-2 -5q27 -11 49 -30q19 -17 34.5 -44t15.5 -68q0 -44 -17 -82.5t-48 -67t-74 -44.5t-95 -16h-358zM453 60q76 0 120 42t44 108q0 25 -9.5 46.5t-28 38t-46 26
t-63.5 9.5h-257l-47 -270h287zM502 390q62 0 101.5 38t39.5 102q0 45 -31.5 77.5t-91.5 32.5h-252l-44 -250h278z" />
    <glyph glyph-name="afii10020" unicode="&#x413;" horiz-adv-x="540" 
d="M213 700h440l-10 -60h-375l-113 -640h-65z" />
    <glyph glyph-name="afii10021" unicode="&#x414;" horiz-adv-x="720" 
d="M21 60h80l273 640h240l47 -640h80l-35 -200h-65l25 140h-590l-25 -140h-65zM596 60l-42 580h-140l-248 -580h430z" />
    <glyph glyph-name="afii10022" unicode="&#x415;" horiz-adv-x="610" 
d="M213 700h475l-10 -60h-410l-45 -255h335l-11 -60h-335l-46 -265h410l-11 -60h-475z" />
    <glyph glyph-name="afii10024" unicode="&#x416;" horiz-adv-x="980" 
d="M323 360l-175 340h79l160 -315h141l55 315h65l-55 -315h139l270 315h81l-295 -340l182 -360h-80l-163 325h-145l-57 -325h-65l57 325h-143l-277 -325h-82z" />
    <glyph glyph-name="afii10025" unicode="&#x417;" horiz-adv-x="640" 
d="M354 -20q-48 0 -85.5 9t-66 24t-48.5 34.5t-34 39.5q-33 48 -41 108h65q6 -44 32 -78q11 -15 27 -28.5t38 -24.5t51.5 -17.5t67.5 -6.5q46 0 81.5 12t60 33t37 49t12.5 60q0 28 -12.5 53t-36 43.5t-57.5 29t-77 10.5h-82l10 60h120q39 0 71.5 11t55 30t35 45.5t12.5 58.5
q0 24 -11 47t-32.5 40t-54.5 27.5t-77 10.5q-60 0 -99 -22t-63 -48q-28 -31 -45 -70h-65q21 56 59 100q16 19 37 37t48 32t59.5 22.5t72.5 8.5q60 0 104 -15.5t73.5 -41t44 -58.5t14.5 -67q0 -57 -23.5 -92.5t-51.5 -55.5q-33 -24 -74 -35l-1 -5q30 -12 55 -32
q21 -17 38.5 -46t17.5 -72q0 -44 -18.5 -84t-52.5 -70t-82.5 -48t-108.5 -18z" />
    <glyph glyph-name="afii10026" unicode="&#x418;" horiz-adv-x="725" 
d="M213 700h65l-110 -625l500 625h90l-123 -700h-65l110 625l-500 -625h-90z" />
    <glyph glyph-name="afii10027" unicode="&#x419;" horiz-adv-x="725" 
d="M213 700h65l-110 -625l500 625h90l-123 -700h-65l110 625l-500 -625h-90zM509 790q-68 0 -106 36t-38 88v11h54v-9q0 -32 23.5 -54t69.5 -22q38 0 65.5 21.5t32.5 63.5h55q-4 -32 -18 -57t-35 -42.5t-48 -26.5t-55 -9z" />
    <glyph glyph-name="afii10028" unicode="&#x41a;" horiz-adv-x="630" 
d="M213 700h65l-55 -315h155l280 315h80l-305 -340l192 -360h-80l-173 325h-160l-57 -325h-65z" />
    <glyph glyph-name="afii10029" unicode="&#x41b;" horiz-adv-x="665" 
d="M343 700h245l57 -700h-64l-52 640h-145l-278 -640h-66z" />
    <glyph glyph-name="afii10030" unicode="&#x41c;" horiz-adv-x="915" 
d="M213 700h105l148 -465h65l312 465h105l-123 -700h-65l113 640l-312 -465h-145l-148 465l-113 -640h-65z" />
    <glyph glyph-name="afii10031" unicode="&#x41d;" horiz-adv-x="715" 
d="M213 700h65l-55 -315h405l55 315h65l-123 -700h-65l57 325h-405l-57 -325h-65z" />
    <glyph glyph-name="afii10032" unicode="&#x41e;" horiz-adv-x="820" 
d="M443 -20q-75 0 -136.5 24.5t-106 68.5t-68.5 104t-24 131q0 90 32 165.5t86 130.5t125 85.5t149 30.5q75 0 136.5 -24.5t106 -68.5t68.5 -104t24 -131q0 -90 -32 -165.5t-86 -130.5t-125 -85.5t-149 -30.5zM447 40q64 0 123 25t103 71t70.5 110.5t26.5 143.5
q0 60 -20 109.5t-56 85.5t-86.5 55.5t-111.5 19.5q-65 0 -123.5 -25t-102.5 -71t-70.5 -110.5t-26.5 -143.5q0 -60 19.5 -109.5t55.5 -85.5t86.5 -55.5t112.5 -19.5z" />
    <glyph glyph-name="afii10033" unicode="&#x41f;" horiz-adv-x="715" 
d="M213 700h535l-123 -700h-65l113 640h-405l-113 -640h-65z" />
    <glyph glyph-name="afii10034" unicode="&#x420;" horiz-adv-x="680" 
d="M213 700h267q56 0 99 -16.5t72.5 -44.5t44.5 -65t15 -77q0 -53 -19 -98t-53 -78t-81.5 -52t-104.5 -19h-254l-44 -250h-65zM457 310q44 0 79 13.5t59.5 38t37.5 58t13 74.5q0 30 -11 57t-32.5 46.5t-52.5 31t-70 11.5h-212l-58 -330h247z" />
    <glyph glyph-name="afii10035" unicode="&#x421;" horiz-adv-x="800" 
d="M442 -20q-75 0 -136.5 24.5t-105.5 68t-68 104t-24 131.5q0 90 32.5 166t86.5 130.5t125.5 85t149.5 30.5q81 0 140.5 -26.5t98.5 -65t59.5 -81.5t25.5 -77h-66q-16 53 -49 95q-14 18 -34 35t-46.5 30.5t-60 21.5t-75.5 8q-64 0 -122.5 -25t-102.5 -71t-70.5 -110.5
t-26.5 -143.5q0 -60 19.5 -109.5t55.5 -85t86 -55.5t112 -20q42 0 77 9t63.5 23t51.5 32.5t40 37.5q40 45 65 103h67q-30 -75 -80 -133q-21 -25 -49.5 -48.5t-64 -42t-79 -30t-95.5 -11.5z" />
    <glyph glyph-name="afii10036" unicode="&#x422;" horiz-adv-x="585" 
d="M357 640h-250l11 60h565l-11 -60h-250l-113 -640h-65z" />
    <glyph glyph-name="afii10037" unicode="&#x423;" horiz-adv-x="600" 
d="M386 265h-165l-93 435h70l79 -375h145l216 375h70l-403 -700h-70z" />
    <glyph glyph-name="afii10038" unicode="&#x424;" horiz-adv-x="875" 
d="M415 45q-73 8 -130 34t-96.5 65t-60 88.5t-20.5 104.5q0 67 28.5 126.5t79.5 104.5t121 71t153 26h34l14 80h65l-14 -80q73 -8 130 -34t96.5 -65t60 -88.5t20.5 -104.5q0 -67 -28.5 -126.5t-79.5 -104.5t-121 -71t-153 -26h-34l-14 -80h-65zM514 605h-32
q-75 0 -132.5 -23t-96.5 -60.5t-59 -85t-20 -96.5q0 -44 16.5 -83.5t48 -71t78.5 -52.5t108 -28zM522 105q75 0 132.5 23t96.5 60.5t59 85t20 96.5q0 44 -16.5 83.5t-48 71t-78.5 52.5t-108 28l-89 -500h32z" />
    <glyph glyph-name="afii10039" unicode="&#x425;" horiz-adv-x="635" 
d="M287 350l-119 350h67l109 -320h90l221 320h73l-241 -350l128 -350h-67l-119 320h-91l-231 -320h-72z" />
    <glyph glyph-name="afii10040" unicode="&#x426;" horiz-adv-x="710" 
d="M620 0h-530l123 700h66l-112 -640h374l112 640h65l-112 -640h90l-36 -200h-65z" />
    <glyph glyph-name="afii10041" unicode="&#x427;" horiz-adv-x="670" 
d="M559 268q-22 -12 -49 -22q-23 -8 -56 -14.5t-72 -6.5q-61 0 -107.5 19t-76 53.5t-40 83t-0.5 106.5l37 213h65l-38 -219q-16 -90 30.5 -143t143.5 -53q38 0 69.5 7t54.5 16q27 11 49 24l66 368h65l-123 -700h-65z" />
    <glyph glyph-name="afii10042" unicode="&#x428;" horiz-adv-x="995" 
d="M213 700h66l-112 -640h309l112 640h65l-112 -640h310l112 640h65l-123 -700h-815z" />
    <glyph glyph-name="afii10043" unicode="&#x429;" horiz-adv-x="1020" 
d="M930 0h-840l123 700h66l-112 -640h309l112 640h65l-112 -640h310l112 640h65l-112 -640h90l-36 -200h-65z" />
    <glyph glyph-name="afii10044" unicode="&#x42a;" horiz-adv-x="725" 
d="M273 640h-160l11 60h224l-44 -250h192q56 0 99 -16.5t72.5 -44.5t44.5 -65t15 -77q0 -53 -19 -98t-53 -78t-81.5 -52t-104.5 -19h-309zM473 60q44 0 79 13.5t59.5 38t37.5 58t13 74.5q0 30 -11 57t-32.5 46.5t-52.5 31t-70 11.5h-202l-58 -330h237z" />
    <glyph glyph-name="afii10045" unicode="&#x42b;" horiz-adv-x="855" 
d="M213 700h65l-44 -250h182q56 0 99 -16.5t72.5 -44.5t44.5 -65t15 -77q0 -53 -19 -98t-53 -78t-81.5 -52t-104.5 -19h-299zM393 60q44 0 79 13.5t59.5 38t37.5 58t13 74.5q0 30 -11 57t-32.5 46.5t-52.5 31t-70 11.5h-192l-58 -330h227zM823 700h65l-123 -700h-65z" />
    <glyph glyph-name="afii10046" unicode="&#x42c;" horiz-adv-x="665" 
d="M213 700h65l-44 -250h202q56 0 99 -16.5t72.5 -44.5t44.5 -65t15 -77q0 -53 -19 -98t-53 -78t-81.5 -52t-104.5 -19h-319zM413 60q44 0 79 13.5t59.5 38t37.5 58t13 74.5q0 30 -11 57t-32.5 46.5t-52.5 31t-70 11.5h-212l-58 -330h247z" />
    <glyph glyph-name="afii10047" unicode="&#x42d;" horiz-adv-x="795" 
d="M416 -20q-86 0 -146.5 28.5t-99.5 70t-58.5 87t-22.5 79.5h66q12 -58 45 -103q14 -19 34 -37.5t47 -32.5t62.5 -23t79.5 -9q57 0 109.5 20t95.5 57t72 90t40 118h-321l11 60h315v5q0 60 -19.5 109.5t-55.5 85t-86.5 55.5t-111.5 20q-41 0 -74.5 -8t-61.5 -21.5
t-50.5 -30.5t-39.5 -35q-40 -42 -65 -95h-67q30 70 80 125q21 23 49 45.5t63 40t77 28.5t93 11q75 0 136.5 -24.5t105.5 -68t68 -104t24 -131.5q0 -90 -32.5 -166t-86.5 -130.5t-125.5 -85t-149.5 -30.5z" />
    <glyph glyph-name="afii10048" unicode="&#x42e;" horiz-adv-x="1025" 
d="M663 -20q-69 0 -127.5 24t-101 67.5t-67 104t-24.5 132.5v17h-131l-57 -325h-65l123 700h65l-55 -315h127q13 75 48 136.5t85.5 105.5t111.5 68.5t125 24.5q69 0 128 -24.5t101.5 -68.5t66.5 -104t24 -131q0 -90 -32 -165.5t-84.5 -130.5t-120.5 -85.5t-140 -30.5z
M667 40q59 0 114.5 25t98.5 71t69 110.5t26 143.5q0 60 -19.5 109.5t-54 85.5t-82 55.5t-103.5 19.5q-59 0 -114.5 -25t-98.5 -71t-69 -110.5t-26 -143.5q0 -60 19.5 -109.5t54 -85.5t82 -55.5t103.5 -19.5z" />
    <glyph glyph-name="afii10049" unicode="&#x42f;" horiz-adv-x="685" 
d="M283 285q-30 9 -55.5 25t-44.5 38.5t-30 52.5t-11 66q0 51 18 93.5t51 73.5t78.5 48.5t100.5 17.5h328l-123 -700h-66l48 270h-229l-208 -270h-75zM587 330l55 310h-256q-44 0 -77 -12.5t-56 -35.5t-34.5 -55t-11.5 -71q0 -29 10 -53.5t31.5 -43t54 -29t77.5 -10.5h207z
" />
    <glyph glyph-name="afii10065" unicode="&#x430;" 
d="M305 -10q-46 0 -86 17.5t-69 48t-46 72.5t-17 92q0 63 23 116.5t60.5 92t85 60t97.5 21.5q44 0 77.5 -13t57 -32t37 -41.5t18.5 -40.5l21 117h60l-88 -500h-60l15 84q-10 -15 -27 -31.5t-41 -30.5t-53.5 -23t-64.5 -9zM312 45q37 0 74 16.5t67 46.5t48.5 72t18.5 93
q0 40 -13 73.5t-35.5 57.5t-52.5 37.5t-64 13.5q-37 0 -74 -16.5t-67 -46.5t-48.5 -72t-18.5 -93q0 -40 13 -73.5t35.5 -57.5t52.5 -37.5t64 -13.5z" />
    <glyph glyph-name="afii10066" unicode="&#x431;" horiz-adv-x="560" 
d="M309 -10q-53 0 -92.5 16t-66 46t-40 72t-13.5 93q0 95 22.5 182.5t65.5 154t106.5 106.5t146.5 40h179l-10 -55h-159q-203 0 -270 -265q18 22 44 40q22 15 55 27.5t78 12.5t84 -16.5t67.5 -45.5t45 -68t16.5 -84q0 -53 -21 -100t-57 -81.5t-83 -54.5t-98 -20zM318 45
q35 0 69 15t61 42t43.5 63t16.5 78q0 33 -11.5 62.5t-33 51.5t-51.5 35t-66 13q-35 0 -69 -15t-61 -42t-43.5 -63t-16.5 -78q0 -33 11.5 -62.5t33 -51.5t51.5 -35t66 -13z" />
    <glyph glyph-name="afii10067" unicode="&#x432;" horiz-adv-x="530" 
d="M168 500h222q36 0 62.5 -9.5t44 -26t26 -37.5t8.5 -45q0 -40 -15 -64.5t-32.5 -37.5t-32 -17t-13.5 -4q20 -8 37 -22q14 -12 25.5 -32t11.5 -51q0 -33 -12 -61t-34.5 -48.5t-54.5 -32.5t-71 -12h-260zM345 55q51 0 79 28t28 73q0 33 -25 56t-82 23h-164l-31 -180h195z
M381 290q44 0 67 23.5t23 62.5q0 29 -21 49t-70 20h-162l-27 -155h190z" />
    <glyph glyph-name="afii10068" unicode="&#x433;" horiz-adv-x="415" 
d="M168 500h335l-10 -55h-275l-78 -445h-60z" />
    <glyph glyph-name="afii10069" unicode="&#x434;" horiz-adv-x="535" 
d="M15 55h55l198 445h190l42 -445h55l-31 -175h-55l21 120h-430l-21 -120h-55zM440 55l-36 390h-100l-174 -390h310z" />
    <glyph glyph-name="afii10070" unicode="&#x435;" horiz-adv-x="590" 
d="M320 -10q-51 0 -94 17t-73.5 48t-48 73t-17.5 93q0 56 20.5 108t57 92.5t86.5 64.5t110 24q51 0 93.5 -17.5t72.5 -48.5t47 -73t17 -91q0 -10 -1 -19t-2 -16q-1 -8 -2 -15h-439v-5q0 -39 12.5 -72t36 -57t56 -37.5t72.5 -13.5q48 0 83.5 17t58.5 38q27 24 46 55h60
q-24 -47 -60 -83q-31 -31 -78.5 -56.5t-113.5 -25.5zM528 285q0 28 -10.5 58t-31.5 55t-53 41t-75 16q-40 0 -74 -14.5t-61 -38.5t-44.5 -54.5t-24.5 -62.5h374z" />
    <glyph glyph-name="afii10072" unicode="&#x436;" horiz-adv-x="765" 
d="M251 260l-138 240h70l123 -210h100l37 210h60l-37 -210h99l197 210h71l-222 -240l149 -260h-69l-134 235h-101l-41 -235h-60l41 235h-98l-216 -235h-72z" />
    <glyph glyph-name="afii10073" unicode="&#x437;" horiz-adv-x="490" 
d="M277 -10q-39 0 -69 6.5t-52.5 17.5t-38.5 24.5t-26 28.5q-25 34 -31 78h58q7 -28 25 -50q16 -19 47 -34.5t85 -15.5q33 0 58 8t41.5 21.5t25 31.5t8.5 37q0 38 -35 62.5t-103 24.5h-45l10 55h85q57 0 86 24t29 63q0 31 -31.5 57t-98.5 26q-42 0 -68.5 -13.5t-42.5 -29.5
q-18 -18 -29 -42h-60q14 39 40 70q23 26 62 48t101 22q44 0 78.5 -10.5t58.5 -28.5t37 -42t13 -51q0 -40 -17.5 -64t-38.5 -38q-25 -16 -56 -24q24 -10 42 -25q16 -14 29.5 -34.5t13.5 -51.5t-12.5 -58.5t-37 -48t-60 -32.5t-81.5 -12z" />
    <glyph glyph-name="afii10074" unicode="&#x438;" horiz-adv-x="580" 
d="M168 500h60l-73 -415l363 415h70l-88 -500h-60l73 415l-363 -415h-70z" />
    <glyph glyph-name="afii10075" unicode="&#x439;" horiz-adv-x="580" 
d="M168 500h60l-73 -415l363 415h70l-88 -500h-60l73 415l-363 -415h-70zM406 630q-32 0 -57 9.5t-42 25t-26 36t-9 41.5v8h55v-5q0 -27 21.5 -46t64.5 -19q35 0 57.5 19t26.5 51h55q-8 -57 -48.5 -88.5t-97.5 -31.5z" />
    <glyph glyph-name="afii10076" unicode="&#x43a;" horiz-adv-x="520" 
d="M168 500h60l-37 -210h119l202 210h71l-227 -240l154 -260h-69l-139 235h-121l-41 -235h-60z" />
    <glyph glyph-name="afii10077" unicode="&#x43b;" horiz-adv-x="515" 
d="M253 500h195l52 -500h-59l-47 445h-105l-203 -445h-61z" />
    <glyph glyph-name="afii10078" unicode="&#x43c;" horiz-adv-x="700" 
d="M168 500h88l109 -320h30l221 320h92l-88 -500h-60l76 430l-215 -310h-100l-105 310l-76 -430h-60z" />
    <glyph glyph-name="afii10079" unicode="&#x43d;" horiz-adv-x="580" 
d="M168 500h60l-39 -220h300l39 220h60l-88 -500h-60l40 225h-300l-40 -225h-60z" />
    <glyph glyph-name="afii10080" unicode="&#x43e;" horiz-adv-x="600" 
d="M323 -10q-53 0 -96.5 17.5t-74.5 48.5t-48 73.5t-17 91.5q0 63 22.5 116t61 91.5t88.5 60t105 21.5q53 0 96.5 -17.5t74.5 -48.5t48 -73.5t17 -91.5q0 -63 -23 -116t-61 -91.5t-88 -60t-105 -21.5zM326 45q42 0 80.5 17t68.5 47.5t47.5 72.5t17.5 93q0 39 -13 72
t-36.5 57t-56.5 37.5t-73 13.5q-42 0 -80.5 -17t-68.5 -47.5t-47.5 -72.5t-17.5 -93q0 -39 13 -72t36.5 -57t56.5 -37.5t73 -13.5z" />
    <glyph glyph-name="afii10081" unicode="&#x43f;" horiz-adv-x="575" 
d="M168 500h415l-88 -500h-60l78 445h-295l-78 -445h-60z" />
    <glyph glyph-name="afii10082" unicode="&#x440;" 
d="M167 500h60l-15 -84q10 15 27 31.5t41 30.5t53.5 23t64.5 9q46 0 86 -17.5t69 -48t46 -73t17 -91.5q0 -63 -23 -116.5t-60.5 -92t-85 -60t-97.5 -21.5q-44 0 -77.5 13t-57 32t-37 41.5t-18.5 40.5l-54 -307h-60zM348 45q37 0 74 16.5t67 46.5t48.5 72t18.5 93
q0 40 -13 73.5t-35.5 57.5t-52.5 37.5t-64 13.5q-37 0 -74 -16.5t-67 -46.5t-48.5 -72t-18.5 -93q0 -40 13 -73.5t35.5 -57.5t52.5 -37.5t64 -13.5z" />
    <glyph glyph-name="afii10083" unicode="&#x441;" horiz-adv-x="570" 
d="M314 -10q-48 0 -89 17t-72 48t-48.5 73.5t-17.5 92.5q0 63 23 116.5t61 91.5t86.5 59.5t99.5 21.5q36 0 65 -7.5t51.5 -20t38.5 -28.5t28 -32q27 -39 37 -87h-60q-11 34 -32 60q-18 23 -49.5 41.5t-81.5 18.5q-38 0 -75.5 -17t-66.5 -47t-47 -72.5t-18 -93.5
q0 -40 13 -73t36 -57t54 -37t66 -13q51 0 87 20t59 45q27 28 45 65h60q-21 -53 -56 -93q-15 -17 -34.5 -33.5t-44 -29.5t-54 -21t-64.5 -8z" />
    <glyph glyph-name="afii10084" unicode="&#x442;" horiz-adv-x="430" 
d="M253 445h-180l10 55h420l-10 -55h-180l-78 -445h-60z" />
    <glyph glyph-name="afii10085" unicode="&#x443;" horiz-adv-x="505" 
d="M275 0h-125l-47 500h66l37 -445h94l208 445h65l-327 -690h-65z" />
    <glyph glyph-name="afii10086" unicode="&#x444;" horiz-adv-x="660" 
d="M296 -5q-49 6 -89 26t-68 51t-43.5 71t-15.5 85q0 58 23 109t62.5 88t91.5 58.5t111 21.5h18l34 195h60l-34 -195q49 -6 89 -26t68 -51t43.5 -71t15.5 -85q0 -59 -23 -109.5t-62.5 -87.5t-92 -58.5t-110.5 -21.5h-18l-33 -185h-60zM376 450h-11q-48 0 -89 -17.5
t-71.5 -47.5t-47.5 -69.5t-17 -83.5q0 -37 12.5 -68t34.5 -55t52.5 -39.5t66.5 -19.5zM377 50q48 0 89 17.5t71.5 47.5t47.5 69.5t17 83.5q0 37 -12.5 68t-34.5 55t-52.5 39t-66.5 20l-70 -400h11z" />
    <glyph glyph-name="afii10087" unicode="&#x445;" horiz-adv-x="490" 
d="M210 255l-97 245h69l82 -215h65l158 215h71l-183 -245l105 -255h-69l-89 230h-64l-171 -230h-72z" />
    <glyph glyph-name="afii10088" unicode="&#x446;" horiz-adv-x="575" 
d="M495 0h-415l88 500h60l-78 -445h280l78 445h60l-78 -445h75l-31 -175h-60z" />
    <glyph glyph-name="afii10089" unicode="&#x447;" horiz-adv-x="540" 
d="M433 183q-16 -10 -37 -17q-18 -6 -43 -11t-54 -5q-50 0 -86.5 14.5t-60 40t-32 60.5t-0.5 76l29 159h60l-29 -163q-11 -63 18 -97.5t108 -34.5q30 0 55 5t43 11q21 7 38 17l46 262h60l-88 -500h-60z" />
    <glyph glyph-name="afii10090" unicode="&#x448;" horiz-adv-x="790" 
d="M168 500h60l-78 -445h225l78 445h60l-78 -445h225l78 445h60l-88 -500h-630z" />
    <glyph glyph-name="afii10091" unicode="&#x449;" horiz-adv-x="805" 
d="M725 0h-645l88 500h60l-78 -445h225l78 445h60l-78 -445h225l78 445h60l-78 -445h75l-31 -175h-60z" />
    <glyph glyph-name="afii10092" unicode="&#x44a;" horiz-adv-x="530" 
d="M193 445h-115l10 55h175l-32 -180h124q41 0 73.5 -11.5t55 -31t34.5 -46.5t12 -57q0 -37 -14.5 -68.5t-39.5 -55t-59 -37t-74 -13.5h-228zM345 55q27 0 50 8.5t39.5 24t26 36.5t9.5 46q0 19 -7.5 36t-22 30t-36 21t-49.5 8h-133l-37 -210h160z" />
    <glyph glyph-name="afii10093" unicode="&#x44b;" horiz-adv-x="670" 
d="M168 500h60l-32 -180h114q41 0 73.5 -11.5t55 -31t34.5 -46.5t12 -57q0 -37 -14.5 -68.5t-39.5 -55t-59 -37t-74 -13.5h-218zM300 55q27 0 50 8.5t39.5 24t26 36.5t9.5 46q0 19 -7.5 36t-22 30t-36 21t-49.5 8h-123l-37 -210h150zM618 498h60l-88 -498h-60z" />
    <glyph glyph-name="afii10094" unicode="&#x44c;" horiz-adv-x="505" 
d="M168 500h60l-32 -180h134q41 0 73.5 -11.5t55 -31t34.5 -46.5t12 -57q0 -37 -14.5 -68.5t-39.5 -55t-59 -37t-74 -13.5h-238zM320 55q27 0 50 8.5t39.5 24t26 36.5t9.5 46q0 19 -7.5 36t-22 30t-36 21t-49.5 8h-143l-37 -210h170z" />
    <glyph glyph-name="afii10095" unicode="&#x44d;" horiz-adv-x="565" 
d="M295 -10q-38 0 -67.5 8t-52 21t-39 29.5t-28.5 33.5q-27 40 -37 93h60q10 -37 31 -65q18 -25 50.5 -45t85.5 -20q33 0 66 13t60.5 36.5t47.5 56.5t28 74h-230l10 55h225q-1 39 -14.5 71t-36.5 55t-53.5 36t-64.5 13q-50 0 -84.5 -18.5t-56.5 -41.5q-26 -26 -42 -60h-60
q21 48 54 87q14 16 33 32t42.5 28.5t52 20t63.5 7.5q48 0 89 -17.5t72 -48t48.5 -73t17.5 -92.5q0 -63 -23 -116.5t-61 -91.5t-86.5 -59.5t-99.5 -21.5z" />
    <glyph glyph-name="afii10096" unicode="&#x44e;" horiz-adv-x="765" 
d="M499 -10q-49 0 -90.5 17.5t-71.5 48.5t-47 73t-17 91h-94l-39 -220h-60l88 500h60l-40 -225h90q9 52 34 95.5t60.5 74.5t79 48t88.5 17q49 0 90.5 -17.5t71.5 -48.5t47 -73.5t17 -91.5q0 -63 -22.5 -116t-60 -91.5t-85.5 -60t-99 -21.5zM502 45q38 0 75 17t65.5 47.5
t46 72.5t17.5 93q0 39 -13 72t-35.5 57t-53.5 37.5t-67 13.5q-38 0 -75 -17t-65.5 -47.5t-46 -72.5t-17.5 -93q0 -39 13 -72t35.5 -57t53.5 -37.5t67 -13.5z" />
    <glyph glyph-name="afii10097" unicode="&#x44f;" horiz-adv-x="540" 
d="M196 190q-15 6 -30 17.5t-27 28.5t-19.5 38.5t-7.5 46.5q0 37 15 69.5t41.5 57t62 38.5t77.5 14h240l-88 -500h-60l30 170h-185l-120 -170h-70zM440 225l38 220h-173q-28 0 -52.5 -9.5t-42.5 -25.5t-28 -37.5t-10 -45.5q0 -20 7.5 -38.5t21 -32.5t33.5 -22.5t45 -8.5h161
z" />
    <glyph glyph-name="afii10071" unicode="&#x451;" horiz-adv-x="590" 
d="M320 -10q-51 0 -94 17t-73.5 48t-48 73t-17.5 93q0 56 20.5 108t57 92.5t86.5 64.5t110 24q51 0 93.5 -17.5t72.5 -48.5t47 -73t17 -91q0 -10 -1 -19t-2 -16q-1 -8 -2 -15h-439v-5q0 -39 12.5 -72t36 -57t56 -37.5t72.5 -13.5q48 0 83.5 17t58.5 38q27 24 46 55h60
q-24 -47 -60 -83q-31 -31 -78.5 -56.5t-113.5 -25.5zM528 285q0 28 -10.5 58t-31.5 55t-53 41t-75 16q-40 0 -74 -14.5t-61 -38.5t-44.5 -54.5t-24.5 -62.5h374zM311 635q-19 0 -30 12.5t-11 29.5q0 20 14.5 34t34.5 14q19 0 30 -12.5t11 -29.5q0 -20 -14.5 -34t-34.5 -14z
M481 635q-19 0 -30 12.5t-11 29.5q0 20 14.5 34t34.5 14q19 0 30 -12.5t11 -29.5q0 -20 -14.5 -34t-34.5 -14z" />
    <glyph glyph-name="afii10099" unicode="&#x452;" horiz-adv-x="575" 
d="M285 -135h150l61 344q6 36 1.5 66t-20 52.5t-42.5 35t-65 12.5q-33 0 -63.5 -12t-55 -33.5t-42 -51.5t-23.5 -67l-37 -211h-60l93 530h-70l10 55h70l20 115h60l-20 -115h130l-10 -55h-130l-31 -180q16 22 40 40q20 15 52 27.5t78 12.5q50 0 87 -17t59 -47.5t29 -73.5
t-2 -94l-68 -388h-211z" />
    <glyph glyph-name="afii10100" unicode="&#x453;" horiz-adv-x="415" 
d="M168 500h335l-10 -55h-275l-78 -445h-60zM446 755h75l-141 -145h-50z" />
    <glyph glyph-name="afii10101" unicode="&#x454;" horiz-adv-x="570" 
d="M314 -10q-48 0 -89 17t-72 48t-48.5 73.5t-17.5 92.5q0 63 23 116.5t61 91.5t86.5 59.5t99.5 21.5q36 0 65 -7.5t51.5 -20t38.5 -28.5t28 -32q27 -39 37 -87h-60q-11 34 -32 60q-18 23 -49.5 41.5t-81.5 18.5q-33 0 -65.5 -12.5t-59.5 -35.5t-47 -55.5t-29 -71.5h228
l-10 -55h-224q0 -40 13 -73t36 -57t54 -37t66 -13q51 0 87 20t59 45q27 28 45 65h60q-21 -53 -56 -93q-15 -17 -34.5 -33.5t-44 -29.5t-54 -21t-64.5 -8z" />
    <glyph glyph-name="afii10102" unicode="&#x455;" horiz-adv-x="510" 
d="M298 -10q-38 0 -68 7t-53.5 18t-40 25.5t-28.5 29.5q-27 35 -37 80h64q8 -30 28 -53q17 -20 50 -36t89 -16q62 0 94 26t32 64q0 27 -22 44.5t-55 30t-72 24t-72 28.5t-55 41.5t-22 63.5q0 28 12 53.5t34.5 45.5t56 32t77.5 12q35 0 62.5 -6.5t48.5 -16.5t36.5 -23.5
t26.5 -26.5q25 -32 34 -72h-65q-9 25 -27 45q-16 17 -44.5 31t-75.5 14q-59 0 -87.5 -25t-28.5 -56q0 -28 22 -45t55 -29.5t72 -24.5t72 -28.5t55 -41t22 -63.5q0 -32 -12.5 -59.5t-37 -48t-60 -32.5t-80.5 -12z" />
    <glyph glyph-name="afii10103" unicode="&#x456;" horiz-adv-x="220" 
d="M168 500h60l-88 -500h-60zM221 605q-19 0 -30 12.5t-11 29.5q0 20 14.5 34t34.5 14q19 0 30 -12.5t11 -29.5q0 -20 -14.5 -34t-34.5 -14z" />
    <glyph glyph-name="afii10104" unicode="&#x457;" horiz-adv-x="220" 
d="M168 500h60l-88 -500h-60zM136 635q-19 0 -30 12.5t-11 29.5q0 20 14.5 34t34.5 14q19 0 30 -12.5t11 -29.5q0 -20 -14.5 -34t-34.5 -14zM306 635q-19 0 -30 12.5t-11 29.5q0 20 14.5 34t34.5 14q19 0 30 -12.5t11 -29.5q0 -20 -14.5 -34t-34.5 -14z" />
    <glyph glyph-name="afii10105" unicode="&#x458;" horiz-adv-x="220" 
d="M-88 -135h145l111 635h60l-121 -690h-205zM222 605q-19 0 -30 12.5t-11 29.5q0 20 14.5 34t34.5 14q19 0 30 -12.5t11 -29.5q0 -20 -14.5 -34t-34.5 -14z" />
    <glyph glyph-name="afii10106" unicode="&#x459;" horiz-adv-x="780" 
d="M253 500h260l-32 -180h124q41 0 73.5 -11.5t55 -31t34.5 -46.5t12 -57q0 -37 -14.5 -68.5t-39.5 -55t-59 -37t-74 -13.5h-228l78 445h-155l-203 -445h-60zM595 55q27 0 50 8.5t39.5 24t26 36.5t9.5 46q0 19 -7.5 36t-22 30t-36 21t-49.5 8h-133l-37 -210h160z" />
    <glyph glyph-name="afii10107" unicode="&#x45a;" horiz-adv-x="845" 
d="M168 500h60l-35 -200h290l35 200h60l-35 -200h127q41 0 73.5 -10.5t55 -29t34.5 -43.5t12 -53q0 -35 -14.5 -65t-39.5 -52t-59 -34.5t-74 -12.5h-228l43 245h-290l-43 -245h-60zM660 55q54 0 89.5 29t35.5 76q0 34 -29 59.5t-86 25.5h-137l-33 -190h160z" />
    <glyph glyph-name="afii10108" unicode="&#x45b;" horiz-adv-x="575" 
d="M182 530h-70l10 55h70l20 115h60l-20 -115h130l-10 -55h-130l-31 -180q16 22 40 40q20 15 52 27.5t78 12.5q50 0 87 -17t59 -47.5t29 -73.5t-2 -94l-35 -198h-60l37 209q6 36 1.5 66t-20 52.5t-42.5 35t-65 12.5q-33 0 -63.5 -12t-55 -33.5t-42 -51.5t-23.5 -67l-37 -211
h-60z" />
    <glyph glyph-name="afii10109" unicode="&#x45c;" horiz-adv-x="520" 
d="M168 500h60l-37 -210h119l202 210h71l-227 -240l154 -260h-69l-139 235h-121l-41 -235h-60zM475 755h75l-141 -145h-50z" />
    <glyph glyph-name="afii10110" unicode="&#x45e;" horiz-adv-x="505" 
d="M275 0h-125l-47 500h66l37 -445h94l208 445h65l-327 -690h-65zM354 620q-32 0 -57 9.5t-42 25t-26 36t-9 41.5v8h55v-5q0 -27 21.5 -46t64.5 -19q35 0 57.5 19t26.5 51h55q-8 -57 -48.5 -88.5t-97.5 -31.5z" />
    <glyph glyph-name="afii10193" unicode="&#x45f;" horiz-adv-x="575" 
d="M260 0h-180l88 500h60l-78 -445h295l78 445h60l-88 -500h-175l-21 -120h-60z" />
    <glyph glyph-name="afii10050" unicode="&#x490;" horiz-adv-x="540" 
d="M213 700h375l18 100h65l-28 -160h-375l-113 -640h-65z" />
    <glyph glyph-name="afii10098" unicode="&#x491;" horiz-adv-x="425" 
d="M168 500h275l16 90h60l-26 -145h-275l-78 -445h-60z" />
    <glyph glyph-name="uni04D8" unicode="&#x4d8;" horiz-adv-x="808" 
d="M432 -20q-74 0 -134 24.5t-102 68t-65 101.5t-23 126q0 23 2.5 41t6.5 44h642v10q0 60 -21 109t-57.5 83.5t-86 53.5t-106.5 19q-48 0 -91 -14t-78 -38t-62 -55.5t-45 -67.5h-68q17 47 51 89.5t80.5 75t103 51.5t116.5 19q73 0 133.5 -25t103.5 -69t67 -104t24 -130
q0 -90 -32 -166t-86 -130.5t-124.5 -85t-148.5 -30.5zM440 40q52 0 102.5 18t93 53.5t74 89t44.5 124.5h-580q-1 -1 -1 -3v-12q0 -68 22.5 -118.5t60 -84t85.5 -50.5t99 -17z" />
    <glyph glyph-name="uni04D9" unicode="&#x4d9;" horiz-adv-x="586" 
d="M311 -10q-49 0 -90 16t-71 45.5t-46.5 71t-16.5 92.5q0 14 2.5 30t4.5 30h434v10q0 36 -13 67.5t-36 54t-55 35.5t-70 13q-34 0 -62 -9.5t-50 -24t-38.5 -32t-28.5 -34.5h-61q15 28 37 56t52.5 50t69.5 35.5t87 13.5q49 0 90.5 -17t71.5 -47.5t47 -72.5t17 -93
q0 -13 -1.5 -25.5t-3.5 -26.5q-9 -53 -34.5 -96.5t-61.5 -75t-80.5 -49t-93.5 -17.5zM318 45q35 0 68 13.5t60.5 36.5t47 55t27.5 70h-376q0 -37 12.5 -69t35 -55.5t54.5 -37t71 -13.5z" />
    <glyph glyph-name="Wgrave" unicode="&#x1e80;" horiz-adv-x="960" 
d="M158 700h67l22 -640h35l253 640h124l27 -640h35l248 640h69l-278 -700h-136l-23 640h-30l-247 -640h-134zM495 935h75l64 -145h-50z" />
    <glyph glyph-name="wgrave" unicode="&#x1e81;" horiz-adv-x="770" 
d="M113 500h64l17 -445h36l168 445h130l12 -445h34l173 445h66l-198 -500h-136l-12 445h-30l-168 -445h-134zM365 755h75l64 -145h-50z" />
    <glyph glyph-name="Wacute" unicode="&#x1e82;" horiz-adv-x="960" 
d="M158 700h67l22 -640h35l253 640h124l27 -640h35l248 640h69l-278 -700h-136l-23 640h-30l-247 -640h-134zM701 935h75l-141 -145h-50z" />
    <glyph glyph-name="wacute" unicode="&#x1e83;" horiz-adv-x="770" 
d="M113 500h64l17 -445h36l168 445h130l12 -445h34l173 445h66l-198 -500h-136l-12 445h-30l-168 -445h-134zM571 755h75l-141 -145h-50z" />
    <glyph glyph-name="Wdieresis" unicode="&#x1e84;" horiz-adv-x="960" 
d="M158 700h67l22 -640h35l253 640h124l27 -640h35l248 640h69l-278 -700h-136l-23 640h-30l-247 -640h-134zM536 815q-19 0 -30 12.5t-11 29.5q0 20 14.5 34t34.5 14q19 0 30 -12.5t11 -29.5q0 -20 -14.5 -34t-34.5 -14zM706 815q-19 0 -30 12.5t-11 29.5q0 20 14.5 34
t34.5 14q19 0 30 -12.5t11 -29.5q0 -20 -14.5 -34t-34.5 -14z" />
    <glyph glyph-name="wdieresis" unicode="&#x1e85;" horiz-adv-x="770" 
d="M113 500h64l17 -445h36l168 445h130l12 -445h34l173 445h66l-198 -500h-136l-12 445h-30l-168 -445h-134zM406 635q-19 0 -30 12.5t-11 29.5q0 20 14.5 34t34.5 14q19 0 30 -12.5t11 -29.5q0 -20 -14.5 -34t-34.5 -14zM576 635q-19 0 -30 12.5t-11 29.5q0 20 14.5 34
t34.5 14q19 0 30 -12.5t11 -29.5q0 -20 -14.5 -34t-34.5 -14z" />
    <glyph glyph-name="uni1E9E" unicode="&#x1e9e;" horiz-adv-x="700" 
d="M170 481q18 103 82.5 161t179.5 58h298l-10 -61l-223 -204l-1 -5q101 -19 150 -70.5t49 -126.5q0 -49 -18.5 -91.5t-53.5 -74t-84.5 -49.5t-111.5 -18h-107l11 60h99q47 0 84 13t63 35.5t39.5 52.5t13.5 64q0 27 -11.5 53.5t-35 46.5t-59.5 32.5t-84 12.5h-35l12 65
l215 200h-211q-86 0 -129.5 -40t-58.5 -124l-83 -471h-65z" />
    <glyph glyph-name="Ygrave" unicode="&#x1ef2;" horiz-adv-x="635" 
d="M320 255l-197 445h77l160 -370h5l290 370h83l-353 -445l-45 -255h-65zM325 935h75l64 -145h-50z" />
    <glyph glyph-name="ygrave" unicode="&#x1ef3;" horiz-adv-x="505" 
d="M275 0h-125l-47 500h66l37 -445h94l208 445h65l-327 -690h-65zM230 755h75l64 -145h-50z" />
    <glyph glyph-name="endash" unicode="&#x2013;" horiz-adv-x="665" 
d="M120 295h545l-10 -55h-545z" />
    <glyph glyph-name="emdash" unicode="&#x2014;" horiz-adv-x="855" 
d="M120 295h735l-10 -55h-735z" />
    <glyph glyph-name="quoteleft" unicode="&#x2018;" horiz-adv-x="195" 
d="M187 510q-21 0 -35 14t-14 46q0 33 9.5 57.5t26 41.5t39 27t47.5 14l-6 -30q-31 -8 -51 -24.5t-20 -45.5q0 -7 1 -9q0 -2 1 -4q2 0 5 1q6 2 13 2q15 0 25.5 -12.5t10.5 -27.5q0 -23 -16 -36.5t-36 -13.5z" />
    <glyph glyph-name="quoteright" unicode="&#x2019;" horiz-adv-x="195" 
d="M144 540q31 8 51 24.5t20 45.5q0 2 -0.5 4.5t-0.5 4.5q-1 2 -1 4q-2 -1 -5 -2t-13 -1q-15 0 -25.5 12.5t-10.5 27.5q0 23 16 36.5t36 13.5q21 0 35 -14t14 -46q0 -33 -9.5 -57.5t-26 -41.5t-39 -27t-47.5 -14z" />
    <glyph glyph-name="quotesinglbase" unicode="&#x201a;" horiz-adv-x="195" 
d="M44 -90q31 8 51 24.5t20 45.5q0 2 -0.5 4.5t-0.5 4.5q-1 2 -1 4q-2 -1 -5 -2t-13 -1q-15 0 -25.5 12.5t-10.5 27.5q0 23 16 36.5t36 13.5q21 0 35 -14t14 -46q0 -33 -9.5 -57.5t-26 -41.5t-39 -27t-47.5 -14z" />
    <glyph glyph-name="quotedblleft" unicode="&#x201c;" horiz-adv-x="335" 
d="M327 510q-21 0 -35 14t-14 46q0 33 9.5 57.5t26 41.5t39 27t47.5 14l-6 -30q-31 -8 -51 -24.5t-20 -45.5q0 -7 1 -9q0 -2 1 -4q2 0 5 1q6 2 13 2q15 0 25.5 -12.5t10.5 -27.5q0 -23 -16 -36.5t-36 -13.5zM187 510q-21 0 -35 14t-14 46q0 33 9.5 57.5t26 41.5t39 27
t47.5 14l-6 -30q-31 -8 -51 -24.5t-20 -45.5q0 -7 1 -9q0 -2 1 -4q2 0 5 1q6 2 13 2q15 0 25.5 -12.5t10.5 -27.5q0 -23 -16 -36.5t-36 -13.5z" />
    <glyph glyph-name="quotedblright" unicode="&#x201d;" horiz-adv-x="335" 
d="M144 540q31 8 51 24.5t20 45.5q0 2 -0.5 4.5t-0.5 4.5q-1 2 -1 4q-2 -1 -5 -2t-13 -1q-15 0 -25.5 12.5t-10.5 27.5q0 23 16 36.5t36 13.5q21 0 35 -14t14 -46q0 -33 -9.5 -57.5t-26 -41.5t-39 -27t-47.5 -14zM284 540q31 8 51 24.5t20 45.5q0 2 -0.5 4.5t-0.5 4.5
q-1 2 -1 4q-2 -1 -5 -2t-13 -1q-15 0 -25.5 12.5t-10.5 27.5q0 23 16 36.5t36 13.5q21 0 35 -14t14 -46q0 -33 -9.5 -57.5t-26 -41.5t-39 -27t-47.5 -14z" />
    <glyph glyph-name="quotedblbase" unicode="&#x201e;" horiz-adv-x="335" 
d="M44 -90q31 8 51 24.5t20 45.5q0 2 -0.5 4.5t-0.5 4.5q-1 2 -1 4q-2 -1 -5 -2t-13 -1q-15 0 -25.5 12.5t-10.5 27.5q0 23 16 36.5t36 13.5q21 0 35 -14t14 -46q0 -33 -9.5 -57.5t-26 -41.5t-39 -27t-47.5 -14zM184 -90q31 8 51 24.5t20 45.5q0 2 -0.5 4.5t-0.5 4.5
q-1 2 -1 4q-2 -1 -5 -2t-13 -1q-15 0 -25.5 12.5t-10.5 27.5q0 23 16 36.5t36 13.5q21 0 35 -14t14 -46q0 -33 -9.5 -57.5t-26 -41.5t-39 -27t-47.5 -14z" />
    <glyph glyph-name="dagger" unicode="&#x2020;" horiz-adv-x="460" 
d="M277 440h-150l11 60h150l35 200h60l-35 -200h150l-11 -60h-150l-78 -440h-60z" />
    <glyph glyph-name="daggerdbl" unicode="&#x2021;" horiz-adv-x="460" 
d="M228 160h-150l11 60h150l45 260h-150l11 60h150l28 160h60l-28 -160h150l-11 -60h-150l-45 -260h150l-11 -60h-150l-28 -160h-60z" />
    <glyph glyph-name="bullet" unicode="&#x2022;" horiz-adv-x="370" 
d="M232 215q-25 0 -42 18t-17 41q0 15 6 27.5t16.5 22.5t23 15.5t26.5 5.5q25 0 42 -18t17 -41q0 -15 -6 -27.5t-16.5 -22.5t-23.5 -15.5t-26 -5.5z" />
    <glyph glyph-name="ellipsis" unicode="&#x2026;" horiz-adv-x="620" 
d="M108 -15q-22 0 -34.5 13t-12.5 32q0 26 15.5 40.5t38.5 14.5q22 0 34.5 -13t12.5 -32q0 -26 -15.5 -40.5t-38.5 -14.5zM323 -15q-22 0 -34.5 13t-12.5 32q0 26 15.5 40.5t38.5 14.5q22 0 34.5 -13t12.5 -32q0 -26 -15.5 -40.5t-38.5 -14.5zM538 -15q-22 0 -34.5 13
t-12.5 32q0 26 15.5 40.5t38.5 14.5q22 0 34.5 -13t12.5 -32q0 -26 -15.5 -40.5t-38.5 -14.5z" />
    <glyph glyph-name="perthousand" unicode="&#x2030;" horiz-adv-x="1130" 
d="M688 700h65l-543 -700h-65zM569 -10q-32 0 -59.5 12t-47.5 32.5t-31 48t-11 57.5q0 38 15 71t40.5 57t58 38t67.5 14q32 0 59.5 -12t47.5 -32.5t31 -48t11 -57.5q0 -38 -15 -71t-40.5 -57t-58 -38t-67.5 -14zM576 44q23 0 44 9t36.5 25.5t25 39.5t9.5 51q0 42 -26 69.5
t-71 27.5q-23 0 -44 -9t-36.5 -25.5t-25 -39.5t-9.5 -51q0 -42 26 -69.5t71 -27.5zM939 -10q-32 0 -59.5 12t-47.5 32.5t-31 48t-11 57.5q0 38 15 71t40.5 57t58 38t67.5 14q32 0 59.5 -12t47.5 -32.5t31 -48t11 -57.5q0 -38 -15 -71t-40.5 -57t-58 -38t-67.5 -14zM946 44
q23 0 44 9t36.5 25.5t25 39.5t9.5 51q0 42 -26 69.5t-71 27.5q-23 0 -44 -9t-36.5 -25.5t-25 -39.5t-9.5 -51q0 -42 26 -69.5t71 -27.5zM294 380q-32 0 -59.5 12t-47.5 32.5t-31 48t-11 57.5q0 38 15 71t40.5 57t58 38t67.5 14q32 0 59.5 -12t47.5 -32.5t31 -48t11 -57.5
q0 -38 -15 -71t-40.5 -57t-58 -38t-67.5 -14zM301 434q23 0 44 9t36.5 25.5t25 39.5t9.5 51q0 42 -26 69.5t-71 27.5q-23 0 -44 -9t-36.5 -25.5t-25 -39.5t-9.5 -51q0 -42 26 -69.5t71 -27.5z" />
    <glyph glyph-name="guilsinglleft" unicode="&#x2039;" horiz-adv-x="355" 
d="M89 250l271 235l35 -42l-226 -196l155 -193l-46 -39z" />
    <glyph glyph-name="guilsinglright" unicode="&#x203a;" horiz-adv-x="355" 
d="M64 57l226 196l-155 193l46 39l189 -235l-271 -235z" />
    <glyph glyph-name="fraction" unicode="&#x2044;" horiz-adv-x="120" 
d="M371 700h60l-553 -700h-60z" />
    <glyph glyph-name="zerosuperior" unicode="&#x2070;" horiz-adv-x="370" 
d="M269 450q-30 0 -55.5 11t-43.5 31t-28.5 47.5t-10.5 61.5q0 49 15 87.5t39.5 65.5t56 41.5t64.5 14.5q30 0 55.5 -11t43.5 -31t28.5 -47.5t10.5 -61.5q0 -49 -15 -87.5t-39.5 -65.5t-56 -41.5t-64.5 -14.5zM274 505q21 0 41 10t35 29.5t24.5 48t9.5 64.5q0 47 -22.5 72.5
t-60.5 25.5q-21 0 -41 -10.5t-35 -30t-24.5 -47.5t-9.5 -64q0 -47 22.5 -72.5t60.5 -25.5z" />
    <glyph glyph-name="foursuperior" unicode="&#x2074;" horiz-adv-x="320" 
d="M274 535h-175l10 55l172 210h65l-172 -210h110l12 70h60l-12 -70h50l-10 -55h-50l-13 -75h-60z" />
    <glyph glyph-name="fivesuperior" unicode="&#x2075;" horiz-adv-x="345" 
d="M268 450q-48 0 -76.5 16t-42.5 36q-17 23 -22 53h65q3 -14 13 -25q8 -10 23.5 -17.5t41.5 -7.5q38 0 57.5 20.5t19.5 44.5q0 26 -20 43t-58 17q-17 0 -30 -5t-22 -10q-11 -7 -19 -15l-50 10l43 190h225l-9 -55h-170l-19 -80q6 6 17 10q9 4 22.5 7t32.5 3q27 0 48.5 -8.5
t37 -23t23.5 -33.5t8 -40q0 -29 -10.5 -53t-29 -41t-44 -26.5t-55.5 -9.5z" />
    <glyph glyph-name="sixsuperior" unicode="&#x2076;" horiz-adv-x="330" 
d="M251 450q-32 0 -57 9t-43 24t-27.5 35.5t-9.5 43.5q0 22 7 41.5t17.5 36.5t23.5 31.5t25 26.5l108 102h77l-98 -91l-34 -21l-1 -5q5 1 11 3q5 2 11 3t12 1q29 0 51.5 -10t38.5 -26t24 -36.5t8 -40.5q0 -26 -11 -49t-30.5 -40.5t-45.5 -27.5t-57 -10zM255 505
q37 0 58.5 21t21.5 47t-20.5 44t-60.5 18q-37 0 -58.5 -21t-21.5 -47t20.5 -44t60.5 -18z" />
    <glyph glyph-name="sevensuperior" unicode="&#x2077;" horiz-adv-x="285" 
d="M340 745h-190l10 55h255l-10 -55l-200 -285h-65z" />
    <glyph glyph-name="eightsuperior" unicode="&#x2078;" horiz-adv-x="370" 
d="M282 450q-69 0 -112 27t-43 72q0 29 12.5 46t28.5 28q18 11 42 18l1 5q-12 6 -21 16q-8 8 -14.5 20.5t-6.5 29.5q0 39 33.5 68.5t96.5 29.5q36 0 62 -8t43 -21t25.5 -29.5t8.5 -34.5q0 -25 -10.5 -41t-23.5 -26q-15 -11 -34 -18l-1 -5q16 -7 28 -18q11 -9 19.5 -23.5
t8.5 -34.5q0 -19 -9.5 -37t-27.5 -32.5t-44.5 -23t-61.5 -8.5zM285 505q43 0 62 14.5t19 33.5q0 18 -22.5 35t-76.5 17q-43 0 -62 -14.5t-19 -33.5q0 -18 22.5 -35t76.5 -17zM309 665q34 0 49 14t15 34q0 15 -16.5 28.5t-58.5 13.5q-34 0 -49 -14t-15 -34q0 -15 16.5 -28.5
t58.5 -13.5z" />
    <glyph glyph-name="ninesuperior" unicode="&#x2079;" horiz-adv-x="330" 
d="M265 551l34 21l1 5q-5 -2 -11 -4q-11 -3 -23 -3q-29 0 -51.5 10t-38.5 26t-24 36.5t-8 40.5q0 26 11 49t30.5 40.5t45.5 27.5t57 10t56.5 -9t43.5 -24t27.5 -35.5t9.5 -43.5q0 -22 -7 -41.5t-17.5 -36.5t-23.5 -31.5t-25 -26.5l-108 -102h-77zM285 625q37 0 58.5 21
t21.5 47t-20.5 44t-60.5 18q-37 0 -58.5 -21t-21.5 -47t20.5 -44t60.5 -18z" />
    <glyph glyph-name="zeroinferior" unicode="&#x2080;" horiz-adv-x="370" 
d="M176 -110q-30 0 -55.5 11t-43.5 31t-28.5 47.5t-10.5 61.5q0 49 15 87.5t39.5 65.5t56 41.5t64.5 14.5q30 0 55.5 -11t43.5 -31t28.5 -47.5t10.5 -61.5q0 -49 -15 -87.5t-39.5 -65.5t-56 -41.5t-64.5 -14.5zM181 -55q21 0 41 10t35 29.5t24.5 48t9.5 64.5
q0 47 -22.5 72.5t-60.5 25.5q-21 0 -41 -10.5t-35 -30t-24.5 -47.5t-9.5 -64q0 -47 22.5 -72.5t60.5 -25.5z" />
    <glyph glyph-name="oneinferior" unicode="&#x2081;" horiz-adv-x="340" 
d="M58 -45h100l38 220l-99 -55l11 65l105 55h55l-50 -285h95l-10 -55h-255z" />
    <glyph glyph-name="twoinferior" unicode="&#x2082;" horiz-adv-x="350" 
d="M41 -45l94 50q42 22 71.5 39t48 32t27 30t8.5 34q0 23 -17.5 39t-55.5 16q-23 0 -39.5 -9.5t-26.5 -20.5q-12 -13 -19 -30h-61q11 31 31 57q17 22 45.5 40t71.5 18q32 0 56.5 -8.5t41 -23t25 -33.5t8.5 -40q0 -53 -51.5 -97t-163.5 -93h186l-10 -55h-280z" />
    <glyph glyph-name="threeinferior" unicode="&#x2083;" horiz-adv-x="345" 
d="M187 -110q-48 0 -76.5 16t-42.5 36q-17 23 -22 53h65q3 -14 13 -25q8 -10 23.5 -17.5t42.5 -7.5q35 0 54.5 17.5t19.5 45.5q0 20 -17.5 36t-62.5 16h-61l9 50l119 75h-155l9 55h240l-9 -55l-119 -75q53 -7 80 -35t27 -67q0 -24 -10 -45.5t-28 -37.5t-43.5 -25.5
t-55.5 -9.5z" />
    <glyph glyph-name="fourinferior" unicode="&#x2084;" horiz-adv-x="320" 
d="M196 -25h-175l10 55l172 210h65l-172 -210h110l12 70h60l-12 -70h50l-10 -55h-50l-13 -75h-60z" />
    <glyph glyph-name="fiveinferior" unicode="&#x2085;" horiz-adv-x="345" 
d="M185 -110q-48 0 -76.5 16t-42.5 36q-17 23 -22 53h65q3 -14 13 -25q8 -10 23.5 -17.5t41.5 -7.5q38 0 57.5 20.5t19.5 44.5q0 26 -20 43t-58 17q-17 0 -30 -5t-22 -10q-11 -7 -19 -15l-50 10l43 190h225l-9 -55h-170l-19 -80q6 6 17 10q9 4 22.5 7t32.5 3q27 0 48.5 -8.5
t37 -23t23.5 -33.5t8 -40q0 -29 -10.5 -53t-29 -41t-44 -26.5t-55.5 -9.5z" />
    <glyph glyph-name="sixinferior" unicode="&#x2086;" horiz-adv-x="330" 
d="M176 -110q-32 0 -57 9t-43 24t-27.5 35.5t-9.5 43.5q0 22 7 41.5t17.5 36.5t23.5 31.5t25 26.5l108 102h77l-98 -91l-34 -21l-1 -5q5 1 11 3q5 2 11 3t12 1q29 0 51.5 -10t38.5 -26t24 -36.5t8 -40.5q0 -26 -11 -49t-30.5 -40.5t-45.5 -27.5t-57 -10zM180 -55
q37 0 58.5 21t21.5 47t-20.5 44t-60.5 18q-37 0 -58.5 -21t-21.5 -47t20.5 -44t60.5 -18z" />
    <glyph glyph-name="seveninferior" unicode="&#x2087;" horiz-adv-x="285" 
d="M251 185h-190l10 55h255l-10 -55l-200 -285h-65z" />
    <glyph glyph-name="eightinferior" unicode="&#x2088;" horiz-adv-x="370" 
d="M200 -110q-69 0 -112 27t-43 72q0 29 12.5 46t28.5 28q18 11 42 18l1 5q-12 6 -21 16q-8 8 -14.5 20.5t-6.5 29.5q0 39 33.5 68.5t96.5 29.5q36 0 62 -8t43 -21t25.5 -29.5t8.5 -34.5q0 -25 -10.5 -41t-23.5 -26q-15 -11 -34 -18l-1 -5q16 -7 28 -18q11 -9 19.5 -23.5
t8.5 -34.5q0 -19 -9.5 -37t-27.5 -32.5t-44.5 -23t-61.5 -8.5zM203 -55q43 0 62 14.5t19 33.5q0 18 -22.5 35t-76.5 17q-43 0 -62 -14.5t-19 -33.5q0 -18 22.5 -35t76.5 -17zM227 105q34 0 49 14t15 34q0 15 -16.5 28.5t-58.5 13.5q-34 0 -49 -14t-15 -34q0 -15 16.5 -28.5
t58.5 -13.5z" />
    <glyph glyph-name="nineinferior" unicode="&#x2089;" horiz-adv-x="330" 
d="M179 -9l34 21l1 5q-5 -2 -11 -4q-11 -3 -23 -3q-29 0 -51.5 10t-38.5 26t-24 36.5t-8 40.5q0 26 11 49t30.5 40.5t45.5 27.5t57 10t56.5 -9t43.5 -24t27.5 -35.5t9.5 -43.5q0 -22 -7 -41.5t-17.5 -36.5t-23.5 -31.5t-25 -26.5l-108 -102h-77zM199 65q37 0 58.5 21
t21.5 47t-20.5 44t-60.5 18q-37 0 -58.5 -21t-21.5 -47t20.5 -44t60.5 -18z" />
    <glyph glyph-name="uni20A9" unicode="&#x20a9;" horiz-adv-x="1000" 
d="M204 240h-142l10 60h129l-5 110h-104l10 60h91l-10 230h66l7 -230h211l92 230h120l9 -230h211l90 230h74l-96 -230h95l-10 -60h-104l-45 -110h129l-10 -60h-142l-95 -240h-135l-9 240h-199l-92 -240h-135zM306 60l71 180h-112l6 -180h35zM400 300l44 110h-185l3 -110h138
zM638 300l-3 110h-127l-43 -110h173zM741 60l70 180h-113l8 -180h35zM633 470l-6 170h-30l-66 -170h102zM833 300l43 110h-185l4 -110h138z" />
    <glyph glyph-name="Euro" unicode="&#x20ac;" horiz-adv-x="840" 
d="M483 -20q-67 0 -123.5 19.5t-99 55.5t-70.5 85.5t-37 109.5h-79l10 55h65v3q0 23 2 44.5t6 42.5h-57l9 55h63q21 61 58.5 111t86.5 85t106.5 54.5t119.5 19.5q81 0 140.5 -26.5t98.5 -65t59.5 -81.5t25.5 -77h-66q-16 53 -49 95q-14 18 -34 35t-46.5 30.5t-60 21.5
t-75.5 8q-49 0 -94.5 -14.5t-84.5 -41.5t-69.5 -66t-48.5 -88h290l-9 -55h-297q-9 -41 -9 -85v-5h290l-10 -55h-275q9 -48 32 -86.5t57.5 -66t79.5 -42.5t99 -15q42 0 77 9t63.5 23t51.5 32.5t40 37.5q40 45 65 103h67q-30 -75 -80 -133q-21 -25 -49.5 -48.5t-64 -42
t-79 -30t-95.5 -11.5z" />
    <glyph glyph-name="uni20B4" unicode="&#x20b4;" horiz-adv-x="640" 
d="M350 -20q-60 0 -105 14.5t-75.5 38.5t-45.5 55.5t-15 65.5q0 23 5 41t12 30q8 14 18 25h-44l10 60h530l-10 -60h-411q-13 -9 -23 -23q-8 -12 -15 -30t-7 -42q0 -22 10.5 -42.5t32.5 -36.5t55.5 -26t80.5 -10q55 0 91 17.5t59 39.5q26 26 41 58h66q-20 -49 -54 -88
q-15 -17 -34.5 -32.5t-45 -27.5t-57 -19.5t-69.5 -7.5zM135 450h411q12 9 22 23q8 12 15.5 29.5t7.5 42.5q0 22 -10.5 42.5t-32.5 36.5t-56 26t-80 10q-55 0 -91.5 -18t-58.5 -40q-26 -26 -41 -57h-66q18 48 53 87q15 16 34.5 32t45 28.5t57.5 20t70 7.5q60 0 105 -14.5
t75.5 -38.5t45.5 -55.5t15 -65.5q0 -23 -5.5 -41t-12.5 -30q-8 -14 -17 -25h44l-10 -60h-530z" />
    <glyph glyph-name="uni20B8" unicode="&#x20b8;" horiz-adv-x="585" 
d="M331 490h-250l10 60h565l-10 -60h-250l-86 -490h-65zM118 700h565l-11 -60h-565z" />
    <glyph glyph-name="uni20B9" unicode="&#x20b9;" horiz-adv-x="645" 
d="M312 270h-215l10 60h254q71 0 116 34t59 91h-406l10 60h401q-4 57 -47 91t-125 34h-207l11 60h555l-11 -60h-166q53 -50 56 -125h88l-10 -60h-83q-8 -38 -26.5 -70t-47 -56t-65 -39t-80.5 -18l131 -272h-75z" />
    <glyph glyph-name="uni20BA" unicode="&#x20ba;" horiz-adv-x="570" 
d="M167 269l-85 -29l10 60l86 29l17 100l-85 -29l11 60l85 29l37 211h65l-33 -187l176 62l-11 -60l-176 -62l-17 -100l176 62l-11 -60l-176 -62l-41 -233h78q53 0 95 9.5t73.5 31.5t52 58.5t30.5 90.5h65q-6 -65 -31 -112t-65.5 -78t-96.5 -45.5t-124 -14.5h-152z" />
    <glyph glyph-name="uni20BC" unicode="&#x20bc;" horiz-adv-x="760" 
d="M64 83q19 110 57.5 186t89.5 124t110.5 72t120.5 30l18 105h65l-19 -111q48 -15 91 -40.5t75 -65.5t50.5 -96.5t18.5 -133.5q0 -29 -3.5 -60t-8.5 -66l-4 -27h-65l5 32q5 32 8 61t3 55q0 67 -15.5 115.5t-41 81t-58 52t-66.5 28.5l-75 -425h-65l75 430q-45 -4 -92 -23
t-88 -59.5t-73.5 -106.5t-48.5 -163l-13 -78h-65z" />
    <glyph glyph-name="uni20BD" unicode="&#x20bd;" horiz-adv-x="675" 
d="M139 110h-85l11 60h85l15 90h-85l11 60h85l67 380h237q52 0 94.5 -15t72.5 -42t46.5 -63.5t16.5 -79.5q0 -51 -19 -94.5t-52.5 -76t-81 -51t-104.5 -18.5h-223l-15 -90h255l-11 -60h-255l-19 -110h-65zM459 320q43 0 77.5 14t58.5 38t37 56.5t13 69.5q0 29 -11 55
t-32 45.5t-52 30.5t-70 11h-183l-56 -320h218z" />
    <glyph glyph-name="uni20BF" unicode="&#x20bf;" horiz-adv-x="700" 
d="M195 0h-105l123 700h105l19 110h65l-19 -110h130l19 110h65l-21 -116q33 -8 57.5 -23.5t41 -37t25 -47.5t8.5 -54q0 -54 -19.5 -88t-43 -53.5t-42.5 -26.5t-18 -7l-2 -5q27 -11 49 -30q19 -17 34.5 -44t15.5 -68q0 -44 -16.5 -81.5t-46.5 -66t-72 -45t-93 -17.5l-19 -110
h-65l20 110h-130l-20 -110h-65zM453 60q76 0 120 42t44 108q0 25 -9.5 46.5t-28 38t-46 26t-63.5 9.5h-257l-47 -270h287zM502 390q62 0 101.5 38t39.5 102q0 45 -31.5 77.5t-91.5 32.5h-252l-44 -250h278z" />
    <glyph glyph-name="afii61352" unicode="&#x2116;" horiz-adv-x="1060" 
d="M213 700h95l273 -635l112 635h65l-123 -700h-95l-273 635l-112 -635h-65zM804 305h270l-11 -60h-270zM968 390q-33 0 -60 11t-47 30.5t-31 46t-11 56.5q0 37 14.5 69.5t38.5 56t55.5 37t66.5 13.5q33 0 60 -11t47 -30.5t31 -46t11 -56.5q0 -38 -14.5 -70t-38.5 -55.5
t-56 -37t-66 -13.5zM971 445q22 0 42 9t35.5 24.5t24.5 37t9 46.5q0 41 -25.5 67t-66.5 26q-21 0 -41 -9t-35.5 -25t-24.5 -37t-9 -46q0 -41 25.5 -67t65.5 -26z" />
    <glyph glyph-name="trademark" unicode="&#x2122;" horiz-adv-x="745" 
d="M195 645h-115v55h285v-55h-115v-265h-55v265zM400 700h85l85 -180h20l85 180h85v-320h-55v265l-85 -180h-80l-85 180v-265h-55v320z" />
    <glyph glyph-name="arrowleft" unicode="&#x2190;" horiz-adv-x="900" 
d="M150 335v10l175 170h15v-150h530v-50h-530v-150h-15z" />
    <glyph glyph-name="arrowup" unicode="&#x2191;" horiz-adv-x="900" 
d="M470 525h-150v15l170 175h10l170 -175v-15h-150v-525h-50v525z" />
    <glyph glyph-name="arrowright" unicode="&#x2192;" horiz-adv-x="900" 
d="M695 315h-530v50h530v150h15l175 -170v-10l-175 -170h-15v150z" />
    <glyph glyph-name="arrowdown" unicode="&#x2193;" horiz-adv-x="900" 
d="M320 160v15h150v525h50v-525h150v-15l-170 -175h-10z" />
    <glyph glyph-name="uni2196" unicode="&#x2196;" horiz-adv-x="900" 
d="M380 465l-105 -105h-15v250l10 10h250v-15l-105 -105l380 -380l-35 -35z" />
    <glyph glyph-name="uni2197" unicode="&#x2197;" horiz-adv-x="900" 
d="M225 120l380 380l-105 105v15h250l10 -10v-250h-15l-105 105l-380 -380z" />
    <glyph glyph-name="uni2198" unicode="&#x2198;" horiz-adv-x="900" 
d="M500 100l105 105l-380 380l35 35l380 -380l105 105h15v-250l-10 -10h-250v15z" />
    <glyph glyph-name="uni2199" unicode="&#x2199;" horiz-adv-x="900" 
d="M260 95v250h15l105 -105l380 380l35 -35l-380 -380l105 -105v-15h-250z" />
    <glyph glyph-name="minus" unicode="&#x2212;" horiz-adv-x="500" 
d="M120 315h380v-60h-380v60z" />
    <glyph glyph-name="approxequal" unicode="&#x2248;" horiz-adv-x="500" 
d="M385 120q-30 0 -51 11.5t-38.5 26t-33.5 26t-37 11.5q-55 0 -55 -55v-15h-60v15q0 49 31 79.5t84 30.5q30 0 51 -11.5t38.5 -26t33.5 -26t37 -11.5q55 0 55 55v15h60v-15q0 -49 -31 -79.5t-84 -30.5zM385 285q-30 0 -51 11.5t-38.5 26t-33.5 26t-37 11.5q-55 0 -55 -55
v-15h-60v15q0 49 31 79.5t84 30.5q30 0 51 -11.5t38.5 -26t33.5 -26t37 -11.5q55 0 55 55v15h60v-15q0 -49 -31 -79.5t-84 -30.5z" />
    <glyph glyph-name="notequal" unicode="&#x2260;" horiz-adv-x="500" 
d="M215 145h-90v55h120l70 130h-190v55h220l80 145h60l-80 -145h90v-55h-120l-70 -130h190v-55h-220l-80 -145h-60z" />
    <glyph glyph-name="lessequal" unicode="&#x2264;" horiz-adv-x="500" 
d="M115 165v55l380 -175v-55zM115 280v65l380 175v-60l-320 -145v-5l320 -145v-60z" />
    <glyph glyph-name="greaterequal" unicode="&#x2265;" horiz-adv-x="500" 
d="M110 45l380 175v-55l-380 -175v55zM110 165l320 145v5l-320 145v60l380 -175v-65l-380 -175v60z" />
    <glyph glyph-name="A_A" unicode="&#xe000;" horiz-adv-x="1225" 
d="M353 700h250l51 -565l249 565h250l62 -700h-65l-19 230h-370l-101 -230h-60l-19 230h-370l-101 -230h-65zM576 290l-33 350h-150l-157 -350h340zM1126 290l-33 350h-150l-157 -350h340z" />
    <glyph glyph-name="A_R" unicode="&#xe001;" horiz-adv-x="1060" 
d="M353 700h517q54 0 96.5 -15t72 -41t44.5 -61.5t15 -75.5q0 -48 -15.5 -89t-45 -72.5t-71 -50.5t-92.5 -23l131 -272h-75l-127 270h-215l-48 -270h-65l47 270h-294l-118 -270h-65zM533 330l54 310h-199l-135 -310h280zM852 330q42 0 76 12.5t57 35.5t35.5 55t12.5 71
q0 61 -43 98.5t-130 37.5h-207l-55 -310h254z" />
    <glyph glyph-name="A_T" unicode="&#xe002;" horiz-adv-x="735" 
d="M327 640h-119l10 60h565l-10 -60h-119l56 -640h-65l-19 230h-175l-41 -230h-65l41 230h-175l-101 -230h-65zM396 290l62 350h-65l-157 -350h160zM621 290l-33 350h-65l-62 -350h160z" />
    <glyph glyph-name="A_V" unicode="&#xe003;" horiz-adv-x="1055" 
d="M353 700h250l58 -640h142l277 640h73l-308 -700h-245l-19 230h-370l-101 -230h-65zM576 290l-33 350h-150l-157 -350h340z" />
    <glyph glyph-name="C_E" unicode="&#xe004;" horiz-adv-x="800" 
d="M442 -20q-75 0 -136.5 24.5t-105.5 68t-68 104t-24 131.5q0 90 32.5 166t86.5 130.5t125.5 85t149.5 30.5q81 0 140.5 -26.5t98.5 -65t59.5 -81.5t25.5 -77h-66q-16 53 -49 95q-14 18 -34 35t-46.5 30.5t-60 21.5t-75.5 8q-64 0 -122.5 -25t-102.5 -71t-70.5 -110.5
t-26.5 -143.5q0 -60 19.5 -109.5t55.5 -85t86 -55.5t112 -20q42 0 77 9t63.5 23t51.5 32.5t40 37.5q40 45 65 103h67q-30 -75 -80 -133q-21 -25 -49.5 -48.5t-64 -42t-79 -30t-95.5 -11.5zM375 520h255l-11 -60h-190l-13 -75h140l-11 -60h-140l-15 -85h190l-10 -60h-255z
" />
    <glyph glyph-name="C_O" unicode="&#xe005;" horiz-adv-x="800" 
d="M442 -20q-75 0 -136.5 24.5t-105.5 68t-68 104t-24 131.5q0 90 32.5 166t86.5 130.5t125.5 85t149.5 30.5q81 0 140.5 -26.5t98.5 -65t59.5 -81.5t25.5 -77h-66q-16 53 -49 95q-14 18 -34 35t-46.5 30.5t-60 21.5t-75.5 8q-64 0 -122.5 -25t-102.5 -71t-70.5 -110.5
t-26.5 -143.5q0 -60 19.5 -109.5t55.5 -85t86 -55.5t112 -20q42 0 77 9t63.5 23t51.5 32.5t40 37.5q40 45 65 103h67q-30 -75 -80 -133q-21 -25 -49.5 -48.5t-64 -42t-79 -30t-95.5 -11.5zM461 180q-35 0 -63.5 12t-49 32.5t-32 48.5t-11.5 60q0 39 15.5 73.5t41 59.5
t59 39.5t70.5 14.5q34 0 63 -12t49.5 -32.5t32 -48.5t11.5 -60q0 -39 -15.5 -73.5t-41 -59.5t-59 -39.5t-70.5 -14.5zM466 240q23 0 44 9t37 25t25.5 38.5t9.5 49.5q0 43 -27 70.5t-69 27.5q-23 0 -44 -9t-37 -25t-25.5 -38.5t-9.5 -49.5q0 -43 27 -70.5t69 -27.5z" />
    <glyph glyph-name="D_E" unicode="&#xe006;" horiz-adv-x="1065" 
d="M213 700h197h14h719l-10 -60h-523q59 -42 92 -107.5t33 -147.5h278l-11 -60h-272q-13 -85 -58.5 -153t-114.5 -112h474l-11 -60h-930zM355 60q67 0 125 25t100 68.5t66 103t24 128.5q0 54 -19 101t-53.5 81t-82.5 53.5t-105 19.5h-142l-102 -580h189z" />
    <glyph glyph-name="E_A" unicode="&#xe007;" horiz-adv-x="1120" 
d="M213 700h425l-10 -60h-360l-45 -255h435l140 315h250l62 -700h-65l-30 325h-318l-142 -325h-465zM516 60l116 265h-420l-46 -265h350zM1010 385l-22 255h-150l-115 -255h287z" />
    <glyph glyph-name="J_A" unicode="&#xe008;" horiz-adv-x="911" 
d="M264 -20q-59 0 -100 17.5t-67.5 44t-40.5 57t-19 57.5l67 14q6 -37 25 -65q17 -25 49 -45t88 -20q66 0 114 43t62 124l87 493h310l62 -700h-65l-20 230h-305l-5 -29q-19 -106 -83.5 -163.5t-158.5 -57.5zM812 290l-33 350h-196l-62 -350h291z" />
    <glyph glyph-name="K_K" unicode="&#xe009;" horiz-adv-x="855" 
d="M213 700h65l-55 -315h155l280 315h80l-305 -340l192 -360h-80l-173 325h-160l-57 -325h-65zM578 360l305 340h80l-305 -340l192 -360h-80z" />
    <glyph glyph-name="K_O" unicode="&#xe00a;" horiz-adv-x="1100" 
d="M213 700h65l-55 -315h155l280 315h80l-305 -340l192 -360h-80l-173 325h-160l-57 -325h-65zM846 95q-50 0 -93 18.5t-74 50t-48.5 74.5t-17.5 92q0 60 23.5 112t62.5 90.5t89.5 60.5t104.5 22q50 0 93 -18.5t74 -50t48.5 -74.5t17.5 -92q0 -60 -23.5 -112t-62.5 -90.5
t-89.5 -60.5t-104.5 -22zM850 155q40 0 78 16.5t67.5 46.5t47 70.5t17.5 88.5q0 38 -13 70.5t-35.5 56.5t-54 37.5t-68.5 13.5q-41 0 -78.5 -16.5t-67 -46.5t-47 -70.5t-17.5 -88.5q0 -38 13 -70.5t35.5 -56.5t54 -37.5t68.5 -13.5z" />
    <glyph glyph-name="L_A" unicode="&#xe00b;" horiz-adv-x="925" 
d="M213 700h65l-112 -640h155l282 640h250l62 -700h-65l-19 230h-370l-75 -170h160l-11 -60h-445zM826 290l-33 350h-150l-157 -350h340z" />
    <glyph glyph-name="L_F" unicode="&#xe00c;" horiz-adv-x="640" 
d="M213 700h65l-112 -640h380l-11 -60h-445zM408 700h325l-10 -60h-260l-33 -184h210l-10 -61h-210l-42 -235h-65z" />
    <glyph glyph-name="L_I" unicode="&#xe00d;" horiz-adv-x="620" 
d="M213 700h65l-112 -640h380l-11 -60h-445zM593 700h65l-93 -530h-65z" />
    <glyph glyph-name="L_L" unicode="&#xe00e;" horiz-adv-x="625" 
d="M213 700h65l-112 -640h380l-11 -60h-445zM398 700h65l-82 -470h270l-11 -60h-335z" />
    <glyph glyph-name="L_O" unicode="&#xe00f;" horiz-adv-x="800" 
d="M213 700h65l-112 -640h380l-11 -60h-445zM550 189q-50 0 -93 18.5t-74 50t-48.5 74.5t-17.5 92q0 60 23.5 112t62.5 90.5t89.5 60.5t104.5 22q50 0 93 -18.5t74 -50t48.5 -74.5t17.5 -92q0 -60 -23.5 -112t-62.5 -90.5t-89.5 -60.5t-104.5 -22zM554 249q40 0 78 16.5
t67.5 46.5t47 70.5t17.5 88.5q0 38 -13 70.5t-35.5 56.5t-54 37.5t-68.5 13.5q-41 0 -78.5 -16.5t-67 -46.5t-47 -70.5t-17.5 -88.5q0 -38 13 -70.5t35.5 -56.5t54 -37.5t68.5 -13.5z" />
    <glyph glyph-name="N_A" unicode="&#xe010;" horiz-adv-x="1070" 
d="M213 700h95l273 -635l112 635h305l62 -700h-65l-19 230h-300l-41 -230h-95l-273 635l-112 -635h-65zM971 290l-33 350h-190l-62 -350h285z" />
    <glyph glyph-name="O_C" unicode="&#xe011;" horiz-adv-x="1179" 
d="M443 -20q-75 0 -136.5 24.5t-106 68.5t-68.5 104t-24 131q0 90 32 165.5t86 130.5t125 85.5t149 30.5q54 0 102 -13.5t87 -37.5q43 25 90.5 38t98.5 13q82 0 142 -26.5t99.5 -65t60 -81.5t25.5 -77h-66q-16 53 -49 95q-14 18 -34 35t-46.5 30.5t-60 21.5t-75.5 8
q-71 0 -134 -30q46 -44 70.5 -105t24.5 -133q0 -102 -40 -184t-106 -138q29 -14 63.5 -22t72.5 -8q42 0 77 9t63.5 23t51.5 32.5t40 37.5q40 45 65 103h67q-30 -75 -80 -133q-21 -25 -49.5 -48.5t-64 -42t-79 -30t-95.5 -11.5q-55 0 -102.5 13.5t-86.5 37.5
q-43 -25 -90.5 -38t-98.5 -13zM447 40q35 0 69 8t65 22q-45 45 -70 105.5t-25 132.5q0 101 40 184t106 138q-59 30 -136 30q-65 0 -123.5 -25t-102.5 -71t-70.5 -110.5t-26.5 -143.5q0 -60 19.5 -109.5t55.5 -85.5t86.5 -55.5t112.5 -19.5zM638 104q60 46 96 119t36 167
q0 65 -22.5 117.5t-64.5 88.5q-60 -45 -96 -118.5t-36 -167.5q0 -65 22.5 -117.5t64.5 -88.5z" />
    <glyph glyph-name="O_G" unicode="&#xe012;" horiz-adv-x="1238" 
d="M443 -20q-75 0 -136.5 24.5t-106 68.5t-68.5 104t-24 131q0 90 32 165.5t86 130.5t125 85.5t149 30.5q54 0 102 -13.5t87 -37.5q43 25 90.5 38t98.5 13q82 0 140 -25t96.5 -62t59 -79.5t28.5 -78.5h-66q-16 52 -49 92q-14 17 -34 34t-46 30t-59 21t-74 8q-71 0 -134 -30
q46 -44 70.5 -105t24.5 -133q0 -102 -40 -184t-106 -138q29 -14 63.5 -22t72.5 -8q74 0 130.5 28t95.5 68.5t60 85t24 78.5h-138l10 60h295l-10 -60h-90q-9 -51 -38 -107t-77 -103.5t-114.5 -78.5t-151.5 -31q-55 0 -102.5 13.5t-86.5 37.5q-43 -25 -90.5 -38t-98.5 -13z
M447 40q35 0 69 8t65 22q-45 45 -70 105.5t-25 132.5q0 101 40 184t106 138q-59 30 -136 30q-65 0 -123.5 -25t-102.5 -71t-70.5 -110.5t-26.5 -143.5q0 -60 19.5 -109.5t55.5 -85.5t86.5 -55.5t112.5 -19.5zM638 104q60 46 96 119t36 167q0 65 -22.5 117.5t-64.5 88.5
q-60 -45 -96 -118.5t-36 -167.5q0 -65 22.5 -117.5t64.5 -88.5z" />
    <glyph glyph-name="O_L_I" unicode="&#xe013;" horiz-adv-x="1400" 
d="M986 700h65l-112 -640h380l-11 -60h-445zM1366 700h65l-93 -530h-65zM443 -20q-75 0 -136.5 24.5t-106 68.5t-68.5 104t-24 131q0 90 32 165.5t86 130.5t125 85.5t149 30.5q75 0 136.5 -24.5t106 -68.5t68.5 -104t24 -131q0 -90 -32 -165.5t-86 -130.5t-125 -85.5
t-149 -30.5zM447 40q64 0 123 25t103 71t70.5 110.5t26.5 143.5q0 60 -20 109.5t-56 85.5t-86.5 55.5t-111.5 19.5q-65 0 -123.5 -25t-102.5 -71t-70.5 -110.5t-26.5 -143.5q0 -60 19.5 -109.5t55.5 -85.5t86.5 -55.5t112.5 -19.5z" />
    <glyph glyph-name="O_O" unicode="&#xe014;" horiz-adv-x="1198" 
d="M443 -20q-75 0 -136.5 24.5t-106 68.5t-68.5 104t-24 131q0 90 32 165.5t86 130.5t125 85.5t149 30.5q54 0 102 -13.5t87 -37.5q43 25 90.5 38t98.5 13q75 0 136.5 -24.5t106 -68.5t68.5 -104t24 -131q0 -90 -32 -165.5t-86 -130.5t-125 -85.5t-149 -30.5
q-55 0 -102.5 13.5t-86.5 37.5q-43 -25 -90.5 -38t-98.5 -13zM447 40q35 0 69 8t65 22q-45 45 -70 105.5t-25 132.5q0 101 40 184t106 138q-59 30 -136 30q-65 0 -123.5 -25t-102.5 -71t-70.5 -110.5t-26.5 -143.5q0 -60 19.5 -109.5t55.5 -85.5t86.5 -55.5t112.5 -19.5z
M638 104q60 46 96 119t36 167q0 65 -22.5 117.5t-64.5 88.5q-60 -45 -96 -118.5t-36 -167.5q0 -65 22.5 -117.5t64.5 -88.5zM825 40q64 0 123 25t103 71t70.5 110.5t26.5 143.5q0 60 -20 109.5t-56 85.5t-86.5 55.5t-111.5 19.5q-71 0 -134 -30q46 -44 70.5 -105t24.5 -133
q0 -102 -40 -184t-106 -138q29 -14 63.5 -22t72.5 -8z" />
    <glyph glyph-name="P_H" unicode="&#xe015;" horiz-adv-x="1185" 
d="M213 700h267q56 0 99 -16.5t72.5 -44.5t44.5 -65t15 -77q0 -12 -2.5 -31t-5.5 -37q-4 -21 -8 -44h405l55 315h65l-123 -700h-65l57 325h-405l-57 -325h-65l53 300q-32 -24 -73 -37t-89 -13h-254l-44 -250h-65zM457 310q44 0 79 13.5t59.5 38t37.5 58t13 74.5q0 30 -11 57
t-32.5 46.5t-52.5 31t-70 11.5h-212l-58 -330h247z" />
    <glyph glyph-name="R_J" unicode="&#xe016;" horiz-adv-x="997" 
d="M711 -21q-50 0 -86.5 13.5t-66 41.5t-55 70t-51.5 99l-31 67h-218l-48 -270h-65l123 700h272q54 0 96.5 -15t72 -41t44.5 -61.5t15 -75.5q0 -48 -15 -88.5t-43.5 -71.5t-70 -50.5t-93.5 -25.5l24 -53q22 -49 41.5 -83t41.5 -55.5t49.5 -31t66.5 -9.5q67 0 114 42.5
t61 123.5l87 495h65l-87 -501q-18 -106 -83.5 -163t-159.5 -57zM467 330q42 0 76 12.5t57 35.5t35.5 55t12.5 71q0 61 -43 98.5t-130 37.5h-207l-55 -310h254z" />
    <glyph glyph-name="S_A" unicode="&#xe017;" horiz-adv-x="1256" 
d="M325 -20q-47 0 -84 9t-65 23t-48.5 32.5t-33.5 37.5q-33 45 -41 103h65l3 -11t11 -27t22.5 -35t38.5 -35t57.5 -26.5t80.5 -10.5q46 0 81.5 12t59.5 33t36.5 48.5t12.5 57.5q0 38 -21 63t-53 44.5t-69 37t-69 40t-53 54t-21 79.5q0 41 16.5 79t47.5 67.5t76.5 47
t102.5 17.5q44 0 79 -8t61.5 -21t45.5 -30t32 -34q31 -40 40 -92h-66q-8 35 -32 62q-20 23 -59.5 43t-105.5 20q-42 0 -74 -11.5t-53.5 -31t-33 -44.5t-11.5 -53q0 -37 21 -62t53 -44.5t68.5 -37.5t68.5 -41t53 -55t21 -80q0 -43 -17.5 -82.5t-51 -70t-82 -49t-110.5 -18.5z
M934 700h250l61 -700h-65l-19 230h-370l-101 -230h-65zM1157 290l-34 350h-150l-156 -350h340z" />
    <glyph glyph-name="T_A" unicode="&#xe018;" horiz-adv-x="746" 
d="M358 640h-250l11 60h555l61 -700h-65l-19 230h-300l-41 -230h-65zM646 290l-33 350h-190l-62 -350h285z" />
    <glyph glyph-name="T_E" unicode="&#xe019;" horiz-adv-x="705" 
d="M358 640h-250l11 60h565l-11 -60h-250l-28 -160h330l-11 -60h-330l-26 -150h250l-11 -60h-250l-26 -150h330l-11 -60h-395z" />
    <glyph glyph-name="T_H_E" unicode="&#xe01a;" horiz-adv-x="1230" 
d="M348 640h-240l11 60h545l-11 -60h-240l-45 -255h405l56 315h475l-11 -60h-410l-45 -255h335l-11 -60h-335l-46 -265h410l-11 -60h-475l57 325h-405l-57 -325h-65z" />
    <glyph glyph-name="T_T" unicode="&#xe01b;" horiz-adv-x="840" 
d="M358 640h-250l11 60h565l-11 -60h-250l-113 -640h-65zM639 420h-165l11 60h395l-11 -60h-165l-74 -420h-65z" />
    <glyph glyph-name="U_U" unicode="&#xe01c;" horiz-adv-x="780" 
d="M422 125q-41 0 -71.5 14t-49 39t-25 59t0.5 73l42 240h65l-42 -237q-5 -27 -3 -50.5t11.5 -41t28.5 -27t48 -9.5q40 0 66 25.5t36 82.5l45 257h65l-46 -263q-14 -78 -60 -120t-111 -42zM417 -20q-86 0 -146 26.5t-95 70t-46.5 98.5t-1.5 113l73 412h64l-73 -418
q-9 -50 2 -94t40 -77t76 -52t110 -19q49 0 90.5 14.5t73 40.5t52 63t28.5 82l82 460h65l-82 -466q-10 -57 -36.5 -104t-66.5 -80.5t-93 -51.5t-116 -18z" />
    <glyph glyph-name="W_E" unicode="&#xe01d;" horiz-adv-x="1260" 
d="M160 700h67l22 -640h35l253 640h124l27 -640h34l248 640h365l-11 -60h-307l-100 -255h287l-10 -60h-302l-107 -265h437l-10 -60h-586l-23 640h-30l-247 -640h-134z" />
    <glyph glyph-name="ampersand.alt" unicode="&#xe020;" horiz-adv-x="700" 
d="M341 -20q-63 0 -112 17t-82.5 45t-50.5 64t-17 74q0 31 7.5 56t20.5 44.5t29.5 34t33.5 25.5q40 25 92 35q-29 13 -52 34q-20 18 -35.5 45.5t-15.5 66.5q0 40 17.5 76t49.5 63.5t77 43.5t99 16q44 0 78.5 -8t61 -21t45.5 -30t32 -34q31 -40 40 -92h-65q-8 35 -33 62
q-21 23 -60.5 43t-105.5 20q-40 0 -71.5 -10.5t-53.5 -29t-33.5 -43t-11.5 -51.5q0 -25 11 -49t31.5 -43.5t49.5 -31.5t65 -12h34l-11 -60h-78q-44 0 -78 -12.5t-57.5 -33.5t-35.5 -47.5t-12 -54.5q0 -27 12.5 -52.5t38 -45.5t63.5 -32t89 -12q85 0 139 46.5t69 131.5
l20 112h-85l11 60h255l-11 -60h-105l-21 -118q-9 -52 -33.5 -95t-60.5 -73.5t-82.5 -47t-101.5 -16.5z" />
    <glyph glyph-name="I.alt" unicode="&#xe021;" horiz-adv-x="485" 
d="M61 60h160l102 580h-160l10 60h385l-10 -60h-160l-102 -580h160l-11 -60h-385z" />
    <glyph glyph-name="a.alt" unicode="&#xe022;" horiz-adv-x="560" 
d="M260 -10q-78 0 -126.5 36.5t-48.5 102.5q0 34 13 63.5t37 51t58.5 34t78.5 12.5h210l4 21q11 63 -21.5 103.5t-106.5 40.5q-45 0 -75 -16.5t-49 -36.5q-22 -23 -36 -52h-61q17 45 48 80q26 30 68.5 55t106.5 25q53 0 91.5 -15.5t61.5 -43t31 -64.5t1 -80l-53 -307h-61
l14 78q-20 -25 -47 -44q-23 -17 -58 -30.5t-80 -13.5zM272 45q38 0 72.5 14t61.5 39t44.5 60t22.5 77h-205q-61 0 -92 -29t-31 -74q0 -40 33 -63.5t94 -23.5z" />
    <glyph glyph-name="f.alt" unicode="&#xe023;" horiz-adv-x="305" 
d="M168 445h-70l10 55h70l11 63q26 137 148 137h101l-9 -55h-93q-72 0 -88 -88l-10 -57h135l-10 -55h-135l-78 -445h-60z" />
    <glyph glyph-name="g.alt" unicode="&#xe024;" horiz-adv-x="555" 
d="M281 -200q-71 0 -121 14t-81.5 36t-46 48t-14.5 50q0 28 14 49.5t34.5 37t44 25.5t43.5 15l20 112q-18 13 -31 31q-12 16 -21.5 39t-9.5 55q0 42 16.5 78t46.5 62.5t71 42t89 15.5q19 0 33 -1.5t24 -3.5q11 -3 19 -5h233l-10 -55h-143q14 -12 25 -29q10 -14 18 -35t8 -47
q0 -40 -17 -75.5t-47 -61.5t-70.5 -41.5t-88.5 -15.5q-23 0 -40 2.5t-30 5.5q-15 4 -26 9l-13 -74h8q4 0 9 0.5t12 0.5q71 0 121 -14t82 -35.5t47 -48t15 -50.5t-13.5 -48.5t-41.5 -44t-69.5 -31.5t-98.5 -12zM288 -145q42 0 71.5 8t48.5 19.5t27.5 25.5t8.5 26
q0 14 -11 30.5t-35.5 31t-65 24t-98.5 9.5q-42 0 -71.5 -8t-48.5 -19.5t-27.5 -25.5t-8.5 -26q0 -14 11 -30.5t35.5 -31t64.5 -24t99 -9.5zM322 195q35 0 64.5 11t50.5 30t33 44t12 53q0 24 -10 46.5t-29 39t-47 26.5t-64 10q-35 0 -64.5 -11t-50.5 -30t-33 -44t-12 -53
q0 -24 10 -46.5t29 -39t47 -26.5t64 -10z" />
    <glyph glyph-name="j.alt" unicode="&#xe025;" horiz-adv-x="220" 
d="M-88 -135h69q75 0 91 95l96 540h60l-96 -540q-13 -75 -49 -112.5t-103 -37.5h-78zM221 605q-19 0 -30 12.5t-11 29.5q0 20 14.5 34t34.5 14q19 0 30 -12.5t11 -29.5q0 -20 -14.5 -34t-34.5 -14z" />
    <glyph glyph-name="l.alt" unicode="&#xe026;" horiz-adv-x="220" 
d="M203 700h60l-123 -700h-60z" />
    <glyph glyph-name="t.alt" unicode="&#xe027;" horiz-adv-x="355" 
d="M255 0q-75 0 -111 40t-23 112l52 293h-70l10 55h70l19 110h60l-19 -110h165l-10 -55h-165l-51 -290q-9 -54 12 -77t66 -23h74l-9 -55h-70v0z" />
    <glyph glyph-name="y.alt" unicode="&#xe028;" horiz-adv-x="505" 
d="M46 -135h94q38 0 61.5 18t43.5 58l29 59h-125l-47 500h66l37 -445h94l208 445h65l-269 -565q-29 -62 -69.5 -93.5t-102.5 -31.5h-95z" />
    <glyph glyph-name="Igrave.alt" unicode="&#xe029;" horiz-adv-x="485" 
d="M61 60h160l102 580h-160l10 60h385l-10 -60h-160l-102 -580h160l-11 -60h-385zM265 935h75l64 -145h-50z" />
    <glyph glyph-name="Iacute.alt" unicode="&#xe02a;" horiz-adv-x="485" 
d="M61 60h160l102 580h-160l10 60h385l-10 -60h-160l-102 -580h160l-11 -60h-385zM471 935h75l-141 -145h-50z" />
    <glyph glyph-name="Icircumflex.alt" unicode="&#xe02b;" horiz-adv-x="485" 
d="M61 60h160l102 580h-160l10 60h385l-10 -60h-160l-102 -580h160l-11 -60h-385zM376 935h65l84 -145h-58l-57 100h-15l-93 -100h-62z" />
    <glyph glyph-name="Idieresis.alt" unicode="&#xe02c;" horiz-adv-x="485" 
d="M61 60h160l102 580h-160l10 60h385l-10 -60h-160l-102 -580h160l-11 -60h-385zM301 815q-19 0 -30 12.5t-11 29.5q0 20 14.5 34t34.5 14q19 0 30 -12.5t11 -29.5q0 -20 -14.5 -34t-34.5 -14zM471 815q-19 0 -30 12.5t-11 29.5q0 20 14.5 34t34.5 14q19 0 30 -12.5
t11 -29.5q0 -20 -14.5 -34t-34.5 -14z" />
    <glyph glyph-name="agrave.alt" unicode="&#xe02d;" horiz-adv-x="560" 
d="M260 -10q-78 0 -126.5 36.5t-48.5 102.5q0 34 13 63.5t37 51t58.5 34t78.5 12.5h210l4 21q11 63 -21.5 103.5t-106.5 40.5q-45 0 -75 -16.5t-49 -36.5q-22 -23 -36 -52h-61q17 45 48 80q26 30 68.5 55t106.5 25q53 0 91.5 -15.5t61.5 -43t31 -64.5t1 -80l-53 -307h-61
l14 78q-20 -25 -47 -44q-23 -17 -58 -30.5t-80 -13.5zM272 45q38 0 72.5 14t61.5 39t44.5 60t22.5 77h-205q-61 0 -92 -29t-31 -74q0 -40 33 -63.5t94 -23.5zM285 755h75l64 -145h-50z" />
    <glyph glyph-name="aacute.alt" unicode="&#xe02e;" horiz-adv-x="560" 
d="M260 -10q-78 0 -126.5 36.5t-48.5 102.5q0 34 13 63.5t37 51t58.5 34t78.5 12.5h210l4 21q11 63 -21.5 103.5t-106.5 40.5q-45 0 -75 -16.5t-49 -36.5q-22 -23 -36 -52h-61q17 45 48 80q26 30 68.5 55t106.5 25q53 0 91.5 -15.5t61.5 -43t31 -64.5t1 -80l-53 -307h-61
l14 78q-20 -25 -47 -44q-23 -17 -58 -30.5t-80 -13.5zM272 45q38 0 72.5 14t61.5 39t44.5 60t22.5 77h-205q-61 0 -92 -29t-31 -74q0 -40 33 -63.5t94 -23.5zM486 755h75l-141 -145h-50z" />
    <glyph glyph-name="acircumflex.alt" unicode="&#xe02f;" horiz-adv-x="560" 
d="M260 -10q-78 0 -126.5 36.5t-48.5 102.5q0 34 13 63.5t37 51t58.5 34t78.5 12.5h210l4 21q11 63 -21.5 103.5t-106.5 40.5q-45 0 -75 -16.5t-49 -36.5q-22 -23 -36 -52h-61q17 45 48 80q26 30 68.5 55t106.5 25q53 0 91.5 -15.5t61.5 -43t31 -64.5t1 -80l-53 -307h-61
l14 78q-20 -25 -47 -44q-23 -17 -58 -30.5t-80 -13.5zM272 45q38 0 72.5 14t61.5 39t44.5 60t22.5 77h-205q-61 0 -92 -29t-31 -74q0 -40 33 -63.5t94 -23.5zM391 755h65l84 -145h-58l-57 100h-15l-93 -100h-62z" />
    <glyph glyph-name="atilde.alt" unicode="&#xe030;" horiz-adv-x="560" 
d="M260 -10q-78 0 -126.5 36.5t-48.5 102.5q0 34 13 63.5t37 51t58.5 34t78.5 12.5h210l4 21q11 63 -21.5 103.5t-106.5 40.5q-45 0 -75 -16.5t-49 -36.5q-22 -23 -36 -52h-61q17 45 48 80q26 30 68.5 55t106.5 25q53 0 91.5 -15.5t61.5 -43t31 -64.5t1 -80l-53 -307h-61
l14 78q-20 -25 -47 -44q-23 -17 -58 -30.5t-80 -13.5zM272 45q38 0 72.5 14t61.5 39t44.5 60t22.5 77h-205q-61 0 -92 -29t-31 -74q0 -40 33 -63.5t94 -23.5zM464 625q-24 0 -40 10t-28.5 22.5t-23.5 22.5t-26 10t-27.5 -10t-14.5 -25l-4 -25h-50l5 26q7 37 34 60.5t65 23.5
q24 0 40 -10t28.5 -22.5t24 -22.5t26.5 -10t27 10t14 25l4 25h51l-5 -26q-7 -37 -34.5 -60.5t-65.5 -23.5z" />
    <glyph glyph-name="adieresis.alt" unicode="&#xe031;" horiz-adv-x="560" 
d="M260 -10q-78 0 -126.5 36.5t-48.5 102.5q0 34 13 63.5t37 51t58.5 34t78.5 12.5h210l4 21q11 63 -21.5 103.5t-106.5 40.5q-45 0 -75 -16.5t-49 -36.5q-22 -23 -36 -52h-61q17 45 48 80q26 30 68.5 55t106.5 25q53 0 91.5 -15.5t61.5 -43t31 -64.5t1 -80l-53 -307h-61
l14 78q-20 -25 -47 -44q-23 -17 -58 -30.5t-80 -13.5zM272 45q38 0 72.5 14t61.5 39t44.5 60t22.5 77h-205q-61 0 -92 -29t-31 -74q0 -40 33 -63.5t94 -23.5zM321 635q-19 0 -30 12.5t-11 29.5q0 20 14.5 34t34.5 14q19 0 30 -12.5t11 -29.5q0 -20 -14.5 -34t-34.5 -14z
M491 635q-19 0 -30 12.5t-11 29.5q0 20 14.5 34t34.5 14q19 0 30 -12.5t11 -29.5q0 -20 -14.5 -34t-34.5 -14z" />
    <glyph glyph-name="aring.alt" unicode="&#xe032;" horiz-adv-x="560" 
d="M260 -10q-78 0 -126.5 36.5t-48.5 102.5q0 34 13 63.5t37 51t58.5 34t78.5 12.5h210l4 21q11 63 -21.5 103.5t-106.5 40.5q-45 0 -75 -16.5t-49 -36.5q-22 -23 -36 -52h-61q17 45 48 80q26 30 68.5 55t106.5 25q53 0 91.5 -15.5t61.5 -43t31 -64.5t1 -80l-53 -307h-61
l14 78q-20 -25 -47 -44q-23 -17 -58 -30.5t-80 -13.5zM272 45q38 0 72.5 14t61.5 39t44.5 60t22.5 77h-205q-61 0 -92 -29t-31 -74q0 -40 33 -63.5t94 -23.5zM402 580q-39 0 -65.5 26.5t-26.5 63.5q0 22 9 42t24 35t35 24t41 9q39 0 65.5 -26.5t26.5 -63.5q0 -23 -9 -43
t-24 -35t-35 -23.5t-41 -8.5zM406 625q23 0 41.5 18t18.5 42q0 21 -14.5 35.5t-36.5 14.5q-23 0 -41.5 -18t-18.5 -42q0 -21 14.5 -35.5t36.5 -14.5z" />
    <glyph glyph-name="yacute.alt" unicode="&#xe033;" horiz-adv-x="505" 
d="M46 -135h94q38 0 61.5 18t43.5 58l29 59h-125l-47 500h66l37 -445h94l208 445h65l-269 -565q-29 -62 -69.5 -93.5t-102.5 -31.5h-95zM441 755h75l-141 -145h-50z" />
    <glyph glyph-name="ydieresis.alt" unicode="&#xe034;" horiz-adv-x="505" 
d="M46 -135h94q38 0 61.5 18t43.5 58l29 59h-125l-47 500h66l37 -445h94l208 445h65l-269 -565q-29 -62 -69.5 -93.5t-102.5 -31.5h-95zM271 635q-19 0 -30 12.5t-11 29.5q0 20 14.5 34t34.5 14q19 0 30 -12.5t11 -29.5q0 -20 -14.5 -34t-34.5 -14zM441 635q-19 0 -30 12.5
t-11 29.5q0 20 14.5 34t34.5 14q19 0 30 -12.5t11 -29.5q0 -20 -14.5 -34t-34.5 -14z" />
    <glyph glyph-name="amacron.alt" unicode="&#xe035;" horiz-adv-x="560" 
d="M260 -10q-78 0 -126.5 36.5t-48.5 102.5q0 34 13 63.5t37 51t58.5 34t78.5 12.5h210l4 21q11 63 -21.5 103.5t-106.5 40.5q-45 0 -75 -16.5t-49 -36.5q-22 -23 -36 -52h-61q17 45 48 80q26 30 68.5 55t106.5 25q53 0 91.5 -15.5t61.5 -43t31 -64.5t1 -80l-53 -307h-61
l14 78q-20 -25 -47 -44q-23 -17 -58 -30.5t-80 -13.5zM272 45q38 0 72.5 14t61.5 39t44.5 60t22.5 77h-205q-61 0 -92 -29t-31 -74q0 -40 33 -63.5t94 -23.5zM285 710h255l-10 -55h-255z" />
    <glyph glyph-name="abreve.alt" unicode="&#xe036;" horiz-adv-x="560" 
d="M260 -10q-78 0 -126.5 36.5t-48.5 102.5q0 34 13 63.5t37 51t58.5 34t78.5 12.5h210l4 21q11 63 -21.5 103.5t-106.5 40.5q-45 0 -75 -16.5t-49 -36.5q-22 -23 -36 -52h-61q17 45 48 80q26 30 68.5 55t106.5 25q53 0 91.5 -15.5t61.5 -43t31 -64.5t1 -80l-53 -307h-61
l14 78q-20 -25 -47 -44q-23 -17 -58 -30.5t-80 -13.5zM272 45q38 0 72.5 14t61.5 39t44.5 60t22.5 77h-205q-61 0 -92 -29t-31 -74q0 -40 33 -63.5t94 -23.5zM403 620q-29 0 -52.5 9t-40 24t-26 35.5t-9.5 43.5v8h55v-5q0 -26 20 -45.5t58 -19.5q33 0 55.5 19t26.5 51h56
q-3 -26 -15.5 -48t-31.5 -38t-44 -25t-52 -9z" />
    <glyph glyph-name="aogonek.alt" unicode="&#xe037;" horiz-adv-x="560" 
d="M392 -225q-42 0 -69.5 21.5t-27.5 62.5q0 28 13.5 50t33.5 39.5t44 31t45 22.5l14 76q-20 -25 -47 -44q-23 -17 -58 -30.5t-80 -13.5q-78 0 -126.5 36.5t-48.5 102.5q0 34 13 63.5t37 51t58.5 34t78.5 12.5h210l4 21q11 63 -21.5 103.5t-106.5 40.5q-45 0 -75 -16.5
t-49 -36.5q-22 -23 -36 -52h-61q17 45 48 80q26 30 68.5 55t106.5 25q53 0 91.5 -15.5t61.5 -43t31 -64.5t1 -80l-53 -307q-26 -13 -52.5 -26.5t-47.5 -29.5t-34 -34.5t-13 -42.5q0 -20 14.5 -31t40.5 -11q11 0 22.5 1t19.5 3q10 2 18 5l-8 -45q-7 -4 -17 -7q-19 -7 -43 -7z
M272 45q38 0 72.5 14t61.5 39t44.5 60t22.5 77h-205q-61 0 -92 -29t-31 -74q0 -40 33 -63.5t94 -23.5z" />
    <glyph glyph-name="gcircumflex.alt" unicode="&#xe038;" horiz-adv-x="555" 
d="M281 -200q-71 0 -121 14t-81.5 36t-46 48t-14.5 50q0 28 14 49.5t34.5 37t44 25.5t43.5 15l20 112q-18 13 -31 31q-12 16 -21.5 39t-9.5 55q0 42 16.5 78t46.5 62.5t71 42t89 15.5q19 0 33 -1.5t24 -3.5q11 -3 19 -5h233l-10 -55h-143q14 -12 25 -29q10 -14 18 -35t8 -47
q0 -40 -17 -75.5t-47 -61.5t-70.5 -41.5t-88.5 -15.5q-23 0 -40 2.5t-30 5.5q-15 4 -26 9l-13 -74h8q4 0 9 0.5t12 0.5q71 0 121 -14t82 -35.5t47 -48t15 -50.5t-13.5 -48.5t-41.5 -44t-69.5 -31.5t-98.5 -12zM288 -145q42 0 71.5 8t48.5 19.5t27.5 25.5t8.5 26
q0 14 -11 30.5t-35.5 31t-65 24t-98.5 9.5q-42 0 -71.5 -8t-48.5 -19.5t-27.5 -25.5t-8.5 -26q0 -14 11 -30.5t35.5 -31t64.5 -24t99 -9.5zM322 195q35 0 64.5 11t50.5 30t33 44t12 53q0 24 -10 46.5t-29 39t-47 26.5t-64 10q-35 0 -64.5 -11t-50.5 -30t-33 -44t-12 -53
q0 -24 10 -46.5t29 -39t47 -26.5t64 -10zM371 755h65l84 -145h-58l-57 100h-15l-93 -100h-62z" />
    <glyph glyph-name="gbreve.alt" unicode="&#xe039;" horiz-adv-x="555" 
d="M281 -200q-71 0 -121 14t-81.5 36t-46 48t-14.5 50q0 28 14 49.5t34.5 37t44 25.5t43.5 15l20 112q-18 13 -31 31q-12 16 -21.5 39t-9.5 55q0 42 16.5 78t46.5 62.5t71 42t89 15.5q19 0 33 -1.5t24 -3.5q11 -3 19 -5h233l-10 -55h-143q14 -12 25 -29q10 -14 18 -35t8 -47
q0 -40 -17 -75.5t-47 -61.5t-70.5 -41.5t-88.5 -15.5q-23 0 -40 2.5t-30 5.5q-15 4 -26 9l-13 -74h8q4 0 9 0.5t12 0.5q71 0 121 -14t82 -35.5t47 -48t15 -50.5t-13.5 -48.5t-41.5 -44t-69.5 -31.5t-98.5 -12zM288 -145q42 0 71.5 8t48.5 19.5t27.5 25.5t8.5 26
q0 14 -11 30.5t-35.5 31t-65 24t-98.5 9.5q-42 0 -71.5 -8t-48.5 -19.5t-27.5 -25.5t-8.5 -26q0 -14 11 -30.5t35.5 -31t64.5 -24t99 -9.5zM322 195q35 0 64.5 11t50.5 30t33 44t12 53q0 24 -10 46.5t-29 39t-47 26.5t-64 10q-35 0 -64.5 -11t-50.5 -30t-33 -44t-12 -53
q0 -24 10 -46.5t29 -39t47 -26.5t64 -10zM383 620q-29 0 -52.5 9t-40 24t-26 35.5t-9.5 43.5v8h55v-5q0 -26 20 -45.5t58 -19.5q33 0 55.5 19t26.5 51h56q-3 -26 -15.5 -48t-31.5 -38t-44 -25t-52 -9z" />
    <glyph glyph-name="gdotaccent.alt" unicode="&#xe03a;" horiz-adv-x="555" 
d="M281 -200q-71 0 -121 14t-81.5 36t-46 48t-14.5 50q0 28 14 49.5t34.5 37t44 25.5t43.5 15l20 112q-18 13 -31 31q-12 16 -21.5 39t-9.5 55q0 42 16.5 78t46.5 62.5t71 42t89 15.5q19 0 33 -1.5t24 -3.5q11 -3 19 -5h233l-10 -55h-143q14 -12 25 -29q10 -14 18 -35t8 -47
q0 -40 -17 -75.5t-47 -61.5t-70.5 -41.5t-88.5 -15.5q-23 0 -40 2.5t-30 5.5q-15 4 -26 9l-13 -74h8q4 0 9 0.5t12 0.5q71 0 121 -14t82 -35.5t47 -48t15 -50.5t-13.5 -48.5t-41.5 -44t-69.5 -31.5t-98.5 -12zM288 -145q42 0 71.5 8t48.5 19.5t27.5 25.5t8.5 26
q0 14 -11 30.5t-35.5 31t-65 24t-98.5 9.5q-42 0 -71.5 -8t-48.5 -19.5t-27.5 -25.5t-8.5 -26q0 -14 11 -30.5t35.5 -31t64.5 -24t99 -9.5zM322 195q35 0 64.5 11t50.5 30t33 44t12 53q0 24 -10 46.5t-29 39t-47 26.5t-64 10q-35 0 -64.5 -11t-50.5 -30t-33 -44t-12 -53
q0 -24 10 -46.5t29 -39t47 -26.5t64 -10zM386 635q-19 0 -30 12.5t-11 29.5q0 20 14.5 34t34.5 14q19 0 30 -12.5t11 -29.5q0 -20 -14.5 -34t-34.5 -14z" />
    <glyph glyph-name="gcommaaccent.alt" unicode="&#xe03b;" horiz-adv-x="555" 
d="M372 590q-20 0 -33.5 15t-13.5 43q0 27 9.5 48.5t25 37.5t36 25t42.5 11l-5 -30q-27 -3 -45.5 -19t-18.5 -42q0 -7 1 -9q0 -2 1 -3q1 0 4 1q4 2 10 2q15 0 25.5 -10t10.5 -25q0 -17 -14 -31t-35 -14zM281 -200q-71 0 -121 14t-81.5 36t-46 48t-14.5 50q0 28 14 49.5
t34.5 37t44 25.5t43.5 15l20 112q-18 13 -31 31q-12 16 -21.5 39t-9.5 55q0 42 16.5 78t46.5 62.5t71 42t89 15.5q19 0 33 -1.5t24 -3.5q11 -3 19 -5h233l-10 -55h-143q14 -12 25 -29q10 -14 18 -35t8 -47q0 -40 -17 -75.5t-47 -61.5t-70.5 -41.5t-88.5 -15.5q-23 0 -40 2.5
t-30 5.5q-15 4 -26 9l-13 -74h8q4 0 9 0.5t12 0.5q71 0 121 -14t82 -35.5t47 -48t15 -50.5t-13.5 -48.5t-41.5 -44t-69.5 -31.5t-98.5 -12zM288 -145q42 0 71.5 8t48.5 19.5t27.5 25.5t8.5 26q0 14 -11 30.5t-35.5 31t-65 24t-98.5 9.5q-42 0 -71.5 -8t-48.5 -19.5
t-27.5 -25.5t-8.5 -26q0 -14 11 -30.5t35.5 -31t64.5 -24t99 -9.5zM322 195q35 0 64.5 11t50.5 30t33 44t12 53q0 24 -10 46.5t-29 39t-47 26.5t-64 10q-35 0 -64.5 -11t-50.5 -30t-33 -44t-12 -53q0 -24 10 -46.5t29 -39t47 -26.5t64 -10z" />
    <glyph glyph-name="Imacron.alt" unicode="&#xe03c;" horiz-adv-x="485" 
d="M61 60h160l102 580h-160l10 60h385l-10 -60h-160l-102 -580h160l-11 -60h-385zM265 890h255l-10 -55h-255z" />
    <glyph glyph-name="Ibreve.alt" unicode="&#xe03d;" horiz-adv-x="485" 
d="M61 60h160l102 580h-160l10 60h385l-10 -60h-160l-102 -580h160l-11 -60h-385zM383 800q-29 0 -52.5 9t-40 24t-26 35.5t-9.5 43.5v8h55v-5q0 -26 20 -45.5t58 -19.5q33 0 55.5 19t26.5 51h56q-3 -26 -15.5 -48t-31.5 -38t-44 -25t-52 -9z" />
    <glyph glyph-name="Iogonek.alt" unicode="&#xe03e;" horiz-adv-x="485" 
d="M335 -225q-42 0 -69.5 21.5t-27.5 62.5q0 27 12.5 48.5t32 39t42.5 30.5t44 23h-319l11 60h160l102 580h-160l10 60h385l-10 -60h-160l-102 -580h160l-11 -60q-26 -13 -52.5 -26.5t-47.5 -29.5t-34 -34.5t-13 -42.5q0 -20 14.5 -31t40.5 -11q11 0 22.5 1t19.5 3
q10 2 18 5l-8 -45q-7 -4 -17 -7q-19 -7 -43 -7z" />
    <glyph glyph-name="Idotaccent.alt" unicode="&#xe03f;" horiz-adv-x="485" 
d="M61 60h160l102 580h-160l10 60h385l-10 -60h-160l-102 -580h160l-11 -60h-385zM386 815q-19 0 -30 12.5t-11 29.5q0 20 14.5 34t34.5 14q19 0 30 -12.5t11 -29.5q0 -20 -14.5 -34t-34.5 -14z" />
    <glyph glyph-name="uni0133.alt" unicode="&#xe040;" horiz-adv-x="440" 
d="M168 500h60l-88 -500h-60zM132 -135h145l111 635h60l-121 -690h-205zM221 605q-19 0 -30 12.5t-11 29.5q0 20 14.5 34t34.5 14q19 0 30 -12.5t11 -29.5q0 -20 -14.5 -34t-34.5 -14zM442 605q-19 0 -30 12.5t-11 29.5q0 20 14.5 34t34.5 14q19 0 30 -12.5t11 -29.5
q0 -20 -14.5 -34t-34.5 -14z" />
    <glyph glyph-name="jcircumflex.alt" unicode="&#xe041;" horiz-adv-x="220" 
d="M-88 -135h69q73 0 91 95l96 540h60l-96 -540q-14 -75 -49.5 -112.5t-102.5 -37.5h-78zM201 739h65l84 -145h-58l-57 100h-15l-93 -100h-62z" />
    <glyph glyph-name="lacute.alt" unicode="&#xe042;" horiz-adv-x="220" 
d="M203 700h60l-123 -700h-60zM341 935h75l-141 -145h-50z" />
    <glyph glyph-name="lcommaaccent.alt" unicode="&#xe043;" horiz-adv-x="220" 
d="M203 700h60l-123 -700h-60zM30 -250q27 3 45.5 19t18.5 42q0 3 -0.5 5t-0.5 4q-1 2 -1 3l-4 -2q-3 -1 -10 -1q-15 0 -25.5 10t-10.5 25q0 17 14 31t35 14q20 0 33.5 -15t13.5 -43q0 -27 -9.5 -48.5t-25.5 -37.5t-36 -25t-42 -11z" />
    <glyph glyph-name="lcaron.alt" unicode="&#xe044;" horiz-adv-x="270" 
d="M203 700h60l-123 -700h-60zM297 550q27 3 45.5 19t18.5 42q0 3 -0.5 5t-0.5 4q-1 2 -1 3l-4 -2q-3 -1 -10 -1q-15 0 -25.5 10t-10.5 25q0 17 14 31t35 14q20 0 33.5 -15t13.5 -43q0 -27 -9.5 -48.5t-25.5 -37.5t-36 -25t-42 -11z" />
    <glyph glyph-name="ldot.alt" unicode="&#xe045;" horiz-adv-x="360" 
d="M203 700h60l-123 -700h-60zM351 320q-19 0 -30 12.5t-11 29.5q0 20 14.5 34t34.5 14q19 0 30 -12.5t11 -29.5q0 -20 -14.5 -34t-34.5 -14z" />
    </font>
</defs>
</svg>
