<?xml version="1.0" encoding="utf-8"?>
<!-- Generator: Adobe Illustrator 25.4.1, SVG Export Plug-In . SVG Version: 6.00 Build 0)  -->
<svg version="1.1" id="Layer_1" xmlns="http://www.w3.org/2000/svg" xmlns:xlink="http://www.w3.org/1999/xlink" x="0px" y="0px"
	 viewBox="0 0 45 45" style="enable-background:new 0 0 45 45;" xml:space="preserve">
<style type="text/css">
	.st0{fill:#FBF7EB;}
	.st1{fill:none;}
</style>
<rect x="0.1" y="0" class="st0" width="45" height="45.1"/>
<rect x="0.2" y="0.1" class="st1" width="44.8" height="44.8"/>
<g>
	<path d="M22.4,39.3c-2.4-0.1-4.3-1.2-5.4-3.5c-1.1-2.3-0.8-4.6,0.9-6.6c4.3-5.3,4.3-8.3,0-13.4c-2.1-2.5-1.9-6.2,0.4-8.4
		c2.3-2.2,6.2-2.2,8.5,0c2.3,2.2,2.5,6,0.4,8.5c-4.3,5-4.3,8.4,0,13.4c1.7,2,2,4.3,0.9,6.6C27.1,38.1,25.1,39.3,22.4,39.3z"/>
	<path d="M18,22.6c0,3.5-2.9,6.2-6.3,6.1c-3.3-0.1-6-2.9-6-6.2c0-3.4,2.9-6.1,6.3-6.1C15.5,16.5,18.1,19.2,18,22.6z"/>
	<path d="M33.3,16.4c3.4,0,6,2.7,6,6.1c0,3.4-2.8,6.3-6.2,6.2c-3.3-0.1-6.1-2.8-6.1-6.1C27.1,19.2,29.9,16.4,33.3,16.4z"/>
</g>
</svg>
