<?xml version="1.0" encoding="utf-8"?>
<!-- Generator: Adobe Illustrator 25.4.1, SVG Export Plug-In . SVG Version: 6.00 Build 0)  -->
<svg version="1.1" id="Layer_1" xmlns="http://www.w3.org/2000/svg" xmlns:xlink="http://www.w3.org/1999/xlink" x="0px" y="0px"
	 viewBox="0 0 45 45" style="enable-background:new 0 0 45 45;" xml:space="preserve">
<style type="text/css">
	.st0{fill:#F7817A;}
	.st1{fill:none;}
</style>
<rect x="0.1" y="-0.1" class="st0" width="45" height="45.1"/>
<rect x="0.3" y="0.2" class="st1" width="44.8" height="44.8"/>
<g>
	<path d="M27,11l-1.4,2.2c-0.4,0.6-0.3,1.5,0.3,1.9l8.4,6.1c0.6,0.4,1.4,0.3,1.8-0.3l1.4-2.2c0.4-0.6,0.3-1.5-0.3-1.9l-8.4-6.1
		C28.2,10.2,27.4,10.4,27,11z"/>
	<path d="M27,26.9l-1.4,2.2c-0.4,0.6-0.3,1.5,0.3,1.9l8.4,6.1c0.6,0.4,1.4,0.3,1.8-0.3l1.4-2.2c0.4-0.6,0.3-1.5-0.3-1.9l-8.4-6.1
		C28.2,26.1,27.4,26.3,27,26.9z"/>
	<path d="M10,11l-1.4,2.2c-0.4,0.6-0.3,1.5,0.3,1.9l8.4,6.1c0.6,0.4,1.4,0.3,1.8-0.3l1.4-2.2c0.4-0.6,0.3-1.5-0.3-1.9l-8.4-6.1
		C11.3,10.2,10.4,10.4,10,11z"/>
	<path d="M10,26.9l-1.4,2.2c-0.4,0.6-0.3,1.5,0.3,1.9l8.4,6.1c0.6,0.4,1.4,0.3,1.8-0.3l1.4-2.2c0.4-0.6,0.3-1.5-0.3-1.9l-8.4-6.1
		C11.3,26.1,10.4,26.3,10,26.9z"/>
</g>
</svg>
