<?xml version="1.0" encoding="utf-8"?>
<!-- Generator: Adobe Illustrator 25.4.1, SVG Export Plug-In . SVG Version: 6.00 Build 0)  -->
<svg version="1.1" id="Layer_1" xmlns="http://www.w3.org/2000/svg" xmlns:xlink="http://www.w3.org/1999/xlink" x="0px" y="0px"
	 viewBox="0 0 45 45" style="enable-background:new 0 0 45 45;" xml:space="preserve">
<style type="text/css">
	.st0{fill:#41C59D;}
	.st1{fill:none;}
</style>
<rect x="0.1" y="-0.1" class="st0" width="45" height="45.1"/>
<rect x="0.3" y="0.2" class="st1" width="44.8" height="44.8"/>
<g>
	<path d="M26.3,38.3v-9.9c0-0.5,0.2-1,0.5-1.3c0.4-0.4,0.8-0.5,1.3-0.5H38c0.5,0,1-0.2,1.3-0.5c0.4-0.4,0.5-0.8,0.5-1.3v-3.3
		c0-0.5-0.2-1-0.5-1.3c-0.4-0.4-0.8-0.5-1.3-0.5h-9.9c-0.5,0-1-0.2-1.3-0.5c-0.4-0.4-0.5-0.8-0.5-1.3V7.6c0-0.5-0.2-1-0.5-1.3
		c-0.4-0.4-0.8-0.5-1.3-0.5h-3.3c-0.5,0-1,0.2-1.3,0.5c-0.4,0.4-0.5,0.8-0.5,1.3v9.9c0,0.5-0.2,1-0.5,1.3c-0.4,0.4-0.8,0.5-1.3,0.5
		H7.5c-0.5,0-1,0.2-1.3,0.5c-0.4,0.4-0.5,0.8-0.5,1.3v3.3c0,0.5,0.2,1,0.5,1.3c0.4,0.4,0.8,0.5,1.3,0.5h9.9c0.5,0,1,0.2,1.3,0.5
		c0.4,0.4,0.5,0.8,0.5,1.3v9.9c0,0.5,0.2,1,0.5,1.3c0.4,0.4,0.8,0.5,1.3,0.5h3.3c0.5,0,1-0.2,1.3-0.5C26.1,39.2,26.3,38.7,26.3,38.3
		z M24.2,26.2h-2.8c-0.5,0-1-0.2-1.3-0.5c-0.4-0.4-0.5-0.8-0.5-1.3v-2.8c0-0.5,0.2-1,0.5-1.3c0.4-0.4,0.8-0.5,1.3-0.5h2.8
		c0.5,0,1,0.2,1.3,0.5c0.3,0.4,0.5,0.8,0.5,1.3v2.8c0,0.5-0.2,1-0.5,1.3S24.7,26.2,24.2,26.2z"/>
</g>
</svg>
