<svg width="11" height="7" viewBox="0 0 11 7" fill="none" xmlns="http://www.w3.org/2000/svg">
<path fill-rule="evenodd" clip-rule="evenodd" d="M1.28058 0.799246C1.46811 0.611775 1.72242 0.506459 1.98758 0.506459C2.25274 0.506459 2.50705 0.611775 2.69458 0.799246L5.98758 4.09225L9.28058 0.799246C9.37283 0.703736 9.48317 0.627553 9.60518 0.575144C9.72718 0.522735 9.8584 0.495149 9.99118 0.493995C10.124 0.492841 10.2556 0.518143 10.3785 0.568424C10.5014 0.618705 10.6131 0.692958 10.707 0.786851C10.8009 0.880743 10.8751 0.992395 10.9254 1.11529C10.9757 1.23819 11.001 1.36987 10.9998 1.50265C10.9987 1.63543 10.9711 1.76665 10.9187 1.88865C10.8663 2.01065 10.7901 2.121 10.6946 2.21325L6.69458 6.21325C6.50705 6.40072 6.25274 6.50603 5.98758 6.50603C5.72242 6.50603 5.46811 6.40072 5.28058 6.21325L1.28058 2.21325C1.09311 2.02572 0.987793 1.77141 0.987793 1.50625C0.987793 1.24108 1.09311 0.986774 1.28058 0.799246Z" fill="#640000"/>
</svg>
