<svg width="180" height="43" viewBox="0 0 180 43" fill="none" xmlns="http://www.w3.org/2000/svg">
<path d="M63.8971 16.5003C59.3889 16.5003 56.1529 19.7462 56.1529 24.2394C56.1529 28.7327 59.3989 31.9836 63.8971 31.9836C68.3954 31.9836 71.6113 28.7377 71.6113 24.2394C71.6113 19.7412 68.3954 16.5003 63.8971 16.5003ZM63.8971 29.454C61.0369 29.454 59.1034 27.3101 59.1034 24.2394C59.1034 21.1688 61.0369 19.0299 63.8971 19.0299C66.7574 19.0299 68.6609 21.1738 68.6609 24.2394C68.6609 27.3051 66.7273 29.454 63.8971 29.454ZM74.6919 15.278V16.7357H71.6263V19.2403H74.6919V31.7632H77.5822V19.2403H82.0905V16.7357H77.5822V15.3682C77.5822 13.8654 78.4739 12.9537 79.8464 12.9537H82.1105V10.4492H79.636C76.6305 10.4542 74.6919 12.3276 74.6919 15.278ZM42.8235 16.2798C42.8235 14.5216 44.3263 13.3895 46.8309 13.3895C49.3354 13.3895 51.0586 14.7921 51.269 16.936H54.2745C54.009 13.1241 51.0887 10.6545 46.8309 10.6545C42.573 10.6545 39.7128 12.9437 39.7128 16.2798C39.7128 23.9639 51.5345 20.9534 51.5345 25.9576C51.5345 28.2217 49.631 29.2336 47.0262 29.2336C44.0758 29.2336 42.3226 27.5054 42.0821 24.8255H39.0766C39.3171 29.1434 42.3276 31.9736 47.0312 31.9736C51.4994 31.9736 54.7153 29.7395 54.7153 25.9275C54.7053 17.988 42.8235 21.3541 42.8235 16.2899V16.2798ZM14.6769 17.0212C13.7462 16.3844 12.8759 15.6634 12.0771 14.8673C11.8754 14.6616 11.6942 14.4368 11.5361 14.196C11.3512 13.8673 11.2546 13.4962 11.2556 13.119C11.2556 12.5305 11.4894 11.9661 11.9056 11.5499C12.3217 11.1338 12.8862 10.9 13.4747 10.9H21.3541C21.5151 10.902 21.6748 10.8721 21.8242 10.8122C21.9736 10.7523 22.1096 10.6635 22.2246 10.5509C22.3395 10.4382 22.4311 10.304 22.4941 10.1559C22.557 10.0078 22.5901 9.84869 22.5914 9.68776V2.44448C22.5901 1.79657 22.3321 1.17558 21.874 0.717433C21.4158 0.259291 20.7948 0.00132362 20.1469 0H11.7065V7.29838V8.185C11.7065 8.89842 11.4231 9.58261 10.9186 10.0871C10.4141 10.5915 9.72994 10.8749 9.01653 10.8749H0V11.5061C0.0086849 13.6787 0.576217 15.8126 1.64802 17.7025C3.44632 20.9484 6.15629 22.9972 8.28519 24.6051C9.2169 25.3114 11.2306 26.9544 11.2907 26.9845C11.6462 27.2558 11.9427 27.5967 12.1623 27.9863C12.294 28.2252 12.379 28.487 12.4128 28.7577C12.4229 28.8827 12.4229 29.0084 12.4128 29.1334C12.4145 29.7803 12.1732 30.4043 11.7365 30.8816L11.7065 30.9117C11.6664 30.9517 11.6263 30.9968 11.5812 31.0369L11.5261 31.087L11.3959 31.1922L11.3358 31.2272L11.1855 31.3274H11.1504C10.7333 31.5844 10.2528 31.7197 9.7629 31.7181H0.816497V40.1586C0.815837 40.4798 0.878614 40.798 1.00123 41.0949C1.12384 41.3917 1.30387 41.6615 1.531 41.8886C1.75812 42.1157 2.02786 42.2958 2.32474 42.4184C2.62161 42.541 2.93978 42.6038 3.26098 42.6031H10.4842C10.8084 42.6031 11.1193 42.4743 11.3485 42.2451C11.5777 42.0159 11.7065 41.705 11.7065 41.3809V34.4481C11.7065 33.7347 11.9899 33.0505 12.4943 32.5461C12.9988 32.0416 13.683 31.7582 14.3964 31.7582H23.4129V30.3456C23.3879 21.9252 18.1833 19.5809 14.6769 17.0312V17.0212ZM126.762 16.4902C123.221 16.4902 120.541 18.6943 120.301 21.6397H122.98C123.071 20.1369 124.593 18.8095 126.677 18.8095C128.996 18.8095 130.309 20.0618 130.309 21.8801C130.309 22.4161 129.983 22.7717 129.307 22.7717H126.181C122.635 22.7717 120.341 24.56 120.341 27.4453C120.341 30.1252 122.344 31.9536 125.435 31.9536C127.699 31.9536 129.603 30.8816 130.319 29.2737V31.7282H133.209V22.0655C133.199 18.7343 130.634 16.5003 126.762 16.5003V16.4902ZM130.309 25.1561C130.309 27.9262 128.731 29.6644 125.991 29.6644C124.323 29.6644 123.191 28.7427 123.191 27.3752C123.191 25.7923 124.473 24.7804 126.437 24.7804H130.309V25.1561ZM162.227 29.5041C159.608 29.5041 157.764 27.5655 157.524 24.7353H168.99C169.02 24.4699 169.05 23.994 169.05 23.6083C169.05 19.7963 166.575 16.4902 161.932 16.4902C157.288 16.4902 154.694 19.9416 154.694 24.1443C154.694 28.347 157.584 31.9736 162.207 31.9736C165.899 31.9736 168.609 29.9699 169.145 26.8542H166.26C165.864 28.5574 164.431 29.5141 162.227 29.5141V29.5041ZM161.932 18.8095C164.401 18.8095 165.939 20.3122 166.13 22.6215H157.604C158.06 20.1319 159.578 18.8195 161.932 18.8195V18.8095ZM178.197 16.7257C176.083 16.7257 174.891 17.6223 174.189 19.616V16.7257H171.304V31.7532H174.189V24.9557C174.189 21.6797 175.086 19.2403 177.826 19.2403H180V16.7357L178.197 16.7257ZM149.519 12.022H146.634V16.7257H140.072V12.022H137.182V16.7257H134.116V19.2303H137.182V26.8242C137.182 29.8898 139.12 31.7332 142.156 31.7332H144.51V29.1234H142.376C140.913 29.1234 140.052 28.2318 140.052 26.6188V19.2403H146.634V26.8342C146.634 29.8998 148.567 31.7432 151.603 31.7432H153.957V29.1234H151.843C150.416 29.1234 149.519 28.2318 149.519 26.6188V19.2403H153.957V16.7357H149.519V12.022ZM89.2236 12.022H86.3383V16.7257H83.2677V19.2303H86.3383V26.8242C86.3383 29.8898 88.2718 31.7332 91.3124 31.7332H93.6617V29.1234H91.5478C90.0902 29.1234 89.2236 28.2318 89.2236 26.6188V19.2403H93.6617V16.7357H89.2236V12.022ZM113.062 16.4902C110.738 16.4902 108.774 17.8577 108.178 19.5558C107.582 17.5922 105.764 16.4902 103.324 16.4902C102.371 16.4439 101.428 16.7013 100.631 17.2252C99.8331 17.749 99.2223 18.5125 98.8863 19.4056V16.7257H95.991V31.7532H98.8763V23.0222C98.8763 20.6378 100.249 19.0149 102.538 19.0149C104.507 19.0149 105.699 20.6228 105.699 23.0222V31.7282H108.584V23.0222C108.584 20.6378 109.957 19.0149 112.246 19.0149C114.249 19.0149 115.437 20.6228 115.437 23.0222V31.7282H118.322V22.2107C118.332 18.7343 116.308 16.5003 113.062 16.5003V16.4902Z" fill="#08293B"/>
</svg>
