<?xml version="1.0" encoding="utf-8"?>
<!-- Generator: Adobe Illustrator 25.4.1, SVG Export Plug-In . SVG Version: 6.00 Build 0)  -->
<svg version="1.1" id="Layer_1" xmlns="http://www.w3.org/2000/svg" xmlns:xlink="http://www.w3.org/1999/xlink" x="0px" y="0px"
	 viewBox="0 0 107.7 104.6" style="enable-background:new 0 0 107.7 104.6;" xml:space="preserve">
<style type="text/css">
	.st0{fill-rule:evenodd;clip-rule:evenodd;fill:#4BBD98;}
</style>
<g>
	<path class="st0" d="M23,64c0.8,0,1.4-0.6,1.4-1.4v-9.7c0-0.8-0.6-1.4-1.4-1.4c-0.7,0-1.4,0.6-1.4,1.4v9.7C21.8,63.4,22.4,64,23,64
		z"/>
	<path class="st0" d="M23,45c0.8,0,1.4-0.6,1.4-1.4v-3.8l3.1-2.1c0.6-0.4,0.8-1.2,0.4-1.8s-1.1-0.8-1.8-0.4l-3.9,2.4
		c-0.3,0.2-0.6,0.6-0.6,1.2v4.7C21.8,44.4,22.4,45,23,45L23,45z"/>
	<path class="st0" d="M34.8,33.4c0.2,0,0.4,0,0.8-0.2l8-4.8c0.6-0.4,0.8-1.2,0.4-1.8c-0.4-0.6-1.2-0.8-1.8-0.4l-8,4.8
		c-0.6,0.4-0.8,1.2-0.4,1.8C33.8,33,34.5,33.4,34.8,33.4z"/>
	<path class="st0" d="M65.7,28.5l7.9,4.8c0.2,0.2,0.4,0.2,0.8,0.2s1-0.2,1.2-0.6c0.3-0.6,0.2-1.6-0.4-1.8l-7.9-4.8
		c-0.6-0.4-1.6-0.2-1.8,0.4C64.9,27,65,28,65.7,28.5L65.7,28.5z"/>
	<path class="st0" d="M81.4,37.9l3.1,2v3.7c0,0.8,0.6,1.4,1.4,1.4c0.8,0,1.4-0.6,1.4-1.4v-4.5c0-0.4-0.2-1-0.6-1.2l-3.9-2.3
		c-0.6-0.4-1.6-0.2-1.8,0.4C80.6,36.5,80.9,37.5,81.4,37.9L81.4,37.9z"/>
	<path class="st0" d="M86,51.5c-0.8,0-1.4,0.6-1.4,1.4v9.7c0,0.8,0.6,1.4,1.4,1.4c0.8,0,1.4-0.6,1.4-1.4v-9.7
		C87.3,52.1,86.7,51.5,86,51.5z"/>
	<path class="st0" d="M73.5,82.3l-8.2,4.8c-0.6,0.4-0.9,1.2-0.4,1.8c0.2,0.4,0.9,0.6,1.3,0.6c0.2,0,0.4,0,0.9-0.2l8.2-4.8
		c0.6-0.4,0.9-1.2,0.4-1.8C75.2,82.1,74.3,81.8,73.5,82.3L73.5,82.3z"/>
	<path class="st0" d="M57.7,92l-3.1,2.1L51.4,92c-0.6-0.4-1.6-0.2-1.8,0.4C49.3,93,49.4,94,50,94.2l3.9,2.5c0.2,0.2,0.3,0.2,0.8,0.2
		c0.2,0,0.3,0,0.8-0.2l3.9-2.5c0.6-0.4,0.8-1.2,0.4-1.8C59.2,91.8,58.5,91.6,57.7,92L57.7,92z"/>
	<path class="st0" d="M43.4,87l-8.2-4.8c-0.6-0.4-1.6-0.2-1.8,0.4c-0.4,0.6-0.2,1.6,0.4,1.8l8.2,4.8c0.2,0.2,0.4,0.2,0.9,0.2
		s1-0.2,1.3-0.6C44.5,88.5,44.3,87.4,43.4,87z"/>
	<path class="st0" d="M54.5,40.9c0.8,0,1.4-0.6,1.4-1.3v-1c0-0.8-0.6-1.3-1.4-1.3s-1.4,0.6-1.4,1.3v1C53.1,40.2,53.7,40.9,54.5,40.9
		z"/>
	<path class="st0" d="M54.5,49.2c0.8,0,1.4-0.6,1.4-1.5v-1.1c0-0.9-0.6-1.5-1.4-1.5s-1.4,0.6-1.4,1.5v1.1
		C53.1,48.3,53.7,49.2,54.5,49.2z"/>
	<path class="st0" d="M95.3,77c-1.4,0-2.8,0.6-3.8,1.4L87.1,76v-4c0-0.8-0.6-1.4-1.4-1.4c-0.8,0-1.4,0.6-1.4,1.4v2.4l-5-2.8l0,0
		V44.1c0-1-0.6-1.8-1.4-2.4L55.7,28.1l0,0v-5.8l1.8,1.2c0.2,0.2,0.4,0.2,0.8,0.2s1-0.2,1.2-0.6c0.4-0.6,0.2-1.6-0.4-1.8l-3.2-2V16
		c2.6-0.6,4.4-3,4.4-5.6c0-3.2-2.6-5.8-5.8-5.8c-3.2,0-5.8,2.6-5.8,5.8c0,2.8,1.8,5,4.4,5.6v2.8l-3.2,2c-0.6,0.4-0.8,1.2-0.4,1.8
		c0.4,0.6,1.2,0.8,1.8,0.4l1.8-1.2v6.2l0,0L30.5,41.6C29.7,42,29.2,43,29.2,44v8.4c0,0.8,0.6,1.4,1.4,1.4c0.8,0,1.4-0.6,1.4-1.4
		v-6.8L53,58.4v25.7L32.1,71.6l0,0c0-0.2-0.2-0.2-0.2-0.4V58.4c0-0.8-0.6-1.4-1.4-1.4c-0.8,0-1.4,0.6-1.4,1.4v13.1v0.2l-5,2.8v-2.6
		c0-0.8-0.6-1.4-1.4-1.4c-0.7,0-1.4,0.6-1.4,1.4v4l-4.2,2.4c-1-1-2.4-1.4-3.8-1.4c-3.2,0-5.8,2.6-5.8,5.8c0,3.2,2.6,5.8,5.8,5.8
		s5.8-2.6,5.8-5.8c0-0.8-0.2-1.4-0.4-2l4.2-2.4l3,1.8c0.2,0.2,0.4,0.2,0.8,0.2c0.3,0,1-0.2,1.2-0.6c0.4-0.6,0.2-1.6-0.4-1.8l-1.6-1
		l5-2.8l22.3,13.5c0.2,0,0.2,0.2,0.4,0.2c0.2,0.2,0.6,0.4,1,0.4c0.4,0,0.8-0.2,1-0.4c0.2,0,0.2-0.2,0.4-0.2l8.7-5.4
		c0.6-0.4,0.8-1.2,0.4-1.8c-0.4-0.6-1.2-0.8-1.8-0.4l-7.4,4.6V58.5L77,45.7v25.7l-8.6,5.2c-0.6,0.4-0.8,1.2-0.4,1.8
		c0.2,0.4,0.8,0.6,1.2,0.6c0.2,0,0.4,0,0.8-0.2l8.4-5l5,2.8l-1.8,1c-0.6,0.4-0.8,1.2-0.4,1.8c0.2,0.4,0.8,0.6,1.2,0.6
		c0.2,0,0.4,0,0.8-0.2l3-1.8l4.4,2.4c-0.2,0.6-0.4,1.4-0.4,2c0,3.2,2.6,5.8,5.8,5.8c3.2,0,5.8-2.6,5.8-5.8
		C101.7,79.4,98.5,77,95.3,77L95.3,77z M13.3,85.8c-1.6,0-3-1.4-3-3c0-1.6,1.4-3,3-3c1.6,0,3,1.4,3,3C16.5,84.5,15,85.8,13.3,85.8z
		 M51.3,10.5c0-1.6,1.4-3,3-3c1.6,0,3,1.4,3,3c0,1.6-1.4,3-3,3C52.7,13.6,51.3,12.4,51.3,10.5z M52.9,31.3v1.4
		c0,0.8,0.6,1.4,1.4,1.4c0.7,0,1.4-0.6,1.4-1.4v-1.4l19.7,12l-19.7,12v-1.6c0-0.8-0.6-1.4-1.4-1.4c-0.7,0-1.4,0.6-1.4,1.4v1.6
		L33,43.3L52.9,31.3z M95.3,85.8c-1.6,0-3-1.4-3-3c0-1.6,1.4-3,3-3s3,1.4,3,3C98.3,84.5,96.9,85.8,95.3,85.8z"/>
</g>
</svg>
