<?xml version="1.0" encoding="utf-8"?>
<!-- Generator: Adobe Illustrator 25.4.1, SVG Export Plug-In . SVG Version: 6.00 Build 0)  -->
<svg version="1.1" id="Layer_1" xmlns="http://www.w3.org/2000/svg" xmlns:xlink="http://www.w3.org/1999/xlink" x="0px" y="0px"
	 viewBox="0 0 107.7 104.6" style="enable-background:new 0 0 107.7 104.6;" xml:space="preserve">
<style type="text/css">
	.st0{fill:#4BBD98;}
</style>
<g transform="translate(-1788 -865)">
	<path class="st0" d="M1881.7,922.4c0.6-0.5,1.2-1.1,1.2-2s-0.5-1.5-1.2-2l-11.6-5.2v-5.6l11.6-5.2c0.6-0.5,1.2-1.1,1.2-2
		s-0.5-1.5-1.2-2l-11.6-5.2v-16.7c0-0.6-0.6-1.2-1.2-1.2s-1.2,0.6-1.2,1.2v15.7l-21.8-9.6c-0.5-0.2-1.1-0.2-1.7,0l-9.1,4.1
		c-0.6,0.2-0.9,1.1-0.6,1.7c0.2,0.6,1.1,0.9,1.7,0.6l9-3.8l22.7,10v3.2c0,0.6,0.6,1.2,1.2,1.2s1.2-0.6,1.2-1.2v-2.1l9.6,4.3l-19,8.4
		l-5.8-2.6c-0.6-0.2-1.2,0-1.7,0.6c-0.2,0.6,0,1.2,0.6,1.7l3.7,1.5l-12.6,5.6l-12.6-5.6l3.7-1.5c0.6-0.2,0.9-1.1,0.6-1.7
		c-0.2-0.6-1.1-0.9-1.7-0.6l-5.8,2.6l-19-8.4l9.7-4.3v2.3c0,0.6,0.6,1.2,1.2,1.2s1.2-0.6,1.2-1.2v-3.5l8.5-3.8
		c0.6-0.2,0.9-1.1,0.6-1.7c-0.2-0.6-1.1-0.9-1.7-0.6l-7.5,3.3v-14.9c0-0.6-0.6-1.2-1.2-1.2s-1.2,0.6-1.2,1.2v16.7l-11.7,5.2
		c-0.6,0.5-1.2,1.1-1.2,2s0.5,1.5,1.2,2l11.7,5.2v5.3l-11.7,5.2c-0.6,0.5-1.2,1.1-1.2,2s0.5,1.5,1.2,2l11.7,5.2v6.2l-11.7,5.2
		c-0.6,0.5-1.2,1.1-1.2,2s0.5,1.5,1.2,2l11.7,5.2v9.6l-2.6-2c-0.6-0.5-1.2-0.2-1.7,0.2c-0.5,0.6-0.2,1.2,0.2,1.7l4.4,3.2
		c0.2,0.2,0.5,0.2,0.6,0.2s0.5,0,0.6-0.2l4.4-3.2c0.6-0.5,0.6-1.2,0.2-1.7c-0.5-0.6-1.2-0.6-1.7-0.2l-2.1,2v-8.5l21.6,9.6
		c0.2,0.2,0.6,0.2,0.9,0.2c0.2,0,0.6,0,0.9-0.2l8.1-3.7c0.6-0.2,0.9-1.1,0.6-1.7c-0.2-0.6-1.1-0.9-1.7-0.6l-7.9,3.5l-34.9-15.4
		l9.7-4.3v3.7c0,0.6,0.6,1.2,1.2,1.2c0.6,0,1.2-0.6,1.2-1.2v-4.7l7.6-3.5l13.9,6.2c0.2,0.2,0.6,0.2,0.9,0.2c0.2,0,0.6,0,0.9-0.2
		l13.9-6.2l7.6,3.5v4.7c0,0.6,0.6,1.2,1.2,1.2c0.6,0,1.2-0.6,1.2-1.2v-3.3l9.6,4.3l-21.8,9.6c-0.6,0.2-0.9,1.1-0.6,1.7
		c0.2,0.5,0.6,0.6,1.1,0.6c0.2,0,0.5,0,0.5-0.2l8.5-3.8v8.5l-2.6-2c-0.6-0.5-1.2-0.2-1.7,0.2c-0.5,0.5-0.2,1.2,0.2,1.7l4.4,3.2
		c0.2,0.2,0.5,0.2,0.6,0.2s0.5,0,0.6-0.2l4.4-3.2c0.6-0.5,0.6-1.2,0.2-1.7c-0.5-0.6-1.2-0.6-1.7-0.2l-2.6,2v-9.6l11.6-5.2
		c0.6-0.5,1.2-1.1,1.2-2s-0.5-1.5-1.2-2l-11.6-5.2v-6.4L1881.7,922.4z M1867.7,909.2v3.2l-3.7-1.7L1867.7,909.2z M1822.7,909.5
		l3.3,1.5l-3.3,1.5V909.5z M1822.7,932.9v-4.1l4.4,2L1822.7,932.9z M1845.1,936.1l-11.7-5.2l2.6-1.1c0.6-0.2,0.9-1.1,0.6-1.7
		c-0.2-0.6-1.1-0.9-1.7-0.6l-4.7,2.1l-8.4-3.7l0,0l-11.6-5.2l9.7-4.3v4.3c0,0.6,0.6,1.2,1.2,1.2s1.2-0.6,1.2-1.2v-5.3l6.5-3
		l14.9,6.7c0.2,0.2,0.6,0.2,0.9,0.2c0.2,0,0.6,0,0.9-0.2l14.9-6.7l6.8,3v5.3c0,0.6,0.6,1.2,1.2,1.2c0.6,0,1.2-0.6,1.2-1.2v-4.3
		l9.6,4.3l-19.8,8.8l-4.7-2.1c-0.6-0.2-1.2,0-1.7,0.6c-0.2,0.6,0,1.2,0.6,1.7l2.6,1.1L1845.1,936.1z M1867.7,932.9l-4.7-2.1l4.7-2.1
		V932.9z"/>
	<path class="st0" d="M1841.9,906.5l3-1.2l3,1.2c0.2,0,0.5,0.2,0.5,0.2c0.5,0,0.9-0.2,1.1-0.6c0.2-0.6,0-1.2-0.6-1.5l-3.3-1.2
		c-0.5-0.2-1.1-0.2-1.8,0l-3.3,1.2c-0.6,0.2-0.9,0.9-0.6,1.5C1840.6,906.5,1841.3,906.6,1841.9,906.5L1841.9,906.5z"/>
	<path class="st0" d="M1849,924.4l-3.3-1.2c-0.5-0.2-1.1-0.2-1.8,0l-3.3,1.2c-0.6,0.2-0.9,1.1-0.6,1.7c0.2,0.6,1.1,0.9,1.8,0.6
		l3-1.2l3,1.2c0.2,0,0.5,0.2,0.5,0.2c0.5,0,0.9-0.2,1.1-0.6C1850.1,925.5,1849.6,924.9,1849,924.4z"/>
</g>
</svg>
