<?xml version="1.0" encoding="utf-8"?>
<!-- Generator: Adobe Illustrator 25.4.1, SVG Export Plug-In . SVG Version: 6.00 Build 0)  -->
<svg version="1.1" id="Layer_1" xmlns="http://www.w3.org/2000/svg" xmlns:xlink="http://www.w3.org/1999/xlink" x="0px" y="0px"
	 viewBox="0 0 107.7 104.6" style="enable-background:new 0 0 107.7 104.6;" xml:space="preserve">
<style type="text/css">
	.st0{fill-rule:evenodd;clip-rule:evenodd;fill:#FFFFFF;}
</style>
<path class="st0" d="M97.6,34.6h-5l-2.5-11.8c-0.2-0.7-0.7-1.1-1.4-1.1h-8l-10.9-5.5c-0.2-0.2-0.7-0.2-1.1,0l-6,2.3l-6.6-9.1
	c-0.3-0.3-0.5-0.5-0.9-0.5c-0.5,0-0.7,0-1.2,0.2l-6.8,5.9h-1.6c-0.7,0-1.4,0.7-1.4,1.4c0,0.7,0.7,1.4,1.4,1.4h2.1
	c0.2,0,0.7-0.2,0.9-0.2l5.9-5.2l6.4,8.6c0.5,0.5,0.9,0.7,1.6,0.5l6.4-2.3l10.7,5.5c0.2,0,0.5,0.2,0.7,0.2h7.3l2.3,10.2H18l4.8-9.1
	h12.1c0.5,0,0.9-0.2,1.2-0.7l3.7-7.1h1.1c0.7,0,1.4-0.7,1.4-1.4s-0.7-1.4-1.4-1.4h-2.1c-0.5,0-0.9,0.2-1.1,0.7l-3.7,6.9h-12
	c-0.5,0-0.9,0.2-1.1,0.7l-5.7,11.1h-4.6C9.3,35,8.2,36,8.2,37.3v4.3c0,1.1,0.9,2.3,2.3,2.3H13l8.6,35.2c0.2,1.4,1.6,2.3,3,2.3h0.7
	V85c0,1.4,1.1,2.7,2.8,2.7h1.8c0,0.7,0.2,1.6,0.5,2.3c0.2,0.7,0.9,1.1,1.8,0.9c0.7-0.2,1.1-0.9,0.9-1.8c-0.2-0.9-0.5-1.8-0.5-2.7
	c0-4.6,3.9-8.4,8.4-8.4s8.4,3.9,8.4,8.4c0,4.6-3.9,8.4-8.4,8.4c-2.1,0-3.9-0.7-5.2-1.8c-0.7-0.5-1.4-0.5-1.8,0.2
	c-0.5,0.7-0.5,1.4,0.2,1.8c2.1,1.6,4.6,2.5,7.1,2.5c5.7,0,10.5-4.3,11.1-9.8h4.6c0.7,5.5,5.5,9.8,11.1,9.8s10.4-4.3,11.1-9.8h1.8
	c1.4,0,2.7-1.1,2.7-2.7v-3.6h0.7c1.4,0,2.5-0.9,3-2.3l1.4-5.9c0.2-0.7-0.2-1.4-0.9-1.6c-0.7-0.2-1.4,0.2-1.6,0.9l-1.4,5.9
	c0,0.2-0.2,0.2-0.2,0.2h-2.1h-6.1c-2.1-2-4.8-3.4-8-3.4s-5.9,1.4-8,3.4H49.9c-2.1-2-4.8-3.4-8-3.4c-3.2,0-5.9,1.4-8,3.4h-6.2h-2.1
	c-0.2,0-0.2,0-0.2-0.2L25,76.1h0.7c0.7,0,1.4-0.7,1.4-1.4c0-0.7-0.7-1.4-1.4-1.4h-1.4L22,64.3h3.4c0.7,0,1.4-0.7,1.4-1.4
	c0-0.7-0.7-1.4-1.4-1.4h-4.1l-2.5-10.7h14.8c0.7,0,1.4-0.7,1.4-1.4c0-0.7-0.7-1.4-1.4-1.4H18.2l-1.1-4.6H94l-3.2,13.1h-15
	c-0.7,0-1.4,0.7-1.4,1.4c0,0.7,0.7,1.4,1.4,1.4h14.4l-1.8,7.5c-0.2,0.7,0.2,1.4,0.9,1.6s1.4-0.2,1.6-0.9l5.9-23.9h2.5
	c1.1,0,2.3-0.9,2.3-2.3v-4.3C99.9,35.5,99,34.6,97.6,34.6L97.6,34.6z M80.4,80.7v3.6h-1.8c-0.2-1.4-0.4-2.5-1.1-3.6H80.4z
	 M67.6,77.3c4.6,0,8.4,3.9,8.4,8.4c0,4.6-3.9,8.4-8.4,8.4c-4.6,0-8.4-3.9-8.4-8.4C58.9,80.9,62.8,77.3,67.6,77.3L67.6,77.3z
	 M57.6,80.7c-0.5,1.1-0.9,2.3-1.1,3.6h-4.6c-0.2-1.4-0.5-2.5-1.1-3.6H57.6z M30.7,80.7c-0.5,1.1-0.9,2.3-1.1,3.6h-1.8v-3.6H30.7z
	 M97.2,40.5c-10.7,0-79.4,0-86.3,0v-3.4h86.3V40.5z"/>
<path class="st0" d="M46.4,49c0-0.6-0.7-1.3-1.3-1.3h-7.4c-0.7,0-1.3,0.6-1.3,1.3s0.7,1.3,1.3,1.3H45C45.9,50.3,46.4,49.7,46.4,49z"
	/>
<path class="st0" d="M30.3,60.9c-0.7,0-1.4,0.8-1.4,1.6s0.7,1.6,1.4,1.6h11.6c0.7,0,1.4-0.8,1.4-1.6s-0.7-1.6-1.4-1.6H30.3z"/>
<path class="st0" d="M59.9,73.1H71c0.7,0,1.3-0.6,1.3-1.3s-0.7-1.3-1.3-1.3H59.9c-0.7,0-1.3,0.6-1.3,1.3
	C58.6,72.7,59.3,73.1,59.9,73.1z"/>
<path class="st0" d="M78.4,51.4c0.7,0,1.4-0.7,1.4-1.3s-0.7-1.3-1.4-1.3h-7.3c-0.7,0-1.4,0.6-1.4,1.3s0.7,1.3,1.4,1.3H78.4z"/>
<path class="st0" d="M82.4,64.6c0-0.8-0.7-1.6-1.4-1.6H66.8c-0.7,0-1.4,0.8-1.4,1.6c0,0.8,0.7,1.6,1.4,1.6H81
	C81.7,66.2,82.4,65.7,82.4,64.6z"/>
<path class="st0" d="M63.9,56.4c0-0.6-0.7-1.3-1.4-1.3H48.3c-0.7,0-1.4,0.6-1.4,1.3c0,0.7,0.7,1.3,1.4,1.3h14.3
	C63.2,57.7,63.9,57.1,63.9,56.4z"/>
<path class="st0" d="M42.1,86v-0.5c0-0.7-0.6-1.4-1.3-1.4s-1.3,0.7-1.3,1.4V86c0,0.7,0.6,1.4,1.3,1.4S42.1,86.7,42.1,86z"/>
<path class="st0" d="M67.8,87.4c0.6,0,1.3-0.7,1.3-1.4v-0.5c0-0.7-0.6-1.4-1.3-1.4s-1.3,0.7-1.3,1.4V86
	C66.5,86.7,66.9,87.4,67.8,87.4z"/>
<path class="st0" d="M30.2,32.8c0.7,0,1.4-0.7,1.4-1.4v-2.1c0-0.5-0.5-1.2-0.9-1.4l-2.5-0.9c-0.7-0.2-1.4,0-1.8,0.7
	c-0.2,0.7,0,1.4,0.7,1.9l1.6,0.7v1.2C28.8,32.1,29.2,32.8,30.2,32.8z"/>
<path class="st0" d="M44.9,23l3.6,2.2c0.2,0.3,0.7,0.3,0.9,0.3l4.9-1.2c0.7-0.3,1.1-1,1.1-1.7c-0.2-0.7-0.9-1.2-1.5-1.2l-4.2,1
	l-3.1-1.9c-0.7-0.5-1.3-0.3-1.8,0.5C44,21.8,44.2,22.7,44.9,23z"/>
<path class="st0" d="M72.2,31.2h5.1c0.7,0,1.3-0.7,1.3-1.3c0-0.7-0.7-1.3-1.3-1.3h-4.5L70.7,24c-0.2-0.7-1.1-0.9-1.8-0.7
	c-0.7,0.2-0.9,1.1-0.7,1.8l2.7,5.2C71.3,31,71.8,31.2,72.2,31.2L72.2,31.2z"/>
<path class="st0" d="M53.8,30.3c0.2,0.7,1,1.2,1.6,0.9l4.7-1.6c0.7-0.2,1.2-0.9,1-1.6c-0.2-0.7-1-1.2-1.6-0.9l-4.7,1.6
	C54.1,28.9,53.6,29.6,53.8,30.3L53.8,30.3z"/>
</svg>
