<svg width="112" height="120" viewBox="0 0 112 120" fill="none" xmlns="http://www.w3.org/2000/svg">
<path d="M107.512 6.98608H93.5966C92.4543 6.98608 91.5283 7.91586 91.5283 9.0628C91.5283 10.2097 92.4543 11.1395 93.5966 11.1395H107.512C108.655 11.1395 109.581 10.2097 109.581 9.0628C109.581 7.91586 108.655 6.98608 107.512 6.98608Z" fill="white"/>
<path d="M101.16 19.161H99.9501C98.8078 19.161 97.8818 20.0908 97.8818 21.2377V36.4244C97.8818 37.5714 98.8078 38.5012 99.9501 38.5012H101.16C102.302 38.5012 103.228 37.5714 103.228 36.4244V21.2377C103.228 20.0908 102.302 19.161 101.16 19.161Z" fill="white"/>
<path d="M108.722 45.3081H92.3876C91.2453 45.3081 90.3193 46.2379 90.3193 47.3848V49.8137C90.3193 50.9607 91.2453 51.8904 92.3876 51.8904H108.722C109.865 51.8904 110.791 50.9607 110.791 49.8137V47.3848C110.791 46.2379 109.865 45.3081 108.722 45.3081Z" fill="white"/>
<path d="M104.434 77.1693V59.5597C104.434 59.009 104.216 58.4807 103.828 58.0913C103.44 57.7018 102.914 57.483 102.366 57.483H96.6689V77.1693C96.6686 77.4419 96.7217 77.7118 96.8253 77.9638C96.9289 78.2157 97.081 78.4447 97.2728 78.6376C97.4646 78.8305 97.6924 78.9834 97.9432 79.0878C98.1939 79.1922 98.4628 79.246 98.7342 79.246H102.363C102.635 79.2464 102.904 79.193 103.155 79.0888C103.407 78.9846 103.635 78.8317 103.827 78.6388C104.02 78.446 104.172 78.2169 104.276 77.9647C104.381 77.7126 104.434 77.4423 104.434 77.1693Z" fill="white"/>
<path d="M109.932 83.6272H91.1777C90.0354 83.6272 89.1094 84.557 89.1094 85.7039V90.5617C89.1094 91.7087 90.0354 92.6384 91.1777 92.6384H109.932C111.074 92.6384 112 91.7087 112 90.5617V85.7039C112 84.557 111.074 83.6272 109.932 83.6272Z" fill="white"/>
<path d="M103.579 95.802H97.5312C96.3889 95.802 95.4629 96.7318 95.4629 97.8787V117.923C95.4629 119.07 96.3889 120 97.5312 120H103.579C104.721 120 105.647 119.07 105.647 117.923V97.8787C105.647 96.7318 104.721 95.802 103.579 95.802Z" fill="white"/>
<path d="M80.3466 2.07671C80.3466 0.929776 79.4206 0 78.2783 0C77.136 0 76.21 0.929776 76.21 2.07671V16.049C76.21 17.1959 77.136 18.1257 78.2783 18.1257C79.4206 18.1257 80.3466 17.1959 80.3466 16.049V2.07671Z" fill="white"/>
<path d="M85.841 26.1471H70.7158C69.5735 26.1471 68.6475 27.0769 68.6475 28.2238V29.4383C68.6475 30.5852 69.5735 31.515 70.7158 31.515H85.841C86.9833 31.515 87.9093 30.5852 87.9093 29.4383V28.2238C87.9093 27.0769 86.9833 26.1471 85.841 26.1471Z" fill="white"/>
<path d="M79.4874 38.319H77.0683C75.926 38.319 75 39.2487 75 40.3957V56.7969C75 57.9438 75.926 58.8736 77.0683 58.8736H79.4874C80.6297 58.8736 81.5557 57.9438 81.5557 56.7969V40.3957C81.5557 39.2487 80.6297 38.319 79.4874 38.319Z" fill="white"/>
<path d="M87.0501 64.4662H69.5058C68.3635 64.4662 67.4375 65.396 67.4375 66.5429V70.1863C67.4375 71.3332 68.3635 72.263 69.5058 72.263H87.0501C88.1924 72.263 89.1184 71.3332 89.1184 70.1863V66.5429C89.1184 65.396 88.1924 64.4662 87.0501 64.4662Z" fill="white"/>
<path d="M80.6975 76.641H75.8593C74.717 76.641 73.791 77.5708 73.791 78.7177V97.5478C73.791 98.6947 74.717 99.6245 75.8593 99.6245H80.6975C81.8398 99.6245 82.7658 98.6947 82.7658 97.5478V78.7177C82.7658 77.5708 81.8398 76.641 80.6975 76.641Z" fill="white"/>
<path d="M88.2602 102.788H68.2968C67.1545 102.788 66.2285 103.718 66.2285 104.865V110.937C66.2285 112.084 67.1545 113.014 68.2968 113.014H88.2602C89.4025 113.014 90.3285 112.084 90.3285 110.937V104.865C90.3285 103.718 89.4025 102.788 88.2602 102.788Z" fill="white"/>
<path d="M62.9567 6.98608H49.041C47.8987 6.98608 46.9727 7.91586 46.9727 9.0628C46.9727 10.2097 47.8987 11.1395 49.041 11.1395H62.9567C64.099 11.1395 65.025 10.2097 65.025 9.0628C65.025 7.91586 64.099 6.98608 62.9567 6.98608Z" fill="white"/>
<path d="M56.606 19.161H55.3964C54.2541 19.161 53.3281 20.0908 53.3281 21.2377V36.4244C53.3281 37.5714 54.2541 38.5012 55.3964 38.5012H56.606C57.7483 38.5012 58.6743 37.5714 58.6743 36.4244V21.2377C58.6743 20.0908 57.7483 19.161 56.606 19.161Z" fill="white"/>
<path d="M64.1658 45.3081H47.831C46.6887 45.3081 45.7627 46.2379 45.7627 47.3848V49.8137C45.7627 50.9607 46.6887 51.8904 47.831 51.8904H64.1658C65.3081 51.8904 66.2341 50.9607 66.2341 49.8137V47.3848C66.2341 46.2379 65.3081 45.3081 64.1658 45.3081Z" fill="white"/>
<path d="M59.8814 77.1693V59.5597C59.8814 59.009 59.6635 58.4807 59.2756 58.0913C58.8878 57.7018 58.3617 57.483 57.8131 57.483H52.1162V77.1693C52.1162 77.7201 52.3341 78.2483 52.722 78.6378C53.1099 79.0272 53.636 79.246 54.1845 79.246H57.8131C58.3617 79.246 58.8878 79.0272 59.2756 78.6378C59.6635 78.2483 59.8814 77.7201 59.8814 77.1693Z" fill="white"/>
<path d="M65.3759 83.6272H46.622C45.4797 83.6272 44.5537 84.557 44.5537 85.7039V90.5617C44.5537 91.7087 45.4797 92.6384 46.622 92.6384H65.3759C66.5182 92.6384 67.4442 91.7087 67.4442 90.5617V85.7039C67.4442 84.557 66.5182 83.6272 65.3759 83.6272Z" fill="white"/>
<path d="M59.0252 95.802H52.9775C51.8352 95.802 50.9092 96.7318 50.9092 97.8787V117.923C50.9092 119.07 51.8352 120 52.9775 120H59.0252C60.1675 120 61.0935 119.07 61.0935 117.923V97.8787C61.0935 96.7318 60.1675 95.802 59.0252 95.802Z" fill="white"/>
<path d="M35.7899 2.07671C35.7899 0.929776 34.8639 0 33.7216 0C32.5793 0 31.6533 0.929776 31.6533 2.07671V16.049C31.6533 17.1959 32.5793 18.1257 33.7216 18.1257C34.8639 18.1257 35.7899 17.1959 35.7899 16.049V2.07671Z" fill="white"/>
<path d="M41.2844 26.1472H26.1591C25.0168 26.1472 24.0908 27.077 24.0908 28.2239V29.4384C24.0908 30.5853 25.0168 31.5151 26.1591 31.5151H41.2844C42.4267 31.5151 43.3527 30.5853 43.3527 29.4384V28.2239C43.3527 27.077 42.4267 26.1472 41.2844 26.1472Z" fill="white"/>
<path d="M34.9317 38.319H32.5126C31.3703 38.319 30.4443 39.2487 30.4443 40.3957V56.7969C30.4443 57.9438 31.3703 58.8736 32.5126 58.8736H34.9317C36.074 58.8736 37 57.9438 37 56.7969V40.3957C37 39.2487 36.074 38.319 34.9317 38.319Z" fill="white"/>
<path d="M42.4945 64.4662H24.9501C23.8078 64.4662 22.8818 65.396 22.8818 66.5429V70.1863C22.8818 71.3332 23.8078 72.263 24.9501 72.263H42.4945C43.6368 72.263 44.5628 71.3332 44.5628 70.1863V66.5429C44.5628 65.396 43.6368 64.4662 42.4945 64.4662Z" fill="white"/>
<path d="M36.1408 76.641H31.3027C30.1604 76.641 29.2344 77.5708 29.2344 78.7177V97.5478C29.2344 98.6947 30.1604 99.6245 31.3027 99.6245H36.1408C37.2831 99.6245 38.2091 98.6947 38.2091 97.5478V78.7177C38.2091 77.5708 37.2831 76.641 36.1408 76.641Z" fill="white"/>
<path d="M43.7036 102.788H23.7402C22.5979 102.788 21.6719 103.718 21.6719 104.865V110.937C21.6719 112.084 22.5979 113.014 23.7402 113.014H43.7036C44.8459 113.014 45.7719 112.084 45.7719 110.937V104.865C45.7719 103.718 44.8459 102.788 43.7036 102.788Z" fill="white"/>
<path d="M18.403 6.98608H4.48725C3.34496 6.98608 2.41895 7.91586 2.41895 9.0628C2.41895 10.2097 3.34496 11.1395 4.48725 11.1395H18.403C19.5453 11.1395 20.4713 10.2097 20.4713 9.0628C20.4713 7.91586 19.5453 6.98608 18.403 6.98608Z" fill="white"/>
<path d="M12.0503 19.161H10.8408C9.69847 19.161 8.77246 20.0908 8.77246 21.2377V36.4244C8.77246 37.5714 9.69847 38.5012 10.8408 38.5012H12.0503C13.1926 38.5012 14.1186 37.5714 14.1186 36.4244V21.2377C14.1186 20.0908 13.1926 19.161 12.0503 19.161Z" fill="white"/>
<path d="M19.613 45.3081H3.27827C2.13597 45.3081 1.20996 46.2379 1.20996 47.3848V49.8137C1.20996 50.9607 2.13597 51.8904 3.27827 51.8904H19.613C20.7553 51.8904 21.6814 50.9607 21.6814 49.8137V47.3848C21.6814 46.2379 20.7553 45.3081 19.613 45.3081Z" fill="white"/>
<path d="M15.3248 77.1693V59.5597C15.3252 59.2872 15.2721 59.0172 15.1685 58.7652C15.0648 58.5133 14.9128 58.2843 14.721 58.0914C14.5291 57.8986 14.3013 57.7456 14.0506 57.6412C13.7998 57.5368 13.531 57.483 13.2595 57.483H7.55957V77.1693C7.55918 77.4419 7.6123 77.7118 7.71591 77.9638C7.81953 78.2157 7.9716 78.4447 8.16342 78.6376C8.35524 78.8305 8.58304 78.9834 8.83381 79.0878C9.08457 79.1922 9.35339 79.246 9.62486 79.246H13.2535C13.5254 79.2468 13.7949 79.1937 14.0464 79.0896C14.2978 78.9856 14.5264 78.8327 14.7188 78.6397C14.9113 78.4468 15.0639 78.2175 15.1679 77.9652C15.2719 77.7129 15.3252 77.4424 15.3248 77.1693Z" fill="white"/>
<path d="M20.8222 83.6272H2.06831C0.926012 83.6272 0 84.557 0 85.7039V90.5617C0 91.7087 0.926012 92.6384 2.06831 92.6384H20.8222C21.9645 92.6384 22.8905 91.7087 22.8905 90.5617V85.7039C22.8905 84.557 21.9645 83.6272 20.8222 83.6272Z" fill="white"/>
<path d="M14.4695 95.802H8.42182C7.27953 95.802 6.35352 96.7318 6.35352 97.8787V117.923C6.35352 119.07 7.27953 120 8.42182 120H14.4695C15.6118 120 16.5378 119.07 16.5378 117.923V97.8787C16.5378 96.7318 15.6118 95.802 14.4695 95.802Z" fill="white"/>
</svg>
