<?xml version="1.0" encoding="utf-8"?>
<!-- Generator: Adobe Illustrator 25.4.1, SVG Export Plug-In . SVG Version: 6.00 Build 0)  -->
<svg version="1.1" id="Layer_1" xmlns="http://www.w3.org/2000/svg" xmlns:xlink="http://www.w3.org/1999/xlink" x="0px" y="0px"
	 viewBox="0 0 115.4 102.1" style="enable-background:new 0 0 115.4 102.1;" xml:space="preserve">
<style type="text/css">
	.st0{fill:#F48780;}
</style>
<g>
	<g>
		<g>
			<g>
				<path class="st0" d="M99.4,15.8c-3.2-3.3-7.7-5.1-12.2-5l0,0c-4.6,0-9,1.8-12.2,5L52.6,38.1C48.2,42.6,46.5,49,48.2,55
					c0.5,1.8,2.3,2.8,4.1,2.3c1.8-0.5,2.8-2.3,2.3-4.1c-1-3.7,0-7.7,2.7-10.5l22.3-22.3c4.2-4.2,10.9-4.2,15.1,0
					c4.2,4.2,4.2,10.9,0,15.1L72.4,57.9c-1.4,1.4-3.3,2.5-5.4,2.9c-1.8,0.4-3,2.1-2.6,3.9c0.3,1.6,1.7,2.6,3.2,2.6
					c0.2,0,0.5,0,0.7-0.1c3.3-0.7,6.3-2.3,8.6-4.7l22.3-22.3C106.2,33.5,106.2,22.6,99.4,15.8z"/>
			</g>
		</g>
	</g>
	<g>
		<g>
			<g>
				<path class="st0" d="M68.4,42.4c-0.5-1.8-2.3-2.8-4.1-2.3c-1.8,0.5-2.8,2.3-2.3,4.1c1,3.7,0,7.7-2.7,10.5L37,77
					c-4.2,4.2-10.9,4.2-15.1,0c-4.2-4.2-4.2-10.9,0-15.1l22.3-22.4c1.4-1.4,3.3-2.5,5.4-2.9c1.8-0.4,3-2.1,2.6-3.9
					c-0.4-1.8-2.1-3-3.9-2.6h-0.1c-3.3,0.7-6.3,2.3-8.6,4.7L17.2,57.2c-6.7,6.8-6.6,17.8,0.2,24.5c6.7,6.7,17.6,6.7,24.3,0
					l22.3-22.3C68.4,54.9,70.1,48.4,68.4,42.4z"/>
			</g>
		</g>
	</g>
</g>
</svg>
