<?xml version="1.0" encoding="utf-8"?>
<!-- Generator: Adobe Illustrator 25.4.1, SVG Export Plug-In . SVG Version: 6.00 Build 0)  -->
<svg version="1.1" id="Layer_1" xmlns="http://www.w3.org/2000/svg" xmlns:xlink="http://www.w3.org/1999/xlink" x="0px" y="0px"
	 viewBox="0 0 73.9 78.3" style="enable-background:new 0 0 73.9 78.3;" xml:space="preserve">
<style type="text/css">
	.st0{fill:#41C59D;}
</style>
<g>
	<g>
		<path class="st0" d="M64.5,28.3l-4.8-11c-0.3-0.6-0.9-1-1.6-1H18c-0.7,0-1.3,0.4-1.6,1l-4.8,11c-0.3,0.8-0.2,1.7,0.4,2.4l24.7,29
			c0.3,0.4,0.8,0.6,1.3,0.6l0,0c0.5,0,1-0.2,1.3-0.6l8.3-9.7c0.3-0.3,0.2-0.8-0.1-1.1c-0.3-0.3-0.8-0.2-1.1,0.1l0,0l-6.5,7.7
			L50.3,30h12.3L48.8,46.2c-0.3,0.3-0.2,0.8,0.1,1.1c0.3,0.3,0.8,0.2,1.1-0.1l14.1-16.6C64.7,30,64.8,29.1,64.5,28.3L64.5,28.3
			L64.5,28.3z M62.9,28.5H51.3l7.3-10L62.9,28.5z M29.3,38.8l7,18.1L13.5,30h12.4l2.2,5.6c0.2,0.4,0.6,0.6,1,0.5
			c0.4-0.2,0.6-0.6,0.5-1l0,0l-1.9-5h20.9L38.1,56.9l-7.3-18.8c-0.2-0.4-0.6-0.6-1-0.5C29.4,37.9,29.2,38.3,29.3,38.8L29.3,38.8
			L29.3,38.8z M41.1,17.8l1.8,2.7c0.2,0.4,0.7,0.6,1,0.4c0.4-0.2,0.6-0.7,0.4-1c0-0.1-0.1-0.1-0.1-0.2L43,17.9h14.1l-7.3,10.1
			l-3.6-5.4c-0.3-0.3-0.8-0.4-1.1-0.1c-0.3,0.2-0.4,0.6-0.2,0.9l3.4,5.1H28l7.2-10.6L41.1,17.8L41.1,17.8z M26.4,27.9l-7.3-10.1
			h14.1L26.4,27.9z M17.6,18.5l7.3,10H13.3L17.6,18.5z"/>
		<path class="st0" d="M23.4,52.3C23,52,22.6,52,22.2,52.2l-4.1,1.9c-0.6,0.3-0.9,1-0.7,1.7c0.8,2.1,2.5,3.2,5.3,3.3h0.1
			c0.7,0,1.3-0.6,1.3-1.3v-4.4C24,52.9,23.8,52.5,23.4,52.3L23.4,52.3L23.4,52.3z M22.5,57.5c-2.5-0.2-3.2-1.4-3.5-2.1l3.5-1.6V57.5
			L22.5,57.5z"/>
		<path class="st0" d="M21.8,47.9c0.1-0.4,0-0.9-0.4-1.2l-3.2-3.2C17.8,43,17,43,16.5,43.4c-1.7,1.4-2.1,3.5-1.4,6.1
			c0.2,0.7,1,1.1,1.7,0.9c0,0,0,0,0,0l4.1-1.5C21.4,48.7,21.7,48.4,21.8,47.9z M16.5,48.8c-0.7-2.4,0.3-3.5,0.8-4l2.7,2.7L16.5,48.8
			z"/>
		<path class="st0" d="M58.2,54.1l-4.1-1.9c-0.7-0.3-1.5,0-1.8,0.6c-0.1,0.2-0.1,0.4-0.1,0.6v4.4c0,0.7,0.6,1.3,1.3,1.3h0.1
			c2.7-0.1,4.5-1.3,5.3-3.3C59.1,55.1,58.8,54.3,58.2,54.1L58.2,54.1L58.2,54.1z M53.8,57.5v-3.7l3.5,1.7C57,56,56.3,57.3,53.8,57.5
			L53.8,57.5z"/>
		<path class="st0" d="M59.8,43.4C59.3,43,58.5,43,58,43.5l-3.2,3.2c-0.5,0.5-0.5,1.4,0,1.9c0.1,0.1,0.3,0.2,0.5,0.3l4.1,1.5
			c0.7,0.2,1.5-0.1,1.7-0.8c0,0,0,0,0,0C61.9,46.9,61.5,44.9,59.8,43.4z M59.7,48.8l-3.5-1.3l2.7-2.7C59.5,45.3,60.4,46.4,59.7,48.8
			L59.7,48.8z"/>
	</g>
</g>
</svg>
