<?xml version="1.0" encoding="UTF-8"?> <svg xmlns="http://www.w3.org/2000/svg" xmlns:xlink="http://www.w3.org/1999/xlink" version="1.1" id="Layer_1" x="0px" y="0px" viewBox="0 0 75.9 72.7" style="enable-background:new 0 0 75.9 72.7;" xml:space="preserve"> <style type="text/css"> .st0{fill:#FFFFFF;} </style> <g> <path class="st0" d="M39.1,13.9c5.8,0.4,10.7,2.6,14.7,6.6c4.1,4,6.2,9,6.7,14.7c1.3,0,2.6,0,4,0c0.8,0,1.4,0.4,1.5,1.1 c0.2,0.8-0.5,1.6-1.4,1.6c-1.3,0-2.6,0-3.9,0c-1.9,12.5-9,19.6-21.6,21.5c0,1.2,0,2.6,0,3.9c0,0.8-0.4,1.4-1.1,1.5 c-0.8,0.2-1.6-0.5-1.6-1.5c0-1.3,0-2.7,0-4.1c-5.7-0.4-10.6-2.6-14.7-6.6c-4.1-4-6.3-8.9-6.7-14.8c-0.5,0-1,0-1.5,0 c-0.9,0-1.7,0-2.6,0c-0.8,0-1.4-0.6-1.4-1.3c0-0.8,0.6-1.4,1.4-1.4c1.3,0,2.7,0,4.1,0c0.4-5.7,2.6-10.7,6.7-14.7 c4.1-4,9-6.2,14.7-6.6c0-1.4,0-2.7,0-4c0-0.8,0.4-1.4,1.1-1.5c0.9-0.2,1.6,0.5,1.6,1.4C39.1,11.1,39.1,12.4,39.1,13.9z M36.3,22.2 c-7.2,0.6-12.7,6.7-13.1,13c1.2,0,2.3,0,3.5,0c1.3,0,2,0.5,2,1.4c0,0.9-0.7,1.4-1.9,1.4c-1.2,0-2.4,0-3.6,0 c0.7,7.6,7.2,12.7,13.1,13c0-0.2,0-0.4,0-0.5c0-1.1,0-2.3,0-3.4c0-0.8,0.6-1.4,1.4-1.4c0.7,0,1.3,0.6,1.3,1.4c0,0.3,0,0.6,0,1 c0,1,0,2,0,3.1c7.2-0.6,12.7-6.7,13.1-13c-1.2,0-2.3,0-3.5,0c-1.3,0-2-0.5-1.9-1.4c0-0.9,0.7-1.4,1.9-1.4c1.2,0,2.4,0,3.6,0 c-0.7-7.7-7.3-12.7-13.1-13c0,1.2,0,2.5,0,3.7c0,1-0.5,1.7-1.4,1.7c-0.8,0-1.3-0.6-1.4-1.7C36.3,24.7,36.3,23.5,36.3,22.2z M20.3,35.2c1.5-9.2,6.8-14.4,16-15.9c0-0.8,0-1.7,0-2.5c-9.4,0.3-18.1,8.6-18.5,18.5c0.5,0,1,0,1.6,0C19.7,35.2,20,35.2,20.3,35.2 z M36.3,53.9c-9.1-1.5-14.5-6.8-16-15.9c-0.8,0-1.7,0-2.6,0c0.6,10.8,10.1,18.3,18.6,18.4C36.3,55.6,36.3,54.7,36.3,53.9z M39.1,19.4c4.2,0.4,7.8,2,10.8,5c3,3,4.6,6.6,5.1,10.8c0.5,0,0.9,0,1.4,0c0.4,0,0.9,0,1.4,0c-0.5-5.7-2.9-10.3-7.2-13.9 c-3.3-2.8-7.1-4.3-11.5-4.6C39.1,17.6,39.1,18.5,39.1,19.4z M39.1,56.5C49.2,56,57.4,47.2,57.7,38c-0.9,0-1.8,0-2.6,0 c-1.5,9.2-6.8,14.4-16,15.9C39.1,54.7,39.1,55.6,39.1,56.5z"></path> <path class="st0" d="M31.5,36.5c0-3.5,2.8-6.2,6.4-6.2c3.4,0,6.2,2.9,6.1,6.3c0,3.4-2.8,6.2-6.3,6.1C34.2,42.8,31.4,40,31.5,36.5z M37.7,33.1c-1.9,0-3.5,1.5-3.4,3.5c0,1.9,1.5,3.4,3.5,3.4c2,0,3.5-1.6,3.5-3.5C41.2,34.6,39.6,33.1,37.7,33.1z"></path> </g> </svg> 