<?xml version="1.0" encoding="UTF-8"?> <svg xmlns="http://www.w3.org/2000/svg" xmlns:xlink="http://www.w3.org/1999/xlink" version="1.1" id="Layer_1" x="0px" y="0px" viewBox="0 0 107.7 104.6" style="enable-background:new 0 0 107.7 104.6;" xml:space="preserve"> <style type="text/css"> .st0{fill:#FFFFFF;} </style> <g transform="translate(-500 -890)"> <path class="st0" d="M558,994.2c-0.8,0-1.5-0.8-1.5-1.6v-4.3c0-0.5-0.5-1-1-1h-4.3c-0.5,0-1,0.5-1,1v4.3c0,0.8-0.8,1.6-1.5,1.6 c-0.7,0-1.5-0.8-1.5-1.6v-4.3c0-2.3,2-4.3,4.3-4.3h4c2.3,0,4.3,2,4.3,4.3v4.3C559.5,993.4,558.9,994.2,558,994.2L558,994.2z"></path> <path class="st0" d="M568.6,935.2c-0.5-0.8-1.6-0.8-2.3-0.2c-0.8,0.5-0.8,1.6-0.2,2.3l8.1,10.9c0.8,1.3,0.8,3.1-0.2,4.1l-8.5,9.9 h-24.4l-8.5-9.9c-1-1-1-2.8-0.2-4.1l16.1-21.5v12.1c-2.1,1.6-3.1,3.9-3.1,6.5c0,4.6,3.6,8.3,8.3,8.3c4.7,0,8.3-3.6,8.3-8.3 c0-2.6-1-4.9-3.1-6.5v-12.1l3.6,4.9c0.5,0.8,1.6,0.8,2.3,0.2c0.8-0.5,0.8-1.6,0.2-2.3l-7-9.3c-1-1.6-2.9-2.3-4.4-2.3 c-1.8,0-3.4,0.8-4.4,2.3l-19.2,25.9c-1.8,2.3-1.6,5.9,0.2,8.3l7.3,8.3c-1.8,0.8-3.1,2.6-3.1,4.7v7.8c0,2.3,1.6,4.4,3.6,4.9 l0.5,12.7c0,0.8,0.8,1.6,1.6,1.6l0,0c0.8,0,1.6-0.8,1.6-1.6l-0.5-12.4h24.6l-0.5,12.4c0,0.8,0.8,1.6,1.6,1.6l0,0 c0.8,0,1.6-0.8,1.6-1.6l0.5-12.9c2.1-0.8,3.4-2.6,3.4-4.9v-7.8c0-2.1-1.3-3.9-3.1-4.7l7.3-8.3c2.1-2.3,2.1-5.7,0.2-8.3L568.6,935.2 z M553,921.2c0.8,0,1.3,0.2,1.8,1l0.2,0.2v17.3c0,0.5,0.2,1,0.8,1.3c1.3,1,2.3,2.6,2.3,4.1c0,2.8-2.3,4.9-4.9,4.9s-5.2-2.3-5.2-4.9 c0-1.8,0.8-3.4,2.3-4.4c0.5-0.2,0.8-0.8,0.8-1.3v-17.6C551.8,921.5,552.3,921.2,553,921.2L553,921.2z M568.9,975c0,1-1,2.1-2.1,2.1 h-27.5c-1,0-2.1-1-2.1-2.1v-7.8c0-1,1-2,2.1-2H567c1,0,2.1,1,2.1,2v7.8H568.9z"></path> <path class="st0" d="M520.9,935.5c0.2-5.2,1.5-10.1,4-14.5c0.5-0.8,0.2-1.8-0.5-2.3s-1.7-0.2-2.3,0.5c-2.8,4.9-4.3,10.6-4.6,16 c-2.8,0.8-4.8,3.4-4.8,6.2c0,3.6,2.8,6.4,6.3,6.4s6.3-2.8,6.3-6.4C525.5,938.9,523.4,936.3,520.9,935.5L520.9,935.5z M519.2,945.1 c-1.7,0-3-1.6-3-3.1c0-1.8,1.5-3.1,3-3.1c1.7,0,3,1.6,3,3.1C522.5,943.5,520.9,945.1,519.2,945.1z"></path> <path class="st0" d="M604.8,897.4h-5.2c-1.8,0-3.4,1.6-3.4,3.4v1h-37v-1c0-1.8-1.6-3.4-3.4-3.4h-5.2c-1.8,0-3.4,1.6-3.4,3.4v1h-37 v-1c0-1.8-1.6-3.4-3.4-3.4h-5.2c-1.8,0-3.4,1.6-3.4,3.4v5.1c0,1.8,1.6,3.4,3.4,3.4h5.2c1.8,0,3.4-1.6,3.4-3.4v-1h28.2 c-4.4,2-8.5,5.1-11.9,8.7c-0.5,0.8-0.5,1.8,0.2,2.3c0.2,0.2,0.8,0.5,1,0.5c0.5,0,0.8-0.2,1.3-0.5c4.7-5.4,11.1-9,18.4-10.3v0.5 c0,1.8,1.6,3.4,3.4,3.4h5.2c1.8,0,3.4-1.6,3.4-3.4v-0.5c14.7,2.8,25.6,15.4,26.4,30.3c-2.8,0.8-4.9,3.4-4.9,6.2 c0,3.6,2.8,6.4,6.5,6.4c3.6,0,6.5-2.8,6.5-6.4c0-3.1-2-5.4-4.9-6.2c-0.5-13.6-8.8-25.2-20.7-30.8h28.2v1c0,1.8,1.6,3.4,3.4,3.4h5.2 c1.8,0,3.4-1.6,3.4-3.4v-5C608.1,899,606.6,897.4,604.8,897.4L604.8,897.4z M507,905.9C507,905.9,507,906.1,507,905.9l-5.4,0.2 c0,0-0.2,0-0.2-0.2v-5.1c0,0,0-0.2,0.2-0.2h5.2c0,0,0.2,0,0.2,0.2V905.9z M590.3,941.8c0,1.8-1.6,3.1-3.1,3.1s-3.4-1.3-3.4-3.1 c0-1.8,1.6-3.1,3.1-3.1C588.4,938.8,590.3,940,590.3,941.8z M555.9,905.9C555.9,905.9,555.9,906.1,555.9,905.9l-5.4,0.2 c0,0-0.2,0-0.2-0.2v-5.1c0,0,0-0.2,0.2-0.2h5.2c0,0,0.2,0,0.2,0.2V905.9z M604.8,905.9C604.8,905.9,604.8,906.1,604.8,905.9 l-5.4,0.2c0,0-0.2,0-0.2-0.2v-5.1c0,0,0-0.2,0.2-0.2h5.2c0,0,0.2,0,0.2,0.2V905.9z"></path> </g> </svg> 