<?xml version="1.0" encoding="UTF-8"?> <svg xmlns="http://www.w3.org/2000/svg" xmlns:xlink="http://www.w3.org/1999/xlink" version="1.1" id="Layer_1" x="0px" y="0px" viewBox="0 0 58.4 64.9" style="enable-background:new 0 0 58.4 64.9;" xml:space="preserve"> <style type="text/css"> .st0{fill:#40C29A;} </style> <g> <path class="st0" d="M13.7,52.1c-0.3,0.6-1,0.8-1.5,0.5c-0.6-0.3-0.8-1-0.5-1.5l8.1-15.4c0.2-0.4,0.1-0.8-0.3-1 c-0.4-0.2-0.8-0.1-1,0.3l-1.9,3.6h-5.9c-0.4,0-0.7,0.3-0.7,0.7c0,0.4,0.3,0.7,0.7,0.7h5.2l-5.4,10.3c-0.5,1-0.3,2.3,0.5,3.1l-2,3.7 c-0.2,0.4-0.1,0.8,0.3,1c0.1,0.1,0.2,0.1,0.3,0.1c0.3,0,0.5-0.1,0.6-0.4l2-3.7c0.2,0,0.3,0.1,0.5,0.1c0.9,0,1.8-0.5,2.3-1.4 l6.7-12.7h6.8v3.4c0,0.4,0.3,0.7,0.7,0.7c0.4,0,0.7-0.3,0.7-0.7v-3.4h6.8l1.3,2.4c0.1,0.2,0.4,0.4,0.6,0.4c0.1,0,0.2,0,0.3-0.1 c0.4-0.2,0.5-0.6,0.3-1L37.8,39c0,0,0,0,0,0L33,29.8c0.7-0.5,1.2-1.1,1.6-1.7l9.9,18.8c-0.8,0.1-1.5,0.5-2,1.1l-1.7-3.3 c-0.2-0.4-0.6-0.5-1-0.3c-0.4,0.2-0.5,0.6-0.3,1l2.1,4.1c-0.1,0.4-0.2,0.8-0.2,1.2c0,2.1,1.7,3.8,3.8,3.8c0.3,0,0.6,0,0.9-0.1 l1.9,3.5c0.1,0.2,0.4,0.4,0.6,0.4c0.1,0,0.2,0,0.3-0.1c0.4-0.2,0.5-0.6,0.3-1l-1.8-3.4c0.9-0.7,1.5-1.8,1.5-3 c0-1.7-1.2-3.2-2.8-3.7l-3.6-6.9h5.4c0.4,0,0.7-0.3,0.7-0.7c0-0.4-0.3-0.7-0.7-0.7h-6.2l-6.4-12.2c0.2-0.6,0.3-1.2,0.3-1.8v-2.3 c0-0.4-0.3-0.7-0.7-0.7s-0.7,0.3-0.7,0.7v2.3c0,2.8-2.2,5-5,5s-5-2.2-5-5V17c0-0.1,0.1-0.2,0.2-0.2H34c0.1,0,0.2,0.1,0.2,0.2v2.2 c0,0.4,0.3,0.7,0.7,0.7s0.7-0.3,0.7-0.7V17c0-0.9-0.8-1.7-1.7-1.7h-1.9v-4.1c0-1.6-1.3-2.8-2.8-2.8c-1.6,0-2.8,1.3-2.8,2.8v4.1 h-1.9c-0.9,0-1.7,0.8-1.7,1.7v7.7c0,0.6,0.1,1.2,0.3,1.8l-3,5.8c-0.2,0.4-0.1,0.8,0.3,1c0.1,0.1,0.2,0.1,0.3,0.1 c0.3,0,0.5-0.1,0.6-0.4l2.5-4.8c0.4,0.7,1,1.3,1.6,1.7L13.7,52.1z M27.9,11.2c0-0.8,0.6-1.4,1.4-1.4c0.8,0,1.4,0.6,1.4,1.4v4.1 h-2.7L27.9,11.2L27.9,11.2z M36,38.7h-6.1v-3.4c0-0.4-0.3-0.7-0.7-0.7s-0.7,0.3-0.7,0.7v3.4h-6l4.2-8.1c0.8,0.3,1.6,0.5,2.5,0.5 c0.9,0,1.7-0.2,2.5-0.5L36,38.7z M42.9,50.6c0-1.3,1-2.3,2.3-2.3s2.3,1,2.3,2.3s-1,2.3-2.3,2.3C43.9,53,42.9,51.9,42.9,50.6z"></path> <path class="st0" d="M26.4,24.2c0,1.6,1.3,2.8,2.8,2.8c1.6,0,2.8-1.3,2.8-2.8s-1.3-2.8-2.8-2.8C27.7,21.4,26.4,22.6,26.4,24.2z M30.6,24.2c0,0.8-0.6,1.4-1.4,1.4c-0.8,0-1.4-0.6-1.4-1.4c0-0.8,0.6-1.4,1.4-1.4C30,22.8,30.6,23.4,30.6,24.2z"></path> </g> </svg> 