<?xml version="1.0" encoding="UTF-8"?> <svg xmlns="http://www.w3.org/2000/svg" xmlns:xlink="http://www.w3.org/1999/xlink" version="1.1" id="Layer_1" x="0px" y="0px" viewBox="0 0 56.9 57.3" style="enable-background:new 0 0 56.9 57.3;" xml:space="preserve"> <style type="text/css"> .st0{fill:#F57E78;} </style> <g transform="translate(-577 -143)"> <g> <path class="st0" d="M621,196.1h-29c-0.5,0-1-0.4-1-1c0-0.5,0.4-1,1-1h29c3.7,0,6.8-3,6.8-6.8v-9.7c0-1.6-1.3-2.9-2.9-2.9h-21.2 c-1.6,0-2.9,1.3-2.9,2.9c0,0.5-0.4,1-1,1c-0.5,0-1-0.4-1-1c0-2.7,2.2-4.8,4.8-4.8h21.2c2.7,0,4.8,2.2,4.8,4.8v9.7 C629.7,192.2,625.8,196.1,621,196.1z"></path> <path class="st0" d="M592,196.1c-4.8,0-8.7-3.9-8.7-8.7v-32.8c0-2.7,2.2-4.8,4.8-4.8h21.2c2.7,0,4.8,2.2,4.8,4.8v19.3 c0,0.5-0.4,1-1,1c-0.5,0-1-0.4-1-1v-19.3c0-1.6-1.3-2.9-2.9-2.9H588c-1.6,0-2.9,1.3-2.9,2.9v32.8c0,3.7,3,6.8,6.8,6.8 c3.7,0,6.8-3,6.8-6.8v-9.7c0-0.5,0.4-1,1-1c0.5,0,1,0.4,1,1v9.7C600.7,192.2,596.8,196.1,592,196.1z"></path> <path class="st0" d="M598.8,163.3c-2.1,0-3.9-1.7-3.9-3.9c0-2.1,1.7-3.9,3.9-3.9s3.9,1.7,3.9,3.9 C602.6,161.6,600.9,163.3,598.8,163.3z M598.8,157.5c-1.1,0-1.9,0.9-1.9,1.9c0,1.1,0.9,1.9,1.9,1.9c1.1,0,1.9-0.9,1.9-1.9 S599.8,157.5,598.8,157.5z"></path> <path class="st0" d="M618.1,178.7h-7.7c-1.6,0-2.9-1.3-2.9-2.9c0-0.5-0.4-1-1-1h-1.9c-0.5,0-1-0.4-1-1c0-0.5,0.4-1,1-1h1.9 c1.6,0,2.9,1.3,2.9,2.9c0,0.5,0.4,1,1,1h7.7c0.5,0,1-0.4,1-1c0-1.6,1.3-2.9,2.9-2.9h1.9c0.5,0,1,0.4,1,1c0,0.5-0.4,1-1,1H622 c-0.5,0-1,0.4-1,1C621,177.4,619.7,178.7,618.1,178.7z"></path> </g> </g> </svg> 