<?xml version="1.0" encoding="UTF-8"?> <svg xmlns="http://www.w3.org/2000/svg" xmlns:xlink="http://www.w3.org/1999/xlink" version="1.1" id="Layer_1" x="0px" y="0px" viewBox="0 0 75.9 77" style="enable-background:new 0 0 75.9 77;" xml:space="preserve"> <style type="text/css"> .st0{fill:#F48780;} </style> <g> <g> <polygon class="st0" points="18.6,16.2 50,16.2 50,13.4 15.8,13.4 15.8,47.7 18.6,47.7 "></polygon> <polygon class="st0" points="58.7,24.8 58.7,56.3 27.3,56.3 27.3,59.2 61.6,59.2 61.6,24.8 "></polygon> <polygon class="st0" points="34.4,47.7 37.2,47.7 37.2,37.7 27.2,37.7 27.2,40.6 32.3,40.6 24.3,48.6 26.3,50.7 34.4,42.6 "></polygon> <rect x="20.8" y="51.3" transform="matrix(0.7071 -0.7071 0.7071 0.7071 -30.7444 31.1648)" class="st0" width="2.9" height="2.9"></rect> <rect x="16.8" y="55.3" transform="matrix(0.7071 -0.7071 0.7071 0.7071 -34.7929 29.483)" class="st0" width="2.9" height="2.9"></rect> <polygon class="st0" points="43,24.8 40.1,24.8 40.1,34.8 50.1,34.8 50.1,32 45,32 53,23.9 51,21.9 43,30 "></polygon> <rect x="53.6" y="18.4" transform="matrix(0.7071 -0.7071 0.7071 0.7071 2.0809 44.7586)" class="st0" width="2.9" height="2.9"></rect> <rect x="57.7" y="14.4" transform="matrix(0.7071 -0.7071 0.7071 0.7071 6.1271 46.435)" class="st0" width="2.9" height="2.9"></rect> </g> </g> </svg> 