<?xml version="1.0" encoding="UTF-8"?> <svg xmlns="http://www.w3.org/2000/svg" xmlns:xlink="http://www.w3.org/1999/xlink" version="1.1" id="Layer_1" x="0px" y="0px" viewBox="0 0 58.4 64.9" style="enable-background:new 0 0 58.4 64.9;" xml:space="preserve"> <style type="text/css"> .st0{fill:#FFFFFF;} </style> <g transform="translate(-577 -143)"> <path class="st0" d="M619.6,193.7h-23.9c-0.4,0-0.8-0.4-0.8-0.8c0-0.4,0.4-0.8,0.8-0.8h23.9c3.1,0,5.6-2.5,5.6-5.6v-8 c0-1.3-1.1-2.4-2.4-2.4h-17.5c-1.3,0-2.4,1.1-2.4,2.4c0,0.4-0.4,0.8-0.8,0.8c-0.4,0-0.8-0.4-0.8-0.8c0-2.2,1.8-4,4-4h17.5 c2.2,0,4,1.8,4,4v8C626.8,190.5,623.6,193.7,619.6,193.7z"></path> <path class="st0" d="M595.7,193.7c-4,0-7.2-3.2-7.2-7.2v-27.1c0-2.2,1.8-4,4-4h17.5c2.2,0,4,1.8,4,4v15.9c0,0.4-0.4,0.8-0.8,0.8 c-0.4,0-0.8-0.4-0.8-0.8v-15.9c0-1.3-1.1-2.4-2.4-2.4h-17.5c-1.3,0-2.4,1.1-2.4,2.4v27.1c0,3.1,2.5,5.6,5.6,5.6 c3.1,0,5.6-2.5,5.6-5.6v-8c0-0.4,0.4-0.8,0.8-0.8c0.4,0,0.8,0.4,0.8,0.8v8C602.9,190.5,599.7,193.7,595.7,193.7z"></path> <path class="st0" d="M601.3,166.6c-1.8,0-3.2-1.4-3.2-3.2c0-1.8,1.4-3.2,3.2-3.2s3.2,1.4,3.2,3.2 C604.5,165.1,603.1,166.6,601.3,166.6z M601.3,161.8c-0.9,0-1.6,0.7-1.6,1.6c0,0.9,0.7,1.6,1.6,1.6s1.6-0.7,1.6-1.6 C602.9,162.5,602.2,161.8,601.3,161.8z"></path> <path class="st0" d="M617.3,179.3h-6.4c-1.3,0-2.4-1.1-2.4-2.4c0-0.4-0.4-0.8-0.8-0.8h-1.6c-0.4,0-0.8-0.4-0.8-0.8 c0-0.4,0.4-0.8,0.8-0.8h1.6c1.3,0,2.4,1.1,2.4,2.4c0,0.4,0.4,0.8,0.8,0.8h6.4c0.4,0,0.8-0.4,0.8-0.8c0-1.3,1.1-2.4,2.4-2.4h1.6 c0.4,0,0.8,0.4,0.8,0.8c0,0.4-0.4,0.8-0.8,0.8h-1.6c-0.4,0-0.8,0.4-0.8,0.8C619.6,178.3,618.6,179.3,617.3,179.3z"></path> </g> </svg> 