<?xml version="1.0" encoding="UTF-8"?> <svg xmlns="http://www.w3.org/2000/svg" xmlns:xlink="http://www.w3.org/1999/xlink" version="1.1" id="Layer_1" x="0px" y="0px" viewBox="0 0 68.9 68.3" style="enable-background:new 0 0 68.9 68.3;" xml:space="preserve"> <style type="text/css"> .st0{fill:#F57E78;} </style> <g> <g> <path class="st0" d="M17.7,54.5c-0.3,0.6-1.1,0.8-1.7,0.5s-0.8-1.1-0.5-1.7l8.8-16.7c0.2-0.4,0.1-0.9-0.3-1.1s-0.9-0.1-1.1,0.3 l-2.1,3.9h-6.4c-0.4,0-0.8,0.4-0.8,0.8s0.4,0.8,0.8,0.8H20l-5.9,11.2c-0.6,1.1-0.3,2.5,0.5,3.3l-2.1,4c-0.2,0.4-0.1,0.9,0.3,1.1 C12.9,61,13,61,13.2,61c0.3,0,0.6-0.2,0.7-0.4l2.1-4c0.2,0,0.4,0.1,0.6,0.1c1,0,2-0.5,2.5-1.5l7.3-13.8h7.4v3.7 c0,0.4,0.4,0.8,0.8,0.8s0.8-0.4,0.8-0.8v-3.7h7.4l1.4,2.6c0.1,0.3,0.4,0.4,0.7,0.4c0.1,0,0.3,0,0.4-0.1c0.4-0.2,0.5-0.7,0.3-1.1 L44,40.1l0,0l-5.3-10c0.7-0.5,1.3-1.2,1.8-1.9l10.8,20.5c-0.8,0.2-1.6,0.6-2.2,1.1l-1.9-3.6c-0.2-0.4-0.7-0.5-1.1-0.3 s-0.5,0.7-0.3,1.1l2.3,4.4c-0.1,0.4-0.2,0.9-0.2,1.3c0,2.3,1.8,4.1,4.1,4.1c0.4,0,0.7,0,1-0.1l2,3.8c0.1,0.3,0.4,0.4,0.7,0.4 c0.1,0,0.3,0,0.4-0.1c0.4-0.2,0.5-0.7,0.3-1.1l-2-3.7c1-0.8,1.7-2,1.7-3.3c0-1.9-1.3-3.5-3-4l-3.9-7.5h5.9c0.4,0,0.8-0.4,0.8-0.8 s-0.4-0.8-0.8-0.8h-6.8l-7-13.3c0.2-0.6,0.3-1.3,0.3-1.9v-2.5c0-0.4-0.4-0.8-0.8-0.8S40,21.5,40,21.9v2.5c0,3-2.4,5.4-5.4,5.4 s-5.4-2.4-5.4-5.4v-8.3c0-0.1,0.1-0.3,0.3-0.3h10.4c0.1,0,0.3,0.1,0.3,0.3v2.4c0,0.4,0.4,0.8,0.8,0.8s0.8-0.4,0.8-0.8v-2.4 c0-1-0.8-1.8-1.8-1.8h-2.1V9.9c0-1.7-1.4-3.1-3.1-3.1s-3.1,1.4-3.1,3.1v4.4h-2.1c-1,0-1.8,0.8-1.8,1.8v8.3c0,0.7,0.1,1.3,0.3,1.9 l-3.3,6.3c-0.2,0.4-0.1,0.9,0.3,1.1c0.1,0.1,0.2,0.1,0.4,0.1c0.3,0,0.6-0.2,0.7-0.4l2.7-5.2c0.5,0.7,1.1,1.4,1.8,1.9L17.7,54.5z M33.1,9.9c0-0.8,0.7-1.5,1.5-1.5s1.5,0.7,1.5,1.5v4.4h-3V9.9L33.1,9.9z M42,39.8h-6.6v-3.7c0-0.4-0.4-0.8-0.8-0.8 s-0.8,0.4-0.8,0.8v3.7h-6.5l4.6-8.8c0.8,0.4,1.8,0.6,2.7,0.6c1,0,1.9-0.2,2.7-0.6L42,39.8z M49.5,52.8c0-1.4,1.1-2.5,2.5-2.5 s2.5,1.1,2.5,2.5s-1.1,2.5-2.5,2.5C50.6,55.4,49.5,54.2,49.5,52.8z"></path> <path class="st0" d="M31.5,24c0,1.7,1.4,3.1,3.1,3.1s3.1-1.4,3.1-3.1s-1.4-3.1-3.1-3.1C32.9,21,31.5,22.3,31.5,24z M36.1,24 c0,0.8-0.7,1.5-1.5,1.5s-1.5-0.7-1.5-1.5s0.7-1.5,1.5-1.5S36.1,23.2,36.1,24z"></path> </g> </g> </svg> 