<?xml version="1.0" encoding="UTF-8"?> <svg xmlns="http://www.w3.org/2000/svg" xmlns:xlink="http://www.w3.org/1999/xlink" version="1.1" id="Layer_1" x="0px" y="0px" viewBox="0 0 68.2 69.6" style="enable-background:new 0 0 68.2 69.6;" xml:space="preserve"> <style type="text/css"> .st0{fill:#FFFFFF;} </style> <g> <g> <path class="st0" d="M12.2,25.2c0-0.4,0-0.8,0-1.2c0.3-0.9,0.7-1.7,1.3-2.3c0.4-0.4,0.4-1.2,0-1.6c-0.7-0.7-1-1.4-1.3-2.3 c0-0.4,0-0.8,0-1.2c0-0.1,0.1-0.3,0.1-0.4c0.8-3,4.3-4.2,6.5-2.2c0.9,0.8,1.4,0.8,2.2,0c1.6-1.3,3.8-1.3,5.2,0 c0.9,0.8,1.4,0.8,2.3,0c1.6-1.3,3.8-1.3,5.2,0c0.9,0.8,1.4,0.8,2.2,0c1.6-1.3,3.8-1.3,5.2,0c0.9,0.8,1.4,0.8,2.3,0 c1.3-1,2.7-1.3,4.2-0.7c1.6,0.7,2.3,2,2.5,3.5c0.1,1.2-0.4,2.1-1,2.9c-0.5,0.7-0.7,1.3,0,2s1.3,0.7,2.1,0c1-0.9,2.1-1.3,3.4-1 c1.6,0.3,2.6,1.2,3.1,2.7c0.5,1.4,0.1,2.9-0.8,4c-0.7,0.8-0.7,1.3,0,2.1c1.4,1.6,1.4,3.8,0,5.5c-0.7,0.8-0.7,1.3,0,2.1 c1.4,1.6,1.4,3.8,0,5.5c-0.7,0.8-0.7,1.4,0,2.2c1.4,1.6,1.4,3.8,0,5.3c-0.8,0.8-0.8,1.4,0,2.2c2,2.2,1,5.6-1.8,6.5 c-0.3,0.1-0.4,0.1-0.7,0.3c-0.4,0-0.7,0-1,0c-0.9-0.3-1.7-0.7-2.5-1.3c-0.4-0.4-1.2-0.4-1.6,0c-0.7,0.7-1.4,1-2.3,1.3 c-0.4,0-0.7,0-1,0c-0.9-0.3-1.7-0.7-2.5-1.3c-0.4-0.4-1.2-0.4-1.6,0c-0.7,0.7-1.6,1-2.5,1.3c-0.4,0-0.7,0-1,0 c-0.9-0.3-1.7-0.7-2.5-1.3c-0.4-0.4-1.2-0.4-1.6,0c-0.7,0.7-1.6,1-2.5,1.3c-0.4,0-0.7,0-1,0c-0.9-0.3-1.7-0.7-2.5-1.3 c-0.4-0.4-1.2-0.4-1.6,0c-0.7,0.7-1.6,1-2.5,1.3c-0.4,0-0.7,0-1,0c-0.4-0.1-0.8-0.1-1-0.4c-2.6-1-3.3-4.3-1.4-6.4 c0.3-0.3,0.4-0.7,0.5-0.9c0.1-0.5-0.3-1.2-0.8-1.4c-0.7-0.3-1.2-0.1-1.6,0.4c-2.3,2.1-5.9,0.9-6.6-2.1c0-0.1-0.1-0.3-0.1-0.4 c0-0.4,0-0.8,0-1.2c0.3-0.9,0.7-1.7,1.3-2.3c0.4-0.4,0.4-1.2,0-1.6c-0.7-0.7-1-1.6-1.3-2.5c0-0.4,0-0.7,0-1 c0.3-0.9,0.7-1.7,1.3-2.3c0.4-0.4,0.4-1.2,0-1.6c-0.7-0.7-1-1.6-1.3-2.5c0-0.4,0-0.7,0-1c0.3-0.9,0.7-1.7,1.3-2.3 c0.4-0.4,0.4-1.2,0-1.6C12.8,26.9,12.4,26.1,12.2,25.2z M46.3,48.5c0.4-0.1,0.7-0.3,0.9-0.4c0.7-0.5,0.8-1.4,0-2.1 c-1.4-1.6-1.4-3.8,0-5.3c0.7-0.8,0.7-1.3,0-2.2c-1.4-1.6-1.4-3.8,0-5.3c0.8-0.8,0.8-1.4,0-2.2c-1.3-1.6-1.3-3.8,0-5.3 c0.8-0.9,0.8-1.4,0-2.2c-0.7-0.8-1-1.7-1-2.7c0-1,0.4-2,1.2-2.7c0.8-0.8,0.4-2-0.7-2.2c-0.5-0.1-0.9,0.1-1.4,0.5 c-1.6,1.4-3.8,1.4-5.5,0c-0.8-0.7-1.3-0.7-2.1,0c-1.7,1.4-3.8,1.4-5.5,0c-0.7-0.7-1.3-0.7-2,0c-1.7,1.4-3.8,1.4-5.6,0 c-0.7-0.5-1.3-0.5-2,0c-1.7,1.6-3.8,1.6-5.6,0c-0.7-0.5-1.4-0.5-2,0c-0.5,0.5-0.5,1.3,0,1.8c1.6,1.8,1.6,3.8,0,5.6 c-0.5,0.7-0.5,1.3,0,2c1.6,1.7,1.6,3.8,0,5.6c-0.5,0.7-0.5,1.3,0,2c1.6,1.7,1.6,3.8,0,5.6c-0.7,0.7-0.7,1.3,0,2 c1.4,1.7,1.4,3.8,0,5.5c-0.7,0.7-0.7,1.4,0,2c0.5,0.5,1.3,0.5,2-0.1c0.4-0.3,0.8-0.7,1.3-0.8c1.6-0.5,2.9-0.3,4.2,0.8 c0.8,0.7,1.4,0.7,2,0.1c1.6-1.6,4-1.6,5.6,0c0.7,0.7,1.3,0.5,2,0c0.4-0.3,0.7-0.5,1-0.8c1.4-0.8,3.1-0.5,4.4,0.7 c0.7,0.7,1.3,0.7,2,0.1c1.8-1.6,3.8-1.6,5.6,0C45.6,48.3,45.9,48.4,46.3,48.5z M50.3,25c-0.1,1-0.5,1.8-1.2,2.5 c-0.5,0.5-0.5,1.3,0,1.8c1.6,1.7,1.6,3.9,0,5.6c-0.7,0.7-0.5,1.3,0,2c1.4,1.7,1.4,3.8,0,5.5c-0.7,0.7-0.7,1.3,0,2.1 c1.4,1.7,1.4,4-0.1,5.6c-1.6,1.6-3.9,1.6-5.6,0.1c-0.7-0.7-1.3-0.7-2.1,0c-1.7,1.4-3.9,1.4-5.5,0c-0.7-0.7-1.3-0.5-2,0 c-0.4,0.3-0.8,0.7-1.3,0.8c-1.6,0.7-3,0.4-4.3-0.8c-0.7-0.5-1.3-0.7-1.8-0.1c-0.8,0.7-1.6,1.2-2.6,1.3c0,1-0.5,2-1.2,2.7 c-0.4,0.4-0.5,1-0.3,1.4c0.3,0.5,0.8,0.8,1.3,0.8c0.4-0.1,0.7-0.3,1-0.5c1.6-1.3,3.8-1.3,5.3,0c0.8,0.7,1.3,0.7,2.2,0 c1.6-1.3,3.8-1.3,5.3,0c0.8,0.8,1.4,0.8,2.2,0c1.6-1.4,3.8-1.4,5.3,0c0.8,0.7,1.3,0.7,2.1,0c0.4-0.4,0.9-0.7,1.3-0.8 c1.4-0.5,2.9-0.3,4,0.8c0.4,0.4,0.8,0.7,1.3,0.5c1-0.3,1.4-1.4,0.7-2.3c-1.4-1.7-1.4-3.8,0-5.5c0.7-0.7,0.7-1.3,0-2.1 c-1.4-1.6-1.4-3.8,0-5.5c0.7-0.8,0.7-1.3,0-2.1c-1.4-1.6-1.4-3.8,0-5.3c0.7-0.8,0.7-1.4,0-2.2c-0.7-0.8-1-1.7-1-2.7 c0-1,0.5-2,1.2-2.7c0.5-0.7,0.5-1.3-0.1-1.8c-0.5-0.5-1.3-0.5-1.8,0C52.2,24.4,51.3,25,50.3,25z"></path> </g> </g> </svg> 