<?xml version="1.0" encoding="UTF-8"?> <svg xmlns="http://www.w3.org/2000/svg" xmlns:xlink="http://www.w3.org/1999/xlink" version="1.1" id="Capa_1" x="0px" y="0px" viewBox="0 0 57.8 65.4" style="enable-background:new 0 0 57.8 65.4;" xml:space="preserve"> <style type="text/css"> .st0{fill:#FFFFFF;} </style> <g> <g> <path class="st0" d="M51,23.6c-0.8,0-1.5,0.7-1.5,1.5v5.8h-1.6v-1.3c0-3.3-2.7-5.9-5.9-5.9c-1.8,0-3.4,0.8-4.4,2 c-1.1-1.2-2.7-2-4.4-2c-1.8,0-3.4,0.8-4.4,2c-1.1-1.2-2.7-2-4.4-2c-1.8,0-3.4,0.8-4.4,2c-1.1-1.2-2.7-2-4.4-2 c-3.3,0-5.9,2.7-5.9,5.9v1.3h-3c-0.8,0-1.5,0.7-1.5,1.5c0,0.8,0.7,1.5,1.5,1.5h3v22c0,3.3,2.7,5.9,5.9,5.9c1.8,0,3.4-0.8,4.4-2 c1.1,1.2,2.7,2,4.4,2s3.4-0.8,4.4-2c1.1,1.2,2.7,2,4.4,2c1.8,0,3.4-0.8,4.4-2c1.1,1.2,2.7,2,4.4,2c3.3,0,5.9-2.7,5.9-5.9v-22H51 c0.8,0,1.5-0.7,1.5-1.5V25C52.4,24.2,51.8,23.6,51,23.6z M44.9,33.7v22c0,1.6-1.3,3-3,3s-3-1.3-3-3v-22v-2.9v-1.3c0-1.6,1.3-3,3-3 s3,1.3,3,3v1.3V33.7L44.9,33.7z M36,55.7c0,1.6-1.3,3-3,3s-3-1.3-3-3v-22v-2.9v-1.3c0-1.6,1.3-3,3-3c1.6,0,3,1.3,3,3v1.3v2.9V55.7 z M27.1,55.7c0,1.6-1.3,3-3,3c-1.6,0-3-1.3-3-3v-22v-2.9v-1.3c0-1.6,1.3-3,3-3c1.6,0,3,1.3,3,3v1.3v2.9V55.7z M18.2,55.7 c0,1.6-1.3,3-3,3c-1.6,0-3-1.3-3-3v-22v-2.9v-1.3c0-1.6,1.3-3,3-3c1.6,0,3,1.3,3,3v1.3v2.9V55.7z"></path> <path class="st0" d="M18.8,6.1c-1.3,1.6-1.9,3.3-1.2,5.3c0.6,2,2.6,3.8,1.1,5.9c-1.2,1.5,0.9,3.6,2.1,2.1c1.3-1.7,1.9-3.4,1.2-5.5 c-0.6-1.9-2.6-3.7-1.1-5.6C22.1,6.7,20,4.6,18.8,6.1z"></path> <path class="st0" d="M29.5,19.3c1.3-1.7,1.9-3.4,1.2-5.5c-0.6-1.9-2.6-3.7-1.1-5.6c1.2-1.4-0.9-3.5-2.1-2.1 c-1.3,1.6-1.9,3.3-1.2,5.3c0.6,2,2.6,3.8,1.1,5.9C26.3,18.7,28.4,20.8,29.5,19.3z"></path> <path class="st0" d="M36.5,6.1c-1.3,1.6-1.9,3.3-1.2,5.3c0.6,2,2.6,3.8,1.1,5.9c-1.2,1.5,0.9,3.6,2.1,2.1c1.3-1.7,1.9-3.4,1.2-5.5 C39,11.9,37,10,38.5,8.2C39.8,6.7,37.7,4.6,36.5,6.1z"></path> </g> </g> </svg> 