<?xml version="1.0" encoding="UTF-8"?> <svg xmlns="http://www.w3.org/2000/svg" xmlns:xlink="http://www.w3.org/1999/xlink" version="1.1" id="Layer_1" x="0px" y="0px" viewBox="0 0 64.9 70.3" style="enable-background:new 0 0 64.9 70.3;" xml:space="preserve"> <style type="text/css"> .st0{fill-rule:evenodd;clip-rule:evenodd;fill:#F57E78;} </style> <g transform="translate(-1788 -865)"> <g> <path class="st0" d="M1843.6,903.5c0.4-0.3,0.8-0.7,0.8-1.3s-0.3-1-0.8-1.3l-7.6-3.4v-3.7l7.6-3.4c0.4-0.3,0.8-0.7,0.8-1.3 s-0.3-1-0.8-1.3l-7.6-3.4v-11c0-0.4-0.4-0.8-0.8-0.8s-0.8,0.4-0.8,0.8v10.3l-14.3-6.3c-0.3-0.1-0.7-0.1-1.1,0l-6,2.7 c-0.4,0.1-0.6,0.7-0.4,1.1c0.1,0.4,0.7,0.6,1.1,0.4l5.9-2.5l14.9,6.6v2.1c0,0.4,0.4,0.8,0.8,0.8s0.8-0.4,0.8-0.8v-1.4l6.3,2.8 l-12.5,5.5l-3.8-1.7c-0.4-0.1-0.8,0-1.1,0.4c-0.1,0.4,0,0.8,0.4,1.1l2.4,1l-8.3,3.7l-8.3-3.7l2.4-1c0.4-0.1,0.6-0.7,0.4-1.1 c-0.1-0.4-0.7-0.6-1.1-0.4l-3.8,1.7l-12.5-5.5l6.4-2.8v1.5c0,0.4,0.4,0.8,0.8,0.8s0.8-0.4,0.8-0.8v-2.3l5.6-2.5 c0.4-0.1,0.6-0.7,0.4-1.1c-0.1-0.4-0.7-0.6-1.1-0.4l-4.9,2.2V874c0-0.4-0.4-0.8-0.8-0.8s-0.8,0.4-0.8,0.8v11l-7.7,3.4 c-0.4,0.3-0.8,0.7-0.8,1.3s0.3,1,0.8,1.3l7.7,3.4v3.5l-7.7,3.4c-0.4,0.3-0.8,0.7-0.8,1.3s0.3,1,0.8,1.3l7.7,3.4v4.1l-7.7,3.4 c-0.4,0.3-0.8,0.7-0.8,1.3s0.3,1,0.8,1.3l7.7,3.4v6.3l-1.7-1.3c-0.4-0.3-0.8-0.1-1.1,0.1c-0.3,0.4-0.1,0.8,0.1,1.1l2.9,2.1 c0.1,0.1,0.3,0.1,0.4,0.1s0.3,0,0.4-0.1l2.9-2.1c0.4-0.3,0.4-0.8,0.1-1.1c-0.3-0.4-0.8-0.4-1.1-0.1l-1.4,1.3v-5.6l14.2,6.3 c0.1,0.1,0.4,0.1,0.6,0.1c0.1,0,0.4,0,0.6-0.1l5.3-2.4c0.4-0.1,0.6-0.7,0.4-1.1c-0.1-0.4-0.7-0.6-1.1-0.4l-5.2,2.3l-22.9-10.1 l6.4-2.8v2.4c0,0.4,0.4,0.8,0.8,0.8s0.8-0.4,0.8-0.8v-3.1l5-2.3l9.1,4.1c0.1,0.1,0.4,0.1,0.6,0.1c0.1,0,0.4,0,0.6-0.1l9.1-4.1 l5,2.3v3.1c0,0.4,0.4,0.8,0.8,0.8s0.8-0.4,0.8-0.8v-2.2l6.3,2.8l-14.3,6.3c-0.4,0.1-0.6,0.7-0.4,1.1c0.1,0.3,0.4,0.4,0.7,0.4 c0.1,0,0.3,0,0.3-0.1l5.6-2.5v5.6l-1.7-1.3c-0.4-0.3-0.8-0.1-1.1,0.1c-0.3,0.3-0.1,0.8,0.1,1.1l2.9,2.1c0.1,0.1,0.3,0.1,0.4,0.1 s0.3,0,0.4-0.1l2.9-2.1c0.4-0.3,0.4-0.8,0.1-1.1c-0.3-0.4-0.8-0.4-1.1-0.1l-1.7,1.3v-6.3l7.6-3.4c0.4-0.3,0.8-0.7,0.8-1.3 s-0.3-1-0.8-1.3l-7.6-3.4v-4.2L1843.6,903.5z M1834.4,894.8v2.1l-2.4-1.1L1834.4,894.8z M1804.8,895l2.2,1l-2.2,1V895z M1804.8,910.4v-2.7l2.9,1.3L1804.8,910.4z M1819.5,912.5l-7.7-3.4l1.7-0.7c0.4-0.1,0.6-0.7,0.4-1.1c-0.1-0.4-0.7-0.6-1.1-0.4 l-3.1,1.4l-5.5-2.4l0,0l-7.6-3.4l6.4-2.8v2.8c0,0.4,0.4,0.8,0.8,0.8s0.8-0.4,0.8-0.8V899l4.3-2l9.8,4.4c0.1,0.1,0.4,0.1,0.6,0.1 c0.1,0,0.4,0,0.6-0.1l9.8-4.4l4.5,2v3.5c0,0.4,0.4,0.8,0.8,0.8s0.8-0.4,0.8-0.8v-2.8l6.3,2.8l-13,5.8l-3.1-1.4 c-0.4-0.1-0.8,0-1.1,0.4c-0.1,0.4,0,0.8,0.4,1.1l1.7,0.7L1819.5,912.5z M1834.4,910.4l-3.1-1.4l3.1-1.4V910.4z"></path> <path class="st0" d="M1817.4,893l2-0.8l2,0.8c0.1,0,0.3,0.1,0.3,0.1c0.3,0,0.6-0.1,0.7-0.4c0.1-0.4,0-0.8-0.4-1l-2.2-0.8 c-0.3-0.1-0.7-0.1-1.2,0l-2.2,0.8c-0.4,0.1-0.6,0.6-0.4,1C1816.6,893,1817,893.1,1817.4,893L1817.4,893z"></path> <path class="st0" d="M1822.1,904.8l-2.2-0.8c-0.3-0.1-0.7-0.1-1.2,0l-2.2,0.8c-0.4,0.1-0.6,0.7-0.4,1.1c0.1,0.4,0.7,0.6,1.2,0.4 l2-0.8l2,0.8c0.1,0,0.3,0.1,0.3,0.1c0.3,0,0.6-0.1,0.7-0.4C1822.8,905.5,1822.5,905.1,1822.1,904.8z"></path> </g> </g> </svg> 