<?xml version="1.0" encoding="UTF-8"?> <svg xmlns="http://www.w3.org/2000/svg" xmlns:xlink="http://www.w3.org/1999/xlink" version="1.1" id="Capa_1" x="0px" y="0px" viewBox="0 0 57.8 65.4" style="enable-background:new 0 0 57.8 65.4;" xml:space="preserve"> <style type="text/css"> .st0{fill:#FFFFFF;} </style> <g transform="translate(-187 -615)"> <path class="st0" d="M241.7,632.7c-0.6-0.1-1.2,0.3-1.3,0.9l-1.6,7.8c-0.7-0.3-1.2-0.9-1.8-1.5c-1.1-1.2-2.4-2.6-5-2.6 s-3.9,1.5-5,2.6c-1,1.1-1.7,1.9-3.3,1.9s-2.3-0.8-3.3-1.9c-1.1-1.2-2.4-2.6-5-2.6s-3.9,1.5-5,2.6c-1,1.1-1.7,1.9-3.3,1.9 s-2.3-0.8-3.3-1.9c-1.1-1.2-2.4-2.6-5-2.6s-3.9,1.5-5,2.6c-0.6,0.7-1.1,1.2-1.8,1.5l-1.6-7.8c-0.1-0.6-0.7-1-1.3-0.9 s-1,0.7-0.9,1.3l6.2,31.2c0.4,2.1,2.3,3.6,4.4,3.6h32.9c2.1,0,4-1.5,4.4-3.6l6.2-31.2C242.7,633.4,242.3,632.8,241.7,632.7z M234.2,664.7c-0.2,1.1-1.1,1.8-2.2,1.8h-32.9c-1.1,0-2-0.8-2.2-1.8l-4.2-21.2c1.3-0.5,2.2-1.4,3-2.3c1-1.1,1.7-1.9,3.3-1.9 s2.3,0.8,3.3,1.9c1.1,1.2,2.4,2.6,5,2.6s3.9-1.5,5-2.6c1-1.1,1.7-1.9,3.3-1.9s2.3,0.8,3.3,1.9c1.1,1.2,2.4,2.6,5,2.6s3.9-1.5,5-2.6 c1-1.1,1.7-1.9,3.3-1.9s2.3,0.8,3.3,1.9c0.8,0.9,1.7,1.8,3,2.3L234.2,664.7z"></path> </g> </svg> 