<?xml version="1.0" encoding="UTF-8"?> <svg xmlns="http://www.w3.org/2000/svg" xmlns:xlink="http://www.w3.org/1999/xlink" version="1.1" id="Capa_1" x="0px" y="0px" viewBox="0 0 79 81" style="enable-background:new 0 0 79 81;" xml:space="preserve"> <style type="text/css"> .st0{fill:#FB877F;} </style> <g> <path class="st0" d="M47.8,52.8c-1.7-0.1-3-0.7-4.1-1.9c-0.4-0.4-0.7-0.8-1.1-1.2c-1.2-1.1-2.9-1.1-4.1,0c-0.4,0.3-0.8,0.7-1.1,1.1 c-2.3,2.6-6,2.6-8.3,0c-0.3-0.3-0.6-0.7-0.9-1c-1.3-1.3-3.1-1.3-4.5,0c-0.3,0.3-0.6,0.6-0.9,1c-2.3,2.6-6,2.6-8.3,0 C13.7,50,13.1,49.2,12,49c-0.2,0-0.5-0.1-0.7-0.1c-0.6-0.1-1-0.5-0.9-1c0-0.6,0.4-1,1-0.9c1.6,0.1,3,0.7,4,2 c0.4,0.4,0.7,0.8,1.1,1.2c1.2,1,2.9,1,4.1,0c0.4-0.3,0.7-0.7,1.1-1.1c2.3-2.6,6-2.6,8.3,0c0.4,0.4,0.8,0.9,1.2,1.2c1.2,1,2.8,1,4,0 c0.4-0.4,0.8-0.8,1.1-1.2c2.2-2.6,6.1-2.7,8.3,0c0.3,0.4,0.7,0.8,1.1,1.1c1.2,1.1,3,1.1,4.2,0c0.4-0.3,0.7-0.7,1-1.1 c2.1-2.6,6.1-2.6,8.3,0c0.4,0.4,0.8,0.9,1.2,1.2c1.2,1,2.9,1,4.1,0c0.4-0.3,0.7-0.7,1.1-1.1c1-1.1,2.2-1.8,3.7-2c0.2,0,0.4,0,0.5,0 c0.5,0.1,0.8,0.4,0.9,0.9c0.1,0.5-0.3,1-0.8,1c-1.4,0-2.3,0.8-3.1,1.7c-2.5,2.9-6.1,2.9-8.6,0c-0.9-1-1.8-1.8-3.3-1.7 c-1.3,0.1-2.1,1-2.9,1.9C50.9,52.1,49.5,52.8,47.8,52.8z"></path> <path class="st0" d="M40.5,44c-9.5,0-18.9,0-28.4,0c-0.1,0-0.3,0-0.4,0c-0.9,0-1.3-0.3-1.3-1c0-0.6,0.5-1,1.3-1 c19.2,0,38.4,0,57.7,0c0.2,0,0.4,0,0.5,0c0.5,0.1,0.8,0.4,0.8,0.9c0,0.5-0.3,0.8-0.8,1c-0.2,0.1-0.4,0-0.7,0C59.6,44,50,44,40.5,44 z"></path> <path class="st0" d="M63.5,31.5c-0.1,0.2-0.3,0.6-0.6,0.7c-2.6,1-3.8,3.2-4.7,5.7c-0.1,0.2-0.1,0.4-0.2,0.6 c-0.3,0.3-0.6,0.6-0.9,0.6c-0.3,0-0.7-0.3-0.9-0.6c-0.3-0.5-0.4-1-0.6-1.5C54.9,35.4,54,34,52.7,33c-0.4-0.3-1-0.5-1.4-0.8 c-0.3-0.2-0.6-0.6-0.6-0.9c0-0.3,0.3-0.8,0.5-0.9c2.6-1,3.8-3.1,4.7-5.6c0.1-0.2,0.1-0.4,0.2-0.6c0.1-0.5,0.5-0.8,1-0.8 c0.5,0,0.8,0.3,0.9,0.8c0.4,1.4,1.1,2.8,2,3.9c0.7,0.9,1.6,1.7,2.7,2.1C63.1,30.5,63.4,30.9,63.5,31.5z M53.7,31.3 c1.4,1.1,2.5,2.4,3.3,4.1c0.8-1.7,1.9-3,3.3-4.1c-1.4-1.1-2.5-2.4-3.3-4.1C56.2,28.9,55.1,30.2,53.7,31.3z"></path> <path class="st0" d="M26.1,34.7c-0.3,0.4-0.5,0.7-0.7,0.9c-1.9,0.8-2.7,2.3-3.3,4.1c0,0.1,0,0.1,0,0.2c-0.2,0.4-0.5,0.7-0.9,0.7 c-0.5,0-0.8-0.3-0.9-0.7c-0.2-0.5-0.4-1-0.6-1.5c-0.6-1.2-1.4-2.2-2.7-2.7c-0.3-0.1-0.6-0.6-0.6-0.9c0-0.3,0.3-0.8,0.6-0.9 c1.7-0.7,2.5-2.1,3.2-3.7c0.1-0.2,0.1-0.4,0.2-0.5c0.2-0.4,0.5-0.7,0.9-0.7c0.5,0,0.8,0.3,0.9,0.7c0.2,0.5,0.4,1.1,0.6,1.6 c0.6,1.2,1.4,2.1,2.6,2.7C25.5,34,25.7,34.4,26.1,34.7z M19.2,34.8c0.6,0.7,1.2,1.5,1.8,2.2c0.6-0.7,1.2-1.5,1.8-2.2 c-0.6-0.7-1.2-1.5-1.8-2.2C20.4,33.3,19.8,34,19.2,34.8z"></path> <path class="st0" d="M45.5,19.6c-0.3,0.4-0.5,0.8-0.7,0.9c-1.9,0.7-2.7,2.3-3.3,4c0,0.1,0,0.2-0.1,0.3c-0.3,0.2-0.6,0.6-0.9,0.6 c-0.3,0-0.7-0.3-0.9-0.6c-0.3-0.5-0.4-1-0.6-1.5c-0.6-1.2-1.4-2.2-2.7-2.8c-0.3-0.1-0.6-0.6-0.6-0.9c0-0.3,0.3-0.8,0.6-0.9 c1.7-0.7,2.5-2.1,3.2-3.7c0.1-0.2,0.1-0.3,0.2-0.5c0.2-0.4,0.5-0.7,0.9-0.7c0.5,0,0.8,0.3,0.9,0.7c0.3,0.7,0.5,1.4,0.9,2.1 c0.5,1,1.3,1.7,2.3,2.1C45,18.9,45.2,19.2,45.5,19.6z M40.5,17.5c-0.6,0.7-1.2,1.4-1.8,2.2c0.6,0.7,1.2,1.5,1.8,2.2 c0.6-0.7,1.2-1.5,1.8-2.2C41.7,18.9,41.1,18.2,40.5,17.5z"></path> <path class="st0" d="M12.3,56.7c0.3,0,0.7,0,1,0c0.5,0,0.9,0.4,0.9,1c0,0.5-0.4,0.9-0.9,1c-0.7,0-1.4,0-2.1,0c-0.5,0-0.9-0.4-0.9-1 c0-0.5,0.4-0.9,0.9-1C11.6,56.7,11.9,56.7,12.3,56.7z"></path> <path class="st0" d="M21,58.6c-0.3,0-0.7,0-1,0c-0.5,0-0.9-0.5-0.9-1c0-0.5,0.4-0.9,0.9-1c0.7,0,1.4,0,2.1,0c0.5,0,0.9,0.5,0.9,1 c0,0.5-0.4,0.9-0.9,1C21.7,58.7,21.3,58.6,21,58.6z"></path> <path class="st0" d="M30.7,58.7c-0.3,0-0.6,0-1,0c-0.6,0-1-0.4-1-1c0-0.5,0.4-0.9,0.9-0.9c0.7,0,1.4,0,2.1,0c0.5,0,0.9,0.5,0.9,1 c0,0.5-0.4,0.9-0.9,1C31.4,58.7,31.1,58.6,30.7,58.7C30.7,58.6,30.7,58.7,30.7,58.7z"></path> <path class="st0" d="M40.4,58.7c-0.3,0-0.7,0-1,0c-0.5,0-0.9-0.4-0.9-0.9c0-0.5,0.4-1,0.9-1c0.7,0,1.3,0,2,0c0.5,0,0.9,0.4,0.9,0.9 c0,0.5-0.4,1-0.9,1C41.1,58.7,40.8,58.7,40.4,58.7z"></path> <path class="st0" d="M50.2,58.7c-0.3,0-0.7,0-1,0c-0.6,0-1-0.5-0.9-1c0-0.5,0.4-0.9,0.9-0.9c0.7,0,1.3,0,2,0c0.6,0,1,0.5,0.9,1 c0,0.5-0.4,0.9-0.9,0.9C50.9,58.7,50.5,58.6,50.2,58.7z"></path> <path class="st0" d="M59.9,58.7c-0.3,0-0.7,0-1,0c-0.6,0-1-0.5-0.9-1c0-0.5,0.4-0.9,0.9-0.9c0.7,0,1.3,0,2,0c0.6,0,1,0.5,0.9,1 c0,0.5-0.4,0.9-0.9,0.9C60.6,58.7,60.3,58.6,59.9,58.7z"></path> <path class="st0" d="M68.7,58.7c-0.3,0-0.7,0-1,0c-0.5,0-0.9-0.4-0.9-0.9c0-0.5,0.4-1,0.9-1c0.7,0,1.3,0,2,0c0.5,0,0.9,0.4,0.9,0.9 c0,0.5-0.4,1-0.9,1C69.3,58.7,69,58.7,68.7,58.7z"></path> <path class="st0" d="M16.1,64.5c-0.3,0-0.7,0-1,0c-0.5,0-0.9-0.4-0.9-0.9c0-0.5,0.4-1,0.9-1c0.7,0,1.3,0,2,0c0.5,0,0.9,0.4,0.9,0.9 c0,0.5-0.4,1-0.9,1C16.8,64.5,16.4,64.5,16.1,64.5z"></path> <path class="st0" d="M25.8,64.5c-0.3,0-0.7,0-1,0c-0.6,0-1-0.5-0.9-1c0-0.5,0.4-0.9,0.9-0.9c0.7,0,1.3,0,2,0c0.6,0,1,0.5,0.9,1 c0,0.5-0.4,0.9-0.9,0.9C26.5,64.5,26.2,64.5,25.8,64.5z"></path> <path class="st0" d="M35.6,64.5c-0.3,0-0.7,0-1,0c-0.5,0-0.9-0.4-0.9-0.9c0-0.5,0.4-1,1-1c0.7,0,1.3,0,2,0c0.5,0,0.9,0.4,0.9,0.9 c0,0.5-0.4,0.9-1,1C36.2,64.5,35.9,64.5,35.6,64.5z"></path> <path class="st0" d="M45.3,62.6c0.3,0,0.7,0,1,0c0.5,0,0.9,0.4,0.9,1c0,0.5-0.4,0.9-0.9,1c-0.7,0-1.4,0-2.1,0c-0.5,0-0.9-0.4-0.9-1 c0-0.5,0.4-0.9,1-1C44.7,62.5,45,62.6,45.3,62.6C45.3,62.6,45.3,62.6,45.3,62.6z"></path> <path class="st0" d="M55.1,62.6c0.3,0,0.6,0,1,0c0.6,0,1,0.4,1,1c0,0.5-0.4,0.9-0.9,0.9c-0.7,0-1.4,0-2.1,0c-0.5,0-0.9-0.5-0.9-1 c0-0.5,0.4-0.9,0.9-1c0,0,0.1,0,0.1,0C54.5,62.6,54.8,62.6,55.1,62.6C55.1,62.6,55.1,62.6,55.1,62.6z"></path> <path class="st0" d="M64.8,64.5c-0.3,0-0.7,0-1,0c-0.6,0-1-0.5-0.9-1c0-0.5,0.4-0.9,0.9-0.9c0.7,0,1.3,0,2,0c0.5,0,0.9,0.4,0.9,0.9 c0,0.5-0.4,1-0.9,1C65.5,64.5,65.1,64.5,64.8,64.5z"></path> <path class="st0" d="M21,67.4c0.3,0,0.7,0,1,0c0.5,0,0.9,0.4,0.9,0.9c0,0.5-0.4,1-0.9,1c-0.7,0-1.3,0-2,0c-0.5,0-0.9-0.4-0.9-0.9 c0-0.5,0.4-0.9,0.9-1C20.3,67.4,20.7,67.4,21,67.4z"></path> <path class="st0" d="M30.7,69.4c-0.3,0-0.6,0-1,0c-0.6,0-1-0.4-1-1c0-0.5,0.4-1,1-1c0.6,0,1.3,0,1.9,0c0.6,0,1,0.4,1,1 c0,0.5-0.4,0.9-1,1C31.4,69.4,31.1,69.4,30.7,69.4z"></path> <path class="st0" d="M40.5,67.4c0.3,0,0.7,0,1,0c0.5,0,0.9,0.4,0.9,1c0,0.5-0.4,0.9-0.9,1c-0.7,0-1.4,0-2.1,0c-0.5,0-0.9-0.4-0.9-1 c0-0.5,0.4-0.9,0.9-1C39.8,67.4,40.2,67.4,40.5,67.4z"></path> <path class="st0" d="M50.3,67.4c0.3,0,0.7,0,1,0c0.5,0,0.9,0.5,0.9,1c0,0.5-0.4,0.9-0.9,1c-0.7,0-1.4,0-2.1,0c-0.5,0-0.9-0.5-0.9-1 c0-0.5,0.4-0.9,0.9-1C49.5,67.4,49.9,67.4,50.3,67.4z"></path> <path class="st0" d="M59.9,69.4c-0.3,0-0.7,0-1,0c-0.6,0-1-0.5-0.9-1c0-0.5,0.4-0.9,0.9-0.9c0.7,0,1.3,0,2,0c0.6,0,1,0.5,0.9,1 c0,0.5-0.4,0.9-0.9,0.9C60.6,69.4,60.3,69.4,59.9,69.4z"></path> </g> </svg> 