<?xml version="1.0" encoding="UTF-8"?> <svg xmlns="http://www.w3.org/2000/svg" xmlns:xlink="http://www.w3.org/1999/xlink" version="1.1" id="Capa_1" x="0px" y="0px" viewBox="0 0 57.8 65.4" style="enable-background:new 0 0 57.8 65.4;" xml:space="preserve"> <style type="text/css"> .st0{fill:#40C49E;} </style> <g transform="translate(-714 -188)"> <path class="st0" d="M761.9,211.7c0.5,0.2,0.9,0.6,1.3,1c0.3,0.3,0.8,0.3,1.1,0c0.2-0.1,0.2-0.3,0.2-0.6v-5.2 c0-0.3-0.2-0.6-0.5-0.7c-1.9-0.8-3.9-1.1-5.9-0.7v-4.3c0-0.4-0.3-0.8-0.8-0.8h-4.7c-0.4,0-0.8,0.3-0.8,0.8v6.7 c-1.6,0.9-3.3,1.6-5.1,2.2v-8.8c0-0.4-0.3-0.8-0.8-0.8h-4.7c-0.4,0-0.8,0.3-0.8,0.8v8.8c-1.8-0.6-3.5-1.3-5.1-2.2v-6.7 c0-0.4-0.3-0.8-0.8-0.8h-4.7c-0.4,0-0.8,0.3-0.8,0.8v4.3c-2-0.3-4.1-0.1-5.9,0.7c-0.3,0.1-0.5,0.4-0.5,0.7v5.2 c0,0.4,0.3,0.8,0.8,0.8c0.2,0,0.4-0.1,0.5-0.2c0.4-0.4,0.8-0.7,1.3-1c1.2-0.5,2.5-0.6,3.7-0.2v4.3c-2-0.3-4.1-0.1-5.9,0.7 c-0.3,0.1-0.5,0.4-0.5,0.7v5.2c0,0.4,0.3,0.8,0.8,0.8c0.2,0,0.4-0.1,0.5-0.2c0.4-0.4,0.8-0.7,1.3-1c1.2-0.5,2.5-0.6,3.7-0.2v4.3 c-2-0.3-4.1-0.1-5.9,0.7c-0.3,0.1-0.5,0.4-0.5,0.7v5.2c0,0.4,0.3,0.8,0.8,0.8c0.2,0,0.4-0.1,0.5-0.2c0.4-0.4,0.8-0.7,1.3-1 c1.2-0.5,2.5-0.6,3.7-0.2v9c0,0.4,0.3,0.8,0.8,0.8h4.7c0.4,0,0.8-0.3,0.8-0.8V235c1.6,0.7,3.4,1.3,5.1,1.7v4.5 c0,0.4,0.3,0.8,0.8,0.8h4.7c0.4,0,0.8-0.3,0.8-0.8v-4.5c1.8-0.4,3.5-0.9,5.1-1.7v6.2c0,0.4,0.3,0.8,0.8,0.8h4.7 c0.4,0,0.8-0.3,0.8-0.8v-9c1.2-0.4,2.6-0.4,3.7,0.2c0.5,0.2,0.9,0.6,1.3,1c0.3,0.3,0.8,0.3,1.1,0c0.2-0.1,0.2-0.3,0.2-0.6v-5.2 c0-0.3-0.2-0.6-0.5-0.7c-1.9-0.8-3.9-1.1-5.9-0.7v-4.3c1.2-0.4,2.6-0.4,3.7,0.2c0.5,0.2,0.9,0.6,1.3,1c0.3,0.3,0.8,0.3,1.1,0 c0.2-0.1,0.2-0.3,0.2-0.6v-5.2c0-0.3-0.2-0.6-0.5-0.7c-1.9-0.8-3.9-1.1-5.9-0.7v-4.3C759.4,211.1,760.7,211.2,761.9,211.7z M756.6,201.9v3.9c-1.1,0.3-2.1,0.7-3.1,1.2v-5.1H756.6z M754,208.5c1.1-0.6,2.3-1.1,3.6-1.4c0,0,0,0,0.1,0 c1.8-0.5,3.7-0.4,5.4,0.3v3.1c-0.1-0.1-0.3-0.2-0.5-0.2c-2-1-4.5-0.7-7.3,0.7c-2.8,1.5-5.6,2.8-8.4,3.4v-2.9 C749.1,211,751.4,209.8,754,208.5z M740.7,230.6c-1.8-0.6-3.5-1.3-5.1-2.2v-3.8c1.6,0.8,3.4,1.3,5.1,1.7V230.6z M740.7,216v4.3 c-1.8-0.6-3.5-1.3-5.1-2.2v-3.8C737.2,215.1,738.9,215.7,740.7,216z M735.6,223v-3.2c1.8,0.9,3.7,1.7,5.7,2.1c0,0,0.1,0,0.1,0 c1.6,0.4,3.3,0.4,4.9,0c0,0,0.1,0,0.1,0c2-0.5,3.9-1.2,5.7-2.1v3.2c-3.2,1.5-5.7,2.1-8.2,2.1C741.3,225.2,738.8,224.5,735.6,223z M746.8,226.4c1.8-0.4,3.5-0.9,5.1-1.7v3.8c-1.6,0.9-3.3,1.6-5.1,2.2V226.4z M752,218.2c-1.6,0.9-3.3,1.6-5.1,2.2V216 c1.8-0.4,3.5-0.9,5.1-1.7V218.2z M745.3,201.9v18.7c-1,0.2-2.1,0.2-3.1,0v-18.7H745.3z M730.9,201.9h3.1v5.1 c-1-0.5-2.1-0.9-3.1-1.2V201.9z M725,210.3c-0.2,0.1-0.3,0.2-0.5,0.2v-3.1c1.7-0.6,3.6-0.7,5.4-0.3c0,0,0,0,0.1,0 c1.2,0.3,2.4,0.8,3.6,1.4c2.5,1.3,4.8,2.5,7.1,3v2.9c-2.8-0.6-5.6-2-8.4-3.4C729.4,209.6,727,209.3,725,210.3z M725,220.6 c-0.2,0.1-0.3,0.2-0.5,0.2v-3.1c1.6-0.6,3.2-0.7,4.9-0.4v2.9C727.9,219.9,726.4,220,725,220.6L725,220.6z M730.9,212.1 c0.2,0.1,0.4,0.2,0.6,0.3c0.8,0.4,1.7,0.9,2.5,1.3v14c-1-0.5-2.1-0.9-3.1-1.2V212.1z M734,240.4h-3.1v-7.7c0.2,0.1,0.4,0.2,0.6,0.3 c0.8,0.4,1.7,0.9,2.5,1.3V240.4z M732.2,231.7c-2.8-1.5-5.2-1.7-7.3-0.7c-0.2,0.1-0.3,0.2-0.5,0.2V228c1.7-0.6,3.6-0.7,5.4-0.3 c0,0,0,0,0.1,0c1.2,0.3,2.4,0.8,3.6,1.4c2.4,1.3,4.8,2.4,7.1,3v2.9C737.8,234.5,735.1,233.2,732.2,231.7z M742.2,240.4v-13.8 c0.5,0.1,1,0.1,1.6,0.1c0.5,0,1.1,0,1.6-0.1v13.8H742.2z M756.6,240.4h-3.1v-6.1c0.8-0.4,1.7-0.8,2.5-1.3c0.2-0.1,0.4-0.2,0.6-0.3 L756.6,240.4z M763,228v3.1c-0.1-0.1-0.3-0.2-0.5-0.2c-2-1-4.5-0.7-7.3,0.7c-2.8,1.5-5.6,2.8-8.4,3.4v-2.9c2.3-0.6,4.7-1.8,7.1-3 c1.1-0.6,2.3-1.1,3.6-1.4c0,0,0,0,0.1,0C759.4,227.3,761.3,227.4,763,228z M763,217.7v3.1c-0.1-0.1-0.3-0.2-0.5-0.2 c-1.4-0.6-2.9-0.8-4.4-0.4v-2.9C759.8,217,761.4,217.2,763,217.7z M756.6,226.4c-1.1,0.3-2.1,0.7-3.1,1.2v-14 c0.8-0.4,1.7-0.8,2.5-1.3c0.2-0.1,0.4-0.2,0.6-0.3V226.4z"></path> </g> </svg> 