<?xml version="1.0" encoding="UTF-8"?> <svg xmlns="http://www.w3.org/2000/svg" xmlns:xlink="http://www.w3.org/1999/xlink" version="1.1" id="Layer_1" x="0px" y="0px" viewBox="0 0 45 45" style="enable-background:new 0 0 45 45;" xml:space="preserve"> <style type="text/css"> .st0{fill:#F7817A;} .st1{fill:none;} </style> <rect x="0.1" y="-0.1" class="st0" width="45" height="45.1"></rect> <rect x="0.3" y="0.2" class="st1" width="44.8" height="44.8"></rect> <g> <path d="M34.9,17.5L32.4,18c-0.7,0.1-1.2,0.9-1.1,1.6l1.6,10.3c0.1,0.7,0.8,1.2,1.5,1.1l2.5-0.5c0.7-0.1,1.2-0.9,1.1-1.6l-1.6-10.3 C36.4,17.9,35.7,17.4,34.9,17.5z"></path> <path d="M23.7,28.8l-2.5,0.5c-0.7,0.1-1.2,0.9-1.1,1.6l1.6,10.3c0.1,0.7,0.8,1.2,1.5,1.1l2.5-0.5c0.7-0.1,1.2-0.9,1.1-1.6 l-1.6-10.3C25.1,29.1,24.4,28.6,23.7,28.8z"></path> <path d="M22.9,5.6l-2.5,0.5c-0.7,0.1-1.2,0.9-1.1,1.6l1.6,10.3c0.1,0.7,0.8,1.2,1.5,1.1l2.5-0.5c0.7-0.1,1.2-0.9,1.1-1.6L24.5,6.6 C24.4,5.9,23.7,5.4,22.9,5.6z"></path> <path d="M11.7,16.8l-2.5,0.5c-0.7,0.1-1.2,0.9-1.1,1.6l1.6,10.3c0.1,0.7,0.8,1.2,1.5,1.1l2.5-0.5c0.7-0.1,1.2-0.9,1.1-1.6 l-1.6-10.3C13.1,17.1,12.5,16.6,11.7,16.8z"></path> </g> </svg> 