<?xml version="1.0" encoding="UTF-8"?> <svg xmlns="http://www.w3.org/2000/svg" xmlns:xlink="http://www.w3.org/1999/xlink" version="1.1" id="Capa_1" x="0px" y="0px" viewBox="0 0 57.8 65.4" style="enable-background:new 0 0 57.8 65.4;" xml:space="preserve"> <style type="text/css"> .st0{fill:#40C29A;} </style> <g> <g> <path id="XMLID_00000161594270090417621830000009641179772598516897_" class="st0" d="M41.7,41.7l-6.5,4.5c-0.1,0-0.1,0.1-0.2,0 L29.1,45c-0.4-0.1-0.7,0.2-0.8,0.5c-0.1,0.4,0.2,0.7,0.5,0.8l5.9,1.2c0.1,0,0.2,0,0.3,0c0.3,0,0.6-0.1,0.9-0.3l6.5-4.5 c0.3-0.2,0.4-0.6,0.2-0.9C42.4,41.6,42,41.5,41.7,41.7z"></path> <path id="XMLID_00000178200103554236887140000014692779977555091883_" class="st0" d="M51.2,29.2c-0.1-0.6-0.6-1.1-1.2-1.2 l-2.6-0.5c0,0,0,0,0,0l-0.8-0.2l4-2.8c0.5-0.4,0.8-1,0.7-1.6c-0.1-0.6-0.6-1.1-1.2-1.2l-18-3.7c-0.4-0.1-0.7,0.2-0.8,0.5 c-0.1,0.4,0.2,0.7,0.5,0.8l18,3.7c0.2,0,0.2,0.1,0.2,0.2c0,0.1,0,0.2-0.1,0.3l-6.1,4.2L36.1,23c-0.5-0.3-1.1-0.3-1.6,0l-13.2,7.6 L7.7,27.8c-0.2,0-0.2-0.1-0.2-0.2c0-0.1,0-0.2,0.1-0.3l14.6-10.1c0.1,0,0.1-0.1,0.2,0l6.1,1.3c0.4,0.1,0.7-0.2,0.8-0.5 c0.1-0.4-0.2-0.7-0.5-0.8l-6.1-1.3c-0.4-0.1-0.9,0-1.2,0.3L6.8,26.2c-0.5,0.4-0.8,1-0.7,1.6c0.1,0.6,0.6,1.1,1.2,1.2l3.4,0.7 l-4,2.8c-0.5,0.4-0.8,1-0.7,1.6c0.1,0.6,0.6,1.1,1.2,1.2l3.4,0.7l-4,2.8c-0.5,0.4-0.8,1-0.7,1.6c0.1,0.6,0.6,1.1,1.2,1.2l18.1,3.8 c0,0,0.1,0,0.1,0c0.3,0,0.6-0.2,0.6-0.5c0.1-0.4-0.2-0.7-0.5-0.8L7.7,40.5c-0.2,0-0.2-0.1-0.2-0.2s0-0.2,0.1-0.3l5-3.5l22.1,4.6 c0.1,0,0.2,0,0.3,0c0.3,0,0.6-0.1,0.9-0.3l9.1-6.3l4.7,1c0.2,0,0.2,0.1,0.2,0.2c0,0.1,0,0.2-0.1,0.3l-5.5,3.8 c-0.3,0.2-0.4,0.6-0.2,0.9c0.1,0.2,0.3,0.3,0.5,0.3c0.1,0,0.3,0,0.4-0.1l5.5-3.8c0.5-0.4,0.8-1,0.7-1.6c-0.1-0.6-0.6-1.1-1.2-1.2 l-3.4-0.7l4-2.8C51.1,30.4,51.4,29.8,51.2,29.2z M46.6,28.5v3.4l-2.1,1.5v-4.8l0.6-0.4L46.6,28.5z M39.9,29.5v7.1l-2.1,1.5v-8.3 L39.9,29.5z M41.2,29.4l1.9-0.3v5.2l-1.9,1.3V29.4z M35.1,24.1c0.1-0.1,0.2,0,0.3,0l6.4,3.8l-17.2,2.3L35.1,24.1z M17.5,31.2 l2.1,0.4v5l-2.1-0.4V31.2z M16.2,35.9l-1.9-0.4v-5l1.9,0.4V35.9z M21,31.9l0.2,0c0.1,0,0.1,0,0.2,0l1.5-0.2v5.6L21,36.9V31.9z M24.3,31.6l2.1-0.3v6.8l-2.1-0.4V31.6z M27.7,31.1l1.9-0.3v7.9l-1.9-0.4L27.7,31.1L27.7,31.1z M31,30.7l2.1-0.3v9L31,39V30.7z M13,30.2v5l-2.1-0.4v-3.4l1.8-1.2L13,30.2z M7.5,33.9c0-0.1,0-0.2,0.1-0.3l1.9-1.3v2.2l-1.8-0.4C7.5,34.1,7.5,34,7.5,33.9z M35.2,39.8c-0.1,0-0.1,0.1-0.2,0l-0.5-0.1v-9.5l1.9-0.3v9L35.2,39.8z M49.8,29.7L47.9,31v-2.2l1.8,0.4c0.2,0,0.2,0.1,0.2,0.2 C50,29.5,50,29.6,49.8,29.7z"></path> </g> </g> </svg> 