<?xml version="1.0" encoding="UTF-8"?> <svg xmlns="http://www.w3.org/2000/svg" xmlns:xlink="http://www.w3.org/1999/xlink" version="1.1" id="Capa_1" x="0px" y="0px" viewBox="0 0 106 101" style="enable-background:new 0 0 106 101;" xml:space="preserve"> <style type="text/css"> .st0{fill:#5BC89E;} </style> <g> <g> <g> <path class="st0" d="M57.6,50.1c-0.2-0.3-0.6-0.5-1-0.5h-3.4l1.9-4.8c0.2-0.6-0.1-1.3-0.7-1.6c-0.6-0.2-1.3,0.1-1.6,0.7l-2.6,6.4 c-0.1,0.4-0.1,0.8,0.1,1.1c0.2,0.3,0.6,0.5,1,0.5h3.4l-1.9,4.8c-0.2,0.6,0.1,1.3,0.7,1.6c0.1,0.1,0.3,0.1,0.4,0.1 c0.5,0,0.9-0.3,1.1-0.8l2.6-6.4C57.8,50.8,57.8,50.4,57.6,50.1z"></path> </g> </g> <g> <g> <path class="st0" d="M88.3,16.7c-4.3-4.3-9.9-6.8-16-6.9c-6-0.1-11.8,2.2-16.2,6.6c-4.5,4.5-7.2,10.7-7.2,17V38H45 c-2.1,0-3.8,1.7-3.8,3.8v17.9c0,2.1,1.7,3.8,3.8,3.8H49v5.2c0,3.6-1.5,7.1-4.2,9.5c-2.7,2.5-6.2,3.6-9.9,3.3 c-6.5-0.6-11.7-6.4-11.7-13.3c0-0.7-0.5-1.2-1.2-1.2s-1.2,0.5-1.2,1.2c0,3.9,1.4,7.6,3.9,10.5c2.6,3,6.1,4.8,9.9,5.1 c0.5,0,1,0.1,1.5,0.1c3.8,0,7.4-1.4,10.3-4c3.2-2.9,5-7,5-11.3v-5.2h5.3v4.6c0,5.7-2.3,11.2-6.4,15.3c-4,3.9-9.1,6-14.5,5.9 c-5.4-0.1-10.5-2.3-14.3-6.1c-3.8-3.9-5.9-9-5.9-14.4V52.1c0,0,0-0.1,0.1-0.1h5.1c0,0,0.1,0,0.1,0.1v11.1c0,0.7,0.5,1.2,1.2,1.2 c0.7,0,1.2-0.5,1.2-1.2V52.1c0-1.4-1.1-2.5-2.5-2.5h-1.4v-6.5c0-0.7-0.5-1.2-1.2-1.2c-0.7,0-1.2,0.5-1.2,1.2v6.5h-1.4 c-1.4,0-2.5,1.1-2.5,2.5v16.7c0,6.1,2.3,11.8,6.6,16.1c4.3,4.3,9.9,6.8,16,6.9c0.1,0,0.2,0,0.4,0c5.9,0,11.5-2.3,15.8-6.6 c4.5-4.5,7.2-10.7,7.2-17v-4.6H63c2.1,0,3.8-1.7,3.8-3.8V41.8c0-2.1-1.7-3.8-3.8-3.8H59v-5.2c0-3.6,1.5-7.1,4.2-9.5 c2.7-2.5,6.2-3.6,9.9-3.3c6.5,0.6,11.7,6.4,11.7,13.3c0,0.7,0.5,1.2,1.2,1.2s1.2-0.5,1.2-1.2c0-3.9-1.4-7.6-3.9-10.5 c-2.6-3-6.1-4.8-9.9-5.1c-4.4-0.4-8.5,1-11.8,3.9c-3.2,2.9-5,7-5,11.3V38h-5.3v-4.6c0-5.7,2.3-11.2,6.4-15.3 c4-3.9,9.1-6,14.5-5.9c5.4,0.1,10.5,2.3,14.3,6.1c3.8,3.9,5.9,9,5.9,14.4v16.7c0,0,0,0.1-0.1,0.1h-5.1c0,0-0.1,0-0.1-0.1V38.4 c0-0.7-0.5-1.2-1.2-1.2s-1.2,0.5-1.2,1.2v11.1c0,1.4,1.1,2.5,2.5,2.5h1.4v6.5c0,0.7,0.5,1.2,1.2,1.2c0.7,0,1.2-0.5,1.2-1.2V52 h1.4c1.4,0,2.5-1.1,2.5-2.5V32.8C94.9,26.8,92.6,21,88.3,16.7z M63,40.4c0.8,0,1.4,0.6,1.4,1.4v17.9c0,0.8-0.6,1.4-1.4,1.4H45 c-0.8,0-1.4-0.6-1.4-1.4V41.8c0-0.8,0.6-1.4,1.4-1.4H63z"></path> </g> </g> <g> <g> <path class="st0" d="M16.6,38.7l-1.3-2.6c-0.3-0.6-1-0.8-1.6-0.5c-0.6,0.3-0.8,1-0.5,1.6l1.3,2.6c0.2,0.4,0.6,0.7,1.1,0.7 c0.2,0,0.4,0,0.5-0.1C16.7,40,16.9,39.3,16.6,38.7z"></path> </g> </g> <g> <g> <path class="st0" d="M22.5,35.6c-0.6-0.3-1.3-0.1-1.6,0.5l-1.3,2.6c-0.3,0.6-0.1,1.3,0.5,1.6c0.2,0.1,0.4,0.1,0.5,0.1 c0.4,0,0.9-0.2,1.1-0.7l1.3-2.6C23.3,36.6,23.1,35.9,22.5,35.6z"></path> </g> </g> <g> <g> <path class="st0" d="M94.8,64.3l-1.3-2.6c-0.3-0.6-1-0.8-1.6-0.5c-0.6,0.3-0.8,1-0.5,1.6l1.3,2.6c0.2,0.4,0.6,0.7,1.1,0.7 c0.2,0,0.4,0,0.5-0.1C94.9,65.6,95.1,64.9,94.8,64.3z"></path> </g> </g> <g> <g> <path class="st0" d="M87.9,61.2c-0.6-0.3-1.3-0.1-1.6,0.5L85,64.3c-0.3,0.6-0.1,1.3,0.5,1.6c0.2,0.1,0.4,0.1,0.5,0.1 c0.4,0,0.9-0.2,1.1-0.7l1.3-2.6C88.7,62.2,88.5,61.5,87.9,61.2z"></path> </g> </g> </g> </svg> 