<?xml version="1.0" encoding="UTF-8"?> <svg xmlns="http://www.w3.org/2000/svg" xmlns:xlink="http://www.w3.org/1999/xlink" version="1.1" id="Layer_1" x="0px" y="0px" viewBox="0 0 31.9 33.8" style="enable-background:new 0 0 31.9 33.8;" xml:space="preserve"> <style type="text/css"> .st0{fill:#4BBD98;} </style> <g transform="translate(-899 -395)"> <path class="st0" d="M914.6,402.2c-0.3,0-0.6-0.2-0.6-0.6v-2.4c0-0.3,0.2-0.6,0.6-0.6s0.6,0.2,0.6,0.6v2.4 C915.2,402,914.9,402.2,914.6,402.2z"></path> <path class="st0" d="M922.7,405.6c-0.1,0-0.3-0.1-0.4-0.2c-0.2-0.2-0.2-0.6,0-0.9l1.7-1.7c0.2-0.2,0.6-0.2,0.9,0 c0.2,0.2,0.2,0.6,0,0.9l-1.7,1.7C923,405.5,922.8,405.6,922.7,405.6z"></path> <path class="st0" d="M928.4,413.6H926c-0.3,0-0.6-0.2-0.6-0.6s0.2-0.6,0.6-0.6h2.4c0.3,0,0.6,0.2,0.6,0.6S928.8,413.6,928.4,413.6z "></path> <path class="st0" d="M924.4,423.4c-0.1,0-0.3-0.1-0.4-0.2l-1.7-1.7c-0.2-0.2-0.2-0.6,0-0.9c0.2-0.2,0.6-0.2,0.9,0l1.7,1.7 c0.2,0.2,0.2,0.6,0,0.9C924.7,423.3,924.5,423.4,924.4,423.4z"></path> <path class="st0" d="M914.6,427.4c-0.3,0-0.6-0.2-0.6-0.6v-2.4c0-0.3,0.2-0.6,0.6-0.6s0.6,0.2,0.6,0.6v2.4 C915.2,427.2,914.9,427.4,914.6,427.4z"></path> <path class="st0" d="M904.9,423.4c-0.1,0-0.3-0.1-0.4-0.2c-0.2-0.2-0.2-0.6,0-0.9l1.7-1.7c0.2-0.2,0.6-0.2,0.9,0 c0.2,0.2,0.2,0.6,0,0.9l-1.7,1.7C905.2,423.3,905,423.4,904.9,423.4z"></path> <path class="st0" d="M903.2,413.6h-2.4c-0.3,0-0.6-0.2-0.6-0.6s0.2-0.6,0.6-0.6h2.4c0.3,0,0.6,0.2,0.6,0.6S903.5,413.6,903.2,413.6 z"></path> <path class="st0" d="M906.5,405.6c-0.1,0-0.3-0.1-0.4-0.2l-1.7-1.7c-0.2-0.2-0.2-0.6,0-0.9s0.6-0.2,0.9,0l1.7,1.7 c0.2,0.2,0.2,0.6,0,0.9C906.9,405.5,906.7,405.6,906.5,405.6z"></path> <path class="st0" d="M912.9,422.6c-0.1,0-0.1,0-0.2-0.1c-0.2-0.1-0.4-0.4-0.4-0.6l1.1-7.8h-4.1c-0.2,0-0.4-0.1-0.6-0.3 s-0.1-0.4,0.1-0.6l7.2-9.6c0.2-0.2,0.4-0.3,0.7-0.2c0.2,0.1,0.4,0.4,0.4,0.6l-1.1,6.5h4.1c0.2,0,0.4,0.1,0.6,0.3 c0.1,0.2,0.1,0.4,0,0.6l-7.1,10.8C913.3,422.5,913.1,422.6,912.9,422.6z M910.4,413h3.6c0.2,0,0.3,0.1,0.4,0.2 c0.1,0.1,0.2,0.3,0.1,0.5l-0.7,5.8l5.1-7.7h-3.7c-0.2,0-0.4-0.1-0.4-0.2c-0.1-0.1-0.2-0.3-0.1-0.5l0.8-4.8L910.4,413z"></path> </g> </svg> 