<?xml version="1.0" encoding="UTF-8"?> <svg xmlns="http://www.w3.org/2000/svg" xmlns:xlink="http://www.w3.org/1999/xlink" version="1.1" id="Layer_1" x="0px" y="0px" viewBox="0 0 107.7 104.6" style="enable-background:new 0 0 107.7 104.6;" xml:space="preserve"> <style type="text/css"> .st0{fill-rule:evenodd;clip-rule:evenodd;fill:#4BBD98;} </style> <g transform="translate(-3048 -873)"> <path class="st0" d="M3129.8,952.3c0.8,0,1.4-0.6,1.4-1.5v-7.4c0-0.8-0.6-1.5-1.4-1.5h-49.2c-0.8,0-1.4,0.6-1.4,1.5v7.4 c0,0.8,0.6,1.5,1.4,1.5H3129.8z M3112,949.3h-5.3v-4.2h5.3V949.3z M3114.8,944.9h5.2v4.2h-5.2V944.9z M3103.7,949.3h-5.3v-4.2h5.3 V949.3z M3095.6,949.3h-5.2v-4.2h5.2V949.3z M3128.4,949.3h-5.4v-4.2h5.4V949.3z M3082,944.9h5.4v4.2h-5.4V944.9z"></path> <path class="st0" d="M3151.4,968.2h-4.3v-54.9h0.6c0.8,0,1.4-0.6,1.4-1.4s-0.6-1.4-1.4-1.4h-0.6v-5.1h0.6c0.8,0,1.4-0.6,1.4-1.4 c0-0.8-0.6-1.4-1.4-1.4c-2.4,0-15.6,0-18.4,0c-0.8,0-1.4,0.6-1.4,1.4c0,0.8,0.6,1.4,1.4,1.4h0.6v4.9h-0.6c-0.8,0-1.4,0.6-1.4,1.4 s0.6,1.4,1.4,1.4h0.6v6.3l-9.9-9.9c-0.8-0.8-2-1.4-3.4-1.4h-6.3v-11.5h0.8c0.8,0,1.4-0.6,1.4-1.4c0-0.8-0.6-1.4-1.4-1.4h-0.8V888 h0.8c0.8,0,1.4-0.6,1.4-1.4c0-0.8-0.6-1.4-1.4-1.4c-3.7,0-23.3,0-27.3,0c-0.8,0-1.4,0.6-1.4,1.4c0,0.8,0.6,1.4,1.4,1.4h0.8v5.7 h-0.8c-0.8,0-1.4,0.6-1.4,1.4s0.6,1.4,1.4,1.4h0.8v6.5c0,0.8,0.6,1.4,1.4,1.4s1.4-0.6,1.4-1.4v-6.5h19.8v39.1h-19.6v-26.7 c0-0.8-0.6-1.4-1.4-1.4s-1.4,0.6-1.4,1.4v26.9h-5.4v-6.5h0.6c0.8,0,1.4-0.6,1.4-1.4s-0.6-1.4-1.4-1.4h-0.6v-0.4 c0-0.8-0.6-1.4-1.4-1.4c-0.8,0-1.4,0.6-1.4,1.4v0.4h-0.6c-0.8,0-1.4,0.6-1.4,1.4s0.6,1.4,1.4,1.4h0.6v6.5h-3 c-1.4,0-2.6,1.2-2.6,2.6v9.5h-2.8c-3,0-5.7,1.2-7.7,3.7c-0.6,0.6-0.4,1.6,0.2,2c0.6,0.6,1.6,0.4,2-0.2c1.4-1.6,3.4-2.6,5.4-2.6h2.8 v3.8h-2.8c-1.8,0-3.2,1.4-3.2,3.2v10.3h-3.8v-10.3c0-0.8-0.6-1.4-1.4-1.4s-1.4,0.6-1.4,1.4v10.3h-2c-0.8,0-1.4,0.6-1.4,1.4 s0.6,1.4,1.4,1.4h95.7c0.8,0,1.4-0.6,1.4-1.4S3152.2,968.2,3151.4,968.2L3151.4,968.2z M3087.8,893.7V888h19.8v5.7H3087.8 L3087.8,893.7z M3133.1,905.2h11.3v5.1h-11.3V905.2z M3116.9,911.1c0.6,0,1,0.2,1.4,0.6l11.9,12v5.5l-13.7-13.7 c-0.2-0.2-0.6-0.4-1-0.4h-4.8v-3.8L3116.9,911.1L3116.9,911.1z M3067.5,957.9c0-0.2,0.2-0.4,0.4-0.4h2.8v10.7h-3.2V957.9z M3073.6,938.6h43.9c0.8,0,1.4-0.6,1.4-1.4c0-0.8-0.6-1.4-1.4-1.4h-6.9v-18h4.5l15.4,15.4v2.6h-7.1c-0.8,0-1.4,0.6-1.4,1.4 s0.6,1.4,1.4,1.4h13.6v29.5h-19.6V958c0-0.8-0.6-1.4-1.4-1.4h-21.2c-0.8,0-1.4,0.6-1.4,1.4v10.1h-19.6 C3073.6,967,3073.6,940.1,3073.6,938.6L3073.6,938.6z M3096.1,968.2v-8.5h18.4v8.5H3096.1z M3139.7,968.2v-29.7 c0-1.4-1.2-2.6-2.6-2.6h-4c0-4.5,0-17.8,0-22.5h11.3v54.9L3139.7,968.2L3139.7,968.2z"></path> </g> </svg> 