<?xml version="1.0" encoding="UTF-8"?> <svg xmlns="http://www.w3.org/2000/svg" xmlns:xlink="http://www.w3.org/1999/xlink" version="1.1" id="Layer_1" x="0px" y="0px" viewBox="0 0 86.2 82.7" style="enable-background:new 0 0 86.2 82.7;" xml:space="preserve"> <style type="text/css"> .st0{fill:#FFFFFF;} </style> <g id="XMLID_808_"> <path id="XMLID_809_" class="st0" d="M66.8,63.5l-12,8.3C54.7,72,54.6,72,54.5,72l-10.9-2.2c-0.7-0.1-1.3,0.2-1.4,0.9 c-0.1,0.7,0.2,1.3,0.9,1.4L54,74.3c0.2,0,0.4,0.1,0.6,0.1c0.6,0,1.2-0.2,1.6-0.5l12-8.3c0.6-0.4,0.7-1.2,0.4-1.8 C68.2,63.3,67.4,63.2,66.8,63.5z"></path> <path id="XMLID_810_" class="st0" d="M84.6,40.2c-0.2-1.2-1.2-2.1-2.3-2.3l-4.8-0.9l0,0l-1.5-0.4l7.5-5.2c0.9-0.7,1.4-1.9,1.2-3 c-0.2-1.2-1.2-2.1-2.3-2.3L49,19.1c-0.7-0.1-1.3,0.2-1.4,0.9c-0.1,0.7,0.2,1.3,0.9,1.4l33.3,6.9c0.2,0.1,0.4,0.2,0.4,0.4 c0,0.1,0,0.4-0.2,0.5L70.5,37l-14.2-8.4c-0.9-0.6-2.1-0.6-3,0L28.9,42.9L3.7,37.6c-0.2-0.1-0.4-0.2-0.4-0.4c0-0.1,0-0.4,0.2-0.5 L30.7,18c0.1-0.1,0.2-0.1,0.4-0.1l11.4,2.3c0.7,0.1,1.3-0.2,1.4-0.9c0.1-0.7-0.2-1.3-0.9-1.4l-11.4-2.3c-0.8-0.1-1.6,0-2.3,0.5 L2.1,34.8c-0.9,0.7-1.4,1.9-1.2,3C1.1,39,2.1,40,3.3,40.2l6.3,1.3l-7.5,5.2c-0.9,0.7-1.4,1.9-1.2,3c0.2,1.2,1.2,2.1,2.3,2.3 l6.3,1.3l-7.5,5.2c-0.9,0.7-1.4,1.9-1.2,3c0.2,1.2,1.2,2.1,2.3,2.3l33.6,7c0.1,0,0.1,0,0.2,0c0.6,0,1.1-0.4,1.2-0.9 c0.1-0.7-0.2-1.3-0.9-1.4l-33.6-7c-0.2-0.1-0.4-0.2-0.4-0.4c0-0.1,0-0.4,0.2-0.5l9.4-6.4l41,8.6c0.2,0,0.4,0.1,0.6,0.1 c0.6,0,1.2-0.2,1.6-0.5l16.9-11.7l8.7,1.8c0.2,0.1,0.4,0.2,0.4,0.4c0,0.1,0,0.4-0.2,0.5l-10.2,7c-0.6,0.4-0.7,1.2-0.4,1.8 c0.2,0.4,0.6,0.6,1.1,0.6c0.2,0,0.5-0.1,0.7-0.2l10.2-7c0.9-0.7,1.4-1.9,1.2-3c-0.2-1.2-1.2-2.1-2.3-2.3l-6.3-1.3l7.5-5.2 C84.4,42.5,84.8,41.4,84.6,40.2z M75.9,39.1v6.3l-4,2.8v-8.8l1.2-0.8L75.9,39.1z M63.5,40.9V54l-4,2.8V41.5L63.5,40.9z M66,40.5 l3.6-0.5v9.7L66,52.3V40.5z M54.7,30.9c0.1-0.1,0.4-0.1,0.5,0L67,38l-31.9,4.2L54.7,30.9z M22,43.9l4,0.8V54l-4-0.7V43.9z M19.6,52.8l-3.6-0.7v-9.4l3.6,0.7V52.8z M28.5,45.3l0.5,0.1c0.1,0,0.2,0,0.5,0l2.8-0.4v10.3l-3.6-0.7v-9.4H28.5z M34.6,44.8l4-0.5 v12.5l-4-0.9V44.8z M41,43.9l3.6-0.5V58L41,57.3V43.9L41,43.9z M47,43.1l4-0.5v16.8l-4-0.8V43.1z M13.6,42.2v9.3l-4-0.8v-6.3 l3.4-2.3L13.6,42.2z M3.4,49.1c0-0.1,0-0.4,0.2-0.5l3.5-2.5v4.1l-3.4-0.7C3.5,49.4,3.4,49.2,3.4,49.1z M54.8,60 c-0.1,0.1-0.2,0.1-0.4,0.1l-1.1-0.2V42.3l3.6-0.5v16.8L54.8,60z M81.9,41.2l-3.5,2.5v-4.1l3.4,0.7c0.2,0.1,0.4,0.2,0.4,0.4 C82.1,40.9,82.1,41,81.9,41.2z"></path> </g> </svg> 