<?xml version="1.0" encoding="UTF-8"?> <svg xmlns="http://www.w3.org/2000/svg" xmlns:xlink="http://www.w3.org/1999/xlink" version="1.1" id="Layer_1" x="0px" y="0px" viewBox="0 0 67.5 64.5" style="enable-background:new 0 0 67.5 64.5;" xml:space="preserve"> <style type="text/css"> .st0{fill:#FB877F;} </style> <g> <path class="st0" d="M4.6,29.7C4.9,29,5.4,28.8,6,28.8c3.8,0,7.6,0,11.4,0c0.4,0,0.6-0.1,0.8-0.5c0.5-1.1,1-2.2,1.5-3.3 c0.1-0.1,0.1-0.3,0.3-0.5c-0.9,0-1.6,0-2.4,0c-1.3,0-2.6,0-3.9,0c-0.9,0-1.4-0.4-1.4-1.1c0-0.7,0.5-1.1,1.4-1.1c2.5,0,5,0,7.5,0 c0.2,0,0.6-0.1,0.7-0.3c3.3-4,7.4-6.6,12.4-7.9c0.3-0.1,0.5-0.2,0.5-0.6c0-0.7,0-1.4,0-2c0-0.3-0.1-0.4-0.4-0.5 c-1.8-0.7-2.8-2.5-2.5-4.3c0.4-1.9,1.9-3.2,3.9-3.2c2.6,0,5.2,0,7.8,0c2.1,0,3.7,1.2,4,3.2c0.4,1.9-0.7,3.6-2.7,4.4 c-0.1,0-0.1,0-0.2,0.1c0,0.9,0,1.9,0,2.7c1.7,0.6,3.4,1.1,4.9,1.9c7.3,3.7,11.6,9.6,12.8,17.7c0.8,5.5-0.5,10.5-3.3,15.2 c-0.3,0.5-0.7,0.8-1.3,0.7c-0.5-0.1-0.9-0.4-0.9-0.9c0-0.4,0.1-0.8,0.3-1.1c1.3-2.2,2.3-4.5,2.8-7.1c1.9-9.8-3.6-19.6-13-23.1 C36.9,13.1,25.5,17.8,21,27.5c-5.4,11.7,1,25.5,13.6,28.6c5.6,1.4,11,0.6,16-2.4c0.1-0.1,0.2-0.1,0.3-0.2c0.6-0.3,1.3-0.2,1.6,0.4 c0.3,0.5,0.2,1.2-0.4,1.6c-2.1,1.4-4.4,2.4-6.9,3c-11.2,2.7-22.3-3-26.6-13.6c-0.2-0.4-0.4-0.5-0.8-0.5c-2.3,0-4.7,0-7,0 c-0.2,0-0.5,0-0.7,0c-0.5-0.1-0.9-0.6-0.9-1.1c0-0.5,0.3-1,0.8-1.1c0.2-0.1,0.5-0.1,0.7-0.1c2.2,0,4.3,0,6.5,0c0.1,0,0.2,0,0.4,0 c-0.2-1.4-0.5-2.8-0.7-4.3c-0.2,0-0.3,0-0.5,0c-1.4,0-2.8,0-4.2,0c-0.8,0-1.3-0.5-1.3-1.2c0-0.7,0.5-1.1,1.3-1.1c1.6,0,3.2,0,4.8,0 c0.2-1.4,0.4-2.9,0.6-4.3c-0.2,0-0.4,0-0.6,0c-3.5,0-7,0-10.5,0c-0.7,0-1.2-0.2-1.6-0.8C4.6,30.1,4.6,29.9,4.6,29.7z M39.7,8.9 c1.3,0,2.5,0,3.8,0c0.3,0,0.5,0,0.8-0.1c0.7-0.2,1.2-1,1.1-1.7c-0.1-0.8-0.8-1.4-1.7-1.4c-2.6,0-5.2,0-7.9,0c-1,0-1.7,0.7-1.7,1.6 c0,0.9,0.7,1.5,1.8,1.6C37.1,8.9,38.4,8.9,39.7,8.9z M37,13.4c1.8,0,3.6,0,5.4,0c0-0.7,0-1.5,0-2.3c-1.8,0-3.6,0-5.4,0 C37,11.9,37,12.7,37,13.4z"></path> <path class="st0" d="M4.6,42.8c0.1-0.1,0.2-0.2,0.2-0.3C5.3,42,6,41.9,6.5,42.4C7,42.9,7,43.6,6.5,44c-0.5,0.4-1.3,0.3-1.7-0.2 c-0.1-0.1-0.1-0.2-0.2-0.3C4.6,43.3,4.6,43,4.6,42.8z"></path> <path class="st0" d="M57.2,36.2c0,9.7-7.9,17.6-17.6,17.6c-9.7,0-17.6-7.9-17.5-17.6c0-9.7,7.9-17.5,17.5-17.5 C49.4,18.6,57.2,26.5,57.2,36.2z M55,36.2c0-8.5-6.8-15.3-15.3-15.3c-8.4,0-15.3,6.8-15.3,15.3c0,8.4,6.8,15.3,15.3,15.3 C48.1,51.5,55,44.7,55,36.2z"></path> <path class="st0" d="M53.9,51.5c0-0.6,0.5-1.1,1.1-1.1c0.6,0,1.1,0.5,1.1,1.1c0,0.6-0.6,1.1-1.2,1.1C54.4,52.7,53.9,52.2,53.9,51.5 z"></path> <path class="st0" d="M36.1,36.2c0.1-0.3,0-0.7,0.2-0.9c0.3-0.5,0-0.8-0.3-1.1c-0.6-0.6-1.3-1.2-1.9-1.9c-0.5-0.6-0.6-1.2-0.1-1.7 c0.5-0.4,1.1-0.4,1.7,0.1c0.7,0.7,1.4,1.4,2.1,2.1c0.2,0.2,0.4,0.3,0.7,0.2c0.8-0.3,1.6-0.3,2.3,0c0.4,0.1,0.5,0,0.8-0.2 c1.7-1.7,3.4-3.4,5-5c0.2-0.2,0.5-0.4,0.7-0.5c0.5-0.2,0.9,0,1.2,0.4c0.3,0.4,0.3,0.9,0,1.3c-0.3,0.3-0.6,0.6-0.9,0.9 c-1.5,1.5-2.9,2.9-4.4,4.4c-0.3,0.3-0.3,0.5-0.2,0.9c0.5,1.4,0.1,2.7-1,3.7c-1.1,1-2.4,1.2-3.7,0.6C37,38.9,36.2,37.6,36.1,36.2z M39.7,35c-0.7,0-1.3,0.6-1.2,1.3c0,0.7,0.6,1.2,1.2,1.2c0.7,0,1.3-0.6,1.3-1.2C40.9,35.5,40.4,35,39.7,35z"></path> <path class="st0" d="M40.8,24.6c0,0.2,0,0.4,0,0.6c0,0.6-0.5,1.1-1.1,1.1c-0.6,0-1.1-0.4-1.2-1c0-0.4,0-0.8,0-1.2 c0.1-0.6,0.5-1.1,1.2-1.1c0.6,0,1.1,0.5,1.1,1.1C40.8,24.3,40.8,24.5,40.8,24.6C40.8,24.6,40.8,24.6,40.8,24.6z"></path> <path class="st0" d="M51.3,35.1c0.2,0,0.4,0,0.6,0c0.6,0,1.1,0.5,1.1,1.1c0,0.6-0.4,1.1-1,1.2c-0.4,0-0.9,0-1.3,0 c-0.6-0.1-1-0.6-1-1.2c0-0.6,0.5-1,1.1-1C50.9,35.1,51.1,35.1,51.3,35.1z"></path> <path class="st0" d="M38.6,47.8c0-0.2,0-0.4,0-0.6c0-0.6,0.5-1.1,1.1-1.1c0.6,0,1.1,0.4,1.2,1c0,0.4,0,0.8,0,1.2 c0,0.7-0.6,1.1-1.2,1.1c-0.6,0-1-0.5-1.1-1.2C38.5,48.1,38.6,48,38.6,47.8C38.6,47.8,38.6,47.8,38.6,47.8z"></path> <path class="st0" d="M28.1,35.1c0.2,0,0.4,0,0.6,0c0.6,0.1,1,0.5,1,1.1c0,0.6-0.3,1.1-0.9,1.1c-0.5,0.1-0.9,0.1-1.4,0 c-0.6-0.1-1-0.6-1-1.1c0-0.6,0.4-1,1.1-1.1C27.7,35.1,27.9,35.1,28.1,35.1C28.1,35.1,28.1,35.1,28.1,35.1z"></path> </g> </svg> 