<?xml version="1.0" encoding="UTF-8"?> <svg xmlns="http://www.w3.org/2000/svg" xmlns:xlink="http://www.w3.org/1999/xlink" version="1.1" id="Layer_1" x="0px" y="0px" viewBox="0 0 73.9 78.3" style="enable-background:new 0 0 73.9 78.3;" xml:space="preserve"> <style type="text/css"> .st0{fill:#F48780;} </style> <path class="st0" d="M67.8,19.6c-0.8-2.6-2-4.5-2-4.6c-0.2-0.3-0.6-0.5-0.9-0.4c-0.1,0-2.2,0.5-4.7,1.8c-3.3,1.7-5.7,3.9-6.7,6.4 c-0.9,2.1-1,4.7-0.4,7.5c-1.3-1.5-2.9-2.8-4.5-3.9c-0.5-1-1.8-3.5-3.9-6c-0.7-0.8-2,0.2-1.3,1.1c1.4,1.7,2.5,3.4,3.1,4.6l-7.7-1.5 l-7.3-10c0.7,0,1.4,0.1,2.1,0.2c2.3,0.4,4.5,1.6,6.6,3.4c0.8,0.7,1.9-0.6,1.1-1.3c-2.4-2-4.8-3.3-7.4-3.8c-3.9-0.8-8.4,0.2-13.1,2.9 c-3.5,2-5.8,4.1-5.9,4.2c-0.3,0.3-0.4,0.8-0.1,1.2c0.3,0.7,1.6,3.2,3.8,6c1.3,1.6,2.6,3,4,4.1c-0.4,0.3-0.8,0.7-1.2,1 c-2,1.9-3.5,4.2-4.5,6.7c-0.9,2.2-1.4,4.6-1.4,7c0,4,1.1,7.9,3.4,11.2c2.2,3.2,5.3,5.7,8.9,7.2c1,0.4,1.6-1.2,0.6-1.6 c-1.3-0.5-2.5-1.2-3.7-2c0.1-0.8,0.5-3.7-1.4-6.7c-0.3-0.4,0.5-2.1,1-3c0.5-1,1-2.1,1.2-3c0.3-1,0-1.9-0.8-2.5 c-0.6-0.5-1.3-0.7-2-0.9c-0.4-0.1-0.9-0.3-1.1-0.4c-0.4-0.3-1-1.4-1.4-2.3c-0.5-1-1-2-1.5-2.5c1.2-2.8,3-5.2,5.3-7 c2.1,1.4,4.6,2.5,7.1,2.7c-3,2.3-4,5.3-2.6,8.1c1.6,3.3,4.9,2.8,7.9,2.3c0.5-0.1,1-0.2,1.5-0.2c0.2,0,0.2,0,0.3,0.1 c0.6,0.6,0.6,3.3,0.6,5.3c0,2.8,0,5.4,1,6.7c0.5,0.7,1.3,1,2.1,1c0.5,0,1.1-0.1,1.7-0.4c2.6-1.1,5.2-4.4,4.8-7c-0.4-2.3-0.6-3.8,0-5 c0.5-1.1,1.7-2.2,4.2-3.5c0.3,1.3,0.4,2.7,0.4,4.1c-0.1,4.8-2,9.2-5.4,12.6c-3.8,3.7-9.2,5.6-14.5,5c-1.1-0.1-1.3,1.6-0.2,1.7 c5.8,0.6,11.7-1.4,15.9-5.5c3.7-3.7,5.8-8.6,5.9-13.8c0.1-6.9-3.5-13.1-8.9-16.6c1.1-0.8,2-1.5,2.4-1.9c2,1.4,3.7,3.2,5.2,5.2 c3.5,4.9,4.9,10.8,3.9,16.8c-2,12.2-13.6,20.5-25.9,18.5c-5.9-1-11.1-4.2-14.6-9.1c-3.5-4.9-4.9-10.8-3.9-16.8 c0.2-1.1-1.5-1.3-1.7-0.3c-1.1,6.4,0.4,12.8,4.2,18c3.8,5.3,9.3,8.7,15.7,9.8c1.3,0.2,2.7,0.3,4,0.3c5,0,9.9-1.6,14-4.5 c5.3-3.8,8.7-9.3,9.8-15.7c0.8-4.7,0.2-9.4-1.7-13.6c0.9-0.3,2.3-0.7,3.9-1.5c3.3-1.7,5.7-3.9,6.7-6.4 C68.9,26.3,68.9,23.1,67.8,19.6z M18.6,42.8c0.6,1.2,1.2,2.3,1.8,2.8c0.4,0.4,1,0.6,1.7,0.8c1.7,0.5,1.8,0.8,1.7,1.4 c-0.2,0.8-0.7,1.8-1.1,2.7c-0.9,1.8-1.7,3.5-0.9,4.7c1.1,1.7,1.3,3.4,1.3,4.5C18,55.2,16,48,17.9,41.5 C18.1,41.9,18.4,42.4,18.6,42.8z M59.6,26.2l-2.4-5.8c1.2-1.1,2.5-1.9,3.7-2.5c1-0.5,1.9-0.9,2.7-1.1L59.6,26.2z M65.1,17.4 c0.3,0.7,0.7,1.7,1.1,2.7c0.4,1.2,0.7,2.6,0.8,4.1l-5.6,2.3L65.1,17.4z M55,23.4c0.2-0.6,0.6-1.1,0.9-1.6l2.7,6.6l-2.5,5.9 c-0.3-0.7-0.8-1.7-1.1-2.8C54.4,29.3,53.8,26.1,55,23.4z M60.4,33.7c-0.9,0.5-1.9,0.8-2.6,1.1l2.6-6.1l6.5-2.7 c-0.1,0.7-0.3,1.4-0.6,2.1C65.2,30.9,62.5,32.7,60.4,33.7z M29.9,33.3c-0.3-0.1-0.6-0.1-0.9-0.2l9.4-6.9l7.7,1.5 C43.3,29.9,36.4,34.5,29.9,33.3z M21.3,28c-2-2.2-3.5-4.5-4.3-6l9.8,1.9L21.3,28z M23,16.6l4.1,5.6l-9.9-1.9 C18.5,19.3,20.6,17.9,23,16.6z M29.6,22.7l-5-6.8c1.5-0.6,3.1-1.1,4.7-1.3l6.9,9.4L29.6,22.7z M29.1,24.4l7,1.4l-9,6.6 c-1.7-0.8-3.2-1.9-4.6-3.2L29.1,24.4z M52.1,40.9c-3.1,1.6-4.6,2.9-5.3,4.5c-0.8,1.7-0.5,3.5-0.1,6c0.2,1.5-1.5,4.2-3.8,5.2 c-0.8,0.4-1.4,0.3-1.8-0.1c-0.7-0.9-0.7-3.5-0.6-5.7c0-2.9,0-5.5-1.2-6.6c-0.4-0.4-1-0.6-1.6-0.5c-0.5,0.1-1.1,0.2-1.6,0.2 C33,44.4,31,44.6,30,42.5c-1.6-3.4,1.7-5.9,3.2-6.8c0.3-0.2,0.6-0.4,0.9-0.7c3.6-0.4,7.1-2,10.2-4C47.9,33.3,50.7,36.8,52.1,40.9z"></path> </svg> 