<?xml version="1.0" encoding="UTF-8"?> <svg xmlns="http://www.w3.org/2000/svg" xmlns:xlink="http://www.w3.org/1999/xlink" version="1.1" id="Layer_1" x="0px" y="0px" viewBox="0 0 68.2 69.6" style="enable-background:new 0 0 68.2 69.6;" xml:space="preserve"> <style type="text/css"> .st0{fill:#4DBE9C;} </style> <g transform="translate(-948 -402)"> <path class="st0" d="M994,421.5h-1.7v-11.3c0-0.6-0.6-1.1-1.1-1.1h-18.5c-0.6,0-1.1,0.6-1.1,1.1v11.3H970c-0.6,0-1.1,0.6-1.1,1.1 v18.8c0,5,2.8,9.3,6.9,11.5v5.9c0,0.6,0.6,1.1,1.1,1.1h1.7v6.8c0,0.6,0.6,1.1,1.1,1.1h4.6c0.6,0,1.1-0.6,1.1-1.1V460h1.7 c0.6,0,1.1-0.6,1.1-1.1V453c4.2-2.2,6.9-6.6,6.9-11.5v-3.2c0-0.6-0.6-1.1-1.1-1.1c-0.6,0-1.1,0.6-1.1,1.1v3.2 c0,6-4.9,10.9-10.9,10.9c-6,0-10.9-4.9-10.9-10.9v-17.6h21.7v4.1c0,0.6,0.6,1.1,1.1,1.1c0.6,0,1.1-0.6,1.1-1.1v-5.2 C995.2,422.1,994.7,421.5,994,421.5z M983.2,465.8h-2.3v-5.7h2.3V465.8z M986,454.1v3.8h-7.8v-3.8c1.2,0.4,2.6,0.6,3.9,0.6 C983.3,454.6,984.8,454.5,986,454.1z M974,411.4h6.9v10.2H974V411.4z M983.2,421.5v-10.2h6.9v10.2H983.2z"></path> <path class="st0" d="M986.7,415.3c-0.3,0-0.6,0.1-0.8,0.4c-0.2,0.2-0.4,0.6-0.4,0.8c0,0.3,0.1,0.6,0.4,0.8c0.2,0.2,0.6,0.4,0.8,0.4 c0.3,0,0.6-0.1,0.8-0.4c0.2-0.2,0.4-0.6,0.4-0.8c0-0.3-0.1-0.6-0.4-0.8C987.3,415.4,987,415.3,986.7,415.3z"></path> <path class="st0" d="M978.3,415.7c-0.2-0.2-0.6-0.4-0.8-0.4c-0.3,0-0.6,0.1-0.8,0.4c-0.2,0.2-0.4,0.6-0.4,0.8 c0,0.3,0.1,0.6,0.4,0.8c0.2,0.2,0.6,0.4,0.8,0.4s0.6-0.1,0.8-0.4c0.2-0.2,0.4-0.6,0.4-0.8C978.7,416.3,978.5,415.9,978.3,415.7z"></path> <path class="st0" d="M981.7,442.8c0.2,0.1,0.3,0.1,0.5,0.1c0.5,0,0.8-0.3,1-0.6l2.5-5.6c0.2-0.4,0.1-0.7-0.1-1.1 c-0.2-0.4-0.6-0.6-0.9-0.6h-3.2l1.8-4.1c0.3-0.6,0-1.3-0.6-1.5c-0.6-0.3-1.3,0-1.6,0.6l-2.5,5.6c-0.2,0.4-0.1,0.7,0.1,1.1 c0.2,0.4,0.6,0.6,0.9,0.6h3.2l-1.8,4.1C980.7,441.9,981,442.6,981.7,442.8z"></path> <path class="st0" d="M994,431.9c-0.3,0-0.6,0.1-0.8,0.4c-0.2,0.2-0.4,0.6-0.4,0.8s0.1,0.6,0.4,0.8c0.2,0.2,0.6,0.4,0.8,0.4 c0.3,0,0.6-0.1,0.8-0.4c0.2-0.2,0.4-0.6,0.4-0.8s-0.1-0.6-0.4-0.8C994.7,432,994.4,431.9,994,431.9z"></path> </g> </svg> 