<?xml version="1.0" encoding="UTF-8"?> <svg xmlns="http://www.w3.org/2000/svg" xmlns:xlink="http://www.w3.org/1999/xlink" version="1.1" id="Layer_1" x="0px" y="0px" viewBox="0 0 118 118" style="enable-background:new 0 0 118 118;" xml:space="preserve"> <style type="text/css"> .st0{fill:#08293C;} .st1{fill:#FFFFFF;} </style> <g> <path class="st0" d="M34.2,29.9c0.9,0.1,1.8,0.1,2.7,0.2c0-0.2,0-0.4,0-0.7c0-1.9,0-3.7,0-5.6c0-1.8,1.1-3.3,2.9-3.6 c1.3-0.2,2.6-0.2,3.9,0c1.8,0.3,2.9,1.8,2.9,3.6c0,2.1,0,4.2,0,6.4c1.9-0.7,3.5-0.3,4.9,1.1c1.4-1.4,3-1.7,4.9-1.1 c0-0.3,0-0.6,0-0.8c0-1.9,0-3.7,0-5.6c0-1.8,1.1-3.3,2.9-3.6c1.3-0.2,2.6-0.2,3.9,0c1.8,0.3,2.9,1.8,2.9,3.6c0,2.1,0,4.2,0,6.4 c1.9-0.7,3.5-0.3,4.9,1.1c1.4-1.4,3-1.7,4.9-1.1c0-0.3,0-0.6,0-0.8c0-1.8,0-3.6,0-5.4c0-2.3,1.5-3.8,3.9-3.8c0.5,0,1.1,0,1.6,0 c2.9,0,4.3,1.4,4.3,4.2c0,1.9,0,3.8,0,5.8c0.3-0.1,0.5-0.1,0.7-0.2c1.9-0.4,3.6,0.3,4.6,1.9c1.2,1.8,1.1,4.2-0.3,5.9 c-0.3,0.4-0.7,0.8-1.1,1.3c1.4,1.1,2.2,2.5,2.2,4.2c0,1.8-1,3.1-2.2,4.3c1.5,1.1,2.2,2.5,2.2,4.2c0,1.8-1,3.1-2.2,4.3 c1.4,1.1,2.2,2.5,2.2,4.2c0,1.8-1,3.1-2.2,4.3c1.5,1.1,2.2,2.5,2.2,4.3c0,1.8-1,3.1-2.2,4.3c2.7,2.3,2.9,5.3,0.5,7.9 c-0.4,0.5-0.8,0.9-1.3,1.4c0.1,0.1,0.2,0.1,0.2,0.1c3.1,1.6,3.6,4.8,1,7.2c-2,1.8-3.9,3.6-5.9,5.4c-0.8,0.7-1.7,1.2-2.6,1.7 c-0.5,0-1,0-1.5,0c-0.8-0.5-1.7-1-2.5-1.6c-0.7-0.5-1.3-1.1-1.9-1.7c-1.5-1.4-3-2.8-4.5-4.2c-0.2,0.2-0.4,0.4-0.6,0.5 c-1.9,1.7-3.8,3.5-5.7,5.2c-0.8,0.7-1.8,1.2-2.7,1.8c-0.5,0-1,0-1.5,0c-0.8-0.5-1.7-1-2.5-1.6c-0.7-0.5-1.3-1.1-1.9-1.7 c-1.5-1.4-3-2.8-4.5-4.2c-0.2,0.2-0.4,0.4-0.6,0.5c-1.9,1.7-3.8,3.5-5.7,5.2c-0.8,0.7-1.8,1.2-2.7,1.8c-0.5,0-1,0-1.5,0 c-0.5-0.2-1.1-0.4-1.5-0.7c-2.6-2.3-5.2-4.6-7.7-7c-1.4-1.4-1.4-3.8-0.1-5.3c0.5-0.6,1.2-1,1.9-1.5c-1.1-1.3-2.6-2.5-2.8-4.4 c-0.2-2,0.5-3.6,2.2-4.8c-1.3-1.2-2.2-2.5-2.2-4.3c0-1.8,0.8-3.1,2.2-4.2c-1.2-1.2-2.2-2.5-2.2-4.3c0-1.8,0.8-3.2,2.2-4.3 c-1.3-1.2-2.2-2.5-2.2-4.3c0-1.8,0.8-3.1,2.2-4.2c-1.3-1.2-2.2-2.5-2.2-4.3c0-1.8,0.8-3.1,2.1-4.2c-2.7-3.4-2.8-4.6-0.9-7.8"></path> <path d="M58.5,50.5c0.7,0.7,1.2,1.4,1.8,2c0.6,0.6,1.2,0.7,1.7,0.1c2.4-2.6,4.8-5.2,7.1-7.8c0.9-1.1,0.7-2.7-0.3-3.6 c-0.4-0.3-0.6-0.3-1,0.1c-0.3,0.3-0.6,0.7-0.9,1c-0.6-0.6-1.2-1.1-1.8-1.6c1.3-1.4,2.5-2.7,3.7-4c0.2-0.3,0.5-0.6,0.6-0.9 c0.5-1.1,0.1-2.5-0.8-3.1c-0.9-0.5-1.8-0.3-2.7,0.7c-0.9,1-1.8,2-2.8,3c-1.2,1.3-2.7,1.3-3.9,0c-1-1.1-2-2.2-3-3.3 c-0.5-0.6-1.2-0.9-2-0.7c-0.9,0.2-1.3,0.9-1.5,1.7c-0.2,0.8,0,1.6,0.6,2.3c2.3,2.6,4.6,5.1,7,7.6c0.6,0.7,1.2,0.6,1.8,0 c0.5-0.5,0.9-1,1.4-1.5c0.6,0.6,1.2,1.1,1.8,1.6c-0.5,0.5-0.9,1.1-1.4,1.6c-1.6,1.7-3.8,1.7-5.5,0c-1.3-1.4-2.6-2.8-3.9-4.3 c-0.4-0.5-0.7-0.4-1.1,0c-1,1-1,2.6,0,3.7c1,1.2,2.1,2.3,3.2,3.5c-0.5,0.4-0.9,0.8-1.4,1.3c-0.1,0.1-0.3,0.2-0.4,0.3 c-0.9-0.8-1.4-0.7-1.9,0.4c-0.5,1-0.4,2.1,0.4,2.9c2.3,2.5,4.6,5.1,6.9,7.6c0.6,0.7,1.2,0.7,1.8,0c2.3-2.5,4.7-5.1,7-7.6 c0.9-1,0.9-2.5,0-3.4c-0.5-0.6-0.8-0.6-1.3,0c-1.3,1.5-2.6,2.9-4,4.4c-1.4,1.4-3.5,1.5-4.9,0.2c-0.8-0.7-1.5-1.6-2.3-2.4 C57.3,51.6,57.9,51.1,58.5,50.5z"></path> <path d="M36,67.9c-0.3-0.4-0.6-0.6-0.9-1c-0.4-0.5-0.7-0.4-1.1,0c-1,1-1.1,2.5-0.1,3.6c2.3,2.5,4.6,5,6.9,7.5 c0.6,0.7,1.2,0.7,1.9,0c0.5-0.5,0.9-1,1.4-1.5c0.6,0.6,1.2,1.1,1.8,1.6c-0.5,0.5-0.9,1-1.4,1.5c-1.7,1.8-3.9,1.8-5.5,0 c-1.3-1.4-2.6-2.8-3.8-4.2c-0.5-0.6-0.8-0.5-1.2,0c-0.9,0.9-1,2.5-0.1,3.5c2.3,2.6,4.7,5.1,7,7.7c0.6,0.6,1.2,0.6,1.7,0 c2.4-2.6,4.8-5.2,7.1-7.8c0.9-1,0.7-2.6-0.2-3.5c-0.4-0.4-0.7-0.5-1.1,0c-0.2,0.3-0.6,0.6-0.9,0.9c-0.6-0.6-1.2-1.1-1.8-1.6 c0.2-0.2,0.4-0.4,0.5-0.6c1.1-1.2,2.2-2.4,3.2-3.5c1-1.1,1-2.7,0.1-3.7c-0.4-0.4-0.7-0.6-1.2,0c-1.3,1.5-2.6,3-4,4.4 c-1.3,1.4-3.3,1.6-4.7,0.4c-0.7-0.6-1.3-1.4-2-2.1c0.6-0.6,1.2-1.1,1.8-1.6c0.5,0.5,0.9,1,1.4,1.5c0.6,0.7,1.2,0.7,1.8,0 c2.4-2.6,4.7-5.1,7-7.7c0.9-1,0.8-2.6-0.1-3.5c-0.4-0.4-0.7-0.4-1.1,0c-1.2,1.4-2.5,2.8-3.8,4.2c-1.7,1.9-3.9,1.9-5.7,0 c-1.3-1.4-2.5-2.8-3.8-4.2c-0.4-0.5-0.8-0.4-1.2,0c-1,1-1,2.6,0.1,3.7c1.2,1.4,2.5,2.7,3.8,4.1C37.2,66.8,36.7,67.3,36,67.9z"></path> <path d="M78,42c0.5,0.6,1.1,1.1,1.6,1.7c0.9,1,1.4,1,2.4,0c2.2-2.4,4.3-4.8,6.5-7.1c0.3-0.3,0.5-0.6,0.7-1c0.4-1.1,0-2.4-0.8-3 c-0.8-0.5-1.8-0.3-2.7,0.7c-0.9,1-1.8,2-2.7,2.9c-1.4,1.5-2.8,1.5-4.2,0c-1-1-1.9-2.1-2.9-3.1c-1.3-1.3-3-0.8-3.4,0.9 c-0.3,1,0,1.8,0.7,2.5c1,1.2,2.1,2.3,3.2,3.5c-0.6,0.6-1.2,1.1-1.8,1.6c-0.9-0.8-1.4-0.7-1.9,0.4c-0.5,1-0.4,2,0.4,2.8 c2.3,2.6,4.7,5.1,7,7.7c0.6,0.6,1.2,0.6,1.7,0c2.4-2.6,4.8-5.2,7.1-7.8c0.9-1,0.7-2.4-0.1-3.4c-0.5-0.6-0.8-0.6-1.3,0 c-1.3,1.5-2.6,2.9-4,4.4c-1.5,1.5-3.7,1.5-5.1,0c-0.7-0.7-1.3-1.4-2-2.2C76.8,43.1,77.4,42.6,78,42z"></path> <path d="M84.9,61.1c-0.5,0.5-0.9,1-1.4,1.5c-1.7,1.8-3.9,1.8-5.6,0c-1.3-1.4-2.6-2.8-3.8-4.2c-0.4-0.5-0.7-0.4-1.1,0 c-1,1-1.1,2.6-0.1,3.6c2.3,2.5,4.6,5,6.9,7.5c0.6,0.7,1.3,0.7,1.9,0c2.3-2.5,4.6-5,6.9-7.6c0.7-0.8,0.9-1.8,0.4-2.8 c-0.5-1.1-1-1.3-2-0.5c-0.6-0.5-1.1-1-1.8-1.6c1.1-1.2,2.2-2.4,3.2-3.5c1-1.1,1-2.7,0-3.7c-0.4-0.4-0.7-0.4-1.1,0 c-1.2,1.4-2.5,2.8-3.8,4.2c-1.7,1.9-3.9,1.9-5.7,0c-1.3-1.4-2.5-2.8-3.8-4.2c-0.4-0.5-0.8-0.4-1.2,0c-0.9,1-1,2.5,0,3.6 c2.3,2.5,4.6,5.1,6.9,7.6c0.6,0.7,1.2,0.6,1.8,0c0.5-0.5,0.9-1,1.4-1.5C83.7,60,84.3,60.6,84.9,61.1z"></path> <path d="M78,76.1c0.6,0.7,1.2,1.4,1.8,2c0.6,0.6,1.2,0.7,1.8,0c2.4-2.6,4.7-5.1,7.1-7.8c0.9-1,0.8-2.6-0.1-3.5 c-0.4-0.4-0.7-0.5-1.2,0c-1.2,1.4-2.5,2.8-3.7,4.1c-1.8,1.9-4,1.9-5.7,0c-1.3-1.4-2.5-2.8-3.8-4.2c-0.4-0.5-0.7-0.4-1.1,0 c-1,1-1,2.6,0,3.7c1,1.2,2.1,2.3,3.2,3.5c-0.6,0.6-1.2,1.1-1.7,1.6c-0.9-0.8-1.4-0.7-1.9,0.4c-0.5,1-0.4,2.1,0.4,2.9 c2.3,2.5,4.6,5.1,6.9,7.6c0.6,0.7,1.2,0.7,1.8,0c2.3-2.5,4.7-5.1,7-7.6c0.9-1,0.9-2.5,0-3.5c-0.5-0.6-0.7-0.6-1.3,0 c-1.3,1.5-2.6,2.9-4,4.4c-1.4,1.4-3.5,1.5-4.9,0.2c-0.8-0.7-1.5-1.5-2.2-2.4C76.8,77.2,77.4,76.7,78,76.1z"></path> <path d="M65.4,69.6c-0.5,0.6-0.9,1-1.4,1.5c-1.7,1.8-3.9,1.8-5.5,0c-1.3-1.4-2.6-2.8-3.9-4.3c-0.4-0.4-0.7-0.4-1.1,0 c-1,0.9-1.1,2.5-0.2,3.6c2.3,2.6,4.7,5.1,7,7.7c0.5,0.6,1.2,0.6,1.7,0c2.4-2.6,4.7-5.1,7.1-7.8c0.9-1.1,0.8-2.7-0.2-3.6 c-0.4-0.3-0.7-0.4-1,0c-0.3,0.3-0.6,0.6-0.9,1c-0.6-0.6-1.2-1.1-1.8-1.6c0.2-0.2,0.4-0.4,0.5-0.6c1.1-1.2,2.2-2.4,3.2-3.5 c1-1.1,1-2.7,0.1-3.7c-0.4-0.4-0.8-0.5-1.2,0c-1.2,1.4-2.5,2.8-3.8,4.2c-1.7,1.8-3.9,1.8-5.5,0c-1.3-1.4-2.6-2.8-3.9-4.3 c-0.4-0.4-0.7-0.4-1.1,0c-1,0.9-1.1,2.6-0.1,3.7c2.3,2.5,4.5,5,6.8,7.5c0.7,0.8,1.3,0.7,2,0c0.4-0.5,0.9-1,1.3-1.5 C64.2,68.6,64.8,69.1,65.4,69.6z"></path> <path d="M45.9,52.6c-0.5,0.5-0.9,1-1.4,1.5c-1.7,1.8-3.9,1.8-5.6,0c-1.3-1.4-2.6-2.7-3.8-4.2c-0.5-0.5-0.8-0.5-1.2,0 c-0.9,0.9-1,2.5-0.1,3.5c2.3,2.6,4.7,5.2,7.1,7.8c0.5,0.6,1.2,0.6,1.7,0c2.4-2.6,4.8-5.2,7.2-7.9c0.9-1,0.7-2.6-0.3-3.5 c-0.4-0.4-0.7-0.4-1.1,0c-0.3,0.3-0.6,0.6-0.9,1c-0.6-0.6-1.2-1.1-1.8-1.6c1.3-1.4,2.5-2.8,3.7-4.1c1-1.1,1.1-2.6,0.1-3.7 c-0.5-0.6-0.7-0.6-1.3,0c-1.3,1.4-2.5,2.8-3.8,4.2c-1.7,1.8-3.9,1.8-5.6,0c-1.3-1.4-2.6-2.8-3.9-4.3c-0.4-0.4-0.6-0.4-1-0.1 c-1,0.9-1.2,2.5-0.2,3.6c2.3,2.6,4.6,5.1,7,7.6c0.6,0.7,1.2,0.6,1.8,0c0.5-0.5,0.9-1,1.4-1.5C44.8,51.5,45.3,52,45.9,52.6z"></path> <path d="M59.7,85.9c0.3,0.3,0.4,0.5,0.6,0.7c0.6,0.6,1.2,0.6,1.8,0c2.4-2.6,4.7-5.1,7-7.7c0.9-1,0.8-2.5-0.1-3.5 c-0.4-0.4-0.8-0.6-1.2,0c-1.2,1.4-2.5,2.8-3.8,4.2c-1.7,1.8-3.9,1.9-5.6,0c-1.3-1.4-2.6-2.7-3.8-4.2c-0.5-0.6-0.8-0.5-1.2,0 c-0.1,0.2-0.3,0.4-0.4,0.6c-0.6,1.1-0.4,2.2,0.5,3.1c1.4,1.6,2.8,3.1,4.3,4.7c-0.6,0.6-1.2,1.1-1.8,1.6c-0.1-0.1-0.2-0.1-0.2-0.2 c-0.7-0.8-1.8-0.8-2.5-0.1c-0.8,0.7-0.8,1.7,0.1,2.5c2.3,2.1,4.6,4.2,6.9,6.3c0.6,0.6,1.3,0.6,1.9,0.1c2.4-2.2,4.8-4.4,7.2-6.6 c0,0,0,0,0.1-0.1c0.6-0.7,0.5-1.7-0.3-2.3c-0.7-0.6-1.7-0.6-2.4,0.1c-0.9,1-1.8,2-2.7,3c-1.9,2.1-4.5,1.8-6.1-0.6 C58.6,87,59.1,86.5,59.7,85.9z"></path> <path d="M50.5,34.7c-0.2-1.1-0.7-2-1.5-2.3c-0.9-0.3-1.7,0.1-2.3,0.7c-0.9,1-1.8,2-2.8,3c-1.4,1.5-2.8,1.5-4.2,0 c-1-1.1-1.9-2.2-2.9-3.2c-1.2-1.2-2.9-0.8-3.4,0.9c-0.3,1,0,1.9,0.6,2.6c2.2,2.5,4.5,4.9,6.7,7.4c0.8,0.8,1.3,0.8,2.1,0 c2.2-2.5,4.5-4.9,6.7-7.4C50,36,50.2,35.3,50.5,34.7z"></path> <path d="M35.6,84.6c-1.2,0-1.9,0.4-2.2,1.2c-0.3,0.9,0.1,1.4,0.7,2c2.1,1.9,4.2,3.9,6.3,5.8c1.1,1,1.6,1,2.8,0 c2.1-1.9,4.1-3.8,6.2-5.6c0.2-0.2,0.3-0.3,0.5-0.5c0.7-0.7,0.6-1.7-0.2-2.4c-0.7-0.7-1.8-0.6-2.4,0.1c-0.9,1-1.8,2-2.7,2.9 c-1.7,1.9-3.9,1.9-5.7,0c-0.9-1-1.9-2.1-2.8-3.1C36,84.8,35.7,84.7,35.6,84.6z"></path> <path d="M74.6,84.6c-1.2,0-1.9,0.4-2.2,1.1c-0.3,0.7-0.1,1.3,0.7,2c2.2,2,4.4,4,6.6,6.1c0.8,0.7,1.4,0.7,2.2,0 c2.3-2.1,4.5-4.1,6.8-6.2c0.1-0.1,0.2-0.2,0.3-0.3c0.5-0.7,0.4-1.6-0.3-2.2c-0.7-0.6-1.8-0.6-2.4,0c-0.9,1-1.9,2.1-2.8,3.1 c-1.6,1.7-3.8,1.7-5.5,0c-1-1-1.9-2.1-2.9-3.1C74.9,84.9,74.6,84.7,74.6,84.6z"></path> <path d="M41.8,34.9c0.8-0.9,1.5-1.7,2.2-2.5c0.1-0.2,0.2-0.4,0.2-0.6c0-2.6,0-5.3,0-7.9c0-0.9-0.5-1.3-1.4-1.3c-0.7,0-1.3,0-2,0 c-1.1,0-1.5,0.4-1.5,1.5c0,2.6,0,5.1,0,7.7c0,0.2,0,0.5,0.1,0.6C40.3,33.2,41,34.1,41.8,34.9z"></path> <path d="M61.3,34.9c0.8-0.9,1.5-1.6,2.1-2.4c0.1-0.2,0.3-0.4,0.3-0.7c0-2.7,0-5.3,0-8c0-0.8-0.5-1.3-1.3-1.3c-0.7,0-1.4,0-2.1,0 c-1,0-1.4,0.4-1.4,1.4c0,2.6,0,5.1,0,7.7c0,0.2,0,0.5,0.2,0.7C59.7,33.2,60.5,34.1,61.3,34.9z"></path> <path d="M80.8,34.9c0.8-0.9,1.5-1.7,2.2-2.5c0.1-0.2,0.2-0.4,0.2-0.6c0-2.7,0-5.3,0-8c0-0.8-0.5-1.3-1.4-1.3c-0.7,0-1.4,0-2.1,0 c-1,0-1.4,0.4-1.5,1.4c0,2.6,0,5.2,0,7.8c0,0.2,0.1,0.5,0.2,0.7C79.2,33.3,80,34.1,80.8,34.9z"></path> <path d="M53.2,82.4c-0.5-0.6-1.1-1.2-1.7-1.8c-0.6,0.7-1.1,1.3-1.7,1.8c0.6,0.4,1.1,0.7,1.7,1C52.1,83.1,52.6,82.7,53.2,82.4z"></path> <path d="M71,80.5c-0.6,0.7-1.1,1.2-1.7,1.8c0.6,0.4,1.2,0.7,1.7,1c0.5-0.3,1.1-0.7,1.7-1C72.1,81.8,71.6,81.2,71,80.5z"></path> <path d="M72,47.5c-0.3-0.4-0.6-0.7-1-1c-0.3,0.4-0.6,0.7-1,1c0.4,0.3,0.7,0.5,1,0.8C71.3,48,71.6,47.8,72,47.5z"></path> <path d="M50.6,56c0.4,0.3,0.7,0.5,1,0.8c0.3-0.3,0.6-0.5,0.9-0.8c-0.3-0.4-0.6-0.7-1-1C51.2,55.4,50.9,55.7,50.6,56z"></path> <path d="M72,56c-0.3-0.4-0.6-0.7-1-1c-0.4,0.4-0.6,0.7-0.9,1c0.3,0.3,0.6,0.5,1,0.8C71.3,56.6,71.6,56.3,72,56z"></path> <path d="M52.5,47.5c-0.3-0.3-0.6-0.7-1-1c-0.4,0.4-0.6,0.7-0.9,1c0.4,0.3,0.7,0.5,1,0.8C51.8,48.1,52.1,47.8,52.5,47.5z"></path> <path d="M51.5,63.5c-0.3,0.4-0.6,0.7-1,1c0.4,0.3,0.7,0.5,1,0.8c0.3-0.3,0.6-0.6,0.9-0.8C52.2,64.2,51.9,63.9,51.5,63.5z"></path> <path d="M71,63.5c-0.4,0.4-0.6,0.7-1,1c0.3,0.3,0.6,0.5,1,0.8c0.3-0.3,0.6-0.5,0.9-0.8C71.6,64.2,71.4,63.9,71,63.5z"></path> <path d="M71,39.8c0.3-0.3,0.6-0.5,0.9-0.8c-0.3-0.4-0.6-0.7-1-1c-0.4,0.4-0.6,0.7-0.9,1C70.4,39.3,70.7,39.5,71,39.8z"></path> <path d="M52.5,73.1c-0.3-0.4-0.6-0.7-1-1c-0.4,0.4-0.6,0.7-0.9,1c0.3,0.3,0.6,0.5,1,0.8C51.9,73.6,52.1,73.4,52.5,73.1z"></path> <path d="M71,73.9c0.3-0.3,0.6-0.5,0.9-0.8c-0.3-0.4-0.6-0.7-1-1c-0.4,0.4-0.6,0.7-0.9,1C70.4,73.4,70.7,73.6,71,73.9z"></path> <path d="M51.5,37.9c-0.4,0.4-0.6,0.7-1,1c0.3,0.3,0.6,0.5,1,0.8c0.3-0.3,0.6-0.5,0.9-0.8C52.2,38.6,51.9,38.3,51.5,37.9z"></path> <path class="st1" d="M58.5,50.5c-0.6,0.6-1.2,1.1-1.8,1.6c0.8,0.8,1.5,1.7,2.3,2.4c1.4,1.3,3.5,1.2,4.9-0.2c1.4-1.4,2.7-2.9,4-4.4 c0.5-0.6,0.8-0.6,1.3,0c0.8,1,0.9,2.4,0,3.4c-2.3,2.6-4.6,5.1-7,7.6c-0.6,0.7-1.2,0.6-1.8,0c-2.3-2.5-4.6-5-6.9-7.6 c-0.8-0.8-0.9-1.9-0.4-2.9c0.5-1.1,1-1.2,1.9-0.4c0.1-0.1,0.3-0.2,0.4-0.3c0.5-0.4,0.9-0.8,1.4-1.3c-1.1-1.2-2.2-2.3-3.2-3.5 c-1-1.1-1-2.7,0-3.7c0.4-0.4,0.7-0.5,1.1,0c1.3,1.4,2.6,2.9,3.9,4.3c1.6,1.7,3.8,1.8,5.5,0c0.5-0.5,0.9-1,1.4-1.6 c-0.6-0.5-1.2-1.1-1.8-1.6c-0.5,0.5-0.9,1-1.4,1.5c-0.6,0.6-1.2,0.7-1.8,0c-2.3-2.5-4.7-5.1-7-7.6c-0.6-0.6-0.8-1.4-0.6-2.3 c0.2-0.8,0.6-1.5,1.5-1.7c0.8-0.2,1.5,0.1,2,0.7c1,1.1,2,2.2,3,3.3c1.2,1.3,2.7,1.3,3.9,0c0.9-1,1.8-2,2.8-3c0.9-1,1.9-1.3,2.7-0.7 c0.9,0.6,1.3,2,0.8,3.1c-0.2,0.3-0.4,0.7-0.6,0.9c-1.2,1.3-2.4,2.6-3.7,4c0.6,0.5,1.2,1.1,1.8,1.6c0.3-0.4,0.7-0.7,0.9-1 c0.3-0.4,0.6-0.3,1-0.1c1,0.8,1.2,2.5,0.3,3.6c-2.3,2.6-4.7,5.2-7.1,7.8c-0.5,0.6-1.1,0.5-1.7-0.1C59.8,51.9,59.2,51.2,58.5,50.5z"></path> <path class="st1" d="M36,67.9c0.6-0.6,1.2-1.1,1.8-1.7c-1.3-1.4-2.5-2.8-3.8-4.1c-1-1.1-1-2.7-0.1-3.7c0.4-0.4,0.7-0.5,1.2,0 c1.2,1.4,2.5,2.8,3.8,4.2c1.7,1.9,3.9,1.9,5.7,0c1.3-1.4,2.5-2.8,3.8-4.2c0.4-0.5,0.7-0.4,1.1,0c0.9,0.9,1.1,2.5,0.1,3.5 c-2.3,2.6-4.7,5.2-7,7.7c-0.6,0.6-1.2,0.6-1.8,0c-0.5-0.5-0.9-1-1.4-1.5c-0.6,0.5-1.2,1.1-1.8,1.6c0.7,0.7,1.3,1.5,2,2.1 c1.4,1.2,3.4,1,4.7-0.4c1.4-1.4,2.7-2.9,4-4.4c0.5-0.6,0.8-0.4,1.2,0c0.9,1,0.9,2.5-0.1,3.7c-1.1,1.2-2.1,2.4-3.2,3.5 c-0.2,0.2-0.3,0.4-0.5,0.6c0.6,0.5,1.1,1,1.8,1.6c0.3-0.3,0.6-0.6,0.9-0.9c0.4-0.5,0.7-0.4,1.1,0c0.9,0.9,1.1,2.5,0.2,3.5 c-2.3,2.6-4.7,5.2-7.1,7.8c-0.5,0.6-1.2,0.6-1.7,0c-2.3-2.6-4.7-5.1-7-7.7c-0.9-1-0.8-2.5,0.1-3.5c0.4-0.4,0.8-0.5,1.2,0 c1.2,1.4,2.5,2.8,3.8,4.2c1.6,1.8,3.8,1.8,5.5,0c0.5-0.5,0.9-1,1.4-1.5c-0.6-0.5-1.2-1.1-1.8-1.6c-0.5,0.5-0.9,1-1.4,1.5 c-0.6,0.7-1.2,0.7-1.9,0c-2.3-2.5-4.6-5-6.9-7.5c-1-1.1-0.9-2.7,0.1-3.6c0.4-0.4,0.7-0.5,1.1,0C35.4,67.2,35.7,67.5,36,67.9z"></path> <path class="st1" d="M78,42c-0.6,0.6-1.2,1.1-1.8,1.6c0.7,0.8,1.3,1.5,2,2.2c1.5,1.5,3.7,1.5,5.1,0c1.4-1.4,2.7-2.9,4-4.4 c0.5-0.6,0.7-0.6,1.3,0c0.8,0.9,0.9,2.4,0.1,3.4c-2.3,2.6-4.7,5.2-7.1,7.8c-0.5,0.6-1.2,0.6-1.7,0c-2.3-2.6-4.7-5.1-7-7.7 C72.1,44,72,43,72.5,42c0.5-1.1,1-1.2,1.9-0.4c0.6-0.5,1.1-1,1.8-1.6c-1.1-1.2-2.1-2.4-3.2-3.5c-0.7-0.7-0.9-1.6-0.7-2.5 c0.5-1.8,2.2-2.2,3.4-0.9c1,1,1.9,2.1,2.9,3.1c1.4,1.5,2.8,1.5,4.2,0c0.9-1,1.8-2,2.7-2.9c0.9-1,1.9-1.2,2.7-0.7 c0.9,0.6,1.3,1.9,0.8,3c-0.2,0.4-0.4,0.7-0.7,1c-2.2,2.4-4.3,4.8-6.5,7.1c-0.9,1-1.4,1-2.4,0C79.1,43.1,78.5,42.6,78,42z"></path> <path class="st1" d="M84.9,61.1c-0.6-0.5-1.2-1.1-1.8-1.6c-0.5,0.5-0.9,1.1-1.4,1.5c-0.6,0.6-1.2,0.7-1.8,0c-2.3-2.5-4.6-5-6.9-7.6 c-1-1.1-0.9-2.6,0-3.6c0.4-0.4,0.7-0.5,1.2,0c1.2,1.4,2.5,2.8,3.8,4.2c1.7,1.9,3.9,1.9,5.7,0c1.3-1.4,2.5-2.8,3.8-4.2 c0.4-0.5,0.7-0.4,1.1,0c1,1,1,2.6,0,3.7c-1,1.2-2.1,2.3-3.2,3.5c0.6,0.5,1.2,1.1,1.8,1.6c0.9-0.8,1.5-0.7,2,0.5 c0.5,1,0.3,2-0.4,2.8c-2.3,2.5-4.6,5.1-6.9,7.6c-0.6,0.7-1.2,0.7-1.9,0c-2.3-2.5-4.6-5-6.9-7.5c-1-1.1-0.9-2.7,0.1-3.6 c0.4-0.4,0.7-0.4,1.1,0c1.3,1.4,2.5,2.8,3.8,4.2c1.7,1.8,3.9,1.8,5.6,0C84,62.1,84.4,61.6,84.9,61.1z"></path> <path class="st1" d="M78,76.1c-0.6,0.6-1.2,1.1-1.8,1.6c0.8,0.8,1.4,1.6,2.2,2.4c1.4,1.3,3.5,1.2,4.9-0.2c1.4-1.4,2.7-2.9,4-4.4 c0.5-0.6,0.7-0.6,1.3,0c0.9,1,0.9,2.5,0,3.5c-2.3,2.6-4.6,5.1-7,7.6c-0.6,0.7-1.2,0.6-1.8,0c-2.3-2.5-4.6-5-6.9-7.6 c-0.8-0.8-0.9-1.9-0.4-2.9c0.5-1.1,1-1.2,1.9-0.4c0.6-0.5,1.1-1,1.7-1.6c-1.1-1.2-2.1-2.3-3.2-3.5c-1-1.1-1-2.7,0-3.7 c0.4-0.4,0.7-0.5,1.1,0c1.2,1.4,2.5,2.8,3.8,4.2c1.8,1.9,3.9,1.9,5.7,0c1.3-1.4,2.5-2.7,3.7-4.1c0.4-0.5,0.8-0.5,1.2,0 c0.9,0.9,1,2.5,0.1,3.5c-2.3,2.6-4.7,5.2-7.1,7.8c-0.6,0.6-1.2,0.6-1.8,0C79.2,77.4,78.6,76.8,78,76.1z"></path> <path class="st1" d="M65.4,69.6c-0.6-0.6-1.2-1.1-1.8-1.6c-0.5,0.5-0.9,1-1.3,1.5c-0.7,0.8-1.3,0.8-2,0c-2.3-2.5-4.6-5-6.8-7.5 c-1-1.1-0.9-2.8,0.1-3.7c0.4-0.4,0.7-0.4,1.1,0c1.3,1.4,2.6,2.9,3.9,4.3c1.6,1.8,3.9,1.8,5.5,0c1.3-1.4,2.6-2.8,3.8-4.2 c0.5-0.6,0.8-0.5,1.2,0c0.9,1,0.9,2.5-0.1,3.7c-1.1,1.2-2.1,2.4-3.2,3.5c-0.2,0.2-0.3,0.4-0.5,0.6c0.6,0.5,1.2,1.1,1.8,1.6 c0.3-0.4,0.6-0.7,0.9-1c0.3-0.4,0.6-0.4,1,0c1,0.9,1.2,2.5,0.2,3.6c-2.3,2.6-4.7,5.2-7.1,7.8c-0.5,0.6-1.2,0.6-1.7,0 c-2.3-2.6-4.7-5.1-7-7.7c-0.9-1.1-0.8-2.7,0.2-3.6c0.4-0.4,0.7-0.4,1.1,0c1.3,1.4,2.6,2.9,3.9,4.3c1.6,1.8,3.9,1.8,5.5,0 C64.5,70.7,64.9,70.2,65.4,69.6z"></path> <path class="st1" d="M45.9,52.6c-0.6-0.5-1.2-1.1-1.8-1.6c-0.5,0.5-0.9,1.1-1.4,1.5c-0.6,0.6-1.2,0.7-1.8,0c-2.3-2.5-4.7-5.1-7-7.6 c-1-1.1-0.8-2.7,0.2-3.6c0.4-0.3,0.7-0.4,1,0.1c1.3,1.4,2.6,2.9,3.9,4.3c1.7,1.8,3.9,1.8,5.6,0c1.3-1.4,2.5-2.8,3.8-4.2 c0.5-0.6,0.7-0.6,1.3,0c0.9,1,0.9,2.5-0.1,3.7c-1.2,1.4-2.5,2.7-3.7,4.1c0.6,0.5,1.2,1.1,1.8,1.6c0.3-0.3,0.6-0.6,0.9-1 c0.4-0.5,0.7-0.4,1.1,0c0.9,0.9,1.1,2.4,0.3,3.5c-2.3,2.7-4.7,5.3-7.2,7.9c-0.5,0.6-1.1,0.5-1.7,0c-2.4-2.6-4.7-5.1-7.1-7.8 c-0.9-1-0.8-2.5,0.1-3.5c0.4-0.5,0.8-0.5,1.2,0c1.2,1.4,2.5,2.8,3.8,4.2c1.7,1.8,3.9,1.8,5.6,0C45,53.6,45.5,53.1,45.9,52.6z"></path> <path class="st1" d="M59.7,85.9c-0.6,0.6-1.2,1.1-1.7,1.6c1.5,2.4,4.2,2.7,6.1,0.6c0.9-1,1.8-2,2.7-3c0.6-0.7,1.6-0.7,2.4-0.1 c0.7,0.6,0.9,1.6,0.3,2.3c0,0,0,0-0.1,0.1c-2.4,2.2-4.8,4.4-7.2,6.6c-0.6,0.5-1.2,0.4-1.9-0.1c-2.3-2.1-4.6-4.2-6.9-6.3 c-0.8-0.8-0.8-1.7-0.1-2.5c0.8-0.7,1.8-0.7,2.5,0.1c0.1,0.1,0.1,0.1,0.2,0.2c0.6-0.5,1.1-1,1.8-1.6c-1.4-1.6-2.8-3.1-4.3-4.7 c-0.9-1-1.1-2.1-0.5-3.1c0.1-0.2,0.2-0.4,0.4-0.6c0.4-0.5,0.8-0.5,1.2,0c1.2,1.4,2.5,2.8,3.8,4.2c1.7,1.8,3.9,1.8,5.6,0 c1.3-1.4,2.6-2.7,3.8-4.2c0.5-0.6,0.8-0.4,1.2,0c0.9,0.9,1,2.5,0.1,3.5c-2.3,2.6-4.7,5.1-7,7.7c-0.6,0.6-1.2,0.6-1.8,0 C60.2,86.4,60,86.2,59.7,85.9z"></path> <path class="st1" d="M50.5,34.7c-0.3,0.6-0.5,1.3-0.9,1.8c-2.2,2.5-4.5,4.9-6.7,7.4c-0.8,0.8-1.3,0.8-2.1,0 c-2.2-2.5-4.5-4.9-6.7-7.4c-0.7-0.7-0.9-1.6-0.6-2.6c0.5-1.7,2.1-2.1,3.4-0.9c1,1,1.9,2.1,2.9,3.2c1.4,1.5,2.8,1.5,4.2,0 c0.9-1,1.8-2,2.8-3c0.6-0.7,1.4-1.1,2.3-0.7C49.8,32.7,50.3,33.6,50.5,34.7z"></path> <path class="st1" d="M35.6,84.6c0.1,0.1,0.4,0.2,0.6,0.4c1,1,1.9,2.1,2.8,3.1c1.7,1.9,3.9,1.9,5.7,0c0.9-1,1.8-1.9,2.7-2.9 c0.6-0.7,1.7-0.7,2.4-0.1c0.7,0.7,0.8,1.6,0.2,2.4c-0.2,0.2-0.3,0.3-0.5,0.5c-2.1,1.9-4.1,3.8-6.2,5.6c-1.2,1.1-1.6,1.1-2.8,0 c-2.1-1.9-4.2-3.9-6.3-5.8c-0.6-0.5-1-1.1-0.7-2C33.7,85.1,34.4,84.7,35.6,84.6z"></path> <path class="st1" d="M74.6,84.6c0.1,0.1,0.4,0.2,0.6,0.4c1,1,1.9,2.1,2.9,3.1c1.6,1.7,3.8,1.8,5.5,0c1-1,1.9-2.1,2.8-3.1 c0.6-0.6,1.6-0.7,2.4,0c0.7,0.6,0.8,1.5,0.3,2.2c-0.1,0.1-0.2,0.2-0.3,0.3c-2.3,2.1-4.5,4.1-6.8,6.2c-0.8,0.7-1.4,0.7-2.2,0 c-2.2-2-4.4-4-6.6-6.1c-0.8-0.7-0.9-1.3-0.7-2C72.7,85,73.3,84.6,74.6,84.6z"></path> <path class="st1" d="M41.8,34.9c-0.8-0.9-1.6-1.7-2.3-2.6c-0.1-0.1-0.1-0.4-0.1-0.6c0-2.6,0-5.1,0-7.7c0-1,0.4-1.5,1.5-1.5 c0.7,0,1.3,0,2,0c0.9,0,1.4,0.5,1.4,1.3c0,2.6,0,5.3,0,7.9c0,0.2-0.1,0.5-0.2,0.6C43.3,33.3,42.6,34.1,41.8,34.9z"></path> <path class="st1" d="M61.3,34.9c-0.8-0.9-1.6-1.7-2.3-2.5c-0.1-0.2-0.2-0.5-0.2-0.7c0-2.6,0-5.1,0-7.7c0-1,0.4-1.4,1.4-1.4 c0.7,0,1.4,0,2.1,0c0.8,0,1.3,0.5,1.3,1.3c0,2.7,0,5.3,0,8c0,0.2-0.1,0.5-0.3,0.7C62.8,33.3,62.1,34.1,61.3,34.9z"></path> <path class="st1" d="M80.8,34.9c-0.8-0.9-1.5-1.7-2.2-2.5c-0.1-0.2-0.2-0.5-0.2-0.7c0-2.6,0-5.2,0-7.8c0-1,0.5-1.4,1.5-1.4 c0.7,0,1.4,0,2.1,0c0.9,0,1.3,0.5,1.4,1.3c0,2.7,0,5.3,0,8c0,0.2-0.1,0.5-0.2,0.6C82.3,33.3,81.6,34.1,80.8,34.9z"></path> <path class="st1" d="M53.2,82.4c-0.6,0.4-1.1,0.7-1.7,1c-0.5-0.3-1.1-0.6-1.7-1c0.5-0.6,1.1-1.2,1.7-1.8 C52.1,81.2,52.7,81.8,53.2,82.4z"></path> <path class="st1" d="M71,80.5c0.6,0.6,1.1,1.2,1.7,1.8c-0.6,0.4-1.1,0.7-1.7,1c-0.5-0.3-1-0.6-1.7-1C69.9,81.8,70.4,81.2,71,80.5z"></path> <path class="st1" d="M72,47.5c-0.3,0.3-0.6,0.5-0.9,0.8c-0.3-0.3-0.6-0.5-1-0.8c0.3-0.3,0.6-0.7,1-1C71.3,46.8,71.6,47.1,72,47.5z"></path> <path class="st1" d="M50.6,56c0.3-0.4,0.6-0.7,1-1c0.3,0.4,0.6,0.7,1,1c-0.3,0.3-0.6,0.5-0.9,0.8C51.2,56.6,51,56.3,50.6,56z"></path> <path class="st1" d="M72,56c-0.4,0.3-0.6,0.5-1,0.8c-0.3-0.3-0.6-0.5-1-0.8c0.3-0.3,0.6-0.6,0.9-1C71.3,55.3,71.6,55.7,72,56z"></path> <path class="st1" d="M52.5,47.5c-0.4,0.3-0.6,0.5-0.9,0.8c-0.3-0.3-0.6-0.5-1-0.8c0.3-0.3,0.6-0.6,0.9-1 C51.9,46.8,52.2,47.2,52.5,47.5z"></path> <path class="st1" d="M51.5,63.5c0.3,0.4,0.6,0.7,0.9,1c-0.3,0.3-0.6,0.5-0.9,0.8c-0.3-0.3-0.6-0.5-1-0.8 C50.9,64.2,51.2,63.9,51.5,63.5z"></path> <path class="st1" d="M71,63.5c0.3,0.4,0.6,0.7,0.9,1c-0.3,0.3-0.6,0.5-0.9,0.8c-0.3-0.3-0.6-0.5-1-0.8C70.4,64.2,70.6,63.9,71,63.5 z"></path> <path class="st1" d="M71,39.8c-0.3-0.3-0.6-0.5-0.9-0.8c0.3-0.3,0.6-0.6,0.9-1c0.3,0.3,0.6,0.7,1,1C71.6,39.3,71.3,39.5,71,39.8z"></path> <path class="st1" d="M52.5,73.1c-0.4,0.3-0.6,0.5-1,0.8c-0.3-0.3-0.6-0.5-1-0.8c0.3-0.3,0.6-0.6,0.9-1 C51.9,72.4,52.2,72.7,52.5,73.1z"></path> <path class="st1" d="M71,73.9c-0.3-0.3-0.6-0.5-1-0.8c0.3-0.3,0.6-0.7,0.9-1c0.3,0.4,0.6,0.7,1,1C71.6,73.3,71.3,73.6,71,73.9z"></path> <path class="st1" d="M51.5,37.9c0.3,0.4,0.6,0.7,0.9,1c-0.3,0.3-0.6,0.5-0.9,0.8c-0.3-0.3-0.6-0.5-1-0.8 C50.9,38.6,51.2,38.3,51.5,37.9z"></path> </g> </svg> 