<?xml version="1.0" encoding="UTF-8"?> <svg xmlns="http://www.w3.org/2000/svg" xmlns:xlink="http://www.w3.org/1999/xlink" version="1.1" id="Capa_1" x="0px" y="0px" viewBox="0 0 106 101" style="enable-background:new 0 0 106 101;" xml:space="preserve"> <style type="text/css"> .st0{fill:#5BC89E;} </style> <g> <path class="st0" d="M58,65.9c1.5,0.2,2.8-0.8,3-2.3c0.2-1.5-0.8-2.8-2.3-3c-5.5-0.8-11,0.7-15.3,4l-4-4c3.3-4.3,4.8-9.9,4-15.3 c-0.2-1.5-1.6-2.5-3-2.3c-1.5,0.2-2.5,1.6-2.3,3c0.5,3.8-0.4,7.7-2.6,10.8l-0.5-0.5c-1-1-2.7-1-3.8,0L8.8,78.9c-1,1-1,2.7,0,3.8 l12.6,12.6c1,1,2.7,1,3.8,0l22.5-22.5c1-1,1-2.7,0-3.8l-0.5-0.5C50.3,66.3,54.2,65.3,58,65.9z M23.2,89.6l-8.8-8.8L33.2,62l8.8,8.8 L23.2,89.6z"></path> <path class="st0" d="M32.8,33.5c1,1,2.7,1,3.8,0c1-1,1-2.7,0-3.8l-5-5c-1-1-2.7-1-3.8,0c-1,1-1,2.7,0,3.8L32.8,33.5z"></path> <path class="st0" d="M74.2,67.5c-1-1-2.7-1-3.8,0c-1,1-1,2.7,0,3.8l5,5c1,1,2.7,1,3.8,0c1-1,1-2.7,0-3.8L74.2,67.5z"></path> <path class="st0" d="M20.2,44.3l6.9,1.8c1.4,0.4,2.9-0.5,3.3-1.9s-0.5-2.9-1.9-3.3l-6.9-1.8c-1.4-0.4-2.9,0.5-3.3,1.9 C17.9,42.5,18.8,44,20.2,44.3L20.2,44.3z"></path> <path class="st0" d="M86.8,56.7l-6.9-1.8c-1.4-0.4-2.9,0.5-3.3,1.9c-0.4,1.4,0.5,2.9,1.9,3.3l6.9,1.8c1.4,0.4,2.9-0.5,3.3-1.9 C89.1,58.5,88.2,57,86.8,56.7z"></path> <path class="st0" d="M63,75.6c-0.4-1.4-1.8-2.3-3.3-1.9c-1.4,0.4-2.3,1.8-1.9,3.3l1.8,6.9c0.4,1.4,1.8,2.3,3.3,1.9 c1.4-0.4,2.3-1.8,1.9-3.3L63,75.6z"></path> <path class="st0" d="M44,25.4c0.4,1.4,1.8,2.3,3.3,1.9s2.3-1.8,1.9-3.3l-1.8-6.9c-0.4-1.4-1.8-2.3-3.3-1.9 c-1.4,0.4-2.3,1.8-1.9,3.3L44,25.4z"></path> <path class="st0" d="M98.2,18.3L85.7,5.8c-1-1-2.7-1-3.8,0L59.3,28.3c-1,1-1,2.7,0,3.8l0.5,0.5c-3.1,2.2-7,3.1-10.8,2.6 c-1.5-0.2-2.8,0.8-3,2.3c-0.2,1.5,0.8,2.8,2.3,3c5.5,0.8,11-0.7,15.3-4l4,4c-3.3,4.3-4.8,9.9-4,15.3c0.2,1.5,1.6,2.5,3,2.3 c1.5-0.2,2.5-1.6,2.3-3c-0.5-3.8,0.4-7.7,2.6-10.8l0.5,0.5c1,1,2.7,1,3.8,0l22.5-22.5C99.3,21.1,99.3,19.4,98.2,18.3z M73.8,39 L65,30.2l18.8-18.8l8.8,8.8L73.8,39z"></path> </g> </svg> 