<?xml version="1.0" encoding="UTF-8"?> <svg xmlns="http://www.w3.org/2000/svg" width="31" height="55" viewBox="0 0 31 55" fill="none"><path d="M31 39.1325C30.9537 28.2785 24.0677 25.2549 19.4329 21.9664C18.2027 21.145 17.0524 20.2151 15.9966 19.1883C15.7313 18.9103 15.492 18.6098 15.2815 18.2903C15.0393 17.8631 14.9117 17.383 14.9107 16.8947C14.9107 16.5192 14.9866 16.1473 15.1341 15.8005C15.2816 15.4536 15.4978 15.1385 15.7702 14.8732C16.0427 14.608 16.3661 14.3978 16.7219 14.2546C17.0777 14.1115 17.459 14.0383 17.8439 14.0391H28.2787C28.4909 14.0391 28.701 13.9983 28.897 13.9191C29.093 13.8399 29.2711 13.7238 29.4211 13.5774C29.5711 13.431 29.6901 13.2572 29.7713 13.066C29.8525 12.8747 29.8943 12.6697 29.8943 12.4627V3.15283C29.8943 2.31664 29.5539 1.51471 28.9479 0.923441C28.342 0.332172 27.5201 0 26.6632 0L15.5066 0V9.41325V10.5697C15.5075 11.0256 15.4161 11.4771 15.2378 11.8984C15.0594 12.3197 14.7975 12.7025 14.4672 13.0249C14.1368 13.3472 13.7445 13.6027 13.3128 13.7768C12.881 13.9508 12.4183 14.04 11.9511 14.0391H0V14.8596C0.0179826 17.6652 0.779834 20.4184 2.21145 22.8515C4.58842 27.0381 8.17044 29.6805 10.9778 31.7544C12.2159 32.6653 14.871 34.778 14.9505 34.8232C15.4179 35.1739 15.8076 35.6134 16.0959 36.1154C16.2718 36.4227 16.3843 36.7607 16.427 37.1103C16.4401 37.2737 16.4401 37.4379 16.427 37.6013C16.4387 38.4252 16.1367 39.2241 15.5795 39.8432V39.8819L15.4073 40.037C15.3847 40.0623 15.3604 40.086 15.3345 40.1081L15.169 40.2437L15.0829 40.3019L14.8842 40.4311H14.8379C14.2852 40.7594 13.6509 40.9337 13.0038 40.935H1.11897V51.8472C1.11894 52.6789 1.45572 53.4769 2.05595 54.0675C2.65618 54.658 3.47124 54.9932 4.32358 55H13.8646C14.2931 55 14.704 54.8339 15.007 54.5383C15.3099 54.2426 15.4801 53.8417 15.4801 53.4236V45.2249V44.4303C15.4793 43.9744 15.5706 43.5229 15.749 43.1016C15.9274 42.6803 16.1892 42.2975 16.5196 41.9752C16.8499 41.6528 17.2422 41.3973 17.674 41.2232C18.1058 41.0492 18.5685 40.96 19.0357 40.9609H30.9868L31 39.1325Z" fill="#41C59D"></path></svg> 