<?xml version="1.0" encoding="UTF-8"?> <svg xmlns="http://www.w3.org/2000/svg" width="106" height="113" viewBox="0 0 106 113" fill="none"><g clip-path="url(#clip0_202_250)"><path d="M6.83004 38.5099C10.6022 38.5099 13.6601 35.4765 13.6601 31.7346C13.6601 27.9927 10.6022 24.9592 6.83004 24.9592C3.05791 24.9592 0 27.9927 0 31.7346C0 35.4765 3.05791 38.5099 6.83004 38.5099Z" fill="#41C59D"></path><path d="M13.6601 56.5655C13.5665 58.2997 12.8062 59.9324 11.5355 61.1272C10.2649 62.322 8.58079 62.988 6.83003 62.988C5.07927 62.988 3.39515 62.322 2.12453 61.1272C0.85391 59.9324 0.0935487 58.2997 0 56.5655C0 52.1794 3.90846 48.9638 6.83981 46.7902C9.78826 48.9638 13.6601 52.0607 13.6601 56.5655Z" fill="#41C59D"></path><path d="M13.6601 81.3938C13.7097 82.314 13.5699 83.2346 13.249 84.0995C12.9282 84.9644 12.4332 85.7553 11.794 86.4241C11.1549 87.093 10.3852 87.6256 9.53175 87.9896C8.6783 88.3536 7.75903 88.5414 6.83004 88.5414C5.90105 88.5414 4.98178 88.3536 4.12833 87.9896C3.27488 87.6256 2.50514 87.093 1.86603 86.4241C1.22693 85.7553 0.731857 84.9644 0.411035 84.0995C0.0902125 83.2346 -0.0496325 82.314 6.51646e-06 81.3938C6.51646e-06 76.3656 4.77322 72.9682 6.83982 68.6185C8.97238 72.9682 13.6601 76.1281 13.6601 81.3938Z" fill="#41C59D"></path><path d="M13.6601 106.225C13.5665 107.959 12.8062 109.592 11.5355 110.786C10.2649 111.981 8.58079 112.647 6.83003 112.647C5.07927 112.647 3.39515 111.981 2.12453 110.786C0.85391 109.592 0.0935487 107.959 0 106.225C0 100.552 5.61842 96.9728 6.83981 90.447C8.15892 96.9728 13.6601 100.196 13.6601 106.225Z" fill="#41C59D"></path><path d="M22.2197 51.3531C25.9918 51.3531 29.0497 48.3196 29.0497 44.5777C29.0497 40.8358 25.9918 37.8024 22.2197 37.8024C18.4476 37.8024 15.3896 40.8358 15.3896 44.5777C15.3896 48.3196 18.4476 51.3531 22.2197 51.3531Z" fill="#41C59D"></path><path d="M29.0497 69.4085C28.9562 71.1427 28.1958 72.7754 26.9252 73.9702C25.6546 75.165 23.9704 75.831 22.2197 75.831C20.4689 75.831 18.7848 75.165 17.5142 73.9702C16.2436 72.7754 15.4832 71.1427 15.3896 69.4085C15.3896 65.0224 19.2981 61.8068 22.2295 59.6332C25.1779 61.8068 29.0497 64.9037 29.0497 69.4085Z" fill="#41C59D"></path><path d="M29.0497 94.2369C29.0994 95.1572 28.9595 96.0778 28.6387 96.9426C28.3179 97.8075 27.8228 98.5985 27.1837 99.2673C26.5446 99.9361 25.7749 100.469 24.9214 100.833C24.068 101.197 23.1487 101.385 22.2197 101.385C21.2907 101.385 20.3714 101.197 19.518 100.833C18.6645 100.469 17.8948 99.9361 17.2557 99.2673C16.6166 98.5985 16.1215 97.8075 15.8007 96.9426C15.4799 96.0778 15.34 95.1572 15.3897 94.2369C15.3897 89.2087 20.1629 85.8114 22.2295 81.4617C24.362 85.8114 29.0497 88.9713 29.0497 94.2369Z" fill="#41C59D"></path><path d="M37.6093 38.5099C41.3815 38.5099 44.4394 35.4765 44.4394 31.7346C44.4394 27.9927 41.3815 24.9592 37.6093 24.9592C33.8372 24.9592 30.7793 27.9927 30.7793 31.7346C30.7793 35.4765 33.8372 38.5099 37.6093 38.5099Z" fill="#41C59D"></path><path d="M44.4394 56.5655C44.3458 58.2997 43.5854 59.9324 42.3148 61.1272C41.0442 62.322 39.3601 62.988 37.6093 62.988C35.8586 62.988 34.1744 62.322 32.9038 61.1272C31.6332 59.9324 30.8728 58.2997 30.7793 56.5655C30.7793 52.1794 34.6878 48.9638 37.6191 46.7902C40.5676 48.9638 44.4394 52.0607 44.4394 56.5655Z" fill="#41C59D"></path><path d="M44.4394 81.3938C44.489 82.314 44.3492 83.2346 44.0283 84.0995C43.7075 84.9644 43.2124 85.7553 42.5733 86.4241C41.9342 87.093 41.1645 87.6256 40.311 87.9896C39.4576 88.3536 38.5383 88.5414 37.6093 88.5414C36.6803 88.5414 35.7611 88.3536 34.9076 87.9896C34.0542 87.6256 33.2844 87.093 32.6453 86.4241C32.0062 85.7553 31.5112 84.9644 31.1903 84.0995C30.8695 83.2346 30.7297 82.314 30.7793 81.3938C30.7793 76.3656 35.5525 72.9682 37.6191 68.6185C39.7517 72.9682 44.4394 76.1281 44.4394 81.3938Z" fill="#41C59D"></path><path d="M44.4394 106.225C44.3458 107.959 43.5854 109.592 42.3148 110.786C41.0442 111.981 39.3601 112.647 37.6093 112.647C35.8586 112.647 34.1744 111.981 32.9038 110.786C31.6332 109.592 30.8728 107.959 30.7793 106.225C30.7793 100.552 36.3977 96.9728 37.6191 90.447C38.9382 96.9728 44.4394 100.196 44.4394 106.225Z" fill="#41C59D"></path><path d="M52.999 51.3531C56.7711 51.3531 59.829 48.3196 59.829 44.5777C59.829 40.8358 56.7711 37.8024 52.999 37.8024C49.2269 37.8024 46.1689 40.8358 46.1689 44.5777C46.1689 48.3196 49.2269 51.3531 52.999 51.3531Z" fill="#41C59D"></path><path d="M59.829 69.4085C59.7355 71.1427 58.9751 72.7754 57.7045 73.9702C56.4339 75.165 54.7497 75.831 52.999 75.831C51.2482 75.831 49.5641 75.165 48.2935 73.9702C47.0229 72.7754 46.2625 71.1427 46.1689 69.4085C46.1689 65.0224 50.0774 61.8068 53.0088 59.6332C55.9572 61.8068 59.829 64.9037 59.829 69.4085Z" fill="#41C59D"></path><path d="M59.829 94.2369C59.8787 95.1572 59.7388 96.0778 59.418 96.9426C59.0972 97.8075 58.6021 98.5985 57.963 99.2673C57.3239 99.9361 56.5541 100.469 55.7007 100.833C54.8472 101.197 53.928 101.385 52.999 101.385C52.07 101.385 51.1507 101.197 50.2973 100.833C49.4438 100.469 48.6741 99.9361 48.035 99.2673C47.3959 98.5985 46.9008 97.8075 46.58 96.9426C46.2592 96.0778 46.1193 95.1572 46.169 94.2369C46.169 89.2087 50.9422 85.8114 53.0088 81.4617C55.1413 85.8114 59.829 88.9713 59.829 94.2369Z" fill="#41C59D"></path><path d="M68.3886 38.5099C72.1608 38.5099 75.2187 35.4765 75.2187 31.7346C75.2187 27.9927 72.1608 24.9592 68.3886 24.9592C64.6165 24.9592 61.5586 27.9927 61.5586 31.7346C61.5586 35.4765 64.6165 38.5099 68.3886 38.5099Z" fill="#41C59D"></path><path d="M75.2187 56.5655C75.1251 58.2997 74.3647 59.9324 73.0941 61.1272C71.8235 62.322 70.1394 62.988 68.3886 62.988C66.6379 62.988 64.9537 62.322 63.6831 61.1272C62.4125 59.9324 61.6521 58.2997 61.5586 56.5655C61.5586 52.1794 65.4671 48.9638 68.3984 46.7902C71.3469 48.9638 75.2187 52.0607 75.2187 56.5655Z" fill="#41C59D"></path><path d="M75.2187 81.3938C75.2683 82.314 75.1285 83.2346 74.8076 84.0995C74.4868 84.9644 73.9917 85.7553 73.3526 86.4241C72.7135 87.093 71.9438 87.6256 71.0903 87.9896C70.2369 88.3536 69.3176 88.5414 68.3886 88.5414C67.4596 88.5414 66.5404 88.3536 65.6869 87.9896C64.8335 87.6256 64.0637 87.093 63.4246 86.4241C62.7855 85.7553 62.2905 84.9644 61.9696 84.0995C61.6488 83.2346 61.509 82.314 61.5586 81.3938C61.5586 76.3656 66.3318 72.9682 68.3984 68.6185C70.531 72.9682 75.2187 76.1281 75.2187 81.3938Z" fill="#41C59D"></path><path d="M75.2187 106.225C75.1251 107.959 74.3647 109.592 73.0941 110.786C71.8235 111.981 70.1394 112.647 68.3886 112.647C66.6379 112.647 64.9537 111.981 63.6831 110.786C62.4125 109.592 61.6521 107.959 61.5586 106.225C61.5586 100.552 67.177 96.9728 68.3984 90.447C69.7175 96.9728 75.2187 100.196 75.2187 106.225Z" fill="#41C59D"></path><path d="M83.7783 51.3531C87.5504 51.3531 90.6083 48.3196 90.6083 44.5777C90.6083 40.8358 87.5504 37.8024 83.7783 37.8024C80.0062 37.8024 76.9482 40.8358 76.9482 44.5777C76.9482 48.3196 80.0062 51.3531 83.7783 51.3531Z" fill="#41C59D"></path><path d="M90.6083 69.4085C90.5148 71.1427 89.7544 72.7754 88.4838 73.9702C87.2132 75.165 85.529 75.831 83.7783 75.831C82.0275 75.831 80.3434 75.165 79.0728 73.9702C77.8022 72.7754 77.0418 71.1427 76.9482 69.4085C76.9482 65.0224 80.8567 61.8068 83.7881 59.6332C86.7365 61.8068 90.6083 64.9037 90.6083 69.4085Z" fill="#41C59D"></path><path d="M90.6083 94.2369C90.658 95.1572 90.5181 96.0778 90.1973 96.9426C89.8765 97.8075 89.3814 98.5985 88.7423 99.2673C88.1032 99.9361 87.3334 100.469 86.48 100.833C85.6265 101.197 84.7073 101.385 83.7783 101.385C82.8493 101.385 81.93 101.197 81.0766 100.833C80.2231 100.469 79.4534 99.9361 78.8143 99.2673C78.1752 98.5985 77.6801 97.8075 77.3593 96.9426C77.0385 96.0778 76.8986 95.1572 76.9482 94.2369C76.9482 89.2087 81.7215 85.8114 83.7881 81.4617C85.9206 85.8114 90.6083 88.9713 90.6083 94.2369Z" fill="#41C59D"></path><path d="M99.1679 38.5099C102.94 38.5099 105.998 35.4765 105.998 31.7346C105.998 27.9927 102.94 24.9592 99.1679 24.9592C95.3958 24.9592 92.3379 27.9927 92.3379 31.7346C92.3379 35.4765 95.3958 38.5099 99.1679 38.5099Z" fill="#41C59D"></path><path d="M6.83004 13.5507C10.6022 13.5507 13.6601 10.5173 13.6601 6.77535C13.6601 3.03343 10.6022 0 6.83004 0C3.05791 0 0 3.03343 0 6.77535C0 10.5173 3.05791 13.5507 6.83004 13.5507Z" fill="#41C59D"></path><path d="M22.2197 26.3938C25.9918 26.3938 29.0497 23.3604 29.0497 19.6185C29.0497 15.8766 25.9918 12.8431 22.2197 12.8431C18.4476 12.8431 15.3896 15.8766 15.3896 19.6185C15.3896 23.3604 18.4476 26.3938 22.2197 26.3938Z" fill="#41C59D"></path><path d="M37.6093 13.5507C41.3815 13.5507 44.4394 10.5173 44.4394 6.77535C44.4394 3.03343 41.3815 0 37.6093 0C33.8372 0 30.7793 3.03343 30.7793 6.77535C30.7793 10.5173 33.8372 13.5507 37.6093 13.5507Z" fill="#41C59D"></path><path d="M52.999 26.3938C56.7711 26.3938 59.829 23.3604 59.829 19.6185C59.829 15.8766 56.7711 12.8431 52.999 12.8431C49.2269 12.8431 46.1689 15.8766 46.1689 19.6185C46.1689 23.3604 49.2269 26.3938 52.999 26.3938Z" fill="#41C59D"></path><path d="M68.3886 13.5507C72.1608 13.5507 75.2187 10.5173 75.2187 6.77535C75.2187 3.03343 72.1608 0 68.3886 0C64.6165 0 61.5586 3.03343 61.5586 6.77535C61.5586 10.5173 64.6165 13.5507 68.3886 13.5507Z" fill="#41C59D"></path><path d="M83.7783 26.3938C87.5504 26.3938 90.6083 23.3604 90.6083 19.6185C90.6083 15.8766 87.5504 12.8431 83.7783 12.8431C80.0062 12.8431 76.9482 15.8766 76.9482 19.6185C76.9482 23.3604 80.0062 26.3938 83.7783 26.3938Z" fill="#41C59D"></path><path d="M99.1679 13.5507C102.94 13.5507 105.998 10.5173 105.998 6.77535C105.998 3.03343 102.94 0 99.1679 0C95.3958 0 92.3379 3.03343 92.3379 6.77535C92.3379 10.5173 95.3958 13.5507 99.1679 13.5507Z" fill="#41C59D"></path><path d="M105.998 56.5655C105.904 58.2997 105.144 59.9324 103.873 61.1272C102.603 62.322 100.919 62.988 99.1679 62.988C97.4172 62.988 95.733 62.322 94.4624 61.1272C93.1918 59.9324 92.4314 58.2997 92.3379 56.5655C92.3379 52.1794 96.2464 48.9638 99.1777 46.7902C102.126 48.9638 105.998 52.0607 105.998 56.5655Z" fill="#41C59D"></path><path d="M105.998 81.3938C106.048 82.314 105.908 83.2346 105.587 84.0995C105.266 84.9644 104.771 85.7553 104.132 86.4241C103.493 87.093 102.723 87.6256 101.87 87.9896C101.016 88.3536 100.097 88.5414 99.1679 88.5414C98.2389 88.5414 97.3197 88.3536 96.4662 87.9896C95.6128 87.6256 94.843 87.093 94.2039 86.4241C93.5648 85.7553 93.0697 84.9644 92.7489 84.0995C92.4281 83.2346 92.2883 82.314 92.3379 81.3938C92.3379 76.3656 97.1111 72.9682 99.1777 68.6185C101.31 72.9682 105.998 76.1281 105.998 81.3938Z" fill="#41C59D"></path><path d="M105.998 106.225C105.904 107.959 105.144 109.592 103.873 110.786C102.603 111.981 100.919 112.647 99.1679 112.647C97.4172 112.647 95.733 111.981 94.4624 110.786C93.1918 109.592 92.4314 107.959 92.3379 106.225C92.3379 100.552 97.9563 96.9728 99.1777 90.447C100.497 96.9728 105.998 100.196 105.998 106.225Z" fill="#41C59D"></path></g><defs><clipPath id="clip0_202_250"><rect width="106" height="113" fill="white"></rect></clipPath></defs></svg> 